<svg width="53" height="52" viewBox="0 0 53 52" fill="none" xmlns="http://www.w3.org/2000/svg">
<path fill-rule="evenodd" clip-rule="evenodd" d="M0.330078 23.4556C0.330078 18.0837 2.18376 13.1395 5.29368 9.21332L8.16013 7.81488L9.30582 5.24528C13.2833 2.16343 18.2957 0.325867 23.7425 0.325867H28.8932C34.397 0.325867 39.4571 2.20201 43.4542 5.34225L44.5722 7.80377L46.9449 8.72556C50.2935 12.7263 52.3056 17.8588 52.3056 23.4556V28.5441C52.3056 34.126 50.3042 39.2461 46.9716 43.2421L44.1136 44.5091L43.1714 46.8762C39.2196 49.8846 34.2679 51.6738 28.8932 51.6738H23.7425C18.583 51.6738 13.8133 50.025 9.94377 47.2316L8.67502 44.6934L5.85257 43.4652C2.40712 39.4375 0.330078 34.2304 0.330078 28.5441V23.4556Z" fill="url(#paint0_linear_246_10430)"/>
<ellipse cx="26.3182" cy="26" rx="23.1278" ry="22.8485" fill="url(#paint1_linear_246_10430)"/>
<ellipse cx="25.9613" cy="25.9289" rx="20.4623" ry="20.1669" fill="url(#paint2_linear_246_10430)"/>
<path d="M20.1047 38.3401C18.923 38.3472 17.881 38.1761 16.9786 37.8267C16.0948 37.4563 15.3978 36.9596 14.8876 36.3365C14.3773 35.6926 14.1197 34.9637 14.1148 34.1497C14.1107 33.461 14.2762 32.9173 14.6114 32.5188C14.9653 32.0992 15.4048 31.8878 15.9299 31.8847C16.2676 31.8826 16.5682 31.9643 16.8317 32.1297C17.114 32.2741 17.331 32.4919 17.4828 32.7832C17.6532 33.0535 17.7396 33.3765 17.7418 33.7522C17.7438 34.0861 17.6798 34.3474 17.5496 34.536C17.4382 34.7245 17.3079 34.8818 17.1586 35.008C17.0093 35.1341 16.8694 35.2602 16.7388 35.3862C16.6269 35.4912 16.5716 35.6585 16.573 35.8881C16.5753 36.2638 16.7553 36.5653 17.113 36.7927C17.4894 36.9992 17.9217 37.1531 18.41 37.2545C18.9171 37.3558 19.3675 37.4053 19.7614 37.4029C21.0743 37.395 22.0748 36.8985 22.7629 35.9134C23.4697 34.9282 23.8176 33.5173 23.8065 31.6807C23.7961 29.9485 23.4317 28.6253 22.7135 27.7113C21.9952 26.7973 20.8014 26.3453 19.1322 26.3554L21.8849 25.6187C23.0487 25.7578 24.0637 26.117 24.93 26.6961C25.8149 27.2543 26.5038 27.9598 26.9966 28.8126C27.4894 29.6653 27.739 30.6135 27.7452 31.657C27.752 32.784 27.449 33.8607 26.8362 34.8871C26.2421 35.8925 25.3749 36.7221 24.2347 37.376C23.0943 38.009 21.7177 38.3304 20.1047 38.3401ZM18.5018 26.3592L18.4925 24.8197L21.88 24.7993L21.8893 26.3388L18.5018 26.3592ZM20.2258 25.754L18.592 25.4194C20.1112 25.4103 21.1962 24.9341 21.847 23.991C22.4977 23.027 22.818 21.7102 22.8079 20.0405C22.8015 18.9761 22.6747 18.1525 22.4273 17.5696C22.1987 16.9866 21.8587 16.5816 21.4071 16.3548C20.9742 16.1069 20.4483 15.9848 19.8294 15.9886C19.1354 15.9928 18.5547 16.111 18.0871 16.3434C17.6196 16.5758 17.3871 16.8903 17.3895 17.2869C17.3908 17.5164 17.467 17.7038 17.6179 17.849C17.7688 17.9942 17.92 18.1707 18.0713 18.3785C18.2224 18.5654 18.2992 18.8572 18.3016 19.2537C18.3049 19.7963 18.1479 20.2043 17.8307 20.4775C17.5134 20.7299 17.1671 20.8572 16.792 20.8594C16.3231 20.8623 15.9187 20.6769 15.5788 20.3032C15.2577 19.9295 15.0955 19.4713 15.0923 18.9286C15.0886 18.3234 15.2914 17.7274 15.7005 17.1405C16.1283 16.5535 16.7443 16.0593 17.5485 15.6579C18.3526 15.2565 19.3267 15.0524 20.4708 15.0455C21.7274 15.0379 22.798 15.2715 23.6824 15.7462C24.5856 16.2208 25.2739 16.8428 25.7475 17.6122C26.221 18.3816 26.4604 19.2046 26.4657 20.0811C26.4714 21.0203 26.2141 21.8984 25.6938 22.7156C25.1922 23.5117 24.4741 24.1839 23.5396 24.7322C22.6049 25.2596 21.5003 25.6002 20.2258 25.754Z" fill="url(#paint3_linear_246_10430)"/>
<path d="M38.084 19.9225C38.1003 22.641 35.9525 24.8579 33.2866 24.874C30.6208 24.89 28.4464 22.6992 28.43 19.9806C28.4137 17.262 30.5615 15.0452 33.2274 15.0291C35.8932 15.013 38.0676 17.2039 38.084 19.9225Z" fill="#D9D9D9"/>
<path fill-rule="evenodd" clip-rule="evenodd" d="M33.2816 24.0356C35.469 24.0224 37.2593 22.1986 37.2456 19.9275C37.2319 17.6564 35.4198 15.8543 33.2324 15.8675C31.045 15.8806 29.2547 17.7044 29.2684 19.9756C29.2821 22.2467 31.0942 24.0488 33.2816 24.0356ZM33.2866 24.874C35.9525 24.8579 38.1003 22.641 38.084 19.9225C38.0676 17.2039 35.8932 15.013 33.2274 15.0291C30.5615 15.0452 28.4137 17.262 28.43 19.9806C28.4464 22.6992 30.6208 24.89 33.2866 24.874Z" fill="url(#paint4_linear_246_10430)"/>
<path d="M17.3915 31.9633C17.408 34.6984 19.5825 36.9027 22.2483 36.8867C24.9142 36.8706 27.0619 34.6403 27.0455 31.9051C27.029 29.17 24.8545 26.9657 22.1887 26.9818C19.5228 26.9978 17.3751 29.2281 17.3915 31.9633Z" fill="#D9D9D9"/>
<path fill-rule="evenodd" clip-rule="evenodd" d="M22.2433 36.0483C20.0606 36.0614 18.2437 34.2508 18.2299 31.9582C18.2161 29.6657 20.011 27.8333 22.1937 27.8201C24.3764 27.807 26.1933 29.6176 26.2071 31.9102C26.2209 34.2027 24.4259 36.0351 22.2433 36.0483ZM22.2483 36.8867C19.5825 36.9027 17.408 34.6984 17.3915 31.9633C17.3751 29.2281 19.5228 26.9978 22.1887 26.9818C24.8545 26.9657 27.029 29.17 27.0455 31.9051C27.0619 34.6403 24.9142 36.8706 22.2483 36.8867Z" fill="url(#paint5_linear_246_10430)"/>
<path fill-rule="evenodd" clip-rule="evenodd" d="M18.2552 16.1646C19.8025 16.9929 20.8609 18.6318 20.8723 20.5243C20.8832 22.3424 19.925 23.9381 18.4866 24.8116C19.216 25.2468 20.0634 25.4937 20.9662 25.4882C23.6767 25.4719 25.8603 23.1876 25.8435 20.3862C25.8266 17.5847 23.6156 15.3269 20.9051 15.3432C19.927 15.3491 19.0174 15.6503 18.2552 16.1646Z" fill="#D9D9D9"/>
<path fill-rule="evenodd" clip-rule="evenodd" d="M19.8925 16.3212C21.0035 17.3723 21.7006 18.8634 21.7106 20.5192C21.7201 22.0863 21.1122 23.5132 20.1162 24.5638C20.3889 24.6219 20.6715 24.6516 20.9611 24.6499C23.1828 24.6365 25.0193 22.756 25.0051 20.3912C24.9909 18.0265 23.1318 16.1682 20.9101 16.1816C20.5584 16.1837 20.2175 16.232 19.8925 16.3212ZM19.0249 16.6752C18.7856 16.4819 18.528 16.3107 18.2552 16.1646C18.5246 15.9829 18.8123 15.8277 19.115 15.7029C19.6688 15.4743 20.2726 15.347 20.9051 15.3432C23.6156 15.3269 25.8266 17.5847 25.8435 20.3862C25.8603 23.1876 23.6767 25.4719 20.9662 25.4882C20.4088 25.4916 19.8725 25.3988 19.372 25.2248C19.062 25.117 18.7657 24.9781 18.4866 24.8116C18.7511 24.651 18.9994 24.466 19.2283 24.2597C20.2446 23.3438 20.8812 22.0081 20.8723 20.5243C20.8629 18.9654 20.1431 17.5787 19.0249 16.6752Z" fill="url(#paint6_linear_246_10430)"/>
<path fill-rule="evenodd" clip-rule="evenodd" d="M36.9816 27.4137C35.5183 28.2811 34.5401 29.891 34.5511 31.728C34.5622 33.5649 35.5597 35.1629 37.0333 36.0126C36.3126 36.4399 35.4742 36.687 34.5784 36.6924C31.8637 36.7087 29.6497 34.4993 29.6332 31.7576C29.6167 29.0158 31.8039 26.7799 34.5186 26.7636C35.4144 26.7582 36.2557 26.9952 36.9816 27.4137Z" fill="#D9D9D9"/>
<path fill-rule="evenodd" clip-rule="evenodd" d="M35.3194 27.6755C34.3162 28.7273 33.7033 30.1595 33.7128 31.733C33.7222 33.3065 34.3523 34.7312 35.3682 35.7709C35.1114 35.8238 34.8457 35.8523 34.5733 35.854C32.3295 35.8675 30.4853 34.0391 30.4716 31.7525C30.4578 29.4659 32.2798 27.6154 34.5236 27.6019C34.796 27.6003 35.0621 27.6256 35.3194 27.6755ZM36.225 27.9658C36.4586 27.7587 36.7118 27.5736 36.9816 27.4137C36.6966 27.2494 36.3939 27.1131 36.077 27.0084C35.5868 26.8464 35.0627 26.7603 34.5186 26.7636C31.8039 26.7799 29.6167 29.0158 29.6332 31.7576C29.6497 34.4993 31.8637 36.7087 34.5784 36.6924C35.1225 36.6891 35.6455 36.5966 36.1337 36.4288C36.4493 36.3203 36.7504 36.1803 37.0333 36.0126C36.7617 35.856 36.5062 35.6739 36.2702 35.4697C35.2255 34.5657 34.5602 33.2263 34.5511 31.728C34.5421 30.2296 35.1913 28.8823 36.225 27.9658Z" fill="url(#paint7_linear_246_10430)"/>
<defs>
<linearGradient id="paint0_linear_246_10430" x1="15.9502" y1="2.36366" x2="37.0491" y2="50.614" gradientUnits="userSpaceOnUse">
<stop stop-color="#E0E0E0"/>
<stop offset="1" stop-color="#BBBBBB"/>
</linearGradient>
<linearGradient id="paint1_linear_246_10430" x1="17.032" y1="3.15145" x2="40.6995" y2="57.2216" gradientUnits="userSpaceOnUse">
<stop stop-color="white"/>
<stop offset="1" stop-color="#8B8D8F"/>
</linearGradient>
<linearGradient id="paint2_linear_246_10430" x1="20.7382" y1="5.04264" x2="37.0087" y2="45.4547" gradientUnits="userSpaceOnUse">
<stop stop-color="#BCBCBC"/>
<stop offset="1" stop-color="#F4F4F4"/>
</linearGradient>
<linearGradient id="paint3_linear_246_10430" x1="18.0831" y1="15.0599" x2="34.0084" y2="35.8551" gradientUnits="userSpaceOnUse">
<stop stop-color="#ECC271"/>
<stop offset="1" stop-color="#7F642E"/>
</linearGradient>
<linearGradient id="paint4_linear_246_10430" x1="31.2893" y1="15.0408" x2="36.5671" y2="26.5367" gradientUnits="userSpaceOnUse">
<stop stop-color="#ECC271"/>
<stop offset="1" stop-color="#7F642E"/>
</linearGradient>
<linearGradient id="paint5_linear_246_10430" x1="24.1268" y1="26.9701" x2="18.9353" y2="38.5754" gradientUnits="userSpaceOnUse">
<stop stop-color="#ECC271"/>
<stop offset="1" stop-color="#7F642E"/>
</linearGradient>
<linearGradient id="paint6_linear_246_10430" x1="23.611" y1="25.4723" x2="17.265" y2="14.9403" gradientUnits="userSpaceOnUse">
<stop stop-color="#ECC271"/>
<stop offset="1" stop-color="#7F642E"/>
</linearGradient>
<linearGradient id="paint7_linear_246_10430" x1="31.8698" y1="36.7087" x2="37.9668" y2="26.3469" gradientUnits="userSpaceOnUse">
<stop stop-color="#ECC271"/>
<stop offset="1" stop-color="#7F642E"/>
</linearGradient>
</defs>
</svg>
