<svg width="52" height="47" viewBox="0 0 52 47" fill="none" xmlns="http://www.w3.org/2000/svg">
<path d="M7.5498 0L29.775 6.65487L52.0003 0V40.7611L29.775 47L7.5498 40.7611V0Z" fill="url(#paint0_linear_246_5303)"/>
<path d="M51.9996 40.7611V0L29.7744 6.65487V47L51.9996 40.7611Z" fill="url(#paint1_linear_246_5303)"/>
<path d="M10.5693 10.198V8.73218C10.5693 8.73218 18.0755 11.3328 26.755 13.9317V14.9815L10.5693 10.198Z" fill="url(#paint2_linear_246_5303)"/>
<path d="M10.5693 24.7518V23.286C10.5693 23.286 18.0755 25.8866 26.755 28.4855V29.5353L10.5693 24.7518Z" fill="url(#paint3_linear_246_5303)"/>
<path d="M10.5693 16.0195V14.5537C10.5693 14.5537 18.0755 17.1543 26.755 19.7532V20.803L10.5693 16.0195Z" fill="url(#paint4_linear_246_5303)"/>
<path d="M10.5693 30.5733V29.1075C10.5693 29.1075 18.0755 31.7081 26.755 34.307V35.3568L10.5693 30.5733Z" fill="url(#paint5_linear_246_5303)"/>
<path d="M10.5693 13.1087V11.6429C10.5693 11.6429 18.0755 14.2435 26.755 16.8424V17.8923L10.5693 13.1087Z" fill="url(#paint6_linear_246_5303)"/>
<path d="M10.5693 27.6625V26.1967C10.5693 26.1967 18.0755 28.7973 26.755 31.3962V32.4461L10.5693 27.6625Z" fill="url(#paint7_linear_246_5303)"/>
<path d="M10.5693 18.9302V17.4645C10.5693 17.4645 18.0755 20.065 26.755 22.6639V23.7138L10.5693 18.9302Z" fill="url(#paint8_linear_246_5303)"/>
<path d="M10.5693 33.4841V32.0183C10.5693 32.0183 18.0755 34.6189 26.755 37.2177V38.2676L10.5693 33.4841Z" fill="url(#paint9_linear_246_5303)"/>
<path d="M10.5693 24.7518V23.286C10.5693 23.286 18.0755 25.8866 26.755 28.4855V29.5353L10.5693 24.7518Z" fill="url(#paint10_linear_246_5303)"/>
<path d="M10.5693 16.0195V14.5537C10.5693 14.5537 18.0755 17.1543 26.755 19.7532V20.8031L18.6622 18.4113L10.5693 16.0195Z" fill="url(#paint11_linear_246_5303)"/>
<path d="M10.5693 30.5733V29.1075C10.5693 29.1075 14.5693 30.5733 22.755 33.307V34.3569L10.5693 30.5733Z" fill="url(#paint12_linear_246_5303)"/>
<path d="M10.5693 27.6625V26.1968C10.5693 26.1968 18.6622 29.1075 25.755 31.3962L24.5001 32.0183L10.5693 27.6625Z" fill="url(#paint13_linear_246_5303)"/>
<path d="M10.5693 18.9303V17.4645C10.5693 17.4645 18.0755 20.0651 26.755 22.6639V23.7138L10.5693 18.9303Z" fill="url(#paint14_linear_246_5303)"/>
<path d="M49.4033 10.198V8.73218C49.4033 8.73218 41.8972 11.3328 33.2177 13.9317V14.9815L49.4033 10.198Z" fill="url(#paint15_linear_246_5303)"/>
<path d="M49.4033 24.7518V23.286C49.4033 23.286 41.8972 25.8866 33.2177 28.4855V29.5353L49.4033 24.7518Z" fill="url(#paint16_linear_246_5303)"/>
<path d="M49.4033 16.0195V14.5537C49.4033 14.5537 41.8972 17.1543 33.2177 19.7532V20.803L49.4033 16.0195Z" fill="url(#paint17_linear_246_5303)"/>
<path d="M49.4033 30.5733V29.1075C49.4033 29.1075 41.8972 31.7081 33.2177 34.307V35.3568L49.4033 30.5733Z" fill="url(#paint18_linear_246_5303)"/>
<path d="M49.4033 13.1087V11.6429C49.4033 11.6429 41.8972 14.2435 33.2177 16.8424V17.8923L49.4033 13.1087Z" fill="url(#paint19_linear_246_5303)"/>
<path d="M49.4033 27.6625V26.1967C49.4033 26.1967 41.8972 28.7973 33.2177 31.3962V32.4461L49.4033 27.6625Z" fill="url(#paint20_linear_246_5303)"/>
<path d="M49.4033 18.9302V17.4645C49.4033 17.4645 41.8972 20.065 33.2177 22.6639V23.7138L49.4033 18.9302Z" fill="url(#paint21_linear_246_5303)"/>
<path d="M49.4033 33.4841V32.0183C49.4033 32.0183 41.8972 34.6189 33.2177 37.2177V38.2676L49.4033 33.4841Z" fill="url(#paint22_linear_246_5303)"/>
<path d="M9.72167 14.8691C11.7505 13.5159 13.9958 12.8993 16.3657 12.8917L17.9237 15.0619C15.3797 14.3046 12.7444 14.552 10.5465 16.018C6.48874 18.7246 5.86839 24.739 9.1982 29.3772C12.528 34.0154 18.5438 35.6034 22.6438 32.8687C26.7015 30.1621 27.3219 24.1477 23.9921 19.5096C23.7477 19.1691 23.4727 18.7862 23.2166 18.5165L19.4286 13.24C22.1299 13.9554 24.5755 15.5335 26.3168 17.9589C30.1354 23.278 28.8367 30.4371 23.4686 34.0176C18.1005 37.5981 10.692 36.2468 6.87345 30.9278C3.05486 25.6088 4.39587 18.4215 9.72167 14.8691Z" fill="url(#paint23_linear_246_5303)"/>
<path d="M25.8 38.8999C26.2971 39.5627 27.2373 39.697 27.9 39.1999C28.5627 38.7029 28.6971 37.7627 28.2 37.0999L25.8 38.8999ZM28.2 37.0999L25.2 33.0999L22.8 34.8999L25.8 38.8999L28.2 37.0999Z" fill="url(#paint24_linear_246_5303)"/>
<defs>
<linearGradient id="paint0_linear_246_5303" x1="29.775" y1="0" x2="29.775" y2="47" gradientUnits="userSpaceOnUse">
<stop stop-color="#E7E7E7"/>
<stop offset="1" stop-color="#B8B8B8"/>
</linearGradient>
<linearGradient id="paint1_linear_246_5303" x1="40.887" y1="0" x2="40.887" y2="47" gradientUnits="userSpaceOnUse">
<stop stop-color="#E5E5E5"/>
<stop offset="1" stop-color="#8E8E8E"/>
</linearGradient>
<linearGradient id="paint2_linear_246_5303" x1="15.6424" y1="30.5629" x2="15.6424" y2="77.5629" gradientUnits="userSpaceOnUse">
<stop stop-color="#BFBFBF"/>
<stop offset="1" stop-color="#818181"/>
</linearGradient>
<linearGradient id="paint3_linear_246_5303" x1="15.6424" y1="30.5629" x2="15.6424" y2="77.5629" gradientUnits="userSpaceOnUse">
<stop stop-color="#BFBFBF"/>
<stop offset="1" stop-color="#818181"/>
</linearGradient>
<linearGradient id="paint4_linear_246_5303" x1="15.6424" y1="30.5629" x2="15.6424" y2="77.5629" gradientUnits="userSpaceOnUse">
<stop stop-color="#BFBFBF"/>
<stop offset="1" stop-color="#818181"/>
</linearGradient>
<linearGradient id="paint5_linear_246_5303" x1="15.6424" y1="30.5629" x2="15.6424" y2="77.5629" gradientUnits="userSpaceOnUse">
<stop stop-color="#BFBFBF"/>
<stop offset="1" stop-color="#818181"/>
</linearGradient>
<linearGradient id="paint6_linear_246_5303" x1="15.6424" y1="30.5629" x2="15.6424" y2="77.5629" gradientUnits="userSpaceOnUse">
<stop stop-color="#BFBFBF"/>
<stop offset="1" stop-color="#818181"/>
</linearGradient>
<linearGradient id="paint7_linear_246_5303" x1="15.6424" y1="30.5629" x2="15.6424" y2="77.5629" gradientUnits="userSpaceOnUse">
<stop stop-color="#BFBFBF"/>
<stop offset="1" stop-color="#818181"/>
</linearGradient>
<linearGradient id="paint8_linear_246_5303" x1="15.6424" y1="30.5629" x2="15.6424" y2="77.5629" gradientUnits="userSpaceOnUse">
<stop stop-color="#BFBFBF"/>
<stop offset="1" stop-color="#818181"/>
</linearGradient>
<linearGradient id="paint9_linear_246_5303" x1="15.6424" y1="30.5629" x2="15.6424" y2="77.5629" gradientUnits="userSpaceOnUse">
<stop stop-color="#BFBFBF"/>
<stop offset="1" stop-color="#818181"/>
</linearGradient>
<linearGradient id="paint10_linear_246_5303" x1="15.6424" y1="30.5629" x2="15.6424" y2="77.5629" gradientUnits="userSpaceOnUse">
<stop stop-color="#577495"/>
<stop offset="1" stop-color="#0D1116"/>
</linearGradient>
<linearGradient id="paint11_linear_246_5303" x1="15.6424" y1="30.5629" x2="15.6424" y2="77.5629" gradientUnits="userSpaceOnUse">
<stop stop-color="#577495"/>
<stop offset="1" stop-color="#0D1116"/>
</linearGradient>
<linearGradient id="paint12_linear_246_5303" x1="15.6424" y1="30.5629" x2="15.6424" y2="77.5629" gradientUnits="userSpaceOnUse">
<stop stop-color="#577495"/>
<stop offset="1" stop-color="#0D1116"/>
</linearGradient>
<linearGradient id="paint13_linear_246_5303" x1="15.6424" y1="30.5629" x2="15.6424" y2="77.5629" gradientUnits="userSpaceOnUse">
<stop stop-color="#577495"/>
<stop offset="1" stop-color="#0D1116"/>
</linearGradient>
<linearGradient id="paint14_linear_246_5303" x1="15.6424" y1="30.5629" x2="15.6424" y2="77.5629" gradientUnits="userSpaceOnUse">
<stop stop-color="#577495"/>
<stop offset="1" stop-color="#0D1116"/>
</linearGradient>
<linearGradient id="paint15_linear_246_5303" x1="38.5023" y1="10.1876" x2="40.6071" y2="45.8538" gradientUnits="userSpaceOnUse">
<stop stop-color="#D2D2D2"/>
<stop offset="1" stop-color="#6B6B6B"/>
</linearGradient>
<linearGradient id="paint16_linear_246_5303" x1="38.5023" y1="10.1876" x2="40.6071" y2="45.8538" gradientUnits="userSpaceOnUse">
<stop stop-color="#D2D2D2"/>
<stop offset="1" stop-color="#6B6B6B"/>
</linearGradient>
<linearGradient id="paint17_linear_246_5303" x1="38.5023" y1="10.1876" x2="40.6071" y2="45.8538" gradientUnits="userSpaceOnUse">
<stop stop-color="#D2D2D2"/>
<stop offset="1" stop-color="#6B6B6B"/>
</linearGradient>
<linearGradient id="paint18_linear_246_5303" x1="38.5023" y1="10.1876" x2="40.6071" y2="45.8538" gradientUnits="userSpaceOnUse">
<stop stop-color="#D2D2D2"/>
<stop offset="1" stop-color="#6B6B6B"/>
</linearGradient>
<linearGradient id="paint19_linear_246_5303" x1="38.5023" y1="10.1876" x2="40.6071" y2="45.8538" gradientUnits="userSpaceOnUse">
<stop stop-color="#D2D2D2"/>
<stop offset="1" stop-color="#6B6B6B"/>
</linearGradient>
<linearGradient id="paint20_linear_246_5303" x1="38.5023" y1="10.1876" x2="40.6071" y2="45.8538" gradientUnits="userSpaceOnUse">
<stop stop-color="#D2D2D2"/>
<stop offset="1" stop-color="#6B6B6B"/>
</linearGradient>
<linearGradient id="paint21_linear_246_5303" x1="38.5023" y1="10.1876" x2="40.6071" y2="45.8538" gradientUnits="userSpaceOnUse">
<stop stop-color="#D2D2D2"/>
<stop offset="1" stop-color="#6B6B6B"/>
</linearGradient>
<linearGradient id="paint22_linear_246_5303" x1="38.5023" y1="10.1876" x2="40.6071" y2="45.8538" gradientUnits="userSpaceOnUse">
<stop stop-color="#D2D2D2"/>
<stop offset="1" stop-color="#6B6B6B"/>
</linearGradient>
<linearGradient id="paint23_linear_246_5303" x1="9.72167" y1="14.8691" x2="22.794" y2="34.4676" gradientUnits="userSpaceOnUse">
<stop stop-color="#F0C673"/>
<stop offset="1" stop-color="#785E2A"/>
</linearGradient>
<linearGradient id="paint24_linear_246_5303" x1="26.1023" y1="36.803" x2="27.1471" y2="35.8644" gradientUnits="userSpaceOnUse">
<stop stop-color="#ECC271"/>
<stop offset="1" stop-color="#7F642E"/>
</linearGradient>
</defs>
</svg>
