<svg width="52" height="52" viewBox="0 0 52 52" fill="none" xmlns="http://www.w3.org/2000/svg">
<path fill-rule="evenodd" clip-rule="evenodd" d="M0 23.4234C0 17.9833 1.85456 12.9764 4.96593 9.00031L7.83373 7.58411L8.97996 4.98188C12.9593 1.86089 17.974 0 23.4234 0H28.5766C34.0829 0 39.1454 1.89997 43.1444 5.08008L44.2629 7.57286L46.6367 8.50636C49.9869 12.5579 52 17.7556 52 23.4234V28.5766C52 34.2294 49.9976 39.4145 46.6634 43.4612L43.8041 44.7443L42.8614 47.1414C38.9078 50.1881 33.9538 52 28.5766 52H23.4234C18.2615 52 13.4895 50.3302 9.61821 47.5014L8.34887 44.931L5.52508 43.6872C2.07801 39.6083 0 34.3351 0 28.5766V23.4234Z" fill="url(#paint0_linear_246_2768)"/>
<ellipse cx="26" cy="25.9996" rx="23.1386" ry="23.1386" fill="url(#paint1_linear_246_2768)"/>
<ellipse cx="25.9998" cy="26.0001" rx="19.9471" ry="19.9471" fill="url(#paint2_linear_246_2768)"/>
<path d="M33.0885 11.9963C32.7362 12.3523 29.0519 17.3373 27.2538 19.7853C26.3364 17.3744 24.5566 12.4939 24.3805 12.1378C24.1603 11.6927 23.7309 11.7737 23.6208 12.2188C23.5107 12.6639 23.1805 13.3315 22.7401 13.9991C22.2998 14.6668 19.6576 16.5584 17.3458 18.2274C15.0339 19.8965 13.6027 20.3416 13.2725 20.6754C12.9422 21.0092 13.3826 21.5656 14.0431 22.1219C14.7036 22.6783 15.5843 24.5699 16.2449 25.6826C16.9054 26.7953 17.2357 26.239 17.676 25.5714C18.1164 24.9037 18.887 24.7925 19.8778 24.3474C20.8686 23.9023 20.4283 23.4572 19.8778 23.4572C19.3274 23.4572 18.4625 23.0121 17.802 22.3445C17.1414 21.6769 17.1414 21.4543 17.5818 20.7867C18.0221 20.1191 21.2839 17.6653 22.2747 16.9977C23.2655 16.33 23.4857 17.2202 23.7059 17.6653C23.882 18.0213 24.9454 20.5218 25.4958 21.82C24.9821 22.3393 23.841 23.702 22.9603 24.6812C21.8594 25.9052 19.2173 28.3531 18.3366 29.0208C17.4559 29.6884 16.2449 30.5786 16.5751 30.9124C16.9054 31.2462 18.3366 31.4687 18.887 32.2476C19.4375 33.0265 20.098 35.8083 20.4283 35.8083C20.7585 35.8083 21.0888 34.3618 22.52 31.6913C23.6649 29.5549 25.8593 26.4244 26.8134 25.1263C27.2905 26.2761 28.3655 29.0029 28.8059 29.893C29.8493 32.1931 30.2151 34.0191 29.4445 35.0205C28.6739 36.0219 26.7719 36.427 25.6024 35.5858C24.6144 34.875 24.5016 32.804 24.0612 32.3589C23.6208 31.9138 23.123 32.5147 22.5726 33.7386C22.0221 34.9626 21.309 36.5872 21.1989 36.921C21.0888 37.2548 21.0888 37.3661 21.5292 37.5887C21.9695 37.8112 22.4099 38.2563 24.3915 39.1465C27.5841 40.8155 29.8301 39.6778 31.217 38.0337C32.7006 36.2751 33.639 35.8083 34.1894 35.697C34.7398 35.5858 35.4004 35.5858 35.2903 35.1407C35.1802 34.6956 33.639 33.2491 33.1986 32.804C32.8463 32.4479 32.2445 31.172 31.9876 30.5786L28.527 22.9382L32.7582 17.5598C33.6023 18.3016 35.5339 20.029 35.273 22.52C34.8408 26.6478 32.044 26.0565 30.8867 25.9052C31.1175 26.5838 31.4053 27.5475 32.3179 29.132C37.8455 29.3839 38.703 23.4572 37.6021 20.7867C36.6016 17.8405 33.4031 14.2974 33.4188 14.1104C33.5101 13.0197 33.5711 11.5085 33.0885 11.9963Z" fill="url(#paint3_linear_246_2768)"/>
<defs>
<linearGradient id="paint0_linear_246_2768" x1="15.6275" y1="2.06367" x2="37.1703" y2="50.7346" gradientUnits="userSpaceOnUse">
<stop stop-color="#E0E0E0"/>
<stop offset="1" stop-color="#BBBBBB"/>
</linearGradient>
<linearGradient id="paint1_linear_246_2768" x1="16.7094" y1="2.86098" x2="40.8748" y2="57.4021" gradientUnits="userSpaceOnUse">
<stop stop-color="white"/>
<stop offset="1" stop-color="#8B8D8F"/>
</linearGradient>
<linearGradient id="paint2_linear_246_2768" x1="20.9082" y1="5.3415" x2="37.1702" y2="45.1493" gradientUnits="userSpaceOnUse">
<stop stop-color="#BCBCBC"/>
<stop offset="1" stop-color="#F4F4F4"/>
</linearGradient>
<linearGradient id="paint3_linear_246_2768" x1="20.5989" y1="11.8417" x2="36.4846" y2="43.5323" gradientUnits="userSpaceOnUse">
<stop stop-color="#ECC271"/>
<stop offset="1" stop-color="#7F642E"/>
</linearGradient>
</defs>
</svg>
