<svg width="52" height="52" viewBox="0 0 52 52" fill="none" xmlns="http://www.w3.org/2000/svg">
<path fill-rule="evenodd" clip-rule="evenodd" d="M0 23.4234C0 17.9833 1.85456 12.9764 4.96593 9.00031L7.83373 7.58411L8.97996 4.98188C12.9593 1.86089 17.974 0 23.4234 0H28.5766C34.0829 0 39.1454 1.89997 43.1444 5.08008L44.2629 7.57286L46.6367 8.50636C49.9869 12.5579 52 17.7556 52 23.4234V28.5766C52 34.2294 49.9976 39.4145 46.6634 43.4612L43.8041 44.7443L42.8614 47.1414C38.9078 50.1881 33.9538 52 28.5766 52H23.4234C18.2615 52 13.4895 50.3302 9.61821 47.5014L8.34887 44.931L5.52508 43.6872C2.07801 39.6083 0 34.3351 0 28.5766V23.4234Z" fill="url(#paint0_linear_246_15868)"/>
<ellipse cx="26" cy="25.9996" rx="23.1386" ry="23.1386" fill="url(#paint1_linear_246_15868)"/>
<ellipse cx="25.9998" cy="26.0001" rx="19.9471" ry="19.9471" fill="url(#paint2_linear_246_15868)"/>
<path d="M37.5195 26.6444C37.5195 32.9141 32.5002 37.9862 26.3213 37.9862C20.1424 37.9862 15.123 32.9141 15.123 26.6444C15.123 20.3747 20.1424 15.3025 26.3213 15.3025C32.5002 15.3025 37.5195 20.3746 37.5195 26.6444Z" fill="url(#paint3_linear_246_15868)" stroke="url(#paint4_linear_246_15868)"/>
<line x1="25.3584" y1="19.7842" x2="25.3584" y2="28.6656" stroke="url(#paint5_linear_246_15868)"/>
<line x1="26.8213" y1="19.7842" x2="26.8213" y2="28.6656" stroke="url(#paint6_linear_246_15868)"/>
<path fill-rule="evenodd" clip-rule="evenodd" d="M34.4416 35.8423C34.0326 36.0868 33.9008 36.6275 34.1472 37.0498L34.7782 38.1313C35.0246 38.5536 35.556 38.6977 35.965 38.4532C36.3741 38.2086 36.5059 37.668 36.2595 37.2457L35.6285 36.1642C35.3821 35.7418 34.8507 35.5977 34.4416 35.8423Z" fill="url(#paint7_linear_246_15868)"/>
<path fill-rule="evenodd" clip-rule="evenodd" d="M18.4177 35.8423C18.8268 36.0868 18.9586 36.6275 18.7122 37.0498L18.0812 38.1313C17.8348 38.5536 17.3034 38.6977 16.8943 38.4532C16.4853 38.2086 16.3535 37.668 16.5999 37.2457L17.2309 36.1642C17.4773 35.7418 18.0087 35.5977 18.4177 35.8423Z" fill="url(#paint8_linear_246_15868)"/>
<path fill-rule="evenodd" clip-rule="evenodd" d="M34.0611 15.2358C33.4901 15.8139 33.4901 16.7511 34.0611 17.3292L35.5234 18.8094C36.0944 19.3875 37.0203 19.3875 37.5914 18.8094C38.1624 18.2313 38.1624 17.2941 37.5914 16.716L36.1291 15.2358C35.558 14.6577 34.6321 14.6577 34.0611 15.2358Z" fill="url(#paint9_linear_246_15868)"/>
<path fill-rule="evenodd" clip-rule="evenodd" d="M18.5815 15.2358C19.1525 15.8139 19.1525 16.7511 18.5815 17.3292L17.1192 18.8094C16.5482 19.3875 15.6222 19.3875 15.0512 18.8094C14.4802 18.2313 14.4802 17.2941 15.0512 16.716L16.5135 15.2358C17.0845 14.6577 18.0105 14.6577 18.5815 15.2358Z" fill="url(#paint10_linear_246_15868)"/>
<defs>
<linearGradient id="paint0_linear_246_15868" x1="15.6275" y1="2.06367" x2="37.1703" y2="50.7346" gradientUnits="userSpaceOnUse">
<stop stop-color="#E0E0E0"/>
<stop offset="1" stop-color="#BBBBBB"/>
</linearGradient>
<linearGradient id="paint1_linear_246_15868" x1="16.7094" y1="2.86098" x2="40.8748" y2="57.4021" gradientUnits="userSpaceOnUse">
<stop stop-color="white"/>
<stop offset="1" stop-color="#8B8D8F"/>
</linearGradient>
<linearGradient id="paint2_linear_246_15868" x1="20.9082" y1="5.3415" x2="37.1702" y2="45.1493" gradientUnits="userSpaceOnUse">
<stop stop-color="#BCBCBC"/>
<stop offset="1" stop-color="#F4F4F4"/>
</linearGradient>
<linearGradient id="paint3_linear_246_15868" x1="26.3213" y1="14.8025" x2="26.3213" y2="38.4862" gradientUnits="userSpaceOnUse">
<stop stop-color="#CCCCCC"/>
<stop offset="0.494" stop-color="#F7F7F7"/>
<stop offset="0.999" stop-color="#CECECE"/>
</linearGradient>
<linearGradient id="paint4_linear_246_15868" x1="21.6243" y1="14.8025" x2="34.0929" y2="42.6027" gradientUnits="userSpaceOnUse">
<stop stop-color="#ECC271"/>
<stop offset="1" stop-color="#7F642E"/>
</linearGradient>
<linearGradient id="paint5_linear_246_15868" x1="24.8584" y1="22.4419" x2="23.452" y2="22.512" gradientUnits="userSpaceOnUse">
<stop stop-color="#ECC271"/>
<stop offset="1" stop-color="#7F642E"/>
</linearGradient>
<linearGradient id="paint6_linear_246_15868" x1="26.3213" y1="22.4419" x2="24.2735" y2="24.4479" gradientUnits="userSpaceOnUse">
<stop stop-color="#ECC271"/>
<stop offset="1" stop-color="#7F642E"/>
</linearGradient>
<linearGradient id="paint7_linear_246_15868" x1="35.0102" y1="35.7299" x2="35.5571" y2="39.1105" gradientUnits="userSpaceOnUse">
<stop stop-color="#ECC271"/>
<stop offset="1" stop-color="#7F642E"/>
</linearGradient>
<linearGradient id="paint8_linear_246_15868" x1="17.8492" y1="35.7299" x2="17.3022" y2="39.1105" gradientUnits="userSpaceOnUse">
<stop stop-color="#ECC271"/>
<stop offset="1" stop-color="#7F642E"/>
</linearGradient>
<linearGradient id="paint9_linear_246_15868" x1="34.9455" y1="14.8022" x2="37.2834" y2="20.0148" gradientUnits="userSpaceOnUse">
<stop stop-color="#ECC271"/>
<stop offset="1" stop-color="#7F642E"/>
</linearGradient>
<linearGradient id="paint10_linear_246_15868" x1="17.697" y1="14.8022" x2="15.3592" y2="20.0148" gradientUnits="userSpaceOnUse">
<stop stop-color="#ECC271"/>
<stop offset="1" stop-color="#7F642E"/>
</linearGradient>
</defs>
</svg>
