<svg width="52" height="52" viewBox="0 0 52 52" fill="none" xmlns="http://www.w3.org/2000/svg">
<path fill-rule="evenodd" clip-rule="evenodd" d="M0 23.4234C0 17.9833 1.85456 12.9764 4.96593 9.00031L7.83373 7.58411L8.97996 4.98188C12.9593 1.86089 17.974 0 23.4234 0H28.5766C34.0829 0 39.1454 1.89997 43.1444 5.08008L44.2629 7.57286L46.6367 8.50636C49.9869 12.5579 52 17.7556 52 23.4234V28.5766C52 34.2294 49.9976 39.4145 46.6634 43.4612L43.8041 44.7443L42.8614 47.1414C38.9078 50.1881 33.9538 52 28.5766 52H23.4234C18.2615 52 13.4895 50.3302 9.61821 47.5014L8.34887 44.931L5.52508 43.6872C2.07801 39.6083 0 34.3351 0 28.5766V23.4234Z" fill="url(#paint0_linear_246_3108)"/>
<circle cx="26" cy="25.9996" r="23.1386" fill="url(#paint1_linear_246_3108)"/>
<ellipse cx="25.9998" cy="25.9998" rx="19.9471" ry="19.9471" fill="url(#paint2_linear_246_3108)"/>
<path d="M18 26.4179C18 21.4472 18.8122 17.8386 20.4367 15.592C22.0739 13.3455 24.2568 12.2223 26.9854 12.2223C28.6607 12.2223 30.0884 12.6483 31.2687 13.5005C32.449 14.3397 33.3628 15.6243 34.01 17.3544C34.67 19.0716 35 21.5763 35 24.8686C35 30.6011 34.1877 34.6487 32.5632 37.0114C30.9387 39.3742 28.7749 40.5555 26.0716 40.5555C24.206 40.5555 22.6514 40.0003 21.4076 38.89C20.1639 37.7667 19.2501 36.1851 18.6663 34.1452C18.2221 32.583 18 30.0072 18 26.4179ZM21.3124 25.895C21.3124 31.1757 21.8518 34.7972 22.9306 36.7597C23.7936 38.3606 25.0373 39.1611 26.6618 39.1611C28.2101 39.1611 29.3841 38.4252 30.1836 36.9533C31.1862 35.1071 31.6875 31.7179 31.6875 26.7859C31.6875 21.544 31.1545 17.9677 30.0884 16.0568C29.1874 14.43 27.9182 13.6167 26.2811 13.6167C24.7454 13.6167 23.5334 14.4236 22.645 16.0375C21.7566 17.6384 21.3124 20.9243 21.3124 25.895Z" fill="url(#paint3_linear_246_3108)"/>
<line y1="-0.75" x2="14.2439" y2="-0.75" transform="matrix(-0.528876 0.848699 -0.742313 -0.670054 31.9561 10.3335)" stroke="url(#paint4_linear_246_3108)" stroke-width="1.5"/>
<line y1="-0.75" x2="14.2439" y2="-0.75" transform="matrix(-0.528876 0.848699 -0.742313 -0.670054 33.583 13.3558)" stroke="url(#paint5_linear_246_3108)" stroke-width="1.5"/>
<defs>
<linearGradient id="paint0_linear_246_3108" x1="15.6275" y1="2.06367" x2="37.1703" y2="50.7346" gradientUnits="userSpaceOnUse">
<stop stop-color="#E0E0E0"/>
<stop offset="1" stop-color="#BBBBBB"/>
</linearGradient>
<linearGradient id="paint1_linear_246_3108" x1="16.7094" y1="2.86098" x2="40.8748" y2="57.402" gradientUnits="userSpaceOnUse">
<stop stop-color="white"/>
<stop offset="1" stop-color="#8B8D8F"/>
</linearGradient>
<linearGradient id="paint2_linear_246_3108" x1="20.9082" y1="5.34122" x2="37.1702" y2="45.149" gradientUnits="userSpaceOnUse">
<stop stop-color="#BCBCBC"/>
<stop offset="1" stop-color="#F4F4F4"/>
</linearGradient>
<linearGradient id="paint3_linear_246_3108" x1="26.5" y1="12.2223" x2="26.5" y2="40.5555" gradientUnits="userSpaceOnUse">
<stop stop-color="#F0C673"/>
<stop offset="1" stop-color="#785E2A"/>
</linearGradient>
<linearGradient id="paint4_linear_246_3108" x1="4.26239" y1="-6.94547e-07" x2="6.04746" y2="2.92258" gradientUnits="userSpaceOnUse">
<stop stop-color="#ECC271"/>
<stop offset="1" stop-color="#7F642E"/>
</linearGradient>
<linearGradient id="paint5_linear_246_3108" x1="4.26239" y1="-6.94547e-07" x2="6.04746" y2="2.92258" gradientUnits="userSpaceOnUse">
<stop stop-color="#ECC271"/>
<stop offset="1" stop-color="#7F642E"/>
</linearGradient>
</defs>
</svg>
