<svg width="52" height="52" viewBox="0 0 52 52" fill="none" xmlns="http://www.w3.org/2000/svg">
<path fill-rule="evenodd" clip-rule="evenodd" d="M0 23.4234C0 17.9833 1.85456 12.9764 4.96593 9.00031L7.83373 7.58411L8.97996 4.98188C12.9593 1.86089 17.974 0 23.4234 0H28.5766C34.0829 0 39.1454 1.89997 43.1444 5.08008L44.2629 7.57286L46.6367 8.50636C49.9869 12.5579 52 17.7556 52 23.4234V28.5766C52 34.2294 49.9976 39.4145 46.6634 43.4612L43.8041 44.7443L42.8614 47.1414C38.9078 50.1881 33.9538 52 28.5766 52H23.4234C18.2615 52 13.4895 50.3302 9.61821 47.5014L8.34887 44.931L5.52508 43.6872C2.07801 39.6083 0 34.3351 0 28.5766V23.4234Z" fill="url(#paint0_linear_246_5355)"/>
<circle cx="26" cy="25.9996" r="23.1386" fill="url(#paint1_linear_246_5355)"/>
<ellipse cx="25.9998" cy="26" rx="19.9471" ry="19.9471" fill="url(#paint2_linear_246_5355)"/>
<path d="M26.5 18.7437H12L21.3042 28.8213V23.8379L19.7333 25.1668L15.9271 21.4015L15.8667 19.9618H22.8146V32.8081H15.8667V29.5965L12.1208 33.9709H26.8021V32.9188H26.0771V19.9618H26.5V18.7437Z" fill="url(#paint3_linear_246_5355)"/>
<path d="M26.5 18.7437H41L31.6958 28.8213V23.8379L33.2667 25.1668L37.0729 21.4015L37.1333 19.9618H30.1854V32.8081H37.1333V29.5965L40.8792 33.9709H26.1979V32.9188H26.9229V19.9618H26.5V18.7437Z" fill="url(#paint4_linear_246_5355)"/>
<defs>
<linearGradient id="paint0_linear_246_5355" x1="15.6275" y1="2.06367" x2="37.1703" y2="50.7346" gradientUnits="userSpaceOnUse">
<stop stop-color="#E0E0E0"/>
<stop offset="1" stop-color="#BBBBBB"/>
</linearGradient>
<linearGradient id="paint1_linear_246_5355" x1="16.7094" y1="2.86098" x2="40.8748" y2="57.402" gradientUnits="userSpaceOnUse">
<stop stop-color="white"/>
<stop offset="1" stop-color="#8B8D8F"/>
</linearGradient>
<linearGradient id="paint2_linear_246_5355" x1="20.9082" y1="5.34147" x2="37.1702" y2="45.1492" gradientUnits="userSpaceOnUse">
<stop stop-color="#BCBCBC"/>
<stop offset="1" stop-color="#F4F4F4"/>
</linearGradient>
<linearGradient id="paint3_linear_246_5355" x1="16.4294" y1="18.7436" x2="24.5318" y2="36.5201" gradientUnits="userSpaceOnUse">
<stop stop-color="#ECC271"/>
<stop offset="1" stop-color="#7F642E"/>
</linearGradient>
<linearGradient id="paint4_linear_246_5355" x1="36.5706" y1="18.7436" x2="28.4682" y2="36.5201" gradientUnits="userSpaceOnUse">
<stop stop-color="#ECC271"/>
<stop offset="1" stop-color="#7F642E"/>
</linearGradient>
</defs>
</svg>
