<svg width="47" height="51" viewBox="0 0 47 51" fill="none" xmlns="http://www.w3.org/2000/svg">
<path d="M0 0L23.5 7.22124L47 0V44.2301L23.5 51L0 44.2301V0Z" fill="url(#paint0_linear_246_732)"/>
<path d="M47 44.2301V0L24 7.22124V51L47 44.2301Z" fill="url(#paint1_linear_246_732)"/>
<path d="M5 8L23.5 13.5221L42 8V41.823L23.5 47L5 41.823V8Z" fill="url(#paint2_linear_246_732)"/>
<path d="M42 41.823V8L24 13.5221V47L42 41.823Z" fill="url(#paint3_linear_246_732)"/>
<path d="M18.6514 31.2176C19.0381 31.3424 19.3749 31.4672 19.6895 31.6612C20.5162 32.1742 20.8671 32.9882 20.6645 33.9799C20.5331 34.6241 20.1758 35.1094 19.6831 35.4837C19.0678 35.952 18.3673 36.1768 17.6334 36.3068C17.156 36.3909 16.6757 36.4043 16.1934 36.4039C12.8649 36.4021 9.53653 36.4033 6.20828 36.4073C6.021 36.4073 5.96151 36.3683 5.96192 36.1517C5.96915 33.0342 5.96915 29.9166 5.96192 26.799C5.96192 26.6162 5.99286 26.5556 6.17814 26.556C17.677 26.5612 29.1755 26.5628 40.6738 26.5608C40.8547 26.5608 41.0355 26.5694 41.2164 26.5651C41.3144 26.5629 41.3631 26.5881 41.3619 26.7081C41.3575 27.1916 41.3587 27.675 41.3619 28.1585C41.3619 28.2608 41.3257 28.2963 41.2313 28.298C40.964 28.3024 40.6971 28.3236 40.4299 28.3236C35.4005 28.3253 30.3712 28.3261 25.3418 28.3258C25.0087 28.3258 25.0577 28.2889 25.0577 28.6394C25.0561 31.158 25.0567 33.6765 25.0597 36.195C25.0597 36.3527 25.0412 36.4117 24.868 36.4095C24.2117 36.3935 23.5554 36.3952 22.8987 36.4095C22.7022 36.4134 22.6387 36.3662 22.6395 36.1387C22.6483 33.626 22.6451 31.1162 22.6451 28.6048C22.6451 28.3288 22.6451 28.3271 22.3819 28.3271C17.7879 28.3271 13.1938 28.3258 8.59957 28.3232C8.42796 28.3232 8.3725 28.3626 8.3733 28.5597C8.38054 30.5301 8.38134 32.5003 8.37571 34.4703C8.37571 34.6176 8.38255 34.706 8.5634 34.7051C11.0077 34.6961 13.4521 34.7051 15.896 34.687C16.519 34.6826 17.1419 34.5977 17.7102 34.2845C18.3211 33.9483 18.469 33.2352 18.0393 32.7218C17.8693 32.519 17.6475 32.4003 17.4096 32.3146C16.9972 32.1655 16.5704 32.1391 16.1408 32.1391C14.2117 32.1391 12.2826 32.1361 10.3535 32.1439C10.1581 32.1439 10.0782 32.1049 10.0946 31.8735C10.1138 31.5706 10.1138 31.2666 10.0946 30.9637C10.0822 30.7471 10.14 30.6817 10.3482 30.6826C12.1903 30.6912 14.032 30.6924 15.8735 30.686C16.281 30.686 16.6882 30.6813 17.0913 30.5873C17.7745 30.4283 18.051 30.0648 18.0192 29.3179C18.0136 29.1922 18.0594 29.1727 18.1547 29.1732C18.8781 29.1732 19.6015 29.1792 20.3249 29.171C20.4825 29.1688 20.4837 29.2507 20.4692 29.3712C20.3961 29.9725 20.1235 30.4381 19.6514 30.7679C19.358 30.9733 19.028 31.0894 18.6514 31.2176Z" fill="url(#paint4_linear_246_732)"/>
<path d="M33.08 36.4026C31.2855 36.4026 29.4914 36.3991 27.697 36.4073C27.5069 36.4073 27.459 36.3458 27.4655 36.1513C27.4779 35.7475 27.4791 35.3429 27.4655 34.9383C27.4582 34.7403 27.5109 34.6852 27.6974 34.6857C30.1891 34.6923 32.6797 34.6938 35.169 34.69C36.0665 34.69 36.9635 34.6943 37.8618 34.69C38.3071 34.6865 38.7423 34.6129 39.1478 34.3928C39.6245 34.1329 39.8435 33.6671 39.7362 33.149C39.6667 32.8137 39.4669 32.5914 39.1957 32.4368C38.7174 32.1642 38.1957 32.1374 37.6713 32.137C35.5412 32.137 33.4132 32.1456 31.2839 32.1331C30.4226 32.1279 29.5758 31.9931 28.7881 31.5859C28.0514 31.2055 27.4807 30.6605 27.2959 29.755C27.193 29.2516 27.2175 29.2196 27.6909 29.2196C28.3273 29.2196 28.9633 29.2196 29.5991 29.2196C29.6795 29.2196 29.7683 29.1871 29.7732 29.3474C29.7969 30.1034 30.1349 30.4954 30.8523 30.6271C31.1235 30.6715 31.3978 30.691 31.6721 30.6856C33.7946 30.6856 35.917 30.6783 38.0394 30.6904C38.8508 30.6947 39.6566 30.79 40.4214 31.1124C41.1863 31.4347 41.7851 31.9533 41.9708 32.8674C42.2404 34.1948 41.722 35.2705 40.5432 35.8619C39.8198 36.2237 39.053 36.3818 38.2653 36.3905C36.5371 36.4074 34.8089 36.3957 33.0832 36.3957L33.08 36.4026Z" fill="url(#paint5_linear_246_732)"/>
<path d="M42.3068 22.745H41.743L41.1209 20.8658L40.1991 22.6053C40.1364 22.7193 40.0469 22.7818 39.9082 22.7818C39.774 22.7818 39.6755 22.7193 39.6173 22.6053L38.7 20.8658L38.0779 22.745H37.5186L38.3554 20.2296C38.3957 20.1008 38.4852 20.0383 38.6373 20.0383C38.7581 20.0383 38.87 20.0935 38.9237 20.1965L39.9261 22.0867L40.9285 20.1965C40.9822 20.0935 41.0807 20.0383 41.2015 20.0383C41.3402 20.0383 41.4297 20.1008 41.4745 20.2296L42.3068 22.745Z" fill="url(#paint6_linear_246_732)"/>
<path d="M37.2056 22.7451H34.2969V20.0715H37.2012V20.5386H34.8607V22.2781H37.2056V22.7451ZM37.0803 21.583H35.2769V21.1895H37.0803V21.583Z" fill="url(#paint7_linear_246_732)"/>
<path d="M32.6882 22.7451H32.1199V20.5386H30.8848V20.0715H33.9233V20.5386H32.6882V22.7451Z" fill="url(#paint8_linear_246_732)"/>
<path d="M29.578 22.7451H27.1391V22.2781H29.578C29.8823 22.2781 30.0523 22.1383 30.0523 21.9287C30.0523 21.7007 29.8823 21.583 29.578 21.583H28.0833C27.4702 21.583 27.0898 21.2631 27.0898 20.8218C27.0898 20.3915 27.4434 20.0715 28.0922 20.0715H30.4282V20.5386H28.0922C27.8327 20.5386 27.6805 20.6636 27.6805 20.8659C27.6805 21.0682 27.8372 21.1895 28.0878 21.1895H29.578C30.2358 21.1895 30.5893 21.4433 30.5893 21.9618C30.5893 22.4105 30.2582 22.7451 29.578 22.7451Z" fill="url(#paint9_linear_246_732)"/>
<path d="M25.3172 22.7451H24.7488V21.7301L23.0215 20.0715H23.7867L25.0531 21.3035L26.3241 20.0715H27.049L25.3172 21.7301V22.7451Z" fill="url(#paint10_linear_246_732)"/>
<path d="M21.7469 22.7451H19.308V22.2781H21.7469C22.0512 22.2781 22.2213 22.1383 22.2213 21.9287C22.2213 21.7007 22.0512 21.583 21.7469 21.583H20.2522C19.6392 21.583 19.2588 21.2631 19.2588 20.8218C19.2588 20.3915 19.6123 20.0715 20.2612 20.0715H22.5972V20.5386H20.2612C20.0016 20.5386 19.8495 20.6636 19.8495 20.8659C19.8495 21.0682 20.0061 21.1895 20.2567 21.1895H21.7469C22.4047 21.1895 22.7583 21.4433 22.7583 21.9618C22.7583 22.4105 22.4271 22.7451 21.7469 22.7451Z" fill="url(#paint11_linear_246_732)"/>
<path d="M17.5054 22.7451H14.5967V20.0715H17.501V20.5386H15.1605V22.2781H17.5054V22.7451ZM17.3801 21.583H15.5767V21.1895H17.3801V21.583Z" fill="url(#paint12_linear_246_732)"/>
<path d="M14.2199 22.745H13.6561L13.034 20.8658L12.1122 22.6053C12.0495 22.7193 11.96 22.7818 11.8213 22.7818C11.6871 22.7818 11.5886 22.7193 11.5304 22.6053L10.613 20.8658L9.99102 22.745H9.43164L10.2685 20.2296C10.3087 20.1008 10.3982 20.0383 10.5504 20.0383C10.6712 20.0383 10.7831 20.0935 10.8368 20.1965L11.8392 22.0867L12.8416 20.1965C12.8953 20.0935 12.9938 20.0383 13.1146 20.0383C13.2533 20.0383 13.3428 20.1008 13.3876 20.2296L14.2199 22.745Z" fill="url(#paint13_linear_246_732)"/>
<path d="M9.01266 22.7451H8.44434V20.0715H9.01266V22.7451Z" fill="url(#paint14_linear_246_732)"/>
<path d="M6.80343 22.7451H6.23511V20.5386H5V20.0715H8.03854V20.5386H6.80343V22.7451Z" fill="url(#paint15_linear_246_732)"/>
<path d="M42.3643 18.8016H41.594L41.0453 18.0445H39.3134L39.6155 17.6184H40.7382L39.9226 16.493L38.2612 18.8016H37.5312L39.6356 15.9221C39.7111 15.8186 39.8068 15.7524 39.9478 15.7524C40.0887 15.7524 40.1793 15.8186 40.2549 15.9221L42.3643 18.8016Z" fill="url(#paint16_linear_246_732)"/>
<path d="M37.1071 18.8027H36.201L35.2746 17.967H33.9053V17.5036H35.4307C35.8888 17.5036 36.1305 17.2885 36.1305 16.8996C36.1305 16.5107 35.8687 16.3204 35.4307 16.3204H33.4371V18.8027H32.8027V15.7949H35.4307C36.2664 15.7949 36.7598 16.2211 36.7598 16.8913C36.7598 17.3878 36.4778 17.7394 36.0046 17.8884L37.1071 18.8027Z" fill="url(#paint17_linear_246_732)"/>
<path d="M31.7555 17.4747V15.7949H32.3797V17.4747C32.3797 18.4055 31.8209 18.8441 30.4012 18.8441C28.9916 18.8441 28.4277 18.4055 28.4277 17.4747V15.7949H29.0872V17.4747C29.0872 18.0787 29.4145 18.3269 30.4214 18.3269C31.4282 18.3269 31.7555 18.0787 31.7555 17.4747Z" fill="url(#paint18_linear_246_732)"/>
<path d="M26.2122 18.8027H25.3211C24.2991 18.8027 23.5439 18.1408 23.5439 17.2678C23.5439 16.3824 24.2991 15.7949 25.3211 15.7949H26.2122C27.2694 15.7949 28.0044 16.3948 28.0044 17.2678C28.0044 18.1408 27.2543 18.8027 26.2122 18.8027ZM25.3211 18.2773H26.2122C26.8868 18.2773 27.3651 17.8594 27.3651 17.2926C27.3651 16.7258 26.8868 16.3204 26.2122 16.3204H25.3211C24.6666 16.3204 24.1833 16.7217 24.1833 17.2926C24.1833 17.8594 24.6616 18.2773 25.3211 18.2773Z" fill="url(#paint19_linear_246_732)"/>
<path d="M23.1202 18.8027H22.1435L20.0945 17.4788C19.9838 17.4085 19.9636 17.3423 19.9636 17.2595C19.9636 17.1685 19.9938 17.1023 20.1247 17.0196L22.063 15.7949H23.0447L20.6483 17.2637L23.1202 18.8027ZM19.7673 18.8027H19.1279V15.7949H19.7673V18.8027Z" fill="url(#paint20_linear_246_732)"/>
<path d="M18.7042 18.8027H17.7275L15.6785 17.4788C15.5678 17.4085 15.5476 17.3423 15.5476 17.2595C15.5476 17.1685 15.5778 17.1023 15.7087 17.0196L17.647 15.7949H18.6287L16.2323 17.2637L18.7042 18.8027ZM15.3513 18.8027H14.7119V15.7949H15.3513V18.8027Z" fill="url(#paint21_linear_246_732)"/>
<path d="M14.2881 18.8016H13.5178L12.9691 18.0445H11.2373L11.5393 17.6184H12.662L11.8464 16.493L10.1851 18.8016H9.45508L11.5595 15.9221C11.635 15.8186 11.7306 15.7524 11.8716 15.7524C12.0126 15.7524 12.1032 15.8186 12.1787 15.9221L14.2881 18.8016Z" fill="url(#paint22_linear_246_732)"/>
<path d="M7.8544 18.8027H5.10059V15.7949H7.77889C8.49377 15.7949 8.967 16.0597 8.967 16.5727C8.967 16.9534 8.73039 17.1437 8.45853 17.214C8.7908 17.3009 9.03245 17.5409 9.03245 17.8925C9.03245 18.4428 8.56929 18.8027 7.8544 18.8027ZM7.82923 17.4953H6.20312V17.0527H7.78392C8.1464 17.0527 8.31757 16.9492 8.31757 16.6886C8.31757 16.37 8.01047 16.3204 7.53723 16.3204H5.73995V18.2814H7.59261C8.05074 18.2814 8.38301 18.178 8.38301 17.8842C8.38301 17.636 8.18667 17.4953 7.82923 17.4953Z" fill="url(#paint23_linear_246_732)"/>
<path d="M24 45.7172L43 42C43 42 32.4414 45.1917 24 47V45.7172Z" fill="url(#paint24_linear_246_732)"/>
<path d="M24 45.7172L5 42C5 42 15.5586 45.1917 24 47V45.7172Z" fill="url(#paint25_linear_246_732)"/>
<defs>
<linearGradient id="paint0_linear_246_732" x1="23.5" y1="0" x2="23.5" y2="51" gradientUnits="userSpaceOnUse">
<stop stop-color="#DDDDDD"/>
<stop offset="1" stop-color="#B2B2B2"/>
</linearGradient>
<linearGradient id="paint1_linear_246_732" x1="35.5" y1="0" x2="35.5" y2="51" gradientUnits="userSpaceOnUse">
<stop stop-color="#E2E2E2"/>
<stop offset="1" stop-color="#8B8B8B"/>
</linearGradient>
<linearGradient id="paint2_linear_246_732" x1="9" y1="15" x2="23.5" y2="47" gradientUnits="userSpaceOnUse">
<stop stop-color="#E4E4E4"/>
<stop offset="1" stop-color="#B6B6B6"/>
</linearGradient>
<linearGradient id="paint3_linear_246_732" x1="33" y1="8" x2="33" y2="47" gradientUnits="userSpaceOnUse">
<stop stop-color="#E9E9E9"/>
<stop offset="1" stop-color="#A2A2A2"/>
</linearGradient>
<linearGradient id="paint4_linear_246_732" x1="16.7582" y1="26.556" x2="30.8955" y2="32.5058" gradientUnits="userSpaceOnUse">
<stop stop-color="#ECC271"/>
<stop offset="1" stop-color="#7F642E"/>
</linearGradient>
<linearGradient id="paint5_linear_246_732" x1="16.7582" y1="26.556" x2="30.8955" y2="32.5058" gradientUnits="userSpaceOnUse">
<stop stop-color="#ECC271"/>
<stop offset="1" stop-color="#7F642E"/>
</linearGradient>
<linearGradient id="paint6_linear_246_732" x1="39.9484" y1="20.0383" x2="39.9484" y2="22.7818" gradientUnits="userSpaceOnUse">
<stop stop-color="#ECC271"/>
<stop offset="1" stop-color="#7F642E"/>
</linearGradient>
<linearGradient id="paint7_linear_246_732" x1="35.773" y1="20.0715" x2="35.773" y2="22.7451" gradientUnits="userSpaceOnUse">
<stop stop-color="#ECC271"/>
<stop offset="1" stop-color="#7F642E"/>
</linearGradient>
<linearGradient id="paint8_linear_246_732" x1="32.4267" y1="20.0715" x2="32.4267" y2="22.7451" gradientUnits="userSpaceOnUse">
<stop stop-color="#ECC271"/>
<stop offset="1" stop-color="#7F642E"/>
</linearGradient>
<linearGradient id="paint9_linear_246_732" x1="28.8657" y1="20.0715" x2="28.8657" y2="22.7451" gradientUnits="userSpaceOnUse">
<stop stop-color="#ECC271"/>
<stop offset="1" stop-color="#7F642E"/>
</linearGradient>
<linearGradient id="paint10_linear_246_732" x1="25.0653" y1="20.0715" x2="25.0653" y2="22.7451" gradientUnits="userSpaceOnUse">
<stop stop-color="#ECC271"/>
<stop offset="1" stop-color="#7F642E"/>
</linearGradient>
<linearGradient id="paint11_linear_246_732" x1="21.0346" y1="20.0715" x2="21.0346" y2="22.7451" gradientUnits="userSpaceOnUse">
<stop stop-color="#ECC271"/>
<stop offset="1" stop-color="#7F642E"/>
</linearGradient>
<linearGradient id="paint12_linear_246_732" x1="16.0728" y1="20.0715" x2="16.0728" y2="22.7451" gradientUnits="userSpaceOnUse">
<stop stop-color="#ECC271"/>
<stop offset="1" stop-color="#7F642E"/>
</linearGradient>
<linearGradient id="paint13_linear_246_732" x1="11.8615" y1="20.0383" x2="11.8615" y2="22.7818" gradientUnits="userSpaceOnUse">
<stop stop-color="#ECC271"/>
<stop offset="1" stop-color="#7F642E"/>
</linearGradient>
<linearGradient id="paint14_linear_246_732" x1="8.73274" y1="20.0715" x2="8.73274" y2="22.7451" gradientUnits="userSpaceOnUse">
<stop stop-color="#ECC271"/>
<stop offset="1" stop-color="#7F642E"/>
</linearGradient>
<linearGradient id="paint15_linear_246_732" x1="6.54195" y1="20.0715" x2="6.54195" y2="22.7451" gradientUnits="userSpaceOnUse">
<stop stop-color="#ECC271"/>
<stop offset="1" stop-color="#7F642E"/>
</linearGradient>
<linearGradient id="paint16_linear_246_732" x1="39.9838" y1="15.7524" x2="39.9838" y2="18.8016" gradientUnits="userSpaceOnUse">
<stop stop-color="#ECC271"/>
<stop offset="1" stop-color="#7F642E"/>
</linearGradient>
<linearGradient id="paint17_linear_246_732" x1="34.9871" y1="15.7949" x2="34.9871" y2="18.8027" gradientUnits="userSpaceOnUse">
<stop stop-color="#ECC271"/>
<stop offset="1" stop-color="#7F642E"/>
</linearGradient>
<linearGradient id="paint18_linear_246_732" x1="30.4332" y1="15.7949" x2="30.4332" y2="18.8441" gradientUnits="userSpaceOnUse">
<stop stop-color="#ECC271"/>
<stop offset="1" stop-color="#7F642E"/>
</linearGradient>
<linearGradient id="paint19_linear_246_732" x1="25.8075" y1="15.7949" x2="25.8075" y2="18.8027" gradientUnits="userSpaceOnUse">
<stop stop-color="#ECC271"/>
<stop offset="1" stop-color="#7F642E"/>
</linearGradient>
<linearGradient id="paint20_linear_246_732" x1="21.1539" y1="15.7949" x2="21.1539" y2="18.8027" gradientUnits="userSpaceOnUse">
<stop stop-color="#ECC271"/>
<stop offset="1" stop-color="#7F642E"/>
</linearGradient>
<linearGradient id="paint21_linear_246_732" x1="16.7378" y1="15.7949" x2="16.7378" y2="18.8027" gradientUnits="userSpaceOnUse">
<stop stop-color="#ECC271"/>
<stop offset="1" stop-color="#7F642E"/>
</linearGradient>
<linearGradient id="paint22_linear_246_732" x1="11.9077" y1="15.7524" x2="11.9077" y2="18.8016" gradientUnits="userSpaceOnUse">
<stop stop-color="#ECC271"/>
<stop offset="1" stop-color="#7F642E"/>
</linearGradient>
<linearGradient id="paint23_linear_246_732" x1="7.09586" y1="15.7949" x2="7.09586" y2="18.8027" gradientUnits="userSpaceOnUse">
<stop stop-color="#ECC271"/>
<stop offset="1" stop-color="#7F642E"/>
</linearGradient>
<linearGradient id="paint24_linear_246_732" x1="29.6856" y1="42" x2="37.0453" y2="45.2146" gradientUnits="userSpaceOnUse">
<stop stop-color="#ECC271"/>
<stop offset="1" stop-color="#7F642E"/>
</linearGradient>
<linearGradient id="paint25_linear_246_732" x1="18.3144" y1="42" x2="10.9547" y2="45.2146" gradientUnits="userSpaceOnUse">
<stop stop-color="#ECC271"/>
<stop offset="1" stop-color="#7F642E"/>
</linearGradient>
</defs>
</svg>
