<svg width="47" height="51" viewBox="0 0 47 51" fill="none" xmlns="http://www.w3.org/2000/svg">
<path d="M0 0L23.5 7.22124L47 0V44.2301L23.5 51L0 44.2301V0Z" fill="url(#paint0_linear_246_7999)"/>
<path d="M47 44.2301V0L23.5 7.22124V51L47 44.2301Z" fill="url(#paint1_linear_246_7999)"/>
<path d="M5 8L23.5 13.5221L42 8V41.823L23.5 47L5 41.823V8Z" fill="url(#paint2_linear_246_7999)"/>
<path d="M42 41.823V8L24 13.5221V47L42 41.823Z" fill="url(#paint3_linear_246_7999)"/>
<path d="M37.8219 24.1579C37.7722 24.1062 37.6713 24.1046 37.62 24.1546C37.5688 24.2047 37.5167 24.3056 37.5151 24.4074C37.4101 24.6601 37.3564 24.8628 37.1033 24.9096C37.0024 24.908 36.8062 24.5488 36.6613 24.1394C36.2339 22.4535 36.0385 22.0434 35.3914 21.4734C35.1432 21.2151 34.7403 21.1578 34.5898 21.1045L34.5393 21.1037C34.5906 21.0536 34.6418 21.0036 34.6923 21.0044C34.8966 20.855 35.1008 20.7056 35.3075 20.4036C35.8274 19.4451 35.9389 18.7854 35.5425 18.3212C35.3447 18.0637 34.6488 17.3912 33.0349 17.3146C33.0349 17.3146 32.9845 17.3138 32.934 17.313C32.5816 17.2565 31.4219 17.1872 30.5608 17.377C30.1555 17.4724 29.8031 17.4159 29.5012 17.3602C29.7575 17.1099 30.0139 16.8595 30.271 16.5583C31.1979 15.4028 31.206 14.8941 31.2132 14.4363C31.214 14.3855 31.2149 14.3346 31.2165 14.2329C31.2197 14.0294 31.1749 13.6725 31.0251 13.5684C30.9747 13.5676 30.925 13.5159 30.9242 13.5668C30.772 13.6152 30.6158 13.918 30.3001 14.7271L30.2993 14.778C29.8795 15.7889 28.5498 16.8871 26.2605 18.021C25.9041 18.2189 25.7015 18.2665 25.6518 18.2149C25.6022 18.1632 25.7087 17.8087 25.7648 17.4535C25.8169 17.3525 25.8193 17.1999 25.8722 17.0481L25.8739 16.9464C26.0357 16.2875 26.3066 15.1215 26.8161 14.8244C26.917 14.826 27.2116 15.3395 27.359 15.5962C27.4575 15.7504 27.556 15.9046 27.6048 16.0072C27.6545 16.0588 27.7538 16.1622 27.8555 16.1129C27.9572 16.0636 28.0597 15.9635 27.9237 14.9946C27.8789 14.6377 27.8317 14.4335 27.7845 14.2292C27.6884 13.9224 27.6412 13.7181 27.7486 13.3128C27.8552 12.9583 28.0626 12.6054 28.2685 12.3543C28.4231 12.1532 28.5265 12.0022 28.5794 11.8504C28.5826 11.6469 28.5354 11.4427 28.3848 11.3894C28.2855 11.2861 28.034 11.2312 27.6271 11.4282C26.9663 11.723 26.7083 12.0751 25.5122 14.2948C24.8361 15.5561 24.5155 16.6704 24.4025 17.4318L24.4017 17.4827C24.3455 17.8379 24.2414 18.0398 24.1901 18.0899C24.0355 18.2909 23.9322 18.4419 23.7295 18.4896C23.6791 18.4888 23.5277 18.4864 23.4292 18.3322C23.43 18.2813 23.3307 18.178 23.3844 17.9753C23.3852 17.9244 23.386 17.8736 23.4373 17.8235C23.491 17.6208 23.5439 17.469 23.5967 17.3172C23.8644 16.3547 24.0994 14.2724 24.1164 13.2041C24.118 13.1024 24.1204 12.9498 24.1212 12.8989C24.1277 12.492 24.1301 12.3394 24.0308 12.236C23.9315 12.1327 23.7289 12.1804 23.4245 12.2773L23.374 12.2765C22.7661 12.4195 22.3519 13.0743 21.8865 13.7793C21.7311 14.0312 21.5757 14.2831 21.421 14.4842C20.9051 15.1883 20.5511 15.2336 19.9448 15.2748C19.7934 15.2724 19.6917 15.3217 19.5403 15.3193C19.4899 15.3185 19.4386 15.3685 19.3865 15.4695C19.3857 15.5203 19.3857 15.5203 19.3849 15.5712C19.4346 15.6229 19.5843 15.727 20.189 15.7875C20.8434 15.8997 21.5042 15.6049 22.3749 14.8046C22.5287 14.6545 22.6825 14.5042 22.785 14.4041C22.8876 14.304 22.9397 14.203 23.0406 14.2047C23.039 14.3064 23.0349 14.5607 22.9812 14.7634C22.8633 15.83 22.6429 16.9968 21.9708 18.0037C21.3507 18.9097 20.4001 18.3858 19.5007 17.8118C19.1507 17.6027 18.7047 17.0868 18.2611 16.4183C18.7273 15.6625 18.9926 14.8526 18.9478 14.4958C18.8566 13.8837 18.1118 13.1087 17.359 12.8423C17.2084 12.789 17.0066 12.7858 16.904 12.886C16.4955 13.1848 16.3296 14.098 16.3223 14.5558C16.3166 14.9119 16.5064 15.6781 17.1982 16.6049C16.8393 16.9554 16.3291 17.3035 15.7187 17.599C15.617 17.6483 15.5658 17.6984 15.4648 17.6968C15.4136 17.7468 15.3631 17.746 15.3127 17.7452L15.263 17.6936C15.0131 17.537 14.1626 17.0655 13.0933 17.6591C12.1761 18.2042 11.5609 18.805 11.0979 19.3573C11.0979 19.3573 10.7895 19.7086 10.8872 19.9137C10.9865 20.017 11.1387 19.9685 11.1891 19.9693C11.443 19.8716 11.6978 19.723 12.0037 19.5244C12.1567 19.425 12.361 19.2756 12.6157 19.127C12.7174 19.0778 12.7687 19.0277 12.82 18.9776C12.9217 18.9284 13.0234 18.8791 13.0747 18.829C12.8087 19.6898 11.3961 22.8219 11.0837 23.4276C11.0316 23.5285 10.9795 23.6294 10.9275 23.7304C10.7184 24.185 10.5613 24.5386 10.2073 24.5839C10.1568 24.5831 10.1064 24.5823 10.0567 24.5306C9.85732 24.3748 9.7653 23.8136 9.7205 23.4568C9.72131 23.4059 9.72292 23.3042 9.72373 23.2533C9.6757 23.0999 9.67812 22.9473 9.57721 22.9457C9.47629 22.9441 9.42502 22.9941 9.31036 23.8573C9.19165 24.9748 9.38055 25.7919 9.82902 26.1552C9.97878 26.2593 10.1293 26.3126 10.332 26.2649C10.7365 26.2205 11.2988 25.7715 11.765 25.0157C12.1784 24.4117 12.9147 22.5408 13.5469 20.8718C13.9147 19.9618 14.2312 19.1018 14.4403 18.6472C14.4411 18.5964 14.4916 18.5972 14.542 18.598C14.5925 18.5988 14.7943 18.602 15.2916 19.0678L15.3413 19.1195C15.6896 19.4303 16.038 19.7411 15.929 20.2482C15.8721 20.6543 15.4644 20.9023 15.0054 21.2003C14.9028 21.3004 14.7507 21.3488 14.6481 21.449C14.5464 21.4982 14.4951 21.5483 14.4439 21.5984C14.2901 21.7486 14.1883 21.7978 14.1875 21.8487C14.1859 21.9504 14.2356 22.0021 14.2844 22.1047L14.3341 22.1563C14.4814 22.4131 14.6695 23.281 14.6565 24.0949C14.6501 24.5019 14.6444 24.8579 14.5378 25.2124C14.5378 25.2124 14.5362 25.3141 14.4833 25.4659C14.4304 25.6177 14.3768 25.8204 14.3239 25.9722L14.3231 26.0231C14.3223 26.074 14.271 26.124 14.2702 26.1749C14.2694 26.2258 14.2181 26.2758 14.2165 26.3776C14.1644 26.4785 14.1123 26.5794 14.0106 26.6287C13.7046 26.8274 13.6037 26.8258 13.6037 26.8258C13.5532 26.8249 13.4059 26.5682 13.3611 26.2113C13.2194 25.5985 13.1755 25.1907 13.1795 24.9364C13.1884 24.3769 13.1892 24.326 13.1892 24.326C13.19 24.2751 13.1908 24.2243 13.1412 24.1726C13.0915 24.1209 13.0427 24.0184 12.9922 24.0176L12.9418 24.0168C12.8913 24.016 12.7888 24.1161 12.6838 24.3689C12.5805 24.5199 12.4731 24.9252 12.4178 25.2296L12.3641 25.4323C12.2559 25.8885 12.1493 26.2429 12.138 26.9551C12.1323 27.3112 12.2235 27.9232 12.5166 28.5384C12.6151 28.6926 12.6639 28.7952 12.7632 28.8985L12.8129 28.9502C13.0611 29.2085 13.2605 29.3643 13.6626 29.4725C13.713 29.4733 13.8131 29.5258 13.8636 29.5266C14.1151 29.5814 14.216 29.583 14.4146 29.7897C14.0476 30.6489 13.7824 31.4587 13.7182 32.3227C13.5385 34.1007 14.6268 35.4918 15.1762 35.8567C15.3267 35.9099 15.6271 36.0673 15.7809 35.9171C15.833 35.8162 15.7857 35.6119 15.4446 34.8433C15.2981 34.5357 15.2021 34.2289 15.106 33.9221C14.865 33.2059 14.7819 32.0852 15.0463 31.3262L15.0984 31.2253C15.205 30.8708 15.5223 29.96 16.3466 28.9046C16.5012 28.7035 16.655 28.5533 16.7063 28.5033C16.7551 28.6058 16.852 28.8617 16.948 29.1685L17.0457 29.3736C17.4813 30.5508 17.4635 31.6699 17.3585 31.9226C17.1583 31.8177 16.5088 31.4003 16.2581 31.2946C16.2077 31.2938 16.0571 31.2405 16.005 31.3414C15.9529 31.4424 15.9505 31.595 16.5447 32.3168C17.0884 33.0377 17.3326 33.5504 17.5256 34.1132C17.6713 34.4717 17.7129 35.032 17.756 35.4906C17.8 35.8984 17.7952 36.2036 17.8937 36.3578C17.9922 36.512 18.1411 36.667 18.2925 36.6694C18.3934 36.671 18.596 36.6234 18.8019 36.3722C18.9053 36.2212 19.0094 36.0194 19.1128 35.8684C19.1136 35.8175 19.1648 35.7674 19.1656 35.7165C19.2698 35.5147 19.4292 35.0084 19.4829 34.8057C19.5879 34.553 19.6448 34.1469 19.7538 33.6398C19.7554 33.5381 19.8067 33.488 19.8067 33.488C19.9076 33.4896 20.0574 33.5937 20.3048 33.903C20.6011 34.3147 20.8925 35.0317 20.9894 35.2876C20.939 35.2868 20.939 35.2868 20.8885 35.286C20.637 35.2311 20.2342 35.1738 19.9266 35.4742L19.824 35.5744C19.2601 36.1251 18.5928 36.8268 18.4156 38.4522C18.4147 38.5031 18.3122 38.6032 18.0591 38.6501C17.7555 38.6961 17.5569 38.4894 17.408 38.3344C17.3583 38.2827 17.3584 38.2827 17.3584 38.2827C17.2582 38.2303 17.2078 38.2295 17.1565 38.2795C17.054 38.3797 17.0507 38.5831 17.1484 38.7882C17.2958 39.045 17.7418 39.5609 18.449 39.5212C19.0049 39.4792 19.3621 39.2304 19.5159 39.0803C19.5672 39.0302 19.6722 38.7775 19.673 38.7266C20.0456 37.5114 20.97 36.5084 21.3785 36.2097C21.3248 36.4123 21.2703 36.6659 21.2158 36.9194C20.9994 37.8318 20.6773 39.0478 20.6123 39.9627C20.5497 40.7249 20.7402 41.4402 21.0886 41.7511C21.2375 41.9061 21.4385 41.9601 21.6404 41.9634C22.2971 41.9229 22.6552 41.6233 23.0726 40.765C23.438 40.0076 23.4396 39.9058 23.3395 39.8534C23.2394 39.8009 23.1368 39.901 23.0335 40.052C22.7763 40.3532 22.52 40.6035 22.1196 40.3937C21.9194 40.2887 21.8737 39.9827 21.9315 39.5257C22.0397 39.0695 22.0958 38.7142 22.2024 38.3597C22.2569 38.1062 22.3626 37.8026 22.4188 37.4473C22.527 36.9911 22.5782 36.9411 22.5782 36.9411C22.6287 36.9419 22.7264 37.1469 22.8249 37.3011C22.8745 37.3528 22.9233 37.4553 22.9722 37.5579C23.0202 37.7113 23.1187 37.8655 23.2172 38.0197L23.2668 38.0714L23.415 38.2773C23.4646 38.3289 23.5143 38.3806 23.7161 38.3838C23.8675 38.3862 23.9692 38.337 24.0205 38.2869C24.0718 38.2368 24.0726 38.1859 24.1238 38.1359L24.2272 37.9849C24.3305 37.8339 24.3834 37.6821 24.4859 37.5819C24.538 37.481 24.5901 37.3801 24.6414 37.33C24.7447 37.179 24.848 37.028 24.8993 36.9779C24.8993 36.9779 24.9994 37.0304 25.0426 37.489C25.0874 37.8459 25.1835 38.1527 25.2299 38.4079C25.3251 38.7655 25.3699 39.1224 25.4636 39.5818C25.5068 40.0405 25.4514 40.3449 25.248 40.4434C24.8916 40.6412 24.5928 40.3821 24.3454 40.0729C24.2469 39.9187 24.1476 39.8153 24.0459 39.8646C23.9442 39.9138 23.9425 40.0156 24.2836 40.7842C24.6744 41.6045 25.0227 41.9154 25.6771 42.0275L25.7275 42.0283C25.8789 42.0307 26.0311 41.9823 26.1841 41.8829C26.5421 41.5833 26.7545 40.9253 26.7682 40.0605C26.83 39.3492 26.5434 38.327 26.3561 37.4081C26.2625 36.9487 26.1176 36.5394 26.0728 36.1825C26.6718 36.5991 27.6095 37.9369 27.748 38.7532C27.7463 38.8549 27.844 39.06 27.8937 39.1117C28.0931 39.2675 28.4414 39.5783 28.946 39.5863C29.6516 39.6484 30.1138 39.147 30.2693 38.895C30.3734 38.6932 30.3766 38.4897 30.2773 38.3863C30.2277 38.3347 30.1772 38.3339 30.0755 38.3831L30.0242 38.4332C29.8704 38.5834 29.6662 38.7328 29.3634 38.728C29.112 38.6731 29.0127 38.5698 29.0135 38.5189C28.7895 36.7345 28.1945 36.0636 27.5979 35.4944C27.2495 35.1836 26.7946 35.2273 26.5919 35.2749C26.9076 34.4658 27.5261 33.6616 27.5781 33.5606C27.6302 33.4597 27.7303 33.5122 27.7808 33.513C27.7808 33.513 27.8312 33.5138 27.8793 33.6672C27.9216 34.1767 28.0161 34.5852 28.113 34.8411C28.1618 34.9437 28.2082 35.1988 28.3075 35.3022C28.4052 35.5073 28.7968 36.2767 29.1459 36.5366C29.5944 36.8999 30.702 37.0702 31.3645 36.6737C32.1294 36.177 32.961 34.6638 33.026 33.749C33.039 32.9351 32.8037 31.8629 32.4121 31.0934C32.2168 30.6833 31.9205 30.2715 31.6747 29.8606C31.5762 29.7064 31.4809 29.3487 31.4833 29.1961C31.4866 28.9926 31.5451 28.4847 31.5996 28.2312L31.6004 28.1803C31.7615 27.5723 31.8665 27.3196 31.9682 27.2703C32.017 27.3728 32.1139 27.6288 32.0049 28.1359C31.9464 28.6437 31.9213 30.2207 32.6156 30.9949C32.8134 31.2525 33.012 31.4591 33.2643 31.4631C33.4661 31.4663 33.6191 31.367 33.825 31.1159C34.0821 30.8147 34.3978 30.0056 34.6614 29.2975C34.8193 28.8929 35.0292 28.3875 35.1325 28.2365C35.1814 28.339 35.279 28.5441 35.3767 28.7492C35.4736 29.0051 35.6209 29.2618 35.7186 29.4669C35.8171 29.6211 35.8676 29.6219 35.918 29.6227C35.9685 29.6235 36.1207 29.5751 36.2297 29.068C36.3371 28.6627 35.3845 25.0858 34.8375 24.5683C34.7879 24.5167 34.6878 24.4642 34.6365 24.5143C34.3834 24.5611 34.3289 24.8147 34.1077 26.0323L34.0507 26.4384C33.8816 27.5551 33.6002 29.3824 33.3951 29.5826C33.1949 29.4777 32.8473 29.116 32.8692 27.7426C32.8829 26.8778 32.7917 26.2658 32.5947 25.9574L32.5955 25.9065C32.5963 25.8556 32.5467 25.804 32.5467 25.804L32.5475 25.7531L32.4978 25.7014C32.5491 25.6514 32.5491 25.6514 32.7013 25.6029C32.8022 25.6045 32.8535 25.5544 32.9552 25.5052C33.0057 25.506 33.0065 25.4551 33.0065 25.4551C33.0065 25.4551 33.0065 25.4551 33.0577 25.405L33.109 25.355C33.4166 25.0546 33.3742 24.5451 33.3839 23.9347C33.3856 23.8329 33.3872 23.7312 33.3888 23.6295C33.4041 22.663 33.1281 20.9795 32.9448 19.8063C32.8536 19.1943 32.7616 18.6332 32.716 18.3272C32.8682 18.2787 33.6251 18.2907 34.2265 18.5547C34.4772 18.6604 34.7271 18.8171 34.7735 19.0722C34.9143 19.7359 34.1982 20.3351 33.8393 20.6855C33.583 20.9359 33.43 21.0352 33.5293 21.1385C33.5782 21.2411 33.7287 21.2944 33.8785 21.3985C34.4279 21.7634 35.4762 22.4924 35.9476 24.586C35.946 24.6877 36.2911 25.202 36.7412 25.4636C37.2409 25.7768 37.9506 25.5846 38.3119 25.0815C38.1629 24.9265 37.9708 24.3129 37.8219 24.1579ZM17.2411 13.9089C17.2915 13.9097 17.3412 13.9614 17.4413 14.0139C17.6895 14.2722 17.9313 14.9375 17.6693 15.5439C17.3755 14.9796 17.1809 14.5186 17.185 14.2642C17.1377 14.06 17.1898 13.959 17.2411 13.9089ZM31.8661 24.165C31.8149 24.215 31.5618 24.2619 30.7201 23.2309C30.6217 23.0767 30.5223 22.9733 30.4206 23.0226C30.3189 23.0719 30.3173 23.1736 30.6584 23.9422C31.0002 24.66 31.3958 25.1751 31.745 25.4351C31.745 25.4351 31.6937 25.4851 31.6425 25.5352C31.5912 25.5852 31.5407 25.5844 31.4895 25.6345L31.5383 25.737L31.4887 25.6854L31.4382 25.6846C31.0313 25.8816 30.5194 26.3314 30.5033 27.3488C30.5025 27.3996 30.5008 27.5014 30.5 27.5523C30.5 27.5523 30.4944 27.9083 30.5408 28.1635C30.54 28.2143 30.5392 28.2652 30.5896 28.266C30.6385 28.3685 30.6369 28.4703 30.6352 28.572C30.6336 28.6738 30.632 28.7755 30.5807 28.8256C30.5807 28.8256 30.5303 28.8247 30.4806 28.7731C29.9329 28.3064 29.2248 28.397 28.918 28.6465C28.8163 28.6958 28.5087 28.9961 28.2499 29.3991C28.1474 29.4992 28.0457 29.5485 28.0457 29.5485C28.0457 29.5485 28.0457 29.5485 27.9952 29.5477C27.9464 29.4451 27.9008 29.1391 27.9024 29.0374C27.9032 28.9865 27.904 28.9357 27.9048 28.8848C27.9072 28.7322 27.8584 28.6296 27.86 28.5279C27.8152 28.171 27.7656 28.1194 28.2734 27.9239C28.9847 27.6299 29.8514 27.084 30.0597 26.6803C30.2151 26.4284 30.2801 25.5135 29.9838 25.1018C29.6379 24.6383 28.7809 24.5738 28.0729 24.6643C27.9215 24.6619 27.8197 24.7112 27.718 24.7605C27.6676 24.7597 27.6676 24.7597 27.6163 24.8097C27.4633 24.9091 27.3624 24.9075 27.2599 25.0076C27.2599 25.0076 27.2599 25.0076 27.2607 24.9567C27.3144 24.754 27.3168 24.6014 27.4201 24.4504C27.5235 24.2994 27.626 24.1993 27.8303 24.0499C27.9833 23.9506 28.1362 23.8513 28.2884 23.8028C28.7466 23.5557 29.1535 23.3586 29.3105 23.0049L29.3113 22.9541L29.3122 22.9032C29.3658 22.7005 29.4187 22.5487 29.3691 22.4971C29.3202 22.3945 29.1689 22.3921 28.9166 22.3881C28.8661 22.3873 28.7652 22.3857 28.7147 22.3849C28.3111 22.3785 27.5542 22.3665 26.8982 22.356C26.545 22.3504 26.2919 22.3973 26.0893 22.4449C25.8866 22.4926 25.6335 22.5394 25.3804 22.5863C25.33 22.5855 25.33 22.5855 25.2795 22.5847C25.3308 22.5346 25.4846 22.3844 25.8931 22.0856C25.9444 22.0356 25.9948 22.0364 26.0461 21.9863C26.2504 21.8369 26.3521 21.7877 26.2568 21.43C26.1599 21.174 26.1135 20.9189 25.8132 20.7615C25.7636 20.7098 25.6626 20.7082 25.6114 20.7583C25.5601 20.8083 25.609 20.9109 25.7082 21.0142C25.7571 21.1168 25.9052 21.3226 25.9036 21.4244C25.9028 21.4752 25.5984 21.5722 25.3958 21.6198C25.1419 21.7175 24.7871 21.8137 24.5828 21.9631C24.2768 22.1617 24.272 22.4669 24.2126 23.0257C24.2045 23.5344 24.3022 23.7394 24.3519 23.7911C24.4495 23.9962 24.5464 24.2521 24.6937 24.5089C24.7426 24.6114 24.8883 24.9699 24.8875 25.0208C24.8867 25.0716 24.8851 25.1734 24.9347 25.225C24.9827 25.3784 24.9811 25.4802 24.9771 25.7345C24.9706 26.1415 24.9625 26.6501 24.8592 26.8011C24.7599 26.6978 24.6093 26.6445 24.4571 26.693C24.1536 26.739 23.6458 26.9345 23.5432 27.0346C23.3927 26.9814 22.9418 26.7707 22.6406 26.6641C22.4901 26.6108 22.3379 26.6593 22.2354 26.7594C22.1369 26.6052 22.0945 26.0957 22.1514 25.6896C22.1555 25.4353 22.2075 25.3343 22.21 25.1817C22.2108 25.1309 22.2116 25.08 22.2637 24.9791C22.2653 24.8773 22.4223 24.5236 22.4736 24.4736C22.629 24.2216 22.7331 24.0198 22.8373 23.8179C22.8886 23.7678 22.9935 23.5151 23.0016 23.0064C23.0097 22.4978 22.9649 22.1409 22.6654 21.9326C22.466 21.7768 22.1144 21.6694 21.8637 21.5637C21.6627 21.5096 21.3615 21.403 21.3623 21.3522C21.364 21.2504 21.5186 21.0494 21.5707 20.9485C21.674 20.7975 21.7253 20.7474 21.6756 20.6957C21.626 20.644 21.5242 20.6933 21.4738 20.6925C21.1686 20.8403 21.0636 21.093 21.0091 21.3466C20.9034 21.6502 20.9522 21.7527 21.2021 21.9093C21.2517 21.961 21.3022 21.9618 21.3518 22.0135C21.7515 22.2742 21.9004 22.4292 21.9492 22.5318L21.8988 22.531C21.6473 22.4761 21.3958 22.4212 21.1948 22.3671C20.9938 22.3131 20.7415 22.309 20.3891 22.2526C19.7339 22.1913 18.977 22.1792 18.5726 22.2237C18.4717 22.2221 18.4212 22.2213 18.3707 22.2205C18.1184 22.2165 18.0175 22.2149 17.915 22.315C17.8629 22.4159 17.8613 22.5177 17.959 22.7227L17.9582 22.7736C17.9582 22.7736 17.9574 22.8245 18.0078 22.8253C18.1535 23.1838 18.554 23.3937 19.0041 23.6552C19.1538 23.7594 19.3044 23.8126 19.4541 23.9168C19.6536 24.0726 19.8033 24.1767 19.8513 24.3301C19.9498 24.4843 19.9474 24.6369 19.9946 24.8412C19.993 24.943 20.0427 24.9946 20.041 25.0964C20.0402 25.1472 20.0899 25.1989 20.1403 25.1997L20.1908 25.2005L20.2413 25.2013C20.2925 25.1512 20.3438 25.1012 20.3487 24.796C20.3495 24.7451 20.3503 24.6942 20.3511 24.6434C20.3543 24.4399 20.3079 24.1848 20.2102 23.9797C20.1125 23.7746 19.9147 23.517 19.616 23.2579C19.5167 23.1545 19.4174 23.0512 19.3173 22.9987C19.2669 22.9979 19.2677 22.9471 19.2172 22.9463C19.3181 22.9479 19.419 22.9495 19.4695 22.9503C19.7218 22.9543 20.0237 23.01 20.3257 23.0657C20.779 23.1237 21.1802 23.2828 21.5302 23.4919C21.7801 23.6485 21.8778 23.8535 21.8737 24.1079L21.8729 24.1587C21.8705 24.3113 21.8168 24.514 21.7647 24.615C21.6565 25.0712 21.5996 25.4773 21.5419 25.9343C21.5394 26.0869 21.537 26.2395 21.5346 26.3921C21.5338 26.443 21.533 26.4939 21.533 26.4939C21.5281 26.7991 21.5265 26.9008 21.424 27.0009C21.3214 27.1011 21.271 27.1003 20.8665 27.1447C20.6142 27.1407 20.5125 27.19 20.5117 27.2408C20.5109 27.2917 20.5109 27.2917 20.5605 27.3434C20.6102 27.395 20.8608 27.5008 21.0627 27.504C21.1131 27.5048 21.214 27.5064 21.2645 27.5072C21.4159 27.5096 21.5681 27.4612 21.7178 27.5653C21.8179 27.6178 22.2184 27.8277 22.268 27.8793L22.3177 27.931C22.3673 27.9827 22.4178 27.9835 22.4674 28.0351C22.5675 28.0876 22.8679 28.245 23.064 28.6043C23.1088 28.9612 23.2513 29.5232 23.4011 29.6273C23.4515 29.6281 23.4507 29.679 23.502 29.6289C23.5524 29.6297 23.6542 29.5804 23.9218 28.618C24.1293 28.2651 24.485 28.1181 24.5362 28.068C24.5875 28.018 24.638 28.0188 24.6892 27.9687L24.7909 27.9194C24.9439 27.8201 25.2491 27.6723 25.3508 27.6231C25.503 27.5746 25.6544 27.577 25.8058 27.5794C25.8562 27.5802 25.9572 27.5818 26.0076 27.5826C26.2094 27.5858 26.4625 27.539 26.5138 27.4889C26.5651 27.4388 26.5659 27.388 26.5659 27.388C26.5675 27.2862 26.4666 27.2846 26.2143 27.2806C25.8114 27.2233 25.761 27.2225 25.6617 27.1192C25.5624 27.0158 25.564 26.9141 25.5688 26.6089C25.5697 26.558 25.5705 26.5072 25.5713 26.4563C25.5737 26.3037 25.5761 26.1511 25.5785 25.9985C25.5858 25.5407 25.5426 25.082 25.3977 24.6727C25.3497 24.5193 25.3521 24.3667 25.3041 24.2133L25.3049 24.1624C25.3098 23.8572 25.4139 23.6553 25.6678 23.5576C26.0243 23.3598 26.3791 23.2636 26.8853 23.1699C27.1888 23.1239 27.4916 23.1287 27.7447 23.0818C27.8456 23.0834 27.9465 23.085 27.997 23.0858C27.9465 23.085 27.9457 23.1359 27.8953 23.1351C27.844 23.1852 27.7415 23.2853 27.6389 23.3854C27.3826 23.6357 27.1767 23.8869 27.0221 24.088C26.918 24.2898 26.8643 24.4925 26.8602 24.7468C26.8594 24.7977 26.8586 24.8486 26.8578 24.8994C26.8554 25.052 26.9034 25.2054 26.9522 25.308C27.0507 25.4622 27.2037 25.3629 27.5081 25.2659C27.5586 25.2667 27.5594 25.2159 27.6098 25.2167C27.8125 25.169 27.9134 25.1706 28.2161 25.1754C28.7207 25.1834 29.0723 25.2908 29.2701 25.5483C29.3198 25.6 29.3686 25.7026 29.3149 25.9052C29.262 26.057 29.1546 26.4624 28.5955 26.7079C28.4426 26.8072 28.2904 26.8557 28.1886 26.9049C28.0357 27.0043 27.8835 27.0527 27.6296 27.1505C27.5278 27.1997 27.4774 27.1989 27.3757 27.2482C27.1217 27.3459 26.8686 27.3928 26.8149 27.5954C26.7629 27.6964 26.7604 27.849 26.8597 27.9523C27.1048 28.4141 27.3001 28.8243 27.1847 29.7383C27.1806 29.9926 26.9699 30.549 26.6631 30.7985C26.5093 30.9487 25.9526 31.0416 25.1453 31.0288L25.0948 31.028C24.0857 31.0119 23.839 30.6519 23.7902 30.5493C23.7405 30.4977 23.7413 30.4468 23.6925 30.3443C23.546 30.0366 23.4483 29.8316 23.3474 29.83C23.2465 29.8284 23.1431 29.9794 22.9861 30.333C22.9348 30.3831 22.9332 30.4848 22.8819 30.5349C22.8299 30.6358 22.5727 30.937 21.5627 30.9718C21.26 30.967 20.9572 30.9622 20.7057 30.9073C20.3029 30.8501 20.1515 30.8477 20.0994 30.9486C20.0474 31.0495 20.1467 31.1529 20.2468 31.2053C20.5463 31.4136 20.7457 31.5694 21.4521 31.5807C21.247 31.7809 21.195 31.8819 21.2365 32.4422C21.2821 32.7482 21.3717 33.462 21.4686 33.7179C21.5663 33.923 21.9155 34.1829 22.9238 34.2499C23.0247 34.2515 23.1257 34.2531 23.2266 34.2547C23.3275 34.2563 23.4284 34.2579 23.5293 34.2595C24.3375 34.2214 24.8445 34.0769 25.0007 33.7741C25.0528 33.6731 25.2659 32.9642 25.1194 32.6566C25.0698 32.6049 25.0714 32.5032 24.9713 32.4507C24.8712 32.3982 24.8183 32.55 24.7133 32.8028C24.6612 32.9037 24.6084 33.0555 24.5563 33.1564C24.5555 33.2073 24.2967 33.6102 23.2875 33.5942L23.1866 33.5926L23.1362 33.5918C22.1775 33.5765 21.9308 33.2165 21.9324 33.1147C21.7867 32.7562 21.6434 32.2452 21.6467 32.0417C21.6499 31.8382 21.8037 31.688 21.9062 31.5879C22.865 31.6031 23.1213 31.3528 23.2743 31.2535C23.3736 31.3568 23.6715 31.6668 24.7311 31.6837C25.1852 31.6909 25.5393 31.6456 25.9454 31.4994C26.0975 31.451 26.2497 31.4025 26.3523 31.3024C26.4027 31.3032 26.4035 31.2523 26.454 31.2531C26.5044 31.2539 26.5557 31.2039 26.6062 31.2047C27.0643 30.9575 27.2206 30.6547 27.2734 30.5029C27.2734 30.5029 27.2743 30.4521 27.3247 30.4529C27.3768 30.3519 27.533 30.0491 27.533 30.0491C27.5843 29.9991 27.5859 29.8973 27.638 29.7964C27.6876 29.8481 27.7373 29.8997 27.8374 29.9522C27.7324 30.205 27.6779 30.4585 27.6234 30.712C27.5071 31.6769 27.5519 32.0338 27.7449 32.5965C27.9386 33.1084 28.0331 33.517 28.3798 33.9295C28.5776 34.1871 28.8779 34.3445 29.0309 34.2452C29.0822 34.1951 29.1847 34.095 29.0366 33.8891C28.8404 33.5298 28.5954 33.068 28.5042 32.456C28.4146 31.7422 28.5757 31.1342 28.6285 30.9824C28.788 30.4761 29.098 30.0231 29.4537 29.8761C29.6059 29.8277 29.7068 29.8293 29.8061 29.9326C30.2057 30.1934 31.5765 32.861 31.0517 34.1246C30.7368 34.8829 30.0207 35.482 29.0172 35.1099C28.6656 35.0026 28.467 34.7959 28.3172 34.6918C28.2676 34.6401 28.2179 34.5884 28.2179 34.5884L28.1683 34.5368C28.1186 34.4851 28.0698 34.3825 28.0201 34.3309C27.9225 34.1258 27.8752 33.9215 27.8777 33.7689C27.8785 33.7181 27.8793 33.6672 27.8296 33.6155C27.8312 33.5138 27.784 33.3095 27.736 33.1561C27.7368 33.1052 27.7368 33.1052 27.6871 33.0535L27.6391 32.9001C27.5911 32.7467 27.3925 32.5401 27.1915 32.486C26.9904 32.4319 26.485 32.4748 26.2767 32.8785C26.2255 32.9286 26.1181 33.3339 25.8553 33.9912C25.6966 34.4466 25.4867 34.952 25.3801 35.3065C25.3313 35.204 25.2312 35.1515 25.1311 35.099C24.6289 34.9384 24.3726 35.1887 24.1675 35.389C24.065 35.4891 23.9095 35.7411 23.9087 35.7919C23.5458 36.3967 23.3864 36.903 23.2741 37.6136C23.1845 36.8998 23.0412 36.3887 22.6977 35.7727C22.6977 35.7727 22.5504 35.5159 22.4519 35.3617C22.3038 35.1559 22.1052 34.9492 21.8024 34.9444C21.7015 34.9428 21.6006 34.9412 21.4989 34.9904C21.3971 35.0397 21.2954 35.089 21.2433 35.1899C21.0976 34.8314 20.9551 34.2694 20.811 33.8092C20.6189 33.1956 20.5236 32.8379 20.4243 32.7346C20.1777 32.3745 19.7252 32.2655 19.5226 32.3132C19.3704 32.3617 19.1661 32.5111 19.1132 32.6629C19.062 32.7129 19.0612 32.7638 19.0099 32.8139C18.957 32.9657 18.8512 33.2693 18.7984 33.4211C18.7975 33.4719 18.7967 33.5228 18.7455 33.5729C18.7438 33.6746 18.691 33.8264 18.6373 34.0291C18.6373 34.0291 18.6365 34.08 18.5852 34.13C18.5469 33.3662 18.511 32.4498 18.4246 31.5325C18.2616 29.0877 17.2807 27.2913 16.6841 26.7221C16.4855 26.5154 16.3349 26.4621 16.1836 26.4597C15.88 26.5058 15.5708 26.9079 15.0524 27.7646L14.897 28.0166C14.6383 28.4195 14.4308 28.7724 14.2233 29.1252C14.1736 29.0736 14.124 29.0219 14.1248 28.971C14.0751 28.9194 14.0263 28.8168 13.9767 28.7651C13.9278 28.6626 13.879 28.5601 14.0336 28.359C14.0856 28.2581 14.1882 28.1579 14.2403 28.057C14.4461 27.8059 14.6024 27.5031 14.809 27.2011C14.9124 27.0501 15.0165 26.8482 15.1199 26.6972C15.1712 26.6471 15.172 26.5963 15.224 26.4953C15.9539 25.0314 15.9261 23.6063 15.7388 22.6875C15.6444 22.2789 15.2936 22.1207 15.0934 22.0157C15.0429 22.0149 14.9933 21.9633 14.9428 21.9625C14.9941 21.9124 15.1471 21.8131 15.5027 21.6661C15.7061 21.5676 15.8583 21.5191 15.9609 21.419C16.3165 21.272 16.5175 21.3261 16.769 21.3809L16.8195 21.3817C16.8699 21.3825 16.9708 21.3841 17.0213 21.3849C16.9587 22.1472 16.8888 23.3672 16.8743 24.2828C16.8662 24.7915 16.8605 25.1476 16.8581 25.3002C16.7947 26.1133 16.7915 26.3167 16.9388 26.5735C17.1342 26.9836 17.9831 27.5568 18.6847 27.8732C19.186 28.0847 19.1347 28.1348 19.0786 28.4901C19.077 28.5918 19.0249 28.6927 19.0225 28.8454C18.9111 29.505 19.3026 30.2745 19.4011 30.4287C19.4508 30.4803 19.5012 30.4812 19.5517 30.482C19.6534 30.4327 19.6037 30.381 19.5581 30.075C19.5109 29.8707 19.4661 29.5139 19.4693 29.3104C19.475 28.9543 19.6312 28.6515 19.8379 28.3495C19.89 28.2486 19.9421 28.1476 20.0446 28.0475C20.148 27.8965 20.1496 27.7948 20.1007 27.6922C20.003 27.4872 19.802 27.4331 19.5513 27.3273C19.4512 27.2749 19.4008 27.2741 19.3007 27.2216C19.1005 27.1167 18.9499 27.0634 18.8001 26.9592C18.7 26.9068 18.5503 26.8026 18.35 26.6977C17.349 26.173 17.2836 23.9332 17.3135 22.051C17.3135 22.051 17.3216 21.5424 17.4795 21.1378C17.5323 20.986 17.5852 20.8342 17.5852 20.8342C17.7463 20.2262 18.0539 19.9258 18.2053 19.9282C18.3062 19.9298 18.6073 20.0364 18.9077 20.1938C19.2585 20.352 19.6597 20.511 19.8615 20.5142C19.9624 20.5158 20.1146 20.4674 20.2172 20.3672L20.3189 20.318L20.2188 20.2655C19.5717 19.6955 17.8235 18.5484 17.3709 18.4394C17.1699 18.3853 17.065 18.6381 17.0121 18.7899C16.956 19.1451 16.9967 19.7564 16.9878 20.3159C16.9838 20.5703 17.0302 20.8254 17.027 21.0289L17.0261 21.0797C17.0253 21.1306 17.0245 21.1815 16.9733 21.2315C16.9228 21.2307 16.8715 21.2808 16.8723 21.2299C16.8219 21.2291 16.8219 21.2291 16.8227 21.1783C16.7747 21.0248 16.7771 20.8722 16.7795 20.7196C16.7803 20.6688 16.7819 20.567 16.7828 20.5162C16.7852 20.3636 16.7371 20.2102 16.6883 20.1076C16.5434 19.6983 15.9516 18.8239 15.355 18.2547C15.7082 18.2603 16.2657 18.1166 16.8777 17.7192C17.0307 17.6199 17.1845 17.4697 17.3383 17.3195C17.6362 17.6295 17.9341 17.9396 18.2824 18.2504C20.0739 19.8562 20.6753 20.1201 21.5828 20.1854C21.9864 20.1918 22.3958 19.8422 22.7611 19.0848C22.8075 19.3399 22.8548 19.5442 22.9541 19.6475C23.0029 19.7501 23.1518 19.9051 23.2544 19.8049C23.4578 19.7064 23.5612 19.5554 23.7142 19.4561C23.7654 19.406 23.8167 19.356 23.868 19.3059L24.1243 19.0556C24.1219 19.2082 24.1699 19.3616 24.1675 19.5142C24.2139 19.7693 24.3124 19.9235 24.463 19.9768C24.7633 20.1342 25.2206 19.938 26.1362 19.4946L26.3901 19.3969C27.5083 18.9058 28.2724 18.4601 28.9373 17.9109C29.1375 18.0159 29.389 18.0707 29.6909 18.1264L29.8919 18.1805C30.1939 18.2362 30.5967 18.2935 30.9491 18.3499C30.8971 18.4509 30.8458 18.5009 30.7937 18.6019C30.2746 19.5095 30.1103 20.321 29.946 21.1325C29.946 21.1325 29.9451 21.1833 29.9443 21.2342C29.8906 21.4369 29.8906 21.4369 29.8898 21.4877C29.8386 21.5378 29.7377 21.5362 29.688 21.4845C29.688 21.4845 29.6384 21.4329 29.64 21.3311C29.644 21.0768 29.6985 20.8232 29.7026 20.5689C29.7619 20.0102 29.8221 19.4005 29.7268 19.0429C29.6788 18.8895 29.5819 18.6335 29.3793 18.6812C28.9235 18.7757 27.3439 19.7173 26.8329 20.1162L26.7824 20.1154C26.4764 20.3141 26.4252 20.3642 26.4244 20.415L26.4236 20.4659L26.4732 20.5176C26.5237 20.5184 26.6734 20.6225 26.824 20.6758C27.1259 20.7315 27.5833 20.5352 27.9902 20.3381C28.2441 20.2404 28.4476 20.1419 28.5485 20.1435C28.6999 20.1459 29.0458 20.6093 29.1394 21.0688C29.1386 21.1196 29.1875 21.2222 29.1875 21.2222C29.2347 21.4264 29.2827 21.5798 29.3828 21.6323C29.4821 21.7356 29.7336 21.7905 29.885 21.7929L29.9354 21.7937C30.0364 21.7953 30.239 21.7477 30.3423 21.5967L30.4457 21.4457C30.4457 21.4457 30.4465 21.3948 30.497 21.3956C30.6003 21.2446 30.7044 21.0428 30.8094 20.79C30.9136 20.5882 30.9673 20.3855 31.1227 20.1335C31.1235 20.0827 31.1748 20.0326 31.1756 19.9817C31.2284 19.8299 31.3326 19.6281 31.3839 19.578C31.3839 19.578 31.4335 19.6297 31.5288 19.9874C31.8666 20.9595 32.1729 23.9154 31.8661 24.165Z" fill="url(#paint4_linear_246_7999)"/>
<defs>
<linearGradient id="paint0_linear_246_7999" x1="23.5" y1="0" x2="23.5" y2="51" gradientUnits="userSpaceOnUse">
<stop stop-color="#DEDEDE"/>
<stop offset="1" stop-color="#B5B5B5"/>
</linearGradient>
<linearGradient id="paint1_linear_246_7999" x1="35.25" y1="0" x2="35.25" y2="51" gradientUnits="userSpaceOnUse">
<stop stop-color="#DDDDDD"/>
<stop offset="1" stop-color="#959595"/>
</linearGradient>
<linearGradient id="paint2_linear_246_7999" x1="9" y1="15" x2="23.5" y2="47" gradientUnits="userSpaceOnUse">
<stop stop-color="#E5E5E5"/>
<stop offset="1" stop-color="#D0D0D0"/>
</linearGradient>
<linearGradient id="paint3_linear_246_7999" x1="33" y1="8" x2="33" y2="47" gradientUnits="userSpaceOnUse">
<stop stop-color="#E3E3E3"/>
<stop offset="1" stop-color="#A5A5A5"/>
</linearGradient>
<linearGradient id="paint4_linear_246_7999" x1="18.179" y1="11.1381" x2="34.2965" y2="46.9462" gradientUnits="userSpaceOnUse">
<stop stop-color="#ECC271"/>
<stop offset="1" stop-color="#7F642E"/>
</linearGradient>
</defs>
</svg>
