<svg width="53" height="52" viewBox="0 0 53 52" fill="none" xmlns="http://www.w3.org/2000/svg">
<path fill-rule="evenodd" clip-rule="evenodd" d="M0.330078 23.4556C0.330078 18.0837 2.18376 13.1395 5.29368 9.21331L8.16013 7.81487L9.30582 5.24526C13.2833 2.16341 18.2957 0.325851 23.7425 0.325851H28.8932C34.397 0.325851 39.4571 2.202 43.4542 5.34223L44.5722 7.80376L46.9449 8.72555C50.2935 12.7262 52.3056 17.8588 52.3056 23.4556V28.5441C52.3056 34.126 50.3042 39.2461 46.9716 43.2421L44.1136 44.5091L43.1714 46.8762C39.2196 49.8846 34.2679 51.6738 28.8932 51.6738H23.7425C18.583 51.6738 13.8133 50.025 9.94377 47.2316L8.67502 44.6934L5.85257 43.4652C2.40712 39.4375 0.330078 34.2304 0.330078 28.5441V23.4556Z" fill="url(#paint0_linear_246_1310)"/>
<ellipse cx="26.3182" cy="26" rx="23.1278" ry="22.8485" fill="url(#paint1_linear_246_1310)"/>
<ellipse cx="25.9613" cy="25.9289" rx="20.4623" ry="20.1669" fill="url(#paint2_linear_246_1310)"/>
<path d="M35 22C37.2091 22 39 20.2091 39 18C39 15.7909 37.2091 14 35 14C32.7909 14 31 15.7909 31 18C31 20.2091 32.7909 22 35 22Z" fill="url(#paint3_linear_246_1310)"/>
<path d="M15.7981 39H30.2018C31.6184 39 32.477 37.4264 31.7164 36.2238L24.5146 24.8366C23.809 23.7211 22.1909 23.7211 21.4854 24.8366L14.2836 36.2238C13.523 37.4264 14.3815 39 15.7981 39Z" fill="url(#paint4_linear_246_1310)"/>
<path d="M25.8176 39H37.1824C38.6317 39 39.4962 37.405 38.6921 36.2144L33.0099 27.7979C32.2916 26.734 30.7084 26.734 29.9901 27.7979L24.3079 36.2144C23.5038 37.405 24.3683 39 25.8176 39Z" fill="url(#paint5_linear_246_1310)"/>
<circle cx="23" cy="15" r="1" fill="url(#paint6_linear_246_1310)"/>
<circle cx="22.5" cy="19.5" r="0.5" fill="url(#paint7_linear_246_1310)"/>
<ellipse cx="19.5" cy="18.5" rx="0.5" ry="0.5" transform="rotate(90 19.5 18.5)" fill="url(#paint8_linear_246_1310)"/>
<path fill-rule="evenodd" clip-rule="evenodd" d="M18.8235 14.7547C17.6631 15.426 16.8823 16.6807 16.8823 18.1177C16.8823 19.5547 17.6631 20.8094 18.8235 21.4807C18.2525 21.811 17.5895 22.0001 16.8824 22.0001C14.7382 22.0001 13 20.2619 13 18.1177C13 15.9735 14.7382 14.2354 16.8824 14.2354C17.5895 14.2354 18.2525 14.4244 18.8235 14.7547Z" fill="url(#paint9_linear_246_1310)"/>
<defs>
<linearGradient id="paint0_linear_246_1310" x1="15.9502" y1="2.36364" x2="37.0491" y2="50.614" gradientUnits="userSpaceOnUse">
<stop stop-color="#E0E0E0"/>
<stop offset="1" stop-color="#BBBBBB"/>
</linearGradient>
<linearGradient id="paint1_linear_246_1310" x1="17.032" y1="3.15148" x2="40.6995" y2="57.2216" gradientUnits="userSpaceOnUse">
<stop stop-color="white"/>
<stop offset="1" stop-color="#8B8D8F"/>
</linearGradient>
<linearGradient id="paint2_linear_246_1310" x1="20.7382" y1="5.04264" x2="37.0087" y2="45.4547" gradientUnits="userSpaceOnUse">
<stop stop-color="#BCBCBC"/>
<stop offset="1" stop-color="#F4F4F4"/>
</linearGradient>
<linearGradient id="paint3_linear_246_1310" x1="33.3939" y1="14" x2="37.5714" y2="23.4286" gradientUnits="userSpaceOnUse">
<stop stop-color="#ECC271"/>
<stop offset="1" stop-color="#7F642E"/>
</linearGradient>
<linearGradient id="paint4_linear_246_1310" x1="19.3864" y1="24" x2="27.5339" y2="25.1238" gradientUnits="userSpaceOnUse">
<stop stop-color="#ECC271"/>
<stop offset="1" stop-color="#7F642E"/>
</linearGradient>
<linearGradient id="paint5_linear_246_1310" x1="28.4886" y1="27" x2="35.2675" y2="27.974" gradientUnits="userSpaceOnUse">
<stop stop-color="#ECC271"/>
<stop offset="1" stop-color="#7F642E"/>
</linearGradient>
<linearGradient id="paint6_linear_246_1310" x1="22.5985" y1="14" x2="23.509" y2="14.1047" gradientUnits="userSpaceOnUse">
<stop stop-color="#ECC271"/>
<stop offset="1" stop-color="#7F642E"/>
</linearGradient>
<linearGradient id="paint7_linear_246_1310" x1="22.2992" y1="19" x2="22.7545" y2="19.0523" gradientUnits="userSpaceOnUse">
<stop stop-color="#ECC271"/>
<stop offset="1" stop-color="#7F642E"/>
</linearGradient>
<linearGradient id="paint8_linear_246_1310" x1="19.2992" y1="18" x2="19.7545" y2="18.0523" gradientUnits="userSpaceOnUse">
<stop stop-color="#ECC271"/>
<stop offset="1" stop-color="#7F642E"/>
</linearGradient>
<linearGradient id="paint9_linear_246_1310" x1="14.7426" y1="14.2353" x2="17.4089" y2="14.4652" gradientUnits="userSpaceOnUse">
<stop stop-color="#ECC271"/>
<stop offset="1" stop-color="#7F642E"/>
</linearGradient>
</defs>
</svg>
