<svg width="52" height="52" viewBox="0 0 52 52" fill="none" xmlns="http://www.w3.org/2000/svg">
<path d="M5.62207 0L26.3092 6.99338L46.9964 0V42.8345L26.3092 49.3908L5.62207 42.8345V0Z" fill="#C6C6C6"/>
<path d="M46.9957 42.8345V0L26.3086 6.99338V49.3908L46.9957 42.8345Z" fill="#B1B1B1"/>
<path d="M46.9957 42.8345L49.8065 12.2353L26.3086 29.9346V49.3908L46.9957 42.8345Z" fill="#C0C0C0"/>
<path d="M5.62145 42.8345L2.81064 12.2353L26.3086 29.9346V49.3908L5.62145 42.8345Z" fill="#DDDDDD"/>
<path d="M21.5094 17.1382C22.0156 17.1382 22.4259 16.6917 22.4259 16.1408C22.4259 15.5899 22.0156 15.1433 21.5094 15.1433C21.0031 15.1433 20.5928 15.5899 20.5928 16.1408C20.5928 16.6917 21.0031 17.1382 21.5094 17.1382Z" fill="url(#paint0_linear_246_8092)"/>
<path d="M32.2027 17.1382C32.7089 17.1382 33.1193 16.6917 33.1193 16.1408C33.1193 15.5899 32.7089 15.1433 32.2027 15.1433C31.6965 15.1433 31.2861 15.5899 31.2861 16.1408C31.2861 16.6917 31.6965 17.1382 32.2027 17.1382Z" fill="url(#paint1_linear_246_8092)"/>
<path d="M26.7027 13.148C27.2089 13.148 27.6193 12.7014 27.6193 12.1505C27.6193 11.5997 27.2089 11.1531 26.7027 11.1531C26.1965 11.1531 25.7861 11.5997 25.7861 12.1505C25.7861 12.7014 26.1965 13.148 26.7027 13.148Z" fill="url(#paint2_linear_246_8092)"/>
<g clip-path="url(#clip0_246_8092)">
<path d="M42.8614 35.8325C41.4042 34.2678 39.2867 33.3268 36.5518 33.0222C38.6133 30.8919 39.7465 28.2767 39.6914 25.7034C39.6855 25.4257 39.461 25.2023 39.1833 25.1978C36.6153 25.1559 33.4511 26.2387 30.8739 28.0024C30.8741 27.9741 30.8749 27.9458 30.8749 27.9176C30.8749 24.3247 29.4049 20.9692 26.8417 18.7114C26.6465 18.5394 26.3539 18.5394 26.1586 18.7114C23.5955 20.9691 22.1253 24.3247 22.1253 27.9175C22.1253 27.9425 22.1261 27.9676 22.1262 27.9926C19.5883 26.2341 16.4282 25.1561 13.817 25.1978C13.5392 25.2023 13.3147 25.4256 13.3089 25.7033C13.2537 28.2767 14.387 30.8918 16.4484 33.0221C13.7134 33.3267 11.5958 34.2678 10.1386 35.8326C9.9538 36.031 9.9538 36.3385 10.1386 36.5369C12.1932 38.7431 15.2439 40.0084 18.5084 40.0084C19.6191 40.0084 20.6472 39.9215 21.5921 39.7497C21.5802 39.8478 21.5742 39.9456 21.5742 40.0428C21.5742 41.7856 23.3095 43.3703 26.335 44.3905C26.3886 44.4086 26.4444 44.4176 26.5001 44.4176C26.5559 44.4176 26.6117 44.4086 26.6652 44.3905C29.6907 43.3703 31.426 41.7856 31.426 40.0428C31.426 39.9457 31.4196 39.8478 31.4076 39.7495C32.3525 39.9213 33.3808 40.0083 34.4916 40.0083C37.7562 40.0083 40.8069 38.743 42.8614 36.5368C43.0462 36.3384 43.0462 36.0309 42.8614 35.8325ZM30.7951 29.3355C33.1089 27.5594 36.1792 26.3569 38.6514 26.2395C38.5363 28.6463 37.2626 31.0735 35.0992 32.9811C35.961 31.7435 36.4157 30.3694 36.385 29.0092C36.3787 28.7315 36.154 28.5085 35.8763 28.5042C34.0721 28.4761 32.4779 28.6981 30.7377 29.788C30.7597 29.6375 30.7784 29.4865 30.7951 29.3355ZM30.8057 30.9864C32.3674 29.8658 33.737 29.5647 35.3365 29.5375C35.2032 31.1409 34.2736 32.7512 32.7294 34.023C31.5412 35.0017 30.1038 35.6847 28.6046 36.0082C30.0672 34.8169 30.8749 33.3404 30.8749 31.7755C30.8749 31.5097 30.8515 31.2463 30.8057 30.9864ZM26.5001 19.8017C28.6293 21.8545 29.8415 24.7851 29.8415 27.9176C29.8415 28.2037 29.8308 28.4906 29.8098 28.7773C29.1025 27.8414 28.0594 27.0113 26.7295 26.3524C26.5849 26.2807 26.4152 26.2807 26.2707 26.3524C24.9409 27.0113 23.8978 27.8414 23.1904 28.7773C23.1694 28.4906 23.1587 28.2037 23.1587 27.9176C23.1587 24.7851 24.371 21.8545 26.5001 19.8017ZM26.5001 27.3953C28.6276 28.5148 29.8415 30.1011 29.8415 31.7756C29.8415 33.4502 28.6276 35.0363 26.5001 36.1559C24.3726 35.0363 23.1587 33.4502 23.1587 31.7756C23.1587 30.101 24.3726 28.5148 26.5001 27.3953ZM24.3966 36.009C22.8972 35.6857 21.4591 35.0017 20.2708 34.023C18.7262 32.7509 17.7966 31.14 17.6637 29.5363C19.3503 29.5574 20.6458 29.8474 22.1949 30.9844C22.1488 31.2449 22.1253 31.5089 22.1253 31.7755C22.1253 33.3408 22.9335 34.8177 24.3966 36.009ZM14.3488 26.2383C16.8883 26.3471 19.8998 27.5271 22.2049 29.3336C22.2213 29.4815 22.2396 29.6292 22.261 29.7766C20.5611 28.6873 19.0481 28.4747 17.1239 28.5043C16.8462 28.5086 16.6216 28.7316 16.6152 29.0093C16.5845 30.3695 17.0392 31.7438 17.9011 32.9813C15.7372 31.0732 14.4633 28.6455 14.3488 26.2383ZM18.5084 38.9751C15.7113 38.975 13.0939 37.9652 11.2451 36.1884C12.6802 34.8648 14.7692 34.1225 17.4706 33.9741C19.6705 35.8213 22.4182 36.9624 25.1969 37.2049C23.6 38.3801 21.3576 38.9751 18.5084 38.9751ZM26.5001 43.3546C24.0589 42.4995 22.6076 41.2679 22.6076 40.0429C22.6076 39.8649 22.6414 39.6844 22.7104 39.4958C24.2334 39.0756 25.5004 38.3978 26.5 37.4657C27.4994 38.3975 28.766 39.0752 30.2885 39.4954C30.358 39.6852 30.3926 39.8656 30.3926 40.0429C30.3926 41.2679 28.9414 42.4995 26.5001 43.3546ZM34.4916 38.9748C31.6424 38.9748 29.4001 38.3799 27.8033 37.2049C30.5819 36.9622 33.33 35.8211 35.5297 33.9739C38.2309 34.1223 40.3199 34.8647 41.7549 36.1883C39.9062 37.965 37.2887 38.9748 34.4916 38.9748Z" fill="url(#paint3_linear_246_8092)"/>
</g>
<defs>
<linearGradient id="paint0_linear_246_8092" x1="21.1413" y1="15.1433" x2="22.2417" y2="17.4255" gradientUnits="userSpaceOnUse">
<stop stop-color="#ECC271"/>
<stop offset="1" stop-color="#7F642E"/>
</linearGradient>
<linearGradient id="paint1_linear_246_8092" x1="31.8347" y1="15.1433" x2="32.9351" y2="17.4255" gradientUnits="userSpaceOnUse">
<stop stop-color="#ECC271"/>
<stop offset="1" stop-color="#7F642E"/>
</linearGradient>
<linearGradient id="paint2_linear_246_8092" x1="26.3347" y1="11.1531" x2="27.4351" y2="13.4352" gradientUnits="userSpaceOnUse">
<stop stop-color="#ECC271"/>
<stop offset="1" stop-color="#7F642E"/>
</linearGradient>
<linearGradient id="paint3_linear_246_8092" x1="19.875" y1="18.5824" x2="31.1531" y2="51.0963" gradientUnits="userSpaceOnUse">
<stop stop-color="#ECC271"/>
<stop offset="1" stop-color="#7F642E"/>
</linearGradient>
<clipPath id="clip0_246_8092">
<rect width="33" height="33" fill="white" transform="translate(10 15)"/>
</clipPath>
</defs>
</svg>
