<svg width="52" height="52" viewBox="0 0 52 52" fill="none" xmlns="http://www.w3.org/2000/svg">
<path d="M5.62207 0L26.3092 6.99338L46.9964 0V42.8345L26.3092 49.3908L5.62207 42.8345V0Z" fill="#CACACA"/>
<path d="M46.9957 42.8345V0L26.3086 6.99338V49.3908L46.9957 42.8345Z" fill="#A9A9A9"/>
<path d="M8.43262 9.18742V7.64706C8.43262 7.64706 15.4193 10.3799 23.4981 13.111V14.2143L8.43262 9.18742Z" fill="url(#paint0_linear_246_7165)"/>
<path d="M8.43262 24.4815V22.9412C8.43262 22.9412 15.4193 25.6741 23.4981 28.4051V29.5084L8.43262 24.4815Z" fill="url(#paint1_linear_246_7165)"/>
<path d="M8.43262 15.3051V13.7647C8.43262 13.7647 15.4193 16.4976 23.4981 19.2287V20.3319L8.43262 15.3051Z" fill="url(#paint2_linear_246_7165)"/>
<path d="M8.43262 30.5992V29.0588C8.43262 29.0588 15.4193 31.7917 23.4981 34.5228V35.6261L8.43262 30.5992Z" fill="url(#paint3_linear_246_7165)"/>
<path d="M8.43262 12.2462V10.7059C8.43262 10.7059 15.4193 13.4388 23.4981 16.1698V17.2731L8.43262 12.2462Z" fill="url(#paint4_linear_246_7165)"/>
<path d="M8.43262 27.5404V26C8.43262 26 15.4193 28.7329 23.4981 31.464V32.5672L8.43262 27.5404Z" fill="url(#paint5_linear_246_7165)"/>
<path d="M8.43262 18.3639V16.8235C8.43262 16.8235 15.4193 19.5564 23.4981 22.2875V23.3908L8.43262 18.3639Z" fill="url(#paint6_linear_246_7165)"/>
<path d="M8.43262 33.658V32.1177C8.43262 32.1177 15.4193 34.8505 23.4981 37.5816V38.6849L8.43262 33.658Z" fill="url(#paint7_linear_246_7165)"/>
<path d="M44.5791 9.18742V7.64706C44.5791 7.64706 37.5924 10.3799 29.5136 13.111V14.2143L44.5791 9.18742Z" fill="url(#paint8_linear_246_7165)"/>
<path d="M44.5791 24.4815V22.9412C44.5791 22.9412 37.5924 25.6741 29.5136 28.4051V29.5084L44.5791 24.4815Z" fill="url(#paint9_linear_246_7165)"/>
<path d="M44.5791 15.3051V13.7647C44.5791 13.7647 37.5924 16.4976 29.5136 19.2287V20.3319L44.5791 15.3051Z" fill="url(#paint10_linear_246_7165)"/>
<path d="M44.5791 30.5992V29.0588C44.5791 29.0588 37.5924 31.7917 29.5136 34.5228V35.6261L44.5791 30.5992Z" fill="url(#paint11_linear_246_7165)"/>
<path d="M44.5791 12.2462V10.7059C44.5791 10.7059 37.5924 13.4388 29.5136 16.1698V17.2731L44.5791 12.2462Z" fill="url(#paint12_linear_246_7165)"/>
<path d="M44.5791 27.5404V26C44.5791 26 37.5924 28.7329 29.5136 31.464V32.5672L44.5791 27.5404Z" fill="url(#paint13_linear_246_7165)"/>
<path d="M44.5791 18.3639V16.8235C44.5791 16.8235 37.5924 19.5564 29.5136 22.2875V23.3908L44.5791 18.3639Z" fill="url(#paint14_linear_246_7165)"/>
<path d="M44.5791 33.658V32.1177C44.5791 32.1177 37.5924 34.8505 29.5136 37.5816V38.6849L44.5791 33.658Z" fill="url(#paint15_linear_246_7165)"/>
<path d="M44.5791 30.5992V29.0588C44.5791 29.0588 37.5924 31.7917 29.5136 34.5228V35.6261L44.5791 30.5992Z" fill="url(#paint16_linear_246_7165)"/>
<path d="M44.5791 27.5404V26C44.5791 26 37.5924 28.7329 29.5136 31.464V32.5672L44.5791 27.5404Z" fill="url(#paint17_linear_246_7165)"/>
<path d="M44.5791 33.658V32.1176C44.5791 32.1176 37.5924 34.8505 29.5136 37.5816V38.6849L44.5791 33.658Z" fill="url(#paint18_linear_246_7165)"/>
<path d="M8 30.5992V29.0588C8 29.0588 14.9867 31.7917 23.0655 34.5228V35.6261L8 30.5992Z" fill="url(#paint19_linear_246_7165)"/>
<path d="M8 27.5404V26C8 26 14.9867 28.7329 23.0655 31.464V32.5672L8 27.5404Z" fill="url(#paint20_linear_246_7165)"/>
<path d="M8 33.658V32.1176C8 32.1176 14.9867 34.8505 23.0655 37.5816V38.6849L8 33.658Z" fill="url(#paint21_linear_246_7165)"/>
<path d="M46.9957 42.8345L49.8065 18.3529L26.3086 46.7581V49.3908L46.9957 42.8345Z" fill="#787A7C"/>
<path d="M5.62145 42.8345L2.81064 18.3529L26.3086 46.7581V49.3908L5.62145 42.8345Z" fill="#9F9F9F"/>
<path d="M46.9957 42.8345L49.8065 29.0588L26.3086 46.7581V49.3908L46.9957 42.8345Z" fill="#8D8D8D"/>
<path d="M5.62145 42.8345L2.81064 29.0588L26.3086 46.7581V49.3908L5.62145 42.8345Z" fill="#24303D"/>
<path d="M5.62145 42.8345L2.81064 29.0588L26.3086 46.7581V49.3908L5.62145 42.8345Z" fill="#AEAEAE"/>
<path d="M46.9957 42.8345L49.8065 35.1765L26.3086 46.7581V49.3908L46.9957 42.8345Z" fill="#ABAEB0"/>
<path d="M5.62145 42.8345L2.81064 35.1765L26.3086 46.7581V49.3908L5.62145 42.8345Z" fill="#CCCCCC"/>
<path d="M16.9079 24.9999C15.6617 24.9999 14.3021 24.4661 13.2825 23.6358C12.3761 22.8054 11.2432 21.382 11.2432 18.8909C11.2432 14.7984 14.4721 12.9598 16.5681 12.7818C19.1172 12.5446 22.5727 14.7984 26.1982 17.4081C29.767 14.917 33.1092 12.6632 35.6584 12.7818C37.6977 12.9005 40.7567 14.6205 40.7567 18.8909C40.7567 23.0427 37.7543 24.822 35.7717 24.9999C35.6584 24.9999 35.5451 24.9999 35.4318 24.9999C32.9393 24.9999 29.6537 22.8054 26.1982 20.3737C22.6294 22.8054 19.4571 24.9999 16.9079 24.9999ZM16.9079 15.2729C16.8513 15.2729 16.7947 15.2729 16.738 15.2729C15.8883 15.3322 12.6224 16.1626 12.6224 18.8909C12.6224 21.8564 15.7183 22.3902 16.9646 22.5089C18.6074 22.6868 22.5637 20.7295 25.2828 18.8909C22.4504 17.0522 18.6074 15.2729 16.9079 15.2729ZM27.1136 18.8909C29.8894 20.8482 33.9589 22.6275 35.5451 22.5089C36.5081 22.4496 39.3775 21.5599 39.3775 18.8909C39.3775 16.1626 36.5081 15.3322 35.4884 15.2729C33.8456 15.1543 29.8327 16.9929 27.1136 18.8909Z" fill="url(#paint22_linear_246_7165)"/>
<defs>
<linearGradient id="paint0_linear_246_7165" x1="13.1546" y1="30.5882" x2="13.1546" y2="79.979" gradientUnits="userSpaceOnUse">
<stop stop-color="#B5B5B5"/>
<stop offset="1" stop-color="#ADADAD"/>
</linearGradient>
<linearGradient id="paint1_linear_246_7165" x1="13.1546" y1="30.5882" x2="13.1546" y2="79.979" gradientUnits="userSpaceOnUse">
<stop stop-color="#B5B5B5"/>
<stop offset="1" stop-color="#ADADAD"/>
</linearGradient>
<linearGradient id="paint2_linear_246_7165" x1="13.1546" y1="30.5882" x2="13.1546" y2="79.979" gradientUnits="userSpaceOnUse">
<stop stop-color="#B5B5B5"/>
<stop offset="1" stop-color="#ADADAD"/>
</linearGradient>
<linearGradient id="paint3_linear_246_7165" x1="13.1546" y1="30.5882" x2="13.1546" y2="79.979" gradientUnits="userSpaceOnUse">
<stop stop-color="#B5B5B5"/>
<stop offset="1" stop-color="#ADADAD"/>
</linearGradient>
<linearGradient id="paint4_linear_246_7165" x1="13.1546" y1="30.5882" x2="13.1546" y2="79.979" gradientUnits="userSpaceOnUse">
<stop stop-color="#B5B5B5"/>
<stop offset="1" stop-color="#ADADAD"/>
</linearGradient>
<linearGradient id="paint5_linear_246_7165" x1="13.1546" y1="30.5882" x2="13.1546" y2="79.979" gradientUnits="userSpaceOnUse">
<stop stop-color="#B5B5B5"/>
<stop offset="1" stop-color="#ADADAD"/>
</linearGradient>
<linearGradient id="paint6_linear_246_7165" x1="13.1546" y1="30.5882" x2="13.1546" y2="79.979" gradientUnits="userSpaceOnUse">
<stop stop-color="#B5B5B5"/>
<stop offset="1" stop-color="#ADADAD"/>
</linearGradient>
<linearGradient id="paint7_linear_246_7165" x1="13.1546" y1="30.5882" x2="13.1546" y2="79.979" gradientUnits="userSpaceOnUse">
<stop stop-color="#B5B5B5"/>
<stop offset="1" stop-color="#ADADAD"/>
</linearGradient>
<linearGradient id="paint8_linear_246_7165" x1="34.4325" y1="9.17648" x2="36.9273" y2="46.6213" gradientUnits="userSpaceOnUse">
<stop stop-color="#B3B3B3"/>
<stop offset="1" stop-color="#636363"/>
</linearGradient>
<linearGradient id="paint9_linear_246_7165" x1="34.4325" y1="9.17648" x2="36.9273" y2="46.6213" gradientUnits="userSpaceOnUse">
<stop stop-color="#B3B3B3"/>
<stop offset="1" stop-color="#636363"/>
</linearGradient>
<linearGradient id="paint10_linear_246_7165" x1="34.4325" y1="9.17648" x2="36.9273" y2="46.6213" gradientUnits="userSpaceOnUse">
<stop stop-color="#B3B3B3"/>
<stop offset="1" stop-color="#636363"/>
</linearGradient>
<linearGradient id="paint11_linear_246_7165" x1="34.4325" y1="9.17648" x2="36.9273" y2="46.6213" gradientUnits="userSpaceOnUse">
<stop stop-color="#B3B3B3"/>
<stop offset="1" stop-color="#636363"/>
</linearGradient>
<linearGradient id="paint12_linear_246_7165" x1="34.4325" y1="9.17648" x2="36.9273" y2="46.6213" gradientUnits="userSpaceOnUse">
<stop stop-color="#B3B3B3"/>
<stop offset="1" stop-color="#636363"/>
</linearGradient>
<linearGradient id="paint13_linear_246_7165" x1="34.4325" y1="9.17648" x2="36.9273" y2="46.6213" gradientUnits="userSpaceOnUse">
<stop stop-color="#B3B3B3"/>
<stop offset="1" stop-color="#636363"/>
</linearGradient>
<linearGradient id="paint14_linear_246_7165" x1="34.4325" y1="9.17648" x2="36.9273" y2="46.6213" gradientUnits="userSpaceOnUse">
<stop stop-color="#B3B3B3"/>
<stop offset="1" stop-color="#636363"/>
</linearGradient>
<linearGradient id="paint15_linear_246_7165" x1="34.4325" y1="9.17648" x2="36.9273" y2="46.6213" gradientUnits="userSpaceOnUse">
<stop stop-color="#B3B3B3"/>
<stop offset="1" stop-color="#636363"/>
</linearGradient>
<linearGradient id="paint16_linear_246_7165" x1="40.0709" y1="26" x2="34.2139" y2="41.6999" gradientUnits="userSpaceOnUse">
<stop stop-color="#ECC271"/>
<stop offset="1" stop-color="#7F642E"/>
</linearGradient>
<linearGradient id="paint17_linear_246_7165" x1="40.0709" y1="26" x2="34.2139" y2="41.6999" gradientUnits="userSpaceOnUse">
<stop stop-color="#ECC271"/>
<stop offset="1" stop-color="#7F642E"/>
</linearGradient>
<linearGradient id="paint18_linear_246_7165" x1="40.0709" y1="26" x2="34.2139" y2="41.6999" gradientUnits="userSpaceOnUse">
<stop stop-color="#ECC271"/>
<stop offset="1" stop-color="#7F642E"/>
</linearGradient>
<linearGradient id="paint19_linear_246_7165" x1="12.5082" y1="26" x2="18.3652" y2="41.6999" gradientUnits="userSpaceOnUse">
<stop stop-color="#ECC271"/>
<stop offset="1" stop-color="#7F642E"/>
</linearGradient>
<linearGradient id="paint20_linear_246_7165" x1="12.5082" y1="26" x2="18.3652" y2="41.6999" gradientUnits="userSpaceOnUse">
<stop stop-color="#ECC271"/>
<stop offset="1" stop-color="#7F642E"/>
</linearGradient>
<linearGradient id="paint21_linear_246_7165" x1="12.5082" y1="26" x2="18.3652" y2="41.6999" gradientUnits="userSpaceOnUse">
<stop stop-color="#ECC271"/>
<stop offset="1" stop-color="#7F642E"/>
</linearGradient>
<linearGradient id="paint22_linear_246_7165" x1="20.0749" y1="12.7646" x2="23.1401" y2="29.4526" gradientUnits="userSpaceOnUse">
<stop stop-color="#ECC271"/>
<stop offset="1" stop-color="#7F642E"/>
</linearGradient>
</defs>
</svg>
