<svg width="50" height="54" viewBox="0 0 50 54" fill="none" xmlns="http://www.w3.org/2000/svg">
<path d="M43.9395 5.94391L50.0001 8.75596V46.7186L43.9395 43.9066V5.94391Z" fill="#757D86"/>
<path d="M0 5.94391L21.9697 12.3359L43.9394 5.94391V45.0948L21.9697 51.0873L0 45.0948V5.94391Z" fill="#9A9FA5"/>
<path d="M6.06055 8.85651L28.0302 15.2485L49.9999 8.85651V46.5512L28.0302 53.9999L6.06055 48.0074V8.85651Z" fill="url(#paint0_linear_246_16100)"/>
<path d="M9.09082 11.7689L19.6969 14.6814V51.0874L9.09082 48.1749V11.7689Z" fill="#919AA4"/>
<path d="M39.3936 13.2253L48.4845 10.3129V45.9907L39.3936 48.9032V13.2253Z" fill="#9CA3AA"/>
<path d="M39.3937 13.2253L48.4846 10.3129L34.8482 42.3501H24.2422L39.3937 13.2253Z" fill="#B2B7BC"/>
<path d="M19.6971 14.6814L9.09106 11.7689L24.2426 42.35H34.8486L19.6971 14.6814Z" fill="#E8EBED"/>
<path d="M0 5.94391L6.06061 8.85639V48.1749L0 45.2624V5.94391Z" fill="#B3B3B3"/>
<path fill-rule="evenodd" clip-rule="evenodd" d="M13 17.7027C13 17.075 13.214 16.4973 13.573 16.0385L13.9039 15.8751L14.0361 15.5748C14.4953 15.2147 15.0739 15 15.7027 15L16.2973 15C16.9326 15 17.5168 15.2192 17.9782 15.5862L18.1073 15.8738L18.3812 15.9815C18.7677 16.449 19 17.0487 19 17.7027L19 18.2973C19 18.9495 18.769 19.5478 18.3842 20.0148L18.0543 20.1628L17.9455 20.4394C17.4894 20.7909 16.9177 21 16.2973 21L15.7027 21C15.1071 21 14.5565 20.8073 14.1098 20.4809L13.9633 20.1843L13.6375 20.0408C13.2398 19.5702 13 18.9617 13 18.2973L13 17.7027Z" fill="url(#paint1_linear_246_16100)"/>
<circle cx="15.9921" cy="17.9753" r="2.40327" fill="url(#paint2_radial_246_16100)"/>
<path fill-rule="evenodd" clip-rule="evenodd" d="M40 15.7026C40 15.0749 40.214 14.4972 40.573 14.0384L40.9039 13.875L41.0361 13.5748C41.4953 13.2147 42.0739 12.9999 42.7027 12.9999L43.2973 12.9999C43.9326 12.9999 44.5168 13.2192 44.9782 13.5861L45.1073 13.8737L45.3812 13.9814C45.7677 14.4489 46 15.0487 46 15.7026L46 16.2972C46 16.9495 45.769 17.5478 45.3842 18.0147L45.0543 18.1627L44.9455 18.4393C44.4894 18.7909 43.9177 18.9999 43.2973 18.9999L42.7027 18.9999C42.1071 18.9999 41.5565 18.8073 41.1098 18.4809L40.9633 18.1843L40.6375 18.0408C40.2398 17.5701 40 16.9617 40 16.2972L40 15.7026Z" fill="url(#paint3_linear_246_16100)"/>
<circle cx="42.9921" cy="15.9752" r="2.40327" fill="url(#paint4_radial_246_16100)"/>
<path fill-rule="evenodd" clip-rule="evenodd" d="M30.5962 0.848625L27.1352 1.01924C27.2199 1.01354 27.3048 1.00859 27.39 1.0044L30.3398 0.858955C30.4254 0.854734 30.5109 0.851292 30.5962 0.848625ZM42.6412 15.1541L44.5324 15.0609L44.5772 15.9104C44.7413 19.0185 43.7455 21.926 41.9543 24.2452L40.3548 25.0313L39.8847 26.376C37.7099 28.1627 34.9266 29.2988 31.8485 29.4506L28.8987 29.596C25.9438 29.7417 23.1638 28.9583 20.8656 27.5122L20.0644 26.1347L18.4119 25.5305C16.3204 23.385 14.9778 20.5443 14.8108 17.378L14.7659 16.5283L16.5854 16.4386C16.5675 16.8106 16.5682 17.1865 16.5882 17.5656C16.9389 24.1983 23.0838 28.2866 30.3102 27.9308C37.5366 27.5751 43.1081 22.9099 42.7574 16.2772C42.7374 15.8976 42.6983 15.5229 42.6412 15.1541Z" fill="url(#paint5_linear_246_16100)"/>
<defs>
<linearGradient id="paint0_linear_246_16100" x1="28.0302" y1="8.85651" x2="39.7157" y2="54.1054" gradientUnits="userSpaceOnUse">
<stop stop-color="#CCCCCC"/>
<stop offset="1" stop-color="#C5D1DA"/>
</linearGradient>
<linearGradient id="paint1_linear_246_16100" x1="14.7955" y1="15" x2="17.5269" y2="15.314" gradientUnits="userSpaceOnUse">
<stop stop-color="#ECC271"/>
<stop offset="1" stop-color="#7F642E"/>
</linearGradient>
<radialGradient id="paint2_radial_246_16100" cx="0" cy="0" r="1" gradientUnits="userSpaceOnUse" gradientTransform="translate(15.9921 17.9753) rotate(90) scale(3.08899)">
<stop stop-color="#9DADB9"/>
<stop offset="1" stop-color="#807B7B"/>
</radialGradient>
<linearGradient id="paint3_linear_246_16100" x1="41.7955" y1="12.9999" x2="44.5269" y2="13.3139" gradientUnits="userSpaceOnUse">
<stop stop-color="#ECC271"/>
<stop offset="1" stop-color="#7F642E"/>
</linearGradient>
<radialGradient id="paint4_radial_246_16100" cx="0" cy="0" r="1" gradientUnits="userSpaceOnUse" gradientTransform="translate(42.9921 15.9752) rotate(90) scale(3.08899)">
<stop stop-color="#9DADB9"/>
<stop offset="1" stop-color="#807B7B"/>
</radialGradient>
<linearGradient id="paint5_linear_246_16100" x1="22.886" y1="1.2251" x2="39.135" y2="34.6834" gradientUnits="userSpaceOnUse">
<stop stop-color="#ECC271"/>
<stop offset="1" stop-color="#7F642E"/>
</linearGradient>
</defs>
</svg>
