<svg width="50" height="50" viewBox="0 0 50 50" fill="none" xmlns="http://www.w3.org/2000/svg">
<path d="M0 4.55969L22.0272 10.9937L44.0545 4.55969V43.9682L22.0272 50.0001L0 43.9682V4.55969Z" fill="#C3CAD2"/>
<path d="M44.0546 43.968V4.55957L22.0273 10.9936V49.9999L44.0546 43.968Z" fill="#ABAEB1"/>
<path d="M3.03809 7.49097L12.1528 10.314V45.6022L3.03809 42.7792V7.49097Z" fill="#9CA3AA"/>
<path d="M31.9014 9.01234L42.5352 6.02539V42.6155L31.9014 45.6025V9.01234Z" fill="#919AA4"/>
<path d="M33.8005 8.69052L44.0545 6.02539L28.6734 35.3418H18.2295L33.8005 8.69052Z" fill="#B2B7BC"/>
<path d="M13.0461 10.1434L3.03782 7.49097L17.3354 35.3415H27.3438L13.0461 10.1434Z" fill="#E8EBED"/>
<path d="M26.5929 25.5873L22.2421 27.3516L23.7172 23.5628L23.832 23.2681L23.6148 23.0381C21.7102 21.0214 20.5713 18.4256 20.5713 15.5991V12.945C20.5713 10.3119 21.5595 7.87963 23.234 5.92882L24.7821 5.24471L24.9484 5.17125L25.0286 5.00819L25.6312 3.78402C27.82 2.27965 30.566 1.38135 33.5528 1.38135H36.5187C39.5386 1.38135 42.3122 2.29963 44.5127 3.83413L45.1002 5.0057L45.1907 5.1862L45.3811 5.25323L46.6291 5.69237C48.4298 7.68146 49.5002 10.2047 49.5002 12.9451V15.5991C49.5002 18.3357 48.4327 20.8558 46.6364 22.8437L45.0967 23.4619L44.9074 23.5379L44.8253 23.7247L44.3404 24.8281C42.1682 26.2915 39.4602 27.1628 36.5187 27.1628H33.5528C32.0681 27.1628 30.9788 27.1229 29.9918 26.9139C29.0185 26.7078 28.1252 26.3323 27.0544 25.6321L26.8354 25.4889L26.5929 25.5873Z" fill="url(#paint0_radial_246_7802)" stroke="url(#paint1_linear_246_7802)"/>
<path d="M29.5 16.168C29.084 16.168 28.724 16.024 28.42 15.736C28.132 15.432 27.988 15.072 27.988 14.656C27.988 14.24 28.132 13.888 28.42 13.6C28.724 13.296 29.084 13.144 29.5 13.144C29.916 13.144 30.268 13.296 30.556 13.6C30.86 13.888 31.012 14.24 31.012 14.656C31.012 15.072 30.86 15.432 30.556 15.736C30.268 16.024 29.916 16.168 29.5 16.168ZM35.5 16.168C35.084 16.168 34.724 16.024 34.42 15.736C34.132 15.432 33.988 15.072 33.988 14.656C33.988 14.24 34.132 13.888 34.42 13.6C34.724 13.296 35.084 13.144 35.5 13.144C35.916 13.144 36.268 13.296 36.556 13.6C36.86 13.888 37.012 14.24 37.012 14.656C37.012 15.072 36.86 15.432 36.556 15.736C36.268 16.024 35.916 16.168 35.5 16.168ZM41.5 16.168C41.084 16.168 40.724 16.024 40.42 15.736C40.132 15.432 39.988 15.072 39.988 14.656C39.988 14.24 40.132 13.888 40.42 13.6C40.724 13.296 41.084 13.144 41.5 13.144C41.916 13.144 42.268 13.296 42.556 13.6C42.86 13.888 43.012 14.24 43.012 14.656C43.012 15.072 42.86 15.432 42.556 15.736C42.268 16.024 41.916 16.168 41.5 16.168Z" fill="url(#paint2_linear_246_7802)"/>
<defs>
<radialGradient id="paint0_radial_246_7802" cx="0" cy="0" r="1" gradientUnits="userSpaceOnUse" gradientTransform="translate(35.0358 14.566) rotate(90) scale(17.5892 19.2342)">
<stop stop-color="white"/>
<stop offset="1" stop-color="#C1BABA"/>
</radialGradient>
<linearGradient id="paint1_linear_246_7802" x1="29.0273" y1="0.881322" x2="42.4577" y2="34.0286" gradientUnits="userSpaceOnUse">
<stop stop-color="#ECC271"/>
<stop offset="1" stop-color="#7F642E"/>
</linearGradient>
<linearGradient id="paint2_linear_246_7802" x1="30.8826" y1="-1.31964e-05" x2="41.2899" y2="1.44807" gradientUnits="userSpaceOnUse">
<stop stop-color="#ECC271"/>
<stop offset="1" stop-color="#7F642E"/>
</linearGradient>
</defs>
</svg>
