<svg width="52" height="52" viewBox="0 0 52 52" fill="none" xmlns="http://www.w3.org/2000/svg">
<path fill-rule="evenodd" clip-rule="evenodd" d="M0 23.4234C0 17.9833 1.85456 12.9764 4.96593 9.00031L7.83373 7.58411L8.97996 4.98188C12.9593 1.86089 17.974 0 23.4234 0H28.5766C34.0829 0 39.1454 1.89997 43.1444 5.08008L44.2629 7.57286L46.6367 8.50636C49.9869 12.5579 52 17.7556 52 23.4234V28.5766C52 34.2294 49.9976 39.4145 46.6634 43.4612L43.8041 44.7443L42.8614 47.1414C38.9078 50.1881 33.9538 52 28.5766 52H23.4234C18.2615 52 13.4895 50.3302 9.61821 47.5014L8.34887 44.931L5.52508 43.6872C2.07801 39.6083 0 34.3351 0 28.5766V23.4234Z" fill="url(#paint0_linear_246_423)"/>
<ellipse cx="26" cy="25.9996" rx="23.1386" ry="23.1386" fill="url(#paint1_linear_246_423)"/>
<ellipse cx="25.9998" cy="26.0001" rx="19.9471" ry="19.9471" fill="url(#paint2_linear_246_423)"/>
<path d="M38.9812 26.6441C38.9812 33.7313 33.3072 39.4662 26.3207 39.4662C19.3342 39.4662 13.6602 33.7313 13.6602 26.6441C13.6602 19.5568 19.3342 13.822 26.3207 13.822C33.3072 13.822 38.9812 19.5568 38.9812 26.6441Z" fill="url(#paint3_linear_246_423)" stroke="url(#paint4_linear_246_423)"/>
<path d="M31.316 20.3054C30.3764 19.5509 29.2228 19.0421 27.98 18.834C26.8632 18.6474 25.6957 18.7092 24.5739 19.0115L23.9574 17.1216L23.0246 17.4334L23.641 19.3233C22.5619 19.7566 21.5877 20.4108 20.8002 21.2339C19.9242 22.1502 19.2967 23.2543 18.9857 24.4268C18.9655 24.5034 18.9463 24.5799 18.9289 24.6566C19.0961 24.6161 19.2791 24.5672 19.4734 24.5074C19.6564 24.4512 19.8491 24.3853 20.0481 24.3094C20.9256 23.9728 21.9189 23.4275 22.6862 22.5521L23.3096 21.8403L23.5311 22.7647C23.5389 22.797 24.325 25.9462 26.4017 26.2009C27.9206 24.7444 26.6991 21.7407 26.6862 21.7097L26.3233 20.8351L27.24 21.03C28.3718 21.2709 29.4907 21.1099 30.3937 20.8514C30.5981 20.7928 30.7918 20.7291 30.9716 20.6641C31.1629 20.595 31.3387 20.524 31.4968 20.4558C31.4377 20.4047 31.3773 20.3547 31.316 20.3054Z" fill="url(#paint5_linear_246_423)"/>
<defs>
<linearGradient id="paint0_linear_246_423" x1="15.6275" y1="2.06367" x2="37.1703" y2="50.7346" gradientUnits="userSpaceOnUse">
<stop stop-color="#E0E0E0"/>
<stop offset="1" stop-color="#BBBBBB"/>
</linearGradient>
<linearGradient id="paint1_linear_246_423" x1="16.7094" y1="2.86098" x2="40.8748" y2="57.4021" gradientUnits="userSpaceOnUse">
<stop stop-color="white"/>
<stop offset="1" stop-color="#8B8D8F"/>
</linearGradient>
<linearGradient id="paint2_linear_246_423" x1="20.9082" y1="5.3415" x2="37.1702" y2="45.1493" gradientUnits="userSpaceOnUse">
<stop stop-color="#BCBCBC"/>
<stop offset="1" stop-color="#F4F4F4"/>
</linearGradient>
<linearGradient id="paint3_linear_246_423" x1="26.3207" y1="13.322" x2="26.3207" y2="39.9662" gradientUnits="userSpaceOnUse">
<stop stop-color="#CCCCCC"/>
<stop offset="0.494" stop-color="#F7F7F7"/>
<stop offset="0.999" stop-color="#CECECE"/>
</linearGradient>
<linearGradient id="paint4_linear_246_423" x1="21.0365" y1="13.3219" x2="35.0637" y2="44.5972" gradientUnits="userSpaceOnUse">
<stop stop-color="#ECC271"/>
<stop offset="1" stop-color="#7F642E"/>
</linearGradient>
<linearGradient id="paint5_linear_246_423" x1="20.9679" y1="18.1209" x2="28.3505" y2="28.3316" gradientUnits="userSpaceOnUse">
<stop stop-color="#ECC271"/>
<stop offset="1" stop-color="#7F642E"/>
</linearGradient>
</defs>
</svg>
