<svg width="49" height="49" viewBox="0 0 49 49" fill="none" xmlns="http://www.w3.org/2000/svg">
<path d="M22.2252 40.7611V0L0 6.65487V47L22.2252 40.7611Z" fill="url(#paint0_linear_246_5179)"/>
<path d="M19.6289 10.198V8.73218C19.6289 8.73218 12.1228 11.3328 3.44326 13.9317V14.9815L19.6289 10.198Z" fill="url(#paint1_linear_246_5179)"/>
<path d="M19.6289 24.7518V23.286C19.6289 23.286 12.1228 25.8866 3.44326 28.4855V29.5353L19.6289 24.7518Z" fill="url(#paint2_linear_246_5179)"/>
<path d="M19.6289 16.0195V14.5537C19.6289 14.5537 12.1228 17.1543 3.44326 19.7532V20.803L19.6289 16.0195Z" fill="url(#paint3_linear_246_5179)"/>
<path d="M19.6289 30.5733V29.1075C19.6289 29.1075 12.1228 31.7081 3.44326 34.307V35.3568L19.6289 30.5733Z" fill="url(#paint4_linear_246_5179)"/>
<path d="M19.6289 13.1087V11.6429C19.6289 11.6429 12.1228 14.2435 3.44326 16.8424V17.8923L19.6289 13.1087Z" fill="url(#paint5_linear_246_5179)"/>
<path d="M19.6289 27.6625V26.1967C19.6289 26.1967 12.1228 28.7973 3.44326 31.3962V32.4461L19.6289 27.6625Z" fill="url(#paint6_linear_246_5179)"/>
<path d="M19.6289 18.9302V17.4645C19.6289 17.4645 12.1228 20.065 3.44326 22.6639V23.7138L19.6289 18.9302Z" fill="url(#paint7_linear_246_5179)"/>
<path d="M19.6289 33.4841V32.0183C19.6289 32.0183 12.1228 34.6189 3.44326 37.2177V38.2676L19.6289 33.4841Z" fill="url(#paint8_linear_246_5179)"/>
<path d="M19.6289 10.198V8.73218C19.6289 8.73218 12.1228 11.3328 3.44326 13.9317V14.9815L19.6289 10.198Z" fill="url(#paint9_linear_246_5179)"/>
<path d="M19.6289 16.0195V14.5537C19.6289 14.5537 12.1228 17.1543 3.44326 19.7532V20.803L19.6289 16.0195Z" fill="url(#paint10_linear_246_5179)"/>
<path d="M19.6289 13.1087V11.6429C19.6289 11.6429 12.1228 14.2435 3.44326 16.8424V17.8923L19.6289 13.1087Z" fill="url(#paint11_linear_246_5179)"/>
<path d="M19.6289 18.9302V17.4645C19.6289 17.4645 12.1228 20.065 3.44326 22.6639V23.7138L19.6289 18.9302Z" fill="url(#paint12_linear_246_5179)"/>
<path d="M31.4508 41.7611V1L9.22559 7.65487V48L31.4508 41.7611Z" fill="url(#paint13_linear_246_5179)"/>
<path d="M28.8545 11.198V9.73218C28.8545 9.73218 21.3483 12.3328 12.6688 14.9317V15.9815L28.8545 11.198Z" fill="url(#paint14_linear_246_5179)"/>
<path d="M28.8545 25.7518V24.286C28.8545 24.286 21.3483 26.8866 12.6688 29.4855V30.5353L28.8545 25.7518Z" fill="url(#paint15_linear_246_5179)"/>
<path d="M28.8545 17.0195V15.5537C28.8545 15.5537 21.3483 18.1543 12.6688 20.7532V21.803L28.8545 17.0195Z" fill="url(#paint16_linear_246_5179)"/>
<path d="M28.8545 31.5733V30.1075C28.8545 30.1075 21.3483 32.7081 12.6688 35.307V36.3568L28.8545 31.5733Z" fill="url(#paint17_linear_246_5179)"/>
<path d="M28.8545 14.1087V12.6429C28.8545 12.6429 21.3483 15.2435 12.6688 17.8424V18.8923L28.8545 14.1087Z" fill="url(#paint18_linear_246_5179)"/>
<path d="M28.8545 28.6625V27.1967C28.8545 27.1967 21.3483 29.7973 12.6688 32.3962V33.4461L28.8545 28.6625Z" fill="url(#paint19_linear_246_5179)"/>
<path d="M28.8545 19.9302V18.4645C28.8545 18.4645 21.3483 21.065 12.6688 23.6639V24.7138L28.8545 19.9302Z" fill="url(#paint20_linear_246_5179)"/>
<path d="M28.8545 34.4841V33.0183C28.8545 33.0183 21.3483 35.6189 12.6688 38.2177V39.2676L28.8545 34.4841Z" fill="url(#paint21_linear_246_5179)"/>
<path d="M28.8545 25.7518V24.286C28.8545 24.286 21.3483 26.8866 12.6688 29.4855V30.5353L28.8545 25.7518Z" fill="url(#paint22_linear_246_5179)"/>
<path d="M28.8545 31.5733V30.1075C28.8545 30.1075 21.3483 32.7081 12.6688 35.307V36.3568L28.8545 31.5733Z" fill="url(#paint23_linear_246_5179)"/>
<path d="M28.8545 28.6625V27.1967C28.8545 27.1967 21.3483 29.7973 12.6688 32.3962V33.4461L28.8545 28.6625Z" fill="url(#paint24_linear_246_5179)"/>
<path d="M28.8545 34.4841V33.0183C28.8545 33.0183 21.3483 35.6189 12.6688 38.2177V39.2676L28.8545 34.4841Z" fill="url(#paint25_linear_246_5179)"/>
<path d="M40.4508 42.7611V2L18.2256 8.65487V49L40.4508 42.7611Z" fill="url(#paint26_linear_246_5179)"/>
<path d="M37.8545 12.198V10.7322C37.8545 10.7322 30.3483 13.3328 21.6688 15.9317V16.9815L37.8545 12.198Z" fill="url(#paint27_linear_246_5179)"/>
<path d="M37.8545 26.7518V25.286C37.8545 25.286 30.3483 27.8866 21.6688 30.4855V31.5353L37.8545 26.7518Z" fill="url(#paint28_linear_246_5179)"/>
<path d="M37.8545 18.0195V16.5537C37.8545 16.5537 30.3483 19.1543 21.6688 21.7532V22.803L37.8545 18.0195Z" fill="url(#paint29_linear_246_5179)"/>
<path d="M37.8545 32.5733V31.1075C37.8545 31.1075 30.3483 33.7081 21.6688 36.307V37.3568L37.8545 32.5733Z" fill="url(#paint30_linear_246_5179)"/>
<path d="M37.8545 15.1087V13.6429C37.8545 13.6429 30.3483 16.2435 21.6688 18.8424V19.8923L37.8545 15.1087Z" fill="url(#paint31_linear_246_5179)"/>
<path d="M37.8545 29.6625V28.1967C37.8545 28.1967 30.3483 30.7973 21.6688 33.3962V34.4461L37.8545 29.6625Z" fill="url(#paint32_linear_246_5179)"/>
<path d="M37.8545 20.9302V19.4645C37.8545 19.4645 30.3483 22.065 21.6688 24.6639V25.7138L37.8545 20.9302Z" fill="url(#paint33_linear_246_5179)"/>
<path d="M37.8545 35.4841V34.0183C37.8545 34.0183 30.3483 36.6189 21.6688 39.2177V40.2676L37.8545 35.4841Z" fill="url(#paint34_linear_246_5179)"/>
<path d="M37.8545 12.198V10.7322C37.8545 10.7322 30.3483 13.3328 21.6688 15.9317V16.9815L37.8545 12.198Z" fill="url(#paint35_linear_246_5179)"/>
<path d="M37.8545 18.0195V16.5537C37.8545 16.5537 30.3483 19.1543 21.6688 21.7532V22.803L37.8545 18.0195Z" fill="url(#paint36_linear_246_5179)"/>
<path d="M37.8545 15.1087V13.6429C37.8545 13.6429 30.3483 16.2435 21.6688 18.8424V19.8923L37.8545 15.1087Z" fill="url(#paint37_linear_246_5179)"/>
<path d="M37.8545 20.9302V19.4645C37.8545 19.4645 30.3483 22.065 21.6688 24.6639V25.7138L37.8545 20.9302Z" fill="url(#paint38_linear_246_5179)"/>
<path d="M45.3144 41.5477L47.3835 41.6055L47.3867 43.7158L38.3514 43.4631C37.041 43.4265 35.9496 43.0052 35.2128 42.2812C34.4761 41.5572 34.0939 40.5305 34.1353 39.203C34.1694 38.1098 34.4721 37.2585 35.1172 36.495C35.7623 35.7315 36.5356 35.2842 37.5061 35.155L34.0552 28.4935L36.2623 28.5552L39.7846 35.1406L41.0958 37.3656L38.4749 37.2923C37.7852 37.273 37.2285 37.4138 36.8025 37.7926C36.3765 38.1715 36.224 38.6362 36.2045 39.2609C36.185 39.8856 36.3748 40.438 36.71 40.7599C37.0451 41.0819 37.5895 41.3316 38.3482 41.3529L45.3144 41.5477L45.4483 37.2529L45.3144 41.5477Z" fill="url(#paint39_linear_246_5179)"/>
<path d="M34.7617 34.2563L32.6936 34.1699L32.7148 32.0596L41.7455 32.4367C43.0553 32.4914 44.1416 32.9277 44.8698 33.6619C45.5981 34.3961 45.9683 35.4281 45.9115 36.755C45.8647 37.8478 45.5522 38.6949 44.8984 39.4495C44.2446 40.2042 43.4662 40.6408 42.4944 40.7566L45.8675 47.4659L43.6615 47.3738L40.2162 40.7397L38.931 38.4966L41.5506 38.606C42.2399 38.6348 42.7981 38.5017 43.2284 38.1287C43.6588 37.7557 43.8167 37.2931 43.8434 36.6686C43.8701 36.0442 43.6867 35.4892 43.3554 35.1626C43.024 34.8359 42.4826 34.5787 41.7243 34.5471L34.7617 34.2563L34.578 38.5494L34.7617 34.2563Z" fill="url(#paint40_linear_246_5179)"/>
<defs>
<linearGradient id="paint0_linear_246_5179" x1="11.1126" y1="0" x2="11.1126" y2="47" gradientUnits="userSpaceOnUse">
<stop stop-color="#8F8F8F"/>
<stop offset="1" stop-color="#B0B0B0"/>
</linearGradient>
<linearGradient id="paint1_linear_246_5179" x1="8.7279" y1="10.1876" x2="10.8327" y2="45.8538" gradientUnits="userSpaceOnUse">
<stop stop-color="#B6B6B6"/>
<stop offset="1" stop-color="#919191"/>
</linearGradient>
<linearGradient id="paint2_linear_246_5179" x1="8.7279" y1="10.1876" x2="10.8327" y2="45.8538" gradientUnits="userSpaceOnUse">
<stop stop-color="#B6B6B6"/>
<stop offset="1" stop-color="#919191"/>
</linearGradient>
<linearGradient id="paint3_linear_246_5179" x1="8.7279" y1="10.1876" x2="10.8327" y2="45.8538" gradientUnits="userSpaceOnUse">
<stop stop-color="#B6B6B6"/>
<stop offset="1" stop-color="#919191"/>
</linearGradient>
<linearGradient id="paint4_linear_246_5179" x1="8.7279" y1="10.1876" x2="10.8327" y2="45.8538" gradientUnits="userSpaceOnUse">
<stop stop-color="#B6B6B6"/>
<stop offset="1" stop-color="#919191"/>
</linearGradient>
<linearGradient id="paint5_linear_246_5179" x1="8.7279" y1="10.1876" x2="10.8327" y2="45.8538" gradientUnits="userSpaceOnUse">
<stop stop-color="#B6B6B6"/>
<stop offset="1" stop-color="#919191"/>
</linearGradient>
<linearGradient id="paint6_linear_246_5179" x1="8.7279" y1="10.1876" x2="10.8327" y2="45.8538" gradientUnits="userSpaceOnUse">
<stop stop-color="#B6B6B6"/>
<stop offset="1" stop-color="#919191"/>
</linearGradient>
<linearGradient id="paint7_linear_246_5179" x1="8.7279" y1="10.1876" x2="10.8327" y2="45.8538" gradientUnits="userSpaceOnUse">
<stop stop-color="#B6B6B6"/>
<stop offset="1" stop-color="#919191"/>
</linearGradient>
<linearGradient id="paint8_linear_246_5179" x1="8.7279" y1="10.1876" x2="10.8327" y2="45.8538" gradientUnits="userSpaceOnUse">
<stop stop-color="#B6B6B6"/>
<stop offset="1" stop-color="#919191"/>
</linearGradient>
<linearGradient id="paint9_linear_246_5179" x1="14.7855" y1="8.73217" x2="7.41919" y2="9.58764" gradientUnits="userSpaceOnUse">
<stop stop-color="#ECC271"/>
<stop offset="1" stop-color="#7F642E"/>
</linearGradient>
<linearGradient id="paint10_linear_246_5179" x1="14.7855" y1="8.73217" x2="7.41919" y2="9.58764" gradientUnits="userSpaceOnUse">
<stop stop-color="#ECC271"/>
<stop offset="1" stop-color="#7F642E"/>
</linearGradient>
<linearGradient id="paint11_linear_246_5179" x1="14.7855" y1="8.73217" x2="7.41919" y2="9.58764" gradientUnits="userSpaceOnUse">
<stop stop-color="#ECC271"/>
<stop offset="1" stop-color="#7F642E"/>
</linearGradient>
<linearGradient id="paint12_linear_246_5179" x1="14.7855" y1="8.73217" x2="7.41919" y2="9.58764" gradientUnits="userSpaceOnUse">
<stop stop-color="#ECC271"/>
<stop offset="1" stop-color="#7F642E"/>
</linearGradient>
<linearGradient id="paint13_linear_246_5179" x1="20.3382" y1="1" x2="20.3382" y2="48" gradientUnits="userSpaceOnUse">
<stop stop-color="#C1C1C1"/>
<stop offset="1" stop-color="#ABABAB"/>
</linearGradient>
<linearGradient id="paint14_linear_246_5179" x1="17.9535" y1="11.1876" x2="20.0583" y2="46.8538" gradientUnits="userSpaceOnUse">
<stop stop-color="#A0A0A0"/>
<stop offset="1" stop-color="#696969"/>
</linearGradient>
<linearGradient id="paint15_linear_246_5179" x1="17.9535" y1="11.1876" x2="20.0583" y2="46.8538" gradientUnits="userSpaceOnUse">
<stop stop-color="#A0A0A0"/>
<stop offset="1" stop-color="#696969"/>
</linearGradient>
<linearGradient id="paint16_linear_246_5179" x1="17.9535" y1="11.1876" x2="20.0583" y2="46.8538" gradientUnits="userSpaceOnUse">
<stop stop-color="#A0A0A0"/>
<stop offset="1" stop-color="#696969"/>
</linearGradient>
<linearGradient id="paint17_linear_246_5179" x1="17.9535" y1="11.1876" x2="20.0583" y2="46.8538" gradientUnits="userSpaceOnUse">
<stop stop-color="#A0A0A0"/>
<stop offset="1" stop-color="#696969"/>
</linearGradient>
<linearGradient id="paint18_linear_246_5179" x1="17.9535" y1="11.1876" x2="20.0583" y2="46.8538" gradientUnits="userSpaceOnUse">
<stop stop-color="#A0A0A0"/>
<stop offset="1" stop-color="#696969"/>
</linearGradient>
<linearGradient id="paint19_linear_246_5179" x1="17.9535" y1="11.1876" x2="20.0583" y2="46.8538" gradientUnits="userSpaceOnUse">
<stop stop-color="#A0A0A0"/>
<stop offset="1" stop-color="#696969"/>
</linearGradient>
<linearGradient id="paint20_linear_246_5179" x1="17.9535" y1="11.1876" x2="20.0583" y2="46.8538" gradientUnits="userSpaceOnUse">
<stop stop-color="#A0A0A0"/>
<stop offset="1" stop-color="#696969"/>
</linearGradient>
<linearGradient id="paint21_linear_246_5179" x1="17.9535" y1="11.1876" x2="20.0583" y2="46.8538" gradientUnits="userSpaceOnUse">
<stop stop-color="#A0A0A0"/>
<stop offset="1" stop-color="#696969"/>
</linearGradient>
<linearGradient id="paint22_linear_246_5179" x1="24.0111" y1="23.6639" x2="16.6501" y2="24.5416" gradientUnits="userSpaceOnUse">
<stop stop-color="#ECC271"/>
<stop offset="1" stop-color="#7F642E"/>
</linearGradient>
<linearGradient id="paint23_linear_246_5179" x1="24.0111" y1="23.6639" x2="16.6501" y2="24.5416" gradientUnits="userSpaceOnUse">
<stop stop-color="#ECC271"/>
<stop offset="1" stop-color="#7F642E"/>
</linearGradient>
<linearGradient id="paint24_linear_246_5179" x1="24.0111" y1="23.6639" x2="16.6501" y2="24.5416" gradientUnits="userSpaceOnUse">
<stop stop-color="#ECC271"/>
<stop offset="1" stop-color="#7F642E"/>
</linearGradient>
<linearGradient id="paint25_linear_246_5179" x1="24.0111" y1="23.6639" x2="16.6501" y2="24.5416" gradientUnits="userSpaceOnUse">
<stop stop-color="#ECC271"/>
<stop offset="1" stop-color="#7F642E"/>
</linearGradient>
<linearGradient id="paint26_linear_246_5179" x1="29.3382" y1="2" x2="29.3382" y2="49" gradientUnits="userSpaceOnUse">
<stop stop-color="#D3D3D3"/>
<stop offset="1" stop-color="#C2C2C2"/>
</linearGradient>
<linearGradient id="paint27_linear_246_5179" x1="26.9535" y1="12.1876" x2="29.0583" y2="47.8538" gradientUnits="userSpaceOnUse">
<stop stop-color="#B9B9B9"/>
<stop offset="1" stop-color="#A7A7A7"/>
</linearGradient>
<linearGradient id="paint28_linear_246_5179" x1="26.9535" y1="12.1876" x2="29.0583" y2="47.8538" gradientUnits="userSpaceOnUse">
<stop stop-color="#B9B9B9"/>
<stop offset="1" stop-color="#A7A7A7"/>
</linearGradient>
<linearGradient id="paint29_linear_246_5179" x1="26.9535" y1="12.1876" x2="29.0583" y2="47.8538" gradientUnits="userSpaceOnUse">
<stop stop-color="#B9B9B9"/>
<stop offset="1" stop-color="#A7A7A7"/>
</linearGradient>
<linearGradient id="paint30_linear_246_5179" x1="26.9535" y1="12.1876" x2="29.0583" y2="47.8538" gradientUnits="userSpaceOnUse">
<stop stop-color="#B9B9B9"/>
<stop offset="1" stop-color="#A7A7A7"/>
</linearGradient>
<linearGradient id="paint31_linear_246_5179" x1="26.9535" y1="12.1876" x2="29.0583" y2="47.8538" gradientUnits="userSpaceOnUse">
<stop stop-color="#B9B9B9"/>
<stop offset="1" stop-color="#A7A7A7"/>
</linearGradient>
<linearGradient id="paint32_linear_246_5179" x1="26.9535" y1="12.1876" x2="29.0583" y2="47.8538" gradientUnits="userSpaceOnUse">
<stop stop-color="#B9B9B9"/>
<stop offset="1" stop-color="#A7A7A7"/>
</linearGradient>
<linearGradient id="paint33_linear_246_5179" x1="26.9535" y1="12.1876" x2="29.0583" y2="47.8538" gradientUnits="userSpaceOnUse">
<stop stop-color="#B9B9B9"/>
<stop offset="1" stop-color="#A7A7A7"/>
</linearGradient>
<linearGradient id="paint34_linear_246_5179" x1="26.9535" y1="12.1876" x2="29.0583" y2="47.8538" gradientUnits="userSpaceOnUse">
<stop stop-color="#B9B9B9"/>
<stop offset="1" stop-color="#A7A7A7"/>
</linearGradient>
<linearGradient id="paint35_linear_246_5179" x1="33.0111" y1="10.7322" x2="25.6588" y2="11.6452" gradientUnits="userSpaceOnUse">
<stop stop-color="#ECC271"/>
<stop offset="1" stop-color="#7F642E"/>
</linearGradient>
<linearGradient id="paint36_linear_246_5179" x1="33.0111" y1="10.7322" x2="25.6588" y2="11.6452" gradientUnits="userSpaceOnUse">
<stop stop-color="#ECC271"/>
<stop offset="1" stop-color="#7F642E"/>
</linearGradient>
<linearGradient id="paint37_linear_246_5179" x1="33.0111" y1="10.7322" x2="25.6588" y2="11.6452" gradientUnits="userSpaceOnUse">
<stop stop-color="#ECC271"/>
<stop offset="1" stop-color="#7F642E"/>
</linearGradient>
<linearGradient id="paint38_linear_246_5179" x1="33.0111" y1="10.7322" x2="25.6588" y2="11.6452" gradientUnits="userSpaceOnUse">
<stop stop-color="#ECC271"/>
<stop offset="1" stop-color="#7F642E"/>
</linearGradient>
<linearGradient id="paint39_linear_246_5179" x1="43.2589" y1="43.6004" x2="36.9918" y2="42.7325" gradientUnits="userSpaceOnUse">
<stop stop-color="#ECC271"/>
<stop offset="1" stop-color="#7F642E"/>
</linearGradient>
<linearGradient id="paint40_linear_246_5179" x1="36.8406" y1="32.2319" x2="43.0985" y2="33.1726" gradientUnits="userSpaceOnUse">
<stop stop-color="#ECC271"/>
<stop offset="1" stop-color="#7F642E"/>
</linearGradient>
</defs>
</svg>
