<svg width="52" height="52" viewBox="0 0 52 52" fill="none" xmlns="http://www.w3.org/2000/svg">
<path fill-rule="evenodd" clip-rule="evenodd" d="M0 23.4234C0 17.9833 1.85456 12.9764 4.96593 9.00031L7.83373 7.58411L8.97996 4.98188C12.9593 1.86089 17.974 0 23.4234 0H28.5766C34.0829 0 39.1454 1.89997 43.1444 5.08008L44.2629 7.57286L46.6367 8.50636C49.9869 12.5579 52 17.7556 52 23.4234V28.5766C52 34.2294 49.9976 39.4145 46.6634 43.4612L43.8041 44.7443L42.8614 47.1414C38.9078 50.1881 33.9538 52 28.5766 52H23.4234C18.2615 52 13.4895 50.3302 9.61821 47.5014L8.34887 44.931L5.52508 43.6872C2.07801 39.6083 0 34.3351 0 28.5766V23.4234Z" fill="url(#paint0_linear_246_16009)"/>
<ellipse cx="26" cy="26" rx="23.1386" ry="23.1386" fill="url(#paint1_linear_246_16009)"/>
<ellipse cx="25.9998" cy="26.0001" rx="19.9471" ry="19.9471" fill="url(#paint2_linear_246_16009)"/>
<path d="M37.5195 26.6444C37.5195 32.9141 32.5002 37.9862 26.3213 37.9862C20.1424 37.9862 15.123 32.9141 15.123 26.6444C15.123 20.3747 20.1424 15.3025 26.3213 15.3025C32.5002 15.3025 37.5195 20.3746 37.5195 26.6444Z" fill="url(#paint3_linear_246_16009)" stroke="url(#paint4_linear_246_16009)"/>
<path fill-rule="evenodd" clip-rule="evenodd" d="M24.0022 12.0215C24.0022 12.839 24.6569 13.5017 25.4644 13.5017L27.5324 13.5017C28.34 13.5017 28.9947 12.839 28.9947 12.0215C28.9947 11.204 28.34 10.5413 27.5324 10.5412L25.4645 10.5413C24.6569 10.5412 24.0021 11.204 24.0022 12.0215Z" fill="url(#paint5_linear_246_16009)"/>
<line x1="22.4346" y1="20.7233" x2="22.4346" y2="31.0849" stroke="url(#paint6_linear_246_16009)"/>
<line x1="23.8965" y1="20.7233" x2="23.8965" y2="31.0849" stroke="url(#paint7_linear_246_16009)"/>
<line x1="28.2832" y1="20.7233" x2="28.2832" y2="31.0849" stroke="url(#paint8_linear_246_16009)"/>
<line x1="29.7451" y1="20.7233" x2="29.7451" y2="31.0849" stroke="url(#paint9_linear_246_16009)"/>
<defs>
<linearGradient id="paint0_linear_246_16009" x1="15.6275" y1="2.06367" x2="37.1703" y2="50.7346" gradientUnits="userSpaceOnUse">
<stop stop-color="#E0E0E0"/>
<stop offset="1" stop-color="#BBBBBB"/>
</linearGradient>
<linearGradient id="paint1_linear_246_16009" x1="16.7094" y1="2.86129" x2="40.8748" y2="57.4024" gradientUnits="userSpaceOnUse">
<stop stop-color="white"/>
<stop offset="1" stop-color="#8B8D8F"/>
</linearGradient>
<linearGradient id="paint2_linear_246_16009" x1="20.9082" y1="5.3415" x2="37.1702" y2="45.1493" gradientUnits="userSpaceOnUse">
<stop stop-color="#BCBCBC"/>
<stop offset="1" stop-color="#F4F4F4"/>
</linearGradient>
<linearGradient id="paint3_linear_246_16009" x1="26.3213" y1="14.8025" x2="26.3213" y2="38.4862" gradientUnits="userSpaceOnUse">
<stop stop-color="#CCCCCC"/>
<stop offset="0.494" stop-color="#F7F7F7"/>
<stop offset="0.999" stop-color="#CECECE"/>
</linearGradient>
<linearGradient id="paint4_linear_246_16009" x1="21.6243" y1="14.8025" x2="34.0929" y2="42.6027" gradientUnits="userSpaceOnUse">
<stop stop-color="#ECC271"/>
<stop offset="1" stop-color="#7F642E"/>
</linearGradient>
<linearGradient id="paint5_linear_246_16009" x1="24.3247" y1="11.0818" x2="29.617" y2="13.0995" gradientUnits="userSpaceOnUse">
<stop stop-color="#ECC271"/>
<stop offset="1" stop-color="#7F642E"/>
</linearGradient>
<linearGradient id="paint6_linear_246_16009" x1="21.9346" y1="23.8239" x2="20.5272" y2="23.8841" gradientUnits="userSpaceOnUse">
<stop stop-color="#ECC271"/>
<stop offset="1" stop-color="#7F642E"/>
</linearGradient>
<linearGradient id="paint7_linear_246_16009" x1="23.3965" y1="23.8239" x2="21.0429" y2="25.8001" gradientUnits="userSpaceOnUse">
<stop stop-color="#ECC271"/>
<stop offset="1" stop-color="#7F642E"/>
</linearGradient>
<linearGradient id="paint8_linear_246_16009" x1="27.7832" y1="23.8239" x2="26.3758" y2="23.8841" gradientUnits="userSpaceOnUse">
<stop stop-color="#ECC271"/>
<stop offset="1" stop-color="#7F642E"/>
</linearGradient>
<linearGradient id="paint9_linear_246_16009" x1="29.2451" y1="23.8239" x2="26.8915" y2="25.8001" gradientUnits="userSpaceOnUse">
<stop stop-color="#ECC271"/>
<stop offset="1" stop-color="#7F642E"/>
</linearGradient>
</defs>
</svg>
