<svg width="50" height="50" viewBox="0 0 50 50" fill="none" xmlns="http://www.w3.org/2000/svg">
<path d="M0 0L24.2001 6.97015L48.4002 0V42.6922L24.2001 49.2267L0 42.6922V0Z" fill="url(#paint0_linear_246_1451)"/>
<path d="M48.4003 42.6922V0L24.2002 6.97015V49.2267L48.4003 42.6922Z" fill="url(#paint1_linear_246_1451)"/>
<path d="M31.8934 31.164L32.1891 18.9822L40.4144 12.3908C40.2771 13.159 39.9991 14.842 39.9848 15.4285C39.9706 16.015 40.1703 17.558 40.272 18.2561C39.5285 17.9389 37.802 17.4008 36.8438 17.7861C35.6461 18.2678 35.0164 19.7776 34.9794 21.3003C34.9425 22.823 35.7339 24.4203 37.3894 24.6258C39.0449 24.8313 40.142 23.6139 40.3266 23.3358C40.4743 23.1133 41.0423 22.3545 41.3078 22.003C41.8473 22.579 42.4039 23.2683 43.4543 23.9684C44.5048 24.6685 45.7018 25.0333 46.5642 25.3343C46.0069 25.4914 44.5919 25.9683 43.39 26.6191C42.1881 27.27 41.3952 28.1743 41.149 28.5451C41.0548 28.3549 40.7401 27.8026 40.2349 27.1144C39.6034 26.2542 38.6136 25.499 37.3648 25.6409C36.116 25.7829 34.9611 26.9426 34.7932 28.9703C34.6254 30.9981 35.4871 32.1454 36.4838 32.6187C37.2811 32.9972 39.1152 32.5257 39.9325 32.2427C39.8164 32.9549 39.5687 34.5257 39.5071 35.1112C39.4454 35.6967 39.6701 37.353 39.7901 38.108L31.8934 31.164Z" fill="#DDDDDD"/>
<path fill-rule="evenodd" clip-rule="evenodd" d="M31.2338 18.5485L41.8099 10.0732L41.3683 12.5449C41.2258 13.3422 40.9643 14.9465 40.9521 15.4503C40.94 15.9464 41.1247 17.4055 41.2304 18.1311L41.4695 19.7732L39.8766 19.0936C39.5584 18.9578 39.0085 18.7672 38.4443 18.6569C37.8337 18.5375 37.4138 18.5544 37.2218 18.6316C36.9085 18.7575 36.5979 19.0485 36.3516 19.5445C36.1072 20.0369 35.9626 20.665 35.9467 21.3221C35.9317 21.9386 36.0877 22.5368 36.3732 22.9757C36.6471 23.397 37.0228 23.6556 37.5157 23.7167C38.0543 23.7836 38.5126 23.6242 38.881 23.3952C39.0658 23.2804 39.2187 23.1531 39.3327 23.0425C39.3893 22.9876 39.4338 22.9392 39.4659 22.9018C39.4932 22.8699 39.5068 22.8512 39.5097 22.8473C39.5103 22.8465 39.5104 22.8463 39.5101 22.8469C39.6776 22.5946 40.2674 21.8077 40.5232 21.4691L41.2277 20.5362L42.0311 21.3941C42.1217 21.4907 42.2096 21.5868 42.2972 21.6824C42.7651 22.1933 43.2226 22.693 44.0107 23.2182L43.4553 23.9691C42.8078 23.5376 42.348 23.1102 41.9642 22.7109C41.8196 22.5605 41.6858 22.4141 41.5568 22.2729C41.4726 22.1808 41.3905 22.0909 41.3087 22.0036C41.1667 22.1916 40.9382 22.4961 40.7337 22.7728C40.5559 23.0134 40.3963 23.2329 40.3275 23.3364C40.1429 23.6145 39.0459 24.8319 37.3904 24.6264C35.7349 24.421 34.9434 22.8237 34.9803 21.3009C35.0173 19.7782 35.647 18.2684 36.8447 17.7868C37.4788 17.5318 38.4492 17.6812 39.2486 17.9033C39.6574 18.0169 40.0214 18.1494 40.2729 18.2568C40.2349 17.996 40.1833 17.6173 40.1342 17.2146C40.0519 16.5393 39.9768 15.7966 39.9857 15.4292C39.9937 15.1025 40.0834 14.436 40.1851 13.7767C40.266 13.252 40.3545 12.7319 40.4153 12.3915L32.1901 18.9828L31.8944 31.1647L39.7911 38.1087C39.7359 37.7616 39.6586 37.224 39.5971 36.6875C39.5249 36.057 39.4747 35.4281 39.508 35.1118C39.5474 34.7373 39.6629 33.9598 39.7715 33.2617C39.8326 32.8683 39.8916 32.5 39.9334 32.2433C39.6728 32.3336 39.3089 32.443 38.9081 32.5379C38.052 32.7406 37.0278 32.8772 36.4847 32.6193C35.488 32.1461 34.6263 30.9987 34.7942 28.971C34.962 26.9433 36.1169 25.7836 37.3657 25.6416C38.6145 25.4996 39.6044 26.2548 40.2358 27.115C40.3816 27.3137 40.5116 27.501 40.6249 27.6716C40.9043 28.0919 41.0829 28.4105 41.1499 28.5457C41.2625 28.3763 41.4891 28.0954 41.8168 27.7782C42.2062 27.4013 42.7383 26.9732 43.3909 26.6198C43.9679 26.3073 44.5941 26.0349 45.1509 25.8188C45.7538 25.5847 46.2754 25.4166 46.5652 25.3349C46.4649 25.2999 46.3601 25.2641 46.2516 25.2269C45.9143 25.1115 45.5406 24.9837 45.1533 24.8306C44.5931 24.6092 44.0042 24.3349 43.4553 23.9691L44.0107 23.2182C44.8257 23.7614 45.7416 24.0759 46.5748 24.362C46.6844 24.3996 46.7925 24.4368 46.8987 24.4738L49.6316 25.4276L46.8403 26.2144C46.3281 26.3588 44.9875 26.8114 43.8699 27.4167C42.8208 27.9848 42.1389 28.7769 41.9676 29.0349L41.0265 30.4523L40.2753 28.9362C40.2082 28.8009 39.9227 28.2933 39.4428 27.6395C38.8972 26.8963 38.2082 26.4698 37.4807 26.5525C36.841 26.6253 35.903 27.2881 35.7578 29.0429C35.6149 30.769 36.3348 31.5223 36.9171 31.7988C36.9171 31.7988 36.9426 31.8104 37.0064 31.8217C37.0689 31.8329 37.1532 31.8411 37.2608 31.8428C37.4787 31.8461 37.7455 31.8221 38.0405 31.7748C38.6312 31.68 39.2364 31.5081 39.6021 31.3814L41.1388 30.8492L40.8886 32.3836C40.771 33.1053 40.5282 34.6479 40.4698 35.2031C40.4504 35.3864 40.4773 35.8516 40.5428 36.4522C40.6044 37.0168 40.6885 37.6051 40.7468 37.9717L41.1587 40.5619L30.918 31.5568L31.2338 18.5485Z" fill="url(#paint2_linear_246_1451)"/>
<path d="M29.7666 17.0832L16.9293 17.1312L9.76571 9.50457C10.5784 9.61408 12.3584 9.83252 12.9764 9.83021C13.5945 9.8279 15.2141 9.59674 15.9466 9.48145C15.6326 10.1954 15.1125 11.8481 15.5441 12.7469C16.0837 13.8704 17.6907 14.4271 19.2954 14.4211C20.9 14.4151 22.5608 13.6211 22.7326 12.0447C22.9043 10.4684 21.5926 9.46032 21.2948 9.29261C21.0565 9.15844 20.2421 8.64 19.8647 8.39755C20.4568 7.8701 21.1677 7.32345 21.8767 6.30784C22.5857 5.29223 22.9375 4.14665 23.2313 3.32018C23.4117 3.84474 23.9522 5.17457 24.67 6.29739C25.3879 7.42021 26.3616 8.14814 26.7588 8.37176C26.5611 8.46629 25.9878 8.77982 25.2767 9.27771C24.3878 9.90006 23.6192 10.8596 23.8024 12.0407C23.9856 13.2218 25.2381 14.2863 27.3781 14.3909C29.5181 14.4954 30.7033 13.6469 31.1747 12.6884C31.5519 11.9217 31.0059 10.1942 30.6857 9.42629C31.4389 9.51727 33.0999 9.70989 33.7182 9.7526C34.3365 9.7953 36.0748 9.53743 36.8667 9.40316L29.7666 17.0832Z" fill="#DDDDDD"/>
<path fill-rule="evenodd" clip-rule="evenodd" d="M16.4972 18.0498L7.2862 8.24338L9.90116 8.59574C10.7447 8.7094 12.4414 8.91426 12.9722 8.91227C13.495 8.91032 15.0267 8.6957 15.7881 8.57586L17.5109 8.3047L16.8382 9.83438C16.7037 10.14 16.5179 10.6669 16.4169 11.2052C16.3077 11.7878 16.3367 12.1858 16.4232 12.3659C16.5643 12.6597 16.8792 12.9467 17.4082 13.1669C17.9334 13.3856 18.5987 13.5058 19.2911 13.5032C19.9408 13.5008 20.5666 13.3366 21.0212 13.0539C21.4574 12.7826 21.7196 12.4191 21.7707 11.9498C21.8266 11.437 21.6464 11.0064 21.3953 10.6631C21.2694 10.4908 21.1312 10.3492 21.0117 10.244C20.9524 10.1918 20.9002 10.1508 20.8599 10.1214C20.8256 10.0964 20.8056 10.0839 20.8014 10.0813C20.8003 10.0806 20.8003 10.0808 20.8014 10.0813C20.5316 9.92944 19.6862 9.39051 19.3225 9.15687L18.321 8.51353L19.2028 7.72806C19.3022 7.63956 19.4009 7.55354 19.4993 7.46787C20.0248 7.01013 20.5387 6.5625 21.0706 5.80059C21.6206 5.01259 21.9271 4.13514 22.206 3.33676C22.2426 3.23182 22.2788 3.12825 22.315 3.02643L23.2457 0.407596L24.1497 3.03488C24.3155 3.51698 24.8284 4.77683 25.4959 5.82093C26.1226 6.80105 26.9752 7.42663 27.2515 7.58219L28.7696 8.43695L27.1932 9.19064C27.0525 9.25791 26.5257 9.54255 25.8501 10.0155C25.0821 10.5532 24.6515 11.2185 24.7582 11.9066C24.8521 12.5116 25.5755 13.3837 27.4274 13.4742C29.2491 13.5631 30.0231 12.8598 30.2985 12.2998C30.2985 12.2998 30.31 12.2753 30.3203 12.2145C30.3303 12.1548 30.3367 12.0747 30.3356 11.9725C30.3333 11.7656 30.3008 11.5132 30.243 11.2345C30.1272 10.6766 29.9298 10.107 29.7866 9.76341L29.1846 8.31969L30.8073 8.51568C31.5706 8.60787 33.2016 8.79657 33.7879 8.83707C33.9815 8.85044 34.4707 8.81244 35.1014 8.73406C35.6944 8.66038 36.3118 8.56471 36.6963 8.49951L39.413 8.03886L30.2055 17.9985L16.4972 18.0498ZM29.7662 17.0827L16.9289 17.1307L9.76531 9.50408C10.1255 9.55261 10.6756 9.62253 11.2303 9.68516C11.9274 9.76385 12.6319 9.83101 12.976 9.82972C13.3632 9.82827 14.1434 9.73701 14.8524 9.64069C15.2751 9.58326 15.6726 9.52402 15.9462 9.48095C15.84 9.7225 15.7101 10.0715 15.6016 10.4624C15.3892 11.2269 15.2581 12.1517 15.5437 12.7464C16.0833 13.8699 17.6903 14.4266 19.2949 14.4206C20.8996 14.4146 22.5604 13.6206 22.7322 12.0442C22.9039 10.4679 21.5922 9.45983 21.2944 9.29212C21.1835 9.22971 20.948 9.08414 20.6898 8.92189C20.393 8.73534 20.0661 8.52673 19.8643 8.39706C19.954 8.31714 20.0464 8.23678 20.1412 8.15441C20.2864 8.02821 20.437 7.89731 20.5915 7.75607C21.0016 7.3811 21.4393 6.93329 21.8763 6.30735C22.2468 5.77666 22.5197 5.21049 22.7378 4.6729C22.8886 4.30127 23.0131 3.94331 23.1256 3.62017C23.1618 3.51617 23.1967 3.41577 23.2308 3.31969C23.3247 3.59241 23.5158 4.0828 23.7786 4.64859C24.0212 5.17106 24.325 5.75784 24.6696 6.2969C25.0594 6.9066 25.5247 7.39987 25.9321 7.75918C26.275 8.06157 26.5769 8.26908 26.7584 8.37126C26.6177 8.43851 26.2871 8.61658 25.8519 8.89299C25.6754 9.00515 25.4816 9.1335 25.2763 9.27722C24.3874 9.89957 23.6188 10.8591 23.802 12.0402C23.9852 13.2213 25.2377 14.2859 27.3777 14.3904C29.5177 14.4949 30.7029 13.6464 31.1743 12.6879C31.4313 12.1656 31.2598 11.1976 31.0232 10.3907C30.9124 10.013 30.7874 9.67063 30.6853 9.4258C30.9568 9.45859 31.3462 9.50458 31.7622 9.55201C32.5004 9.63615 33.3223 9.72479 33.7178 9.7521C34.0518 9.77518 34.7128 9.71052 35.3748 9.62501C35.9381 9.55225 36.5022 9.4644 36.8663 9.40267L29.7662 17.0827Z" fill="url(#paint3_linear_246_1451)"/>
<path d="M16.9675 33.2316L29.8046 33.1396L36.9971 40.7416C36.184 40.6349 34.4032 40.4225 33.7852 40.427C33.1671 40.4314 31.5484 40.6681 30.8164 40.7859C31.1276 40.0708 31.6415 38.4164 31.2064 37.5191C30.6626 36.3975 29.0535 35.8462 27.4488 35.8577C25.8442 35.8692 24.1864 36.669 24.0207 38.2459C23.8549 39.8228 25.1704 40.8264 25.4689 40.9931C25.7077 41.1264 26.5241 41.6421 26.9024 41.8832C26.3123 42.4127 25.6035 42.9618 24.8983 43.9798C24.1932 44.9978 23.8457 46.1446 23.5552 46.9721C23.3727 46.4481 22.8272 45.1202 22.1051 43.9998C21.383 42.8795 20.4065 42.1549 20.0085 41.9326C20.2058 41.8374 20.7778 41.5219 21.4871 41.0216C22.3736 40.3962 23.1386 39.434 22.9509 38.2536C22.7632 37.0731 21.5066 36.0129 19.3662 35.9157C17.2258 35.8184 16.0439 36.6711 15.5761 37.6311C15.2018 38.3992 15.7544 40.1248 16.0775 40.8916C15.324 40.8032 13.6623 40.6162 13.0439 40.5756C12.4254 40.535 10.6881 40.7989 9.89671 40.9359L16.9675 33.2316Z" fill="#DDDDDD"/>
<path fill-rule="evenodd" clip-rule="evenodd" d="M30.2319 32.2192L39.4801 41.994L36.8639 41.6506C36.0199 41.5399 34.3225 41.3408 33.7916 41.3446C33.2688 41.3484 31.738 41.5682 30.9771 41.6907L29.2553 41.9677L29.9222 40.4357C30.0554 40.1296 30.2393 39.6021 30.3382 39.0635C30.4453 38.4805 30.4147 38.0826 30.3275 37.9029C30.1853 37.6095 29.8694 37.3236 29.3395 37.1052C28.8135 36.8883 28.1477 36.7704 27.4553 36.7754C26.8056 36.78 26.1804 36.9463 25.7269 37.2306C25.2918 37.5033 25.0309 37.8677 24.9816 38.3372C24.9277 38.8502 25.1095 39.2802 25.3619 39.6227C25.4885 39.7945 25.6272 39.9357 25.7471 40.0404C25.8066 40.0924 25.859 40.1333 25.8994 40.1625C25.9338 40.1874 25.9539 40.1998 25.9581 40.2024C25.9592 40.2031 25.9591 40.203 25.9581 40.2024C26.2284 40.3533 27.0758 40.8894 27.4404 41.1218L28.4444 41.7617L27.5655 42.5502C27.4665 42.639 27.3681 42.7254 27.2701 42.8114C26.7463 43.2709 26.2341 43.7203 25.7052 44.484C25.1581 45.2739 24.8549 46.1524 24.5791 46.9517C24.5429 47.0568 24.5071 47.1605 24.4713 47.2624L23.5505 49.8844L22.6366 47.2602C22.4689 46.7787 21.9512 45.5206 21.2797 44.4788C20.6494 43.5009 19.7944 42.8782 19.5175 42.7236L17.9962 41.874L19.5697 41.115C19.7101 41.0472 20.2359 40.7608 20.9096 40.2855C21.6756 39.7451 22.1036 39.0784 21.9943 38.3907C21.8981 37.786 21.1714 36.9164 19.3192 36.8323C17.4972 36.7495 16.7259 37.4555 16.4525 38.0165C16.4525 38.0165 16.4411 38.041 16.4311 38.1019C16.4213 38.1616 16.4152 38.2417 16.4167 38.3439C16.4198 38.5507 16.4533 38.8031 16.5121 39.0815C16.63 39.6391 16.8296 40.208 16.9741 40.5511L17.5815 41.9927L15.9581 41.8023C15.1945 41.7127 13.5628 41.5296 12.9763 41.4911C12.7827 41.4784 12.2936 41.5181 11.6632 41.5986C11.0706 41.6743 10.4535 41.7721 10.0693 41.8386L7.35428 42.3086L16.5239 32.3175L30.2319 32.2192ZM16.9667 33.2318L29.8037 33.1398L36.9963 40.7418C36.6359 40.6945 36.0855 40.6265 35.5306 40.5658C34.8332 40.4895 34.1285 40.4247 33.7843 40.4272C33.3971 40.43 32.6173 40.5239 31.9087 40.6226C31.4862 40.6815 31.089 40.7421 30.8155 40.7861C30.9208 40.5442 31.0493 40.1948 31.1564 39.8035C31.3659 39.0383 31.4934 38.113 31.2056 37.5193C30.6617 36.3977 29.0526 35.8464 27.448 35.8579C25.8434 35.8694 24.1856 36.6692 24.0198 38.2461C23.854 39.823 25.1696 40.8266 25.4681 40.9933C25.5792 41.0553 25.8152 41.2001 26.074 41.3614C26.3716 41.547 26.6992 41.7544 26.9016 41.8834C26.8122 41.9637 26.72 42.0443 26.6256 42.127C26.4809 42.2537 26.3308 42.3851 26.1768 42.5269C25.7681 42.9033 25.3321 43.3526 24.8975 43.98C24.529 44.512 24.2583 45.0791 24.0422 45.6174C23.8928 45.9895 23.7696 46.3479 23.6584 46.6715C23.6226 46.7756 23.5881 46.8761 23.5543 46.9723C23.4594 46.6999 23.2665 46.2102 23.0015 45.6453C22.7569 45.1236 22.4509 44.5379 22.1042 44C21.7121 43.3917 21.245 42.9 20.8362 42.5421C20.4922 42.2409 20.1895 42.0344 20.0076 41.9328C20.148 41.8651 20.478 41.6859 20.9121 41.408C21.0882 41.2952 21.2815 41.1662 21.4862 41.0218C22.3727 40.3964 23.1377 39.4342 22.95 38.2538C22.7623 37.0733 21.5058 36.0131 19.3654 35.9159C17.225 35.8187 16.0431 36.6713 15.5752 37.6313C15.3203 38.1545 15.4954 39.122 15.7351 39.928C15.8473 40.3053 15.9737 40.6473 16.0767 40.8918C15.8051 40.8599 15.4155 40.8152 14.9993 40.7692C14.2608 40.6876 13.4385 40.6018 13.043 40.5758C12.7089 40.5539 12.0482 40.6208 11.3865 40.7086C10.8234 40.7833 10.2597 40.8731 9.89586 40.9361L16.9667 33.2318Z" fill="url(#paint4_linear_246_1451)"/>
<path d="M29.8774 24.6496L29.8673 25.9878L17.4737 25.9131L17.4838 24.5748L29.8774 24.6496Z" fill="url(#paint5_linear_246_1451)"/>
<path d="M25.2067 25.5172L26.6906 25.5173L26.69 31.0076L25.2061 31.0075L25.2067 25.5172Z" fill="url(#paint6_linear_246_1451)"/>
<path d="M25.9316 19.3261L27.4155 19.3263L27.415 24.9012L25.9311 24.901L25.9316 19.3261Z" fill="url(#paint7_linear_246_1451)"/>
<path d="M21.5815 21.8493L23.0655 21.8494L23.0653 23.9122L21.5813 23.9121L21.5815 21.8493Z" fill="url(#paint8_linear_246_1451)"/>
<path d="M23.998 21.8493L25.4819 21.8494L25.4817 23.9122L23.9978 23.9121L23.998 21.8493Z" fill="url(#paint9_linear_246_1451)"/>
<path d="M22.7898 19.3261L24.2737 19.3263L24.2735 21.3891L22.7896 21.389L22.7898 19.3261Z" fill="url(#paint10_linear_246_1451)"/>
<path d="M19.6488 19.3261L21.1327 19.3263L21.1322 24.9012L19.6483 24.901L19.6488 19.3261Z" fill="url(#paint11_linear_246_1451)"/>
<path d="M17.4741 19.3261L18.958 19.3263L18.9575 24.9012L17.4735 24.901L17.4741 19.3261Z" fill="url(#paint12_linear_246_1451)"/>
<path d="M20.3738 25.5172L21.8577 25.5173L21.8572 31.0076L20.3733 31.0075L20.3738 25.5172Z" fill="url(#paint13_linear_246_1451)"/>
<path d="M22.7898 25.5172L24.2737 25.5173L24.2731 31.0219L22.7892 31.0218L22.7898 25.5172Z" fill="url(#paint14_linear_246_1451)"/>
<path d="M17.4732 25.3447L18.9572 25.3448L18.9566 31.0226L17.4727 31.0225L17.4732 25.3447Z" fill="url(#paint15_linear_246_1451)"/>
<path d="M28.3921 19.3262L29.8761 19.3264L29.8755 24.9012L28.3916 24.9011L28.3921 19.3262Z" fill="url(#paint16_linear_246_1451)"/>
<path d="M28.3885 25.3185L29.8724 25.3187L29.8718 30.9965L28.3879 30.9963L28.3885 25.3185Z" fill="url(#paint17_linear_246_1451)"/>
<defs>
<linearGradient id="paint0_linear_246_1451" x1="24.2001" y1="0" x2="24.2001" y2="49.2267" gradientUnits="userSpaceOnUse">
<stop stop-color="#E3E3E3"/>
<stop offset="1" stop-color="#C0C0C0"/>
</linearGradient>
<linearGradient id="paint1_linear_246_1451" x1="36.3002" y1="0" x2="36.3002" y2="49.2267" gradientUnits="userSpaceOnUse">
<stop stop-color="#C3C3C3"/>
<stop offset="1" stop-color="#9D9D9D"/>
</linearGradient>
<linearGradient id="paint2_linear_246_1451" x1="49.7786" y1="19.3753" x2="46.9147" y2="32.9033" gradientUnits="userSpaceOnUse">
<stop stop-color="#ECC271"/>
<stop offset="1" stop-color="#7F642E"/>
</linearGradient>
<linearGradient id="paint3_linear_246_1451" x1="16.8677" y1="0.43145" x2="31.0761" y2="3.3485" gradientUnits="userSpaceOnUse">
<stop stop-color="#ECC271"/>
<stop offset="1" stop-color="#7F642E"/>
</linearGradient>
<linearGradient id="paint4_linear_246_1451" x1="29.9284" y1="49.8387" x2="15.708" y2="46.9753" gradientUnits="userSpaceOnUse">
<stop stop-color="#ECC271"/>
<stop offset="1" stop-color="#7F642E"/>
</linearGradient>
<linearGradient id="paint5_linear_246_1451" x1="21.1847" y1="19.3261" x2="26.8226" y2="20.0134" gradientUnits="userSpaceOnUse">
<stop stop-color="#ECC271"/>
<stop offset="1" stop-color="#7F642E"/>
</linearGradient>
<linearGradient id="paint6_linear_246_1451" x1="21.1847" y1="19.3261" x2="26.8226" y2="20.0134" gradientUnits="userSpaceOnUse">
<stop stop-color="#ECC271"/>
<stop offset="1" stop-color="#7F642E"/>
</linearGradient>
<linearGradient id="paint7_linear_246_1451" x1="21.1847" y1="19.3261" x2="26.8226" y2="20.0134" gradientUnits="userSpaceOnUse">
<stop stop-color="#ECC271"/>
<stop offset="1" stop-color="#7F642E"/>
</linearGradient>
<linearGradient id="paint8_linear_246_1451" x1="21.1847" y1="19.3261" x2="26.8226" y2="20.0134" gradientUnits="userSpaceOnUse">
<stop stop-color="#ECC271"/>
<stop offset="1" stop-color="#7F642E"/>
</linearGradient>
<linearGradient id="paint9_linear_246_1451" x1="21.1847" y1="19.3261" x2="26.8226" y2="20.0134" gradientUnits="userSpaceOnUse">
<stop stop-color="#ECC271"/>
<stop offset="1" stop-color="#7F642E"/>
</linearGradient>
<linearGradient id="paint10_linear_246_1451" x1="21.1847" y1="19.3261" x2="26.8226" y2="20.0134" gradientUnits="userSpaceOnUse">
<stop stop-color="#ECC271"/>
<stop offset="1" stop-color="#7F642E"/>
</linearGradient>
<linearGradient id="paint11_linear_246_1451" x1="21.1847" y1="19.3261" x2="26.8226" y2="20.0134" gradientUnits="userSpaceOnUse">
<stop stop-color="#ECC271"/>
<stop offset="1" stop-color="#7F642E"/>
</linearGradient>
<linearGradient id="paint12_linear_246_1451" x1="21.1847" y1="19.3261" x2="26.8226" y2="20.0134" gradientUnits="userSpaceOnUse">
<stop stop-color="#ECC271"/>
<stop offset="1" stop-color="#7F642E"/>
</linearGradient>
<linearGradient id="paint13_linear_246_1451" x1="21.1847" y1="19.3261" x2="26.8226" y2="20.0134" gradientUnits="userSpaceOnUse">
<stop stop-color="#ECC271"/>
<stop offset="1" stop-color="#7F642E"/>
</linearGradient>
<linearGradient id="paint14_linear_246_1451" x1="21.1847" y1="19.3261" x2="26.8226" y2="20.0134" gradientUnits="userSpaceOnUse">
<stop stop-color="#ECC271"/>
<stop offset="1" stop-color="#7F642E"/>
</linearGradient>
<linearGradient id="paint15_linear_246_1451" x1="21.1847" y1="19.3261" x2="26.8226" y2="20.0134" gradientUnits="userSpaceOnUse">
<stop stop-color="#ECC271"/>
<stop offset="1" stop-color="#7F642E"/>
</linearGradient>
<linearGradient id="paint16_linear_246_1451" x1="21.1847" y1="19.3261" x2="26.8226" y2="20.0134" gradientUnits="userSpaceOnUse">
<stop stop-color="#ECC271"/>
<stop offset="1" stop-color="#7F642E"/>
</linearGradient>
<linearGradient id="paint17_linear_246_1451" x1="21.1847" y1="19.3261" x2="26.8226" y2="20.0134" gradientUnits="userSpaceOnUse">
<stop stop-color="#ECC271"/>
<stop offset="1" stop-color="#7F642E"/>
</linearGradient>
</defs>
</svg>
