<svg width="52" height="52" viewBox="0 0 52 52" fill="none" xmlns="http://www.w3.org/2000/svg">
<path fill-rule="evenodd" clip-rule="evenodd" d="M0 23.4234C0 17.9833 1.85456 12.9764 4.96593 9.00031L7.83373 7.58411L8.97996 4.98188C12.9593 1.86089 17.974 0 23.4234 0H28.5766C34.0829 0 39.1454 1.89997 43.1444 5.08008L44.2629 7.57286L46.6367 8.50636C49.9869 12.5579 52 17.7556 52 23.4234V28.5766C52 34.2294 49.9976 39.4145 46.6634 43.4612L43.8041 44.7443L42.8614 47.1414C38.9078 50.1881 33.9538 52 28.5766 52H23.4234C18.2615 52 13.4895 50.3302 9.61821 47.5014L8.34887 44.931L5.52508 43.6872C2.07801 39.6083 0 34.3351 0 28.5766V23.4234Z" fill="url(#paint0_linear_246_34608)"/>
<circle cx="26" cy="25.9997" r="23.1386" fill="url(#paint1_linear_246_34608)"/>
<ellipse cx="25.9998" cy="25.9998" rx="19.9471" ry="19.9471" fill="url(#paint2_linear_246_34608)"/>
<path d="M15.123 26.6654C15.123 20.3957 20.1424 15.3235 26.3213 15.3235C32.5001 15.3235 37.5195 20.3957 37.5195 26.6654C37.5195 32.9351 32.5001 38.0073 26.3213 38.0073C20.1424 38.0073 15.123 32.9351 15.123 26.6654Z" fill="url(#paint3_linear_246_34608)" stroke="url(#paint4_linear_246_34608)"/>
<line x1="25.3584" y1="17.7842" x2="25.3584" y2="26.6656" stroke="url(#paint5_linear_246_34608)"/>
<line x1="26.8213" y1="17.7842" x2="26.8213" y2="26.6656" stroke="url(#paint6_linear_246_34608)"/>
<path fill-rule="evenodd" clip-rule="evenodd" d="M34.0611 15.2572C33.4901 15.8354 33.4901 16.7728 34.0611 17.351L35.5234 18.8316C36.0944 19.4098 37.0203 19.4098 37.5914 18.8316C38.1624 18.2534 38.1624 17.3159 37.5914 16.7377L36.1291 15.2572C35.558 14.679 34.6321 14.679 34.0611 15.2572Z" fill="url(#paint7_linear_246_34608)"/>
<defs>
<linearGradient id="paint0_linear_246_34608" x1="15.6275" y1="2.06367" x2="37.1703" y2="50.7346" gradientUnits="userSpaceOnUse">
<stop stop-color="#E0E0E0"/>
<stop offset="1" stop-color="#BBBBBB"/>
</linearGradient>
<linearGradient id="paint1_linear_246_34608" x1="16.7094" y1="2.86098" x2="40.8748" y2="57.4021" gradientUnits="userSpaceOnUse">
<stop stop-color="white"/>
<stop offset="1" stop-color="#8B8D8F"/>
</linearGradient>
<linearGradient id="paint2_linear_246_34608" x1="20.9082" y1="5.34119" x2="37.1702" y2="45.149" gradientUnits="userSpaceOnUse">
<stop stop-color="#BCBCBC"/>
<stop offset="1" stop-color="#F4F4F4"/>
</linearGradient>
<linearGradient id="paint3_linear_246_34608" x1="26.3213" y1="14.8235" x2="26.3213" y2="38.5073" gradientUnits="userSpaceOnUse">
<stop stop-color="#CCCCCC"/>
<stop offset="0.494" stop-color="#F7F7F7"/>
<stop offset="0.999" stop-color="#CECECE"/>
</linearGradient>
<linearGradient id="paint4_linear_246_34608" x1="21.6243" y1="14.8235" x2="34.0929" y2="42.6238" gradientUnits="userSpaceOnUse">
<stop stop-color="#ECC271"/>
<stop offset="1" stop-color="#7F642E"/>
</linearGradient>
<linearGradient id="paint5_linear_246_34608" x1="24.8584" y1="20.4419" x2="23.452" y2="20.5121" gradientUnits="userSpaceOnUse">
<stop stop-color="#ECC271"/>
<stop offset="1" stop-color="#7F642E"/>
</linearGradient>
<linearGradient id="paint6_linear_246_34608" x1="26.3213" y1="20.4419" x2="24.2735" y2="22.4479" gradientUnits="userSpaceOnUse">
<stop stop-color="#ECC271"/>
<stop offset="1" stop-color="#7F642E"/>
</linearGradient>
<linearGradient id="paint7_linear_246_34608" x1="34.9455" y1="14.8235" x2="37.2843" y2="20.0369" gradientUnits="userSpaceOnUse">
<stop stop-color="#ECC271"/>
<stop offset="1" stop-color="#7F642E"/>
</linearGradient>
</defs>
</svg>
