<svg width="53" height="52" viewBox="0 0 53 52" fill="none" xmlns="http://www.w3.org/2000/svg">
<path fill-rule="evenodd" clip-rule="evenodd" d="M0.330078 23.4556C0.330078 18.0837 2.18376 13.1395 5.29368 9.21332L8.16013 7.81488L9.30582 5.24528C13.2833 2.16343 18.2957 0.325867 23.7425 0.325867H28.8932C34.397 0.325867 39.4571 2.20201 43.4542 5.34225L44.5722 7.80377L46.9449 8.72556C50.2935 12.7263 52.3056 17.8588 52.3056 23.4556V28.5441C52.3056 34.126 50.3042 39.2461 46.9716 43.2421L44.1136 44.5091L43.1714 46.8762C39.2196 49.8846 34.2679 51.6738 28.8932 51.6738H23.7425C18.583 51.6738 13.8133 50.025 9.94377 47.2316L8.67502 44.6934L5.85257 43.4652C2.40712 39.4375 0.330078 34.2304 0.330078 28.5441V23.4556Z" fill="url(#paint0_linear_246_31324)"/>
<ellipse cx="26.3182" cy="26" rx="23.1278" ry="22.8485" fill="url(#paint1_linear_246_31324)"/>
<ellipse cx="25.9613" cy="25.9289" rx="20.4623" ry="20.1669" fill="url(#paint2_linear_246_31324)"/>
<mask id="path-4-inside-1_246_31324" fill="white">
<path fill-rule="evenodd" clip-rule="evenodd" d="M14.2686 25.9263C14.2686 19.5632 19.5036 14.4049 25.9613 14.4049C32.419 14.4049 37.654 19.5632 37.654 25.9263C37.654 26.4189 37.6227 26.9042 37.5618 27.3805C37.4709 27.3731 37.379 27.3693 37.2861 27.3693C35.6423 27.3693 34.8199 28.1769 33.9984 29.7905C33.176 28.1769 32.3545 27.3693 30.7106 27.3693C28.8951 27.3693 27.4229 28.8152 27.4229 30.5981C27.4229 31.9001 27.9583 32.9763 28.8123 34.0088C29.4361 34.7633 30.2303 35.4942 31.1112 36.273C29.5574 37.0253 27.8094 37.4478 25.9613 37.4478C19.5036 37.4478 14.2686 32.2894 14.2686 25.9263Z"/>
</mask>
<path fill-rule="evenodd" clip-rule="evenodd" d="M14.2686 25.9263C14.2686 19.5632 19.5036 14.4049 25.9613 14.4049C32.419 14.4049 37.654 19.5632 37.654 25.9263C37.654 26.4189 37.6227 26.9042 37.5618 27.3805C37.4709 27.3731 37.379 27.3693 37.2861 27.3693C35.6423 27.3693 34.8199 28.1769 33.9984 29.7905C33.176 28.1769 32.3545 27.3693 30.7106 27.3693C28.8951 27.3693 27.4229 28.8152 27.4229 30.5981C27.4229 31.9001 27.9583 32.9763 28.8123 34.0088C29.4361 34.7633 30.2303 35.4942 31.1112 36.273C29.5574 37.0253 27.8094 37.4478 25.9613 37.4478C19.5036 37.4478 14.2686 32.2894 14.2686 25.9263Z" fill="url(#paint3_radial_246_31324)"/>
<path d="M37.5618 27.3805L37.4808 28.3772L38.4326 28.4546L38.5537 27.5073L37.5618 27.3805ZM33.9984 29.7905L33.1074 30.2446L33.9988 31.9937L34.8895 30.2442L33.9984 29.7905ZM28.8123 34.0088L29.583 33.3716L29.5829 33.3715L28.8123 34.0088ZM31.1112 36.273L31.547 37.173L32.8987 36.5185L31.7735 35.5237L31.1112 36.273ZM25.9613 13.4049C18.9652 13.4049 13.2686 18.9971 13.2686 25.9263H15.2686C15.2686 20.1294 20.0419 15.4049 25.9613 15.4049V13.4049ZM38.654 25.9263C38.654 18.9971 32.9573 13.4049 25.9613 13.4049V15.4049C31.8806 15.4049 36.654 20.1294 36.654 25.9263H38.654ZM38.5537 27.5073C38.6199 26.9891 38.654 26.4614 38.654 25.9263H36.654C36.654 26.3764 36.6254 26.8194 36.5699 27.2537L38.5537 27.5073ZM37.2861 28.3693C37.3519 28.3693 37.4168 28.372 37.4808 28.3772L37.6428 26.3838C37.525 26.3742 37.406 26.3693 37.2861 26.3693V28.3693ZM34.8895 30.2442C35.279 29.4793 35.61 29.0296 35.9516 28.7612C36.259 28.5197 36.6465 28.3693 37.2861 28.3693V26.3693C36.2819 26.3693 35.4363 26.6227 34.7161 27.1884C34.0302 27.7273 33.5393 28.4881 33.1072 29.3368L34.8895 30.2442ZM30.7106 28.3693C31.3502 28.3693 31.7375 28.5197 32.0447 28.7611C32.3864 29.0296 32.7174 29.4794 33.1074 30.2446L34.8893 29.3364C34.457 28.488 33.9661 27.7273 33.2804 27.1885C32.5603 26.6227 31.7149 26.3693 30.7106 26.3693V28.3693ZM28.4229 30.5981C28.4229 29.3845 29.4303 28.3693 30.7106 28.3693V26.3693C28.36 26.3693 26.4229 28.2459 26.4229 30.5981H28.4229ZM29.5829 33.3715C28.8188 32.4477 28.4229 31.5898 28.4229 30.5981H26.4229C26.4229 32.2103 27.0978 33.5049 28.0417 34.6462L29.5829 33.3715ZM31.7735 35.5237C30.8921 34.7446 30.1516 34.0593 29.583 33.3716L28.0416 34.6461C28.7205 35.4672 29.5685 36.2439 30.4488 37.0222L31.7735 35.5237ZM25.9613 38.4478C27.9632 38.4478 29.8599 37.9898 31.547 37.173L30.6754 35.3729C29.2549 36.0607 27.6556 36.4478 25.9613 36.4478V38.4478ZM13.2686 25.9263C13.2686 32.8555 18.9652 38.4478 25.9613 38.4478V36.4478C20.0419 36.4478 15.2686 31.7232 15.2686 25.9263H13.2686Z" fill="url(#paint4_linear_246_31324)" mask="url(#path-4-inside-1_246_31324)"/>
<path d="M39.1159 31.2314C39.1159 32.2079 38.6995 33.0151 38.0347 33.7889C37.415 34.5108 36.5794 35.2041 35.6642 35.9803C35.1275 36.4352 34.5629 36.9187 33.999 37.4528C33.4351 36.9187 32.8712 36.4352 32.3346 35.9803C31.4193 35.2048 30.5844 34.5114 29.9654 33.7895C29.3012 33.0151 28.8848 32.2079 28.8848 31.2314C28.8848 29.8943 30.0298 28.8099 31.4419 28.8099C32.7205 28.8099 33.3594 29.4156 33.999 30.6257C34.638 29.4156 35.2776 28.8099 36.5562 28.8099C37.9708 28.8099 39.1159 29.8943 39.1159 31.2314Z" fill="url(#paint5_linear_246_31324)"/>
<line x1="25" y1="17.2852" x2="25" y2="25.9263" stroke="url(#paint6_linear_246_31324)"/>
<line x1="26.4619" y1="17.2852" x2="26.4619" y2="25.9263" stroke="url(#paint7_linear_246_31324)"/>
<path fill-rule="evenodd" clip-rule="evenodd" d="M33.6976 14.8268C33.1268 15.3894 33.1268 16.3014 33.6976 16.864L35.1592 18.3045C35.73 18.867 36.6555 18.867 37.2262 18.3045C37.797 17.7419 37.797 16.8299 37.2262 16.2673L35.7646 14.8268C35.1939 14.2643 34.2684 14.2643 33.6976 14.8268Z" fill="url(#paint8_linear_246_31324)"/>
<defs>
<linearGradient id="paint0_linear_246_31324" x1="15.9502" y1="2.36366" x2="37.0491" y2="50.614" gradientUnits="userSpaceOnUse">
<stop stop-color="#E0E0E0"/>
<stop offset="1" stop-color="#BBBBBB"/>
</linearGradient>
<linearGradient id="paint1_linear_246_31324" x1="17.032" y1="3.15145" x2="40.6995" y2="57.2216" gradientUnits="userSpaceOnUse">
<stop stop-color="white"/>
<stop offset="1" stop-color="#8B8D8F"/>
</linearGradient>
<linearGradient id="paint2_linear_246_31324" x1="20.7382" y1="5.04264" x2="37.0087" y2="45.4547" gradientUnits="userSpaceOnUse">
<stop stop-color="#BCBCBC"/>
<stop offset="1" stop-color="#F4F4F4"/>
</linearGradient>
<radialGradient id="paint3_radial_246_31324" cx="0" cy="0" r="1" gradientUnits="userSpaceOnUse" gradientTransform="translate(25.9613 14.4049) rotate(90) scale(23.0429 31.576)">
<stop stop-color="#F4F4F4"/>
<stop offset="1" stop-color="#C6C6C6"/>
</radialGradient>
<linearGradient id="paint4_linear_246_31324" x1="21.2665" y1="14.4049" x2="33.1797" y2="41.6928" gradientUnits="userSpaceOnUse">
<stop stop-color="#ECC271"/>
<stop offset="1" stop-color="#7F642E"/>
</linearGradient>
<linearGradient id="paint5_linear_246_31324" x1="31.9464" y1="28.8099" x2="35.947" y2="39.4985" gradientUnits="userSpaceOnUse">
<stop stop-color="#ECC271"/>
<stop offset="1" stop-color="#7F642E"/>
</linearGradient>
<linearGradient id="paint6_linear_246_31324" x1="24.5" y1="19.871" x2="23.0938" y2="19.9431" gradientUnits="userSpaceOnUse">
<stop stop-color="#ECC271"/>
<stop offset="1" stop-color="#7F642E"/>
</linearGradient>
<linearGradient id="paint7_linear_246_31324" x1="25.9619" y1="19.871" x2="23.9691" y2="21.8774" gradientUnits="userSpaceOnUse">
<stop stop-color="#ECC271"/>
<stop offset="1" stop-color="#7F642E"/>
</linearGradient>
<linearGradient id="paint8_linear_246_31324" x1="34.5816" y1="14.4049" x2="36.8162" y2="19.5221" gradientUnits="userSpaceOnUse">
<stop stop-color="#ECC271"/>
<stop offset="1" stop-color="#7F642E"/>
</linearGradient>
</defs>
</svg>
