<svg width="52" height="52" viewBox="0 0 52 52" fill="none" xmlns="http://www.w3.org/2000/svg">
<path fill-rule="evenodd" clip-rule="evenodd" d="M0 23.4234C0 17.9833 1.85456 12.9764 4.96593 9.00031L7.83373 7.58411L8.97996 4.98188C12.9593 1.86089 17.974 0 23.4234 0H28.5766C34.0829 0 39.1454 1.89997 43.1444 5.08008L44.2629 7.57286L46.6367 8.50636C49.9869 12.5579 52 17.7556 52 23.4234V28.5766C52 34.2294 49.9976 39.4145 46.6634 43.4612L43.8041 44.7443L42.8614 47.1414C38.9078 50.1881 33.9538 52 28.5766 52H23.4234C18.2615 52 13.4895 50.3302 9.61821 47.5014L8.34887 44.931L5.52508 43.6872C2.07801 39.6083 0 34.3351 0 28.5766V23.4234Z" fill="url(#paint0_linear_246_31373)"/>
<ellipse cx="26" cy="25.9996" rx="23.1386" ry="23.1386" fill="url(#paint1_linear_246_31373)"/>
<ellipse cx="25.9998" cy="26.0001" rx="19.9471" ry="19.9471" fill="url(#paint2_linear_246_31373)"/>
<path d="M24.4095 32.4746C24.2292 32.1899 24.3344 31.2486 24.4095 30.8136C24.4095 30.7345 24.2517 30.6 23.6208 30.6949C22.8322 30.8136 22.6068 31.7627 22.3814 32.1187C22.1561 32.4746 21.4801 32.4746 21.3674 33.1865C21.2547 33.8983 20.804 33.6611 20.466 33.6611C20.128 33.6611 20.2407 34.8475 19.79 35.0848C19.4294 35.2746 19.2642 35.8757 19.2266 36.1526H18.7759C18.4004 36.2317 17.6267 36.556 17.5365 37.2204C17.4464 37.8848 18.4755 38.4464 19.0013 38.6441C18.6257 38.565 17.807 38.3119 17.5365 37.9322C17.2661 37.5526 17.1985 37.1413 17.1985 36.9831L16.4098 37.9322L16.1845 39.7119C16.1469 39.3164 16.0943 38.4068 16.1845 37.9322C16.2746 37.4577 17.1234 36.7063 17.5365 36.3899L17.3112 36.0339L18.2126 36.1526C18.3628 35.9944 18.7759 35.6068 19.2266 35.3221C19.6773 35.0373 19.8651 34.2543 19.9026 33.8983C19.8651 33.9774 19.6773 34.1594 19.2266 34.2543C18.7759 34.3492 18.2126 34.452 17.9872 34.4916L16.6352 35.4407L15.8465 37.1017L16.1845 35.678C15.9591 35.7571 15.3958 35.7255 14.9451 35.9153C14.4944 36.1051 13.931 36.469 13.7057 36.6272L13.4804 37.695V36.6272C12.917 36.5085 11.9255 36.295 12.4663 36.3899C13.0071 36.4848 13.5179 36.2712 13.7057 36.1526L13.4804 35.4407L13.931 35.9153L15.0578 35.4407L14.4944 35.0848C14.8324 35.1639 15.5986 35.3221 15.9591 35.3221C16.3197 35.3221 17.3112 34.5311 17.6492 34.2543L17.0859 33.1865L18.2126 32.1187C18.0623 32.3164 17.7168 32.8543 17.5365 33.4238C17.3563 33.9933 18.2126 34.1356 18.6633 34.1356L19.452 33.6611L20.466 33.1865C20.9167 32.791 21.8631 31.9526 22.0434 31.7627C22.2237 31.5729 22.5692 30.7345 22.7194 30.339L22.2688 29.8644L20.804 29.5085H19.2266C18.7759 29.5085 18.4379 29.904 18.3252 30.1017L17.3112 30.8136C17.5365 30.4972 18.0323 29.817 18.2126 29.6271C18.3928 29.4373 18.6633 29.3899 18.7759 29.3899L19.5646 29.1526C19.4895 29.113 19.3168 28.9865 19.2266 28.7966C19.1365 28.6068 18.5881 28.6384 18.3252 28.678C17.9121 28.7571 16.9507 28.9627 16.4098 29.1526C15.869 29.3424 15.4333 29.2317 15.2831 29.1526L14.7198 30.1017V30.9322L14.4944 31.4068L14.7198 32.1187L14.0437 31.6441L13.8184 32V31.6441L14.2691 30.9322V30.1017L14.7198 29.3899C14.6446 29.3899 14.3592 29.4136 13.8184 29.5085C13.2776 29.6034 12.7668 30.2599 12.579 30.5763L12.917 31.2882L12.4663 30.8136L11.1143 32L12.241 30.4577L11.6776 30.1017H12.4663L12.917 29.7458L12.4663 29.1526H13.1423C13.5179 29.1526 14.3141 29.1051 14.4944 28.9153C14.6747 28.7254 14.9451 28.678 15.0578 28.678L13.931 28.0848L12.917 27.8475L11.4523 27.3729H12.241H13.1423V26.7797L14.7198 26.1865C14.3817 26.3447 13.6606 26.756 13.4804 27.1356C13.3001 27.5153 13.931 27.6102 14.2691 27.6102L14.9451 28.0848C15.208 28.243 15.869 28.5356 16.4098 28.4407C17.0859 28.3221 17.3112 28.0848 17.7619 27.8475C18.1224 27.6577 18.8886 28.0057 19.2266 28.2034V27.3729C19.2266 26.8983 19.0013 26.8983 19.2266 26.661C19.4069 26.4712 19.9778 26.3446 20.2407 26.3051L20.9167 26.8983L21.3674 28.0848L20.6913 27.6102C20.6913 27.452 20.6012 27.0407 20.2407 26.661C19.79 26.1865 19.5646 26.8983 19.79 27.6102C20.0153 28.3221 20.466 28.7966 21.142 28.7966C21.8181 28.7966 22.8321 29.6271 23.5081 29.3899C24.1842 29.1526 24.2968 28.7966 24.6349 28.9153C24.9053 29.0102 25.4236 29.2712 25.6489 29.3899C25.6489 28.9548 25.6038 28.0848 25.4236 28.0848C25.2433 28.0848 24.8978 27.7684 24.7475 27.6102H23.3955C22.6068 27.6102 21.9307 26.3051 21.4801 25.4746C21.1195 24.8102 20.2782 24.7232 19.9026 24.7627C19.6022 24.9209 19.0463 25.1661 19.2266 24.8814C19.452 24.5254 19.452 24.2882 19.452 24.0509C19.452 23.8136 17.7619 24.2882 17.3112 24.0509C16.9507 23.861 16.3347 23.9718 16.0718 24.0509L15.1704 23.8136C15.0578 24.0113 14.6521 24.5017 13.931 24.8814C13.21 25.261 12.3536 24.9605 12.0156 24.7627C12.5039 24.8023 13.5705 24.8339 13.931 24.6441C14.2916 24.4543 14.4569 23.9322 14.4944 23.6949L13.931 23.2204C14.2315 23.2599 14.9 23.339 15.1704 23.339C15.5085 23.339 15.9591 23.5763 16.1845 23.4576C16.4098 23.339 17.0859 23.339 17.3112 23.2204C17.5365 23.1017 17.3112 22.7458 17.0859 22.3898C16.8605 22.0339 16.7478 21.678 16.6352 21.322C16.545 21.0373 16.2972 20.887 16.1845 20.8475L15.1704 20.9661L16.0718 20.3729L15.5085 18.8305L16.8605 20.9661L17.3112 20.3729L17.0859 21.2034C17.1985 21.4407 17.4915 22.0339 17.7619 22.5085C18.0323 22.9831 18.3252 23.2599 18.4379 23.339H19.452L19.5646 22.7458L19.2266 21.2034C19.452 21.5989 19.9026 22.5322 19.9026 23.1017C19.9026 23.8136 20.128 24.0509 20.804 24.4068C21.3448 24.6915 21.7054 25.0791 21.8181 25.2373C21.8932 25.2373 22.0434 25.1661 22.0434 24.8814C22.0434 24.5254 21.8181 24.0509 22.0434 24.2882C22.2688 24.5254 22.2688 24.8814 22.3814 25.5932C22.4941 26.3051 23.5081 26.7797 24.0715 26.661C24.5222 26.5661 25.3109 26.7006 25.6489 26.7797C25.6489 26.661 25.6038 26.3051 25.4236 25.8305C25.1982 25.2373 24.4095 25.2373 23.9588 24.8814C23.5082 24.5254 23.2828 23.8136 23.0575 22.8644C22.8772 22.1051 22.4565 21.9153 22.2688 21.9153L21.8181 21.2034L20.9167 20.7288L20.804 19.8983L21.142 20.4915L21.8181 20.9661L22.6068 21.5593L21.9307 19.661L21.8181 19.0678H21.142L20.2407 17.8814L19.2266 17.6441L19.9026 17.5254L19.79 16.6949L19.0013 15.5085L19.5646 16.1017L20.128 15.0339L19.9026 16.2203L20.2407 17.2881L20.6913 17.5254L20.804 16.6949C20.8791 16.8927 21.0068 17.3831 20.9167 17.7627C20.8266 18.1424 21.2547 18.5537 21.4801 18.7119L21.8181 18.5932L22.2688 18.8305C22.3814 18.5141 22.6068 17.8339 22.6068 17.6441C22.6068 17.4542 23.0575 16.774 23.2828 16.4576L23.0575 15.7458L23.2828 14.7966V15.7458C23.2828 16.1254 23.5833 16.2203 23.7335 16.2203L24.0715 15.8644L24.1842 15.1525L24.0715 14.2034L24.7475 13.6102L24.2968 14.2034L24.4095 14.678L24.5222 15.7458L25.7616 15.5085C25.386 15.7062 24.5222 16.1492 24.0715 16.339C23.6208 16.5288 23.2077 17.2881 23.0575 17.6441L23.7335 17.7627C23.5833 17.8418 23.1701 18.1424 22.7194 18.7119C22.2688 19.2814 22.4565 20.1356 22.6068 20.4915L22.8321 20.017L23.3955 19.3051L24.7475 19.0678C24.4846 19.1864 23.8687 19.4712 23.5081 19.661C23.0575 19.8983 23.0575 20.4915 23.0575 20.7288C23.0575 20.9187 23.2077 21.7571 23.2828 22.1526L23.9588 21.5593L23.5081 22.5085C23.5833 22.7062 23.7786 23.1729 23.9588 23.4576C24.1842 23.8136 24.9729 24.7627 25.4236 24.8814C25.7841 24.9763 26.2498 25.9492 26.4376 26.4237C26.7005 26.3051 27.2263 25.9492 27.2263 25.4746C27.2263 25 27.677 24.7232 27.7897 24.6441L27.677 23.1017L26.4376 21.9153C26.8507 22.113 27.677 22.4848 27.677 22.3898C27.677 22.2712 27.7897 20.7288 27.677 20.3729C27.5869 20.0881 27.7146 19.6215 27.7897 19.4237L27.4517 18.2373L28.015 18.8305L28.5784 17.8814L28.353 17.0509L28.9164 17.6441L29.4797 16.4576V15.2712L29.9304 16.2203L31.0571 15.2712C30.7567 15.6667 30.1107 16.5051 29.9304 16.6949C29.7051 16.9322 29.4797 17.4068 29.1417 17.7627C28.8713 18.0475 28.4281 18.9887 28.2404 19.4237V20.7288L29.3671 19.8983C29.1793 20.0961 28.7136 20.6102 28.353 21.0848C27.9023 21.678 28.015 22.1526 28.2404 22.5085C28.4657 22.8644 28.1277 23.339 28.353 23.8136C28.5333 24.1932 28.4281 24.6045 28.353 24.7627L29.1417 23.6949L29.4797 22.8644L29.7051 22.3898V23.2204C29.968 23.0622 30.5389 22.6746 30.7191 22.3898C30.8994 22.1051 31.0196 21.7966 31.0571 21.678L31.6205 20.017L31.5078 20.9661C31.6205 21.0057 31.8909 21.061 32.0712 20.9661C32.2515 20.8712 32.7472 19.8983 32.9726 19.4237C33.1979 19.3051 33.6711 18.9729 33.7613 18.5932C33.8514 18.2136 34.0242 18.1977 34.0993 18.2373L34.212 17.0509L34.4373 17.7627L35.7894 17.0509L34.7753 17.8814L34.212 18.4746H35.4513L34.7753 18.5932C34.5124 18.8305 33.8514 19.3763 33.3106 19.661C32.7698 19.9458 32.6345 20.8079 32.6345 21.2034H33.4232C33.8739 21.2034 34.1368 21.0452 34.212 20.9661C34.4373 20.6102 35.0232 19.922 35.564 20.017C36.1048 20.1119 36.6907 20.5311 36.9161 20.7288L38.1555 21.0848C37.7423 21.1639 36.8935 21.2746 36.8034 21.0848C36.7133 20.8949 36.3152 20.7684 36.1274 20.7288V22.1526L35.7894 20.7288C35.7142 20.6497 35.4739 20.4915 35.1133 20.4915C34.6626 20.4915 34.55 21.322 34.0993 21.5593C33.6486 21.7966 32.8599 21.5593 32.1839 21.678C31.5078 21.7966 31.8458 22.2712 32.1839 22.1526C32.5219 22.0339 33.1979 22.3898 33.5359 22.5085C33.8063 22.6034 34.1744 23.339 34.3246 23.6949L33.7613 23.1017C33.5735 23.0226 33.1528 22.8407 32.9726 22.7458C32.7472 22.6271 32.4092 22.5085 32.0712 22.5085C31.7332 22.5085 31.1698 22.6271 31.0571 23.1017C30.967 23.4814 30.5689 23.7345 30.3811 23.8136C30.1933 23.8927 29.7502 24.1695 29.4797 24.6441C29.1417 25.2373 29.1417 25.1187 28.8037 25.5932C28.4657 26.0678 29.1417 25.8305 29.4797 25.8305C29.7502 25.8305 30.4938 25.0396 30.8318 24.6441C30.7191 24.8418 30.4262 25.2848 30.1558 25.4746C29.8178 25.7119 29.3671 26.4237 28.9164 26.4237C28.4657 26.4237 28.5784 26.5424 27.7897 26.8983C27.1587 27.1831 27.3014 27.9661 27.4517 28.4407C27.7521 28.243 28.4206 27.7526 28.691 27.3729C29.0291 26.8984 29.5924 27.2543 29.8178 27.2543C30.0431 27.2543 30.4938 26.8983 30.8318 26.8983C31.1698 26.8983 31.8458 26.661 32.1839 26.661H33.7613C34.212 26.661 34.55 26.4237 35.1133 26.1865C35.6767 25.9492 36.3527 25.8305 36.9161 25.8305C37.4794 25.8305 37.9301 25.5932 38.3808 25.2373C38.7414 24.9526 38.9066 24.3277 38.9442 24.0509L39.0568 24.7627L40.9722 23.8136C40.7469 23.9322 40.2286 24.217 39.9582 24.4068C39.6878 24.5966 38.7939 25.435 38.3808 25.8305L39.9582 26.4237C39.6577 26.3842 38.9892 26.3051 38.7188 26.3051C38.3808 26.3051 37.9301 25.9492 37.5921 26.0678C37.2541 26.1865 36.1274 26.3051 35.7894 26.3051C35.4513 26.3051 35.3387 26.3051 34.888 26.8983C34.6689 27.1866 34.9656 27.5772 35.3585 27.9102C35.466 27.9783 35.5425 28.0348 35.5601 28.0706C35.7585 28.2192 35.9631 28.3484 36.1274 28.4407C35.9396 28.3616 35.564 28.1797 35.564 28.0848C35.564 28.0805 35.5627 28.0757 35.5601 28.0706C35.4915 28.0192 35.4237 27.9655 35.3585 27.9102C35.0499 27.7148 34.4857 27.4239 34.3246 27.2543C34.0993 27.017 34.0993 27.2543 33.5359 27.1356C33.0852 27.0407 32.7472 27.1752 32.6345 27.2543C32.9726 27.6498 33.581 28.3933 33.3106 28.2034C32.9726 27.9661 32.2965 27.3729 31.5078 27.2543C30.8769 27.1594 30.3436 27.452 30.1558 27.6102C29.8929 27.6498 29.322 27.7526 29.1417 27.8475C28.9615 27.9424 29.7426 28.2825 30.1558 28.4407V29.1526L29.8178 30.1017V28.7966C29.8178 28.5119 29.0666 28.4407 28.691 28.4407C28.3906 28.5594 27.7221 29.0102 27.4517 29.8644C27.3615 30.339 27.7897 30.2204 28.015 30.1017C28.015 30.2204 28.0826 30.5526 28.353 30.9322C28.691 31.4068 29.3671 32 29.8178 32C30.1783 32 31.0947 31.5255 31.5078 31.2882L31.8458 29.8644V30.4577V31.2882L32.9726 30.8136L34.3246 29.8644L33.6486 30.8136L34.55 30.5763V30.8136L35.0007 30.9322L35.7894 30.4577C36.4278 30.4972 37.7949 30.5289 38.1555 30.339C38.516 30.1492 38.9066 30.0226 39.0568 30.1017L39.9081 29.5639C40.0083 29.4901 40.1084 29.4294 40.1835 29.3899L39.9081 29.5639C39.7078 29.7115 39.5075 29.9119 39.5075 30.1017C39.5075 30.3865 40.9347 30.3786 41.6483 30.339C41.5356 30.4181 41.1075 30.5763 40.2962 30.5763H39.5075L40.5216 32.1187C40.3713 31.9605 40.0483 31.5966 39.9582 31.4068C39.8681 31.217 39.3197 30.774 39.0568 30.5763C38.7564 30.5368 38.1104 30.5051 37.9301 30.6949C37.7498 30.8848 37.4794 30.8531 37.3668 30.8136L36.3527 30.6949C36.1274 30.7345 35.6541 30.861 35.564 31.0509C35.4739 31.2407 36.4278 31.6836 36.9161 31.8814L37.7048 33.1865C37.517 33.0678 37.0963 32.7594 36.9161 32.4746C36.7358 32.1899 36.1649 31.8023 35.902 31.6441H35.3387C35.1884 31.565 34.6626 31.3831 33.7613 31.2882C32.6345 31.1695 31.9585 31.4068 31.6205 31.6441C31.3501 31.8339 31.8834 31.9605 32.1839 32L33.3106 32.4746C32.9726 32.4746 32.2064 32.4034 31.8458 32.1187C31.3952 31.7627 30.8318 32.1187 30.3811 32.4746C29.9304 32.8305 30.3811 33.5424 30.4938 33.8983C30.5839 34.1831 31.7332 34.6498 32.2965 34.8475L33.1979 34.6102L32.7472 35.0848L33.6486 35.3221L34.55 36.0339L34.888 37.2204C34.7378 36.9435 34.3697 36.3187 34.0993 36.0339C33.8289 35.7492 33.6861 35.8362 33.6486 35.9153V36.3899L33.1979 35.678C33.0477 35.5989 32.7247 35.417 32.6345 35.3221C32.5444 35.2272 31.6205 34.9661 31.1698 34.8475L31.5078 36.6272L31.1698 36.0339L30.8318 36.6272L30.4938 34.6102L30.1558 34.4916L29.8178 34.8475V33.4238C29.8178 32.8305 29.0291 32.5933 28.691 32.4746C28.353 32.356 27.7897 31.4068 27.2263 31.4068C26.6629 31.4068 26.4376 31.7627 26.4376 32.1187C26.4376 32.4746 26.3249 32.7119 26.4376 33.6611C26.5503 34.6102 27.5643 35.5594 28.015 36.6272C28.4657 37.695 28.1277 38.2882 28.015 38.8814C27.9023 39.4746 28.4657 40.0678 28.691 40.3051C28.9164 40.5424 28.9164 41.3729 29.1417 41.9662C29.3671 42.5594 30.4938 42.678 30.8318 42.678C31.1022 42.678 31.3952 42.8362 31.5078 42.9153C31.921 42.9549 32.8374 43.034 33.1979 43.034C33.6486 43.034 33.8739 43.2712 34.4373 43.2712C34.888 43.2712 35.226 43.3503 35.3387 43.3899C35.1133 43.5085 34.6176 43.7458 34.4373 43.7458C34.257 43.7458 33.3857 43.5876 32.9726 43.5085H31.8458C31.7557 43.5085 31.1323 43.4294 30.8318 43.3899H30.1558C30.2309 43.469 30.4713 43.6509 30.8318 43.7458C31.2825 43.8645 31.6205 44.2204 31.9585 44.339C32.2289 44.434 32.597 44.8532 32.7472 45.0509L32.2965 44.8136L31.1698 44.695C30.9069 44.5763 30.3135 44.2678 30.0431 43.9831C29.7727 43.6984 29.4797 43.8645 29.3671 43.9831C29.1417 43.9831 28.646 43.8882 28.4657 43.5085C28.2404 43.0339 27.9023 43.034 27.7897 43.034C27.6995 43.034 27.0761 43.1921 26.7756 43.2712V43.7458C26.7756 43.8645 27.7897 43.9831 27.9023 44.339C28.015 44.695 28.4657 44.5763 28.691 44.695C28.8713 44.7899 29.3671 45.3673 29.5924 45.6441L28.9164 45.5255L28.4657 45.1695H27.7897C27.677 45.0509 27.4066 44.7899 27.2263 44.695C27.046 44.6001 26.8507 44.5763 26.7756 44.5763V45.2882L27.1136 46.0001L26.3249 45.6441V45.2882L26.2123 44.8136L25.9869 44.2204H25.4236L24.7475 44.5763L24.4095 45.1695C24.3344 45.4859 24.1616 46.0238 24.0715 45.6441C23.9814 45.2645 24.1091 44.7741 24.1842 44.5763L24.8602 43.9831L24.7475 43.7458L24.4095 43.9831C24.0339 44.1413 23.1927 44.4814 22.8321 44.5763C22.4716 44.6712 22.3814 45.0114 22.3814 45.1695L21.7054 45.5255C21.7805 45.3673 21.9758 45.0034 22.1561 44.8136C22.3814 44.5763 22.8321 43.9831 23.0575 43.9831C23.2377 43.9831 23.433 43.7458 23.5081 43.6272L24.1842 43.034L24.8075 42.487C24.6995 42.5693 24.4831 42.678 24.1842 42.678C23.7335 42.678 23.1701 43.2712 23.0575 43.2712C22.9448 43.2712 22.3814 43.5085 21.9307 43.6272C21.5702 43.7221 21.2547 44.0622 21.142 44.2204C20.466 44.339 19.2717 44.5051 19.9026 44.2204C20.6913 43.8645 20.128 43.6272 20.6913 43.5085C21.2547 43.3899 21.7054 42.9153 21.4801 42.9153C21.2547 42.9153 20.804 43.1526 20.2407 43.2712C19.79 43.3662 19.5271 43.469 19.452 43.5085L18.4379 43.6272L17.4239 43.5085C17.837 43.469 18.7083 43.295 18.8886 42.9153C19.1139 42.4407 19.1139 42.678 19.9026 42.678C20.6913 42.678 20.9167 42.2034 21.142 42.2034H22.3814C22.6068 42.2034 23.2828 41.3729 23.5081 41.1356C23.7335 40.8984 24.6349 40.4238 24.6349 39.7119C24.6349 39 24.9729 38.8814 25.0855 38.5255C25.1982 38.1695 25.6489 37.9322 25.6489 37.2204C25.6489 36.6509 24.9729 35.1639 24.6349 34.4916C24.6348 33.9379 24.5898 32.7594 24.4095 32.4746Z" fill="url(#paint3_linear_246_31373)"/>
<path d="M23.2915 13.7289C23.1112 13.3492 22.5404 12.3842 22.2775 11.9492C22.1648 12.3842 21.9395 13.3967 21.9395 13.9662C21.9395 14.5357 22.8408 15.3899 23.2915 15.6272C23.3666 15.1526 23.4718 14.1085 23.2915 13.7289Z" fill="url(#paint4_linear_246_31373)"/>
<path d="M19.3668 20.2008C19.1989 19.8578 18.6671 18.9863 18.4223 18.5933C18.3173 18.9863 18.1074 19.9007 18.1074 20.4151C18.1074 20.9295 18.947 21.701 19.3668 21.9154C19.4367 21.4867 19.5347 20.5437 19.3668 20.2008Z" fill="url(#paint5_linear_246_31373)"/>
<path d="M18.2555 14.7578C17.947 14.6252 17.099 14.351 16.7135 14.2304C16.8856 14.5602 17.3072 15.3071 17.6164 15.6566C17.9255 16.0061 18.9012 16.0283 19.286 15.9229C19.0711 15.5898 18.564 14.8904 18.2555 14.7578Z" fill="url(#paint6_linear_246_31373)"/>
<path d="M15.7776 17.7934C15.517 17.4364 14.7267 16.5495 14.3641 16.1506C14.2994 16.6169 14.1906 17.6954 14.2737 18.2794C14.3568 18.8633 15.507 19.5774 16.0544 19.7398C16.0707 19.2397 16.0381 18.1503 15.7776 17.7934Z" fill="url(#paint7_linear_246_31373)"/>
<path d="M32.3225 19.1493C32.3437 18.777 32.3119 17.7786 32.2933 17.3259C32.0261 17.6048 31.4322 18.271 31.1946 18.7043C30.957 19.1377 31.2865 20.2047 31.5305 20.5937C31.7856 20.2674 32.3012 19.5215 32.3225 19.1493Z" fill="url(#paint8_linear_246_31373)"/>
<path d="M39.1661 23.3506C39.1213 23.0671 38.9345 22.323 38.8466 21.9864C38.6914 22.2442 38.3541 22.852 38.2464 23.2205C38.1387 23.589 38.5603 24.3308 38.8071 24.5789C38.9454 24.2876 39.211 23.6341 39.1661 23.3506Z" fill="url(#paint9_linear_246_31373)"/>
<path d="M29.8237 14.2032C29.6435 13.8236 29.0726 12.8586 28.8097 12.4236C28.697 12.8586 28.4717 13.871 28.4717 14.4405C28.4717 15.01 29.3731 15.8643 29.8237 16.1016C29.8989 15.627 30.004 14.5829 29.8237 14.2032Z" fill="url(#paint10_linear_246_31373)"/>
<path d="M27.5474 17.3406C27.3448 17.0903 26.7451 16.4763 26.4706 16.2006C26.4621 16.5496 26.47 17.3547 26.57 17.7829C26.6699 18.211 27.4993 18.6773 27.8807 18.7677C27.854 18.3963 27.7499 17.5908 27.5474 17.3406Z" fill="url(#paint11_linear_246_31373)"/>
<path d="M26.2283 20.9784C25.9587 20.8125 25.2002 20.4413 24.8546 20.2764C24.9559 20.6088 25.2157 21.3661 25.4442 21.7355C25.6728 22.1049 26.6019 22.2569 26.9902 22.2097C26.8486 21.8684 26.4979 21.1442 26.2283 20.9784Z" fill="url(#paint12_linear_246_31373)"/>
<path d="M35.6414 22.6441C35.7043 22.9662 35.9487 23.8085 36.063 24.1895C36.2302 23.888 36.5918 23.1786 36.7002 22.7527C36.8086 22.3268 36.2953 21.4973 36.0026 21.2245C35.856 21.5635 35.5784 22.3221 35.6414 22.6441Z" fill="url(#paint13_linear_246_31373)"/>
<path d="M35.6013 28.4815C35.8976 28.5852 36.7126 28.7835 37.083 28.8697C36.9187 28.5665 36.5161 27.882 36.22 27.5702C35.9239 27.2585 34.9851 27.3118 34.6144 27.4423C34.8199 27.7455 35.3049 28.3779 35.6013 28.4815Z" fill="url(#paint14_linear_246_31373)"/>
<path d="M37.7739 33.8616C38.0431 34.0281 38.8008 34.4012 39.1461 34.567C39.0455 34.2343 38.7873 33.4764 38.5596 33.1064C38.3318 32.7364 37.4031 32.5822 37.0147 32.6284C37.1556 32.9701 37.5046 33.6951 37.7739 33.8616Z" fill="url(#paint15_linear_246_31373)"/>
<path d="M40.2661 32.6837C40.49 32.9128 41.1418 33.4648 41.4397 33.7122C41.4171 33.3639 41.3375 32.5631 41.1998 32.1467C41.062 31.7303 40.1948 31.3481 39.807 31.2958C39.8667 31.6629 40.0421 32.4546 40.2661 32.6837Z" fill="url(#paint16_linear_246_31373)"/>
<path d="M35.1744 30.0861C35.4246 29.8519 36.0365 29.1613 36.3111 28.8453C35.9556 28.8434 35.1361 28.8702 34.7025 28.9925C34.2688 29.1149 33.8125 30.0614 33.7289 30.4939C34.1065 30.4555 34.9241 30.3202 35.1744 30.0861Z" fill="url(#paint17_linear_246_31373)"/>
<path d="M41.9094 30.6785C42.2277 30.5694 43.0509 30.1946 43.4228 30.0208C43.0977 29.8691 42.3366 29.5482 41.8927 29.4774C41.4488 29.4067 40.6708 30.0817 40.4297 30.4427C40.7903 30.5668 41.591 30.7875 41.9094 30.6785Z" fill="url(#paint18_linear_246_31373)"/>
<path d="M32.4867 29.4964C32.5272 29.1465 32.5522 28.2024 32.5596 27.7741C32.2918 28.0204 31.6941 28.6113 31.4458 29.0052C31.1975 29.399 31.45 30.4267 31.659 30.8092C31.918 30.5174 32.4461 29.8464 32.4867 29.4964Z" fill="url(#paint19_linear_246_31373)"/>
<path d="M33.5411 31.8736C33.8691 31.9447 34.7268 32.2206 35.1147 32.3497C34.8077 32.5385 34.0853 32.9468 33.6517 33.0691C33.218 33.1915 32.3734 32.612 32.0957 32.2815C32.4408 32.1159 33.2132 31.8026 33.5411 31.8736Z" fill="url(#paint20_linear_246_31373)"/>
<path d="M34.291 34.7531C34.6119 34.5499 35.4193 33.9233 35.7829 33.6355C35.3925 33.5563 34.4865 33.4082 33.9859 33.4488C33.4853 33.4893 32.7988 34.431 32.6224 34.8882C33.0449 34.9278 33.9702 34.9563 34.291 34.7531Z" fill="url(#paint21_linear_246_31373)"/>
<path d="M31.4936 38.1519C31.6614 38.5044 32.1927 39.4002 32.4374 39.804C32.5422 39.4002 32.752 38.4603 32.752 37.9316C32.752 37.403 31.913 36.61 31.4936 36.3897C31.4237 36.8303 31.3258 37.7995 31.4936 38.1519Z" fill="url(#paint22_linear_246_31373)"/>
<path d="M34.6341 38.0967C34.7741 38.3907 35.2172 39.1378 35.4212 39.4745C35.5087 39.1378 35.6836 38.3539 35.6836 37.913C35.6836 37.4721 34.984 36.8108 34.6341 36.6271C34.5758 36.9945 34.4942 37.8028 34.6341 38.0967Z" fill="url(#paint23_linear_246_31373)"/>
<path d="M33.2092 28.6856C33.3848 28.8408 33.8902 29.2087 34.121 29.3732C34.0868 29.1193 33.9879 28.5371 33.866 28.2399C33.744 27.9426 33.0894 27.7112 32.8027 27.6947C32.865 27.9603 33.0335 28.5303 33.2092 28.6856Z" fill="url(#paint24_linear_246_31373)"/>
<path d="M40.3198 29.4933C40.4597 29.302 40.7872 28.7546 40.9335 28.5049C40.694 28.5516 40.1459 28.6804 39.869 28.8213C39.5921 28.9622 39.4004 29.6608 39.3969 29.9631C39.6462 29.8862 40.1799 29.6847 40.3198 29.4933Z" fill="url(#paint25_linear_246_31373)"/>
<path d="M30.3501 37.3544C30.3366 37.5955 30.3579 38.242 30.3702 38.5351C30.5433 38.3547 30.9279 37.9238 31.0817 37.6434C31.2354 37.3629 31.0211 36.6717 30.8626 36.4196C30.6974 36.6308 30.3636 37.1133 30.3501 37.3544Z" fill="url(#paint26_linear_246_31373)"/>
<path d="M18.5492 16.9824C18.2577 16.95 17.4725 16.9404 17.1163 16.9396C17.3248 17.183 17.8246 17.7256 18.1555 17.9489C18.4864 18.1723 19.3373 17.9249 19.6523 17.7268C19.4061 17.4922 18.8407 17.0148 18.5492 16.9824Z" fill="url(#paint27_linear_246_31373)"/>
<path d="M13.9775 22.3168C13.7217 22.166 13.0036 21.8314 12.6765 21.6829C12.7771 21.9931 13.0334 22.6992 13.254 23.0418C13.4746 23.3843 14.3491 23.51 14.7128 23.4587C14.5743 23.1409 14.2333 22.4675 13.9775 22.3168Z" fill="url(#paint28_linear_246_31373)"/>
<path d="M14.1354 21.3321C13.7603 21.2564 12.7778 20.9558 12.3334 20.815C12.6808 20.5945 13.4987 20.1169 13.9915 19.9702C14.4844 19.8235 15.4564 20.4706 15.7782 20.843C15.3869 21.0375 14.5105 21.4077 14.1354 21.3321Z" fill="url(#paint29_linear_246_31373)"/>
<path d="M11.2024 26.9474C10.889 26.9287 10.0485 26.9614 9.66751 26.9801C9.90257 27.2291 10.464 27.7821 10.829 28.0029C11.1941 28.2237 12.092 27.9125 12.4193 27.6833C12.1442 27.4458 11.5158 26.9661 11.2024 26.9474Z" fill="url(#paint30_linear_246_31373)"/>
<path d="M11.3358 24.1744C10.9543 24.1563 9.93237 24.2086 9.46909 24.237C9.75838 24.5364 10.4487 25.2008 10.8958 25.464C11.3428 25.7271 12.4309 25.3352 12.826 25.0516C12.4882 24.7668 11.7174 24.1926 11.3358 24.1744Z" fill="url(#paint31_linear_246_31373)"/>
<path d="M11.5846 35.315C11.2073 35.2526 10.1862 35.1854 9.72276 35.1597C9.97881 35.4909 10.5951 36.2317 11.0117 36.5453C11.4283 36.859 12.551 36.5963 12.9734 36.3605C12.6677 36.038 11.9619 35.3775 11.5846 35.315Z" fill="url(#paint32_linear_246_31373)"/>
<path d="M16.5847 30.6278C16.3183 30.8487 15.6603 31.5081 15.3646 31.8102C15.7239 31.8346 16.5539 31.8595 16.9993 31.7633C17.4447 31.6671 17.9601 30.739 18.0694 30.3071C17.6855 30.322 16.8511 30.4069 16.5847 30.6278Z" fill="url(#paint33_linear_246_31373)"/>
<path d="M19.6077 37.9689C19.9354 38.0603 20.7879 38.3905 21.1732 38.5442C20.8526 38.7168 20.1002 39.0865 19.6551 39.1844C19.21 39.2822 18.3872 38.6458 18.1241 38.295C18.482 38.1482 19.2799 37.8775 19.6077 37.9689Z" fill="url(#paint34_linear_246_31373)"/>
<path d="M13.2683 34.2987C13.0431 34.0318 12.3789 33.3793 12.075 33.0864C12.0732 33.4656 12.0989 34.3395 12.2166 34.802C12.3343 35.2644 13.2446 35.7511 13.6606 35.8402C13.6237 35.4376 13.4936 34.5656 13.2683 34.2987Z" fill="url(#paint35_linear_246_31373)"/>
<path d="M15.0046 37.3723C14.8238 37.6364 14.4046 38.3883 14.2176 38.7313C14.5383 38.6577 15.2715 38.4598 15.6389 38.2576C16.0062 38.0554 16.2364 37.1058 16.229 36.6984C15.8962 36.813 15.1853 37.1083 15.0046 37.3723Z" fill="url(#paint36_linear_246_31373)"/>
<path d="M12.7499 38.1547C12.7271 38.4793 12.7435 39.3511 12.7546 39.7464C12.9913 39.5069 13.5178 38.9343 13.7304 38.5596C13.9429 38.1849 13.6672 37.2488 13.4585 36.9057C13.2318 37.1868 12.7727 37.8301 12.7499 38.1547Z" fill="url(#paint37_linear_246_31373)"/>
<path d="M10.7712 29.4876C10.4372 29.4718 9.54262 29.5175 9.13708 29.5424C9.39032 29.8044 9.99463 30.3861 10.386 30.6164C10.7773 30.8468 11.7298 30.5038 12.0756 30.2555C11.78 30.0061 11.1052 29.5035 10.7712 29.4876Z" fill="url(#paint38_linear_246_31373)"/>
<path d="M10.614 32.3133C10.4996 32.6442 10.2732 33.5567 10.1743 33.9715C10.4875 33.7956 11.1955 33.3626 11.5214 33.0384C11.8473 32.7142 11.8217 31.6545 11.7003 31.2327C11.3858 31.4551 10.7283 31.9825 10.614 32.3133Z" fill="url(#paint39_linear_246_31373)"/>
<path d="M25.9603 14.1909C26.3123 13.984 27.3001 13.5251 27.75 13.3215C27.6104 13.7478 27.2552 14.7181 26.9507 15.1887C26.6461 15.6593 25.4444 15.8307 24.9451 15.7596C25.1368 15.3228 25.6083 14.3977 25.9603 14.1909Z" fill="url(#paint40_linear_246_31373)"/>
<path d="M25.7611 13.1912C25.9508 12.8166 26.3675 11.7678 26.5521 11.2902C26.15 11.4453 25.2356 11.838 24.7947 12.1677C24.3537 12.4974 24.2141 13.7658 24.2912 14.2902C24.7022 14.0799 25.5715 13.5658 25.7611 13.1912Z" fill="url(#paint41_linear_246_31373)"/>
<path d="M20.7202 14.4865C20.774 14.1057 20.827 13.0761 20.8468 12.6089C20.548 12.8702 19.8802 13.4987 19.5987 13.9216C19.3171 14.3446 19.5643 15.4732 19.7818 15.8965C20.0722 15.5851 20.6664 14.8673 20.7202 14.4865Z" fill="url(#paint42_linear_246_31373)"/>
<path d="M17.8764 19.5886C17.895 19.2676 17.8682 18.4067 17.8525 18.0164C17.6219 18.2567 17.1094 18.8306 16.9042 19.2041C16.6991 19.5776 16.9825 20.4979 17.1926 20.8335C17.4128 20.5523 17.8579 19.9096 17.8764 19.5886Z" fill="url(#paint43_linear_246_31373)"/>
<path d="M14.6327 32.838C14.8065 33.0444 15.319 33.549 15.5535 33.7755C15.5547 33.4825 15.5344 32.8071 15.4435 32.4496C15.3525 32.0922 14.6503 31.7156 14.3295 31.6465C14.3582 31.9577 14.4589 32.6316 14.6327 32.838Z" fill="url(#paint44_linear_246_31373)"/>
<path d="M15.545 39.683C15.4621 39.9447 15.3034 40.6643 15.2343 40.9914C15.4759 40.846 16.0213 40.4899 16.2698 40.2282C16.5183 39.9665 16.4769 39.1379 16.3733 38.8108C16.1317 38.9925 15.6278 39.4213 15.545 39.683Z" fill="url(#paint45_linear_246_31373)"/>
<path d="M15.163 26.358C15.3978 26.1523 15.975 25.5419 16.2343 25.2625C15.91 25.2502 15.1618 25.2503 14.7629 25.3488C14.364 25.4473 13.9215 26.2952 13.8333 26.6863C14.1787 26.6626 14.9283 26.5637 15.163 26.358Z" fill="url(#paint46_linear_246_31373)"/>
<path d="M12.4269 32.3421C12.4881 32.6571 12.7262 33.4812 12.8376 33.8539C13.0011 33.5588 13.3545 32.8644 13.4606 32.4476C13.5666 32.0308 13.066 31.2196 12.7804 30.9529C12.6371 31.2846 12.3657 32.027 12.4269 32.3421Z" fill="url(#paint47_linear_246_31373)"/>
<path d="M31.6303 15.0896C31.8199 14.715 32.2366 13.6662 32.4213 13.1886C32.0192 13.3437 31.1048 13.7364 30.6638 14.0661C30.2228 14.3957 30.0832 15.6642 30.1604 16.1885C30.5713 15.9783 31.4407 15.4641 31.6303 15.0896Z" fill="url(#paint48_linear_246_31373)"/>
<path d="M36.5815 16.5131C36.7711 16.1385 37.1878 15.0897 37.3724 14.6121C36.9704 14.7672 36.0559 15.1599 35.615 15.4896C35.174 15.8193 35.0344 17.0877 35.1115 17.6121C35.5225 17.4018 36.3918 16.8877 36.5815 16.5131Z" fill="url(#paint49_linear_246_31373)"/>
<path d="M39.2806 21.2035C39.6412 21.0136 40.5576 20.4125 40.9707 20.1357C40.5576 20.017 39.5961 19.7797 39.0553 19.7797C38.5145 19.7797 37.7032 20.7289 37.4779 21.2035C37.9286 21.2826 38.9201 21.3933 39.2806 21.2035Z" fill="url(#paint50_linear_246_31373)"/>
<path d="M40.1007 27.2854C40.4964 27.3663 41.5709 27.4776 42.0587 27.5232C41.7998 27.164 41.1747 26.359 40.7459 26.012C40.3171 25.6649 39.1246 25.897 38.6713 26.1287C38.9829 26.4806 39.705 27.2046 40.1007 27.2854Z" fill="url(#paint51_linear_246_31373)"/>
<path d="M34.9632 16.2764C34.953 15.9018 34.8371 14.9056 34.7804 14.4544C34.5364 14.7585 33.9982 15.4806 33.7969 15.9365C33.5957 16.3924 34.0153 17.4295 34.2923 17.796C34.5201 17.4456 34.9733 16.651 34.9632 16.2764Z" fill="url(#paint52_linear_246_31373)"/>
<path d="M40.3844 23.0848C40.6813 22.8783 41.5223 22.4059 41.9056 22.1955C41.8094 22.5805 41.5573 23.4592 41.3186 23.8946C41.0799 24.33 40.0327 24.5641 39.5886 24.5361C39.7302 24.1383 40.0874 23.2912 40.3844 23.0848Z" fill="url(#paint53_linear_246_31373)"/>
<path d="M30.0982 20.0323C30.3317 19.7657 30.891 18.9933 31.1414 18.6404C30.7772 18.6773 29.9409 18.7943 29.5088 18.9667C29.0767 19.1392 28.7015 20.1561 28.658 20.6071C29.0408 20.5266 29.8648 20.299 30.0982 20.0323Z" fill="url(#paint54_linear_246_31373)"/>
<path d="M25.508 19.4159C25.8234 19.2704 26.6302 18.7994 26.9941 18.5821C26.6465 18.462 25.8359 18.2155 25.3744 18.1908C24.9129 18.166 24.1816 18.9388 23.9697 19.3334C24.351 19.4215 25.1925 19.5614 25.508 19.4159Z" fill="url(#paint55_linear_246_31373)"/>
<path d="M35.2622 23.7242C35.5017 23.9848 36.0785 24.7429 36.337 25.0893C35.9721 25.0616 35.1333 24.9659 34.6974 24.8045C34.2615 24.6431 33.8631 23.6359 33.8092 23.1862C34.1938 23.2569 35.0227 23.4636 35.2622 23.7242Z" fill="url(#paint56_linear_246_31373)"/>
<path d="M36.0955 18.8185C36.4205 18.6986 37.2588 18.2933 37.6373 18.1057C37.2994 17.9582 36.5088 17.6477 36.0505 17.5862C35.5921 17.5248 34.8072 18.237 34.5676 18.6136C34.9414 18.7318 35.7704 18.9384 36.0955 18.8185Z" fill="url(#paint57_linear_246_31373)"/>
<defs>
<linearGradient id="paint0_linear_246_31373" x1="15.6275" y1="2.06367" x2="37.1703" y2="50.7346" gradientUnits="userSpaceOnUse">
<stop stop-color="#E0E0E0"/>
<stop offset="1" stop-color="#BBBBBB"/>
</linearGradient>
<linearGradient id="paint1_linear_246_31373" x1="16.7094" y1="2.86098" x2="40.8748" y2="57.4021" gradientUnits="userSpaceOnUse">
<stop stop-color="white"/>
<stop offset="1" stop-color="#8B8D8F"/>
</linearGradient>
<linearGradient id="paint2_linear_246_31373" x1="20.9082" y1="5.3415" x2="37.1702" y2="45.1493" gradientUnits="userSpaceOnUse">
<stop stop-color="#BCBCBC"/>
<stop offset="1" stop-color="#F4F4F4"/>
</linearGradient>
<linearGradient id="paint3_linear_246_31373" x1="20.2513" y1="13.6101" x2="37.8316" y2="51.0151" gradientUnits="userSpaceOnUse">
<stop stop-color="#ECC271"/>
<stop offset="1" stop-color="#7F642E"/>
</linearGradient>
<linearGradient id="paint4_linear_246_31373" x1="22.3738" y1="11.9492" x2="24.9494" y2="14.2435" gradientUnits="userSpaceOnUse">
<stop stop-color="#ECC271"/>
<stop offset="1" stop-color="#7F642E"/>
</linearGradient>
<linearGradient id="paint5_linear_246_31373" x1="18.512" y1="18.5933" x2="20.8455" y2="20.7369" gradientUnits="userSpaceOnUse">
<stop stop-color="#ECC271"/>
<stop offset="1" stop-color="#7F642E"/>
</linearGradient>
<linearGradient id="paint6_linear_246_31373" x1="16.7682" y1="14.1767" x2="19.4745" y2="14.0868" gradientUnits="userSpaceOnUse">
<stop stop-color="#ECC271"/>
<stop offset="1" stop-color="#7F642E"/>
</linearGradient>
<linearGradient id="paint7_linear_246_31373" x1="14.4738" y1="16.1333" x2="17.5006" y2="18.3492" gradientUnits="userSpaceOnUse">
<stop stop-color="#ECC271"/>
<stop offset="1" stop-color="#7F642E"/>
</linearGradient>
<linearGradient id="paint8_linear_246_31373" x1="32.3667" y1="17.3705" x2="33.3086" y2="20.3272" gradientUnits="userSpaceOnUse">
<stop stop-color="#ECC271"/>
<stop offset="1" stop-color="#7F642E"/>
</linearGradient>
<linearGradient id="paint9_linear_246_31373" x1="38.909" y1="22.0066" x2="40.1303" y2="24.0381" gradientUnits="userSpaceOnUse">
<stop stop-color="#ECC271"/>
<stop offset="1" stop-color="#7F642E"/>
</linearGradient>
<linearGradient id="paint10_linear_246_31373" x1="28.9061" y1="12.4236" x2="31.4817" y2="14.7179" gradientUnits="userSpaceOnUse">
<stop stop-color="#ECC271"/>
<stop offset="1" stop-color="#7F642E"/>
</linearGradient>
<linearGradient id="paint11_linear_246_31373" x1="26.5432" y1="16.1818" x2="28.8734" y2="17.4299" gradientUnits="userSpaceOnUse">
<stop stop-color="#ECC271"/>
<stop offset="1" stop-color="#7F642E"/>
</linearGradient>
<linearGradient id="paint12_linear_246_31373" x1="24.9173" y1="20.2334" x2="27.4961" y2="20.6721" gradientUnits="userSpaceOnUse">
<stop stop-color="#ECC271"/>
<stop offset="1" stop-color="#7F642E"/>
</linearGradient>
<linearGradient id="paint13_linear_246_31373" x1="35.9907" y1="24.1691" x2="34.511" y2="21.899" gradientUnits="userSpaceOnUse">
<stop stop-color="#ECC271"/>
<stop offset="1" stop-color="#7F642E"/>
</linearGradient>
<linearGradient id="paint14_linear_246_31373" x1="37.0301" y1="28.9254" x2="34.4192" y2="29.0016" gradientUnits="userSpaceOnUse">
<stop stop-color="#ECC271"/>
<stop offset="1" stop-color="#7F642E"/>
</linearGradient>
<linearGradient id="paint15_linear_246_31373" x1="39.0833" y1="34.6098" x2="36.5053" y2="34.1654" gradientUnits="userSpaceOnUse">
<stop stop-color="#ECC271"/>
<stop offset="1" stop-color="#7F642E"/>
</linearGradient>
<linearGradient id="paint16_linear_246_31373" x1="41.3691" y1="33.7381" x2="38.9442" y2="32.711" gradientUnits="userSpaceOnUse">
<stop stop-color="#ECC271"/>
<stop offset="1" stop-color="#7F642E"/>
</linearGradient>
<linearGradient id="paint17_linear_246_31373" x1="36.3318" y1="28.9269" x2="34.8974" y2="31.4631" gradientUnits="userSpaceOnUse">
<stop stop-color="#ECC271"/>
<stop offset="1" stop-color="#7F642E"/>
</linearGradient>
<linearGradient id="paint18_linear_246_31373" x1="43.4108" y1="30.1043" x2="41.1229" y2="31.8113" gradientUnits="userSpaceOnUse">
<stop stop-color="#ECC271"/>
<stop offset="1" stop-color="#7F642E"/>
</linearGradient>
<linearGradient id="paint19_linear_246_31373" x1="32.6264" y1="27.8208" x2="33.3304" y2="30.676" gradientUnits="userSpaceOnUse">
<stop stop-color="#ECC271"/>
<stop offset="1" stop-color="#7F642E"/>
</linearGradient>
<linearGradient id="paint20_linear_246_31373" x1="35.0939" y1="32.2681" x2="32.6462" y2="30.8291" gradientUnits="userSpaceOnUse">
<stop stop-color="#ECC271"/>
<stop offset="1" stop-color="#7F642E"/>
</linearGradient>
<linearGradient id="paint21_linear_246_31373" x1="35.7898" y1="33.7296" x2="33.7012" y2="36.1929" gradientUnits="userSpaceOnUse">
<stop stop-color="#ECC271"/>
<stop offset="1" stop-color="#7F642E"/>
</linearGradient>
<linearGradient id="paint22_linear_246_31373" x1="32.3477" y1="39.804" x2="29.956" y2="37.6681" gradientUnits="userSpaceOnUse">
<stop stop-color="#ECC271"/>
<stop offset="1" stop-color="#7F642E"/>
</linearGradient>
<linearGradient id="paint23_linear_246_31373" x1="35.3464" y1="39.4746" x2="33.3518" y2="37.6932" gradientUnits="userSpaceOnUse">
<stop stop-color="#ECC271"/>
<stop offset="1" stop-color="#7F642E"/>
</linearGradient>
<linearGradient id="paint24_linear_246_31373" x1="34.0705" y1="29.3961" x2="32.2458" y2="28.7695" gradientUnits="userSpaceOnUse">
<stop stop-color="#ECC271"/>
<stop offset="1" stop-color="#7F642E"/>
</linearGradient>
<linearGradient id="paint25_linear_246_31373" x1="40.9574" y1="28.557" x2="40.3259" y2="30.4655" gradientUnits="userSpaceOnUse">
<stop stop-color="#ECC271"/>
<stop offset="1" stop-color="#7F642E"/>
</linearGradient>
<linearGradient id="paint26_linear_246_31373" x1="30.3227" y1="38.5062" x2="29.7148" y2="36.5893" gradientUnits="userSpaceOnUse">
<stop stop-color="#ECC271"/>
<stop offset="1" stop-color="#7F642E"/>
</linearGradient>
<linearGradient id="paint27_linear_246_31373" x1="17.1542" y1="16.8773" x2="19.5462" y2="16.3065" gradientUnits="userSpaceOnUse">
<stop stop-color="#ECC271"/>
<stop offset="1" stop-color="#7F642E"/>
</linearGradient>
<linearGradient id="paint28_linear_246_31373" x1="12.7346" y1="21.6414" x2="15.1618" y2="22.0106" gradientUnits="userSpaceOnUse">
<stop stop-color="#ECC271"/>
<stop offset="1" stop-color="#7F642E"/>
</linearGradient>
<linearGradient id="paint29_linear_246_31373" x1="12.3583" y1="20.9077" x2="15.1707" y2="22.5108" gradientUnits="userSpaceOnUse">
<stop stop-color="#ECC271"/>
<stop offset="1" stop-color="#7F642E"/>
</linearGradient>
<linearGradient id="paint30_linear_246_31373" x1="9.70496" y1="26.9115" x2="12.2388" y2="26.1809" gradientUnits="userSpaceOnUse">
<stop stop-color="#ECC271"/>
<stop offset="1" stop-color="#7F642E"/>
</linearGradient>
<linearGradient id="paint31_linear_246_31373" x1="9.51373" y1="24.1529" x2="12.5872" y2="23.2297" gradientUnits="userSpaceOnUse">
<stop stop-color="#ECC271"/>
<stop offset="1" stop-color="#7F642E"/>
</linearGradient>
<linearGradient id="paint32_linear_246_31373" x1="9.77597" y1="35.0813" x2="12.9216" y2="34.4899" gradientUnits="userSpaceOnUse">
<stop stop-color="#ECC271"/>
<stop offset="1" stop-color="#7F642E"/>
</linearGradient>
<linearGradient id="paint33_linear_246_31373" x1="15.3483" y1="31.7264" x2="16.9504" y2="29.2578" gradientUnits="userSpaceOnUse">
<stop stop-color="#ECC271"/>
<stop offset="1" stop-color="#7F642E"/>
</linearGradient>
<linearGradient id="paint34_linear_246_31373" x1="21.1566" y1="38.4604" x2="18.7549" y2="36.8653" gradientUnits="userSpaceOnUse">
<stop stop-color="#ECC271"/>
<stop offset="1" stop-color="#7F642E"/>
</linearGradient>
<linearGradient id="paint35_linear_246_31373" x1="12.1535" y1="33.0643" x2="14.7083" y2="34.3675" gradientUnits="userSpaceOnUse">
<stop stop-color="#ECC271"/>
<stop offset="1" stop-color="#7F642E"/>
</linearGradient>
<linearGradient id="paint36_linear_246_31373" x1="14.1833" y1="38.6622" x2="14.9503" y2="36.0609" gradientUnits="userSpaceOnUse">
<stop stop-color="#ECC271"/>
<stop offset="1" stop-color="#7F642E"/>
</linearGradient>
<linearGradient id="paint37_linear_246_31373" x1="12.691" y1="39.7064" x2="11.9116" y2="37.1092" gradientUnits="userSpaceOnUse">
<stop stop-color="#ECC271"/>
<stop offset="1" stop-color="#7F642E"/>
</linearGradient>
<linearGradient id="paint38_linear_246_31373" x1="9.17615" y1="29.4688" x2="11.8667" y2="28.6606" gradientUnits="userSpaceOnUse">
<stop stop-color="#ECC271"/>
<stop offset="1" stop-color="#7F642E"/>
</linearGradient>
<linearGradient id="paint39_linear_246_31373" x1="10.1193" y1="33.9102" x2="10.1123" y2="30.9653" gradientUnits="userSpaceOnUse">
<stop stop-color="#ECC271"/>
<stop offset="1" stop-color="#7F642E"/>
</linearGradient>
<linearGradient id="paint40_linear_246_31373" x1="27.6703" y1="13.2643" x2="24.3339" y2="13.7603" gradientUnits="userSpaceOnUse">
<stop stop-color="#ECC271"/>
<stop offset="1" stop-color="#7F642E"/>
</linearGradient>
<linearGradient id="paint41_linear_246_31373" x1="26.6079" y1="11.373" x2="26.1024" y2="14.8809" gradientUnits="userSpaceOnUse">
<stop stop-color="#ECC271"/>
<stop offset="1" stop-color="#7F642E"/>
</linearGradient>
<linearGradient id="paint42_linear_246_31373" x1="20.9183" y1="12.6617" x2="21.6086" y2="15.797" gradientUnits="userSpaceOnUse">
<stop stop-color="#ECC271"/>
<stop offset="1" stop-color="#7F642E"/>
</linearGradient>
<linearGradient id="paint43_linear_246_31373" x1="17.9157" y1="18.0549" x2="18.7258" y2="20.6051" gradientUnits="userSpaceOnUse">
<stop stop-color="#ECC271"/>
<stop offset="1" stop-color="#7F642E"/>
</linearGradient>
<linearGradient id="paint44_linear_246_31373" x1="15.493" y1="33.7926" x2="13.5198" y2="32.7892" gradientUnits="userSpaceOnUse">
<stop stop-color="#ECC271"/>
<stop offset="1" stop-color="#7F642E"/>
</linearGradient>
<linearGradient id="paint45_linear_246_31373" x1="15.1901" y1="40.9448" x2="15.1124" y2="38.6408" gradientUnits="userSpaceOnUse">
<stop stop-color="#ECC271"/>
<stop offset="1" stop-color="#7F642E"/>
</linearGradient>
<linearGradient id="paint46_linear_246_31373" x1="16.2509" y1="25.3373" x2="14.8744" y2="27.6043" gradientUnits="userSpaceOnUse">
<stop stop-color="#ECC271"/>
<stop offset="1" stop-color="#7F642E"/>
</linearGradient>
<linearGradient id="paint47_linear_246_31373" x1="12.7671" y1="33.834" x2="11.3181" y2="31.6175" gradientUnits="userSpaceOnUse">
<stop stop-color="#ECC271"/>
<stop offset="1" stop-color="#7F642E"/>
</linearGradient>
<linearGradient id="paint48_linear_246_31373" x1="32.4771" y1="13.2713" x2="31.9716" y2="16.7793" gradientUnits="userSpaceOnUse">
<stop stop-color="#ECC271"/>
<stop offset="1" stop-color="#7F642E"/>
</linearGradient>
<linearGradient id="paint49_linear_246_31373" x1="37.4282" y1="14.6949" x2="36.9228" y2="18.2028" gradientUnits="userSpaceOnUse">
<stop stop-color="#ECC271"/>
<stop offset="1" stop-color="#7F642E"/>
</linearGradient>
<linearGradient id="paint50_linear_246_31373" x1="40.9707" y1="20.2371" x2="38.5388" y2="22.6993" gradientUnits="userSpaceOnUse">
<stop stop-color="#ECC271"/>
<stop offset="1" stop-color="#7F642E"/>
</linearGradient>
<linearGradient id="paint51_linear_246_31373" x1="42" y1="27.6036" x2="38.6665" y2="28.1215" gradientUnits="userSpaceOnUse">
<stop stop-color="#ECC271"/>
<stop offset="1" stop-color="#7F642E"/>
</linearGradient>
<linearGradient id="paint52_linear_246_31373" x1="34.8575" y1="14.4921" x2="36.0692" y2="17.3547" gradientUnits="userSpaceOnUse">
<stop stop-color="#ECC271"/>
<stop offset="1" stop-color="#7F642E"/>
</linearGradient>
<linearGradient id="paint53_linear_246_31373" x1="41.832" y1="22.1507" x2="38.9211" y2="22.7974" gradientUnits="userSpaceOnUse">
<stop stop-color="#ECC271"/>
<stop offset="1" stop-color="#7F642E"/>
</linearGradient>
<linearGradient id="paint54_linear_246_31373" x1="31.1706" y1="18.7214" x2="29.9727" y2="21.48" gradientUnits="userSpaceOnUse">
<stop stop-color="#ECC271"/>
<stop offset="1" stop-color="#7F642E"/>
</linearGradient>
<linearGradient id="paint55_linear_246_31373" x1="26.9899" y1="18.6687" x2="24.8137" y2="20.6588" gradientUnits="userSpaceOnUse">
<stop stop-color="#ECC271"/>
<stop offset="1" stop-color="#7F642E"/>
</linearGradient>
<linearGradient id="paint56_linear_246_31373" x1="36.3643" y1="25.0075" x2="35.0991" y2="22.2823" gradientUnits="userSpaceOnUse">
<stop stop-color="#ECC271"/>
<stop offset="1" stop-color="#7F642E"/>
</linearGradient>
<linearGradient id="paint57_linear_246_31373" x1="37.6269" y1="18.1917" x2="35.3161" y2="20.0054" gradientUnits="userSpaceOnUse">
<stop stop-color="#ECC271"/>
<stop offset="1" stop-color="#7F642E"/>
</linearGradient>
</defs>
</svg>
