<svg width="52" height="52" viewBox="0 0 52 52" fill="none" xmlns="http://www.w3.org/2000/svg">
<path fill-rule="evenodd" clip-rule="evenodd" d="M0 23.4234C0 17.9833 1.85456 12.9764 4.96593 9.00031L7.83373 7.58411L8.97996 4.98188C12.9593 1.86089 17.974 0 23.4234 0H28.5766C34.0829 0 39.1454 1.89997 43.1444 5.08008L44.2629 7.57286L46.6367 8.50636C49.9869 12.5579 52 17.7556 52 23.4234V28.5766C52 34.2294 49.9976 39.4145 46.6634 43.4612L43.8041 44.7443L42.8614 47.1414C38.9078 50.1881 33.9538 52 28.5766 52H23.4234C18.2615 52 13.4895 50.3302 9.61821 47.5014L8.34887 44.931L5.52508 43.6872C2.07801 39.6083 0 34.3351 0 28.5766V23.4234Z" fill="url(#paint0_linear_12_195)"/>
<circle cx="26" cy="25.9996" r="23.1386" fill="url(#paint1_linear_12_195)"/>
<ellipse cx="25.9998" cy="26" rx="19.9471" ry="19.9471" fill="url(#paint2_linear_12_195)"/>
<path d="M33.4951 27.8298H31.2924C31.2811 27.8289 31.2721 27.8232 31.2607 27.8232C30.9244 27.8232 30.6514 28.0962 30.6514 28.4326V28.4375C30.6514 29.3345 29.9242 30.0625 29.0264 30.0625C28.1286 30.0625 27.4014 29.3353 27.4014 28.4375C27.4014 28.4375 27.4014 28.4342 27.4014 28.4318C27.4014 28.0954 27.1284 27.8224 26.792 27.8224C26.7806 27.8224 26.7717 27.8281 26.7603 27.8289H25.1702V26.7483C26.4572 26.4607 27.4046 25.3281 27.4046 23.9736C27.4046 22.6192 26.4572 21.4874 25.1889 21.203L25.1702 21.1997V19.4976C25.1702 19.1612 24.8972 18.8882 24.5609 18.8882H15.6242C15.2878 18.8882 15.0148 19.1612 15.0148 19.4976V28.4156L15.0107 28.4351V37.3726C15.0107 37.7089 15.2837 37.9819 15.6201 37.9819L33.4943 37.9852C33.8307 37.9852 34.1037 37.7122 34.1037 37.3758V28.4383C34.1037 28.1019 33.8307 27.8289 33.4943 27.8289L33.4951 27.8298ZM16.2344 20.1077H23.9523V21.7409C23.9523 22.0772 24.2253 22.3502 24.5617 22.3502C25.4595 22.3502 26.1867 23.0774 26.1867 23.9752C26.1867 24.8731 25.4595 25.6002 24.5617 25.6002C24.2253 25.6002 23.9523 25.8732 23.9523 26.2096V27.8265H22.8709C22.5857 26.5362 21.4522 25.5856 20.0962 25.5856C18.7401 25.5856 17.6067 26.5363 17.3247 27.807L17.3215 27.8257H16.2344V20.1077ZM16.2303 29.0452H17.8204C17.8342 29.0461 17.8456 29.0534 17.8594 29.0534C18.1974 29.0485 18.4696 28.7747 18.472 28.4367C18.4744 27.5421 19.2 26.8174 20.0954 26.8174C20.9916 26.8174 21.7187 27.5437 21.7187 28.4407V28.4448C21.7187 28.7812 21.9917 29.0542 22.3281 29.0542C22.3419 29.0542 22.3533 29.0469 22.3671 29.0461H23.9499V30.1283C22.6629 30.4167 21.7155 31.5502 21.7155 32.9038C21.7155 34.0754 22.4248 35.0821 23.438 35.516L23.4567 35.5233C23.5956 35.5834 23.7606 35.6362 23.9312 35.6744L23.9499 35.6777V36.7648H16.2311L16.2303 29.0452ZM32.8857 36.7672H25.1678V35.1747C25.1686 35.1626 25.1751 35.152 25.1751 35.1398C25.1702 34.8018 24.8964 34.5296 24.5592 34.5272C23.6639 34.5247 22.9391 33.7992 22.9391 32.9038C22.9391 32.0068 23.6663 31.2804 24.5625 31.2804H24.5666C24.9029 31.2804 25.1759 31.0074 25.1759 30.6711C25.1759 30.6589 25.1694 30.6483 25.1686 30.6361V29.0493H26.2557C26.5458 30.3331 27.6768 31.2772 29.028 31.2772C30.3792 31.2772 31.5102 30.3331 31.7962 29.068L31.7994 29.0493H32.8866L32.8857 36.7672ZM38.3701 14.0156H29.4342C29.0979 14.0156 28.8249 14.2886 28.8249 14.625V16.8204C28.8241 16.8342 28.8167 16.8456 28.8167 16.8594C28.8167 17.1957 29.0897 17.4687 29.4261 17.4687C30.3239 17.4687 31.0511 18.1959 31.0511 19.0937C31.0511 19.9916 30.3239 20.7187 29.4261 20.7187C29.0897 20.7187 28.8167 20.9917 28.8167 21.3281C28.8167 21.3419 28.8241 21.3533 28.8249 21.3671V23.5625C28.8249 23.8989 29.0979 24.1719 29.4342 24.1719H31.121C31.4086 25.4589 32.5412 26.4062 33.8957 26.4062C35.2501 26.4062 36.3819 25.4589 36.6663 24.1906L36.6696 24.1719H38.3701C38.7065 24.1719 38.9795 23.8989 38.9795 23.5625V14.625C38.9795 14.2886 38.7065 14.0156 38.3701 14.0156Z" fill="url(#paint3_linear_12_195)"/>
<defs>
<linearGradient id="paint0_linear_12_195" x1="15.6275" y1="2.06367" x2="37.1703" y2="50.7346" gradientUnits="userSpaceOnUse">
<stop stop-color="#E0E0E0"/>
<stop offset="1" stop-color="#BBBBBB"/>
</linearGradient>
<linearGradient id="paint1_linear_12_195" x1="16.7094" y1="2.86098" x2="40.8748" y2="57.402" gradientUnits="userSpaceOnUse">
<stop stop-color="white"/>
<stop offset="1" stop-color="#8B8D8F"/>
</linearGradient>
<linearGradient id="paint2_linear_12_195" x1="20.9082" y1="5.34147" x2="37.1702" y2="45.1492" gradientUnits="userSpaceOnUse">
<stop stop-color="#BCBCBC"/>
<stop offset="1" stop-color="#F4F4F4"/>
</linearGradient>
<linearGradient id="paint3_linear_12_195" x1="22.1832" y1="14.0156" x2="34.7001" y2="42.2651" gradientUnits="userSpaceOnUse">
<stop stop-color="#ECC271"/>
<stop offset="1" stop-color="#7F642E"/>
</linearGradient>
</defs>
</svg>
