<svg width="52" height="52" viewBox="0 0 52 52" fill="none" xmlns="http://www.w3.org/2000/svg">
<path fill-rule="evenodd" clip-rule="evenodd" d="M0 23.4234C0 17.9833 1.85456 12.9764 4.96593 9.00031L7.83373 7.58411L8.97996 4.98188C12.9593 1.86089 17.974 0 23.4234 0H28.5766C34.0829 0 39.1454 1.89997 43.1444 5.08008L44.2629 7.57286L46.6367 8.50636C49.9869 12.5579 52 17.7556 52 23.4234V28.5766C52 34.2294 49.9976 39.4145 46.6634 43.4612L43.8041 44.7443L42.8614 47.1414C38.9078 50.1881 33.9538 52 28.5766 52H23.4234C18.2615 52 13.4895 50.3302 9.61821 47.5014L8.34887 44.931L5.52508 43.6872C2.07801 39.6083 0 34.3351 0 28.5766V23.4234Z" fill="url(#paint0_linear_246_7931)"/>
<ellipse cx="26" cy="25.9996" rx="23.1386" ry="23.1386" fill="url(#paint1_linear_246_7931)"/>
<ellipse cx="25.9998" cy="26.0001" rx="19.9471" ry="19.9471" fill="url(#paint2_linear_246_7931)"/>
<g clip-path="url(#clip0_246_7931)">
<path d="M34.7098 19.5974L34.3389 19.7195L32.3641 19.8959L31.7966 20.8005L31.39 20.6693L29.786 19.2265L29.5536 18.4757L29.2364 17.6706L28.24 16.766L27.0649 16.5353L27.0381 17.0781L28.1909 18.2179L28.7538 18.8873L28.1194 19.2265L27.6056 19.0727L26.8326 18.7425V18.1138L25.8496 17.6887L25.5145 19.1767L24.4913 19.4074L24.5941 20.2396L25.9345 20.4974L26.1668 19.1722L27.266 19.3396L27.7753 19.6426H28.5975L29.147 20.7643L30.6394 22.293L30.5277 22.8901L29.3258 22.7363L27.2526 23.7947L25.7602 25.6038L25.5681 26.4089H25.0275L24.0311 25.9566L23.0615 26.4089L23.3028 27.4447L23.7228 26.9517H24.469L24.4153 27.8562L25.0319 28.0372L25.6619 28.7563L26.6449 28.4533L27.7932 28.6342L29.1336 28.996L29.7949 29.0774L30.9209 30.371L33.0968 31.6646L31.6894 34.3783L30.206 35.0749L29.643 36.6307L27.4939 38.0826L27.266 38.9194C29.2185 38.4365 31.0274 37.4845 32.5394 36.144C34.0515 34.8034 35.2222 33.1138 35.9525 31.2182C36.6828 29.3226 36.9511 27.2768 36.7348 25.254C36.5185 23.2312 35.8239 21.2909 34.7098 19.5974Z" fill="url(#paint3_linear_246_7931)"/>
<path d="M25.7602 33.2611L24.8665 31.5514L25.6842 29.8101L24.8487 29.5568L23.9104 28.6025L21.8283 28.1502L21.1402 26.644V27.5124H20.8363L19.0491 25.052V23.0257L17.7355 20.8637L15.6489 21.2391H14.237L13.5266 20.7868L14.4202 20.0632L13.5266 20.2712C12.4202 22.1945 11.8341 24.379 11.8272 26.6046C11.8204 28.8302 12.3931 31.0184 13.4876 32.9486C14.5821 34.8789 16.1598 36.483 18.0618 37.5995C19.9638 38.716 22.1228 39.3054 24.3214 39.3083C24.846 39.3027 25.3697 39.265 25.8897 39.1952L25.7602 37.6619C25.7602 37.6619 26.3365 35.4004 26.3365 35.31C26.3365 35.2195 25.7602 33.2611 25.7602 33.2611Z" fill="url(#paint4_linear_246_7931)"/>
<path d="M16.462 18.0505L18.696 17.7339L19.7192 17.1685L20.872 17.5032L22.7128 17.3992L23.3473 16.3951L24.2633 16.5489L26.4973 16.3363L27.1139 15.6488L28.0075 15.0654L29.2318 15.2508L29.6786 15.183C27.1669 13.9777 24.3294 13.6565 21.6168 14.2702C18.9041 14.884 16.4718 16.3976 14.7061 18.5706L16.462 18.0505ZM24.8486 15.2372L26.1086 14.5271L26.9307 15.0066L25.7422 15.9111L24.6073 16.0287L24.0979 15.694L24.8486 15.2372ZM21.0641 15.3367L21.6405 15.581L22.3688 15.3367L22.7709 16.0423L21.0641 16.4946L20.2465 16.0152C20.2465 16.0152 21.0463 15.495 21.0641 15.3367Z" fill="url(#paint5_linear_246_7931)"/>
<rect x="36" y="23.9999" width="2" height="5" fill="url(#paint6_linear_246_7931)"/>
<path fill-rule="evenodd" clip-rule="evenodd" d="M39.522 22.6006C38.3504 22.5935 37.395 23.526 37.3879 24.6833L37.3698 27.647C37.3627 28.8044 38.3068 29.7485 39.4784 29.7556C40.65 29.7628 41.6055 28.8303 41.6126 27.6729L41.6306 24.7092C41.6377 23.5519 40.6936 22.6078 39.522 22.6006Z" fill="url(#paint7_linear_246_7931)"/>
<path fill-rule="evenodd" clip-rule="evenodd" d="M34.2637 15.75C33.7453 16.1099 33.6133 16.8169 33.9688 17.329L34.8793 18.6405C35.2348 19.1526 35.9434 19.276 36.4618 18.9161C36.9802 18.5562 37.1123 17.8492 36.7567 17.3371L35.8462 16.0256C35.4907 15.5135 34.7821 15.3901 34.2637 15.75Z" fill="url(#paint8_linear_246_7931)"/>
<path fill-rule="evenodd" clip-rule="evenodd" d="M34.2621 37.1133C33.744 36.7529 33.6126 36.0459 33.9686 35.534L34.8803 34.2234C35.2363 33.7116 35.9449 33.5888 36.463 33.9492C36.9811 34.3096 37.1125 35.0167 36.7565 35.5285L35.8449 36.8391C35.4889 37.3509 34.7802 37.4737 34.2621 37.1133Z" fill="url(#paint9_linear_246_7931)"/>
</g>
<defs>
<linearGradient id="paint0_linear_246_7931" x1="15.6275" y1="2.06367" x2="37.1703" y2="50.7346" gradientUnits="userSpaceOnUse">
<stop stop-color="#E0E0E0"/>
<stop offset="1" stop-color="#BBBBBB"/>
</linearGradient>
<linearGradient id="paint1_linear_246_7931" x1="16.7094" y1="2.86098" x2="40.8748" y2="57.4021" gradientUnits="userSpaceOnUse">
<stop stop-color="white"/>
<stop offset="1" stop-color="#8B8D8F"/>
</linearGradient>
<linearGradient id="paint2_linear_246_7931" x1="20.9082" y1="5.3415" x2="37.1702" y2="45.1493" gradientUnits="userSpaceOnUse">
<stop stop-color="#BCBCBC"/>
<stop offset="1" stop-color="#F4F4F4"/>
</linearGradient>
<linearGradient id="paint3_linear_246_7931" x1="27.1749" y1="16.5353" x2="42.15" y2="37.2909" gradientUnits="userSpaceOnUse">
<stop stop-color="#ECC271"/>
<stop offset="1" stop-color="#7F642E"/>
</linearGradient>
<linearGradient id="paint4_linear_246_7931" x1="16.169" y1="20.0632" x2="28.0217" y2="40.2319" gradientUnits="userSpaceOnUse">
<stop stop-color="#ECC271"/>
<stop offset="1" stop-color="#7F642E"/>
</linearGradient>
<linearGradient id="paint5_linear_246_7931" x1="19.1865" y1="13.9662" x2="20.0549" y2="20.3398" gradientUnits="userSpaceOnUse">
<stop stop-color="#ECC271"/>
<stop offset="1" stop-color="#7F642E"/>
</linearGradient>
<linearGradient id="paint6_linear_246_7931" x1="36.5985" y1="23.9999" x2="40.105" y2="27.1656" gradientUnits="userSpaceOnUse">
<stop stop-color="#ECC271"/>
<stop offset="1" stop-color="#7F642E"/>
</linearGradient>
<linearGradient id="paint7_linear_246_7931" x1="40.8659" y1="23.0711" x2="37.928" y2="30.6379" gradientUnits="userSpaceOnUse">
<stop stop-color="#ECC271"/>
<stop offset="1" stop-color="#7F642E"/>
</linearGradient>
<linearGradient id="paint8_linear_246_7931" x1="35.0016" y1="15.5409" x2="36.0521" y2="19.7853" gradientUnits="userSpaceOnUse">
<stop stop-color="#ECC271"/>
<stop offset="1" stop-color="#7F642E"/>
</linearGradient>
<linearGradient id="paint9_linear_246_7931" x1="34.9998" y1="37.3231" x2="36.0541" y2="33.0796" gradientUnits="userSpaceOnUse">
<stop stop-color="#ECC271"/>
<stop offset="1" stop-color="#7F642E"/>
</linearGradient>
<clipPath id="clip0_246_7931">
<rect width="32.1701" height="32.5651" fill="white" transform="translate(10.2363 10.3615)"/>
</clipPath>
</defs>
</svg>
