<svg width="52" height="52" viewBox="0 0 52 52" fill="none" xmlns="http://www.w3.org/2000/svg">
<path fill-rule="evenodd" clip-rule="evenodd" d="M0 23.4234C0 17.9833 1.85456 12.9764 4.96593 9.00031L7.83373 7.58411L8.97996 4.98188C12.9593 1.86089 17.974 0 23.4234 0H28.5766C34.0829 0 39.1454 1.89997 43.1444 5.08008L44.2629 7.57286L46.6367 8.50636C49.9869 12.5579 52 17.7556 52 23.4234V28.5766C52 34.2294 49.9976 39.4145 46.6634 43.4612L43.8041 44.7443L42.8614 47.1414C38.9078 50.1881 33.9538 52 28.5766 52H23.4234C18.2615 52 13.4895 50.3302 9.61821 47.5014L8.34887 44.931L5.52508 43.6872C2.07801 39.6083 0 34.3351 0 28.5766V23.4234Z" fill="url(#paint0_linear_246_8204)"/>
<ellipse cx="26" cy="25.9996" rx="23.1386" ry="23.1386" fill="url(#paint1_linear_246_8204)"/>
<ellipse cx="25.9998" cy="26.0001" rx="19.9471" ry="19.9471" fill="url(#paint2_linear_246_8204)"/>
<path d="M17.7012 28.5795C17.7012 33.3992 21.5607 37.3055 26.3213 37.3055C31.0819 37.3055 34.9414 33.3992 34.9414 28.5795C34.9414 24.3506 31.9686 20.8247 28.0234 20.0248C28.9597 19.1291 29.8146 18.3293 30.4485 17.4963C34.8727 19.1856 38.0195 23.5101 38.0195 28.5795C38.0195 35.1202 32.7819 40.4221 26.3212 40.4221C19.8606 40.4221 14.623 35.1202 14.623 28.5795C14.623 23.5108 17.7698 19.1862 22.1934 17.497C22.8266 18.3299 23.6808 19.1299 24.6171 20.0248C20.6726 20.8254 17.7012 24.3514 17.7012 28.5795Z" fill="url(#paint3_linear_246_8204)"/>
<path d="M31.5548 14.545C31.5548 15.6717 31.1288 16.603 30.4487 17.4958C29.8147 18.3288 28.9599 19.1287 28.0235 20.0244C27.4745 20.5492 26.8969 21.107 26.32 21.7233C25.7431 21.107 25.1662 20.5492 24.6172 20.0244C23.6809 19.1295 22.8267 18.3295 22.1934 17.4965C21.5139 16.603 21.0879 15.6717 21.0879 14.545C21.0879 13.0022 22.2593 11.751 23.704 11.751C25.012 11.751 25.6657 12.4498 26.32 13.8461C26.9737 12.4498 27.6281 11.751 28.9361 11.751C30.3834 11.751 31.5548 13.0022 31.5548 14.545Z" fill="url(#paint4_linear_246_8204)"/>
<defs>
<linearGradient id="paint0_linear_246_8204" x1="15.6275" y1="2.06367" x2="37.1703" y2="50.7346" gradientUnits="userSpaceOnUse">
<stop stop-color="#E0E0E0"/>
<stop offset="1" stop-color="#BBBBBB"/>
</linearGradient>
<linearGradient id="paint1_linear_246_8204" x1="16.7094" y1="2.86098" x2="40.8748" y2="57.4021" gradientUnits="userSpaceOnUse">
<stop stop-color="white"/>
<stop offset="1" stop-color="#8B8D8F"/>
</linearGradient>
<linearGradient id="paint2_linear_246_8204" x1="20.9082" y1="5.3415" x2="37.1702" y2="45.1493" gradientUnits="userSpaceOnUse">
<stop stop-color="#BCBCBC"/>
<stop offset="1" stop-color="#F4F4F4"/>
</linearGradient>
<linearGradient id="paint3_linear_246_8204" x1="26.3213" y1="17.4963" x2="26.3213" y2="40.4221" gradientUnits="userSpaceOnUse">
<stop stop-color="#A0B1BF"/>
<stop offset="1" stop-color="#30495C" stop-opacity="0"/>
</linearGradient>
<linearGradient id="paint4_linear_246_8204" x1="24.22" y1="11.751" x2="29.2577" y2="23.6848" gradientUnits="userSpaceOnUse">
<stop stop-color="#ECC271"/>
<stop offset="1" stop-color="#7F642E"/>
</linearGradient>
</defs>
</svg>
