<svg width="375" height="375" viewBox="0 0 375 375" fill="none" xmlns="http://www.w3.org/2000/svg">
<g filter="url(#filter0_d_126_30144)">
<path fill-rule="evenodd" clip-rule="evenodd" d="M11 161C11 129.253 20.8628 99.8088 37.6916 75.5654L60.179 60.4852L74.8933 38.1608C99.2637 21.0463 128.959 11 161 11H214C246.357 11 276.321 21.2451 300.825 38.6683L314.477 59.4079L334.297 71.382C352.955 96.386 364 127.403 364 161V214C364 247.255 353.178 277.982 334.864 302.853L313.362 317.745L299.51 337.256C275.252 354.117 245.78 364 214 364H161C130.949 364 102.961 355.163 79.4947 339.945L65.6758 318.012L41.2791 304.385C22.273 279.249 11 247.941 11 214V161Z" fill="url(#paint0_linear_126_30144)"/>
</g>
<rect width="375" height="375" rx="187.5" fill="url(#paint1_linear_126_30144)"/>
<rect x="19" y="19" width="337" height="337" rx="168.5" fill="url(#paint2_linear_126_30144)" stroke="url(#paint3_linear_126_30144)" stroke-width="2"/>
<circle cx="186.947" cy="185.831" r="146.87" fill="black" stroke="url(#paint4_angular_126_30144)" stroke-width="3"/>
<circle cx="187.018" cy="185.045" r="141.392" fill="#141414"/>
<defs>
<filter id="filter0_d_126_30144" x="10" y="11" width="355" height="355" filterUnits="userSpaceOnUse" color-interpolation-filters="sRGB">
<feFlood flood-opacity="0" result="BackgroundImageFix"/>
<feColorMatrix in="SourceAlpha" type="matrix" values="0 0 0 0 0 0 0 0 0 0 0 0 0 0 0 0 0 0 127 0" result="hardAlpha"/>
<feOffset dy="1"/>
<feGaussianBlur stdDeviation="0.5"/>
<feComposite in2="hardAlpha" operator="out"/>
<feColorMatrix type="matrix" values="0 0 0 0 1 0 0 0 0 1 0 0 0 0 1 0 0 0 0.1 0"/>
<feBlend mode="normal" in2="BackgroundImageFix" result="effect1_dropShadow_126_30144"/>
<feBlend mode="normal" in="SourceGraphic" in2="effect1_dropShadow_126_30144" result="shape"/>
</filter>
<linearGradient id="paint0_linear_126_30144" x1="187.5" y1="11" x2="187.5" y2="364" gradientUnits="userSpaceOnUse">
<stop stop-color="#25323D"/>
<stop offset="1" stop-color="#0D0D0D"/>
</linearGradient>
<linearGradient id="paint1_linear_126_30144" x1="187.5" y1="0" x2="187.5" y2="375" gradientUnits="userSpaceOnUse">
<stop stop-color="#2B3C4A"/>
<stop offset="1" stop-color="#020305"/>
</linearGradient>
<linearGradient id="paint2_linear_126_30144" x1="187.5" y1="18" x2="187.5" y2="357" gradientUnits="userSpaceOnUse">
<stop stop-color="#2B3C4A"/>
<stop offset="1" stop-color="#2B3C4A" stop-opacity="0"/>
</linearGradient>
<linearGradient id="paint3_linear_126_30144" x1="187.5" y1="18" x2="194.983" y2="454.4" gradientUnits="userSpaceOnUse">
<stop stop-color="#111B26"/>
<stop offset="1" stop-color="#080C11" stop-opacity="0"/>
</linearGradient>
<radialGradient id="paint4_angular_126_30144" cx="0" cy="0" r="1" gradientUnits="userSpaceOnUse" gradientTransform="translate(186.947 185.831) rotate(-128.806) scale(154.697)">
<stop stop-color="#5D89AE"/>
<stop offset="1" stop-color="#5D89AE" stop-opacity="0"/>
</radialGradient>
</defs>
</svg>
