<svg width="355" height="355" viewBox="0 0 355 355" fill="none" xmlns="http://www.w3.org/2000/svg">
<g filter="url(#filter0_d_126_30163)">
<path fill-rule="evenodd" clip-rule="evenodd" d="M1 150C1 118.253 10.8628 88.8088 27.6916 64.5654L50.179 48.4852L64.8933 27.1608C89.2637 10.0463 118.959 0 151 0H204C236.357 0 266.321 10.2451 290.825 27.6683L304.477 47.4079L324.297 60.382C342.955 85.386 354 116.403 354 150V203C354 236.255 343.178 266.982 324.864 291.853L303.362 306.745L289.51 326.256C265.252 343.117 235.78 353 204 353H151C120.949 353 92.9611 344.163 69.4947 328.945L53.6758 309.012L31.2791 293.385C12.273 268.249 1 236.941 1 203V150Z" fill="url(#paint0_linear_126_30163)"/>
</g>
<rect x="8.62012" y="7.61719" width="337.763" height="337.763" rx="168.881" fill="url(#paint1_linear_126_30163)" stroke="url(#paint2_linear_126_30163)" stroke-width="2"/>
<circle cx="176.947" cy="174.843" r="146.87" fill="black" stroke="url(#paint3_angular_126_30163)" stroke-width="3"/>
<circle cx="177.018" cy="174.056" r="141.392" fill="#141414"/>
<defs>
<filter id="filter0_d_126_30163" x="0" y="0" width="355" height="355" filterUnits="userSpaceOnUse" color-interpolation-filters="sRGB">
<feFlood flood-opacity="0" result="BackgroundImageFix"/>
<feColorMatrix in="SourceAlpha" type="matrix" values="0 0 0 0 0 0 0 0 0 0 0 0 0 0 0 0 0 0 127 0" result="hardAlpha"/>
<feOffset dy="1"/>
<feGaussianBlur stdDeviation="0.5"/>
<feComposite in2="hardAlpha" operator="out"/>
<feColorMatrix type="matrix" values="0 0 0 0 1 0 0 0 0 1 0 0 0 0 1 0 0 0 0.1 0"/>
<feBlend mode="normal" in2="BackgroundImageFix" result="effect1_dropShadow_126_30163"/>
<feBlend mode="normal" in="SourceGraphic" in2="effect1_dropShadow_126_30163" result="shape"/>
</filter>
<linearGradient id="paint0_linear_126_30163" x1="70" y1="18" x2="270" y2="338" gradientUnits="userSpaceOnUse">
<stop stop-color="#33005B"/>
<stop offset="1" stop-color="#F20000"/>
</linearGradient>
<linearGradient id="paint1_linear_126_30163" x1="177.501" y1="6.61719" x2="177.501" y2="346.38" gradientUnits="userSpaceOnUse">
<stop stop-color="#67113D"/>
<stop offset="1" stop-color="#2B3C4A" stop-opacity="0"/>
</linearGradient>
<linearGradient id="paint2_linear_126_30163" x1="177.501" y1="6.61719" x2="185.001" y2="443.998" gradientUnits="userSpaceOnUse">
<stop stop-color="#2E0A43"/>
<stop offset="1" stop-color="#F20000"/>
</linearGradient>
<radialGradient id="paint3_angular_126_30163" cx="0" cy="0" r="1" gradientUnits="userSpaceOnUse" gradientTransform="translate(176.947 174.843) rotate(-128.806) scale(154.697)">
<stop stop-color="#F20000"/>
<stop offset="1" stop-color="#5D89AE" stop-opacity="0"/>
</radialGradient>
</defs>
</svg>
