<svg width="53" height="52" viewBox="0 0 53 52" fill="none" xmlns="http://www.w3.org/2000/svg">
<path fill-rule="evenodd" clip-rule="evenodd" d="M0.330078 23.4556C0.330078 18.0838 2.18376 13.1396 5.29368 9.21338L8.16013 7.81494L9.30582 5.24534C13.2833 2.16349 18.2957 0.325928 23.7425 0.325928H28.8932C34.397 0.325928 39.4571 2.20207 43.4542 5.34231L44.5722 7.80383L46.9449 8.72562C50.2935 12.7263 52.3056 17.8588 52.3056 23.4557V28.5442C52.3056 34.1261 50.3042 39.2462 46.9716 43.2422L44.1136 44.5091L43.1714 46.8763C39.2196 49.8847 34.2679 51.6739 28.8932 51.6739H23.7425C18.583 51.6739 13.8133 50.0251 9.94377 47.2317L8.67502 44.6935L5.85257 43.4653C2.40712 39.4376 0.330078 34.2305 0.330078 28.5442V23.4556Z" fill="url(#paint0_linear_878_18559)"/>
<ellipse cx="26.3177" cy="26.0001" rx="23.1278" ry="22.8485" fill="url(#paint1_linear_878_18559)"/>
<ellipse cx="25.9616" cy="25.9289" rx="20.4623" ry="20.1669" fill="url(#paint2_linear_878_18559)"/>
<path d="M20.1047 38.3401C18.923 38.3472 17.881 38.1761 16.9786 37.8267C16.0948 37.4563 15.3978 36.9596 14.8876 36.3365C14.3773 35.6926 14.1197 34.9637 14.1148 34.1497C14.1107 33.461 14.2762 32.9173 14.6114 32.5188C14.9653 32.0992 15.4048 31.8878 15.9299 31.8847C16.2676 31.8826 16.5682 31.9643 16.8317 32.1297C17.114 32.2741 17.331 32.4919 17.4828 32.7832C17.6532 33.0535 17.7396 33.3765 17.7418 33.7522C17.7438 34.0861 17.6798 34.3474 17.5496 34.536C17.4382 34.7245 17.3079 34.8818 17.1586 35.008C17.0093 35.1341 16.8694 35.2602 16.7388 35.3862C16.6269 35.4912 16.5716 35.6585 16.573 35.8881C16.5753 36.2638 16.7553 36.5653 17.113 36.7927C17.4894 36.9992 17.9217 37.1531 18.41 37.2545C18.9171 37.3558 19.3675 37.4053 19.7614 37.4029C21.0743 37.395 22.0748 36.8985 22.7629 35.9134C23.4697 34.9282 23.8176 33.5173 23.8065 31.6807C23.7961 29.9485 23.4317 28.6253 22.7135 27.7113C21.9952 26.7973 20.8014 26.3453 19.1322 26.3554L21.8849 25.6187C23.0487 25.7578 24.0637 26.117 24.93 26.6961C25.8149 27.2543 26.5038 27.9598 26.9966 28.8126C27.4894 29.6653 27.739 30.6135 27.7452 31.657C27.752 32.784 27.449 33.8607 26.8362 34.8871C26.2421 35.8925 25.3749 36.7221 24.2347 37.376C23.0943 38.009 21.7177 38.3304 20.1047 38.3401ZM18.5018 26.3592L18.4925 24.8197L21.88 24.7993L21.8893 26.3388L18.5018 26.3592ZM20.2258 25.754L18.592 25.4194C20.1112 25.4103 21.1962 24.9341 21.847 23.991C22.4977 23.027 22.818 21.7102 22.8079 20.0405C22.8015 18.9761 22.6747 18.1525 22.4273 17.5696C22.1987 16.9866 21.8587 16.5816 21.4071 16.3548C20.9742 16.1069 20.4483 15.9848 19.8294 15.9886C19.1354 15.9928 18.5547 16.111 18.0871 16.3434C17.6196 16.5758 17.3871 16.8903 17.3895 17.2869C17.3908 17.5164 17.467 17.7038 17.6179 17.849C17.7688 17.9942 17.92 18.1707 18.0713 18.3785C18.2224 18.5654 18.2992 18.8572 18.3016 19.2537C18.3049 19.7963 18.1479 20.2043 17.8307 20.4775C17.5134 20.7299 17.1671 20.8572 16.792 20.8594C16.3231 20.8623 15.9187 20.6769 15.5788 20.3032C15.2577 19.9295 15.0955 19.4713 15.0923 18.9286C15.0886 18.3234 15.2914 17.7274 15.7005 17.1405C16.1283 16.5535 16.7443 16.0593 17.5485 15.6579C18.3526 15.2565 19.3267 15.0524 20.4708 15.0455C21.7274 15.0379 22.798 15.2715 23.6824 15.7462C24.5856 16.2208 25.2739 16.8428 25.7475 17.6122C26.221 18.3816 26.4604 19.2046 26.4657 20.0811C26.4714 21.0203 26.2141 21.8984 25.6938 22.7156C25.1922 23.5117 24.4741 24.1839 23.5396 24.7322C22.6049 25.2596 21.5003 25.6002 20.2258 25.754Z" fill="url(#paint3_linear_878_18559)"/>
<path d="M38.084 19.9224C38.1003 22.641 35.9525 24.8578 33.2866 24.8739C30.6208 24.89 28.4464 22.6991 28.43 19.9805C28.4137 17.262 30.5615 15.0451 33.2274 15.029C35.8932 15.013 38.0676 17.2038 38.084 19.9224Z" fill="#0C0E12"/>
<path fill-rule="evenodd" clip-rule="evenodd" d="M33.2816 24.0355C35.469 24.0224 37.2593 22.1986 37.2456 19.9274C37.2319 17.6563 35.4198 15.8542 33.2324 15.8674C31.045 15.8806 29.2547 17.7044 29.2684 19.9755C29.2821 22.2466 31.0942 24.0487 33.2816 24.0355ZM33.2866 24.8739C35.9525 24.8578 38.1003 22.641 38.084 19.9224C38.0676 17.2038 35.8932 15.013 33.2274 15.029C30.5615 15.0451 28.4137 17.262 28.43 19.9805C28.4464 22.6991 30.6208 24.89 33.2866 24.8739Z" fill="url(#paint4_linear_878_18559)"/>
<path d="M17.3915 31.9632C17.408 34.6984 19.5825 36.9027 22.2483 36.8866C24.9142 36.8705 27.0619 34.6402 27.0455 31.9051C27.029 29.1699 24.8545 26.9657 22.1887 26.9817C19.5228 26.9978 17.3751 29.2281 17.3915 31.9632Z" fill="#0C0E12"/>
<path fill-rule="evenodd" clip-rule="evenodd" d="M22.2433 36.0482C20.0606 36.0614 18.2437 34.2507 18.2299 31.9582C18.2161 29.6656 20.011 27.8332 22.1937 27.8201C24.3764 27.8069 26.1933 29.6176 26.2071 31.9101C26.2209 34.2027 24.4259 36.0351 22.2433 36.0482ZM22.2483 36.8866C19.5825 36.9027 17.408 34.6984 17.3915 31.9632C17.3751 29.2281 19.5228 26.9978 22.1887 26.9817C24.8545 26.9657 27.029 29.1699 27.0455 31.9051C27.0619 34.6402 24.9142 36.8705 22.2483 36.8866Z" fill="url(#paint5_linear_878_18559)"/>
<path fill-rule="evenodd" clip-rule="evenodd" d="M18.2552 16.1647C19.8025 16.993 20.8609 18.6318 20.8723 20.5243C20.8832 22.3425 19.925 23.9382 18.4866 24.8117C19.216 25.2469 20.0634 25.4937 20.9662 25.4883C23.6767 25.472 25.8603 23.1877 25.8435 20.3862C25.8266 17.5848 23.6156 15.327 20.9051 15.3433C19.927 15.3492 19.0174 15.6504 18.2552 16.1647Z" fill="#0C0E12"/>
<path fill-rule="evenodd" clip-rule="evenodd" d="M19.8925 16.3213C21.0035 17.3723 21.7006 18.8634 21.7106 20.5193C21.7201 22.0863 21.1122 23.5133 20.1162 24.5639C20.3889 24.622 20.6715 24.6517 20.9611 24.6499C23.1828 24.6365 25.0193 22.756 25.0051 20.3913C24.9909 18.0265 23.1318 16.1683 20.9101 16.1817C20.5584 16.1838 20.2175 16.2321 19.8925 16.3213ZM19.0249 16.6753C18.7856 16.4819 18.528 16.3107 18.2552 16.1647C18.5246 15.9829 18.8123 15.8278 19.115 15.7029C19.6688 15.4744 20.2726 15.3471 20.9051 15.3433C23.6156 15.327 25.8266 17.5848 25.8435 20.3862C25.8603 23.1877 23.6767 25.472 20.9662 25.4883C20.4088 25.4917 19.8725 25.3988 19.372 25.2249C19.062 25.1171 18.7657 24.9782 18.4866 24.8117C18.7511 24.6511 18.9994 24.4661 19.2283 24.2597C20.2446 23.3439 20.8812 22.0082 20.8723 20.5243C20.8629 18.9655 20.1431 17.5787 19.0249 16.6753Z" fill="url(#paint6_linear_878_18559)"/>
<path fill-rule="evenodd" clip-rule="evenodd" d="M36.982 27.4137C35.5188 28.2811 34.5406 29.8909 34.5516 31.7279C34.5627 33.5649 35.5602 35.1629 37.0338 36.0126C36.3131 36.4398 35.4747 36.6869 34.5789 36.6923C31.8642 36.7087 29.6502 34.4993 29.6337 31.7575C29.6172 29.0158 31.8044 26.7799 34.5191 26.7635C35.4149 26.7581 36.2562 26.9951 36.982 27.4137Z" fill="#0C0E12"/>
<path fill-rule="evenodd" clip-rule="evenodd" d="M35.3199 27.6754C34.3167 28.7273 33.7038 30.1595 33.7133 31.733C33.7227 33.3064 34.3528 34.7312 35.3687 35.7708C35.1119 35.8238 34.8462 35.8523 34.5738 35.8539C32.33 35.8675 30.4858 34.0391 30.472 31.7525C30.4583 29.4659 32.2803 27.6154 34.5241 27.6019C34.7965 27.6003 35.0626 27.6256 35.3199 27.6754ZM36.2255 27.9658C36.4591 27.7587 36.7123 27.5735 36.982 27.4137C36.6971 27.2493 36.3944 27.113 36.0775 27.0084C35.5873 26.8464 35.0632 26.7602 34.5191 26.7635C31.8044 26.7799 29.6172 29.0158 29.6337 31.7575C29.6502 34.4993 31.8642 36.7087 34.5789 36.6923C35.123 36.689 35.6459 36.5966 36.1342 36.4288C36.4498 36.3203 36.7509 36.1803 37.0338 36.0126C36.7622 35.856 36.5067 35.6739 36.2706 35.4696C35.226 34.5656 34.5606 33.2263 34.5516 31.7279C34.5426 30.2296 35.1918 28.8823 36.2255 27.9658Z" fill="url(#paint7_linear_878_18559)"/>
<defs>
<linearGradient id="paint0_linear_878_18559" x1="15.9502" y1="2.36372" x2="37.0491" y2="50.6141" gradientUnits="userSpaceOnUse">
<stop stop-color="#1A232E"/>
<stop offset="1" stop-color="#0B131C"/>
</linearGradient>
<linearGradient id="paint1_linear_878_18559" x1="17.0316" y1="3.15157" x2="40.699" y2="57.2217" gradientUnits="userSpaceOnUse">
<stop stop-color="#324655"/>
<stop offset="1" stop-color="#090C10"/>
</linearGradient>
<linearGradient id="paint2_linear_878_18559" x1="20.7385" y1="5.04264" x2="37.009" y2="45.4547" gradientUnits="userSpaceOnUse">
<stop stop-color="#0B0C10"/>
<stop offset="1" stop-color="#1D2835"/>
</linearGradient>
<linearGradient id="paint3_linear_878_18559" x1="18.0831" y1="15.0599" x2="34.0084" y2="35.8551" gradientUnits="userSpaceOnUse">
<stop stop-color="#ECC271"/>
<stop offset="1" stop-color="#7F642E"/>
</linearGradient>
<linearGradient id="paint4_linear_878_18559" x1="31.2893" y1="15.0407" x2="36.5671" y2="26.5367" gradientUnits="userSpaceOnUse">
<stop stop-color="#ECC271"/>
<stop offset="1" stop-color="#7F642E"/>
</linearGradient>
<linearGradient id="paint5_linear_878_18559" x1="24.1268" y1="26.97" x2="18.9353" y2="38.5753" gradientUnits="userSpaceOnUse">
<stop stop-color="#ECC271"/>
<stop offset="1" stop-color="#7F642E"/>
</linearGradient>
<linearGradient id="paint6_linear_878_18559" x1="23.611" y1="25.4724" x2="17.265" y2="14.9404" gradientUnits="userSpaceOnUse">
<stop stop-color="#ECC271"/>
<stop offset="1" stop-color="#7F642E"/>
</linearGradient>
<linearGradient id="paint7_linear_878_18559" x1="31.8703" y1="36.7086" x2="37.9673" y2="26.3469" gradientUnits="userSpaceOnUse">
<stop stop-color="#ECC271"/>
<stop offset="1" stop-color="#7F642E"/>
</linearGradient>
</defs>
</svg>
