<svg width="52" height="47" viewBox="0 0 52 47" fill="none" xmlns="http://www.w3.org/2000/svg">
<path d="M7.54956 0L29.7748 6.65487L52 0V40.7611L29.7748 47L7.54956 40.7611V0Z" fill="url(#paint0_linear_2853_18468)"/>
<path d="M51.9999 40.7611V0L29.7747 6.65487V47L51.9999 40.7611Z" fill="url(#paint1_linear_2853_18468)"/>
<path d="M10.5693 10.1963V8.73047C10.5693 8.73047 18.0755 11.3311 26.755 13.9299V14.9798L10.5693 10.1963Z" fill="url(#paint2_linear_2853_18468)"/>
<path d="M10.5693 24.7501V23.2843C10.5693 23.2843 18.0755 25.8849 26.755 28.4837V29.5336L10.5693 24.7501Z" fill="url(#paint3_linear_2853_18468)"/>
<path d="M10.5693 16.0178V14.552C10.5693 14.552 18.0755 17.1526 26.755 19.7515V20.8013L10.5693 16.0178Z" fill="url(#paint4_linear_2853_18468)"/>
<path d="M10.5693 30.5716V29.1058C10.5693 29.1058 18.0755 31.7064 26.755 34.3053V35.3551L10.5693 30.5716Z" fill="url(#paint5_linear_2853_18468)"/>
<path d="M10.5693 13.107V11.6412C10.5693 11.6412 18.0755 14.2418 26.755 16.8407V17.8906L10.5693 13.107Z" fill="url(#paint6_linear_2853_18468)"/>
<path d="M10.5693 27.6608V26.195C10.5693 26.195 18.0755 28.7956 26.755 31.3945V32.4444L10.5693 27.6608Z" fill="url(#paint7_linear_2853_18468)"/>
<path d="M10.5693 18.9285V17.4628C10.5693 17.4628 18.0755 20.0633 26.755 22.6622V23.7121L10.5693 18.9285Z" fill="url(#paint8_linear_2853_18468)"/>
<path d="M10.5693 33.4823V32.0166C10.5693 32.0166 18.0755 34.6171 26.755 37.216V38.2659L10.5693 33.4823Z" fill="url(#paint9_linear_2853_18468)"/>
<path d="M10.5693 24.7528V23.287C10.5693 23.287 18.0755 25.8876 26.755 28.4864V29.5363L10.5693 24.7528Z" fill="url(#paint10_linear_2853_18468)"/>
<path d="M10.5693 16.0205V14.5547C10.5693 14.5547 18.0755 17.1553 26.755 19.7542V20.804L18.6622 18.4123L10.5693 16.0205Z" fill="url(#paint11_linear_2853_18468)"/>
<path d="M10.5693 30.5743V29.1085C10.5693 29.1085 14.5693 30.5743 22.755 33.308V34.3578L10.5693 30.5743Z" fill="url(#paint12_linear_2853_18468)"/>
<path d="M10.5693 27.6635V26.1977C10.5693 26.1977 18.6622 29.1085 25.755 31.3972L24.5001 32.0193L10.5693 27.6635Z" fill="url(#paint13_linear_2853_18468)"/>
<path d="M10.5693 18.9312V17.4654C10.5693 17.4654 18.0755 20.066 26.755 22.6649V23.7148L10.5693 18.9312Z" fill="url(#paint14_linear_2853_18468)"/>
<path d="M49.4033 10.1963V8.73047C49.4033 8.73047 41.8972 11.3311 33.2177 13.9299V14.9798L49.4033 10.1963Z" fill="url(#paint15_linear_2853_18468)"/>
<path d="M49.4033 24.7501V23.2843C49.4033 23.2843 41.8972 25.8849 33.2177 28.4837V29.5336L49.4033 24.7501Z" fill="url(#paint16_linear_2853_18468)"/>
<path d="M49.4033 16.0178V14.552C49.4033 14.552 41.8972 17.1526 33.2177 19.7515V20.8013L49.4033 16.0178Z" fill="url(#paint17_linear_2853_18468)"/>
<path d="M49.4033 30.5716V29.1058C49.4033 29.1058 41.8972 31.7064 33.2177 34.3053V35.3551L49.4033 30.5716Z" fill="url(#paint18_linear_2853_18468)"/>
<path d="M49.4033 13.107V11.6412C49.4033 11.6412 41.8972 14.2418 33.2177 16.8407V17.8906L49.4033 13.107Z" fill="url(#paint19_linear_2853_18468)"/>
<path d="M49.4033 27.6608V26.195C49.4033 26.195 41.8972 28.7956 33.2177 31.3945V32.4444L49.4033 27.6608Z" fill="url(#paint20_linear_2853_18468)"/>
<path d="M49.4033 18.9285V17.4628C49.4033 17.4628 41.8972 20.0633 33.2177 22.6622V23.7121L49.4033 18.9285Z" fill="url(#paint21_linear_2853_18468)"/>
<path d="M49.4033 33.4823V32.0166C49.4033 32.0166 41.8972 34.6171 33.2177 37.216V38.2659L49.4033 33.4823Z" fill="url(#paint22_linear_2853_18468)"/>
<path d="M9.72167 14.8672C11.7505 13.514 13.9958 12.8974 16.3657 12.8899L17.9237 15.06C15.3797 14.3027 12.7444 14.5501 10.5465 16.0161C6.48874 18.7227 5.86839 24.7371 9.1982 29.3753C12.528 34.0135 18.5438 35.6015 22.6438 32.8668C26.7015 30.1603 27.3219 24.1459 23.9921 19.5077C23.7477 19.1673 23.4727 18.7843 23.2166 18.5146L19.4286 13.2381C22.1299 13.9535 24.5755 15.5316 26.3168 17.957C30.1354 23.2761 28.8367 30.4352 23.4686 34.0157C18.1005 37.5962 10.692 36.2449 6.87345 30.9259C3.05486 25.6069 4.39587 18.4196 9.72167 14.8672Z" fill="url(#paint23_linear_2853_18468)"/>
<path d="M25.8 38.9C26.2971 39.5627 27.2373 39.6971 27.9 39.2C28.5627 38.7029 28.6971 37.7627 28.2 37.1L25.8 38.9ZM28.2 37.1L25.2 33.1L22.8 34.9L25.8 38.9L28.2 37.1Z" fill="url(#paint24_linear_2853_18468)"/>
<defs>
<linearGradient id="paint0_linear_2853_18468" x1="29.7748" y1="0" x2="29.7748" y2="47" gradientUnits="userSpaceOnUse">
<stop stop-color="#324559"/>
<stop offset="1" stop-color="#131D28"/>
</linearGradient>
<linearGradient id="paint1_linear_2853_18468" x1="40.8873" y1="0" x2="40.8873" y2="47" gradientUnits="userSpaceOnUse">
<stop stop-color="#111921"/>
<stop offset="1" stop-color="#0D1116"/>
</linearGradient>
<linearGradient id="paint2_linear_2853_18468" x1="15.6424" y1="30.5612" x2="15.6424" y2="77.5612" gradientUnits="userSpaceOnUse">
<stop stop-color="#111921"/>
<stop offset="1" stop-color="#0D1116"/>
</linearGradient>
<linearGradient id="paint3_linear_2853_18468" x1="15.6424" y1="30.5612" x2="15.6424" y2="77.5612" gradientUnits="userSpaceOnUse">
<stop stop-color="#111921"/>
<stop offset="1" stop-color="#0D1116"/>
</linearGradient>
<linearGradient id="paint4_linear_2853_18468" x1="15.6424" y1="30.5612" x2="15.6424" y2="77.5612" gradientUnits="userSpaceOnUse">
<stop stop-color="#111921"/>
<stop offset="1" stop-color="#0D1116"/>
</linearGradient>
<linearGradient id="paint5_linear_2853_18468" x1="15.6424" y1="30.5612" x2="15.6424" y2="77.5612" gradientUnits="userSpaceOnUse">
<stop stop-color="#111921"/>
<stop offset="1" stop-color="#0D1116"/>
</linearGradient>
<linearGradient id="paint6_linear_2853_18468" x1="15.6424" y1="30.5612" x2="15.6424" y2="77.5612" gradientUnits="userSpaceOnUse">
<stop stop-color="#111921"/>
<stop offset="1" stop-color="#0D1116"/>
</linearGradient>
<linearGradient id="paint7_linear_2853_18468" x1="15.6424" y1="30.5612" x2="15.6424" y2="77.5612" gradientUnits="userSpaceOnUse">
<stop stop-color="#111921"/>
<stop offset="1" stop-color="#0D1116"/>
</linearGradient>
<linearGradient id="paint8_linear_2853_18468" x1="15.6424" y1="30.5612" x2="15.6424" y2="77.5612" gradientUnits="userSpaceOnUse">
<stop stop-color="#111921"/>
<stop offset="1" stop-color="#0D1116"/>
</linearGradient>
<linearGradient id="paint9_linear_2853_18468" x1="15.6424" y1="30.5612" x2="15.6424" y2="77.5612" gradientUnits="userSpaceOnUse">
<stop stop-color="#111921"/>
<stop offset="1" stop-color="#0D1116"/>
</linearGradient>
<linearGradient id="paint10_linear_2853_18468" x1="15.6424" y1="30.5639" x2="15.6424" y2="77.5639" gradientUnits="userSpaceOnUse">
<stop stop-color="#577495"/>
<stop offset="1" stop-color="#0D1116"/>
</linearGradient>
<linearGradient id="paint11_linear_2853_18468" x1="15.6424" y1="30.5639" x2="15.6424" y2="77.5639" gradientUnits="userSpaceOnUse">
<stop stop-color="#577495"/>
<stop offset="1" stop-color="#0D1116"/>
</linearGradient>
<linearGradient id="paint12_linear_2853_18468" x1="15.6424" y1="30.5639" x2="15.6424" y2="77.5639" gradientUnits="userSpaceOnUse">
<stop stop-color="#577495"/>
<stop offset="1" stop-color="#0D1116"/>
</linearGradient>
<linearGradient id="paint13_linear_2853_18468" x1="15.6424" y1="30.5639" x2="15.6424" y2="77.5639" gradientUnits="userSpaceOnUse">
<stop stop-color="#577495"/>
<stop offset="1" stop-color="#0D1116"/>
</linearGradient>
<linearGradient id="paint14_linear_2853_18468" x1="15.6424" y1="30.5639" x2="15.6424" y2="77.5639" gradientUnits="userSpaceOnUse">
<stop stop-color="#577495"/>
<stop offset="1" stop-color="#0D1116"/>
</linearGradient>
<linearGradient id="paint15_linear_2853_18468" x1="38.5023" y1="10.1858" x2="40.6071" y2="45.8521" gradientUnits="userSpaceOnUse">
<stop stop-color="#2A394A"/>
<stop offset="1" stop-color="#0D1116"/>
</linearGradient>
<linearGradient id="paint16_linear_2853_18468" x1="38.5023" y1="10.1858" x2="40.6071" y2="45.8521" gradientUnits="userSpaceOnUse">
<stop stop-color="#2A394A"/>
<stop offset="1" stop-color="#0D1116"/>
</linearGradient>
<linearGradient id="paint17_linear_2853_18468" x1="38.5023" y1="10.1858" x2="40.6071" y2="45.8521" gradientUnits="userSpaceOnUse">
<stop stop-color="#2A394A"/>
<stop offset="1" stop-color="#0D1116"/>
</linearGradient>
<linearGradient id="paint18_linear_2853_18468" x1="38.5023" y1="10.1858" x2="40.6071" y2="45.8521" gradientUnits="userSpaceOnUse">
<stop stop-color="#2A394A"/>
<stop offset="1" stop-color="#0D1116"/>
</linearGradient>
<linearGradient id="paint19_linear_2853_18468" x1="38.5023" y1="10.1858" x2="40.6071" y2="45.8521" gradientUnits="userSpaceOnUse">
<stop stop-color="#2A394A"/>
<stop offset="1" stop-color="#0D1116"/>
</linearGradient>
<linearGradient id="paint20_linear_2853_18468" x1="38.5023" y1="10.1858" x2="40.6071" y2="45.8521" gradientUnits="userSpaceOnUse">
<stop stop-color="#2A394A"/>
<stop offset="1" stop-color="#0D1116"/>
</linearGradient>
<linearGradient id="paint21_linear_2853_18468" x1="38.5023" y1="10.1858" x2="40.6071" y2="45.8521" gradientUnits="userSpaceOnUse">
<stop stop-color="#2A394A"/>
<stop offset="1" stop-color="#0D1116"/>
</linearGradient>
<linearGradient id="paint22_linear_2853_18468" x1="38.5023" y1="10.1858" x2="40.6071" y2="45.8521" gradientUnits="userSpaceOnUse">
<stop stop-color="#2A394A"/>
<stop offset="1" stop-color="#0D1116"/>
</linearGradient>
<linearGradient id="paint23_linear_2853_18468" x1="9.72167" y1="14.8672" x2="22.794" y2="34.4657" gradientUnits="userSpaceOnUse">
<stop stop-color="#F0C673"/>
<stop offset="1" stop-color="#785E2A"/>
</linearGradient>
<linearGradient id="paint24_linear_2853_18468" x1="26.1023" y1="36.803" x2="27.1471" y2="35.8645" gradientUnits="userSpaceOnUse">
<stop stop-color="#ECC271"/>
<stop offset="1" stop-color="#7F642E"/>
</linearGradient>
</defs>
</svg>
