<svg width="52" height="52" viewBox="0 0 52 52" fill="none" xmlns="http://www.w3.org/2000/svg">
<path fill-rule="evenodd" clip-rule="evenodd" d="M0 23.4234C0 17.9833 1.85456 12.9764 4.96593 9.00031L7.83373 7.58411L8.97996 4.98188C12.9593 1.86089 17.974 0 23.4234 0H28.5766C34.0829 0 39.1454 1.89997 43.1444 5.08008L44.2629 7.57286L46.6367 8.50636C49.9869 12.5579 52 17.7556 52 23.4234V28.5766C52 34.2294 49.9976 39.4145 46.6634 43.4612L43.8041 44.7443L42.8614 47.1414C38.9078 50.1881 33.9538 52 28.5766 52H23.4234C18.2615 52 13.4895 50.3302 9.61821 47.5014L8.34887 44.931L5.52508 43.6872C2.07801 39.6083 0 34.3351 0 28.5766V23.4234Z" fill="url(#paint0_linear_878_18580)"/>
<ellipse cx="26" cy="25.9997" rx="23.1386" ry="23.1386" fill="url(#paint1_linear_878_18580)"/>
<ellipse cx="26.0001" cy="26.0001" rx="19.9471" ry="19.9471" fill="url(#paint2_linear_878_18580)"/>
<path d="M33.0888 11.9963C32.7365 12.3524 29.0522 17.3373 27.254 19.7853C26.3366 17.3744 24.5569 12.4939 24.3807 12.1379C24.1606 11.6928 23.7312 11.7738 23.6211 12.2189C23.511 12.6639 23.1807 13.3316 22.7404 13.9992C22.3 14.6668 19.6579 16.5584 17.346 18.2275C15.0341 19.8966 13.603 20.3417 13.2727 20.6755C12.9424 21.0093 13.3828 21.5656 14.0433 22.122C14.7039 22.6784 15.5846 24.57 16.2451 25.6827C16.9057 26.7954 17.2359 26.239 17.6763 25.5714C18.1166 24.9038 18.8873 24.7925 19.8781 24.3474C20.8689 23.9023 20.4285 23.4573 19.8781 23.4573C19.3276 23.4573 18.4627 23.0122 17.8022 22.3445C17.1417 21.6769 17.1417 21.4544 17.582 20.7867C18.0224 20.1191 21.2842 17.6653 22.275 16.9977C23.2658 16.3301 23.486 17.2203 23.7061 17.6653C23.8823 18.0214 24.9456 20.5219 25.4961 21.8201C24.9823 22.3393 23.8413 23.7021 22.9606 24.6812C21.8597 25.9052 19.2175 28.3532 18.3368 29.0208C17.4561 29.6885 16.2451 30.5786 16.5754 30.9124C16.9057 31.2463 18.3368 31.4688 18.8873 32.2477C19.4377 33.0266 20.0982 35.8084 20.4285 35.8084C20.7588 35.8084 21.089 34.3619 22.5202 31.6913C23.6651 29.5549 25.8596 26.4245 26.8137 25.1263C27.2907 26.2761 28.3658 29.0029 28.8061 29.8931C29.8495 32.1932 30.2154 34.0191 29.4447 35.0206C28.6741 36.022 26.7722 36.427 25.6027 35.5858C24.6146 34.8751 24.5018 32.8041 24.0614 32.359C23.6211 31.9139 23.1233 32.5147 22.5728 33.7387C22.0224 34.9627 21.3092 36.5873 21.1991 36.9211C21.089 37.2549 21.089 37.3662 21.5294 37.5887C21.9698 37.8113 22.4101 38.2563 24.3917 39.1465C27.5843 40.8156 29.8304 39.6778 31.2172 38.0338C32.7008 36.2752 33.6392 35.8084 34.1896 35.6971C34.7401 35.5858 35.4006 35.5858 35.2905 35.1407C35.1804 34.6957 33.6392 33.2491 33.1988 32.8041C32.8466 32.448 32.2447 31.1721 31.9879 30.5786L28.5273 22.9383L32.7585 17.5599C33.6025 18.3017 35.5341 20.0291 35.2733 22.5201C34.841 26.6478 32.0442 26.0566 30.887 25.9052C31.1177 26.5839 31.4056 27.5475 32.3181 29.1321C37.8458 29.384 38.7033 23.4573 37.6024 20.7867C36.6018 17.8405 33.4034 14.2975 33.419 14.1105C33.5103 13.0197 33.5713 11.5086 33.0888 11.9963Z" fill="url(#paint3_linear_878_18580)"/>
<defs>
<linearGradient id="paint0_linear_878_18580" x1="15.5606" y1="-3.61164e-05" x2="39.2329" y2="2.72092" gradientUnits="userSpaceOnUse">
<stop stop-color="#16202B"/>
<stop offset="1" stop-color="#101419"/>
</linearGradient>
<linearGradient id="paint1_linear_878_18580" x1="16.7094" y1="2.86104" x2="40.8748" y2="57.4021" gradientUnits="userSpaceOnUse">
<stop stop-color="#20303D"/>
<stop offset="1" stop-color="#0C131B"/>
</linearGradient>
<linearGradient id="paint2_linear_878_18580" x1="20.9085" y1="5.3415" x2="37.1704" y2="45.1493" gradientUnits="userSpaceOnUse">
<stop stop-color="#0B0C10"/>
<stop offset="1" stop-color="#1D2835"/>
</linearGradient>
<linearGradient id="paint3_linear_878_18580" x1="20.5992" y1="11.8418" x2="36.4849" y2="43.5324" gradientUnits="userSpaceOnUse">
<stop stop-color="#ECC271"/>
<stop offset="1" stop-color="#7F642E"/>
</linearGradient>
</defs>
</svg>
