<svg width="48" height="48" viewBox="0 0 48 48" fill="none" xmlns="http://www.w3.org/2000/svg">
<path d="M11.946 9.99055L12.109 9.91009L12.1822 9.74379L12.969 7.95765C15.7761 5.78958 19.2954 4.5 23.1171 4.5H26.8829C30.7463 4.5 34.3006 5.81784 37.1226 8.02889L37.8898 9.73871L37.9733 9.92471L38.163 9.99933L39.7766 10.6339C42.1047 13.4937 43.5 17.1418 43.5 21.1171V24.8829C43.5 28.8518 42.1092 32.4945 39.7879 35.3522L37.806 36.2416L37.62 36.325L37.5454 36.5147L36.9075 38.1368C34.121 40.2478 30.6488 41.5 26.8829 41.5H23.1171C19.4982 41.5 16.1508 40.3437 13.4223 38.3803L12.5494 36.6128L12.4689 36.4498L12.3026 36.3766L10.3457 35.5146C7.94424 32.6331 6.5 28.9273 6.5 24.8829V21.1171C6.5 17.2979 7.78785 13.7808 9.95329 10.9746L11.946 9.99055Z" stroke="#465F7B"/>
<path d="M24.9109 34.9976L23.1835 24.6434L12.6976 22.7837L23.1835 21.6307L24.9109 10.5703L26.2966 21.6307L37.7347 23.3947L26.2966 24.6434L24.9109 34.9976Z" fill="#465F7B"/>
</svg>
