<svg width="158" height="155" viewBox="0 0 158 155" fill="none" xmlns="http://www.w3.org/2000/svg">
<g filter="url(#filter0_d_670_4944)">
<path fill-rule="evenodd" clip-rule="evenodd" d="M14 63.1812C14 48.782 18.8169 35.5078 26.9272 24.8821L34.6206 21.1844L38.0735 13.5548C48.8307 5.06597 62.4144 0 77.1812 0H80.6489C94.4362 0 107.192 4.41618 117.579 11.9112L121.683 20.8127L130.307 24.1135C138.777 34.8644 143.83 48.4327 143.83 63.1812C143.83 78.0343 138.705 91.6902 130.126 102.477L120.538 106.665L117.315 114.641C106.976 122.021 94.3195 126.362 80.6489 126.362H77.1812C63.8188 126.362 51.4254 122.214 41.2182 115.135L37.6744 108.151L29.5148 104.653C19.8515 93.5555 14 79.0517 14 63.1812Z" fill="url(#paint0_linear_670_4944)"/>
<rect x="20.1102" y="5.94629" width="117.611" height="114.469" rx="57.2347" fill="url(#paint1_linear_670_4944)"/>
<path d="M78.0328 118.201L78.0644 112.834M21.6222 62.3217L27.1362 62.3525M129.933 62.9264L135.447 62.9572M78.6541 12.7826L78.6857 7.41588M37.9369 101.632L41.8583 97.8592M38.6455 23.2968L42.5221 27.1135M114.794 98.2664L118.67 102.083M114.964 27.5179L118.885 23.7448M28.9964 90.0829L33.7875 87.4261M50.5119 14.5951L53.2415 19.2582M104.129 106.192L106.859 110.856M123.107 37.8974L127.898 35.2407M23.4318 76.6748L28.7661 75.3155M64.2879 9.17904L65.6845 14.3709M91.7209 111.162L93.1174 116.354M128.213 49.9746L133.547 48.6153M63.32 116.187L64.7777 111.011M23.6911 48.002L29.0091 49.4207M128.151 75.8703L133.469 77.2891M91.9532 14.5176L93.4109 9.34167M49.6441 110.536L52.4285 105.904M29.4974 34.6913L34.2569 37.4014M122.987 87.9242L127.747 90.6342M104.338 19.5435L107.122 14.9111M55.8053 113.594L57.9918 108.667M26.3552 40.688L31.4173 42.8162M125.789 82.4907L130.851 84.6188M98.7552 16.8166L100.942 11.8897M25.5665 83.0776L30.6921 81.0986M57.7094 11.2569L59.7427 16.2455M97.6493 109.248L99.6827 114.237M126.247 44.2044L131.372 42.2254M21.9816 69.0442L27.4587 68.4238M72.1279 7.76768L72.7654 13.0985M84.649 112.481L85.2865 117.812M129.568 56.8575L135.046 56.2371M22.2506 54.5859L27.7061 55.3664M86.9829 8.02951L86.1811 13.3393M71.2319 112.329L70.43 117.639M129.412 69.9162L134.868 70.6967M43.075 106.138L46.4972 101.93M34.0157 28.2977L38.3394 31.6285M118.945 93.7239L123.269 97.0547M110.297 23.4777L113.719 19.2695M32.7611 95.7297L37.1857 92.527M44.7101 18.2593L48.0007 22.5658M109.347 102.85L112.638 107.157M119.673 32.8191L124.098 29.6164" stroke="url(#paint2_linear_670_4944)"/>
<path d="M74.4214 118.059L74.8029 112.705M21.7679 58.8078L27.2688 59.1791M129.821 66.1011L135.322 66.4724M81.9148 12.8911L82.2963 7.53709M35.4866 99.0468L39.6461 95.5235M41.3013 20.9129L44.9213 24.9613M112.408 100.435L116.028 104.483M117.191 29.8393L121.35 26.316M27.3171 86.9684L32.2718 84.613M53.7112 12.9617L56.1313 17.784M101.248 107.686L103.669 112.508M124.641 40.7009L129.596 38.3454M22.6379 73.2436L28.0502 72.2166M67.8126 8.40742L68.8679 13.6751M88.5408 111.879L89.5961 117.147M128.949 53.0691L134.361 52.042M59.8695 115.14L61.6618 110.065M24.7663 44.6447L29.981 46.389M127.199 78.9088L132.413 80.6531M95.074 15.4439L96.8662 10.3685M46.5897 108.656L49.6705 104.205M31.4288 31.7194L36.002 34.718M121.259 90.6194L125.832 93.6179M107.106 21.2247L110.187 16.7736M52.539 112.088L55.0424 107.306M27.9019 37.51L32.815 39.9465M124.409 85.3699L129.323 87.8064M101.712 18.1585L104.216 13.3766M24.3509 79.7654L29.5952 78.107M61.1118 10.0747L62.8158 15.1789M94.5821 110.335L96.2861 115.439M127.363 47.189L132.607 45.5306M21.6882 65.5389L27.1948 65.258M75.7288 7.48314L76.0174 12.8426M81.3972 112.759L81.6858 118.118M129.853 60.0218L135.359 59.7409M22.8994 51.1264L28.293 52.2422M90.5368 8.66196L89.3903 13.9115M68.0171 111.778L66.8706 117.028M128.845 73.0446L134.239 74.1604M40.3205 103.861L44.0102 99.8728M36.3548 25.6178L40.4526 29.2089M116.847 96.1578L120.945 99.7489M112.796 25.519L116.486 21.5307M30.7061 92.8364L35.3306 89.9134M47.6821 16.2602L50.6853 20.7612M106.673 104.673L109.677 109.174M121.545 35.4208L126.17 32.4978" stroke="url(#paint3_linear_670_4944)"/>
<path d="M77.2649 111.759C105.63 111.759 128.624 89.78 128.624 62.6675C128.624 45.1965 119.076 29.8571 104.695 21.1567L77.2649 111.759Z" fill="url(#paint4_linear_670_4944)" fill-opacity="0.1"/>
<path d="M126.5 62.5C126.5 89.0048 104.791 110.5 78 110.5C51.2093 110.5 29.5 89.0048 29.5 62.5C29.5 35.9952 51.2093 14.5 78 14.5C104.791 14.5 126.5 35.9952 126.5 62.5Z" fill="url(#paint5_linear_670_4944)" stroke="url(#paint6_linear_670_4944)"/>
<g filter="url(#filter1_d_670_4944)">
<path d="M114.622 31.2889H106C105.17 31.2889 104.489 31.2 103.956 31.0222C103.422 30.8444 103.007 30.5185 102.711 30.0444C102.415 29.5704 102.207 28.8889 102.089 28C102.03 27.1111 102 25.9852 102 24.6222H114.622V16C114.622 15.1704 114.711 14.4889 114.889 13.9556C115.067 13.4222 115.393 13.0074 115.867 12.7111C116.341 12.4148 117.022 12.237 117.911 12.1778C118.8 12.0593 119.926 12 121.289 12V24.6222H130C131.659 24.6222 132.726 25.0667 133.2 25.9556C133.733 26.7852 134 28.563 134 31.2889H121.289V40C121.289 40.8296 121.2 41.5111 121.022 42.0444C120.844 42.5778 120.489 42.9926 119.956 43.2889C119.481 43.5852 118.8 43.7926 117.911 43.9111C117.081 43.9704 115.985 44 114.622 44V31.2889Z" fill="#473616"/>
</g>
<g filter="url(#filter2_d_670_4944)">
<path d="M113.622 30.2889H105C104.17 30.2889 103.489 30.2 102.956 30.0222C102.422 29.8444 102.007 29.5185 101.711 29.0444C101.415 28.5704 101.207 27.8889 101.089 27C101.03 26.1111 101 24.9852 101 23.6222H113.622V15C113.622 14.1704 113.711 13.4889 113.889 12.9556C114.067 12.4222 114.393 12.0074 114.867 11.7111C115.341 11.4148 116.022 11.237 116.911 11.1778C117.8 11.0593 118.926 11 120.289 11V23.6222H129C130.659 23.6222 131.726 24.0667 132.2 24.9556C132.733 25.7852 133 27.563 133 30.2889H120.289V39C120.289 39.8296 120.2 40.5111 120.022 41.0444C119.844 41.5778 119.489 41.9926 118.956 42.2889C118.481 42.5852 117.8 42.7926 116.911 42.9111C116.081 42.9704 114.985 43 113.622 43V30.2889Z" fill="url(#paint7_linear_670_4944)"/>
</g>
</g>
<defs>
<filter id="filter0_d_670_4944" x="0" y="0" width="157.83" height="154.362" filterUnits="userSpaceOnUse" color-interpolation-filters="sRGB">
<feFlood flood-opacity="0" result="BackgroundImageFix"/>
<feColorMatrix in="SourceAlpha" type="matrix" values="0 0 0 0 0 0 0 0 0 0 0 0 0 0 0 0 0 0 127 0" result="hardAlpha"/>
<feOffset dy="14"/>
<feGaussianBlur stdDeviation="7"/>
<feComposite in2="hardAlpha" operator="out"/>
<feColorMatrix type="matrix" values="0 0 0 0 0 0 0 0 0 0 0 0 0 0 0 0 0 0 0.35 0"/>
<feBlend mode="normal" in2="BackgroundImageFix" result="effect1_dropShadow_670_4944"/>
<feBlend mode="normal" in="SourceGraphic" in2="effect1_dropShadow_670_4944" result="shape"/>
</filter>
<filter id="filter1_d_670_4944" x="98" y="12" width="40" height="40" filterUnits="userSpaceOnUse" color-interpolation-filters="sRGB">
<feFlood flood-opacity="0" result="BackgroundImageFix"/>
<feColorMatrix in="SourceAlpha" type="matrix" values="0 0 0 0 0 0 0 0 0 0 0 0 0 0 0 0 0 0 127 0" result="hardAlpha"/>
<feOffset dy="4"/>
<feGaussianBlur stdDeviation="2"/>
<feComposite in2="hardAlpha" operator="out"/>
<feColorMatrix type="matrix" values="0 0 0 0 0 0 0 0 0 0 0 0 0 0 0 0 0 0 0.25 0"/>
<feBlend mode="normal" in2="BackgroundImageFix" result="effect1_dropShadow_670_4944"/>
<feBlend mode="normal" in="SourceGraphic" in2="effect1_dropShadow_670_4944" result="shape"/>
</filter>
<filter id="filter2_d_670_4944" x="97" y="11" width="40" height="40" filterUnits="userSpaceOnUse" color-interpolation-filters="sRGB">
<feFlood flood-opacity="0" result="BackgroundImageFix"/>
<feColorMatrix in="SourceAlpha" type="matrix" values="0 0 0 0 0 0 0 0 0 0 0 0 0 0 0 0 0 0 127 0" result="hardAlpha"/>
<feOffset dy="4"/>
<feGaussianBlur stdDeviation="2"/>
<feComposite in2="hardAlpha" operator="out"/>
<feColorMatrix type="matrix" values="0 0 0 0 0 0 0 0 0 0 0 0 0 0 0 0 0 0 0.25 0"/>
<feBlend mode="normal" in2="BackgroundImageFix" result="effect1_dropShadow_670_4944"/>
<feBlend mode="normal" in="SourceGraphic" in2="effect1_dropShadow_670_4944" result="shape"/>
</filter>
<linearGradient id="paint0_linear_670_4944" x1="69" y1="-4.5" x2="101" y2="126" gradientUnits="userSpaceOnUse">
<stop stop-color="#304354"/>
<stop offset="1" stop-color="#11191F"/>
</linearGradient>
<linearGradient id="paint1_linear_670_4944" x1="78.9156" y1="5.94629" x2="78.9156" y2="120.416" gradientUnits="userSpaceOnUse">
<stop stop-color="#3E5466"/>
<stop offset="1" stop-color="#060A0D"/>
</linearGradient>
<linearGradient id="paint2_linear_670_4944" x1="78.8603" y1="7.41686" x2="78.2418" y2="118.202" gradientUnits="userSpaceOnUse">
<stop stop-color="#597488"/>
<stop offset="1" stop-color="#07090B"/>
</linearGradient>
<linearGradient id="paint3_linear_670_4944" x1="94.5" y1="111.5" x2="56.5" y2="16.5" gradientUnits="userSpaceOnUse">
<stop stop-color="#030508"/>
<stop offset="1" stop-color="#192430" stop-opacity="0.56"/>
</linearGradient>
<linearGradient id="paint4_linear_670_4944" x1="102.945" y1="21.1567" x2="102.945" y2="111.759" gradientUnits="userSpaceOnUse">
<stop stop-color="#D9D9D9"/>
<stop offset="1" stop-color="#D9D9D9" stop-opacity="0"/>
</linearGradient>
<linearGradient id="paint5_linear_670_4944" x1="78" y1="14" x2="78" y2="111" gradientUnits="userSpaceOnUse">
<stop stop-color="#0D0D0D"/>
<stop offset="1" stop-color="#0D0D0D" stop-opacity="0"/>
</linearGradient>
<linearGradient id="paint6_linear_670_4944" x1="78" y1="14" x2="78" y2="111" gradientUnits="userSpaceOnUse">
<stop stop-color="#F0C673"/>
<stop offset="1" stop-color="#F0C673" stop-opacity="0"/>
</linearGradient>
<linearGradient id="paint7_linear_670_4944" x1="117" y1="11" x2="117" y2="43" gradientUnits="userSpaceOnUse">
<stop stop-color="#F0C673"/>
<stop offset="1" stop-color="#785E2A"/>
</linearGradient>
</defs>
</svg>
