<svg width="50" height="81" viewBox="0 0 50 81" fill="none" xmlns="http://www.w3.org/2000/svg">
<rect x="22" y="15" width="6" height="66" fill="black"/>
<path d="M0 0L24.7602 2.60362L49.5205 0V15.9472L24.7602 18.3881L0 15.9472L0 0Z" fill="url(#paint0_linear_12_195)"/>
<path d="M49.521 15.9472V0L24.7607 2.60362L24.7607 18.3881L49.521 15.9472Z" fill="url(#paint1_linear_12_195)"/>
<path d="M1.36389 2.88379L23.8765 4.73234L46.3891 2.88379V14.2062L23.8765 15.9392L1.36389 14.2062L1.36389 2.88379Z" fill="url(#paint2_linear_12_195)"/>
<path d="M46.4356 14.7516V2.55664L24.6926 4.54765V16.6181L46.4356 14.7516Z" fill="url(#paint3_linear_12_195)"/>
<defs>
<linearGradient id="paint0_linear_12_195" x1="24.7602" y1="0" x2="24.7602" y2="18.3881" gradientUnits="userSpaceOnUse">
<stop stop-color="#324559"/>
<stop offset="1" stop-color="#131D28"/>
</linearGradient>
<linearGradient id="paint1_linear_12_195" x1="37.1409" y1="0" x2="37.1409" y2="18.3881" gradientUnits="userSpaceOnUse">
<stop stop-color="#111921"/>
<stop offset="1" stop-color="#0D1116"/>
</linearGradient>
<linearGradient id="paint2_linear_12_195" x1="6.23148" y1="5.22707" x2="7.81627" y2="17.9411" gradientUnits="userSpaceOnUse">
<stop stop-color="#405973"/>
<stop offset="1" stop-color="#131D28"/>
</linearGradient>
<linearGradient id="paint3_linear_12_195" x1="35.5641" y1="2.55664" x2="35.5641" y2="16.6181" gradientUnits="userSpaceOnUse">
<stop stop-color="#1D2C3D"/>
<stop offset="1" stop-color="#0D1116"/>
</linearGradient>
</defs>
</svg>
