<svg width="276" height="271" viewBox="0 0 276 271" fill="none" xmlns="http://www.w3.org/2000/svg">
<mask id="path-1-inside-1_1941_24397" fill="white">
<path d="M129.728 26H126.452V13.286C126.452 11.414 125.516 10.4 123.8 10.4H121.98V7.098H123.8C127.596 7.098 129.728 9.386 129.728 13.286V26ZM151.146 26H132.998V20.462C132.998 16.796 135.026 15.002 138.822 15.002H145.66C147.09 15.002 148.052 14.144 148.052 12.714C148.052 11.284 147.142 10.4 145.66 10.4H133.154V7.098H145.66C149.404 7.098 151.458 9.36 151.458 12.402C151.458 15.522 149.274 17.784 145.686 17.784H138.822C137.054 17.784 136.118 18.616 136.118 20.228V22.698H151.146V26Z"/>
</mask>
<path d="M129.728 26H126.452V13.286C126.452 11.414 125.516 10.4 123.8 10.4H121.98V7.098H123.8C127.596 7.098 129.728 9.386 129.728 13.286V26ZM151.146 26H132.998V20.462C132.998 16.796 135.026 15.002 138.822 15.002H145.66C147.09 15.002 148.052 14.144 148.052 12.714C148.052 11.284 147.142 10.4 145.66 10.4H133.154V7.098H145.66C149.404 7.098 151.458 9.36 151.458 12.402C151.458 15.522 149.274 17.784 145.686 17.784H138.822C137.054 17.784 136.118 18.616 136.118 20.228V22.698H151.146V26Z" fill="url(#paint0_linear_1941_24397)"/>
<path d="M129.728 26V27H130.728V26H129.728ZM126.452 26H125.452V27H126.452V26ZM121.98 10.4H120.98V11.4H121.98V10.4ZM121.98 7.098V6.098H120.98V7.098H121.98ZM129.728 25H126.452V27H129.728V25ZM127.452 26V13.286H125.452V26H127.452ZM127.452 13.286C127.452 12.1956 127.18 11.1965 126.506 10.4639C125.819 9.71793 124.857 9.4 123.8 9.4V11.4C124.459 11.4 124.823 11.5891 125.034 11.8181C125.257 12.0605 125.452 12.5044 125.452 13.286H127.452ZM123.8 9.4H121.98V11.4H123.8V9.4ZM122.98 10.4V7.098H120.98V10.4H122.98ZM121.98 8.098H123.8V6.098H121.98V8.098ZM123.8 8.098C125.495 8.098 126.688 8.6035 127.463 9.4186C128.245 10.2411 128.728 11.512 128.728 13.286H130.728C130.728 11.16 130.145 9.33692 128.912 8.0404C127.673 6.7365 125.902 6.098 123.8 6.098V8.098ZM128.728 13.286V26H130.728V13.286H128.728ZM151.146 26V27H152.146V26H151.146ZM132.998 26H131.998V27H132.998V26ZM133.154 10.4H132.154V11.4H133.154V10.4ZM133.154 7.098V6.098H132.154V7.098H133.154ZM136.118 22.698H135.118V23.698H136.118V22.698ZM151.146 22.698H152.146V21.698H151.146V22.698ZM151.146 25H132.998V27H151.146V25ZM133.998 26V20.462H131.998V26H133.998ZM133.998 20.462C133.998 18.8103 134.451 17.7518 135.165 17.0918C135.894 16.4184 137.065 16.002 138.822 16.002V14.002C136.783 14.002 135.042 14.4826 133.808 15.6227C132.56 16.7762 131.998 18.4477 131.998 20.462H133.998ZM138.822 16.002H145.66V14.002H138.822V16.002ZM145.66 16.002C146.573 16.002 147.435 15.7258 148.077 15.1236C148.727 14.514 149.052 13.6627 149.052 12.714H147.052C147.052 13.1953 146.897 13.488 146.708 13.6649C146.512 13.8492 146.177 14.002 145.66 14.002V16.002ZM149.052 12.714C149.052 11.7823 148.751 10.9251 148.108 10.3024C147.468 9.68333 146.599 9.4 145.66 9.4V11.4C146.203 11.4 146.53 11.5587 146.716 11.7391C146.899 11.9159 147.052 12.2157 147.052 12.714H149.052ZM145.66 9.4H133.154V11.4H145.66V9.4ZM134.154 10.4V7.098H132.154V10.4H134.154ZM133.154 8.098H145.66V6.098H133.154V8.098ZM145.66 8.098C147.329 8.098 148.511 8.59835 149.269 9.32935C150.027 10.0593 150.458 11.1107 150.458 12.402H152.458C152.458 10.6513 151.862 9.05066 150.657 7.88915C149.453 6.72865 147.735 6.098 145.66 6.098V8.098ZM150.458 12.402C150.458 13.7219 150.001 14.796 149.225 15.5419C148.447 16.2894 147.267 16.784 145.686 16.784V18.784C147.693 18.784 149.4 18.1476 150.611 16.9841C151.823 15.819 152.458 14.2021 152.458 12.402H150.458ZM145.686 16.784H138.822V18.784H145.686V16.784ZM138.822 16.784C137.798 16.784 136.843 17.0237 136.138 17.6582C135.415 18.3094 135.118 19.227 135.118 20.228H137.118C137.118 19.617 137.29 19.3126 137.476 19.1448C137.681 18.9603 138.078 18.784 138.822 18.784V16.784ZM135.118 20.228V22.698H137.118V20.228H135.118ZM136.118 23.698H151.146V21.698H136.118V23.698ZM150.146 22.698V26H152.146V22.698H150.146Z" fill="#1C242A" mask="url(#path-1-inside-1_1941_24397)"/>
<mask id="path-3-inside-2_1941_24397" fill="white">
<path d="M240.799 208.91L238.127 206.971L241.09 202.889L234.757 198.291C231.559 195.97 230.828 193.126 233.287 189.738L237.869 183.426L240.541 185.366L235.974 191.657C234.691 193.425 235.021 194.564 236.62 195.724L242.953 200.322L249.231 191.674L251.903 193.614L245.626 202.261L247.835 203.865L245.972 206.432L243.762 204.828L240.799 208.91Z"/>
</mask>
<path d="M240.799 208.91L238.127 206.971L241.09 202.889L234.757 198.291C231.559 195.97 230.828 193.126 233.287 189.738L237.869 183.426L240.541 185.366L235.974 191.657C234.691 193.425 235.021 194.564 236.62 195.724L242.953 200.322L249.231 191.674L251.903 193.614L245.626 202.261L247.835 203.865L245.972 206.432L243.762 204.828L240.799 208.91Z" fill="url(#paint1_linear_1941_24397)"/>
<path d="M240.799 208.91L240.212 209.72L241.021 210.307L241.608 209.498L240.799 208.91ZM238.127 206.971L237.318 206.383L236.73 207.192L237.54 207.78L238.127 206.971ZM241.09 202.889L241.899 203.476L242.487 202.667L241.678 202.079L241.09 202.889ZM237.869 183.426L238.456 182.617L237.647 182.029L237.06 182.839L237.869 183.426ZM240.541 185.366L241.35 185.953L241.938 185.144L241.128 184.557L240.541 185.366ZM242.953 200.322L242.366 201.131L243.175 201.718L243.763 200.909L242.953 200.322ZM249.231 191.674L249.818 190.865L249.009 190.277L248.422 191.086L249.231 191.674ZM251.903 193.614L252.712 194.201L253.3 193.392L252.491 192.804L251.903 193.614ZM245.626 202.261L244.816 201.674L244.229 202.483L245.038 203.071L245.626 202.261ZM247.835 203.865L248.644 204.453L249.232 203.643L248.422 203.056L247.835 203.865ZM245.972 206.432L245.384 207.241L246.193 207.829L246.781 207.02L245.972 206.432ZM243.762 204.828L244.35 204.019L243.54 203.432L242.953 204.241L243.762 204.828ZM241.387 208.101L238.714 206.161L237.54 207.78L240.212 209.72L241.387 208.101ZM238.936 207.558L241.899 203.476L240.281 202.301L237.318 206.383L238.936 207.558ZM241.678 202.079L235.344 197.482L234.169 199.101L240.503 203.698L241.678 202.079ZM235.344 197.482C233.859 196.404 233.091 195.308 232.882 194.225C232.676 193.158 232.969 191.878 234.096 190.326L232.477 189.151C231.145 190.986 230.574 192.822 230.918 194.604C231.259 196.37 232.456 197.857 234.169 199.101L235.344 197.482ZM234.096 190.326L238.678 184.014L237.06 182.839L232.477 189.151L234.096 190.326ZM237.281 184.235L239.954 186.175L241.128 184.557L238.456 182.617L237.281 184.235ZM239.732 184.778L235.165 191.07L236.783 192.245L241.35 185.953L239.732 184.778ZM235.165 191.07C234.458 192.044 234.037 193.055 234.234 194.102C234.427 195.134 235.165 195.904 236.033 196.534L237.208 194.915C236.476 194.384 236.25 194.004 236.199 193.734C236.152 193.48 236.208 193.038 236.783 192.245L235.165 191.07ZM236.033 196.534L242.366 201.131L243.541 199.512L237.208 194.915L236.033 196.534ZM243.763 200.909L250.04 192.261L248.422 191.086L242.144 199.734L243.763 200.909ZM248.643 192.483L251.316 194.423L252.491 192.804L249.818 190.865L248.643 192.483ZM251.094 193.026L244.816 201.674L246.435 202.849L252.712 194.201L251.094 193.026ZM245.038 203.071L247.247 204.674L248.422 203.056L246.213 201.452L245.038 203.071ZM247.026 203.278L245.162 205.845L246.781 207.02L248.644 204.453L247.026 203.278ZM246.559 205.623L244.35 204.019L243.175 205.638L245.384 207.241L246.559 205.623ZM242.953 204.241L239.99 208.323L241.608 209.498L244.572 205.416L242.953 204.241Z" fill="#1C242A" mask="url(#path-3-inside-2_1941_24397)"/>
<mask id="path-5-inside-3_1941_24397" fill="white">
<path d="M204.165 246.629H189.995V243.327H204.165C205.933 243.327 206.895 242.339 206.895 240.857C206.895 239.245 205.907 238.413 204.165 238.413H189.995V227.727H209.105V231.029H193.401V235.631H204.165C207.961 235.631 210.015 237.425 210.015 241.091C210.015 244.263 208.091 246.629 204.165 246.629Z"/>
</mask>
<path d="M204.165 246.629H189.995V243.327H204.165C205.933 243.327 206.895 242.339 206.895 240.857C206.895 239.245 205.907 238.413 204.165 238.413H189.995V227.727H209.105V231.029H193.401V235.631H204.165C207.961 235.631 210.015 237.425 210.015 241.091C210.015 244.263 208.091 246.629 204.165 246.629Z" fill="url(#paint2_linear_1941_24397)"/>
<path d="M189.995 246.629H188.995V247.629H189.995V246.629ZM189.995 243.327V242.327H188.995V243.327H189.995ZM189.995 238.413H188.995V239.413H189.995V238.413ZM189.995 227.727V226.727H188.995V227.727H189.995ZM209.105 227.727H210.105V226.727H209.105V227.727ZM209.105 231.029V232.029H210.105V231.029H209.105ZM193.401 231.029V230.029H192.401V231.029H193.401ZM193.401 235.631H192.401V236.631H193.401V235.631ZM204.165 245.629H189.995V247.629H204.165V245.629ZM190.995 246.629V243.327H188.995V246.629H190.995ZM189.995 244.327H204.165V242.327H189.995V244.327ZM204.165 244.327C205.232 244.327 206.184 244.027 206.877 243.378C207.577 242.722 207.895 241.82 207.895 240.857H205.895C205.895 241.376 205.733 241.709 205.51 241.918C205.28 242.133 204.867 242.327 204.165 242.327V244.327ZM207.895 240.857C207.895 239.84 207.576 238.925 206.845 238.28C206.134 237.654 205.18 237.413 204.165 237.413V239.413C204.892 239.413 205.303 239.588 205.522 239.781C205.72 239.955 205.895 240.262 205.895 240.857H207.895ZM204.165 237.413H189.995V239.413H204.165V237.413ZM190.995 238.413V227.727H188.995V238.413H190.995ZM189.995 228.727H209.105V226.727H189.995V228.727ZM208.105 227.727V231.029H210.105V227.727H208.105ZM209.105 230.029H193.401V232.029H209.105V230.029ZM192.401 231.029V235.631H194.401V231.029H192.401ZM193.401 236.631H204.165V234.631H193.401V236.631ZM204.165 236.631C205.922 236.631 207.101 237.047 207.838 237.723C208.558 238.384 209.015 239.443 209.015 241.091H211.015C211.015 239.073 210.445 237.402 209.19 236.249C207.95 235.112 206.204 234.631 204.165 234.631V236.631ZM209.015 241.091C209.015 242.477 208.598 243.587 207.849 244.348C207.106 245.104 205.924 245.629 204.165 245.629V247.629C206.332 247.629 208.075 246.971 209.275 245.751C210.471 244.535 211.015 242.877 211.015 241.091H209.015Z" fill="#1C242A" mask="url(#path-5-inside-3_1941_24397)"/>
<mask id="path-7-inside-4_1941_24397" fill="white">
<path d="M141.297 267.862H135.421C130.091 267.862 126.841 264.69 126.841 258.216C126.841 251.768 130.091 248.96 135.421 248.96H146.263V252.262H135.421C132.431 252.262 130.637 253.64 130.221 256.838H141.297C144.911 256.838 147.043 258.476 147.043 262.116C147.043 265.782 144.859 267.862 141.297 267.862ZM140.985 259.646H130.195C130.533 263.052 132.353 264.56 135.421 264.56H140.985C142.857 264.56 143.871 263.624 143.871 261.986C143.871 260.426 142.883 259.646 140.985 259.646Z"/>
</mask>
<path d="M141.297 267.862H135.421C130.091 267.862 126.841 264.69 126.841 258.216C126.841 251.768 130.091 248.96 135.421 248.96H146.263V252.262H135.421C132.431 252.262 130.637 253.64 130.221 256.838H141.297C144.911 256.838 147.043 258.476 147.043 262.116C147.043 265.782 144.859 267.862 141.297 267.862ZM140.985 259.646H130.195C130.533 263.052 132.353 264.56 135.421 264.56H140.985C142.857 264.56 143.871 263.624 143.871 261.986C143.871 260.426 142.883 259.646 140.985 259.646Z" fill="url(#paint3_linear_1941_24397)"/>
<path d="M146.263 248.96H147.263V247.96H146.263V248.96ZM146.263 252.262V253.262H147.263V252.262H146.263ZM130.221 256.838L129.229 256.709L129.082 257.838H130.221V256.838ZM130.195 259.646V258.646H129.091L129.2 259.745L130.195 259.646ZM141.297 266.862H135.421V268.862H141.297V266.862ZM135.421 266.862C132.956 266.862 131.109 266.134 129.867 264.789C128.614 263.431 127.841 261.297 127.841 258.216H125.841C125.841 261.609 126.693 264.298 128.397 266.145C130.113 268.004 132.556 268.862 135.421 268.862V266.862ZM127.841 258.216C127.841 255.149 128.613 253.128 129.846 251.87C131.076 250.616 132.923 249.96 135.421 249.96V247.96C132.589 247.96 130.146 248.708 128.418 250.47C126.694 252.229 125.841 254.836 125.841 258.216H127.841ZM135.421 249.96H146.263V247.96H135.421V249.96ZM145.263 248.96V252.262H147.263V248.96H145.263ZM146.263 251.262H135.421V253.262H146.263V251.262ZM135.421 251.262C133.781 251.262 132.322 251.64 131.207 252.59C130.087 253.543 129.458 254.95 129.229 256.709L131.213 256.967C131.4 255.529 131.875 254.648 132.504 254.113C133.137 253.573 134.071 253.262 135.421 253.262V251.262ZM130.221 257.838H141.297V255.838H130.221V257.838ZM141.297 257.838C142.972 257.838 144.132 258.22 144.865 258.864C145.575 259.487 146.043 260.495 146.043 262.116H148.043C148.043 260.098 147.445 258.467 146.185 257.361C144.949 256.275 143.235 255.838 141.297 255.838V257.838ZM146.043 262.116C146.043 263.75 145.561 264.905 144.803 265.652C144.044 266.402 142.885 266.862 141.297 266.862V268.862C143.271 268.862 144.985 268.283 146.208 267.076C147.433 265.867 148.043 264.149 148.043 262.116H146.043ZM140.985 258.646H130.195V260.646H140.985V258.646ZM129.2 259.745C129.384 261.602 129.989 263.097 131.111 264.12C132.233 265.143 133.729 265.56 135.421 265.56V263.56C134.045 263.56 133.096 263.223 132.458 262.641C131.818 262.058 131.344 261.097 131.19 259.548L129.2 259.745ZM135.421 265.56H140.985V263.56H135.421V265.56ZM140.985 265.56C142.076 265.56 143.069 265.288 143.799 264.631C144.545 263.959 144.871 263.018 144.871 261.986H142.871C142.871 262.593 142.69 262.938 142.461 263.144C142.216 263.365 141.766 263.56 140.985 263.56V265.56ZM144.871 261.986C144.871 260.982 144.542 260.077 143.767 259.452C143.032 258.861 142.046 258.646 140.985 258.646V260.646C141.822 260.646 142.279 260.822 142.512 261.01C142.706 261.166 142.871 261.431 142.871 261.986H144.871Z" fill="#1C242A" mask="url(#path-7-inside-4_1941_24397)"/>
<mask id="path-9-inside-5_1941_24397" fill="white">
<path d="M70.0763 246.629H65.7863L78.7083 231.029H65.6303V227.727H81.5163C82.9983 227.727 83.5963 228.429 83.5963 229.287C83.5963 229.781 83.4923 230.223 82.9723 230.847L70.0763 246.629Z"/>
</mask>
<path d="M70.0763 246.629H65.7863L78.7083 231.029H65.6303V227.727H81.5163C82.9983 227.727 83.5963 228.429 83.5963 229.287C83.5963 229.781 83.4923 230.223 82.9723 230.847L70.0763 246.629Z" fill="url(#paint4_linear_1941_24397)"/>
<path d="M70.0763 246.629V247.629H70.5506L70.8507 247.262L70.0763 246.629ZM65.7863 246.629L65.0162 245.991L63.6595 247.629H65.7863V246.629ZM78.7083 231.029L79.4784 231.667L80.8352 230.029H78.7083V231.029ZM65.6303 231.029H64.6303V232.029H65.6303V231.029ZM65.6303 227.727V226.727H64.6303V227.727H65.6303ZM82.9723 230.847L82.2041 230.207L82.198 230.214L82.9723 230.847ZM70.0763 245.629H65.7863V247.629H70.0763V245.629ZM66.5564 247.267L79.4784 231.667L77.9382 230.391L65.0162 245.991L66.5564 247.267ZM78.7083 230.029H65.6303V232.029H78.7083V230.029ZM66.6303 231.029V227.727H64.6303V231.029H66.6303ZM65.6303 228.727H81.5163V226.727H65.6303V228.727ZM81.5163 228.727C82.1126 228.727 82.3719 228.869 82.4668 228.949C82.5409 229.012 82.5963 229.102 82.5963 229.287H84.5963C84.5963 228.614 84.3527 227.924 83.7573 227.421C83.1827 226.936 82.402 226.727 81.5163 226.727V228.727ZM82.5963 229.287C82.5963 229.457 82.579 229.568 82.5395 229.676C82.4978 229.791 82.4109 229.959 82.2041 230.207L83.7405 231.487C84.0537 231.111 84.2788 230.746 84.4191 230.36C84.5616 229.968 84.5963 229.611 84.5963 229.287H82.5963ZM82.198 230.214L69.302 245.996L70.8507 247.262L83.7467 231.48L82.198 230.214Z" fill="#1C242A" mask="url(#path-9-inside-5_1941_24397)"/>
<mask id="path-11-inside-6_1941_24397" fill="white">
<path d="M41.8675 200.804L34.5949 205.257C31.4464 207.186 28.2252 206.506 26.4192 203.557C25.2651 201.672 25.5418 199.734 26.72 198.373C25.2919 198.729 23.6473 198.334 22.3981 196.294C20.7143 193.544 21.9073 190.862 25.0337 188.948L31.6854 184.874C34.8117 182.96 37.765 183.102 39.4487 185.852C40.698 187.892 40.2805 189.55 39.314 190.66C41.0625 190.229 42.9144 190.864 44.0686 192.748C45.8745 195.697 45.016 198.875 41.8675 200.804ZM37.4658 193.865L30.4149 198.183C28.8407 199.147 28.4154 200.444 29.2302 201.774C30.0856 203.171 31.784 203.107 33.5578 202.021L39.4557 198.409C41.2295 197.322 42.0588 195.839 41.2033 194.442C40.3886 193.112 39.04 192.901 37.4658 193.865ZM32.8642 187.994L27.2767 191.416C25.4364 192.543 24.7066 193.691 25.6164 195.176C26.4718 196.573 27.5651 196.666 29.1616 195.688L35.8133 191.615C37.4097 190.637 37.8241 189.621 36.9687 188.224C36.0589 186.739 34.7045 186.867 32.8642 187.994Z"/>
</mask>
<path d="M41.8675 200.804L34.5949 205.257C31.4464 207.186 28.2252 206.506 26.4192 203.557C25.2651 201.672 25.5418 199.734 26.72 198.373C25.2919 198.729 23.6473 198.334 22.3981 196.294C20.7143 193.544 21.9073 190.862 25.0337 188.948L31.6854 184.874C34.8117 182.96 37.765 183.102 39.4487 185.852C40.698 187.892 40.2805 189.55 39.314 190.66C41.0625 190.229 42.9144 190.864 44.0686 192.748C45.8745 195.697 45.016 198.875 41.8675 200.804ZM37.4658 193.865L30.4149 198.183C28.8407 199.147 28.4154 200.444 29.2302 201.774C30.0856 203.171 31.784 203.107 33.5578 202.021L39.4557 198.409C41.2295 197.322 42.0588 195.839 41.2033 194.442C40.3886 193.112 39.04 192.901 37.4658 193.865ZM32.8642 187.994L27.2767 191.416C25.4364 192.543 24.7066 193.691 25.6164 195.176C26.4718 196.573 27.5651 196.666 29.1616 195.688L35.8133 191.615C37.4097 190.637 37.8241 189.621 36.9687 188.224C36.0589 186.739 34.7045 186.867 32.8642 187.994Z" fill="url(#paint5_linear_1941_24397)"/>
<path d="M26.72 198.373L27.4763 199.027L29.5436 196.637L26.4779 197.402L26.72 198.373ZM39.314 190.66L38.5598 190.003L36.4852 192.386L39.5531 191.631L39.314 190.66ZM41.3452 199.951L34.0727 204.405L35.1172 206.11L42.3898 201.656L41.3452 199.951ZM34.0727 204.405C32.6724 205.262 31.3376 205.493 30.2081 205.257C29.0864 205.023 28.0498 204.305 27.272 203.035L25.5664 204.079C26.5947 205.758 28.0716 206.854 29.7992 207.215C31.5189 207.574 33.3689 207.181 35.1172 206.11L34.0727 204.405ZM27.272 203.035C26.3444 201.52 26.584 200.058 27.4763 199.027L25.9638 197.718C24.4996 199.411 24.1857 201.824 25.5664 204.079L27.272 203.035ZM26.4779 197.402C25.9379 197.537 25.3927 197.523 24.875 197.308C24.3587 197.094 23.7864 196.646 23.2509 195.771L21.5453 196.816C22.2589 197.981 23.1336 198.751 24.1089 199.155C25.0828 199.559 26.074 199.564 26.9621 199.343L26.4779 197.402ZM23.2509 195.771C22.5543 194.634 22.4893 193.6 22.8463 192.664C23.2198 191.686 24.1068 190.688 25.5559 189.801L24.5114 188.095C22.8342 189.122 21.5615 190.422 20.9779 191.951C20.3778 193.523 20.5581 195.204 21.5453 196.816L23.2509 195.771ZM25.5559 189.801L32.2077 185.727L31.1632 184.021L24.5114 188.095L25.5559 189.801ZM32.2077 185.727C33.6568 184.84 34.9556 184.499 36.0041 184.609C37.0063 184.713 37.9014 185.24 38.596 186.374L40.3015 185.329C39.3124 183.714 37.889 182.795 36.212 182.619C34.5814 182.449 32.8404 182.994 31.1632 184.021L32.2077 185.727ZM38.596 186.374C39.1291 187.244 39.2638 187.959 39.2159 188.519C39.1677 189.083 38.9271 189.581 38.5598 190.003L40.0682 191.316C40.6674 190.628 41.1188 189.742 41.2086 188.69C41.2988 187.634 41.0177 186.499 40.3015 185.329L38.596 186.374ZM39.5531 191.631C40.8772 191.305 42.2882 191.756 43.2158 193.27L44.9214 192.226C43.5406 189.971 41.2478 189.154 39.0749 189.689L39.5531 191.631ZM43.2158 193.27C43.9935 194.54 44.1622 195.79 43.8611 196.896C43.5579 198.009 42.7455 199.093 41.3452 199.951L42.3898 201.656C44.138 200.586 45.3291 199.117 45.7908 197.421C46.2546 195.719 45.9496 193.905 44.9214 192.226L43.2158 193.27ZM36.9435 193.012L29.8927 197.33L30.9372 199.036L37.988 194.718L36.9435 193.012ZM29.8927 197.33C28.9819 197.888 28.2766 198.618 27.9769 199.529C27.667 200.469 27.8468 201.43 28.3774 202.297L30.083 201.252C29.7988 200.788 29.7839 200.435 29.8765 200.154C29.9793 199.842 30.2737 199.442 30.9372 199.036L29.8927 197.33ZM28.3774 202.297C28.9905 203.298 29.9472 203.796 31.0195 203.828C32.0356 203.859 33.0973 203.475 34.08 202.873L33.0355 201.168C32.2445 201.652 31.57 201.844 31.0797 201.829C30.6455 201.816 30.3252 201.648 30.083 201.252L28.3774 202.297ZM34.08 202.873L39.9779 199.261L38.9334 197.556L33.0355 201.168L34.08 202.873ZM39.9779 199.261C40.9607 198.66 41.7849 197.888 42.2195 196.969C42.6781 195.999 42.6693 194.921 42.0561 193.92L40.3505 194.964C40.5928 195.36 40.5971 195.722 40.4114 196.114C40.2018 196.558 39.7244 197.071 38.9334 197.556L39.9779 199.261ZM42.0561 193.92C41.5256 193.053 40.7513 192.456 39.7724 192.305C38.8256 192.158 37.8543 192.454 36.9435 193.012L37.988 194.718C38.6515 194.311 39.1416 194.231 39.4663 194.281C39.759 194.327 40.0664 194.5 40.3505 194.964L42.0561 193.92ZM32.3419 187.141L26.7545 190.563L27.799 192.268L33.3864 188.847L32.3419 187.141ZM26.7545 190.563C25.7906 191.153 24.9436 191.846 24.5162 192.724C24.0401 193.702 24.1664 194.724 24.7636 195.699L26.4691 194.654C26.1566 194.144 26.1929 193.849 26.3143 193.599C26.4845 193.25 26.9225 192.805 27.799 192.268L26.7545 190.563ZM24.7636 195.699C25.2837 196.548 25.997 197.186 26.9819 197.314C27.903 197.434 28.8198 197.07 29.6838 196.541L28.6393 194.835C27.9069 195.284 27.4788 195.362 27.2403 195.331C27.0656 195.308 26.8044 195.202 26.4691 194.654L24.7636 195.699ZM29.6838 196.541L36.3356 192.467L35.2911 190.762L28.6393 194.835L29.6838 196.541ZM36.3356 192.467C37.1996 191.938 37.9407 191.287 38.2525 190.412C38.5858 189.477 38.3417 188.551 37.8215 187.702L36.1159 188.746C36.4512 189.294 36.4276 189.575 36.3685 189.741C36.2877 189.968 36.0235 190.313 35.2911 190.762L36.3356 192.467ZM37.8215 187.702C37.2243 186.727 36.3714 186.15 35.2841 186.129C34.308 186.111 33.3058 186.551 32.3419 187.141L33.3864 188.847C34.2629 188.31 34.8581 188.122 35.2467 188.129C35.5241 188.134 35.8033 188.236 36.1159 188.746L37.8215 187.702Z" fill="#1C242A" mask="url(#path-11-inside-6_1941_24397)"/>
<mask id="path-13-inside-7_1941_24397" fill="white">
<path d="M20.441 150.623H10.951V147.321H20.441C23.275 147.321 25.043 146.099 25.563 143.187H14.279C10.847 143.187 8.81904 141.523 8.81904 137.623C8.81904 134.269 10.925 131.721 14.279 131.721H20.441C25.745 131.721 29.021 134.893 29.021 141.367C29.021 147.815 25.745 150.623 20.441 150.623ZM12.173 137.805C12.173 139.599 13.161 140.431 14.825 140.431H25.693C25.459 136.713 23.639 135.049 20.441 135.049H14.825C13.187 135.049 12.173 136.037 12.173 137.805Z"/>
</mask>
<path d="M20.441 150.623H10.951V147.321H20.441C23.275 147.321 25.043 146.099 25.563 143.187H14.279C10.847 143.187 8.81904 141.523 8.81904 137.623C8.81904 134.269 10.925 131.721 14.279 131.721H20.441C25.745 131.721 29.021 134.893 29.021 141.367C29.021 147.815 25.745 150.623 20.441 150.623ZM12.173 137.805C12.173 139.599 13.161 140.431 14.825 140.431H25.693C25.459 136.713 23.639 135.049 20.441 135.049H14.825C13.187 135.049 12.173 136.037 12.173 137.805Z" fill="url(#paint6_linear_1941_24397)"/>
<path d="M10.951 150.623H9.95104V151.623H10.951V150.623ZM10.951 147.321V146.321H9.95104V147.321H10.951ZM25.563 143.187L26.5475 143.363L26.7574 142.187H25.563V143.187ZM25.693 140.431V141.431H26.758L26.6911 140.368L25.693 140.431ZM20.441 149.623H10.951V151.623H20.441V149.623ZM11.951 150.623V147.321H9.95104V150.623H11.951ZM10.951 148.321H20.441V146.321H10.951V148.321ZM20.441 148.321C21.9922 148.321 23.388 147.987 24.4835 147.136C25.5907 146.275 26.2568 144.991 26.5475 143.363L24.5786 143.011C24.3493 144.296 23.8714 145.078 23.2561 145.557C22.6291 146.044 21.7239 146.321 20.441 146.321V148.321ZM25.563 142.187H14.279V144.187H25.563V142.187ZM14.279 142.187C12.7096 142.187 11.6384 141.806 10.9565 141.148C10.2813 140.496 9.81904 139.409 9.81904 137.623H7.81904C7.81904 139.737 8.37081 141.432 9.56753 142.587C10.7577 143.736 12.4165 144.187 14.279 144.187V142.187ZM9.81904 137.623C9.81904 136.152 10.2795 134.927 11.0363 134.081C11.783 133.247 12.8721 132.721 14.279 132.721V130.721C12.3319 130.721 10.6911 131.469 9.54629 132.747C8.41153 134.015 7.81904 135.74 7.81904 137.623H9.81904ZM14.279 132.721H20.441V130.721H14.279V132.721ZM20.441 132.721C22.8918 132.721 24.7401 133.448 25.9859 134.795C27.2424 136.154 28.021 138.288 28.021 141.367H30.021C30.021 137.972 29.1616 135.283 27.4542 133.437C25.736 131.58 23.2943 130.721 20.441 130.721V132.721ZM28.021 141.367C28.021 144.433 27.2433 146.454 26.0068 147.712C24.7729 148.968 22.9247 149.623 20.441 149.623V151.623C23.2614 151.623 25.7032 150.874 27.4333 149.114C29.1608 147.356 30.021 144.75 30.021 141.367H28.021ZM11.173 137.805C11.173 138.882 11.4733 139.838 12.1863 140.516C12.8901 141.184 13.8392 141.431 14.825 141.431V139.431C14.1469 139.431 13.77 139.262 13.5638 139.066C13.3668 138.879 13.173 138.522 13.173 137.805H11.173ZM14.825 141.431H25.693V139.431H14.825V141.431ZM26.6911 140.368C26.5653 138.37 26.0035 136.752 24.8843 135.637C23.755 134.512 22.2097 134.049 20.441 134.049V136.049C21.8703 136.049 22.8341 136.418 23.4727 137.054C24.1216 137.701 24.5868 138.774 24.695 140.494L26.6911 140.368ZM20.441 134.049H14.825V136.049H20.441V134.049ZM14.825 134.049C13.8041 134.049 12.8588 134.361 12.1703 135.064C11.4839 135.765 11.173 136.732 11.173 137.805H13.173C13.173 137.11 13.3692 136.699 13.5993 136.464C13.8273 136.231 14.208 136.049 14.825 136.049V134.049Z" fill="#1C242A" mask="url(#path-13-inside-7_1941_24397)"/>
<mask id="path-15-inside-8_1941_24397" fill="white">
<path d="M23.5751 87.7803L20.8606 85.9463L27.9783 75.4114C29.0264 73.8603 28.8185 72.4961 27.3966 71.5354L25.8885 70.5165L27.7371 67.7805L29.2452 68.7994C32.3905 70.9245 32.8762 74.0139 30.6928 77.2455L23.5751 87.7803ZM33.8231 94.9867C29.2343 91.8863 28.1465 85.8798 31.2323 81.3126C34.3327 76.7238 40.0783 75.8363 44.6671 78.9366C49.2344 82.0225 50.5766 87.6988 47.4762 92.2876C44.3904 96.8549 38.3904 98.0725 33.8231 94.9867ZM44.6313 90.5537C46.6691 87.5376 46.2079 83.994 42.804 81.6942C39.357 79.3653 35.9188 80.2743 33.881 83.2904C31.8432 86.3065 32.2247 89.9217 35.6501 92.2361C39.0971 94.565 42.5935 93.5698 44.6313 90.5537Z"/>
</mask>
<path d="M23.5751 87.7803L20.8606 85.9463L27.9783 75.4114C29.0264 73.8603 28.8185 72.4961 27.3966 71.5354L25.8885 70.5165L27.7371 67.7805L29.2452 68.7994C32.3905 70.9245 32.8762 74.0139 30.6928 77.2455L23.5751 87.7803ZM33.8231 94.9867C29.2343 91.8863 28.1465 85.8798 31.2323 81.3126C34.3327 76.7238 40.0783 75.8363 44.6671 78.9366C49.2344 82.0225 50.5766 87.6988 47.4762 92.2876C44.3904 96.8549 38.3904 98.0725 33.8231 94.9867ZM44.6313 90.5537C46.6691 87.5376 46.2079 83.994 42.804 81.6942C39.357 79.3653 35.9188 80.2743 33.881 83.2904C31.8432 86.3065 32.2247 89.9217 35.6501 92.2361C39.0971 94.565 42.5935 93.5698 44.6313 90.5537Z" fill="url(#paint7_linear_1941_24397)"/>
<path d="M23.5751 87.7803L23.0153 88.6089L23.8439 89.1688L24.4037 88.3402L23.5751 87.7803ZM20.8606 85.9463L20.032 85.3865L19.4721 86.2151L20.3007 86.7749L20.8606 85.9463ZM25.8885 70.5165L25.0599 69.9567L24.5001 70.7853L25.3287 71.3451L25.8885 70.5165ZM27.7371 67.7805L28.2969 66.9519L27.4683 66.392L26.9085 67.2206L27.7371 67.7805ZM24.1349 86.9517L21.4204 85.1177L20.3007 86.7749L23.0153 88.6089L24.1349 86.9517ZM21.6892 86.5061L28.8069 75.9713L27.1497 74.8516L20.032 85.3865L21.6892 86.5061ZM28.8069 75.9713C29.4174 75.0678 29.7508 74.0872 29.6025 73.103C29.4515 72.1006 28.8322 71.2985 27.9564 70.7068L26.8367 72.364C27.3828 72.7329 27.5785 73.0933 27.6248 73.401C27.6739 73.7268 27.5873 74.204 27.1497 74.8516L28.8069 75.9713ZM27.9564 70.7068L26.4484 69.6879L25.3287 71.3451L26.8367 72.364L27.9564 70.7068ZM26.7171 71.0763L28.5657 68.3403L26.9085 67.2206L25.0599 69.9567L26.7171 71.0763ZM27.1773 68.6091L28.6853 69.628L29.805 67.9708L28.2969 66.9519L27.1773 68.6091ZM28.6853 69.628C30.0894 70.5766 30.7951 71.6635 30.981 72.7728C31.1686 73.8922 30.8574 75.2157 29.8642 76.6856L31.5215 77.8053C32.7117 76.0437 33.2493 74.2067 32.9535 72.4422C32.6561 70.6676 31.5462 69.1472 29.805 67.9708L28.6853 69.628ZM29.8642 76.6856L22.7465 87.2205L24.4037 88.3402L31.5215 77.8053L29.8642 76.6856ZM34.3829 94.1581C30.2618 91.3737 29.2775 85.9921 32.0609 81.8724L30.4037 80.7527C27.0155 85.7675 28.2068 92.399 33.2633 95.8153L34.3829 94.1581ZM32.0609 81.8724C34.8284 77.7762 39.9403 76.9498 44.1073 79.7652L45.227 78.108C40.2164 74.7227 33.8369 75.6713 30.4037 80.7527L32.0609 81.8724ZM44.1073 79.7652C48.2542 82.5671 49.4142 87.633 46.6476 91.7278L48.3048 92.8474C51.739 87.7646 50.2145 81.4778 45.227 78.108L44.1073 79.7652ZM46.6476 91.7278C43.8652 95.846 38.484 96.9289 34.3829 94.1581L33.2633 95.8153C38.2967 99.2161 44.9157 97.8637 48.3048 92.8474L46.6476 91.7278ZM45.4599 91.1136C46.6008 89.4249 47.0828 87.5226 46.7417 85.6739C46.3995 83.8194 45.2516 82.1411 43.3638 80.8656L42.2442 82.5228C43.7603 83.5472 44.5449 84.7906 44.7749 86.0368C45.0059 87.2889 44.6996 88.6664 43.8027 89.9939L45.4599 91.1136ZM43.3638 80.8656C41.4571 79.5774 39.4664 79.1327 37.6154 79.5079C35.7705 79.8817 34.1917 81.0444 33.0524 82.7306L34.7096 83.8502C35.6082 82.5203 36.7673 81.7204 38.0127 81.468C39.252 81.2168 40.7038 81.4821 42.2442 82.5228L43.3638 80.8656ZM33.0524 82.7306C31.914 84.4155 31.412 86.3305 31.7312 88.1952C32.0522 90.0698 33.1835 91.7764 35.0903 93.0647L36.21 91.4075C34.6913 90.3814 33.9192 89.1232 33.7025 87.8576C33.4841 86.582 33.8102 85.1814 34.7096 83.8502L33.0524 82.7306ZM35.0903 93.0647C37.0064 94.3592 39.0166 94.7767 40.879 94.377C42.7317 93.9795 44.3215 92.7986 45.4599 91.1136L43.8027 89.9939C42.9034 91.325 41.726 92.1497 40.4594 92.4215C39.2024 92.6913 37.7409 92.4418 36.21 91.4075L35.0903 93.0647Z" fill="#1C242A" mask="url(#path-15-inside-8_1941_24397)"/>
<mask id="path-17-inside-9_1941_24397" fill="white">
<path d="M71.7575 48.1553H68.4815V35.4413C68.4815 33.5693 67.5455 32.5553 65.8295 32.5553H64.0095V29.2533H65.8295C69.6255 29.2533 71.7575 31.5413 71.7575 35.4413V48.1553ZM81.7614 48.1553H78.4854V35.4413C78.4854 33.5693 77.5494 32.5553 75.8334 32.5553H74.0134V29.2533H75.8334C79.6294 29.2533 81.7614 31.5413 81.7614 35.4413V48.1553Z"/>
</mask>
<path d="M71.7575 48.1553H68.4815V35.4413C68.4815 33.5693 67.5455 32.5553 65.8295 32.5553H64.0095V29.2533H65.8295C69.6255 29.2533 71.7575 31.5413 71.7575 35.4413V48.1553ZM81.7614 48.1553H78.4854V35.4413C78.4854 33.5693 77.5494 32.5553 75.8334 32.5553H74.0134V29.2533H75.8334C79.6294 29.2533 81.7614 31.5413 81.7614 35.4413V48.1553Z" fill="url(#paint8_linear_1941_24397)"/>
<path d="M71.7575 48.1553V49.1553H72.7575V48.1553H71.7575ZM68.4815 48.1553H67.4815V49.1553H68.4815V48.1553ZM64.0095 32.5553H63.0095V33.5553H64.0095V32.5553ZM64.0095 29.2533V28.2533H63.0095V29.2533H64.0095ZM71.7575 47.1553H68.4815V49.1553H71.7575V47.1553ZM69.4815 48.1553V35.4413H67.4815V48.1553H69.4815ZM69.4815 35.4413C69.4815 34.3509 69.2088 33.3517 68.5349 32.6192C67.8486 31.8732 66.8865 31.5553 65.8295 31.5553V33.5553C66.4885 33.5553 66.8524 33.7443 67.0631 33.9733C67.2861 34.2158 67.4815 34.6597 67.4815 35.4413H69.4815ZM65.8295 31.5553H64.0095V33.5553H65.8295V31.5553ZM65.0095 32.5553V29.2533H63.0095V32.5553H65.0095ZM64.0095 30.2533H65.8295V28.2533H64.0095V30.2533ZM65.8295 30.2533C67.5241 30.2533 68.7172 30.7588 69.4923 31.5739C70.2744 32.3964 70.7575 33.6673 70.7575 35.4413H72.7575C72.7575 33.3153 72.1745 31.4922 70.9417 30.1957C69.7017 28.8918 67.9309 28.2533 65.8295 28.2533V30.2533ZM70.7575 35.4413V48.1553H72.7575V35.4413H70.7575ZM81.7614 48.1553V49.1553H82.7614V48.1553H81.7614ZM78.4854 48.1553H77.4854V49.1553H78.4854V48.1553ZM74.0134 32.5553H73.0134V33.5553H74.0134V32.5553ZM74.0134 29.2533V28.2533H73.0134V29.2533H74.0134ZM81.7614 47.1553H78.4854V49.1553H81.7614V47.1553ZM79.4854 48.1553V35.4413H77.4854V48.1553H79.4854ZM79.4854 35.4413C79.4854 34.3509 79.2127 33.3517 78.5388 32.6192C77.8525 31.8732 76.8904 31.5553 75.8334 31.5553V33.5553C76.4924 33.5553 76.8563 33.7443 77.067 33.9733C77.29 34.2158 77.4854 34.6597 77.4854 35.4413H79.4854ZM75.8334 31.5553H74.0134V33.5553H75.8334V31.5553ZM75.0134 32.5553V29.2533H73.0134V32.5553H75.0134ZM74.0134 30.2533H75.8334V28.2533H74.0134V30.2533ZM75.8334 30.2533C77.528 30.2533 78.7211 30.7588 79.4962 31.5739C80.2783 32.3964 80.7614 33.6673 80.7614 35.4413H82.7614C82.7614 33.3153 82.1784 31.4922 80.9456 30.1957C79.7056 28.8918 77.9348 28.2533 75.8334 28.2533V30.2533ZM80.7614 35.4413V48.1553H82.7614V35.4413H80.7614Z" fill="#1C242A" mask="url(#path-17-inside-9_1941_24397)"/>
<mask id="path-19-inside-10_1941_24397" fill="white">
<path d="M256.51 85.2708L240.258 93.3464L237.794 88.3869C236.162 85.1039 237.18 82.5948 240.58 80.9057L246.703 77.8629C247.984 77.2265 248.464 76.0301 247.827 74.7495C247.191 73.4688 245.983 73.0821 244.656 73.7416L233.456 79.3066L231.987 76.3495L243.186 70.7845C246.539 69.1185 249.385 70.2302 250.739 72.9544C252.127 75.7485 251.178 78.746 247.965 80.3427L241.818 83.3971C240.234 84.1838 239.766 85.3454 240.484 86.789L241.583 89.001L255.041 82.3137L256.51 85.2708Z"/>
</mask>
<path d="M256.51 85.2708L240.258 93.3464L237.794 88.3869C236.162 85.1039 237.18 82.5948 240.58 80.9057L246.703 77.8629C247.984 77.2265 248.464 76.0301 247.827 74.7495C247.191 73.4688 245.983 73.0821 244.656 73.7416L233.456 79.3066L231.987 76.3495L243.186 70.7845C246.539 69.1185 249.385 70.2302 250.739 72.9544C252.127 75.7485 251.178 78.746 247.965 80.3427L241.818 83.3971C240.234 84.1838 239.766 85.3454 240.484 86.789L241.583 89.001L255.041 82.3137L256.51 85.2708Z" fill="url(#paint9_linear_1941_24397)"/>
<path d="M256.51 85.2708L256.955 86.1663L257.851 85.7213L257.406 84.8258L256.51 85.2708ZM240.258 93.3464L239.363 93.7914L239.808 94.6869L240.703 94.2419L240.258 93.3464ZM233.456 79.3066L232.561 79.7516L233.006 80.6471L233.901 80.2021L233.456 79.3066ZM231.987 76.3495L231.542 75.454L230.646 75.899L231.091 76.7945L231.987 76.3495ZM241.583 89.001L240.687 89.446L241.132 90.3415L242.028 89.8965L241.583 89.001ZM255.041 82.3137L255.937 81.8687L255.492 80.9732L254.596 81.4182L255.041 82.3137ZM256.065 84.3752L239.813 92.4509L240.703 94.2419L256.955 86.1663L256.065 84.3752ZM241.154 92.9014L238.689 87.9419L236.898 88.8319L239.363 93.7914L241.154 92.9014ZM238.689 87.9419C237.954 86.4628 237.889 85.3134 238.235 84.4044C238.588 83.477 239.451 82.5832 241.025 81.8012L240.135 80.0101C238.309 80.9174 236.964 82.1226 236.366 83.6928C235.761 85.2813 236.002 87.028 236.898 88.8319L238.689 87.9419ZM241.025 81.8012L247.148 78.7584L246.258 76.9673L240.135 80.0101L241.025 81.8012ZM247.148 78.7584C247.966 78.3522 248.615 77.7214 248.922 76.8965C249.232 76.0613 249.145 75.154 248.723 74.3045L246.932 75.1944C247.146 75.6255 247.137 75.9567 247.047 76.199C246.953 76.4516 246.722 76.7372 246.258 76.9673L247.148 78.7584ZM248.723 74.3045C248.308 73.4701 247.657 72.8367 246.804 72.5651C245.956 72.2951 245.052 72.4281 244.211 72.8461L245.101 74.6371C245.587 74.3956 245.95 74.3922 246.197 74.4709C246.439 74.548 246.71 74.7482 246.932 75.1944L248.723 74.3045ZM244.211 72.8461L233.011 78.4111L233.901 80.2021L245.101 74.6371L244.211 72.8461ZM234.352 78.8616L232.882 75.9046L231.091 76.7945L232.561 79.7516L234.352 78.8616ZM232.432 77.2451L243.631 71.6801L242.741 69.889L231.542 75.454L232.432 77.2451ZM243.631 71.6801C245.126 70.9375 246.407 70.8597 247.411 71.1768C248.415 71.4934 249.269 72.243 249.843 73.3994L251.634 72.5094C250.855 70.9416 249.61 69.7733 248.013 69.2695C246.418 68.7661 244.6 68.9655 242.741 69.889L243.631 71.6801ZM249.843 73.3994C250.431 74.5814 250.499 75.7467 250.136 76.7601C249.772 77.7757 248.936 78.7436 247.52 79.4471L248.41 81.2382C250.207 80.3451 251.452 79.0159 252.019 77.4351C252.586 75.852 252.435 74.1215 251.634 72.5094L249.843 73.3994ZM247.52 79.4471L241.373 82.5015L242.263 84.2926L248.41 81.2382L247.52 79.4471ZM241.373 82.5015C240.456 82.9572 239.707 83.5968 239.358 84.4787C239 85.3839 239.143 86.3376 239.588 87.234L241.379 86.344C241.107 85.7968 241.126 85.4479 241.218 85.2147C241.319 84.9582 241.597 84.6236 242.263 84.2926L241.373 82.5015ZM239.588 87.234L240.687 89.446L242.478 88.556L241.379 86.344L239.588 87.234ZM242.028 89.8965L255.486 83.2092L254.596 81.4182L241.138 88.1054L242.028 89.8965ZM254.145 82.7587L255.615 85.7157L257.406 84.8258L255.937 81.8687L254.145 82.7587Z" fill="#1C242A" mask="url(#path-19-inside-10_1941_24397)"/>
<mask id="path-21-inside-11_1941_24397" fill="white">
<path d="M208.768 47.2314H205.492V34.5174C205.492 32.6454 204.556 31.6314 202.84 31.6314H201.02V28.3294H202.84C206.636 28.3294 208.768 30.6174 208.768 34.5174V47.2314Z"/>
</mask>
<path d="M208.768 47.2314H205.492V34.5174C205.492 32.6454 204.556 31.6314 202.84 31.6314H201.02V28.3294H202.84C206.636 28.3294 208.768 30.6174 208.768 34.5174V47.2314Z" fill="url(#paint10_linear_1941_24397)"/>
<path d="M208.768 47.2314V48.2314H209.768V47.2314H208.768ZM205.492 47.2314H204.492V48.2314H205.492V47.2314ZM201.02 31.6314H200.02V32.6314H201.02V31.6314ZM201.02 28.3294V27.3294H200.02V28.3294H201.02ZM208.768 46.2314H205.492V48.2314H208.768V46.2314ZM206.492 47.2314V34.5174H204.492V47.2314H206.492ZM206.492 34.5174C206.492 33.4271 206.219 32.4279 205.545 31.6954C204.859 30.9494 203.897 30.6314 202.84 30.6314V32.6314C203.499 32.6314 203.863 32.8205 204.074 33.0495C204.297 33.292 204.492 33.7358 204.492 34.5174H206.492ZM202.84 30.6314H201.02V32.6314H202.84V30.6314ZM202.02 31.6314V28.3294H200.02V31.6314H202.02ZM201.02 29.3294H202.84V27.3294H201.02V29.3294ZM202.84 29.3294C204.535 29.3294 205.728 29.8349 206.503 30.65C207.285 31.4725 207.768 32.7434 207.768 34.5174H209.768C209.768 32.3914 209.185 30.5684 207.952 29.2718C206.712 27.9679 204.941 27.3294 202.84 27.3294V29.3294ZM207.768 34.5174V47.2314H209.768V34.5174H207.768Z" fill="#1C242A" mask="url(#path-21-inside-11_1941_24397)"/>
<mask id="path-23-inside-12_1941_24397" fill="white">
<path d="M260.023 150.623H247.075V147.321H259.217C261.297 147.321 262.753 146.463 262.753 144.825C262.753 143.265 261.739 142.407 259.893 142.407H251.547V139.625H259.659C261.531 139.625 262.415 138.975 262.415 137.337C262.415 135.595 261.193 134.997 259.009 134.997H247.153V131.721H259.659C263.325 131.721 265.743 133.385 265.743 136.609C265.743 139.001 264.547 140.197 263.143 140.639C264.859 141.185 266.107 142.693 266.107 144.903C266.107 148.335 263.715 150.623 260.023 150.623Z"/>
</mask>
<path d="M260.023 150.623H247.075V147.321H259.217C261.297 147.321 262.753 146.463 262.753 144.825C262.753 143.265 261.739 142.407 259.893 142.407H251.547V139.625H259.659C261.531 139.625 262.415 138.975 262.415 137.337C262.415 135.595 261.193 134.997 259.009 134.997H247.153V131.721H259.659C263.325 131.721 265.743 133.385 265.743 136.609C265.743 139.001 264.547 140.197 263.143 140.639C264.859 141.185 266.107 142.693 266.107 144.903C266.107 148.335 263.715 150.623 260.023 150.623Z" fill="url(#paint11_linear_1941_24397)"/>
<path d="M247.075 150.623H246.075V151.623H247.075V150.623ZM247.075 147.321V146.321H246.075V147.321H247.075ZM251.547 142.407H250.547V143.407H251.547V142.407ZM251.547 139.625V138.625H250.547V139.625H251.547ZM247.153 134.997H246.153V135.997H247.153V134.997ZM247.153 131.721V130.721H246.153V131.721H247.153ZM263.143 140.639L262.843 139.685L259.829 140.634L262.84 141.592L263.143 140.639ZM260.023 149.623H247.075V151.623H260.023V149.623ZM248.075 150.623V147.321H246.075V150.623H248.075ZM247.075 148.321H259.217V146.321H247.075V148.321ZM259.217 148.321C260.375 148.321 261.477 148.085 262.323 147.517C263.213 146.92 263.753 145.99 263.753 144.825H261.753C261.753 145.298 261.566 145.617 261.207 145.857C260.805 146.128 260.14 146.321 259.217 146.321V148.321ZM263.753 144.825C263.753 143.816 263.416 142.905 262.661 142.267C261.933 141.652 260.954 141.407 259.893 141.407V143.407C260.678 143.407 261.129 143.591 261.37 143.795C261.584 143.976 261.753 144.274 261.753 144.825H263.753ZM259.893 141.407H251.547V143.407H259.893V141.407ZM252.547 142.407V139.625H250.547V142.407H252.547ZM251.547 140.625H259.659V138.625H251.547V140.625ZM259.659 140.625C260.672 140.625 261.644 140.457 262.367 139.873C263.14 139.25 263.415 138.333 263.415 137.337H261.415C261.415 137.979 261.248 138.206 261.111 138.317C260.924 138.468 260.518 138.625 259.659 138.625V140.625ZM263.415 137.337C263.415 136.193 262.989 135.255 262.067 134.67C261.241 134.145 260.151 133.997 259.009 133.997V135.997C260.052 135.997 260.664 136.148 260.995 136.358C261.231 136.508 261.415 136.739 261.415 137.337H263.415ZM259.009 133.997H247.153V135.997H259.009V133.997ZM248.153 134.997V131.721H246.153V134.997H248.153ZM247.153 132.721H259.659V130.721H247.153V132.721ZM259.659 132.721C261.358 132.721 262.636 133.109 263.465 133.748C264.258 134.359 264.743 135.275 264.743 136.609H266.743C266.743 134.719 266.019 133.191 264.686 132.164C263.39 131.165 261.626 130.721 259.659 130.721V132.721ZM264.743 136.609C264.743 137.635 264.489 138.315 264.161 138.768C263.831 139.221 263.374 139.518 262.843 139.685L263.443 141.593C264.316 141.318 265.159 140.796 265.779 139.943C266.399 139.089 266.743 137.976 266.743 136.609H264.743ZM262.84 141.592C264.139 142.005 265.107 143.127 265.107 144.903H267.107C267.107 142.259 265.579 140.365 263.446 139.686L262.84 141.592ZM265.107 144.903C265.107 146.378 264.599 147.533 263.763 148.323C262.921 149.118 261.662 149.623 260.023 149.623V151.623C262.076 151.623 263.859 150.984 265.136 149.777C266.419 148.565 267.107 146.86 267.107 144.903H265.107Z" fill="#1C242A" mask="url(#path-23-inside-12_1941_24397)"/>
<path d="M255.82 166.379L263.126 167.798M214.007 230.634L218.637 236.672M229.864 215.051L235.6 220.66M248.402 187.158L255.092 190.849M168.095 255.724L169.533 261.835M187.864 247.835L191.143 254.071M178.507 252.263L180.87 258.373M236.511 207.173L242.6 211.925M252.31 177.245L259.554 179.584M157.115 264.726L156.629 258.216M257.192 155.803L265.021 156.331M221.904 223.303L226.937 228.822" stroke="black" stroke-width="0.5"/>
<path d="M255.789 166.839L262.83 168.211M213.711 231.048L218.372 237.377M229.568 215.464L235.212 220.935M247.849 187.376L254.796 191.262M167.635 255.692L169.041 262.264M187.403 247.804L190.847 254.485M178.044 252.255L180.405 258.405M236.248 207.715L242.282 212.16M252.014 177.658L259.258 179.998M156.85 264.679L156.384 257.881M257.425 156.327L264.986 156.838M221.394 223.607L226.875 229.743" stroke="#007AFF" stroke-width="0.5"/>
<path d="M256.812 113.505L264.129 111.813M216.467 43.6777L221.236 37.749M231.956 59.6262L237.821 54.1528M250.321 92.0768L256.634 88.5638M170.978 17.9657L172.558 11.8896M190.732 25.8716L194.156 19.714M181.306 21.6677L183.811 15.6148M238.418 67.6571L244.616 63.0478M253.536 102.099L260.832 99.9288M160.426 9.19147L159.789 15.6878M258.203 124.07L266.522 123.703M224.191 51.1908L229.351 45.7905" stroke="#0C0F13" stroke-width="0.5"/>
<path d="M256.832 113.042L264.623 111.395M216.488 44.138L221.756 37.899M231.997 60.5476L238.208 54.7291M250.342 91.614L257.222 87.8269M171.439 17.9446L173.019 11.8686M191.193 25.8505L194.617 19.693M181.767 21.6466L184.269 15.5299M238.799 68.1015L245.051 63.2052M253.556 101.636L261.286 99.2796M160.887 9.1703L160.207 15.6686M258.222 123.59L266.541 123.222M224.212 51.6511L230.403 45.3714" stroke="#007AFF" stroke-width="0.5"/>
<path d="M17.9325 163.926L11.541 165.406M57.3911 229.653L52.975 235.227M42.1092 213.506L36.756 218.648M24.5927 184.96L18.6788 187.811M103.002 254.907L100.858 261.082M83.3516 246.747L79.8482 252.859M92.737 251.533L89.6542 257.212M35.7518 205.392L30.0089 209.623M21.0461 174.912L14.6838 177.314M112.954 263.937L113.675 257.449M16.664 152.9L9.31021 153.13M49.7646 222.041L44.5356 227.374" stroke="black" stroke-width="0.5"/>
<path d="M17.9468 164.388L11.5552 165.868M57.9898 230.088L53.4506 235.675M42.6092 213.848L37.2316 219.095M24.6313 185.316L18.6931 188.273M103.477 255.354L101.358 261.424M83.8272 247.194L80.3125 252.945M93.1982 251.519L90.1562 257.618M35.995 205.945L30.4845 210.07M21.0848 175.268L14.698 177.776M113.468 264.74L114.227 257.654M16.6927 153.823L9.29231 154.055M50.2636 222.364L44.887 227.63" stroke="#007AFF" stroke-width="0.5"/>
<path d="M18.2908 112.867L11.6325 111.608M58.2474 44.6723L53.447 38.7691M43.0679 60.6351L37.2691 55.3287M25.1105 91.8841L18.5243 88.7803M103.842 18.1903L101.787 11.6436M83.888 26.7298L80.4311 20.5905M93.0549 22.3904L90.0772 15.8079M36.4245 68.7679L30.4536 64.3023M22.1735 101.856L14.3865 100.167M113.922 8.41961L114.114 15.356M16.9386 123.883L9.78065 123.605M50.5633 52.2263L45.375 46.8535" stroke="#05090C" stroke-width="0.5"/>
<path d="M18.3086 112.406L11.4307 110.836M58.8495 44.242L53.6493 37.9502M43.5469 60.1916L37.7481 54.8853M25.6573 91.6501L18.6709 88.1514M104.321 17.7468L102.073 11.0799M84.1304 26.2007L80.6735 20.0615M93.534 21.9469L90.5563 15.3644M36.6719 68.2177L30.9327 63.8588M22.0612 101.386L14.6682 99.6254M114.665 8.4536L115.055 14.9304M16.9743 122.961L9.57588 122.673M51.0649 51.9071L45.4107 45.9309" stroke="#007AFF" stroke-width="0.5"/>
<path d="M131.085 270.479C206.73 270.479 268.052 211.134 268.052 137.929C268.052 90.7563 242.588 49.339 204.238 25.8477L131.085 270.479Z" fill="url(#paint12_linear_1941_24397)" fill-opacity="0.1"/>
<path d="M174.473 149.029V142.162H178.526C179.193 142.162 179.72 142.302 180.053 142.609C180.387 142.888 180.581 143.335 180.581 143.893C180.581 144.172 180.525 144.423 180.414 144.619C180.303 144.814 180.164 145.009 179.942 145.149C180.303 145.372 180.581 145.623 180.775 145.931C180.97 146.238 181.053 146.6 181.053 146.991C181.053 147.633 180.858 148.136 180.442 148.499C180.026 148.861 179.47 149.057 178.748 149.057H174.473V149.029ZM175.334 144.87H178.61C178.971 144.87 179.248 144.786 179.443 144.619C179.637 144.451 179.72 144.228 179.72 143.921C179.72 143.586 179.637 143.362 179.443 143.195C179.248 143.027 178.971 142.944 178.61 142.944H175.334V144.87ZM175.334 148.247H178.915C179.304 148.247 179.609 148.136 179.831 147.912C180.053 147.689 180.164 147.354 180.164 146.963C180.164 146.573 180.053 146.265 179.831 146.014C179.609 145.763 179.304 145.651 178.915 145.651H175.334V148.247Z" fill="#0F1318"/>
<path d="M181.636 149.029L184.329 143.697H184.856L187.577 149.029H186.689L185.995 147.689H183.19L182.496 149.029H181.636ZM183.551 146.991H185.634L184.606 144.953L183.551 146.991Z" fill="#0F1318"/>
<path d="M188.355 149.028V143.725H189.188V146.097L191.992 143.725H193.074L190.853 145.623L193.408 149.056H192.491L190.298 146.125L189.215 147.046V149.056H188.355V149.028Z" fill="#0F1318"/>
<path d="M194.379 149.028V143.725H195.212V146.097L198.016 143.725H199.099L196.878 145.623L199.432 149.056H198.516L196.323 146.125L195.24 147.046V149.056H194.379V149.028Z" fill="#0F1318"/>
<path d="M202.958 149.197C202.014 149.197 201.237 148.918 200.626 148.387C200.015 147.857 199.71 147.187 199.71 146.377C199.71 145.568 200.015 144.898 200.626 144.368C201.237 143.837 202.014 143.586 202.958 143.586C203.902 143.586 204.679 143.837 205.29 144.368C205.901 144.898 206.206 145.568 206.206 146.377C206.206 147.187 205.901 147.857 205.29 148.387C204.679 148.945 203.902 149.197 202.958 149.197ZM202.958 148.415C203.652 148.415 204.235 148.22 204.679 147.829C205.124 147.438 205.346 146.964 205.346 146.349C205.346 145.763 205.124 145.261 204.679 144.898C204.235 144.507 203.652 144.312 202.958 144.312C202.264 144.312 201.681 144.507 201.237 144.898C200.793 145.289 200.57 145.763 200.57 146.377C200.57 146.991 200.793 147.466 201.237 147.857C201.681 148.248 202.236 148.415 202.958 148.415Z" fill="#0F1318"/>
<path d="M207.539 143.725H208.372V147.13C208.372 147.633 208.483 147.995 208.733 148.163C208.983 148.33 209.455 148.442 210.149 148.442C210.871 148.442 211.343 148.358 211.593 148.163C211.843 147.995 211.954 147.633 211.954 147.13V143.725H212.786V147.353C212.786 147.995 212.592 148.47 212.176 148.777C211.759 149.056 211.093 149.224 210.177 149.224C209.261 149.224 208.594 149.084 208.178 148.805C207.761 148.526 207.567 148.051 207.567 147.381V143.725H207.539Z" fill="#0F1318"/>
<path d="M215.452 146.098C215.452 146.098 215.452 148.024 215.452 149.057H214.619V143.753H218.256C218.783 143.753 219.228 143.892 219.533 144.144C219.838 144.395 220.005 144.758 220.005 145.232C220.005 145.623 219.894 145.93 219.644 146.209C219.394 146.489 219.089 146.656 218.7 146.712L220.172 149.057H219.283L217.784 146.74L217.229 145.958H218.284C218.561 145.958 218.783 145.902 218.95 145.763C219.117 145.623 219.172 145.456 219.172 145.232C219.172 145.009 219.089 144.814 218.95 144.702C218.811 144.59 218.589 144.507 218.284 144.507H215.48V146.042C215.48 146.042 215.48 146.321 215.48 146.042" fill="#0F1318"/>
<path d="M220.227 149.029L222.92 143.697H223.448L226.169 149.029H225.28L224.586 147.689H221.782L221.088 149.029H220.227ZM222.143 146.991H224.225L223.198 144.953L222.143 146.991Z" fill="#0F1318"/>
<g filter="url(#filter0_i_1941_24397)">
<path d="M203.833 122.863C203.624 123.064 201.439 125.871 200.372 127.249C199.828 125.891 198.773 123.144 198.668 122.943C198.537 122.692 198.283 122.738 198.217 122.989C198.152 123.239 197.956 123.615 197.695 123.991C197.434 124.367 195.867 125.432 194.495 126.372C193.124 127.312 192.275 127.562 192.079 127.75C191.883 127.938 192.144 128.251 192.536 128.565C192.928 128.878 193.45 129.943 193.842 130.569C194.234 131.196 194.43 130.883 194.691 130.507C194.952 130.131 195.409 130.068 195.997 129.818C196.585 129.567 196.324 129.316 195.997 129.316C195.671 129.316 195.158 129.066 194.766 128.69C194.374 128.314 194.374 128.189 194.635 127.813C194.896 127.437 196.831 126.055 197.419 125.679C198.007 125.303 198.137 125.805 198.268 126.055C198.372 126.256 199.003 127.664 199.33 128.395C199.025 128.687 198.348 129.454 197.826 130.006C197.173 130.695 195.605 132.073 195.083 132.449C194.561 132.825 193.842 133.326 194.038 133.514C194.234 133.702 195.083 133.827 195.409 134.266C195.736 134.704 196.128 136.271 196.324 136.271C196.52 136.271 196.715 135.456 197.564 133.953C198.244 132.75 199.545 130.987 200.111 130.256C200.394 130.904 201.032 132.439 201.293 132.94C201.912 134.235 202.129 135.263 201.672 135.827C201.215 136.391 200.087 136.619 199.393 136.145C198.807 135.745 198.74 134.579 198.479 134.328C198.217 134.078 197.922 134.416 197.596 135.105C197.269 135.794 196.846 136.709 196.781 136.897C196.715 137.085 196.715 137.148 196.977 137.273C197.238 137.398 197.499 137.649 198.675 138.15C200.568 139.09 201.901 138.449 202.723 137.524C203.603 136.533 204.16 136.271 204.486 136.208C204.813 136.145 205.205 136.145 205.139 135.895C205.074 135.644 204.16 134.83 203.899 134.579C203.69 134.379 203.333 133.66 203.18 133.326L201.128 129.024L203.637 125.996C204.138 126.414 205.284 127.386 205.129 128.789C204.873 131.113 203.214 130.78 202.527 130.695C202.664 131.077 202.835 131.619 203.376 132.512C206.655 132.653 207.164 129.316 206.511 127.813C205.917 126.154 204.02 124.159 204.029 124.054C204.083 123.44 204.12 122.589 203.833 122.863Z" fill="#151B22"/>
</g>
<g filter="url(#filter1_d_1941_24397)">
<g filter="url(#filter2_d_1941_24397)">
<line x1="141.865" y1="45.4128" x2="141.208" y2="50.9125" stroke="black"/>
<line x1="133.989" y1="113.833" x2="133.332" y2="119.332" stroke="black"/>
<line x1="145.571" y1="46.0998" x2="144.357" y2="51.5039" stroke="black"/>
<line x1="130.506" y1="113.29" x2="129.292" y2="118.694" stroke="black"/>
<line x1="149.083" y1="47.1261" x2="147.34" y2="52.3835" stroke="black"/>
<line x1="127.812" y1="112.557" x2="126.069" y2="117.814" stroke="black"/>
<line x1="152.519" y1="48.5137" x2="150.258" y2="53.5699" stroke="black"/>
<line x1="124.858" y1="111.464" x2="122.596" y2="116.52" stroke="black"/>
<line x1="171.307" y1="67.6668" x2="166.236" y2="69.8945" stroke="black"/>
<line x1="108.37" y1="95.6384" x2="103.299" y2="97.8662" stroke="black"/>
<line x1="172.597" y1="71.2093" x2="167.325" y2="72.9085" stroke="black"/>
<line x1="107.185" y1="92.6605" x2="101.913" y2="94.3596" stroke="black"/>
<line x1="173.497" y1="74.7544" x2="168.083" y2="75.9235" stroke="black"/>
<line x1="106.331" y1="89.6694" x2="100.916" y2="90.8385" stroke="black"/>
<line x1="174.047" y1="78.4197" x2="168.543" y2="79.0404" stroke="black"/>
<line x1="105.772" y1="86.5691" x2="100.268" y2="87.1898" stroke="black"/>
<line x1="159.82" y1="52.8425" x2="156.48" y2="57.2609" stroke="black"/>
<line x1="118.522" y1="107.96" x2="115.182" y2="112.378" stroke="black"/>
<line x1="162.674" y1="55.3045" x2="158.901" y2="59.3592" stroke="black"/>
<line x1="116.035" y1="105.938" x2="112.262" y2="109.993" stroke="black"/>
<line x1="165.19" y1="57.9621" x2="161.034" y2="61.6235" stroke="black"/>
<line x1="113.83" y1="103.744" x2="109.674" y2="107.406" stroke="black"/>
<line x1="167.457" y1="60.8927" x2="162.955" y2="64.1192" stroke="black"/>
<line x1="111.83" y1="101.31" x2="107.328" y2="104.536" stroke="black"/>
<path d="M169.831 64.1241L159.196 70.0911" stroke="black"/>
<line x1="115.956" y1="95.2833" x2="104.859" y2="101.71" stroke="black"/>
<path d="M156.729 49.995L151.421 59.1731" stroke="black"/>
<path d="M124.734 103.827L118.39 114.514" stroke="black"/>
<path d="M137.674 119.178L137.674 106.941" stroke="black"/>
<path d="M137.549 57.7422L137.549 44.8638" stroke="black"/>
<path d="M100.426 83.089L112.662 83.089" stroke="black"/>
<path d="M161.86 82.7139L174.738 82.7137" stroke="black"/>
<line y1="-0.5" x2="5.53882" y2="-0.5" transform="matrix(0.118614 0.99294 0.99294 -0.118614 132.834 45.3516)" stroke="black"/>
<line y1="-0.5" x2="5.53882" y2="-0.5" transform="matrix(0.118614 0.99294 0.99294 -0.118614 141.728 113.846)" stroke="black"/>
<line y1="-0.5" x2="5.53882" y2="-0.5" transform="matrix(0.219224 0.975675 0.975675 -0.219224 129.119 45.9893)" stroke="black"/>
<line y1="-0.5" x2="5.53882" y2="-0.5" transform="matrix(0.219224 0.975675 0.975675 -0.219224 144.886 113.305)" stroke="black"/>
<line y1="-0.5" x2="5.53882" y2="-0.5" transform="matrix(0.314703 0.94919 0.94919 -0.314703 125.594 46.9668)" stroke="black"/>
<line y1="-0.5" x2="5.53882" y2="-0.5" transform="matrix(0.314703 0.94919 0.94919 -0.314703 147.883 112.473)" stroke="black"/>
<line y1="-0.5" x2="5.53882" y2="-0.5" transform="matrix(0.408244 0.912873 0.912873 -0.408244 122.14 48.3076)" stroke="black"/>
<line y1="-0.5" x2="5.53882" y2="-0.5" transform="matrix(0.408245 0.912873 0.912873 -0.408245 150.819 111.334)" stroke="black"/>
<line y1="-0.5" x2="5.53882" y2="-0.5" transform="matrix(0.915549 0.402207 0.402207 -0.915549 103.097 67.209)" stroke="black"/>
<line y1="-0.5" x2="5.53882" y2="-0.5" transform="matrix(0.915549 0.402207 0.402207 -0.915549 166.034 95.1807)" stroke="black"/>
<line y1="-0.5" x2="5.53882" y2="-0.5" transform="matrix(0.951782 0.306774 0.306774 -0.951782 101.76 70.7334)" stroke="black"/>
<line y1="-0.5" x2="5.53882" y2="-0.5" transform="matrix(0.951782 0.306774 0.306774 -0.951782 167.171 92.1846)" stroke="black"/>
<line y1="-0.5" x2="5.53882" y2="-0.5" transform="matrix(0.977469 0.211077 0.211077 -0.977469 100.811 74.2656)" stroke="black"/>
<line y1="-0.5" x2="5.53882" y2="-0.5" transform="matrix(0.977469 0.211077 0.211077 -0.977469 167.978 89.1807)" stroke="black"/>
<line y1="-0.5" x2="5.53882" y2="-0.5" transform="matrix(0.993702 0.112055 0.112055 -0.993702 100.212 77.9229)" stroke="black"/>
<line y1="-0.5" x2="5.53882" y2="-0.5" transform="matrix(0.993702 0.112055 0.112055 -0.993702 168.487 86.0723)" stroke="black"/>
<line y1="-0.5" x2="5.53882" y2="-0.5" transform="matrix(0.603057 0.797698 0.797698 -0.603057 114.782 52.541)" stroke="black"/>
<line y1="-0.5" x2="5.53882" y2="-0.5" transform="matrix(0.603057 0.797698 0.797698 -0.603057 156.08 107.658)" stroke="black"/>
<line y1="-0.5" x2="5.53882" y2="-0.5" transform="matrix(0.681238 0.732062 0.732062 -0.681238 111.895 54.9639)" stroke="black"/>
<line y1="-0.5" x2="5.53882" y2="-0.5" transform="matrix(0.681238 0.732062 0.732062 -0.681238 158.534 105.598)" stroke="black"/>
<line y1="-0.5" x2="5.53882" y2="-0.5" transform="matrix(0.750341 0.661051 0.661051 -0.750341 109.344 57.5869)" stroke="black"/>
<line y1="-0.5" x2="5.53882" y2="-0.5" transform="matrix(0.750341 0.661051 0.661051 -0.750341 160.703 103.369)" stroke="black"/>
<line y1="-0.5" x2="5.53882" y2="-0.5" transform="matrix(0.812812 0.582526 0.582526 -0.812812 107.037 60.4863)" stroke="black"/>
<line y1="-0.5" x2="5.53882" y2="-0.5" transform="matrix(0.812812 0.582526 0.582526 -0.812812 162.664 100.903)" stroke="black"/>
<path d="M104.372 64.1241L115.007 70.0911" stroke="black"/>
<line y1="-0.5" x2="12.8246" y2="-0.5" transform="matrix(0.865354 0.501161 0.501161 -0.865354 158.497 94.8516)" stroke="black"/>
<line y1="-0.5" x2="11.2683" y2="-0.5" transform="matrix(0.545565 0.838069 0.838069 -0.545565 117.86 49.7441)" stroke="black"/>
<path d="M149.469 103.827L155.813 114.514" stroke="black"/>
</g>
<path d="M176.025 85.1239L176.025 81.0771L176.968 81.0771L176.968 85.1239C176.968 85.6288 177.25 85.9036 177.673 85.9036C178.134 85.9036 178.371 85.6214 178.371 85.1239L178.371 81.0771L181.423 81.0771L181.423 86.5347L180.48 86.5347L180.48 82.0499L179.166 82.0499L179.166 85.1239C179.166 86.208 178.653 86.7946 177.607 86.7946C176.701 86.7946 176.025 86.2451 176.025 85.1239Z" fill="#546271"/>
<path d="M176.025 78.658L176.025 77.7225L179.656 77.7225C180.19 77.7225 180.48 77.4552 180.48 76.9651L180.48 76.4453L181.423 76.4453L181.423 76.9651C181.423 78.0492 180.77 78.658 179.656 78.658L176.025 78.658Z" fill="#546271"/>
<path d="M141.971 126.215C140.389 126.215 139.171 124.968 139.171 123.394C139.171 121.812 140.389 120.684 141.971 120.684C143.545 120.684 144.77 121.812 144.77 123.394C144.77 124.968 143.545 126.215 141.971 126.215ZM143.819 123.438C143.819 122.399 143.144 121.634 141.971 121.634C140.783 121.634 140.114 122.399 140.114 123.438C140.114 124.478 140.783 125.272 141.963 125.272C143.151 125.272 143.819 124.478 143.819 123.438Z" fill="#546271"/>
<path d="M135.272 126.148H131.574V125.205H135.042C135.636 125.205 136.052 124.96 136.052 124.492C136.052 124.047 135.762 123.802 135.235 123.802H132.851V123.007H135.168C135.703 123.007 135.955 122.822 135.955 122.354C135.955 121.856 135.606 121.686 134.982 121.686H131.596V120.75H135.168C136.215 120.75 136.905 121.225 136.905 122.146C136.905 122.829 136.564 123.171 136.163 123.297C136.653 123.453 137.009 123.883 137.009 124.515C137.009 125.495 136.326 126.148 135.272 126.148Z" fill="#546271"/>
<path d="M142.334 43.9342C140.752 43.9342 139.535 42.6867 139.535 41.1126C139.535 39.531 140.752 38.4023 142.334 38.4023C143.908 38.4023 145.133 39.531 145.133 41.1126C145.133 42.6867 143.908 43.9342 142.334 43.9342ZM144.183 41.1571C144.183 40.1176 143.507 39.3528 142.334 39.3528C141.146 39.3528 140.478 40.1176 140.478 41.1571C140.478 42.1967 141.146 42.9912 142.326 42.9912C143.514 42.9912 144.183 42.1967 144.183 41.1571Z" fill="#546271"/>
<path d="M135.703 43.8669H134.024C132.502 43.8669 131.574 42.961 131.574 41.1121C131.574 39.2707 132.502 38.4688 134.024 38.4688H137.121V39.4118H134.024C133.171 39.4118 132.658 39.8053 132.539 40.7186H135.703C136.735 40.7186 137.344 41.1864 137.344 42.2259C137.344 43.2729 136.72 43.8669 135.703 43.8669ZM135.613 41.5205H132.532C132.628 42.4933 133.148 42.9239 134.024 42.9239H135.613C136.148 42.9239 136.438 42.6566 136.438 42.1888C136.438 41.7433 136.155 41.5205 135.613 41.5205Z" fill="#546271"/>
<path d="M99.1233 77.1925L99.1233 81.2393L98.1803 81.2393L98.1803 77.1925C98.1803 76.6876 97.8981 76.4128 97.4749 76.4128C97.0145 76.4128 96.7769 76.695 96.7769 77.1925L96.7769 81.2393L93.7251 81.2393L93.7251 75.7817L94.6681 75.7817L94.6681 80.2665L95.9824 80.2665L95.9824 77.1925C95.9824 76.1084 96.4947 75.5218 97.5417 75.5218C98.4476 75.5218 99.1233 76.0713 99.1233 77.1925Z" fill="#546271"/>
<path d="M99.1233 84.1548L99.1233 85.0978L97.6828 85.0978L97.6828 87.3328C97.6828 88.4614 97.1482 89.1074 95.9527 89.1074L93.7251 89.1074L93.7251 88.1644L95.9453 88.1644C96.569 88.1644 96.7769 87.8971 96.7769 87.3328L96.7769 85.0978L93.7251 85.0978L93.7251 84.1548L96.7769 84.1548L96.7769 83.3751L97.6828 83.3751L97.6828 84.1548L99.1233 84.1548Z" fill="#546271"/>
</g>
<defs>
<filter id="filter0_i_1941_24397" x="192.012" y="122.776" width="14.7455" height="16.835" filterUnits="userSpaceOnUse" color-interpolation-filters="sRGB">
<feFlood flood-opacity="0" result="BackgroundImageFix"/>
<feBlend mode="normal" in="SourceGraphic" in2="BackgroundImageFix" result="shape"/>
<feColorMatrix in="SourceAlpha" type="matrix" values="0 0 0 0 0 0 0 0 0 0 0 0 0 0 0 0 0 0 127 0" result="hardAlpha"/>
<feOffset dy="1"/>
<feGaussianBlur stdDeviation="0.5"/>
<feComposite in2="hardAlpha" operator="arithmetic" k2="-1" k3="1"/>
<feColorMatrix type="matrix" values="0 0 0 0 0 0 0 0 0 0 0 0 0 0 0 0 0 0 0.25 0"/>
<feBlend mode="normal" in2="shape" result="effect1_innerShadow_1941_24397"/>
</filter>
<filter id="filter1_d_1941_24397" x="92.7251" y="38.4023" width="89.698" height="89.8135" filterUnits="userSpaceOnUse" color-interpolation-filters="sRGB">
<feFlood flood-opacity="0" result="BackgroundImageFix"/>
<feColorMatrix in="SourceAlpha" type="matrix" values="0 0 0 0 0 0 0 0 0 0 0 0 0 0 0 0 0 0 127 0" result="hardAlpha"/>
<feOffset dy="1"/>
<feGaussianBlur stdDeviation="0.5"/>
<feComposite in2="hardAlpha" operator="out"/>
<feColorMatrix type="matrix" values="0 0 0 0 0 0 0 0 0 0 0 0 0 0 0 0 0 0 0.55 0"/>
<feBlend mode="normal" in2="BackgroundImageFix" result="effect1_dropShadow_1941_24397"/>
<feBlend mode="normal" in="SourceGraphic" in2="effect1_dropShadow_1941_24397" result="shape"/>
</filter>
<filter id="filter2_d_1941_24397" x="99.0999" y="44.8643" width="76.6384" height="76.5996" filterUnits="userSpaceOnUse" color-interpolation-filters="sRGB">
<feFlood flood-opacity="0" result="BackgroundImageFix"/>
<feColorMatrix in="SourceAlpha" type="matrix" values="0 0 0 0 0 0 0 0 0 0 0 0 0 0 0 0 0 0 127 0" result="hardAlpha"/>
<feOffset dy="1"/>
<feGaussianBlur stdDeviation="0.5"/>
<feComposite in2="hardAlpha" operator="out"/>
<feColorMatrix type="matrix" values="0 0 0 0 1 0 0 0 0 1 0 0 0 0 1 0 0 0 0.15 0"/>
<feBlend mode="normal" in2="BackgroundImageFix" result="effect1_dropShadow_1941_24397"/>
<feBlend mode="normal" in="SourceGraphic" in2="effect1_dropShadow_1941_24397" result="shape"/>
</filter>
<linearGradient id="paint0_linear_1941_24397" x1="129.487" y1="-1.79525e-05" x2="146.464" y2="2.85732" gradientUnits="userSpaceOnUse">
<stop stop-color="#ECC271"/>
<stop offset="1" stop-color="#7F642E"/>
</linearGradient>
<linearGradient id="paint1_linear_1941_24397" x1="244.066" y1="179.154" x2="255.646" y2="190.763" gradientUnits="userSpaceOnUse">
<stop stop-color="#ECC271"/>
<stop offset="1" stop-color="#7F642E"/>
</linearGradient>
<linearGradient id="paint2_linear_1941_24397" x1="192.261" y1="220.629" x2="209.237" y2="223.486" gradientUnits="userSpaceOnUse">
<stop stop-color="#ECC271"/>
<stop offset="1" stop-color="#7F642E"/>
</linearGradient>
<linearGradient id="paint3_linear_1941_24397" x1="129.487" y1="241.862" x2="146.297" y2="245.163" gradientUnits="userSpaceOnUse">
<stop stop-color="#ECC271"/>
<stop offset="1" stop-color="#7F642E"/>
</linearGradient>
<linearGradient id="paint4_linear_1941_24397" x1="66.7141" y1="220.629" x2="83.6165" y2="223.693" gradientUnits="userSpaceOnUse">
<stop stop-color="#ECC271"/>
<stop offset="1" stop-color="#7F642E"/>
</linearGradient>
<linearGradient id="paint5_linear_1941_24397" x1="18.1776" y1="184.823" x2="34.1918" y2="178.609" gradientUnits="userSpaceOnUse">
<stop stop-color="#ECC271"/>
<stop offset="1" stop-color="#7F642E"/>
</linearGradient>
<linearGradient id="paint6_linear_1941_24397" x1="11.3259" y1="124.623" x2="28.2675" y2="127.58" gradientUnits="userSpaceOnUse">
<stop stop-color="#ECC271"/>
<stop offset="1" stop-color="#7F642E"/>
</linearGradient>
<linearGradient id="paint7_linear_1941_24397" x1="38.068" y1="66.1942" x2="50.4504" y2="78.1289" gradientUnits="userSpaceOnUse">
<stop stop-color="#ECC271"/>
<stop offset="1" stop-color="#7F642E"/>
</linearGradient>
<linearGradient id="paint8_linear_1941_24397" x1="65.791" y1="22.1553" x2="82.7326" y2="25.1123" gradientUnits="userSpaceOnUse">
<stop stop-color="#ECC271"/>
<stop offset="1" stop-color="#7F642E"/>
</linearGradient>
<linearGradient id="paint9_linear_1941_24397" x1="230.19" y1="69.3164" x2="246.241" y2="64.2822" gradientUnits="userSpaceOnUse">
<stop stop-color="#ECC271"/>
<stop offset="1" stop-color="#7F642E"/>
</linearGradient>
<linearGradient id="paint10_linear_1941_24397" x1="198.17" y1="21.2314" x2="214.331" y2="23.9145" gradientUnits="userSpaceOnUse">
<stop stop-color="#ECC271"/>
<stop offset="1" stop-color="#7F642E"/>
</linearGradient>
<linearGradient id="paint11_linear_1941_24397" x1="249.219" y1="124.623" x2="265.771" y2="127.442" gradientUnits="userSpaceOnUse">
<stop stop-color="#ECC271"/>
<stop offset="1" stop-color="#7F642E"/>
</linearGradient>
<linearGradient id="paint12_linear_1941_24397" x1="199.569" y1="25.8477" x2="199.569" y2="270.479" gradientUnits="userSpaceOnUse">
<stop stop-color="white"/>
<stop offset="1" stop-color="white" stop-opacity="0"/>
</linearGradient>
</defs>
</svg>
