<svg width="130" height="127" viewBox="0 0 130 127" fill="none" xmlns="http://www.w3.org/2000/svg">
<path fill-rule="evenodd" clip-rule="evenodd" d="M0 63.1812C0 48.782 4.81688 35.5078 12.9272 24.8821L20.6206 21.1844L24.0735 13.5548C34.8307 5.06597 48.4144 0 63.1812 0H66.6489C80.4362 0 93.1921 4.41618 103.579 11.9112L107.683 20.8127L116.307 24.1135C124.777 34.8644 129.83 48.4327 129.83 63.1812C129.83 78.0343 124.705 91.6902 116.126 102.477L106.538 106.665L103.315 114.641C92.976 122.021 80.3195 126.362 66.6489 126.362H63.1812C49.8188 126.362 37.4254 122.214 27.2182 115.135L23.6744 108.151L15.5148 104.653C5.85154 93.5555 0 79.0517 0 63.1812Z" fill="url(#paint0_linear_12_195)"/>
<rect x="6.11023" y="5.94629" width="117.611" height="114.469" rx="57.2347" fill="url(#paint1_linear_12_195)"/>
<path d="M64.0328 118.201L64.0644 112.834M7.62218 62.3217L13.1362 62.3525M115.933 62.9264L121.447 62.9572M64.6541 12.7826L64.6857 7.41588M23.9369 101.632L27.8583 97.8592M24.6455 23.2968L28.5221 27.1135M100.794 98.2664L104.67 102.083M100.964 27.5179L104.885 23.7448M14.9964 90.0829L19.7875 87.4261M36.5119 14.5951L39.2415 19.2582M90.1295 106.192L92.8591 110.856M109.107 37.8974L113.898 35.2407M9.43176 76.6748L14.7661 75.3155M50.2879 9.17904L51.6845 14.3709M77.7209 111.162L79.1174 116.354M114.213 49.9746L119.547 48.6153M49.32 116.187L50.7777 111.011M9.69111 48.002L15.0091 49.4207M114.151 75.8703L119.469 77.2891M77.9532 14.5176L79.4109 9.34167M35.6441 110.536L38.4285 105.904M15.4974 34.6913L20.2569 37.4014M108.987 87.9242L113.747 90.6342M90.3378 19.5435L93.1222 14.9111M41.8053 113.594L43.9918 108.667M12.3552 40.688L17.4173 42.8162M111.789 82.4907L116.851 84.6188M84.7552 16.8166L86.9417 11.8897M11.5665 83.0776L16.6921 81.0986M43.7094 11.2569L45.7427 16.2455M83.6493 109.248L85.6827 114.237M112.247 44.2044L117.372 42.2254M7.98156 69.0442L13.4587 68.4238M58.1279 7.76768L58.7654 13.0985M70.649 112.481L71.2865 117.812M115.568 56.8575L121.046 56.2371M8.25061 54.5859L13.7061 55.3664M72.9829 8.02951L72.1811 13.3393M57.2319 112.329L56.43 117.639M115.412 69.9162L120.868 70.6967M29.075 106.138L32.4972 101.93M20.0157 28.2977L24.3394 31.6285M104.945 93.7239L109.269 97.0547M96.2966 23.4777L99.7188 19.2695M18.7611 95.7297L23.1857 92.527M30.7101 18.2593L34.0007 22.5658M95.3471 102.85L98.6377 107.157M105.673 32.8191L110.098 29.6164" stroke="url(#paint2_linear_12_195)"/>
<path d="M60.4214 118.059L60.8029 112.705M7.76785 58.8078L13.2688 59.1791M115.821 66.1011L121.322 66.4724M67.9148 12.8911L68.2963 7.53709M21.4866 99.0468L25.6461 95.5235M27.3013 20.9129L30.9213 24.9613M98.408 100.435L102.028 104.483M103.191 29.8393L107.35 26.316M13.3171 86.9684L18.2718 84.613M39.7112 12.9617L42.1313 17.784M87.2484 107.686L89.6685 112.508M110.641 40.7009L115.596 38.3454M8.63795 73.2436L14.0502 72.2166M53.8126 8.40742L54.8679 13.6751M74.5408 111.879L75.5961 117.147M114.949 53.0691L120.361 52.042M45.8695 115.14L47.6618 110.065M10.7663 44.6447L15.981 46.389M113.199 78.9088L118.413 80.6531M81.074 15.4439L82.8662 10.3685M32.5897 108.656L35.6705 104.205M17.4288 31.7194L22.002 34.718M107.259 90.6194L111.832 93.6179M93.1059 21.2247L96.1868 16.7736M38.539 112.088L41.0424 107.306M13.9019 37.51L18.815 39.9465M110.409 85.3699L115.323 87.8064M87.7124 18.1585L90.2158 13.3766M10.3509 79.7654L15.5952 78.107M47.1118 10.0747L48.8158 15.1789M80.5821 110.335L82.2861 115.439M113.363 47.189L118.607 45.5306M7.6882 65.5389L13.1948 65.258M61.7288 7.48314L62.0174 12.8426M67.3972 112.759L67.6858 118.118M115.853 60.0218L121.359 59.7409M8.89941 51.1264L14.293 52.2422M76.5368 8.66196L75.3903 13.9115M54.0171 111.778L52.8706 117.028M114.845 73.0446L120.239 74.1604M26.3205 103.861L30.0102 99.8728M22.3548 25.6178L26.4526 29.2089M102.847 96.1578L106.945 99.7489M98.7962 25.519L102.486 21.5307M16.7061 92.8364L21.3306 89.9134M33.6821 16.2602L36.6853 20.7612M92.6735 104.673L95.6767 109.174M107.545 35.4208L112.17 32.4978" stroke="url(#paint3_linear_12_195)"/>
<g filter="url(#filter0_i_12_195)">
<ellipse cx="64" cy="62.5" rx="49" ry="48.5" fill="#141414"/>
</g>
<path d="M112.5 62.5C112.5 89.0048 90.7907 110.5 64 110.5C37.2093 110.5 15.5 89.0048 15.5 62.5C15.5 35.9952 37.2093 14.5 64 14.5C90.7907 14.5 112.5 35.9952 112.5 62.5Z" stroke="url(#paint4_linear_12_195)"/>
<g clip-path="url(#clip0_12_195)">
<path d="M52.1404 61.8814C52.9977 62.1726 53.7446 62.4638 54.4424 62.9169C56.2756 64.1141 57.0537 66.0142 56.6045 68.3289C56.3131 69.8325 55.5208 70.9651 54.4281 71.8388C53.0637 72.9319 51.5103 73.4567 49.8829 73.7601C48.8241 73.9563 47.7591 73.9876 46.6896 73.9866C39.3085 73.9825 31.9277 73.9852 24.5471 73.9947C24.1318 73.9947 23.9999 73.9037 24.0008 73.3981C24.0168 66.1214 24.0168 58.8447 24.0008 51.568C24.0008 51.1413 24.0694 50.9997 24.4803 51.0007C49.9794 51.0129 75.478 51.0166 100.976 51.0119C101.377 51.0119 101.778 51.0321 102.179 51.022C102.397 51.0169 102.504 51.0756 102.502 51.3557C102.492 52.4842 102.495 53.6127 102.502 54.7412C102.502 54.9799 102.422 55.0628 102.212 55.0668C101.619 55.0769 101.028 55.1265 100.435 55.1265C89.2822 55.1305 78.1294 55.1322 66.9766 55.1315C66.2378 55.1315 66.3465 55.0456 66.3465 55.8637C66.3429 61.7422 66.3444 67.6207 66.3509 73.4992C66.3509 73.8673 66.31 74.0048 65.9258 73.9997C64.4705 73.9623 63.0151 73.9664 61.5588 73.9997C61.123 74.0088 60.9822 73.8986 60.984 73.3677C61.0036 67.5027 60.9965 61.6448 60.9965 55.7828C60.9965 55.1386 60.9965 55.1346 60.4127 55.1346C50.2254 55.1346 40.0378 55.1315 29.8499 55.1255C29.4694 55.1255 29.3464 55.2175 29.3482 55.6776C29.3642 60.2766 29.366 64.8752 29.3535 69.4735C29.3535 69.8174 29.3687 70.0236 29.7697 70.0216C35.1901 70.0004 40.6106 70.0216 46.0301 69.9792C47.4115 69.969 48.7929 69.7708 50.0531 69.0397C51.4078 68.255 51.7357 66.5906 50.783 65.3923C50.406 64.9191 49.9141 64.642 49.3865 64.4418C48.4721 64.0939 47.5256 64.0322 46.5729 64.0322C42.295 64.0322 38.0171 64.0251 33.7392 64.0433C33.3061 64.0433 33.1287 63.9523 33.1653 63.4123C33.2077 62.7053 33.2077 61.9958 33.1653 61.2888C33.1376 60.7832 33.266 60.6305 33.7276 60.6325C37.8124 60.6528 41.8966 60.6554 45.9802 60.6406C46.8839 60.6406 47.7867 60.6295 48.6806 60.4101C50.1957 60.0389 50.8089 59.1905 50.7385 57.4472C50.726 57.154 50.8276 57.1085 51.0388 57.1095C52.643 57.1095 54.2472 57.1236 55.8514 57.1044C56.2008 57.0994 56.2035 57.2905 56.1714 57.5716C56.0092 58.9752 55.4046 60.0619 54.3577 60.8317C53.7071 61.311 52.9754 61.5821 52.1404 61.8814Z" fill="#09090A"/>
<path d="M84.1363 73.9839C80.157 73.9839 76.1786 73.9758 72.1993 73.995C71.7777 73.995 71.6716 73.8514 71.6859 73.3974C71.7135 72.4549 71.7162 71.5104 71.6859 70.566C71.6699 70.1038 71.7866 69.9754 72.2001 69.9764C77.7257 69.9919 83.2487 69.9953 88.7689 69.9865C90.759 69.9865 92.7482 69.9967 94.7401 69.9865C95.7276 69.9785 96.6928 69.8065 97.5921 69.2929C98.6491 68.6861 99.1348 67.5991 98.8968 66.3897C98.7426 65.607 98.2997 65.0882 97.6981 64.7272C96.6376 64.0912 95.4807 64.0285 94.3177 64.0275C89.5942 64.0275 84.8752 64.0477 80.1534 64.0184C78.2435 64.0062 76.3657 63.6918 74.6189 62.7412C72.9853 61.8534 71.7198 60.5813 71.3098 58.4678C71.0817 57.2928 71.136 57.218 72.1859 57.218C73.597 57.218 75.0075 57.218 76.4174 57.218C76.5957 57.218 76.7926 57.1421 76.8033 57.5163C76.8559 59.2809 77.6054 60.196 79.1963 60.5034C79.7978 60.6069 80.406 60.6526 81.0144 60.6399C85.7209 60.6399 90.4275 60.6227 95.1341 60.651C96.9334 60.6612 98.7204 60.8836 100.416 61.636C102.112 62.3883 103.44 63.5987 103.852 65.7324C104.45 68.8307 103.3 71.3416 100.686 72.7219C99.0822 73.5662 97.3817 73.9353 95.6349 73.9556C91.8027 73.995 87.9704 73.9677 84.1435 73.9677L84.1363 73.9839Z" fill="#09090A"/>
<path d="M59.9801 79.2861L64.4679 73.3193H65.9976V79.2861H67.2227V80.5366H65.9976V82.4219H64.6964V80.5366H59.9801V79.2861ZM64.6964 79.2861V74.8936L61.3956 79.2861H64.6964ZM64.9376 113.185C65.255 113.172 65.4814 113.088 65.6168 112.931C65.7522 112.77 65.8199 112.525 65.8199 112.195V111.598C65.8199 111.251 65.7437 110.997 65.5914 110.836C65.439 110.676 65.1915 110.595 64.8487 110.595H62.481C62.1383 110.595 61.8907 110.676 61.7384 110.836C61.586 110.997 61.5099 111.251 61.5099 111.598V112.195C61.5099 112.525 61.5776 112.77 61.713 112.931C61.8526 113.088 62.079 113.172 62.3922 113.185H64.9376ZM64.9757 117.146C65.3227 117.146 65.5724 117.066 65.7247 116.905C65.877 116.744 65.9532 116.492 65.9532 116.149V115.445C65.9532 115.098 65.877 114.846 65.7247 114.689C65.5724 114.533 65.3227 114.455 64.9757 114.455H62.3541C62.0071 114.455 61.7574 114.533 61.6051 114.689C61.4527 114.846 61.3765 115.098 61.3765 115.445V116.149C61.3765 116.492 61.4527 116.744 61.6051 116.905C61.7574 117.066 62.0071 117.146 62.3541 117.146H64.9757ZM62.316 118.422C60.8391 118.422 60.1007 117.686 60.1007 116.213V115.756C60.1007 115.189 60.2022 114.734 60.4054 114.391C60.6085 114.048 60.9026 113.82 61.2877 113.706C60.9449 113.545 60.6825 113.299 60.5006 112.969C60.3228 112.635 60.234 112.212 60.234 111.7V111.535C60.234 110.058 60.9703 109.319 62.443 109.319H64.8868C66.3595 109.319 67.0958 110.058 67.0958 111.535V111.7C67.0958 112.212 67.0048 112.635 66.8228 112.969C66.6451 113.299 66.3849 113.545 66.0421 113.706C66.4272 113.82 66.7213 114.048 66.9244 114.391C67.1275 114.734 67.2291 115.189 67.2291 115.756V116.213C67.2291 117.686 66.4928 118.422 65.0201 118.422H62.316Z" fill="#09090A"/>
</g>
<path d="M60.3324 101.735C60.3324 101.549 60.3084 101.417 60.2604 101.339C60.2124 101.261 60.0954 101.222 59.9094 101.222H58.5864C58.6224 101.048 58.6764 100.919 58.7484 100.835C58.8264 100.745 58.9524 100.7 59.1264 100.7H60.1974C60.5094 100.7 60.7284 100.766 60.8544 100.898C60.9864 101.024 61.0524 101.243 61.0524 101.555V102.869C61.0524 103.115 61.0254 103.301 60.9714 103.427C60.9174 103.553 60.8034 103.637 60.6294 103.679V103.688C60.9594 103.772 61.1244 104.045 61.1244 104.507V106.145C61.1244 106.457 61.0584 106.679 60.9264 106.811C60.8004 106.937 60.5814 107 60.2694 107H59.1984C59.0244 107 58.8984 106.958 58.8204 106.874C58.7484 106.784 58.6944 106.652 58.6584 106.478H59.9814C60.1674 106.478 60.2844 106.439 60.3324 106.361C60.3804 106.283 60.4044 106.151 60.4044 105.965V104.507C60.4044 104.321 60.3654 104.189 60.2874 104.111C60.2094 104.033 60.0774 103.994 59.8914 103.994H59.1354V103.715C59.1354 103.619 59.1504 103.556 59.1804 103.526C59.2164 103.49 59.2824 103.472 59.3784 103.472H59.9454C60.1074 103.466 60.2124 103.424 60.2604 103.346C60.3084 103.262 60.3324 103.133 60.3324 102.959V101.735ZM63.0198 105.965C63.0198 106.151 63.0438 106.283 63.0918 106.361C63.1398 106.439 63.2568 106.478 63.4428 106.478H63.9378C64.1238 106.478 64.2408 106.439 64.2888 106.361C64.3368 106.283 64.3608 106.151 64.3608 105.965V101.735C64.3608 101.549 64.3368 101.417 64.2888 101.339C64.2408 101.261 64.1238 101.222 63.9378 101.222H63.4428C63.2568 101.222 63.1398 101.261 63.0918 101.339C63.0438 101.417 63.0198 101.549 63.0198 101.735V105.965ZM62.3448 101.555C62.3448 101.243 62.4078 101.024 62.5338 100.898C62.6658 100.766 62.8878 100.7 63.1998 100.7H64.1808C64.4928 100.7 64.7118 100.766 64.8378 100.898C64.9698 101.024 65.0358 101.243 65.0358 101.555V106.145C65.0358 106.457 64.9698 106.679 64.8378 106.811C64.7118 106.937 64.4928 107 64.1808 107H63.1998C62.8878 107 62.6658 106.937 62.5338 106.811C62.4078 106.679 62.3448 106.457 62.3448 106.145V101.555ZM69.2339 106.757C69.2339 106.853 69.2159 106.919 69.1799 106.955C69.1499 106.985 69.0869 107 68.9909 107H68.5139V103.463C68.5139 103.277 68.4899 103.145 68.4419 103.067C68.3939 102.989 68.2769 102.95 68.0909 102.95H66.9839V106.757C66.9839 106.853 66.9659 106.919 66.9299 106.955C66.8999 106.985 66.8369 107 66.7409 107H66.2639V100.943C66.2639 100.847 66.2789 100.784 66.3089 100.754C66.3449 100.718 66.4109 100.7 66.5069 100.7H66.9839V102.95C67.0199 102.776 67.0739 102.647 67.1459 102.563C67.2239 102.473 67.3499 102.428 67.5239 102.428H68.3789C68.6909 102.428 68.9099 102.494 69.0359 102.626C69.1679 102.752 69.2339 102.971 69.2339 103.283V106.757Z" fill="#00448E"/>
<path d="M61.246 22.139C61.246 22.313 61.231 22.457 61.201 22.571C61.177 22.679 61.132 22.766 61.066 22.832C61 22.892 60.913 22.934 60.805 22.958C60.697 22.982 60.559 22.994 60.391 22.994H59.869C59.779 22.994 59.704 23.003 59.644 23.021C59.59 23.033 59.548 23.057 59.518 23.093C59.488 23.129 59.467 23.18 59.455 23.246C59.449 23.312 59.446 23.399 59.446 23.507V24.965C59.446 25.151 59.47 25.283 59.518 25.361C59.566 25.439 59.683 25.478 59.869 25.478H61.246V25.757C61.246 25.853 61.228 25.919 61.192 25.955C61.162 25.985 61.099 26 61.003 26H59.581C59.269 26 59.047 25.937 58.915 25.811C58.789 25.679 58.726 25.457 58.726 25.145V23.327C58.726 23.153 58.738 23.012 58.762 22.904C58.792 22.79 58.84 22.703 58.906 22.643C58.972 22.577 59.059 22.532 59.167 22.508C59.275 22.484 59.413 22.472 59.581 22.472H60.103C60.193 22.472 60.265 22.466 60.319 22.454C60.379 22.436 60.424 22.409 60.454 22.373C60.484 22.337 60.502 22.286 60.508 22.22C60.52 22.154 60.526 22.067 60.526 21.959V20.735C60.526 20.549 60.502 20.417 60.454 20.339C60.406 20.261 60.289 20.222 60.103 20.222H58.78C58.816 20.048 58.87 19.919 58.942 19.835C59.02 19.745 59.146 19.7 59.32 19.7H60.391C60.703 19.7 60.922 19.766 61.048 19.898C61.18 20.024 61.246 20.243 61.246 20.555V22.139ZM65.0291 25.757C65.0291 25.853 65.0111 25.919 64.9751 25.955C64.9451 25.985 64.8821 26 64.7861 26H64.3091V22.994H63.0941C62.9261 22.994 62.7881 22.982 62.6801 22.958C62.5721 22.934 62.4851 22.892 62.4191 22.832C62.3531 22.766 62.3051 22.679 62.2751 22.571C62.2511 22.457 62.2391 22.313 62.2391 22.139V19.943C62.2391 19.847 62.2541 19.784 62.2841 19.754C62.3201 19.718 62.3861 19.7 62.4821 19.7H62.9591V21.959C62.9591 22.067 62.9621 22.154 62.9681 22.22C62.9801 22.286 63.0011 22.337 63.0311 22.373C63.0611 22.409 63.1031 22.436 63.1571 22.454C63.2171 22.466 63.2921 22.472 63.3821 22.472H64.3091V19.943C64.3091 19.847 64.3241 19.784 64.3541 19.754C64.3901 19.718 64.4561 19.7 64.5521 19.7H65.0291V25.757ZM69.2383 25.757C69.2383 25.853 69.2203 25.919 69.1843 25.955C69.1543 25.985 69.0913 26 68.9953 26H68.5183V22.463C68.5183 22.277 68.4943 22.145 68.4463 22.067C68.3983 21.989 68.2813 21.95 68.0953 21.95H66.9883V25.757C66.9883 25.853 66.9703 25.919 66.9343 25.955C66.9043 25.985 66.8413 26 66.7453 26H66.2683V19.943C66.2683 19.847 66.2833 19.784 66.3133 19.754C66.3493 19.718 66.4153 19.7 66.5113 19.7H66.9883V21.95C67.0243 21.776 67.0783 21.647 67.1503 21.563C67.2283 21.473 67.3543 21.428 67.5283 21.428H68.3833C68.6953 21.428 68.9143 21.494 69.0403 21.626C69.1723 21.752 69.2383 21.971 69.2383 22.283V25.757Z" fill="#CC0000"/>
<g filter="url(#filter1_d_12_195)">
<path d="M97.6222 27.2889H89C88.1704 27.2889 87.4889 27.2 86.9556 27.0222C86.4222 26.8444 86.0074 26.5185 85.7111 26.0444C85.4148 25.5704 85.2074 24.8889 85.0889 24C85.0296 23.1111 85 21.9852 85 20.6222H97.6222V12C97.6222 11.1704 97.7111 10.4889 97.8889 9.95556C98.0667 9.42222 98.3926 9.00741 98.8667 8.71111C99.3407 8.41481 100.022 8.23704 100.911 8.17778C101.8 8.05926 102.926 8 104.289 8V20.6222H113C114.659 20.6222 115.726 21.0667 116.2 21.9556C116.733 22.7852 117 24.563 117 27.2889H104.289V36C104.289 36.8296 104.2 37.5111 104.022 38.0444C103.844 38.5778 103.489 38.9926 102.956 39.2889C102.481 39.5852 101.8 39.7926 100.911 39.9111C100.081 39.9704 98.9852 40 97.6222 40V27.2889Z" fill="#473616"/>
</g>
<g filter="url(#filter2_d_12_195)">
<path d="M96.6222 26.2889H88C87.1704 26.2889 86.4889 26.2 85.9556 26.0222C85.4222 25.8444 85.0074 25.5185 84.7111 25.0444C84.4148 24.5704 84.2074 23.8889 84.0889 23C84.0296 22.1111 84 20.9852 84 19.6222H96.6222V11C96.6222 10.1704 96.7111 9.48889 96.8889 8.95556C97.0667 8.42222 97.3926 8.00741 97.8667 7.71111C98.3407 7.41481 99.0222 7.23704 99.9111 7.17778C100.8 7.05926 101.926 7 103.289 7V19.6222H112C113.659 19.6222 114.726 20.0667 115.2 20.9556C115.733 21.7852 116 23.563 116 26.2889H103.289V35C103.289 35.8296 103.2 36.5111 103.022 37.0444C102.844 37.5778 102.489 37.9926 101.956 38.2889C101.481 38.5852 100.8 38.7926 99.9111 38.9111C99.0815 38.9704 97.9852 39 96.6222 39V26.2889Z" fill="url(#paint5_linear_12_195)"/>
</g>
<defs>
<filter id="filter0_i_12_195" x="15" y="14" width="98" height="101" filterUnits="userSpaceOnUse" color-interpolation-filters="sRGB">
<feFlood flood-opacity="0" result="BackgroundImageFix"/>
<feBlend mode="normal" in="SourceGraphic" in2="BackgroundImageFix" result="shape"/>
<feColorMatrix in="SourceAlpha" type="matrix" values="0 0 0 0 0 0 0 0 0 0 0 0 0 0 0 0 0 0 127 0" result="hardAlpha"/>
<feOffset dy="4"/>
<feGaussianBlur stdDeviation="2"/>
<feComposite in2="hardAlpha" operator="arithmetic" k2="-1" k3="1"/>
<feColorMatrix type="matrix" values="0 0 0 0 0 0 0 0 0 0 0 0 0 0 0 0 0 0 0.25 0"/>
<feBlend mode="normal" in2="shape" result="effect1_innerShadow_12_195"/>
</filter>
<filter id="filter1_d_12_195" x="81" y="8" width="40" height="40" filterUnits="userSpaceOnUse" color-interpolation-filters="sRGB">
<feFlood flood-opacity="0" result="BackgroundImageFix"/>
<feColorMatrix in="SourceAlpha" type="matrix" values="0 0 0 0 0 0 0 0 0 0 0 0 0 0 0 0 0 0 127 0" result="hardAlpha"/>
<feOffset dy="4"/>
<feGaussianBlur stdDeviation="2"/>
<feComposite in2="hardAlpha" operator="out"/>
<feColorMatrix type="matrix" values="0 0 0 0 0 0 0 0 0 0 0 0 0 0 0 0 0 0 0.25 0"/>
<feBlend mode="normal" in2="BackgroundImageFix" result="effect1_dropShadow_12_195"/>
<feBlend mode="normal" in="SourceGraphic" in2="effect1_dropShadow_12_195" result="shape"/>
</filter>
<filter id="filter2_d_12_195" x="80" y="7" width="40" height="40" filterUnits="userSpaceOnUse" color-interpolation-filters="sRGB">
<feFlood flood-opacity="0" result="BackgroundImageFix"/>
<feColorMatrix in="SourceAlpha" type="matrix" values="0 0 0 0 0 0 0 0 0 0 0 0 0 0 0 0 0 0 127 0" result="hardAlpha"/>
<feOffset dy="4"/>
<feGaussianBlur stdDeviation="2"/>
<feComposite in2="hardAlpha" operator="out"/>
<feColorMatrix type="matrix" values="0 0 0 0 0 0 0 0 0 0 0 0 0 0 0 0 0 0 0.25 0"/>
<feBlend mode="normal" in2="BackgroundImageFix" result="effect1_dropShadow_12_195"/>
<feBlend mode="normal" in="SourceGraphic" in2="effect1_dropShadow_12_195" result="shape"/>
</filter>
<linearGradient id="paint0_linear_12_195" x1="55" y1="-4.5" x2="87" y2="126" gradientUnits="userSpaceOnUse">
<stop stop-color="#304354"/>
<stop offset="1" stop-color="#11191F"/>
</linearGradient>
<linearGradient id="paint1_linear_12_195" x1="64.9156" y1="5.94629" x2="64.9156" y2="120.416" gradientUnits="userSpaceOnUse">
<stop stop-color="#3E5466"/>
<stop offset="1" stop-color="#060A0D"/>
</linearGradient>
<linearGradient id="paint2_linear_12_195" x1="64.8603" y1="7.41686" x2="64.2418" y2="118.202" gradientUnits="userSpaceOnUse">
<stop stop-color="#597488"/>
<stop offset="1" stop-color="#07090B"/>
</linearGradient>
<linearGradient id="paint3_linear_12_195" x1="80.5" y1="111.5" x2="42.5" y2="16.5" gradientUnits="userSpaceOnUse">
<stop stop-color="#030508"/>
<stop offset="1" stop-color="#192430" stop-opacity="0.56"/>
</linearGradient>
<linearGradient id="paint4_linear_12_195" x1="64" y1="14" x2="64" y2="111" gradientUnits="userSpaceOnUse">
<stop stop-color="#F0C673"/>
<stop offset="1" stop-color="#F0C673" stop-opacity="0"/>
</linearGradient>
<linearGradient id="paint5_linear_12_195" x1="100" y1="7" x2="100" y2="39" gradientUnits="userSpaceOnUse">
<stop stop-color="#F0C673"/>
<stop offset="1" stop-color="#785E2A"/>
</linearGradient>
<clipPath id="clip0_12_195">
<rect width="80" height="23" fill="white" transform="translate(24 51)"/>
</clipPath>
</defs>
</svg>
