<svg width="342" height="400" viewBox="0 0 342 400" fill="none" xmlns="http://www.w3.org/2000/svg">
<rect x="76.5059" y="363.928" width="181" height="36" fill="url(#paint0_radial_1941_25345)"/>
<g filter="url(#filter0_f_1941_25345)">
<path d="M226.506 363.928L284.506 384.928V385.928L226.506 389.928V363.928Z" fill="url(#paint1_linear_1941_25345)"/>
</g>
<g filter="url(#filter1_f_1941_25345)">
<path d="M107.506 364.928L49.5059 385.928V386.928L107.506 390.928V364.928Z" fill="url(#paint2_linear_1941_25345)"/>
</g>
<rect width="19.5452" height="45.0403" transform="matrix(0.935477 -0.353389 -0.353389 -0.935477 274.254 363.362)" fill="url(#paint3_linear_1941_25345)"/>
<path d="M267.549 358.997L283.471 358.228L296.213 348.652L305.949 375.626L293.107 384.928L277.285 385.972L267.549 358.997Z" fill="url(#paint4_linear_1941_25345)"/>
<path d="M305.949 375.626L296.213 348.651L283.471 358.228L293.107 384.927L305.949 375.626Z" fill="url(#paint5_linear_1941_25345)"/>
<path d="M272.359 362.775L284.857 362.071L294.924 354.631L302.369 375.259L292.226 382.488L279.804 383.403L272.359 362.775Z" fill="url(#paint6_linear_1941_25345)"/>
<path d="M302.37 375.259L294.925 354.632L285.163 361.962L292.532 382.379L302.37 375.259Z" fill="url(#paint7_linear_1941_25345)"/>
<rect x="62.4438" y="363.362" width="19.5452" height="45.0403" transform="rotate(-159.305 62.4438 363.362)" fill="url(#paint8_linear_1941_25345)"/>
<path d="M69.1484 358.997L53.227 358.228L40.4847 348.652L30.7489 375.626L43.5906 384.928L59.4127 385.972L69.1484 358.997Z" fill="url(#paint9_linear_1941_25345)"/>
<path d="M30.7488 375.626L40.4845 348.651L53.2269 358.228L43.5905 384.927L30.7488 375.626Z" fill="url(#paint10_linear_1941_25345)"/>
<path d="M64.3384 362.775L51.8403 362.071L41.7733 354.631L34.3283 375.259L44.4713 382.488L56.8934 383.403L64.3384 362.775Z" fill="url(#paint11_linear_1941_25345)"/>
<path d="M34.3279 375.259L41.7729 354.632L51.535 361.962L44.1659 382.379L34.3279 375.259Z" fill="url(#paint12_linear_1941_25345)"/>
<rect width="14.1846" height="92.9115" rx="7.0923" transform="matrix(0.812579 0.582852 0.582852 -0.812579 244.001 124.742)" fill="url(#paint13_linear_1941_25345)"/>
<rect width="14.1847" height="92.5852" rx="7.09235" transform="matrix(-0.828733 0.559645 -0.560409 -0.828216 99.8789 122.734)" fill="url(#paint14_linear_1941_25345)"/>
<path fill-rule="evenodd" clip-rule="evenodd" d="M244.685 22.1601L252.295 33.175L268.984 37.5606C278.248 46.1144 283.028 55.4253 283.691 64.5181L292.93 64.6466C292.266 51.1712 285.055 38.6647 273.222 28.3802L257.687 24.298L250.552 13.9713C233.917 6.23379 213.51 1.53626 191.406 1.22891L155.201 0.72546C133.312 0.421096 112.967 4.46641 96.2161 11.6069L88.7517 21.9818L70.5801 27.3641C59.6843 36.9879 52.9297 48.632 51.9529 61.2958L61.1917 61.4242C62.0493 52.9117 66.5295 44.3256 74.9338 36.4336L94.1146 30.7525L101.881 19.9577C116.986 13.9224 135.271 10.4493 155.062 10.7245L191.267 11.2279C211.287 11.5063 229.658 15.576 244.685 22.1601Z" fill="url(#paint15_radial_1941_25345)"/>
<rect x="35.5737" y="59.9795" width="28.7717" height="5.07996" rx="2.53998" transform="rotate(-32.7526 35.5737 59.9795)" fill="#28323A"/>
<rect width="28.7717" height="5.07996" rx="2.53998" transform="matrix(-0.814329 -0.580404 -0.580404 0.814329 310.594 65.0566)" fill="#11191F"/>
<path fill-rule="evenodd" clip-rule="evenodd" d="M222.363 74.1424C227.416 78.0573 231.603 81.4879 235.46 84.6475C245.842 93.1532 253.827 99.6955 269.864 108.438C288.977 118.857 312.93 128.592 319.084 131.044C324.899 120.656 326.656 109.066 324.846 98.1306L321.43 93.8125L322.049 87.9475C318.04 77.6737 310.656 68.634 300.383 62.6575L290.768 57.0644C280.601 51.1496 269.225 49.1787 258.413 50.6826L253.45 54.2937L246.562 53.8233C236.845 57.7034 228.258 64.6141 222.363 74.1424Z" fill="url(#paint16_linear_1941_25345)"/>
<path d="M322.339 88.546L321.833 93.6199C321.833 93.6199 302.542 86.4733 286.064 77.2916C269.586 68.1099 252.693 54.6986 252.693 54.6986L257.623 51.345C257.537 51.1586 257.617 51.0969 257.873 51.1748L257.623 51.345C258.335 52.8848 270.41 62.9344 288.409 73.0417C305.539 82.661 322.339 88.546 322.339 88.546Z" fill="url(#paint17_linear_1941_25345)"/>
<path d="M321.789 93.1653L325.362 98.843C325.362 98.843 304.688 92.9766 283.328 80.1162C261.967 67.2558 246.58 53.8359 246.58 53.8359L253.835 54.0866C253.872 54.0434 253.974 54.0465 254.141 54.0973L253.835 54.0866C253.339 54.6578 264.122 63.3036 285.771 76.8615C309.435 90.1502 321.789 93.1653 321.789 93.1653Z" fill="url(#paint18_linear_1941_25345)"/>
<path d="M321.228 128.344L318.634 132.619C318.634 132.619 293.497 123.535 267.056 108.801C240.616 94.0679 221.564 75.3422 221.564 75.3422L224.656 71.0189C224.273 70.1019 237.568 84.8217 268.406 104.649C297.809 120.096 321.228 128.344 321.228 128.344Z" fill="url(#paint19_linear_1941_25345)"/>
<g filter="url(#filter2_d_1941_25345)">
<path d="M284.446 86.7411C284.123 86.8386 280.374 88.5952 278.54 89.4612C278.689 87.7667 279.039 84.3606 279.036 84.0976C279.032 83.7688 278.744 83.6817 278.544 83.907C278.344 84.1324 277.942 84.4187 277.473 84.6706C277.004 84.9224 274.814 85.1995 272.894 85.4501C270.974 85.7006 269.96 85.5124 269.658 85.6039C269.355 85.6954 269.462 86.158 269.704 86.6895C269.946 87.2211 269.928 88.601 270.006 89.4574C270.083 90.3137 270.451 90.0923 270.921 89.8405C271.39 89.5886 271.898 89.7649 272.641 89.8152C273.383 89.8656 273.244 89.4679 272.905 89.2956C272.565 89.1233 272.164 88.5927 271.955 87.9962C271.746 87.3997 271.812 87.2698 272.281 87.0179C272.75 86.766 275.489 86.3548 276.297 86.2753C277.106 86.1957 276.978 86.7843 276.981 87.113C276.984 87.376 276.899 89.1685 276.853 90.0987C276.382 90.241 275.275 90.6792 274.442 90.9751C273.4 91.345 271.046 91.9468 270.305 92.0608C269.564 92.1748 268.554 92.3154 268.659 92.6136C268.763 92.9119 269.579 93.4898 269.688 94.1168C269.796 94.7438 269.379 96.5745 269.582 96.6778C269.786 96.7812 270.418 96.0402 272.092 94.9294C273.431 94.0407 275.712 92.9003 276.685 92.4412C276.638 93.2617 276.492 95.19 276.5 95.8475C276.461 97.5168 276.145 98.6972 275.373 99.0406C274.601 99.3839 273.309 99.0249 272.838 98.1678C272.439 97.4435 272.984 96.1993 272.844 95.8016C272.705 95.4039 272.22 95.5988 271.518 96.141C270.815 96.6831 269.894 97.4082 269.727 97.5686C269.56 97.729 269.527 97.794 269.733 98.0618C269.938 98.3295 270.078 98.7272 271.035 99.8672C272.509 101.841 274.23 101.88 275.573 101.354C277.008 100.792 277.725 100.814 278.098 100.921C278.47 101.028 278.877 101.235 278.941 100.941C279.005 100.647 278.484 99.3196 278.345 98.922C278.233 98.6038 278.24 97.6706 278.258 97.2438L278.39 91.7004L282.593 89.8854C282.893 90.5826 283.571 92.1957 282.672 93.5681C281.182 95.8424 279.633 94.6217 278.965 94.171C278.906 94.6394 278.798 95.2921 278.89 96.5027C282.223 98.3803 284.509 95.189 284.622 93.2855C284.878 91.2524 283.957 88.1828 284.022 88.0786C284.402 87.4704 284.888 86.6074 284.446 86.7411Z" fill="url(#paint20_linear_1941_25345)"/>
</g>
<path fill-rule="evenodd" clip-rule="evenodd" d="M121.661 66.1363C116.955 70.462 113.07 74.2322 109.493 77.7046C99.8626 87.0523 92.4553 94.2422 77.2088 104.301C59.0392 116.289 35.988 128.001 30.0617 130.962C23.3945 121.099 20.6703 109.697 21.5555 98.6489L24.5963 94.0591L23.4871 88.2668C26.6194 77.6926 33.2172 68.0645 42.9523 61.2461L52.0631 54.8651C61.6976 48.1172 72.8679 45.1975 83.768 45.7879L89.0169 48.9692L95.8408 47.9219C105.849 50.9721 114.986 57.1369 121.661 66.1363Z" fill="url(#paint21_linear_1941_25345)"/>
<path d="M23.248 88.887L24.1784 93.9005C24.1784 93.9005 42.8017 85.1586 58.4497 74.6251C74.0977 64.0917 89.8047 49.3086 89.8047 49.3086L84.6106 46.381C84.6808 46.1881 84.5957 46.1333 84.347 46.2324L84.6106 46.381C84.0301 47.9752 72.842 59.0037 55.7556 70.5873C39.4946 81.6115 23.248 88.887 23.248 88.887Z" fill="url(#paint22_linear_1941_25345)"/>
<path d="M24.185 93.4439L21.1019 99.4016C21.1019 99.4016 41.2092 91.8193 61.4143 77.2099C81.6195 62.6006 95.8247 47.9355 95.8247 47.9355L88.6165 48.7948C88.5754 48.7549 88.4738 48.7665 88.3115 48.8312L88.6165 48.7948C89.1578 49.3224 79.1396 58.8434 58.7063 74.172C36.2424 89.4016 24.185 93.4439 24.185 93.4439Z" fill="url(#paint23_linear_1941_25345)"/>
<path d="M27.6987 128.451L30.6427 132.493C30.6427 132.493 54.9284 121.329 80.0378 104.427C105.147 87.5245 122.559 67.2645 122.559 67.2645L119.115 63.2162C119.419 62.2703 107.407 78.055 78.3435 100.403C50.3425 118.265 27.6987 128.451 27.6987 128.451Z" fill="url(#paint24_linear_1941_25345)"/>
<g filter="url(#filter3_d_1941_25345)">
<path d="M67.8366 79.5113C67.7438 79.8428 67.2079 84.0122 66.9515 86.0555C65.5601 85.0603 62.7906 83.0163 62.5602 82.8847C62.2722 82.7201 62.0376 82.9277 62.1235 83.2172C62.2095 83.5066 62.2375 84.0033 62.1982 84.5416C62.1589 85.0799 61.1948 87.1327 60.3559 88.9367C59.5171 90.7407 58.7952 91.5299 58.7082 91.8407C58.6213 92.1516 59.0822 92.2947 59.6778 92.3546C60.2733 92.4144 61.4635 93.1345 62.2507 93.5041C63.038 93.8737 63.0483 93.439 63.0876 92.9007C63.1269 92.3624 63.5598 92.0088 64.0124 91.3862C64.465 90.7635 64.0424 90.6823 63.7058 90.8905C63.3692 91.0988 62.687 91.1782 62.0531 91.0564C61.4192 90.9346 61.3425 90.8107 61.3818 90.2723C61.4211 89.734 62.5706 87.1338 62.9465 86.3872C63.3224 85.6406 63.7637 86.0529 64.0517 86.2175C64.282 86.3491 65.7936 87.339 66.5774 87.8535C66.4421 88.337 66.2137 89.5274 66.0124 90.4058C65.7608 91.5038 64.9883 93.8664 64.6797 94.5713C64.3711 95.2762 63.9372 96.23 64.2542 96.2909C64.5711 96.3518 65.523 95.9343 66.1279 96.1597C66.7328 96.3851 68.0949 97.6841 68.2969 97.5591C68.4989 97.4342 68.2026 96.5038 68.1579 94.4755C68.1221 92.8528 68.3857 90.2796 68.522 89.1959C69.2098 89.6556 70.8065 90.7671 71.3824 91.0961C72.8128 91.982 73.6655 92.8602 73.5392 93.7093C73.4129 94.5585 72.3893 95.5035 71.3844 95.4776C70.5353 95.4558 69.753 94.3453 69.3303 94.2641C68.9077 94.1829 68.8103 94.7058 68.8953 95.5955C68.9803 96.4852 69.1038 97.6596 69.1514 97.8871C69.1991 98.1146 69.2374 98.1766 69.5834 98.1339C69.9293 98.0912 70.3519 98.1724 71.8704 97.9183C74.3976 97.6397 75.3793 96.1565 75.6611 94.7164C75.9625 93.176 76.3756 92.5611 76.6739 92.2909C76.9721 92.0207 77.3761 91.7707 77.1554 91.5646C76.9348 91.3584 75.494 91.1361 75.0714 91.0549C74.7333 90.99 73.9258 90.5072 73.5643 90.274L68.8162 87.3293L69.5511 82.7339C70.3227 82.8276 72.099 83.0586 72.7975 84.5442C73.9551 87.006 72.0411 87.7349 71.2813 88.0885C71.6562 88.379 72.1641 88.8067 73.268 89.3437C76.735 87.3926 75.2179 83.7683 73.6248 82.698C71.9981 81.4361 68.8217 80.6735 68.7668 80.5635C68.4469 79.9216 67.9637 79.0572 67.8366 79.5113Z" fill="url(#paint25_linear_1941_25345)"/>
</g>
<path fill-rule="evenodd" clip-rule="evenodd" d="M14.6483 226.794C15.2783 181.487 35.9324 141.151 68.0718 114.091L82.8023 110.119L91.2618 98.021C113.543 85.5008 139.324 78.5133 166.719 78.8942L175.719 79.0193C204.753 79.4231 231.746 88.0501 254.512 102.653L260.794 113.717L273.98 117.51C304.985 145.438 324.244 186.087 323.618 231.09L323.493 240.09C322.994 275.998 309.917 308.784 288.512 334.313L272.37 341.288L266.451 355.745C240.357 376.369 207.271 388.488 171.422 387.989L162.423 387.864C128.286 387.39 96.972 375.548 72.0317 355.991L64.6545 340.514L48.7037 333.221C26.9051 306.771 14.0093 272.75 14.5232 235.793L14.6483 226.794Z" fill="url(#paint26_linear_1941_25345)"/>
<circle cx="169.071" cy="233.442" r="149.548" transform="rotate(0.796663 169.071 233.442)" fill="url(#paint27_linear_1941_25345)"/>
<circle cx="169.071" cy="233.442" r="140.635" transform="rotate(0.796663 169.071 233.442)" fill="url(#paint28_linear_1941_25345)"/>
<circle cx="169.071" cy="233.443" r="133.702" transform="rotate(0.796663 169.071 233.443)" fill="black"/>
<circle cx="169.559" cy="233.944" r="131.226" transform="rotate(0.796663 169.559 233.944)" fill="url(#paint29_linear_1941_25345)"/>
<defs>
<filter id="filter0_f_1941_25345" x="222.506" y="359.928" width="66" height="34" filterUnits="userSpaceOnUse" color-interpolation-filters="sRGB">
<feFlood flood-opacity="0" result="BackgroundImageFix"/>
<feBlend mode="normal" in="SourceGraphic" in2="BackgroundImageFix" result="shape"/>
<feGaussianBlur stdDeviation="2" result="effect1_foregroundBlur_1941_25345"/>
</filter>
<filter id="filter1_f_1941_25345" x="45.5059" y="360.928" width="66" height="34" filterUnits="userSpaceOnUse" color-interpolation-filters="sRGB">
<feFlood flood-opacity="0" result="BackgroundImageFix"/>
<feBlend mode="normal" in="SourceGraphic" in2="BackgroundImageFix" result="shape"/>
<feGaussianBlur stdDeviation="2" result="effect1_foregroundBlur_1941_25345"/>
</filter>
<filter id="filter2_d_1941_25345" x="267.651" y="83.7812" width="18.0161" height="19.8594" filterUnits="userSpaceOnUse" color-interpolation-filters="sRGB">
<feFlood flood-opacity="0" result="BackgroundImageFix"/>
<feColorMatrix in="SourceAlpha" type="matrix" values="0 0 0 0 0 0 0 0 0 0 0 0 0 0 0 0 0 0 127 0" result="hardAlpha"/>
<feOffset dy="1"/>
<feGaussianBlur stdDeviation="0.5"/>
<feComposite in2="hardAlpha" operator="out"/>
<feColorMatrix type="matrix" values="0 0 0 0 1 0 0 0 0 1 0 0 0 0 1 0 0 0 0.1 0"/>
<feBlend mode="normal" in2="BackgroundImageFix" result="effect1_dropShadow_1941_25345"/>
<feBlend mode="normal" in="SourceGraphic" in2="effect1_dropShadow_1941_25345" result="shape"/>
</filter>
<filter id="filter3_d_1941_25345" x="57.6978" y="79.3848" width="20.521" height="20.7617" filterUnits="userSpaceOnUse" color-interpolation-filters="sRGB">
<feFlood flood-opacity="0" result="BackgroundImageFix"/>
<feColorMatrix in="SourceAlpha" type="matrix" values="0 0 0 0 0 0 0 0 0 0 0 0 0 0 0 0 0 0 127 0" result="hardAlpha"/>
<feOffset dy="1"/>
<feGaussianBlur stdDeviation="0.5"/>
<feComposite in2="hardAlpha" operator="out"/>
<feColorMatrix type="matrix" values="0 0 0 0 1 0 0 0 0 1 0 0 0 0 1 0 0 0 0.1 0"/>
<feBlend mode="normal" in2="BackgroundImageFix" result="effect1_dropShadow_1941_25345"/>
<feBlend mode="normal" in="SourceGraphic" in2="effect1_dropShadow_1941_25345" result="shape"/>
</filter>
<radialGradient id="paint0_radial_1941_25345" cx="0" cy="0" r="1" gradientUnits="userSpaceOnUse" gradientTransform="translate(167.006 381.928) scale(90.5 18)">
<stop/>
<stop offset="1" stop-opacity="0"/>
</radialGradient>
<linearGradient id="paint1_linear_1941_25345" x1="274.006" y1="322.428" x2="230.506" y2="380.928" gradientUnits="userSpaceOnUse">
<stop/>
<stop offset="1" stop-opacity="0"/>
</linearGradient>
<linearGradient id="paint2_linear_1941_25345" x1="60.0059" y1="323.428" x2="103.506" y2="381.928" gradientUnits="userSpaceOnUse">
<stop/>
<stop offset="1" stop-opacity="0"/>
</linearGradient>
<linearGradient id="paint3_linear_1941_25345" x1="5.84876" y1="-3.12826e-05" x2="14.8416" y2="0.448527" gradientUnits="userSpaceOnUse">
<stop stop-color="#B38A3A"/>
<stop offset="1" stop-color="#654D1F"/>
</linearGradient>
<linearGradient id="paint4_linear_1941_25345" x1="281.881" y1="353.824" x2="293.107" y2="384.928" gradientUnits="userSpaceOnUse">
<stop stop-color="#324559"/>
<stop offset="1" stop-color="#131D28"/>
</linearGradient>
<linearGradient id="paint5_linear_1941_25345" x1="289.047" y1="351.238" x2="300.273" y2="382.341" gradientUnits="userSpaceOnUse">
<stop stop-color="#111921"/>
<stop offset="1" stop-color="#0D1116"/>
</linearGradient>
<linearGradient id="paint6_linear_1941_25345" x1="276.34" y1="366.164" x2="292.226" y2="382.488" gradientUnits="userSpaceOnUse">
<stop stop-color="#405973"/>
<stop offset="1" stop-color="#131D28"/>
</linearGradient>
<linearGradient id="paint7_linear_1941_25345" x1="289.436" y1="356.613" x2="298.021" y2="380.398" gradientUnits="userSpaceOnUse">
<stop stop-color="#1D2C3D"/>
<stop offset="1" stop-color="#0D1116"/>
</linearGradient>
<linearGradient id="paint8_linear_1941_25345" x1="68.2926" y1="363.362" x2="77.2855" y2="363.811" gradientUnits="userSpaceOnUse">
<stop stop-color="#B38A3A"/>
<stop offset="1" stop-color="#654D1F"/>
</linearGradient>
<linearGradient id="paint9_linear_1941_25345" x1="54.8166" y1="353.824" x2="43.5906" y2="384.928" gradientUnits="userSpaceOnUse">
<stop stop-color="#324559"/>
<stop offset="1" stop-color="#131D28"/>
</linearGradient>
<linearGradient id="paint10_linear_1941_25345" x1="47.6505" y1="351.238" x2="36.4245" y2="382.341" gradientUnits="userSpaceOnUse">
<stop stop-color="#111921"/>
<stop offset="1" stop-color="#0D1116"/>
</linearGradient>
<linearGradient id="paint11_linear_1941_25345" x1="60.3581" y1="366.164" x2="44.4713" y2="382.488" gradientUnits="userSpaceOnUse">
<stop stop-color="#405973"/>
<stop offset="1" stop-color="#131D28"/>
</linearGradient>
<linearGradient id="paint12_linear_1941_25345" x1="47.2617" y1="356.613" x2="38.6771" y2="380.398" gradientUnits="userSpaceOnUse">
<stop stop-color="#1D2C3D"/>
<stop offset="1" stop-color="#0D1116"/>
</linearGradient>
<linearGradient id="paint13_linear_1941_25345" x1="15.2082" y1="35.3088" x2="-2.65938" y2="37.0628" gradientUnits="userSpaceOnUse">
<stop stop-color="#11161B"/>
<stop offset="1"/>
</linearGradient>
<linearGradient id="paint14_linear_1941_25345" x1="15.2083" y1="35.1847" x2="-2.65819" y2="36.9449" gradientUnits="userSpaceOnUse">
<stop stop-color="#11161B"/>
<stop offset="1"/>
</linearGradient>
<radialGradient id="paint15_radial_1941_25345" cx="0" cy="0" r="1" gradientUnits="userSpaceOnUse" gradientTransform="translate(173.303 0.977186) rotate(65.4189) scale(43.1654 226.554)">
<stop stop-color="#3B566C"/>
<stop offset="1" stop-color="#11191F"/>
</radialGradient>
<linearGradient id="paint16_linear_1941_25345" x1="233.179" y1="44.84" x2="318.015" y2="129.216" gradientUnits="userSpaceOnUse">
<stop stop-color="#ECC271"/>
<stop offset="0.570462" stop-color="#644F24"/>
<stop offset="1" stop-color="#5F481A"/>
</linearGradient>
<linearGradient id="paint17_linear_1941_25345" x1="285.236" y1="48.433" x2="289.987" y2="96.7511" gradientUnits="userSpaceOnUse">
<stop stop-color="#ECC271"/>
<stop offset="1" stop-color="#35270A"/>
</linearGradient>
<linearGradient id="paint18_linear_1941_25345" x1="276.236" y1="48.8663" x2="269.602" y2="88.7065" gradientUnits="userSpaceOnUse">
<stop stop-color="#ECC271"/>
<stop offset="1" stop-color="#35270A"/>
</linearGradient>
<linearGradient id="paint19_linear_1941_25345" x1="254.716" y1="65.0495" x2="244.729" y2="116.775" gradientUnits="userSpaceOnUse">
<stop stop-color="#ECC271"/>
<stop offset="1" stop-color="#35270A"/>
</linearGradient>
<linearGradient id="paint20_linear_1941_25345" x1="282.417" y1="101.514" x2="268.445" y2="66.7146" gradientUnits="userSpaceOnUse">
<stop stop-color="#4F3D1B"/>
<stop offset="1" stop-color="#90733A"/>
</linearGradient>
<linearGradient id="paint21_linear_1941_25345" x1="108.422" y1="37.8462" x2="30.9737" y2="129.05" gradientUnits="userSpaceOnUse">
<stop stop-color="#ECC271"/>
<stop offset="0.570462" stop-color="#644F24"/>
<stop offset="1" stop-color="#5F481A"/>
</linearGradient>
<linearGradient id="paint22_linear_1941_25345" x1="56.8504" y1="45.799" x2="56.1753" y2="94.3454" gradientUnits="userSpaceOnUse">
<stop stop-color="#ECC271"/>
<stop offset="1" stop-color="#35270A"/>
</linearGradient>
<linearGradient id="paint23_linear_1941_25345" x1="65.856" y1="45.4747" x2="75.8127" y2="84.6169" gradientUnits="userSpaceOnUse">
<stop stop-color="#ECC271"/>
<stop offset="1" stop-color="#35270A"/>
</linearGradient>
<linearGradient id="paint24_linear_1941_25345" x1="88.6592" y1="59.7932" x2="102.956" y2="110.497" gradientUnits="userSpaceOnUse">
<stop stop-color="#ECC271"/>
<stop offset="1" stop-color="#35270A"/>
</linearGradient>
<linearGradient id="paint25_linear_1941_25345" x1="68.9093" y1="100.536" x2="82.683" y2="57.7376" gradientUnits="userSpaceOnUse">
<stop stop-color="#4F3D1B"/>
<stop offset="1" stop-color="#90733A"/>
</linearGradient>
<linearGradient id="paint26_linear_1941_25345" x1="99.808" y1="85.8876" x2="215.447" y2="388.602" gradientUnits="userSpaceOnUse">
<stop stop-color="#273846"/>
<stop offset="1"/>
</linearGradient>
<linearGradient id="paint27_linear_1941_25345" x1="181.571" y1="75.4418" x2="250.755" y2="382.99" gradientUnits="userSpaceOnUse">
<stop stop-color="#284154"/>
<stop offset="1" stop-color="#010203"/>
</linearGradient>
<linearGradient id="paint28_linear_1941_25345" x1="128.071" y1="105.442" x2="245.887" y2="374.076" gradientUnits="userSpaceOnUse">
<stop stop-color="#294860"/>
<stop offset="1" stop-color="#010203"/>
</linearGradient>
<linearGradient id="paint29_linear_1941_25345" x1="233.714" y1="505.144" x2="110.264" y2="102.718" gradientUnits="userSpaceOnUse">
<stop stop-color="#111C24"/>
<stop offset="1" stop-color="#010203"/>
</linearGradient>
</defs>
</svg>
