<svg width="150" height="150" viewBox="0 0 392 383" fill="none" xmlns="http://www.w3.org/2000/svg">
<g filter="url(#filter0_d_3_7)">
<mask id="path-1-inside-1_3_7" fill="white">
<path fill-rule="evenodd" clip-rule="evenodd" d="M14 177.139C14 136.768 27.5052 99.5511 50.2443 69.7601L71.8124 59.3937L81.4925 38.0043C111.652 14.2038 149.737 0 191.139 0H200.861C239.517 0 275.281 12.382 304.403 33.3963L315.908 58.3517L340.085 67.6054C363.832 97.7475 378 135.789 378 177.139C378 218.782 363.63 257.069 339.578 287.312L312.696 299.052L303.661 321.414C274.674 342.105 239.189 354.278 200.861 354.278H191.139C153.675 354.278 118.927 342.648 90.3098 322.801L80.3744 303.219L57.4985 293.412C30.4058 262.298 14 221.635 14 177.139Z"/>
</mask>
<path fill-rule="evenodd" clip-rule="evenodd" d="M14 177.139C14 136.768 27.5052 99.5511 50.2443 69.7601L71.8124 59.3937L81.4925 38.0043C111.652 14.2038 149.737 0 191.139 0H200.861C239.517 0 275.281 12.382 304.403 33.3963L315.908 58.3517L340.085 67.6054C363.832 97.7475 378 135.789 378 177.139C378 218.782 363.63 257.069 339.578 287.312L312.696 299.052L303.661 321.414C274.674 342.105 239.189 354.278 200.861 354.278H191.139C153.675 354.278 118.927 342.648 90.3098 322.801L80.3744 303.219L57.4985 293.412C30.4058 262.298 14 221.635 14 177.139Z" fill="url(#paint0_linear_3_7)"/>
<path d="M50.2443 69.7601L49.8111 68.8588L49.5949 68.9627L49.4493 69.1534L50.2443 69.7601ZM71.8124 59.3937L72.2456 60.295L72.5734 60.1374L72.7234 59.806L71.8124 59.3937ZM81.4925 38.0043L80.873 37.2192L80.6818 37.3701L80.5814 37.5919L81.4925 38.0043ZM304.403 33.3963L305.311 32.9777L305.201 32.7391L304.988 32.5854L304.403 33.3963ZM315.908 58.3517L315 58.7704L315.17 59.1401L315.551 59.2856L315.908 58.3517ZM340.085 67.6054L340.87 66.9866L340.7 66.77L340.442 66.6715L340.085 67.6054ZM339.578 287.312L339.979 288.228L340.206 288.129L340.361 287.935L339.578 287.312ZM312.696 299.052L312.296 298.136L311.922 298.299L311.769 298.678L312.696 299.052ZM303.661 321.414L304.242 322.228L304.479 322.059L304.588 321.789L303.661 321.414ZM90.3098 322.801L89.418 323.253L89.5323 323.478L89.7399 323.622L90.3098 322.801ZM80.3744 303.219L81.2662 302.766L81.102 302.443L80.7684 302.3L80.3744 303.219ZM57.4985 293.412L56.7443 294.068L56.8944 294.241L57.1045 294.331L57.4985 293.412ZM49.4493 69.1534C26.5819 99.1126 13 136.541 13 177.139H15C15 136.995 28.4285 99.9896 51.0392 70.3669L49.4493 69.1534ZM71.3792 58.4924L49.8111 68.8588L50.6774 70.6614L72.2456 60.295L71.3792 58.4924ZM80.5814 37.5919L70.9013 58.9814L72.7234 59.806L82.4035 38.4166L80.5814 37.5919ZM191.139 -1C149.504 -1 111.203 13.2845 80.873 37.2192L82.1119 38.7893C112.102 15.1231 149.97 1 191.139 1V-1ZM200.861 -1H191.139V1H200.861V-1ZM304.988 32.5854C275.701 11.4523 239.734 -1 200.861 -1V1C239.3 1 274.86 13.3118 303.818 34.2073L304.988 32.5854ZM316.816 57.933L305.311 32.9777L303.495 33.815L315 58.7704L316.816 57.933ZM340.442 66.6715L316.266 57.4178L315.551 59.2856L339.727 68.5393L340.442 66.6715ZM379 177.139C379 135.556 364.751 97.2987 340.87 66.9866L339.299 68.2243C362.912 98.1963 377 136.021 377 177.139H379ZM340.361 287.935C364.548 257.521 379 219.016 379 177.139H377C377 218.548 362.712 256.617 338.796 286.69L340.361 287.935ZM313.096 299.969L339.979 288.228L339.178 286.396L312.296 298.136L313.096 299.969ZM304.588 321.789L313.623 299.427L311.769 298.678L302.734 321.039L304.588 321.789ZM200.861 355.278C239.404 355.278 275.091 343.036 304.242 322.228L303.08 320.6C274.257 341.174 238.974 353.278 200.861 353.278V355.278ZM191.139 355.278H200.861V353.278H191.139V355.278ZM89.7399 323.622C118.52 343.582 153.465 355.278 191.139 355.278V353.278C153.885 353.278 119.335 341.713 90.8797 321.979L89.7399 323.622ZM79.4826 303.671L89.418 323.253L91.2016 322.348L81.2662 302.766L79.4826 303.671ZM57.1045 294.331L79.9804 304.138L80.7684 302.3L57.8925 292.493L57.1045 294.331ZM13 177.139C13 221.885 29.4992 262.78 56.7443 294.068L58.2527 292.755C31.3124 261.817 15 221.384 15 177.139H13Z" fill="url(#paint1_linear_3_7)" mask="url(#path-1-inside-1_3_7)"/>
<rect x="31.6314" y="17.1713" width="328.741" height="319.934" rx="159.967" fill="url(#paint2_linear_3_7)" stroke="url(#paint3_linear_3_7)"/>
<path d="M193.526 331.396L193.614 316.349M35.3694 174.729L50.8289 174.816M339.038 176.425L354.497 176.511M195.268 35.8382L195.356 20.7916M81.1104 284.943L92.1046 274.364M83.097 65.3164L93.9658 76.017M296.591 275.506L307.46 286.207M297.068 77.151L308.062 66.5725M56.0442 252.562L69.4768 245.114M116.366 40.9196L124.019 53.9935M266.692 297.728L274.345 310.802M319.899 106.252L333.332 98.803M40.4428 214.97L55.3985 211.159M154.99 25.7349L158.905 40.2911M231.903 311.661L235.818 326.217M334.215 140.112L349.17 136.301M152.276 325.75L156.363 311.239M41.17 134.581L56.0797 138.559M334.04 212.715L348.95 216.693M232.554 40.7024L236.641 26.1909M113.933 309.906L121.74 296.918M57.4489 97.2628L70.7929 104.861M319.563 246.51L332.907 254.108M267.276 54.7934L275.083 41.8058M131.207 318.48L137.338 304.667M48.6392 114.076L62.8316 120.042M327.417 231.276L341.61 237.243M251.624 47.1481L257.755 33.3348M46.428 232.922L60.7983 227.373M136.546 31.5605L142.247 45.5469M248.524 306.295L254.225 320.281M328.701 123.934L343.072 118.386M36.377 193.577L51.7331 191.837M176.971 21.7779L178.758 36.7239M212.076 315.359L213.863 330.305M338.014 159.409L353.37 157.67M37.1313 153.041L52.4267 155.229M218.619 22.512L216.371 37.3989M174.458 314.933L172.21 329.82M337.576 196.022L352.872 198.21M95.5158 297.577L105.11 285.778M70.1167 79.3373L82.2388 88.6758M308.23 262.77L320.352 272.109M283.983 65.8236L293.577 54.0253M66.5992 268.394L79.0044 259.415M100.1 51.1929L109.326 63.2668M281.321 288.358L290.546 300.432M310.272 92.0139L322.678 83.0345" stroke="url(#paint4_linear_3_7)"/>
<path d="M183.402 330.996L184.471 315.986M35.7791 164.877L51.2018 165.918M338.725 185.325L354.148 186.366M204.411 36.1421L205.481 21.1313M74.2418 277.694L85.9036 267.816M90.5443 58.6327L100.694 69.983M289.904 281.585L300.053 292.935M303.313 83.6593L314.974 73.7811M51.3374 243.83L65.2287 237.226M125.338 36.34L132.123 49.8602M258.616 301.915L265.401 315.436M324.201 114.111L338.092 107.508M38.2185 205.35L53.3926 202.471M164.873 23.5714L167.832 38.3401M222.988 313.671L225.947 328.44M336.279 148.788L351.453 145.908M142.603 322.814L147.628 308.585M44.1857 125.169L58.806 130.059M331.371 221.234L345.992 226.124M241.305 43.2995L246.33 29.0696M105.371 304.634L114.009 292.155M62.8651 88.9305L75.6867 97.3374M314.719 254.066L327.541 262.473M275.038 59.5067L283.676 47.0275M122.051 314.258L129.07 300.851M52.9769 105.165L66.7516 111.996M323.552 239.348L337.326 246.18M259.917 50.91L266.935 37.5032M43.0212 223.635L57.7243 218.986M146.086 28.246L150.864 42.5564M239.926 309.343L244.703 323.653M331.832 132.302L346.535 127.652M35.5558 183.749L50.9943 182.961M187.067 20.9801L187.877 36.0063M202.96 316.138L203.769 331.164M338.813 168.281L354.252 167.493M38.9516 143.341L54.0735 146.469M228.584 24.2851L225.37 39.0031M165.446 313.389L162.232 328.107M335.989 204.792L351.111 207.921M87.7945 291.192L98.1391 280.01M76.676 71.8236L88.1649 81.8919M302.349 269.594L313.838 279.662M290.992 71.5465L301.337 60.3646M60.8389 260.282L73.8046 252.087M108.434 45.5879L116.854 58.2072M273.826 293.468L282.246 306.087M315.521 99.3078L328.487 91.1127" stroke="url(#paint5_linear_3_7)"/>
<g filter="url(#filter1_i_3_7)">
<ellipse cx="193.434" cy="175.229" rx="137.38" ry="135.978" fill="url(#paint6_linear_3_7)"/>
</g>
<path d="M330.314 175.229C330.314 250.046 269.035 310.707 193.434 310.707C117.833 310.707 56.5545 250.046 56.5545 175.229C56.5545 100.411 117.833 39.7512 193.434 39.7512C269.035 39.7512 330.314 100.411 330.314 175.229Z" stroke="url(#paint7_linear_3_7)"/>
<ellipse cx="193.5" cy="174.5" rx="137.5" ry="133.5" fill="url(#paint8_radial_3_7)"/>
<ellipse cx="137.5" cy="133.5" rx="137.5" ry="133.5" transform="matrix(1 0 0 -1 56 308)" fill="url(#paint9_radial_3_7)"/>
<path d="M181.222 284.45C181.222 283.83 181.142 283.39 180.982 283.13C180.822 282.87 180.432 282.74 179.812 282.74H175.402C175.522 282.16 175.702 281.73 175.942 281.45C176.202 281.15 176.622 281 177.202 281H180.772C181.812 281 182.542 281.22 182.962 281.66C183.402 282.08 183.622 282.81 183.622 283.85V288.23C183.622 289.05 183.532 289.67 183.352 290.09C183.172 290.51 182.792 290.79 182.212 290.93V290.96C183.312 291.24 183.862 292.15 183.862 293.69V299.15C183.862 300.19 183.642 300.93 183.202 301.37C182.782 301.79 182.052 302 181.012 302H177.442C176.862 302 176.442 301.86 176.182 301.58C175.942 301.28 175.762 300.84 175.642 300.26H180.052C180.672 300.26 181.062 300.13 181.222 299.87C181.382 299.61 181.462 299.17 181.462 298.55V293.69C181.462 293.07 181.332 292.63 181.072 292.37C180.812 292.11 180.372 291.98 179.752 291.98H177.232V291.05C177.232 290.73 177.282 290.52 177.382 290.42C177.502 290.3 177.722 290.24 178.042 290.24H179.932C180.472 290.22 180.822 290.08 180.982 289.82C181.142 289.54 181.222 289.11 181.222 288.53V284.45ZM190.18 298.55C190.18 299.17 190.26 299.61 190.42 299.87C190.58 300.13 190.97 300.26 191.59 300.26H193.24C193.86 300.26 194.25 300.13 194.41 299.87C194.57 299.61 194.65 299.17 194.65 298.55V284.45C194.65 283.83 194.57 283.39 194.41 283.13C194.25 282.87 193.86 282.74 193.24 282.74H191.59C190.97 282.74 190.58 282.87 190.42 283.13C190.26 283.39 190.18 283.83 190.18 284.45V298.55ZM187.93 283.85C187.93 282.81 188.14 282.08 188.56 281.66C189 281.22 189.74 281 190.78 281H194.05C195.09 281 195.82 281.22 196.24 281.66C196.68 282.08 196.9 282.81 196.9 283.85V299.15C196.9 300.19 196.68 300.93 196.24 301.37C195.82 301.79 195.09 302 194.05 302H190.78C189.74 302 189 301.79 188.56 301.37C188.14 300.93 187.93 300.19 187.93 299.15V283.85ZM210.894 301.19C210.894 301.51 210.834 301.73 210.714 301.85C210.614 301.95 210.404 302 210.084 302H208.494V290.21C208.494 289.59 208.414 289.15 208.254 288.89C208.094 288.63 207.704 288.5 207.084 288.5H203.394V301.19C203.394 301.51 203.334 301.73 203.214 301.85C203.114 301.95 202.904 302 202.584 302H200.994V281.81C200.994 281.49 201.044 281.28 201.144 281.18C201.264 281.06 201.484 281 201.804 281H203.394V288.5C203.514 287.92 203.694 287.49 203.934 287.21C204.194 286.91 204.614 286.76 205.194 286.76H208.044C209.084 286.76 209.814 286.98 210.234 287.42C210.674 287.84 210.894 288.57 210.894 289.61V301.19Z" fill="#ECC271"/>
<path d="M187.268 57.13C187.268 57.71 187.218 58.19 187.118 58.57C187.038 58.93 186.888 59.22 186.668 59.44C186.448 59.64 186.158 59.78 185.798 59.86C185.438 59.94 184.978 59.98 184.418 59.98H182.678C182.378 59.98 182.128 60.01 181.928 60.07C181.748 60.11 181.608 60.19 181.508 60.31C181.408 60.43 181.338 60.6 181.298 60.82C181.278 61.04 181.268 61.33 181.268 61.69V66.55C181.268 67.17 181.348 67.61 181.508 67.87C181.668 68.13 182.058 68.26 182.678 68.26H187.268V69.19C187.268 69.51 187.208 69.73 187.088 69.85C186.988 69.95 186.778 70 186.458 70H181.718C180.678 70 179.938 69.79 179.498 69.37C179.078 68.93 178.868 68.19 178.868 67.15V61.09C178.868 60.51 178.908 60.04 178.988 59.68C179.088 59.3 179.248 59.01 179.468 58.81C179.688 58.59 179.978 58.44 180.338 58.36C180.698 58.28 181.158 58.24 181.718 58.24H183.458C183.758 58.24 183.998 58.22 184.178 58.18C184.378 58.12 184.528 58.03 184.628 57.91C184.728 57.79 184.788 57.62 184.808 57.4C184.848 57.18 184.868 56.89 184.868 56.53V52.45C184.868 51.83 184.788 51.39 184.628 51.13C184.468 50.87 184.078 50.74 183.458 50.74H179.048C179.168 50.16 179.348 49.73 179.588 49.45C179.848 49.15 180.268 49 180.848 49H184.418C185.458 49 186.188 49.22 186.608 49.66C187.048 50.08 187.268 50.81 187.268 51.85V57.13ZM199.878 69.19C199.878 69.51 199.818 69.73 199.698 69.85C199.598 69.95 199.388 70 199.068 70H197.478V59.98H193.428C192.868 59.98 192.408 59.94 192.048 59.86C191.688 59.78 191.398 59.64 191.178 59.44C190.958 59.22 190.798 58.93 190.698 58.57C190.618 58.19 190.578 57.71 190.578 57.13V49.81C190.578 49.49 190.628 49.28 190.728 49.18C190.848 49.06 191.068 49 191.388 49H192.978V56.53C192.978 56.89 192.988 57.18 193.008 57.4C193.048 57.62 193.118 57.79 193.218 57.91C193.318 58.03 193.458 58.12 193.638 58.18C193.838 58.22 194.088 58.24 194.388 58.24H197.478V49.81C197.478 49.49 197.528 49.28 197.628 49.18C197.748 49.06 197.968 49 198.288 49H199.878V69.19ZM213.909 69.19C213.909 69.51 213.849 69.73 213.729 69.85C213.629 69.95 213.419 70 213.099 70H211.509V58.21C211.509 57.59 211.429 57.15 211.269 56.89C211.109 56.63 210.719 56.5 210.099 56.5H206.409V69.19C206.409 69.51 206.349 69.73 206.229 69.85C206.129 69.95 205.919 70 205.599 70H204.009V49.81C204.009 49.49 204.059 49.28 204.159 49.18C204.279 49.06 204.499 49 204.819 49H206.409V56.5C206.529 55.92 206.709 55.49 206.949 55.21C207.209 54.91 207.629 54.76 208.209 54.76H211.059C212.099 54.76 212.829 54.98 213.249 55.42C213.689 55.84 213.909 56.57 213.909 57.61V69.19Z" fill="#ECC271"/>
<g filter="url(#filter2_d_3_7)">
<path d="M95.3108 181.265H88.1511C87.4622 181.265 86.8963 181.192 86.4534 181.044C86.0106 180.896 85.6661 180.626 85.4201 180.232C85.174 179.838 85.0018 179.272 84.9034 178.534C84.8542 177.796 84.8296 176.861 84.8296 175.73H95.3108V168.57C95.3108 167.881 95.3846 167.315 95.5323 166.872C95.6799 166.429 95.9505 166.085 96.3442 165.839C96.7379 165.593 97.3037 165.445 98.0419 165.396C98.78 165.297 99.7149 165.248 100.847 165.248V175.73H108.08C109.458 175.73 110.344 176.099 110.737 176.837C111.18 177.526 111.402 179.002 111.402 181.265H100.847V188.499C100.847 189.188 100.773 189.754 100.625 190.197C100.478 190.639 100.182 190.984 99.7395 191.23C99.3459 191.476 98.78 191.648 98.0419 191.747C97.3529 191.796 96.4426 191.82 95.3108 191.82V181.265Z" fill="#473616"/>
</g>
<g filter="url(#filter3_d_3_7)">
<path d="M94.4813 180.435H87.3215C86.6326 180.435 86.0667 180.361 85.6239 180.214C85.181 180.066 84.8365 179.795 84.5905 179.402C84.3445 179.008 84.1722 178.442 84.0738 177.704C84.0246 176.966 84 176.031 84 174.899H94.4813V167.739C94.4813 167.05 94.5551 166.485 94.7027 166.042C94.8503 165.599 95.121 165.254 95.5146 165.008C95.9083 164.762 96.4742 164.615 97.2123 164.565C97.9504 164.467 98.8854 164.418 100.017 164.418V174.899H107.251C108.628 174.899 109.514 175.268 109.908 176.006C110.351 176.695 110.572 178.171 110.572 180.435H100.017V187.669C100.017 188.357 99.9433 188.923 99.7957 189.366C99.6481 189.809 99.3528 190.154 98.91 190.4C98.5163 190.646 97.9504 190.818 97.2123 190.916C96.5234 190.965 95.613 190.99 94.4813 190.99V180.435Z" fill="url(#paint10_linear_3_7)"/>
</g>
<path d="M265.889 196.714V190.854H269.347C269.916 190.854 270.366 190.973 270.65 191.235C270.935 191.474 271.1 191.855 271.1 192.331C271.1 192.569 271.053 192.784 270.958 192.95C270.863 193.117 270.745 193.284 270.555 193.403C270.863 193.593 271.1 193.808 271.266 194.07C271.432 194.332 271.503 194.641 271.503 194.975C271.503 195.523 271.337 195.951 270.982 196.261C270.627 196.571 270.153 196.737 269.537 196.737H265.889V196.714ZM266.623 193.165H269.418C269.726 193.165 269.963 193.093 270.129 192.95C270.295 192.807 270.366 192.617 270.366 192.355C270.366 192.069 270.295 191.878 270.129 191.736C269.963 191.593 269.726 191.521 269.418 191.521H266.623V193.165ZM266.623 196.047H269.679C270.011 196.047 270.271 195.951 270.461 195.761C270.65 195.57 270.745 195.284 270.745 194.951C270.745 194.618 270.65 194.356 270.461 194.141C270.271 193.927 270.011 193.832 269.679 193.832H266.623V196.047Z" fill="url(#paint11_linear_3_7)"/>
<path d="M272.001 196.714L274.299 192.164H274.749L277.071 196.714H276.313L275.72 195.57H273.328L272.735 196.714H272.001ZM273.636 194.975H275.412L274.536 193.236L273.636 194.975Z" fill="url(#paint12_linear_3_7)"/>
<path d="M277.732 196.713V192.188H278.443V194.212L280.836 192.188H281.76L279.865 193.807L282.044 196.737H281.262L279.391 194.236L278.467 195.022V196.737H277.732V196.713Z" fill="url(#paint13_linear_3_7)"/>
<path d="M282.874 196.713V192.188H283.584V194.212L285.977 192.188H286.901L285.006 193.807L287.185 196.737H286.403L284.532 194.236L283.608 195.022V196.737H282.874V196.713Z" fill="url(#paint14_linear_3_7)"/>
<path d="M290.193 196.856C289.388 196.856 288.724 196.618 288.203 196.166C287.682 195.713 287.421 195.142 287.421 194.451C287.421 193.76 287.682 193.188 288.203 192.736C288.724 192.283 289.388 192.069 290.193 192.069C290.998 192.069 291.662 192.283 292.183 192.736C292.704 193.188 292.965 193.76 292.965 194.451C292.965 195.142 292.704 195.713 292.183 196.166C291.662 196.642 290.998 196.856 290.193 196.856ZM290.193 196.19C290.785 196.19 291.283 196.023 291.662 195.689C292.041 195.356 292.23 194.951 292.23 194.427C292.23 193.927 292.041 193.498 291.662 193.188C291.283 192.855 290.785 192.688 290.193 192.688C289.601 192.688 289.103 192.855 288.724 193.188C288.345 193.522 288.156 193.927 288.156 194.451C288.156 194.975 288.345 195.38 288.724 195.713C289.103 196.047 289.577 196.19 290.193 196.19Z" fill="url(#paint15_linear_3_7)"/>
<path d="M294.104 192.188H294.814V195.094C294.814 195.522 294.909 195.832 295.122 195.975C295.335 196.118 295.738 196.213 296.33 196.213C296.946 196.213 297.349 196.142 297.562 195.975C297.775 195.832 297.87 195.522 297.87 195.094V192.188H298.581V195.284C298.581 195.832 298.415 196.237 298.06 196.499C297.704 196.737 297.136 196.88 296.354 196.88C295.572 196.88 295.004 196.761 294.648 196.523C294.293 196.285 294.127 195.88 294.127 195.308V192.188H294.104Z" fill="url(#paint16_linear_3_7)"/>
<path d="M300.854 194.213C300.854 194.213 300.854 195.856 300.854 196.738H300.143V192.212H303.247C303.697 192.212 304.076 192.331 304.337 192.546C304.597 192.76 304.739 193.07 304.739 193.475C304.739 193.808 304.644 194.07 304.431 194.308C304.218 194.546 303.957 194.689 303.626 194.737L304.881 196.738H304.123L302.844 194.761L302.37 194.094H303.27C303.507 194.094 303.697 194.046 303.839 193.927C303.981 193.808 304.029 193.665 304.029 193.475C304.029 193.284 303.957 193.117 303.839 193.022C303.721 192.927 303.531 192.855 303.27 192.855H300.878V194.165C300.878 194.165 300.878 194.403 300.878 194.165" fill="url(#paint17_linear_3_7)"/>
<path d="M304.929 196.714L307.227 192.164H307.677L309.998 196.714H309.24L308.648 195.57H306.255L305.663 196.714H304.929ZM306.563 194.975H308.34L307.464 193.236L306.563 194.975Z" fill="url(#paint18_linear_3_7)"/>
<g filter="url(#filter4_i_3_7)">
<path d="M293.621 159.155C293.248 159.513 289.347 164.523 287.443 166.984C286.472 164.561 284.587 159.655 284.401 159.298C284.168 158.85 283.713 158.932 283.596 159.379C283.48 159.826 283.13 160.497 282.664 161.168C282.198 161.839 279.4 163.74 276.952 165.418C274.504 167.096 272.989 167.543 272.639 167.878C272.29 168.214 272.756 168.773 273.455 169.332C274.155 169.891 275.087 171.793 275.786 172.911C276.486 174.029 276.836 173.47 277.302 172.799C277.768 172.128 278.584 172.016 279.633 171.569C280.682 171.122 280.216 170.674 279.633 170.674C279.05 170.674 278.135 170.227 277.435 169.556C276.736 168.885 276.736 168.661 277.202 167.99C277.668 167.319 281.122 164.853 282.171 164.182C283.22 163.511 283.453 164.406 283.686 164.853C283.873 165.211 284.999 167.724 285.582 169.029C285.038 169.551 283.83 170.92 282.897 171.904C281.731 173.135 278.934 175.595 278.001 176.266C277.069 176.937 275.786 177.832 276.136 178.167C276.486 178.503 278.001 178.726 278.584 179.509C279.167 180.292 279.866 183.088 280.216 183.088C280.566 183.088 280.915 181.634 282.431 178.95C283.643 176.803 285.967 173.656 286.977 172.352C287.482 173.507 288.62 176.248 289.086 177.143C290.191 179.454 290.579 181.289 289.763 182.296C288.947 183.302 286.933 183.71 285.695 182.864C284.648 182.15 284.529 180.068 284.063 179.621C283.596 179.174 283.069 179.777 282.486 181.008C281.904 182.238 281.149 183.871 281.032 184.206C280.915 184.542 280.915 184.653 281.382 184.877C281.848 185.101 282.314 185.548 284.412 186.443C287.793 188.12 290.171 186.977 291.639 185.324C293.21 183.557 294.204 183.088 294.787 182.976C295.369 182.864 296.069 182.864 295.952 182.417C295.836 181.969 294.204 180.516 293.738 180.068C293.365 179.71 292.727 178.428 292.455 177.832L288.791 170.153L293.271 164.747C294.165 165.493 296.21 167.229 295.934 169.732C295.476 173.881 292.515 173.287 291.29 173.135C291.534 173.817 291.839 174.785 292.805 176.378C298.658 176.631 299.566 170.674 298.4 167.99C297.341 165.029 293.954 161.468 293.971 161.28C294.067 160.184 294.132 158.665 293.621 159.155Z" fill="url(#paint19_linear_3_7)"/>
</g>
</g>
<defs>
<filter id="filter0_d_3_7" x="0" y="0" width="392" height="382.278" filterUnits="userSpaceOnUse" color-interpolation-filters="sRGB">
<feFlood flood-opacity="0" result="BackgroundImageFix"/>
<feColorMatrix in="SourceAlpha" type="matrix" values="0 0 0 0 0 0 0 0 0 0 0 0 0 0 0 0 0 0 127 0" result="hardAlpha"/>
<feOffset dy="14"/>
<feGaussianBlur stdDeviation="7"/>
<feComposite in2="hardAlpha" operator="out"/>
<feColorMatrix type="matrix" values="0 0 0 0 0 0 0 0 0 0 0 0 0 0 0 0 0 0 0.35 0"/>
<feBlend mode="normal" in2="BackgroundImageFix" result="effect1_dropShadow_3_7"/>
<feBlend mode="normal" in="SourceGraphic" in2="effect1_dropShadow_3_7" result="shape"/>
</filter>
<filter id="filter1_i_3_7" x="56.0545" y="39.2512" width="274.759" height="275.955" filterUnits="userSpaceOnUse" color-interpolation-filters="sRGB">
<feFlood flood-opacity="0" result="BackgroundImageFix"/>
<feBlend mode="normal" in="SourceGraphic" in2="BackgroundImageFix" result="shape"/>
<feColorMatrix in="SourceAlpha" type="matrix" values="0 0 0 0 0 0 0 0 0 0 0 0 0 0 0 0 0 0 127 0" result="hardAlpha"/>
<feOffset dy="4"/>
<feGaussianBlur stdDeviation="2"/>
<feComposite in2="hardAlpha" operator="arithmetic" k2="-1" k3="1"/>
<feColorMatrix type="matrix" values="0 0 0 0 0 0 0 0 0 0 0 0 0 0 0 0 0 0 0.25 0"/>
<feBlend mode="normal" in2="shape" result="effect1_innerShadow_3_7"/>
</filter>
<filter id="filter2_d_3_7" x="80.8296" y="165.248" width="34.5722" height="34.5722" filterUnits="userSpaceOnUse" color-interpolation-filters="sRGB">
<feFlood flood-opacity="0" result="BackgroundImageFix"/>
<feColorMatrix in="SourceAlpha" type="matrix" values="0 0 0 0 0 0 0 0 0 0 0 0 0 0 0 0 0 0 127 0" result="hardAlpha"/>
<feOffset dy="4"/>
<feGaussianBlur stdDeviation="2"/>
<feComposite in2="hardAlpha" operator="out"/>
<feColorMatrix type="matrix" values="0 0 0 0 0 0 0 0 0 0 0 0 0 0 0 0 0 0 0.25 0"/>
<feBlend mode="normal" in2="BackgroundImageFix" result="effect1_dropShadow_3_7"/>
<feBlend mode="normal" in="SourceGraphic" in2="effect1_dropShadow_3_7" result="shape"/>
</filter>
<filter id="filter3_d_3_7" x="80" y="164.418" width="34.5722" height="34.5722" filterUnits="userSpaceOnUse" color-interpolation-filters="sRGB">
<feFlood flood-opacity="0" result="BackgroundImageFix"/>
<feColorMatrix in="SourceAlpha" type="matrix" values="0 0 0 0 0 0 0 0 0 0 0 0 0 0 0 0 0 0 127 0" result="hardAlpha"/>
<feOffset dy="4"/>
<feGaussianBlur stdDeviation="2"/>
<feComposite in2="hardAlpha" operator="out"/>
<feColorMatrix type="matrix" values="0 0 0 0 0 0 0 0 0 0 0 0 0 0 0 0 0 0 0.25 0"/>
<feBlend mode="normal" in2="BackgroundImageFix" result="effect1_dropShadow_3_7"/>
<feBlend mode="normal" in="SourceGraphic" in2="effect1_dropShadow_3_7" result="shape"/>
</filter>
<filter id="filter4_i_3_7" x="272.52" y="159" width="26.3212" height="29.2666" filterUnits="userSpaceOnUse" color-interpolation-filters="sRGB">
<feFlood flood-opacity="0" result="BackgroundImageFix"/>
<feBlend mode="normal" in="SourceGraphic" in2="BackgroundImageFix" result="shape"/>
<feColorMatrix in="SourceAlpha" type="matrix" values="0 0 0 0 0 0 0 0 0 0 0 0 0 0 0 0 0 0 127 0" result="hardAlpha"/>
<feOffset dy="1"/>
<feGaussianBlur stdDeviation="0.5"/>
<feComposite in2="hardAlpha" operator="arithmetic" k2="-1" k3="1"/>
<feColorMatrix type="matrix" values="0 0 0 0 0 0 0 0 0 0 0 0 0 0 0 0 0 0 0.25 0"/>
<feBlend mode="normal" in2="shape" result="effect1_innerShadow_3_7"/>
</filter>
<linearGradient id="paint0_linear_3_7" x1="168.202" y1="-12.6165" x2="257.919" y2="353.262" gradientUnits="userSpaceOnUse">
<stop stop-color="#304354"/>
<stop offset="1" stop-color="#11191F"/>
</linearGradient>
<linearGradient id="paint1_linear_3_7" x1="196" y1="0" x2="196" y2="354.278" gradientUnits="userSpaceOnUse">
<stop stop-color="#3D5365"/>
<stop offset="1" stop-color="#090E12"/>
</linearGradient>
<linearGradient id="paint2_linear_3_7" x1="196.002" y1="16.6713" x2="196.002" y2="337.605" gradientUnits="userSpaceOnUse">
<stop stop-color="#3E5466"/>
<stop offset="1" stop-color="#060A0D"/>
</linearGradient>
<linearGradient id="paint3_linear_3_7" x1="196.002" y1="16.6713" x2="196.002" y2="337.605" gradientUnits="userSpaceOnUse">
<stop stop-color="#2C3D4C"/>
<stop offset="1" stop-color="#1C2832"/>
</linearGradient>
<linearGradient id="paint4_linear_3_7" x1="195.846" y1="20.7944" x2="194.112" y2="331.399" gradientUnits="userSpaceOnUse">
<stop stop-color="#597488"/>
<stop offset="1" stop-color="#07090B"/>
</linearGradient>
<linearGradient id="paint5_linear_3_7" x1="239.696" y1="312.608" x2="133.156" y2="46.2603" gradientUnits="userSpaceOnUse">
<stop stop-color="#030508"/>
<stop offset="1" stop-color="#192430" stop-opacity="0.56"/>
</linearGradient>
<linearGradient id="paint6_linear_3_7" x1="193.434" y1="39.2512" x2="193.434" y2="311.207" gradientUnits="userSpaceOnUse">
<stop stop-color="#141414"/>
<stop offset="1" stop-color="#0E151C"/>
</linearGradient>
<linearGradient id="paint7_linear_3_7" x1="193.434" y1="39.2512" x2="193.434" y2="311.207" gradientUnits="userSpaceOnUse">
<stop stop-color="#F0C673"/>
<stop offset="1" stop-color="#F0C673" stop-opacity="0"/>
</linearGradient>
<radialGradient id="paint8_radial_3_7" cx="0" cy="0" r="1" gradientUnits="userSpaceOnUse" gradientTransform="translate(194 36) rotate(90) scale(42.5 77)">
<stop stop-color="#FF2727"/>
<stop offset="1" stop-color="#141414" stop-opacity="0"/>
</radialGradient>
<radialGradient id="paint9_radial_3_7" cx="0" cy="0" r="1" gradientUnits="userSpaceOnUse" gradientTransform="translate(138 -5) rotate(90) scale(42.5 77)">
<stop stop-color="#007AFF"/>
<stop offset="1" stop-color="#141414" stop-opacity="0"/>
</radialGradient>
<linearGradient id="paint10_linear_3_7" x1="97.2861" y1="164.418" x2="97.2861" y2="190.99" gradientUnits="userSpaceOnUse">
<stop stop-color="#F0C673"/>
<stop offset="1" stop-color="#785E2A"/>
</linearGradient>
<linearGradient id="paint11_linear_3_7" x1="267.569" y1="190.854" x2="270.737" y2="197.678" gradientUnits="userSpaceOnUse">
<stop stop-color="#ECC271"/>
<stop offset="1" stop-color="#7F642E"/>
</linearGradient>
<linearGradient id="paint12_linear_3_7" x1="273.518" y1="192.164" x2="275.72" y2="197.703" gradientUnits="userSpaceOnUse">
<stop stop-color="#ECC271"/>
<stop offset="1" stop-color="#7F642E"/>
</linearGradient>
<linearGradient id="paint13_linear_3_7" x1="279.023" y1="192.188" x2="281.483" y2="197.452" gradientUnits="userSpaceOnUse">
<stop stop-color="#ECC271"/>
<stop offset="1" stop-color="#7F642E"/>
</linearGradient>
<linearGradient id="paint14_linear_3_7" x1="284.164" y1="192.188" x2="286.625" y2="197.452" gradientUnits="userSpaceOnUse">
<stop stop-color="#ECC271"/>
<stop offset="1" stop-color="#7F642E"/>
</linearGradient>
<linearGradient id="paint15_linear_3_7" x1="289.08" y1="192.069" x2="291.333" y2="197.957" gradientUnits="userSpaceOnUse">
<stop stop-color="#ECC271"/>
<stop offset="1" stop-color="#7F642E"/>
</linearGradient>
<linearGradient id="paint16_linear_3_7" x1="295.443" y1="192.188" x2="297.97" y2="197.63" gradientUnits="userSpaceOnUse">
<stop stop-color="#ECC271"/>
<stop offset="1" stop-color="#7F642E"/>
</linearGradient>
<linearGradient id="paint17_linear_3_7" x1="301.561" y1="192.212" x2="303.851" y2="197.624" gradientUnits="userSpaceOnUse">
<stop stop-color="#ECC271"/>
<stop offset="1" stop-color="#7F642E"/>
</linearGradient>
<linearGradient id="paint18_linear_3_7" x1="306.446" y1="192.164" x2="308.648" y2="197.703" gradientUnits="userSpaceOnUse">
<stop stop-color="#ECC271"/>
<stop offset="1" stop-color="#7F642E"/>
</linearGradient>
<linearGradient id="paint19_linear_3_7" x1="280.397" y1="159" x2="295.859" y2="191.497" gradientUnits="userSpaceOnUse">
<stop stop-color="#ECC271"/>
<stop offset="1" stop-color="#7F642E"/>
</linearGradient>
</defs>
</svg>
