<svg width="150" height="150" viewBox="0 0 392 383" fill="none" xmlns="http://www.w3.org/2000/svg">
<g filter="url(#filter0_d_3696_56653)">
<mask id="path-1-inside-1_3696_56653" fill="white">
<path fill-rule="evenodd" clip-rule="evenodd" d="M14 177.139C14 136.768 27.5052 99.5511 50.2443 69.7601L71.8124 59.3937L81.4925 38.0043C111.652 14.2038 149.737 0 191.139 0H200.861C239.517 0 275.281 12.382 304.403 33.3963L315.908 58.3517L340.085 67.6054C363.832 97.7475 378 135.789 378 177.139C378 218.782 363.63 257.069 339.578 287.312L312.696 299.052L303.661 321.414C274.674 342.105 239.189 354.278 200.861 354.278H191.139C153.675 354.278 118.927 342.648 90.3098 322.801L80.3744 303.219L57.4985 293.412C30.4058 262.298 14 221.635 14 177.139Z"/>
</mask>
<path fill-rule="evenodd" clip-rule="evenodd" d="M14 177.139C14 136.768 27.5052 99.5511 50.2443 69.7601L71.8124 59.3937L81.4925 38.0043C111.652 14.2038 149.737 0 191.139 0H200.861C239.517 0 275.281 12.382 304.403 33.3963L315.908 58.3517L340.085 67.6054C363.832 97.7475 378 135.789 378 177.139C378 218.782 363.63 257.069 339.578 287.312L312.696 299.052L303.661 321.414C274.674 342.105 239.189 354.278 200.861 354.278H191.139C153.675 354.278 118.927 342.648 90.3098 322.801L80.3744 303.219L57.4985 293.412C30.4058 262.298 14 221.635 14 177.139Z" fill="url(#paint0_linear_3696_56653)"/>
<path d="M50.2443 69.7601L49.8111 68.8588L49.5949 68.9627L49.4493 69.1534L50.2443 69.7601ZM71.8124 59.3937L72.2456 60.295L72.5734 60.1374L72.7234 59.806L71.8124 59.3937ZM81.4925 38.0043L80.873 37.2192L80.6818 37.3701L80.5814 37.592L81.4925 38.0043ZM304.403 33.3963L305.311 32.9777L305.201 32.7391L304.988 32.5854L304.403 33.3963ZM315.908 58.3517L315 58.7704L315.17 59.1401L315.551 59.2856L315.908 58.3517ZM340.085 67.6054L340.87 66.9866L340.7 66.77L340.442 66.6715L340.085 67.6054ZM339.578 287.312L339.979 288.228L340.206 288.129L340.361 287.935L339.578 287.312ZM312.696 299.052L312.296 298.136L311.922 298.299L311.769 298.678L312.696 299.052ZM303.661 321.414L304.242 322.228L304.479 322.059L304.588 321.789L303.661 321.414ZM90.3098 322.801L89.418 323.253L89.5323 323.478L89.7399 323.622L90.3098 322.801ZM80.3744 303.219L81.2662 302.766L81.102 302.443L80.7684 302.3L80.3744 303.219ZM57.4985 293.412L56.7443 294.068L56.8944 294.241L57.1045 294.331L57.4985 293.412ZM49.4493 69.1534C26.5819 99.1126 13 136.541 13 177.139H15C15 136.995 28.4285 99.9897 51.0392 70.3669L49.4493 69.1534ZM71.3792 58.4924L49.8111 68.8588L50.6774 70.6614L72.2456 60.295L71.3792 58.4924ZM80.5814 37.592L70.9013 58.9814L72.7234 59.806L82.4035 38.4166L80.5814 37.592ZM191.139 -1C149.504 -1 111.203 13.2845 80.873 37.2192L82.1119 38.7893C112.102 15.1231 149.97 1 191.139 1V-1ZM200.861 -1H191.139V1H200.861V-1ZM304.988 32.5854C275.701 11.4523 239.734 -1 200.861 -1V1C239.3 1 274.86 13.3118 303.818 34.2073L304.988 32.5854ZM316.816 57.933L305.311 32.9777L303.495 33.815L315 58.7704L316.816 57.933ZM340.442 66.6715L316.266 57.4178L315.551 59.2856L339.727 68.5393L340.442 66.6715ZM379 177.139C379 135.556 364.751 97.2987 340.87 66.9866L339.299 68.2243C362.912 98.1963 377 136.021 377 177.139H379ZM340.361 287.935C364.548 257.521 379 219.016 379 177.139H377C377 218.548 362.712 256.617 338.796 286.69L340.361 287.935ZM313.096 299.969L339.979 288.228L339.178 286.396L312.296 298.136L313.096 299.969ZM304.588 321.789L313.623 299.427L311.769 298.678L302.734 321.039L304.588 321.789ZM200.861 355.278C239.404 355.278 275.091 343.036 304.242 322.228L303.08 320.6C274.257 341.174 238.974 353.278 200.861 353.278V355.278ZM191.139 355.278H200.861V353.278H191.139V355.278ZM89.7399 323.622C118.52 343.582 153.465 355.278 191.139 355.278V353.278C153.885 353.278 119.335 341.713 90.8797 321.979L89.7399 323.622ZM79.4826 303.671L89.418 323.253L91.2016 322.348L81.2662 302.766L79.4826 303.671ZM57.1045 294.331L79.9804 304.138L80.7684 302.3L57.8925 292.493L57.1045 294.331ZM13 177.139C13 221.885 29.4992 262.78 56.7443 294.068L58.2527 292.755C31.3124 261.817 15 221.384 15 177.139H13Z" fill="url(#paint1_linear_3696_56653)" mask="url(#path-1-inside-1_3696_56653)"/>
<rect x="31.6318" y="17.1714" width="328.741" height="319.934" rx="159.967" fill="url(#paint2_linear_3696_56653)" stroke="url(#paint3_linear_3696_56653)"/>
<path d="M193.526 331.396L193.615 316.349M35.3698 174.729L50.8292 174.816M339.038 176.425L354.498 176.511M195.268 35.8382L195.357 20.7917M81.1108 284.943L92.105 274.365M83.0974 65.3165L93.9662 76.017M296.592 275.506L307.46 286.207M297.068 77.151L308.063 66.5725M56.0446 252.562L69.4772 245.114M116.367 40.9197L124.02 53.9935M266.693 297.728L274.346 310.802M319.9 106.252L333.332 98.8031M40.4432 214.97L55.3989 211.159M154.99 25.735L158.906 40.2912M231.903 311.661L235.819 326.217M334.215 140.112L349.171 136.301M152.277 325.75L156.363 311.239M41.1704 134.581L56.0801 138.559M334.041 212.715L348.951 216.693M232.554 40.7025L236.641 26.1909M113.934 309.906L121.74 296.918M57.4493 97.2628L70.7933 104.861M319.563 246.51L332.907 254.108M267.277 54.7934L275.083 41.8059M131.208 318.48L137.338 304.667M48.6396 114.076L62.832 120.042M327.418 231.276L341.61 237.243M251.625 47.1481L257.755 33.3348M46.4284 232.922L60.7987 227.373M136.546 31.5605L142.247 45.547M248.524 306.295L254.225 320.281M328.702 123.934L343.072 118.386M36.3773 193.577L51.7334 191.837M176.971 21.778L178.758 36.7239M212.076 315.359L213.863 330.305M338.015 159.409L353.371 157.67M37.1317 153.041L52.4271 155.229M218.619 22.5121L216.371 37.3989M174.459 314.933L172.211 329.82M337.577 196.022L352.872 198.21M95.5162 297.577L105.111 285.778M70.1171 79.3374L82.2392 88.6758M308.23 262.77L320.352 272.109M283.983 65.8236L293.578 54.0253M66.5996 268.394L79.0048 259.415M100.1 51.193L109.326 63.2668M281.321 288.358L290.547 300.432M310.273 92.0139L322.678 83.0345" stroke="url(#paint4_linear_3696_56653)"/>
<path d="M183.402 330.996L184.471 315.986M35.7787 164.877L51.2014 165.918M338.725 185.325L354.147 186.366M204.411 36.142L205.48 21.1312M74.2414 277.694L85.9032 267.816M90.544 58.6326L100.693 69.9829M289.903 281.585L300.053 292.935M303.312 83.6591L314.974 73.781M51.3371 243.83L65.2283 237.226M125.337 36.3398L132.122 49.86M258.616 301.915L265.401 315.435M324.2 114.111L338.091 107.507M38.2182 205.35L53.3922 202.471M164.873 23.5713L167.831 38.34M222.988 313.671L225.946 328.44M336.279 148.788L351.453 145.908M142.603 322.814L147.628 308.584M44.1853 125.168L58.8057 130.059M331.371 221.234L345.991 226.124M241.305 43.2994L246.329 29.0695M105.371 304.634L114.008 292.155M62.8647 88.9304L75.6864 97.3373M314.719 254.066L327.541 262.473M275.038 59.5065L283.676 47.0273M122.051 314.258L129.069 300.851M52.9765 105.165L66.7512 111.996M323.551 239.348L337.326 246.179M259.916 50.9099L266.935 37.5031M43.0208 223.635L57.7239 218.985M146.086 28.2459L150.863 42.5563M239.926 309.343L244.703 323.653M331.831 132.302L346.535 127.652M35.5554 183.749L50.9939 182.961M187.067 20.9799L187.876 36.0061M202.96 316.137L203.769 331.164M338.813 168.281L354.251 167.493M38.9512 143.341L54.0731 146.469M228.584 24.2849L225.369 39.0029M165.446 313.389L162.232 328.107M335.988 204.792L351.11 207.921M87.7941 291.192L98.1387 280.01M76.6757 71.8235L88.1645 81.8918M302.349 269.594L313.838 279.662M290.992 71.5464L301.336 60.3644M60.8386 260.282L73.8042 252.087M108.434 45.5877L116.854 58.2071M273.826 293.468L282.246 306.087M315.521 99.3076L328.486 91.1126" stroke="url(#paint5_linear_3696_56653)"/>
<g filter="url(#filter1_i_3696_56653)">
<ellipse cx="193.434" cy="175.229" rx="137.38" ry="135.978" fill="url(#paint6_linear_3696_56653)"/>
</g>
<path d="M330.314 175.229C330.314 250.046 269.036 310.707 193.434 310.707C117.833 310.707 56.5547 250.046 56.5547 175.229C56.5547 100.411 117.833 39.7512 193.434 39.7512C269.036 39.7512 330.314 100.411 330.314 175.229Z" stroke="url(#paint7_linear_3696_56653)"/>
<ellipse cx="193.5" cy="174.5" rx="137.5" ry="133.5" fill="url(#paint8_radial_3696_56653)"/>
<ellipse cx="137.5" cy="133.5" rx="137.5" ry="133.5" transform="matrix(1 0 0 -1 56 308)" fill="url(#paint9_radial_3696_56653)"/>
<path d="M186.112 286.47C186.112 286.098 186.064 285.834 185.968 285.678C185.872 285.522 185.638 285.444 185.266 285.444H182.62C182.692 285.096 182.8 284.838 182.944 284.67C183.1 284.49 183.352 284.4 183.7 284.4H185.842C186.466 284.4 186.904 284.532 187.156 284.796C187.42 285.048 187.552 285.486 187.552 286.11V288.738C187.552 289.23 187.498 289.602 187.39 289.854C187.282 290.106 187.054 290.274 186.706 290.358V290.376C187.366 290.544 187.696 291.09 187.696 292.014V295.29C187.696 295.914 187.564 296.358 187.3 296.622C187.048 296.874 186.61 297 185.986 297H183.844C183.496 297 183.244 296.916 183.088 296.748C182.944 296.568 182.836 296.304 182.764 295.956H185.41C185.782 295.956 186.016 295.878 186.112 295.722C186.208 295.566 186.256 295.302 186.256 294.93V292.014C186.256 291.642 186.178 291.378 186.022 291.222C185.866 291.066 185.602 290.988 185.23 290.988H183.718V290.43C183.718 290.238 183.748 290.112 183.808 290.052C183.88 289.98 184.012 289.944 184.204 289.944H185.338C185.662 289.932 185.872 289.848 185.968 289.692C186.064 289.524 186.112 289.266 186.112 288.918V286.47ZM191.487 294.93C191.487 295.302 191.535 295.566 191.631 295.722C191.727 295.878 191.961 295.956 192.333 295.956H193.323C193.695 295.956 193.929 295.878 194.025 295.722C194.121 295.566 194.169 295.302 194.169 294.93V286.47C194.169 286.098 194.121 285.834 194.025 285.678C193.929 285.522 193.695 285.444 193.323 285.444H192.333C191.961 285.444 191.727 285.522 191.631 285.678C191.535 285.834 191.487 286.098 191.487 286.47V294.93ZM190.137 286.11C190.137 285.486 190.263 285.048 190.515 284.796C190.779 284.532 191.223 284.4 191.847 284.4H193.809C194.433 284.4 194.871 284.532 195.123 284.796C195.387 285.048 195.519 285.486 195.519 286.11V295.29C195.519 295.914 195.387 296.358 195.123 296.622C194.871 296.874 194.433 297 193.809 297H191.847C191.223 297 190.779 296.874 190.515 296.622C190.263 296.358 190.137 295.914 190.137 295.29V286.11ZM203.915 296.514C203.915 296.706 203.879 296.838 203.807 296.91C203.747 296.97 203.621 297 203.429 297H202.475V289.926C202.475 289.554 202.427 289.29 202.331 289.134C202.235 288.978 202.001 288.9 201.629 288.9H199.415V296.514C199.415 296.706 199.379 296.838 199.307 296.91C199.247 296.97 199.121 297 198.929 297H197.975V284.886C197.975 284.694 198.005 284.568 198.065 284.508C198.137 284.436 198.269 284.4 198.461 284.4H199.415V288.9C199.487 288.552 199.595 288.294 199.739 288.126C199.895 287.946 200.147 287.856 200.495 287.856H202.205C202.829 287.856 203.267 287.988 203.519 288.252C203.783 288.504 203.915 288.942 203.915 289.566V296.514Z" fill="#ECC271"/>
<path d="M190.94 57.278C190.94 57.626 190.91 57.914 190.85 58.142C190.802 58.358 190.712 58.532 190.58 58.664C190.448 58.784 190.274 58.868 190.058 58.916C189.842 58.964 189.566 58.988 189.23 58.988H188.186C188.006 58.988 187.856 59.006 187.736 59.042C187.628 59.066 187.544 59.114 187.484 59.186C187.424 59.258 187.382 59.36 187.358 59.492C187.346 59.624 187.34 59.798 187.34 60.014V62.93C187.34 63.302 187.388 63.566 187.484 63.722C187.58 63.878 187.814 63.956 188.186 63.956H190.94V64.514C190.94 64.706 190.904 64.838 190.832 64.91C190.772 64.97 190.646 65 190.454 65H187.61C186.986 65 186.542 64.874 186.278 64.622C186.026 64.358 185.9 63.914 185.9 63.29V59.654C185.9 59.306 185.924 59.024 185.972 58.808C186.032 58.58 186.128 58.406 186.26 58.286C186.392 58.154 186.566 58.064 186.782 58.016C186.998 57.968 187.274 57.944 187.61 57.944H188.654C188.834 57.944 188.978 57.932 189.086 57.908C189.206 57.872 189.296 57.818 189.356 57.746C189.416 57.674 189.452 57.572 189.464 57.44C189.488 57.308 189.5 57.134 189.5 56.918V54.47C189.5 54.098 189.452 53.834 189.356 53.678C189.26 53.522 189.026 53.444 188.654 53.444H186.008C186.08 53.096 186.188 52.838 186.332 52.67C186.488 52.49 186.74 52.4 187.088 52.4H189.23C189.854 52.4 190.292 52.532 190.544 52.796C190.808 53.048 190.94 53.486 190.94 54.11V57.278ZM198.506 64.514C198.506 64.706 198.47 64.838 198.398 64.91C198.338 64.97 198.212 65 198.02 65H197.066V58.988H194.636C194.3 58.988 194.024 58.964 193.808 58.916C193.592 58.868 193.418 58.784 193.286 58.664C193.154 58.532 193.058 58.358 192.998 58.142C192.95 57.914 192.926 57.626 192.926 57.278V52.886C192.926 52.694 192.956 52.568 193.016 52.508C193.088 52.436 193.22 52.4 193.412 52.4H194.366V56.918C194.366 57.134 194.372 57.308 194.384 57.44C194.408 57.572 194.45 57.674 194.51 57.746C194.57 57.818 194.654 57.872 194.762 57.908C194.882 57.932 195.032 57.944 195.212 57.944H197.066V52.886C197.066 52.694 197.096 52.568 197.156 52.508C197.228 52.436 197.36 52.4 197.552 52.4H198.506V64.514ZM206.924 64.514C206.924 64.706 206.888 64.838 206.816 64.91C206.756 64.97 206.63 65 206.438 65H205.484V57.926C205.484 57.554 205.436 57.29 205.34 57.134C205.244 56.978 205.01 56.9 204.638 56.9H202.424V64.514C202.424 64.706 202.388 64.838 202.316 64.91C202.256 64.97 202.13 65 201.938 65H200.984V52.886C200.984 52.694 201.014 52.568 201.074 52.508C201.146 52.436 201.278 52.4 201.47 52.4H202.424V56.9C202.496 56.552 202.604 56.294 202.748 56.126C202.904 55.946 203.156 55.856 203.504 55.856H205.214C205.838 55.856 206.276 55.988 206.528 56.252C206.792 56.504 206.924 56.942 206.924 57.566V64.514Z" fill="#ECC271"/>
<g filter="url(#filter2_d_3696_56653)">
<path d="M95.3104 181.265H88.1506C87.4617 181.265 86.8958 181.192 86.453 181.044C86.0101 180.896 85.6656 180.626 85.4196 180.232C85.1736 179.838 85.0013 179.273 84.9029 178.534C84.8537 177.796 84.8291 176.861 84.8291 175.73H95.3104V168.57C95.3104 167.881 95.3842 167.315 95.5318 166.872C95.6794 166.429 95.9501 166.085 96.3437 165.839C96.7374 165.593 97.3033 165.445 98.0414 165.396C98.7795 165.297 99.7145 165.248 100.846 165.248V175.73H108.08C109.458 175.73 110.343 176.099 110.737 176.837C111.18 177.526 111.401 179.002 111.401 181.265H100.846V188.499C100.846 189.188 100.772 189.754 100.625 190.197C100.477 190.639 100.182 190.984 99.7391 191.23C99.3454 191.476 98.7795 191.648 98.0414 191.747C97.3525 191.796 96.4421 191.82 95.3104 191.82V181.265Z" fill="#473616"/>
</g>
<g filter="url(#filter3_d_3696_56653)">
<path d="M94.4813 180.435H87.3215C86.6326 180.435 86.0667 180.361 85.6239 180.214C85.181 180.066 84.8365 179.795 84.5905 179.402C84.3445 179.008 84.1722 178.442 84.0738 177.704C84.0246 176.966 84 176.031 84 174.899H94.4813V167.739C94.4813 167.051 94.5551 166.485 94.7027 166.042C94.8503 165.599 95.121 165.254 95.5146 165.008C95.9083 164.762 96.4742 164.615 97.2123 164.566C97.9504 164.467 98.8853 164.418 100.017 164.418V174.899H107.251C108.628 174.899 109.514 175.268 109.908 176.006C110.351 176.695 110.572 178.172 110.572 180.435H100.017V187.669C100.017 188.358 99.9433 188.923 99.7957 189.366C99.6481 189.809 99.3528 190.154 98.91 190.4C98.5163 190.646 97.9504 190.818 97.2123 190.916C96.5234 190.966 95.613 190.99 94.4813 190.99V180.435Z" fill="url(#paint10_linear_3696_56653)"/>
</g>
<path d="M265.889 196.713V190.854H269.347C269.916 190.854 270.366 190.973 270.65 191.235C270.935 191.474 271.1 191.855 271.1 192.331C271.1 192.569 271.053 192.783 270.958 192.95C270.863 193.117 270.745 193.284 270.555 193.403C270.863 193.593 271.1 193.808 271.266 194.07C271.432 194.332 271.503 194.641 271.503 194.975C271.503 195.523 271.337 195.951 270.982 196.261C270.627 196.571 270.153 196.737 269.537 196.737H265.889V196.713ZM266.623 193.165H269.418C269.726 193.165 269.963 193.093 270.129 192.95C270.295 192.807 270.366 192.617 270.366 192.355C270.366 192.069 270.295 191.878 270.129 191.736C269.963 191.593 269.726 191.521 269.418 191.521H266.623V193.165ZM266.623 196.047H269.679C270.011 196.047 270.271 195.951 270.461 195.761C270.65 195.57 270.745 195.284 270.745 194.951C270.745 194.617 270.65 194.355 270.461 194.141C270.271 193.927 270.011 193.831 269.679 193.831H266.623V196.047Z" fill="url(#paint11_linear_3696_56653)"/>
<path d="M272.001 196.714L274.299 192.164H274.749L277.071 196.714H276.312L275.72 195.57H273.328L272.735 196.714H272.001ZM273.636 194.975H275.412L274.536 193.236L273.636 194.975Z" fill="url(#paint12_linear_3696_56653)"/>
<path d="M277.732 196.713V192.188H278.443V194.212L280.836 192.188H281.76L279.864 193.807L282.044 196.737H281.262L279.391 194.236L278.467 195.022V196.737H277.732V196.713Z" fill="url(#paint13_linear_3696_56653)"/>
<path d="M282.874 196.713V192.188H283.585V194.212L285.977 192.188H286.901L285.006 193.807L287.185 196.737H286.404L284.532 194.236L283.608 195.022V196.737H282.874V196.713Z" fill="url(#paint14_linear_3696_56653)"/>
<path d="M290.193 196.856C289.387 196.856 288.724 196.618 288.203 196.166C287.681 195.713 287.421 195.142 287.421 194.451C287.421 193.76 287.681 193.189 288.203 192.736C288.724 192.283 289.387 192.069 290.193 192.069C290.998 192.069 291.661 192.283 292.182 192.736C292.704 193.189 292.964 193.76 292.964 194.451C292.964 195.142 292.704 195.713 292.182 196.166C291.661 196.642 290.998 196.856 290.193 196.856ZM290.193 196.19C290.785 196.19 291.282 196.023 291.661 195.689C292.04 195.356 292.23 194.951 292.23 194.427C292.23 193.927 292.04 193.498 291.661 193.189C291.282 192.855 290.785 192.688 290.193 192.688C289.6 192.688 289.103 192.855 288.724 193.189C288.345 193.522 288.155 193.927 288.155 194.451C288.155 194.975 288.345 195.38 288.724 195.713C289.103 196.047 289.577 196.19 290.193 196.19Z" fill="url(#paint15_linear_3696_56653)"/>
<path d="M294.104 192.188H294.814V195.094C294.814 195.522 294.909 195.832 295.122 195.975C295.335 196.118 295.738 196.213 296.33 196.213C296.946 196.213 297.349 196.142 297.562 195.975C297.775 195.832 297.87 195.522 297.87 195.094V192.188H298.581V195.284C298.581 195.832 298.415 196.237 298.06 196.499C297.704 196.737 297.136 196.88 296.354 196.88C295.572 196.88 295.004 196.761 294.648 196.523C294.293 196.284 294.127 195.88 294.127 195.308V192.188H294.104Z" fill="url(#paint16_linear_3696_56653)"/>
<path d="M300.854 194.213C300.854 194.213 300.854 195.856 300.854 196.738H300.144V192.212H303.247C303.697 192.212 304.076 192.331 304.337 192.546C304.597 192.76 304.739 193.07 304.739 193.475C304.739 193.808 304.645 194.07 304.431 194.308C304.218 194.546 303.958 194.689 303.626 194.737L304.881 196.738H304.123L302.844 194.761L302.37 194.094H303.271C303.507 194.094 303.697 194.046 303.839 193.927C303.981 193.808 304.029 193.665 304.029 193.475C304.029 193.284 303.958 193.117 303.839 193.022C303.721 192.927 303.531 192.855 303.271 192.855H300.878V194.165C300.878 194.403 300.878 194.165 300.878 194.165" fill="url(#paint17_linear_3696_56653)"/>
<path d="M304.929 196.714L307.227 192.164H307.677L309.998 196.714H309.24L308.648 195.57H306.255L305.663 196.714H304.929ZM306.563 194.975H308.34L307.463 193.236L306.563 194.975Z" fill="url(#paint18_linear_3696_56653)"/>
<g filter="url(#filter4_i_3696_56653)">
<path d="M293.621 159.155C293.248 159.513 289.347 164.523 287.443 166.984C286.472 164.561 284.587 159.655 284.401 159.298C284.168 158.85 283.713 158.932 283.597 159.379C283.48 159.826 283.13 160.497 282.664 161.168C282.198 161.839 279.4 163.74 276.952 165.418C274.504 167.096 272.989 167.543 272.639 167.878C272.29 168.214 272.756 168.773 273.455 169.332C274.155 169.891 275.087 171.793 275.787 172.911C276.486 174.029 276.836 173.47 277.302 172.799C277.768 172.128 278.584 172.016 279.633 171.569C280.682 171.122 280.216 170.674 279.633 170.674C279.051 170.674 278.135 170.227 277.435 169.556C276.736 168.885 276.736 168.661 277.202 167.99C277.669 167.319 281.122 164.853 282.171 164.182C283.22 163.511 283.454 164.406 283.687 164.853C283.873 165.211 284.999 167.724 285.582 169.029C285.038 169.551 283.83 170.92 282.897 171.904C281.732 173.135 278.934 175.595 278.001 176.266C277.069 176.937 275.787 177.832 276.136 178.167C276.486 178.503 278.001 178.726 278.584 179.509C279.167 180.292 279.866 183.088 280.216 183.088C280.566 183.088 280.916 181.634 282.431 178.95C283.643 176.803 285.967 173.656 286.977 172.352C287.482 173.507 288.62 176.248 289.087 177.143C290.191 179.454 290.579 181.289 289.763 182.296C288.947 183.302 286.933 183.71 285.695 182.864C284.649 182.15 284.529 180.068 284.063 179.621C283.597 179.174 283.069 179.777 282.487 181.008C281.904 182.238 281.149 183.871 281.032 184.206C280.916 184.542 280.916 184.653 281.382 184.877C281.848 185.101 282.314 185.548 284.413 186.443C287.793 188.12 290.171 186.977 291.64 185.324C293.21 183.557 294.204 183.088 294.787 182.976C295.37 182.864 296.069 182.864 295.953 182.417C295.836 181.969 294.204 180.516 293.738 180.068C293.365 179.71 292.728 178.428 292.456 177.832L288.791 170.153L293.272 164.747C294.165 165.493 296.21 167.229 295.934 169.732C295.477 173.881 292.515 173.287 291.29 173.135C291.534 173.817 291.839 174.785 292.805 176.378C298.658 176.631 299.566 170.674 298.4 167.99C297.341 165.029 293.954 161.468 293.971 161.28C294.068 160.184 294.132 158.665 293.621 159.155Z" fill="url(#paint19_linear_3696_56653)"/>
</g>
</g>
<defs>
<filter id="filter0_d_3696_56653" x="0" y="0" width="392" height="382.278" filterUnits="userSpaceOnUse" color-interpolation-filters="sRGB">
<feFlood flood-opacity="0" result="BackgroundImageFix"/>
<feColorMatrix in="SourceAlpha" type="matrix" values="0 0 0 0 0 0 0 0 0 0 0 0 0 0 0 0 0 0 127 0" result="hardAlpha"/>
<feOffset dy="14"/>
<feGaussianBlur stdDeviation="7"/>
<feComposite in2="hardAlpha" operator="out"/>
<feColorMatrix type="matrix" values="0 0 0 0 0 0 0 0 0 0 0 0 0 0 0 0 0 0 0.35 0"/>
<feBlend mode="normal" in2="BackgroundImageFix" result="effect1_dropShadow_3696_56653"/>
<feBlend mode="normal" in="SourceGraphic" in2="effect1_dropShadow_3696_56653" result="shape"/>
</filter>
<filter id="filter1_i_3696_56653" x="56.0547" y="39.2512" width="274.759" height="275.956" filterUnits="userSpaceOnUse" color-interpolation-filters="sRGB">
<feFlood flood-opacity="0" result="BackgroundImageFix"/>
<feBlend mode="normal" in="SourceGraphic" in2="BackgroundImageFix" result="shape"/>
<feColorMatrix in="SourceAlpha" type="matrix" values="0 0 0 0 0 0 0 0 0 0 0 0 0 0 0 0 0 0 127 0" result="hardAlpha"/>
<feOffset dy="4"/>
<feGaussianBlur stdDeviation="2"/>
<feComposite in2="hardAlpha" operator="arithmetic" k2="-1" k3="1"/>
<feColorMatrix type="matrix" values="0 0 0 0 0 0 0 0 0 0 0 0 0 0 0 0 0 0 0.25 0"/>
<feBlend mode="normal" in2="shape" result="effect1_innerShadow_3696_56653"/>
</filter>
<filter id="filter2_d_3696_56653" x="80.8291" y="165.248" width="34.5723" height="34.5723" filterUnits="userSpaceOnUse" color-interpolation-filters="sRGB">
<feFlood flood-opacity="0" result="BackgroundImageFix"/>
<feColorMatrix in="SourceAlpha" type="matrix" values="0 0 0 0 0 0 0 0 0 0 0 0 0 0 0 0 0 0 127 0" result="hardAlpha"/>
<feOffset dy="4"/>
<feGaussianBlur stdDeviation="2"/>
<feComposite in2="hardAlpha" operator="out"/>
<feColorMatrix type="matrix" values="0 0 0 0 0 0 0 0 0 0 0 0 0 0 0 0 0 0 0.25 0"/>
<feBlend mode="normal" in2="BackgroundImageFix" result="effect1_dropShadow_3696_56653"/>
<feBlend mode="normal" in="SourceGraphic" in2="effect1_dropShadow_3696_56653" result="shape"/>
</filter>
<filter id="filter3_d_3696_56653" x="80" y="164.418" width="34.5723" height="34.5723" filterUnits="userSpaceOnUse" color-interpolation-filters="sRGB">
<feFlood flood-opacity="0" result="BackgroundImageFix"/>
<feColorMatrix in="SourceAlpha" type="matrix" values="0 0 0 0 0 0 0 0 0 0 0 0 0 0 0 0 0 0 127 0" result="hardAlpha"/>
<feOffset dy="4"/>
<feGaussianBlur stdDeviation="2"/>
<feComposite in2="hardAlpha" operator="out"/>
<feColorMatrix type="matrix" values="0 0 0 0 0 0 0 0 0 0 0 0 0 0 0 0 0 0 0.25 0"/>
<feBlend mode="normal" in2="BackgroundImageFix" result="effect1_dropShadow_3696_56653"/>
<feBlend mode="normal" in="SourceGraphic" in2="effect1_dropShadow_3696_56653" result="shape"/>
</filter>
<filter id="filter4_i_3696_56653" x="272.521" y="159" width="26.3213" height="29.2666" filterUnits="userSpaceOnUse" color-interpolation-filters="sRGB">
<feFlood flood-opacity="0" result="BackgroundImageFix"/>
<feBlend mode="normal" in="SourceGraphic" in2="BackgroundImageFix" result="shape"/>
<feColorMatrix in="SourceAlpha" type="matrix" values="0 0 0 0 0 0 0 0 0 0 0 0 0 0 0 0 0 0 127 0" result="hardAlpha"/>
<feOffset dy="1"/>
<feGaussianBlur stdDeviation="0.5"/>
<feComposite in2="hardAlpha" operator="arithmetic" k2="-1" k3="1"/>
<feColorMatrix type="matrix" values="0 0 0 0 0 0 0 0 0 0 0 0 0 0 0 0 0 0 0.25 0"/>
<feBlend mode="normal" in2="shape" result="effect1_innerShadow_3696_56653"/>
</filter>
<linearGradient id="paint0_linear_3696_56653" x1="168.202" y1="-12.6165" x2="257.919" y2="353.262" gradientUnits="userSpaceOnUse">
<stop stop-color="#304354"/>
<stop offset="1" stop-color="#11191F"/>
</linearGradient>
<linearGradient id="paint1_linear_3696_56653" x1="196" y1="0" x2="196" y2="354.278" gradientUnits="userSpaceOnUse">
<stop stop-color="#3D5365"/>
<stop offset="1" stop-color="#090E12"/>
</linearGradient>
<linearGradient id="paint2_linear_3696_56653" x1="196.002" y1="16.6714" x2="196.002" y2="337.605" gradientUnits="userSpaceOnUse">
<stop stop-color="#3E5466"/>
<stop offset="1" stop-color="#060A0D"/>
</linearGradient>
<linearGradient id="paint3_linear_3696_56653" x1="196.002" y1="16.6714" x2="196.002" y2="337.605" gradientUnits="userSpaceOnUse">
<stop stop-color="#2C3D4C"/>
<stop offset="1" stop-color="#1C2832"/>
</linearGradient>
<linearGradient id="paint4_linear_3696_56653" x1="195.846" y1="20.7944" x2="194.112" y2="331.399" gradientUnits="userSpaceOnUse">
<stop stop-color="#597488"/>
<stop offset="1" stop-color="#07090B"/>
</linearGradient>
<linearGradient id="paint5_linear_3696_56653" x1="239.695" y1="312.608" x2="133.156" y2="46.2602" gradientUnits="userSpaceOnUse">
<stop stop-color="#030508"/>
<stop offset="1" stop-color="#192430" stop-opacity="0.56"/>
</linearGradient>
<linearGradient id="paint6_linear_3696_56653" x1="193.434" y1="39.2512" x2="193.434" y2="311.207" gradientUnits="userSpaceOnUse">
<stop stop-color="#141414"/>
<stop offset="1" stop-color="#0E151C"/>
</linearGradient>
<linearGradient id="paint7_linear_3696_56653" x1="193.434" y1="39.2512" x2="193.434" y2="311.207" gradientUnits="userSpaceOnUse">
<stop stop-color="#F0C673"/>
<stop offset="1" stop-color="#F0C673" stop-opacity="0"/>
</linearGradient>
<radialGradient id="paint8_radial_3696_56653" cx="0" cy="0" r="1" gradientUnits="userSpaceOnUse" gradientTransform="translate(194 36) rotate(90) scale(42.5 77)">
<stop stop-color="#FF2727"/>
<stop offset="1" stop-color="#141414" stop-opacity="0"/>
</radialGradient>
<radialGradient id="paint9_radial_3696_56653" cx="0" cy="0" r="1" gradientUnits="userSpaceOnUse" gradientTransform="translate(138 -5) rotate(90) scale(42.5 77)">
<stop stop-color="#007AFF"/>
<stop offset="1" stop-color="#141414" stop-opacity="0"/>
</radialGradient>
<linearGradient id="paint10_linear_3696_56653" x1="97.2861" y1="164.418" x2="97.2861" y2="190.99" gradientUnits="userSpaceOnUse">
<stop stop-color="#F0C673"/>
<stop offset="1" stop-color="#785E2A"/>
</linearGradient>
<linearGradient id="paint11_linear_3696_56653" x1="267.569" y1="190.854" x2="270.737" y2="197.678" gradientUnits="userSpaceOnUse">
<stop stop-color="#ECC271"/>
<stop offset="1" stop-color="#7F642E"/>
</linearGradient>
<linearGradient id="paint12_linear_3696_56653" x1="273.518" y1="192.164" x2="275.72" y2="197.703" gradientUnits="userSpaceOnUse">
<stop stop-color="#ECC271"/>
<stop offset="1" stop-color="#7F642E"/>
</linearGradient>
<linearGradient id="paint13_linear_3696_56653" x1="279.023" y1="192.188" x2="281.483" y2="197.451" gradientUnits="userSpaceOnUse">
<stop stop-color="#ECC271"/>
<stop offset="1" stop-color="#7F642E"/>
</linearGradient>
<linearGradient id="paint14_linear_3696_56653" x1="284.164" y1="192.188" x2="286.625" y2="197.451" gradientUnits="userSpaceOnUse">
<stop stop-color="#ECC271"/>
<stop offset="1" stop-color="#7F642E"/>
</linearGradient>
<linearGradient id="paint15_linear_3696_56653" x1="289.08" y1="192.069" x2="291.333" y2="197.957" gradientUnits="userSpaceOnUse">
<stop stop-color="#ECC271"/>
<stop offset="1" stop-color="#7F642E"/>
</linearGradient>
<linearGradient id="paint16_linear_3696_56653" x1="295.443" y1="192.188" x2="297.97" y2="197.63" gradientUnits="userSpaceOnUse">
<stop stop-color="#ECC271"/>
<stop offset="1" stop-color="#7F642E"/>
</linearGradient>
<linearGradient id="paint17_linear_3696_56653" x1="301.561" y1="192.212" x2="303.851" y2="197.624" gradientUnits="userSpaceOnUse">
<stop stop-color="#ECC271"/>
<stop offset="1" stop-color="#7F642E"/>
</linearGradient>
<linearGradient id="paint18_linear_3696_56653" x1="306.446" y1="192.164" x2="308.648" y2="197.703" gradientUnits="userSpaceOnUse">
<stop stop-color="#ECC271"/>
<stop offset="1" stop-color="#7F642E"/>
</linearGradient>
<linearGradient id="paint19_linear_3696_56653" x1="280.397" y1="159" x2="295.859" y2="191.497" gradientUnits="userSpaceOnUse">
<stop stop-color="#ECC271"/>
<stop offset="1" stop-color="#7F642E"/>
</linearGradient>
</defs>
</svg>
