<svg width="52" height="52" viewBox="0 0 52 52" fill="none" xmlns="http://www.w3.org/2000/svg">
<path fill-rule="evenodd" clip-rule="evenodd" d="M0 23.4234C0 17.9833 1.85456 12.9764 4.96593 9.00031L7.83373 7.58411L8.97996 4.98188C12.9593 1.86089 17.974 0 23.4234 0H28.5766C34.0829 0 39.1454 1.89997 43.1444 5.08008L44.2629 7.57286L46.6367 8.50636C49.9869 12.5579 52 17.7556 52 23.4234V28.5766C52 34.2294 49.9976 39.4145 46.6634 43.4612L43.8041 44.7443L42.8614 47.1414C38.9078 50.1881 33.9538 52 28.5766 52H23.4234C18.2615 52 13.4895 50.3302 9.61821 47.5014L8.34887 44.931L5.52508 43.6872C2.07801 39.6083 0 34.3351 0 28.5766V23.4234Z" fill="url(#paint0_linear_878_18801)"/>
<circle cx="26" cy="25.9997" r="23.1386" fill="url(#paint1_linear_878_18801)"/>
<ellipse cx="26.0001" cy="25.9998" rx="19.9471" ry="19.9471" fill="url(#paint2_linear_878_18801)"/>
<path d="M18 26.4178C18 21.4471 18.8122 17.8385 20.4367 15.5919C22.0739 13.3454 24.2568 12.2222 26.9854 12.2222C28.6607 12.2222 30.0884 12.6482 31.2687 13.5004C32.449 14.3396 33.3628 15.6242 34.01 17.3543C34.67 19.0715 35 21.5762 35 24.8685C35 30.601 34.1877 34.6486 32.5632 37.0114C30.9387 39.3741 28.7749 40.5554 26.0716 40.5554C24.206 40.5554 22.6514 40.0003 21.4076 38.8899C20.1639 37.7666 19.2501 36.185 18.6663 34.1451C18.2221 32.5829 18 30.0071 18 26.4178ZM21.3124 25.895C21.3124 31.1756 21.8518 34.7971 22.9306 36.7596C23.7936 38.3606 25.0373 39.161 26.6618 39.161C28.2101 39.161 29.3841 38.4251 30.1836 36.9533C31.1862 35.107 31.6875 31.7178 31.6875 26.7858C31.6875 21.5439 31.1545 17.9676 30.0884 16.0567C29.1874 14.43 27.9182 13.6166 26.2811 13.6166C24.7454 13.6166 23.5334 14.4235 22.645 16.0374C21.7566 17.6383 21.3124 20.9242 21.3124 25.895Z" fill="url(#paint3_linear_878_18801)"/>
<line y1="-0.75" x2="14.2439" y2="-0.75" transform="matrix(-0.528876 0.848699 -0.742313 -0.670054 31.9556 10.3335)" stroke="url(#paint4_linear_878_18801)" stroke-width="1.5"/>
<line y1="-0.75" x2="14.2439" y2="-0.75" transform="matrix(-0.528876 0.848699 -0.742313 -0.670054 33.5833 13.3557)" stroke="url(#paint5_linear_878_18801)" stroke-width="1.5"/>
<defs>
<linearGradient id="paint0_linear_878_18801" x1="15.5606" y1="-3.61164e-05" x2="39.2329" y2="2.72092" gradientUnits="userSpaceOnUse">
<stop stop-color="#16202B"/>
<stop offset="1" stop-color="#101419"/>
</linearGradient>
<linearGradient id="paint1_linear_878_18801" x1="16.7094" y1="2.86104" x2="40.8748" y2="57.4021" gradientUnits="userSpaceOnUse">
<stop stop-color="#20303D"/>
<stop offset="1" stop-color="#0C131B"/>
</linearGradient>
<linearGradient id="paint2_linear_878_18801" x1="20.9085" y1="5.34125" x2="37.1704" y2="45.149" gradientUnits="userSpaceOnUse">
<stop stop-color="#0B0C10"/>
<stop offset="1" stop-color="#1D2835"/>
</linearGradient>
<linearGradient id="paint3_linear_878_18801" x1="26.5" y1="12.2222" x2="26.5" y2="40.5554" gradientUnits="userSpaceOnUse">
<stop stop-color="#F0C673"/>
<stop offset="1" stop-color="#785E2A"/>
</linearGradient>
<linearGradient id="paint4_linear_878_18801" x1="4.26239" y1="-6.94547e-07" x2="6.04746" y2="2.92258" gradientUnits="userSpaceOnUse">
<stop stop-color="#ECC271"/>
<stop offset="1" stop-color="#7F642E"/>
</linearGradient>
<linearGradient id="paint5_linear_878_18801" x1="4.26239" y1="-6.94547e-07" x2="6.04746" y2="2.92258" gradientUnits="userSpaceOnUse">
<stop stop-color="#ECC271"/>
<stop offset="1" stop-color="#7F642E"/>
</linearGradient>
</defs>
</svg>
