<svg width="26" height="35" viewBox="0 0 26 35" fill="none" xmlns="http://www.w3.org/2000/svg">
<path fill-rule="evenodd" clip-rule="evenodd" d="M12.9704 0C16.8425 0 19.9815 3.14305 19.9815 7.0202V16.8485C19.9815 20.7256 16.8425 23.8687 12.9704 23.8687C9.09826 23.8687 5.95929 20.7256 5.95929 16.8485V7.0202C5.95929 3.14305 9.09826 0 12.9704 0ZM24.8894 15.7955C25.4702 15.7955 25.9411 16.2669 25.9411 16.8485C25.9411 23.3112 20.683 28.5867 14.0235 29.0939L14.0222 33.697C14.0222 34.2785 13.5513 34.75 12.9705 34.75C12.4381 34.75 11.9981 34.3538 11.9285 33.8399L11.9189 33.697L11.919 29.094C5.2588 28.5875 0 23.3116 0 16.8485C0 16.2669 0.470846 15.7955 1.05166 15.7955C1.63248 15.7955 2.10333 16.2669 2.10333 16.8485C2.10333 22.4556 6.95496 27.0278 12.9705 27.0278C18.9861 27.0278 23.8377 22.4556 23.8377 16.8485C23.8377 16.2669 24.3086 15.7955 24.8894 15.7955ZM8.06295 7.0202C8.06295 4.3062 10.2602 2.10606 12.9707 2.10606C15.6812 2.10606 17.8785 4.3062 17.8785 7.0202V16.8485C17.8785 19.5625 15.6812 21.7626 12.9707 21.7626C10.2602 21.7626 8.06295 19.5625 8.06295 16.8485V7.0202Z" fill="white"/>
</svg>
