<svg width="115" height="140" viewBox="0 0 115 140" fill="none" xmlns="http://www.w3.org/2000/svg">
<path fill-rule="evenodd" clip-rule="evenodd" d="M23 65.8919C23 56.1625 26.3168 47.2077 31.8814 40.0967L37.0103 37.5639L39.0603 32.9099C46.1772 27.3281 55.1459 24 64.8919 24H74.1081C83.9559 24 93.0101 27.398 100.162 33.0855L102.163 37.5438L106.408 39.2133C112.4 46.4592 116 55.7551 116 65.8919V75.1081C116 85.2179 112.419 94.4912 106.456 101.729L101.342 104.023L99.656 108.311C92.5852 113.759 83.7251 117 74.1081 117H64.8919C55.6599 117 47.1255 114.014 40.2018 108.954L37.9316 104.357L32.8814 102.133C26.7165 94.8379 23 85.407 23 75.1081V65.8919Z" fill="#007AFF"/>
<path fill-rule="evenodd" clip-rule="evenodd" d="M0 63.0631C0 48.4166 4.99304 34.9364 13.3698 24.2316L21.0908 20.4188L24.1768 13.4128C34.8904 5.0101 48.3916 0 63.0631 0H76.9369C91.7616 0 105.392 5.1153 116.158 13.6771L119.169 20.3885L125.56 22.9017C134.58 33.8096 140 47.8034 140 63.0631V76.9369C140 92.156 134.609 106.116 125.632 117.011L117.934 120.465L115.396 126.919C104.752 135.122 91.4141 140 76.9369 140H63.0631C49.1655 140 36.3179 135.505 25.8952 127.888L22.4777 120.968L14.8752 117.619C5.59466 106.638 0 92.4407 0 76.9369V63.0631Z" fill="#007AFF" fill-opacity="0.1"/>
<path fill-rule="evenodd" clip-rule="evenodd" d="M14 64.4505C14 52.7333 17.9944 41.9491 24.6959 33.3853L30.8727 30.335L33.3414 24.7302C41.9123 18.0081 52.7133 14 64.4505 14H75.5495C87.4093 14 98.3132 18.0922 106.926 24.9417L109.336 30.3108L114.448 32.3214C121.664 41.0477 126 52.2427 126 64.4505V75.5495C126 87.7248 121.687 98.8927 114.506 107.609L108.347 110.372L106.317 115.535C97.8015 122.097 87.1313 126 75.5495 126H64.4505C53.3324 126 43.0543 122.404 34.7161 116.311L31.9822 110.774L25.9002 108.095C18.4757 99.3102 14 87.9525 14 75.5495V64.4505Z" fill="#007AFF" fill-opacity="0.2"/>
</svg>
