<svg width="119" height="67" viewBox="0 0 119 67" fill="none" xmlns="http://www.w3.org/2000/svg">
<path d="M0 65.9085V50.1836H9.28229C10.8081 50.1836 12.0161 50.5032 12.779 51.2064C13.542 51.8456 13.987 52.8683 13.987 54.1468C13.987 54.786 13.8599 55.3613 13.6056 55.8087C13.3512 56.2562 13.0334 56.7037 12.5247 57.0233C13.3512 57.5347 13.987 58.11 14.4321 58.8131C14.8771 59.5162 15.0678 60.3472 15.0678 61.2421C15.0678 62.7124 14.6228 63.863 13.6691 64.694C12.7155 65.525 11.4439 65.9724 9.79091 65.9724H0V65.9085ZM1.97089 56.3841H9.47302C10.2995 56.3841 10.9353 56.1923 11.3803 55.8087C11.8254 55.4252 12.0161 54.9138 12.0161 54.2107C12.0161 53.4436 11.8254 52.9323 11.3803 52.5487C10.9353 52.1652 10.2995 51.9734 9.47302 51.9734H1.97089V56.3841ZM1.97089 64.1186H10.1724C11.0625 64.1186 11.7618 63.863 12.2704 63.3516C12.7791 62.8402 13.0334 62.0731 13.0334 61.1782C13.0334 60.2833 12.7791 59.5802 12.2704 59.0049C11.7618 58.4296 11.0625 58.1739 10.1724 58.1739H1.97089V64.1186Z" fill="url(#paint0_linear_454_7667)"/>
<path d="M16.4031 65.9084L22.5701 53.6992H23.7781L30.0086 65.9084H27.9742L26.3847 62.8401H19.9634L18.374 65.9084H16.4031ZM20.7899 61.242H25.5582L23.2059 56.5757L20.7899 61.242Z" fill="url(#paint1_linear_454_7667)"/>
<path d="M31.7885 65.9089V53.7637H33.6958V59.1971L40.1172 53.7637H42.5967L37.5105 58.1104L43.3596 65.9728H41.2616L36.2389 59.261L33.7594 61.3704V65.9728H31.7885V65.9089Z" fill="url(#paint2_linear_454_7667)"/>
<path d="M45.5853 65.9089V53.7637H47.4926V59.1971L53.9139 53.7637H56.3934L51.3072 58.1104L57.1564 65.9728H55.0583L50.0357 59.261L47.5562 61.3704V65.9728H45.5853V65.9089Z" fill="url(#paint3_linear_454_7667)"/>
<path d="M65.2308 66.2917C63.0692 66.2917 61.289 65.6525 59.8903 64.438C58.4916 63.2235 57.7923 61.6893 57.7923 59.8356C57.7923 57.9818 58.4916 56.4477 59.8903 55.2332C61.289 54.0187 63.0692 53.4434 65.2308 53.4434C67.3925 53.4434 69.1726 54.0187 70.5713 55.2332C71.97 56.4477 72.6694 57.9818 72.6694 59.8356C72.6694 61.6893 71.97 63.2235 70.5713 64.438C69.1726 65.7164 67.3925 66.2917 65.2308 66.2917ZM65.2308 64.5019C66.8203 64.5019 68.1554 64.0544 69.1726 63.1595C70.1899 62.2646 70.6985 61.178 70.6985 59.7717C70.6985 58.4293 70.1899 57.2787 69.1726 56.4477C68.1554 55.5528 66.8203 55.1053 65.2308 55.1053C63.6414 55.1053 62.3063 55.5528 61.2891 56.4477C60.2718 57.3426 59.7632 58.4293 59.7632 59.8356C59.7632 61.2419 60.2718 62.3285 61.2891 63.2235C62.3063 64.1184 63.5778 64.5019 65.2308 64.5019Z" fill="url(#paint4_linear_454_7667)"/>
<path d="M75.7211 53.7637H77.6284V61.5622C77.6284 62.7128 77.8827 63.5438 78.4549 63.9273C79.0271 64.3108 80.1079 64.5665 81.6974 64.5665C83.3504 64.5665 84.4312 64.3748 85.0034 63.9273C85.5756 63.5438 85.8299 62.7128 85.8299 61.5622V53.7637H87.7372V62.0736C87.7372 63.5438 87.2922 64.6305 86.3385 65.3336C85.3849 65.9728 83.859 66.3563 81.7609 66.3563C79.6629 66.3563 78.137 66.0367 77.1834 65.3975C76.2297 64.7583 75.7847 63.6716 75.7847 62.1375V53.7637H75.7211Z" fill="url(#paint5_linear_454_7667)"/>
<path d="M93.8405 59.1956C93.8405 59.1956 93.8405 63.6063 93.8405 65.9714H91.9332V53.8262H100.262C101.47 53.8262 102.487 54.1458 103.186 54.7211C103.886 55.2964 104.267 56.1274 104.267 57.214C104.267 58.109 104.013 58.8121 103.441 59.4513C102.869 60.0906 102.169 60.4741 101.279 60.6019L104.649 65.9714H102.614L99.181 60.6658L97.9094 58.876H100.325C100.961 58.876 101.47 58.7482 101.851 58.4286C102.233 58.109 102.36 57.7254 102.36 57.214C102.36 56.7027 102.169 56.2552 101.851 55.9995C101.533 55.7438 101.025 55.5521 100.325 55.5521H93.9041V59.0678C93.9041 59.0678 93.9041 59.707 93.9041 59.0678" fill="url(#paint6_linear_454_7667)"/>
<path d="M104.776 65.9084L110.943 53.6992H112.151L118.381 65.9084H116.347L114.757 62.8401H108.336L106.747 65.9084H104.776ZM109.162 61.242H113.931L111.578 56.5757L109.162 61.242Z" fill="url(#paint7_linear_454_7667)"/>
<path d="M58.8783 38.3756C58.7205 38.2976 58.5365 38.2976 58.3656 38.2716C57.7478 38.1676 57.1695 37.9726 56.5911 37.7777C55.763 37.4917 54.9612 37.1667 54.1725 36.8027C53.305 36.4127 52.5032 35.9317 51.7014 35.4377C51.4385 35.2817 51.1756 35.1257 50.8733 35.0477C50.6892 34.9957 50.6235 34.8917 50.6104 34.7097C50.5841 34.3198 50.7418 33.9818 50.8995 33.6568C51.215 33.0068 51.5436 32.3568 51.8854 31.7068C52.1483 31.1998 52.3323 30.6539 52.5558 30.1209C52.8055 29.5229 53.1078 28.9639 53.5153 28.4569C53.6336 28.3139 53.7519 28.1839 53.8965 28.0799C54.3566 27.7289 54.7377 27.8459 54.9218 28.4049C55.1189 29.0029 55.2504 29.6269 55.4738 30.2249C55.763 31.0049 56.1442 31.7328 56.7883 32.2918C57.2352 32.6688 57.7478 32.9288 58.3262 33.0068C59.2463 33.1238 60.1007 32.9418 60.9419 32.6038C61.3231 32.4478 61.6518 32.2268 61.9409 31.9408C62.3878 31.4858 62.6507 30.9399 62.7822 30.3159C62.8742 29.8609 62.8742 29.3929 62.8479 28.9379C62.8216 28.4439 62.7165 27.9499 62.5719 27.469C62.3484 26.702 62.0329 25.974 61.6912 25.259C61.2837 24.401 60.9157 23.5301 60.5476 22.6591C60.2716 21.9961 59.9824 21.3331 59.6932 20.6702C59.3383 19.8252 58.9966 18.9802 58.6417 18.1352C58.1947 18.7202 57.761 19.2922 57.3272 19.8642C56.9197 20.4102 56.5123 20.9561 56.1179 21.5151C55.671 22.1391 55.2504 22.7761 54.8166 23.4131C54.304 24.1801 53.8308 24.96 53.3576 25.74C52.3192 27.469 51.4122 29.2759 50.5184 31.0828C50.2818 31.5768 50.0583 32.0708 49.756 32.5388C49.6114 32.7598 49.4668 32.7598 49.3354 32.5518C49.0988 32.1878 49.0067 31.7718 48.8753 31.3688C48.6518 30.6799 48.4547 29.9779 48.1655 29.3019C47.9683 28.8209 47.7712 28.3399 47.4688 27.9109C47.0876 27.365 46.5619 27.001 45.9572 26.767C45.5234 26.585 45.0502 26.494 44.6165 26.338C44.2221 26.195 44.0907 25.948 44.2879 25.532C44.4456 25.181 44.7479 24.947 45.0371 24.7C45.4314 24.362 45.8521 24.0631 46.2595 23.7381C46.8773 23.2571 47.4951 22.7891 48.1129 22.3081C48.4152 22.0611 48.7044 21.8011 48.9936 21.5541C50.0189 20.6572 50.9916 19.7082 51.938 18.7462C52.3192 18.3562 52.7266 17.9662 53.0947 17.5632C53.5153 17.1213 53.9359 16.6793 54.3566 16.2373C54.8429 15.7303 55.3292 15.2103 55.8025 14.6903C56.1048 14.3653 56.3808 14.0403 56.6831 13.7154C56.7488 13.6374 56.7489 13.5724 56.7094 13.4944C56.2888 12.5454 55.8813 11.5964 55.4738 10.6474C55.1584 9.93247 54.8429 9.21749 54.5143 8.50251C54.304 8.04752 54.1068 7.57954 53.8965 7.12455C53.6993 6.72156 53.1341 6.51357 52.6872 6.69556C52.2271 6.89056 51.8328 7.20255 51.4253 7.47554C50.3475 8.20352 49.2959 8.9705 48.2575 9.76347C47.6003 10.2705 46.9299 10.7774 46.3121 11.3234C46.0624 11.5444 45.7995 11.7394 45.6286 12.0254C45.4446 12.3114 45.3131 12.6364 45.2343 12.9744C45.1291 13.3774 45.3526 13.7154 45.6155 14.0144C46.1412 14.6123 46.7459 15.1063 47.482 15.4313C47.8895 15.6133 48.2969 15.7303 48.7438 15.7823C49.0199 15.8213 49.2959 15.8343 49.5325 16.0033C49.756 16.1593 49.7823 16.3543 49.5851 16.5623C49.3091 16.8483 48.9542 17.0173 48.5993 17.1863C47.85 17.5502 47.0351 17.7972 46.3384 18.2782C46.0229 18.4862 45.8126 18.7592 45.6549 19.0972C45.5497 19.3442 45.3789 19.5522 45.1423 19.6822C44.8794 19.8252 44.6428 19.7602 44.4193 19.6042C44.1038 19.3832 43.9461 19.0452 43.7489 18.7332C43.21 17.8492 42.6711 16.9523 42.1322 16.0683C41.7773 15.4833 41.4092 14.9113 40.9886 14.3783C40.66 13.9494 40.2788 13.5724 39.8976 13.1954C39.7793 13.0784 39.6741 12.9484 39.5821 12.8054C39.3324 12.3764 39.4638 12.1424 39.845 11.9344C40.2919 11.6744 40.7783 11.4794 41.2252 11.2064C41.843 10.8424 42.4476 10.4785 43.0523 10.1015C44.2616 9.34749 45.4577 8.55451 46.6407 7.76153C47.5477 7.15055 48.4547 6.52657 49.3222 5.86359C50.032 5.3306 50.7418 4.77162 51.4385 4.19964C51.938 3.78365 52.4375 3.35466 52.8844 2.88668C53.4101 2.34069 53.7782 1.69071 54.0279 0.988731C54.1331 0.702739 54.2251 0.416747 54.396 0.156755C54.5143 -0.0252399 54.7115 -0.0512392 54.8692 0.0917566C55.0926 0.299751 55.1978 0.572743 55.3161 0.845735C55.6053 1.50872 55.855 2.1717 56.1179 2.83468C56.394 3.53666 56.6568 4.25163 56.9329 4.95361C57.2746 5.83759 57.6164 6.73456 57.9581 7.61854C58.3656 8.6975 58.7731 9.77647 59.1937 10.8814C59.4303 10.6084 59.6538 10.3615 59.8641 10.1015C60.1927 9.69848 60.5213 9.29549 60.8236 8.8925C61.402 8.13852 61.9804 7.37154 62.5587 6.60457C63.1634 5.79859 63.768 4.99261 64.3727 4.17364C64.8853 3.48466 65.3848 2.79568 65.8974 2.1067C66.3575 1.49572 66.7781 0.871734 67.2907 0.29975C67.3827 0.195753 67.5011 0.117756 67.6456 0.156755C67.7902 0.208753 67.8034 0.351749 67.8297 0.481745C67.9217 1.01473 67.8428 1.53471 67.7639 2.0547C67.6851 2.61368 67.8297 3.13367 68.1583 3.60165C68.7366 4.44663 69.3676 5.23961 69.9854 6.07158C70.4849 6.74756 70.9975 7.39754 71.4838 8.08652C72.1411 9.0095 72.7326 9.97147 73.2189 10.9984C73.6395 11.8564 73.9419 12.7664 74.1259 13.7024C74.1916 14.0273 74.2573 14.3523 74.2442 14.6773C74.2442 14.7033 74.2442 14.7423 74.2836 14.7553C74.2836 15.1843 74.2836 15.6133 74.2836 16.0423C74.2048 16.2633 74.2179 16.4973 74.1785 16.7183C74.0602 17.4982 73.8236 18.2392 73.5081 18.9542C72.956 20.2022 72.1674 21.2811 71.0764 22.1261C70.406 22.6461 69.6699 23.0621 68.8681 23.3351C68.4606 23.4781 68.0531 23.5821 67.6325 23.6341C67.2776 23.6861 66.9227 23.7121 66.5678 23.6601C66.4101 23.6341 66.2655 23.5691 66.1735 23.4261C66.0814 23.2961 66.0157 23.1661 65.9369 23.0231C65.7003 22.5681 65.4768 22.1261 65.2665 21.6711C65.0299 21.1641 64.8064 20.6442 64.6093 20.1112C64.5304 19.8902 64.4121 19.6692 64.4121 19.4092C64.4121 19.2922 64.4515 19.2532 64.5698 19.2532C64.7539 19.2402 64.9247 19.2922 65.0956 19.2922C65.7134 19.2792 66.3181 19.3312 66.9358 19.2272C67.317 19.1622 67.6851 19.0582 68.0268 18.8762C68.7235 18.4862 69.223 17.9012 69.591 17.2123C70.0774 16.3283 70.3008 15.3793 70.3797 14.3783C70.4191 13.8714 70.406 13.3644 70.3008 12.8704C70.1431 12.0774 69.8013 11.3494 69.3676 10.6734C68.9732 10.0495 68.5132 9.46448 68.0137 8.9185C67.6325 8.51551 67.2513 8.12552 66.8307 7.76153C66.3969 8.30752 65.9631 8.8405 65.5294 9.37348C65.1219 9.88047 64.7013 10.3745 64.3069 10.8814C63.8469 11.4664 63.3868 12.0644 62.9268 12.6494C62.309 13.4424 61.6912 14.2223 61.0602 15.0023C61.0077 15.0673 60.9945 15.1193 61.034 15.2103C61.2968 15.7693 61.5466 16.3283 61.7963 16.8873C62.2564 17.9012 62.7165 18.9152 63.1765 19.9292C63.5051 20.6442 63.8337 21.3461 64.1623 22.0611C64.5698 22.9191 64.9642 23.7771 65.3848 24.635C65.8974 25.662 66.3969 26.702 66.9621 27.6899C67.1856 28.0799 67.409 28.4439 67.7245 28.7689C68.0531 29.1069 68.3949 29.4319 68.7104 29.7829C69.2098 30.3029 69.7093 30.8359 70.1694 31.3818C70.4454 31.7068 70.4191 31.9798 70.0774 32.2528C69.8408 32.4478 69.5385 32.5128 69.2493 32.5778C68.9601 32.6428 68.6578 32.6558 68.3686 32.7078C67.7902 32.8248 67.3302 33.1498 66.8964 33.5268C66.4889 33.8648 66.1472 34.2548 65.8054 34.6447C65.7528 34.7097 65.674 34.7617 65.6214 34.8267C65.2533 35.2947 64.859 35.7367 64.4515 36.1657C64.1098 36.5297 63.7286 36.8677 63.3211 37.1797C62.6376 37.6997 61.9015 38.0766 61.0602 38.2716C60.8368 38.3236 60.6002 38.3756 60.3636 38.4146C59.8904 38.3756 59.3909 38.3756 58.8783 38.3756Z" fill="url(#paint8_linear_454_7667)"/>
<defs>
<linearGradient id="paint0_linear_454_7667" x1="4.50894" y1="50.1836" x2="13.0114" y2="68.4974" gradientUnits="userSpaceOnUse">
<stop stop-color="#ECC271"/>
<stop offset="1" stop-color="#7F642E"/>
</linearGradient>
<linearGradient id="paint1_linear_454_7667" x1="20.4744" y1="53.6992" x2="26.3844" y2="68.5636" gradientUnits="userSpaceOnUse">
<stop stop-color="#ECC271"/>
<stop offset="1" stop-color="#7F642E"/>
</linearGradient>
<linearGradient id="paint2_linear_454_7667" x1="35.2511" y1="53.7637" x2="41.8553" y2="67.8903" gradientUnits="userSpaceOnUse">
<stop stop-color="#ECC271"/>
<stop offset="1" stop-color="#7F642E"/>
</linearGradient>
<linearGradient id="paint3_linear_454_7667" x1="49.0478" y1="53.7637" x2="55.652" y2="67.8903" gradientUnits="userSpaceOnUse">
<stop stop-color="#ECC271"/>
<stop offset="1" stop-color="#7F642E"/>
</linearGradient>
<linearGradient id="paint4_linear_454_7667" x1="62.2442" y1="53.4433" x2="68.2907" y2="69.2451" gradientUnits="userSpaceOnUse">
<stop stop-color="#ECC271"/>
<stop offset="1" stop-color="#7F642E"/>
</linearGradient>
<linearGradient id="paint5_linear_454_7667" x1="79.3168" y1="53.7637" x2="86.0987" y2="68.3695" gradientUnits="userSpaceOnUse">
<stop stop-color="#ECC271"/>
<stop offset="1" stop-color="#7F642E"/>
</linearGradient>
<linearGradient id="paint6_linear_454_7667" x1="95.7382" y1="53.8262" x2="101.884" y2="68.3492" gradientUnits="userSpaceOnUse">
<stop stop-color="#ECC271"/>
<stop offset="1" stop-color="#7F642E"/>
</linearGradient>
<linearGradient id="paint7_linear_454_7667" x1="108.847" y1="53.6992" x2="114.757" y2="68.5636" gradientUnits="userSpaceOnUse">
<stop stop-color="#ECC271"/>
<stop offset="1" stop-color="#7F642E"/>
</linearGradient>
<linearGradient id="paint8_linear_454_7667" x1="49.8767" y1="-3.55971e-05" x2="71.2423" y2="43.7213" gradientUnits="userSpaceOnUse">
<stop stop-color="#ECC271"/>
<stop offset="1" stop-color="#7F642E"/>
</linearGradient>
</defs>
</svg>
