<svg width="20" height="21" viewBox="0 0 20 21" fill="none" xmlns="http://www.w3.org/2000/svg">
<path d="M4.04507 16.0844L8.3671 18.6237M15.7552 10.6801C16.3813 9.57657 16.5264 8.25073 16.1585 6.99417C15.7907 5.73766 14.202 3.56457 14.202 3.56457C14.202 3.56457 11.2995 3.09895 10.0463 3.40304C8.79305 3.70714 7.73725 4.49792 7.11117 5.60144C5.97883 7.5973 4.69195 8.72083 3.569 9.35201C2.48141 9.96325 1.93758 10.269 1.87882 10.3968C1.81282 10.5404 1.81168 10.6039 1.87253 10.7485C1.92671 10.8771 2.37995 11.1434 3.28645 11.676L9.11677 12.3052L12.4981 17.0881C13.4046 17.6207 13.8578 17.887 13.9944 17.8704C14.1478 17.8518 14.2013 17.819 14.2905 17.689C14.3699 17.5733 14.3581 16.9412 14.3346 15.6771C14.3102 14.3718 14.6229 12.676 15.7552 10.6801Z" stroke="url(#paint0_linear_999_25629)" stroke-width="1.5" stroke-linecap="round" stroke-linejoin="round"/>
<defs>
<linearGradient id="paint0_linear_999_25629" x1="13.7939" y1="3.97998" x2="3.41155" y2="20.9414" gradientUnits="userSpaceOnUse">
<stop stop-color="#21C004"/>
<stop offset="1" stop-color="#21C004" stop-opacity="0"/>
</linearGradient>
</defs>
</svg>
