<svg width="352" height="17" viewBox="0 0 352 17" fill="none" xmlns="http://www.w3.org/2000/svg">
<line x1="4.37114e-08" y1="7.5" x2="144" y2="7.50001" stroke="#131F28"/>
<line x1="208" y1="7.5" x2="352" y2="7.50001" stroke="#131F28"/>
<path d="M175 7.46313L201 -1.67462e-06C201 -1.67462e-06 186.552 6.40814 175 10.0387L175 7.46313Z" fill="#604A25"/>
<path d="M175 7.46313L149 1.67462e-06C149 1.67462e-06 163.449 6.40815 175 10.0387L175 7.46313Z" fill="#604A25"/>
<path d="M175 9.62426L201 2.16113C201 2.16113 186.552 8.56928 175 12.1999L175 9.62426Z" fill="#7E6941"/>
<path d="M175 9.62426L149 2.16113C149 2.16113 163.449 8.56928 175 12.1999L175 9.62426Z" fill="#7E6941"/>
<path d="M175 13.9475L201 6.48437C201 6.48437 186.551 12.8925 175 16.5231L175 13.9475Z" fill="#DFC188"/>
<path d="M175 13.9475L149 6.48438C149 6.48438 163.448 12.8925 175 16.5231L175 13.9475Z" fill="#DFC188"/>
<path d="M175 11.7864L201 4.32324C201 4.32324 186.551 10.7314 175 14.362L175 11.7864Z" fill="#A98F5F"/>
<path d="M175 11.7864L149 4.32324C149 4.32324 163.448 10.7314 175 14.362L175 11.7864Z" fill="#A98F5F"/>
</svg>
