<svg width="16" height="13" viewBox="0 0 16 13" fill="none" xmlns="http://www.w3.org/2000/svg">
<path d="M8 8.22209L16 1.84766C16 1.84766 11.5543 7.321 8 10.422L8 8.22209Z" fill="#00448E"/>
<path d="M8 8.22209L9.53674e-07 1.84766C9.53674e-07 1.84766 4.44574 7.321 8 10.422L8 8.22209Z" fill="#00448E"/>
<path d="M8 6.37443L16 1.21047e-06C16 1.21047e-06 11.5543 5.47335 8 8.57432L8 6.37443Z" fill="#002D5E"/>
<path d="M8 6.37443L9.53674e-07 -1.21047e-06C9.53674e-07 -1.21047e-06 4.44574 5.47335 8 8.57432L8 6.37443Z" fill="#002D5E"/>
<path d="M8 10.0678L16 3.69336C16 3.69336 11.5543 9.16671 8 12.2677L8 10.0678Z" fill="#007AFF"/>
<path d="M8 10.0678L9.53674e-07 3.69336C9.53674e-07 3.69336 4.44574 9.16671 8 12.2677L8 10.0678Z" fill="#007AFF"/>
</svg>
