<svg width="74" height="74" viewBox="0 0 74 74" fill="none" stroke="#465F7B" xmlns="http://www.w3.org/2000/svg">
<path d="M13.358 13.2566L13.521 13.1761L13.5942 13.0098L15.0492 9.70659C20.1758 5.71971 26.6177 3.3457 33.6154 3.3457H40.3847C47.4572 3.3457 53.9621 5.77075 59.1149 9.83508L60.5342 12.9982L60.6177 13.1842L60.8074 13.2588L63.805 14.4376C68.0855 19.6589 70.6539 26.3363 70.6539 33.615V40.3842C70.6539 47.6476 68.0962 54.3123 63.8318 59.5287L60.183 61.166L59.997 61.2495L59.9224 61.4392L58.7349 64.4589C53.6439 68.3454 47.2845 70.6534 40.3846 70.6534H33.6154C26.9881 70.6534 20.8595 68.5241 15.8745 64.9121L14.2617 61.6461L14.1812 61.4831L14.0149 61.4099L10.4118 59.8228C6.00142 54.5639 3.34619 47.7847 3.34619 40.3841V33.6149C3.34619 26.6251 5.7148 20.1899 9.69348 15.0662L13.358 13.2566Z" fill="url(#paint0_linear_16_11166)" />
<defs>
<linearGradient id="paint0_linear_16_11166" x1="37" y1="2.8457" x2="37" y2="71.1534" gradientUnits="userSpaceOnUse">
<stop stop-color="#272F35"/>
<stop offset="1" stop-opacity="0"/>
</linearGradient>
</defs>
</svg>
