<svg width="75" height="19" viewBox="0 0 75 19" fill="none" xmlns="http://www.w3.org/2000/svg">
<g clip-path="url(#clip0_454_7995)">
<path d="M26.3817 8.99025C27.1855 9.23088 27.8856 9.47151 28.5399 9.84582C30.2585 10.8351 30.9879 12.405 30.5668 14.3175C30.2936 15.56 29.5508 16.4958 28.5265 17.2177C27.2473 18.1209 25.791 18.5545 24.2653 18.8052C23.2727 18.9672 22.2743 18.9931 21.2716 18.9923C14.3518 18.989 7.43229 18.9912 0.513035 18.999C0.123681 18.999 2.31683e-05 18.9238 0.000858693 18.506C0.0158981 12.4936 0.0158981 6.48117 0.000858693 0.468735C0.000858693 0.116144 0.0651944 -0.000831085 0.450371 4.43899e-06C24.3558 0.0100307 48.2607 0.0130956 72.1651 0.00919653C72.5411 0.00919653 72.9171 0.0259075 73.2931 0.0175523C73.4969 0.0133747 73.598 0.0618341 73.5955 0.293274C73.5863 1.22572 73.5888 2.15817 73.5955 3.09061C73.5955 3.28779 73.5203 3.35631 73.324 3.35965C72.7683 3.368 72.2136 3.40895 71.6579 3.40895C61.2022 3.41229 50.7464 3.41368 40.2907 3.41312C39.598 3.41312 39.7 3.3421 39.7 4.01804C39.6966 8.87522 39.698 13.7324 39.7041 18.5896C39.7041 18.8937 39.6657 19.0073 39.3056 19.0032C37.9412 18.9723 36.5768 18.9756 35.2115 19.0032C34.803 19.0107 34.6709 18.9196 34.6726 18.481C34.691 13.6349 34.6843 8.79473 34.6843 3.9512C34.6843 3.41897 34.6843 3.41563 34.137 3.41563C24.5864 3.41563 15.0356 3.41312 5.4844 3.40811C5.12764 3.40811 5.01233 3.48414 5.014 3.8643C5.02904 7.66427 5.03071 11.464 5.01902 15.2634C5.01902 15.5474 5.03322 15.7179 5.40921 15.7162C10.4909 15.6987 15.5725 15.7162 20.6533 15.6811C21.9484 15.6728 23.2435 15.509 24.4249 14.9049C25.6949 14.2566 26.0024 12.8813 25.1092 11.8912C24.7558 11.5002 24.2946 11.2712 23.7999 11.1058C22.9427 10.8184 22.0554 10.7674 21.1622 10.7674C17.1517 10.7674 13.1411 10.7616 9.13063 10.7766C8.72457 10.7766 8.5583 10.7014 8.59256 10.2552C8.63236 9.67104 8.63236 9.08482 8.59256 8.50063C8.56665 8.08287 8.68697 7.9567 9.11977 7.95837C12.9493 7.97508 16.7782 7.97731 20.6066 7.96506C21.4538 7.96506 22.3002 7.95587 23.1382 7.77456C24.5586 7.46792 25.1334 6.76692 25.0674 5.32647C25.0557 5.08417 25.151 5.04657 25.349 5.04741C26.8529 5.04741 28.3569 5.05911 29.8608 5.04323C30.1884 5.03905 30.1909 5.19697 30.1608 5.42924C30.0087 6.58895 29.4419 7.48686 28.4605 8.12297C27.8506 8.51901 27.1646 8.74293 26.3817 8.99025Z" fill="#6B6B6B"/>
<path d="M56.3779 18.991C52.6472 18.991 48.9175 18.9843 45.1868 19.0002C44.7916 19.0002 44.6922 18.8816 44.7056 18.5064C44.7315 17.7277 44.734 16.9473 44.7056 16.1669C44.6905 15.7851 44.8 15.679 45.1877 15.6798C50.3679 15.6926 55.5457 15.6954 60.7209 15.6882C62.5866 15.6882 64.4515 15.6965 66.3189 15.6882C67.2447 15.6815 68.1496 15.5395 68.9926 15.115C69.9835 14.6137 70.4389 13.7155 70.2158 12.7162C70.0713 12.0695 69.656 11.6409 69.092 11.3426C68.0978 10.8171 67.0132 10.7653 65.9229 10.7644C61.4946 10.7644 57.0705 10.7812 52.6439 10.7569C50.8534 10.7469 49.0929 10.4871 47.4553 9.70166C45.9238 8.96807 44.7373 7.91698 44.353 6.17073C44.1391 5.19985 44.1901 5.13803 45.1743 5.13803C46.4972 5.13803 47.8196 5.13803 49.1414 5.13803C49.3085 5.13803 49.4931 5.07536 49.5032 5.38451C49.5525 6.8425 50.2551 7.59864 51.7465 7.85264C52.3105 7.93815 52.8807 7.97588 53.451 7.96544C57.8634 7.96544 62.2758 7.95124 66.6882 7.97463C68.3751 7.98299 70.0504 8.1668 71.6404 8.78843C73.2304 9.41006 74.4753 10.4102 74.8613 12.1731C75.422 14.7332 74.3441 16.8078 71.8935 17.9483C70.3896 18.6459 68.7954 18.9509 67.1578 18.9676C63.565 19.0002 59.9723 18.9777 56.3845 18.9777L56.3779 18.991Z" fill="#6B6B6B"/>
</g>
<defs>
<clipPath id="clip0_454_7995">
<rect width="75" height="19.004" fill="white"/>
</clipPath>
</defs>
</svg>
