<svg width="626" height="626" viewBox="0 0 626 626" fill="none" xmlns="http://www.w3.org/2000/svg">
<circle cx="313" cy="313" r="313" fill="url(#paint0_radial_8_92)"/>
<g filter="url(#filter0_d_8_92)">
<g filter="url(#filter1_d_8_92)">
<path d="M245.971 317.714C251.323 319.434 255.985 321.154 260.341 323.83C271.784 330.901 276.64 342.124 273.837 355.795C272.017 364.676 267.072 371.365 260.252 376.525C251.734 382.981 242.038 386.081 231.88 387.873C225.271 389.031 218.623 389.216 211.947 389.211C165.873 389.187 119.801 389.203 73.7315 389.258C71.1391 389.258 70.3158 388.721 70.3213 385.735C70.4215 342.757 70.4215 299.779 70.3213 256.801C70.3213 254.281 70.7497 253.445 73.3143 253.451C232.482 253.522 391.647 253.544 550.807 253.516C553.311 253.516 555.814 253.636 558.317 253.576C559.675 253.546 560.348 253.893 560.331 255.547C560.27 262.212 560.287 268.878 560.331 275.543C560.331 276.952 559.831 277.442 558.523 277.466C554.824 277.526 551.13 277.818 547.43 277.818C477.814 277.842 408.197 277.852 338.58 277.848C333.968 277.848 334.647 277.341 334.647 282.172C334.625 316.892 334.634 351.612 334.675 386.332C334.675 388.506 334.419 389.318 332.021 389.288C322.937 389.067 313.852 389.091 304.762 389.288C302.042 389.342 301.163 388.691 301.174 385.555C301.296 350.915 301.252 316.317 301.252 281.694C301.252 277.89 301.252 277.866 297.608 277.866C234.018 277.866 170.426 277.848 106.832 277.812C104.457 277.812 103.689 278.356 103.7 281.073C103.8 308.236 103.811 335.397 103.733 362.555C103.733 364.586 103.828 365.804 106.331 365.793C140.166 365.667 174.001 365.793 207.83 365.542C216.453 365.482 225.076 364.311 232.942 359.993C241.398 355.359 243.445 345.528 237.498 338.451C235.145 335.656 232.074 334.019 228.781 332.837C223.073 330.782 217.165 330.418 211.218 330.418C184.515 330.418 157.812 330.376 131.109 330.483C128.406 330.483 127.299 329.946 127.527 326.757C127.792 322.581 127.792 318.39 127.527 314.214C127.354 311.228 128.155 310.326 131.037 310.338C156.535 310.458 182.029 310.474 207.519 310.386C213.16 310.386 218.795 310.32 224.375 309.024C233.832 306.833 237.66 301.822 237.22 291.525C237.142 289.793 237.777 289.524 239.095 289.53C249.109 289.53 259.122 289.614 269.136 289.5C271.317 289.471 271.333 290.599 271.133 292.26C270.12 300.549 266.347 306.968 259.812 311.515C255.751 314.346 251.184 315.946 245.971 317.714Z" fill="url(#paint1_linear_8_92)"/>
<path d="M445.692 389.193C420.853 389.193 396.019 389.145 371.18 389.259C368.549 389.259 367.887 388.411 367.976 385.729C368.148 380.163 368.165 374.584 367.976 369.006C367.876 366.277 368.604 365.518 371.186 365.524C405.677 365.616 440.152 365.636 474.609 365.584C487.032 365.584 499.449 365.644 511.882 365.584C518.046 365.536 524.071 364.521 529.684 361.487C536.282 357.903 539.314 351.483 537.829 344.34C536.866 339.717 534.101 336.653 530.346 334.521C523.726 330.764 516.505 330.394 509.245 330.388C479.761 330.388 450.304 330.508 420.831 330.334C408.909 330.263 397.188 328.405 386.284 322.791C376.087 317.547 368.187 310.034 365.628 297.552C364.204 290.612 364.543 290.17 371.097 290.17C379.905 290.17 388.71 290.17 397.51 290.17C398.623 290.17 399.852 289.722 399.919 291.932C400.247 302.353 404.926 307.759 414.856 309.574C418.611 310.185 422.408 310.455 426.205 310.38C455.584 310.38 484.962 310.279 514.341 310.446C525.573 310.506 536.727 311.82 547.314 316.263C557.9 320.707 566.189 327.856 568.76 340.458C572.492 358.757 565.316 373.587 548.999 381.739C538.986 386.726 528.371 388.906 517.468 389.026C493.546 389.259 469.625 389.097 445.737 389.097L445.692 389.193Z" fill="url(#paint2_linear_8_92)"/>
</g>
</g>
<defs>
<filter id="filter0_d_8_92" x="39" y="218" width="568.658" height="229" filterUnits="userSpaceOnUse" color-interpolation-filters="sRGB">
<feFlood flood-opacity="0" result="BackgroundImageFix"/>
<feColorMatrix in="SourceAlpha" type="matrix" values="0 0 0 0 0 0 0 0 0 0 0 0 0 0 0 0 0 0 127 0" result="hardAlpha"/>
<feOffset dy="4"/>
<feGaussianBlur stdDeviation="9"/>
<feComposite in2="hardAlpha" operator="out"/>
<feColorMatrix type="matrix" values="0 0 0 0 0 0 0 0 0 0 0 0 0 0 0 0 0 0 0.55 0"/>
<feBlend mode="normal" in2="BackgroundImageFix" result="effect1_dropShadow_8_92"/>
<feBlend mode="normal" in="SourceGraphic" in2="effect1_dropShadow_8_92" result="shape"/>
</filter>
<filter id="filter1_d_8_92" x="68.3213" y="253.451" width="503.405" height="139.841" filterUnits="userSpaceOnUse" color-interpolation-filters="sRGB">
<feFlood flood-opacity="0" result="BackgroundImageFix"/>
<feColorMatrix in="SourceAlpha" type="matrix" values="0 0 0 0 0 0 0 0 0 0 0 0 0 0 0 0 0 0 127 0" result="hardAlpha"/>
<feOffset dy="2"/>
<feGaussianBlur stdDeviation="1"/>
<feComposite in2="hardAlpha" operator="out"/>
<feColorMatrix type="matrix" values="0 0 0 0 0 0 0 0 0 0 0 0 0 0 0 0 0 0 0.25 0"/>
<feBlend mode="normal" in2="BackgroundImageFix" result="effect1_dropShadow_8_92"/>
<feBlend mode="normal" in="SourceGraphic" in2="effect1_dropShadow_8_92" result="shape"/>
</filter>
<radialGradient id="paint0_radial_8_92" cx="0" cy="0" r="1" gradientUnits="userSpaceOnUse" gradientTransform="translate(313 313) rotate(90) scale(425)">
<stop stop-color="#0A121C"/>
<stop offset="1" stop-color="#0A121B" stop-opacity="0"/>
</radialGradient>
<linearGradient id="paint1_linear_8_92" x1="219.765" y1="253.451" x2="415.214" y2="336.043" gradientUnits="userSpaceOnUse">
<stop stop-color="#ECC271"/>
<stop offset="1" stop-color="#7F642E"/>
</linearGradient>
<linearGradient id="paint2_linear_8_92" x1="219.765" y1="253.451" x2="415.214" y2="336.043" gradientUnits="userSpaceOnUse">
<stop stop-color="#ECC271"/>
<stop offset="1" stop-color="#7F642E"/>
</linearGradient>
</defs>
</svg>
