<svg width="47" height="51" viewBox="0 0 47 51" fill="none" xmlns="http://www.w3.org/2000/svg">
<path d="M0 0L23.5 7.22124L47 0V44.2301L23.5 51L0 44.2301V0Z" fill="url(#paint0_linear_2853_5141)"/>
<path d="M47 44.2301V0L24 7.22124V51L47 44.2301Z" fill="url(#paint1_linear_2853_5141)"/>
<path d="M5 8L23.5 13.5221L42 8V41.823L23.5 47L5 41.823V8Z" fill="url(#paint2_linear_2853_5141)"/>
<path d="M42 41.823V8L24 13.5221V47L42 41.823Z" fill="url(#paint3_linear_2853_5141)"/>
<g clip-path="url(#clip0_2853_5141)">
<g filter="url(#filter0_d_2853_5141)">
<path d="M18.6519 31.2202C19.0385 31.345 19.3753 31.4697 19.69 31.6638C20.5167 32.1768 20.8676 32.9908 20.665 33.9825C20.5336 34.6267 20.1763 35.112 19.6836 35.4863C19.0683 35.9546 18.3678 36.1794 17.6339 36.3094C17.1565 36.3935 16.6762 36.4069 16.1939 36.4065C12.8654 36.4047 9.53702 36.4059 6.20877 36.4099C6.02148 36.4099 5.962 36.3709 5.9624 36.1543C5.96964 33.0368 5.96964 29.9192 5.9624 26.8016C5.9624 26.6188 5.99335 26.5582 6.17863 26.5586C17.6775 26.5638 29.176 26.5654 40.6743 26.5634C40.8552 26.5634 41.036 26.572 41.2169 26.5677C41.3149 26.5655 41.3636 26.5907 41.3624 26.7107C41.3579 27.1942 41.3591 27.6776 41.3624 28.1611C41.3624 28.2634 41.3262 28.2989 41.2317 28.3006C40.9645 28.305 40.6976 28.3262 40.4304 28.3262C35.401 28.3279 30.3717 28.3286 25.3423 28.3284C25.0091 28.3284 25.0582 28.2915 25.0582 28.642C25.0566 31.1606 25.0572 33.6791 25.0602 36.1976C25.0602 36.3553 25.0417 36.4143 24.8685 36.4121C24.2122 36.3961 23.5559 36.3978 22.8992 36.4121C22.7027 36.416 22.6392 36.3688 22.64 36.1413C22.6488 33.6286 22.6456 31.1188 22.6456 28.6074C22.6456 28.3314 22.6456 28.3297 22.3823 28.3297C17.7884 28.3297 13.1943 28.3284 8.60006 28.3258C8.42845 28.3258 8.37299 28.3652 8.37379 28.5623C8.38102 30.5327 8.38183 32.5029 8.3762 34.4729C8.3762 34.6202 8.38303 34.7086 8.56389 34.7077C11.0082 34.6986 13.4526 34.7077 15.8965 34.6895C16.5195 34.6852 17.1424 34.6003 17.7107 34.2871C18.3216 33.9509 18.4695 33.2378 18.0398 32.7244C17.8698 32.5216 17.648 32.4029 17.4101 32.3172C16.9977 32.1681 16.5709 32.1417 16.1413 32.1417C14.2122 32.1417 12.2831 32.1387 10.3539 32.1465C10.1586 32.1465 10.0786 32.1075 10.0951 31.8761C10.1143 31.5732 10.1143 31.2692 10.0951 30.9663C10.0827 30.7497 10.1405 30.6843 10.3487 30.6852C12.1907 30.6938 14.0325 30.695 15.874 30.6886C16.2815 30.6886 16.6887 30.6839 17.0918 30.5898C17.775 30.4308 18.0515 30.0674 18.0197 29.3205C18.0141 29.1948 18.0599 29.1753 18.1552 29.1758C18.8786 29.1758 19.602 29.1818 20.3254 29.1736C20.483 29.1714 20.4842 29.2533 20.4697 29.3738C20.3966 29.9751 20.1239 30.4407 19.6518 30.7705C19.3585 30.9759 19.0285 31.092 18.6519 31.2202Z" fill="url(#paint4_linear_2853_5141)"/>
<path d="M33.0805 36.4052C31.286 36.4052 29.4919 36.4017 27.6975 36.4099C27.5074 36.4099 27.4595 36.3484 27.466 36.1539C27.4784 35.7501 27.4796 35.3455 27.466 34.9408C27.4587 34.7429 27.5114 34.6878 27.6979 34.6883C30.1896 34.6949 32.6802 34.6964 35.1695 34.6926C36.067 34.6926 36.964 34.6969 37.8622 34.6926C38.3075 34.6891 38.7428 34.6155 39.1483 34.3954C39.625 34.1355 39.844 33.6697 39.7367 33.1516C39.6672 32.8163 39.4674 32.594 39.1961 32.4393C38.7179 32.1668 38.1962 32.14 37.6717 32.1395C35.5417 32.1395 33.4136 32.1482 31.2844 32.1357C30.4231 32.1305 29.5763 31.9957 28.7886 31.5885C28.0519 31.2081 27.4812 30.6631 27.2964 29.7576C27.1935 29.2542 27.218 29.2221 27.6914 29.2221C28.3278 29.2221 28.9638 29.2221 29.5996 29.2221C29.68 29.2221 29.7688 29.1897 29.7737 29.35C29.7974 30.1059 30.1354 30.498 30.8527 30.6297C31.124 30.6741 31.3983 30.6936 31.6726 30.6882C33.795 30.6882 35.9175 30.6808 38.0399 30.693C38.8513 30.6973 39.6571 30.7926 40.4219 31.1149C41.1867 31.4373 41.7856 31.9559 41.9712 32.87C42.2409 34.1974 41.7225 35.2731 40.5437 35.8645C39.8203 36.2263 39.0535 36.3844 38.2658 36.393C36.5376 36.4099 34.8094 36.3982 33.0837 36.3982L33.0805 36.4052Z" fill="url(#paint5_linear_2853_5141)"/>
</g>
</g>
<path d="M42.3068 22.7458H41.743L41.1209 20.8665L40.1991 22.606C40.1364 22.72 40.0469 22.7825 39.9082 22.7825C39.774 22.7825 39.6755 22.72 39.6173 22.606L38.7 20.8665L38.0779 22.7458H37.5186L38.3554 20.2303C38.3957 20.1016 38.4852 20.0391 38.6373 20.0391C38.7581 20.0391 38.87 20.0942 38.9237 20.1972L39.9261 22.0875L40.9285 20.1972C40.9822 20.0942 41.0807 20.0391 41.2015 20.0391C41.3402 20.0391 41.4297 20.1016 41.4745 20.2303L42.3068 22.7458Z" fill="url(#paint6_linear_2853_5141)"/>
<path d="M37.2061 22.7478H34.2974V20.0742H37.2017V20.5413H34.8612V22.2808H37.2061V22.7478ZM37.0808 21.5857H35.2774V21.1922H37.0808V21.5857Z" fill="url(#paint7_linear_2853_5141)"/>
<path d="M32.688 22.7478H32.1196V20.5413H30.8845V20.0742H33.9231V20.5413H32.688V22.7478Z" fill="url(#paint8_linear_2853_5141)"/>
<path d="M29.5777 22.7478H27.1388V22.2808H29.5777C29.882 22.2808 30.0521 22.141 30.0521 21.9314C30.0521 21.7034 29.882 21.5857 29.5777 21.5857H28.0831C27.47 21.5857 27.0896 21.2658 27.0896 20.8244C27.0896 20.3942 27.4431 20.0742 28.092 20.0742H30.428V20.5413H28.092C27.8325 20.5413 27.6803 20.6663 27.6803 20.8686C27.6803 21.0708 27.8369 21.1922 28.0875 21.1922H29.5777C30.2355 21.1922 30.5891 21.446 30.5891 21.9645C30.5891 22.4132 30.2579 22.7478 29.5777 22.7478Z" fill="url(#paint9_linear_2853_5141)"/>
<path d="M25.3177 22.7478H24.7493V21.7328L23.022 20.0742H23.7872L25.0536 21.3062L26.3245 20.0742H27.0495L25.3177 21.7328V22.7478Z" fill="url(#paint10_linear_2853_5141)"/>
<path d="M21.7469 22.7478H19.308V22.2808H21.7469C22.0512 22.2808 22.2213 22.141 22.2213 21.9314C22.2213 21.7034 22.0512 21.5857 21.7469 21.5857H20.2522C19.6392 21.5857 19.2588 21.2658 19.2588 20.8244C19.2588 20.3942 19.6123 20.0742 20.2612 20.0742H22.5972V20.5413H20.2612C20.0016 20.5413 19.8495 20.6663 19.8495 20.8686C19.8495 21.0708 20.0061 21.1922 20.2567 21.1922H21.7469C22.4047 21.1922 22.7583 21.446 22.7583 21.9645C22.7583 22.4132 22.4271 22.7478 21.7469 22.7478Z" fill="url(#paint11_linear_2853_5141)"/>
<path d="M17.5057 22.7478H14.5969V20.0742H17.5012V20.5413H15.1608V22.2808H17.5057V22.7478ZM17.3804 21.5857H15.577V21.1922H17.3804V21.5857Z" fill="url(#paint12_linear_2853_5141)"/>
<path d="M14.2197 22.7458H13.6558L13.0338 20.8665L12.1119 22.606C12.0493 22.72 11.9598 22.7825 11.8211 22.7825C11.6868 22.7825 11.5884 22.72 11.5302 22.606L10.6128 20.8665L9.99077 22.7458H9.4314L10.2682 20.2303C10.3085 20.1016 10.398 20.0391 10.5502 20.0391C10.671 20.0391 10.7829 20.0942 10.8366 20.1972L11.839 22.0875L12.8414 20.1972C12.8951 20.0942 12.9935 20.0391 13.1143 20.0391C13.2531 20.0391 13.3426 20.1016 13.3873 20.2303L14.2197 22.7458Z" fill="url(#paint13_linear_2853_5141)"/>
<path d="M9.01291 22.7478H8.44458V20.0742H9.01291V22.7478Z" fill="url(#paint14_linear_2853_5141)"/>
<path d="M6.80343 22.7478H6.23511V20.5413H5V20.0742H8.03854V20.5413H6.80343V22.7478Z" fill="url(#paint15_linear_2853_5141)"/>
<path d="M42.364 18.8031H41.5938L41.045 18.046H39.3132L39.6152 17.6198H40.7379L39.9223 16.4945L38.261 18.8031H37.531L39.6354 15.9235C39.7109 15.8201 39.8066 15.7539 39.9475 15.7539C40.0885 15.7539 40.1791 15.8201 40.2546 15.9235L42.364 18.8031Z" fill="url(#paint16_linear_2853_5141)"/>
<path d="M37.1074 18.8047H36.2012L35.2749 17.9689H33.9055V17.5056H35.4309C35.8891 17.5056 36.1307 17.2904 36.1307 16.9015C36.1307 16.5126 35.8689 16.3223 35.4309 16.3223H33.4373V18.8047H32.803V15.7969H35.4309C36.2666 15.7969 36.76 16.223 36.76 16.8933C36.76 17.3897 36.4781 17.7414 36.0049 17.8903L37.1074 18.8047Z" fill="url(#paint17_linear_2853_5141)"/>
<path d="M31.7552 17.4766V15.7969H32.3795V17.4766C32.3795 18.4075 31.8207 18.8461 30.401 18.8461C28.9913 18.8461 28.4275 18.4075 28.4275 17.4766V15.7969H29.087V17.4766C29.087 18.0807 29.4142 18.3289 30.4211 18.3289C31.428 18.3289 31.7552 18.0807 31.7552 17.4766Z" fill="url(#paint18_linear_2853_5141)"/>
<path d="M26.2119 18.8047H25.3208C24.2989 18.8047 23.5437 18.1427 23.5437 17.2697C23.5437 16.3844 24.2989 15.7969 25.3208 15.7969H26.2119C27.2692 15.7969 28.0042 16.3968 28.0042 17.2697C28.0042 18.1427 27.2541 18.8047 26.2119 18.8047ZM25.3208 18.2792H26.2119C26.8865 18.2792 27.3648 17.8614 27.3648 17.2946C27.3648 16.7278 26.8865 16.3223 26.2119 16.3223H25.3208C24.6664 16.3223 24.1831 16.7236 24.1831 17.2946C24.1831 17.8614 24.6613 18.2792 25.3208 18.2792Z" fill="url(#paint19_linear_2853_5141)"/>
<path d="M23.1202 18.8047H22.1435L20.0945 17.4807C19.9838 17.4104 19.9636 17.3442 19.9636 17.2615C19.9636 17.1705 19.9938 17.1043 20.1247 17.0215L22.063 15.7969H23.0447L20.6483 17.2656L23.1202 18.8047ZM19.7673 18.8047H19.1279V15.7969H19.7673V18.8047Z" fill="url(#paint20_linear_2853_5141)"/>
<path d="M18.7044 18.8047H17.7278L15.6788 17.4807C15.568 17.4104 15.5479 17.3442 15.5479 17.2615C15.5479 17.1705 15.5781 17.1043 15.709 17.0215L17.6472 15.7969H18.6289L16.2325 17.2656L18.7044 18.8047ZM15.3515 18.8047H14.7122V15.7969H15.3515V18.8047Z" fill="url(#paint21_linear_2853_5141)"/>
<path d="M14.2886 18.8031H13.5183L12.9696 18.046H11.2377L11.5398 17.6198H12.6625L11.8469 16.4945L10.1856 18.8031H9.45557L11.5599 15.9235C11.6355 15.8201 11.7311 15.7539 11.8721 15.7539C12.013 15.7539 12.1037 15.8201 12.1792 15.9235L14.2886 18.8031Z" fill="url(#paint22_linear_2853_5141)"/>
<path d="M7.85416 18.8047H5.10034V15.7969H7.77864C8.49353 15.7969 8.96676 16.0617 8.96676 16.5747C8.96676 16.9553 8.73014 17.1456 8.45829 17.216C8.79056 17.3028 9.03221 17.5428 9.03221 17.8945C9.03221 18.4447 8.56904 18.8047 7.85416 18.8047ZM7.82899 17.4973H6.20288V17.0546H7.78368C8.14615 17.0546 8.31732 16.9512 8.31732 16.6905C8.31732 16.372 8.01022 16.3223 7.53699 16.3223H5.73971V18.2834H7.59237C8.0505 18.2834 8.38277 18.1799 8.38277 17.8862C8.38277 17.638 8.18643 17.4973 7.82899 17.4973Z" fill="url(#paint23_linear_2853_5141)"/>
<path d="M24 45.7172L43 42C43 42 32.4414 45.1917 24 47V45.7172Z" fill="url(#paint24_linear_2853_5141)"/>
<path d="M24 45.7172L5 42C5 42 15.5586 45.1917 24 47V45.7172Z" fill="url(#paint25_linear_2853_5141)"/>
<defs>
<filter id="filter0_d_2853_5141" x="3.9624" y="26.5586" width="40.0786" height="13.8555" filterUnits="userSpaceOnUse" color-interpolation-filters="sRGB">
<feFlood flood-opacity="0" result="BackgroundImageFix"/>
<feColorMatrix in="SourceAlpha" type="matrix" values="0 0 0 0 0 0 0 0 0 0 0 0 0 0 0 0 0 0 127 0" result="hardAlpha"/>
<feOffset dy="2"/>
<feGaussianBlur stdDeviation="1"/>
<feComposite in2="hardAlpha" operator="out"/>
<feColorMatrix type="matrix" values="0 0 0 0 0 0 0 0 0 0 0 0 0 0 0 0 0 0 0.25 0"/>
<feBlend mode="normal" in2="BackgroundImageFix" result="effect1_dropShadow_2853_5141"/>
<feBlend mode="normal" in="SourceGraphic" in2="effect1_dropShadow_2853_5141" result="shape"/>
</filter>
<linearGradient id="paint0_linear_2853_5141" x1="23.5" y1="0" x2="23.5" y2="51" gradientUnits="userSpaceOnUse">
<stop stop-color="#324559"/>
<stop offset="1" stop-color="#131D28"/>
</linearGradient>
<linearGradient id="paint1_linear_2853_5141" x1="35.5" y1="0" x2="35.5" y2="51" gradientUnits="userSpaceOnUse">
<stop stop-color="#111921"/>
<stop offset="1" stop-color="#0D1116"/>
</linearGradient>
<linearGradient id="paint2_linear_2853_5141" x1="9" y1="15" x2="23.5" y2="47" gradientUnits="userSpaceOnUse">
<stop stop-color="#405973"/>
<stop offset="1" stop-color="#131D28"/>
</linearGradient>
<linearGradient id="paint3_linear_2853_5141" x1="33" y1="8" x2="33" y2="47" gradientUnits="userSpaceOnUse">
<stop stop-color="#1D2C3D"/>
<stop offset="1" stop-color="#0D1116"/>
</linearGradient>
<linearGradient id="paint4_linear_2853_5141" x1="16.7587" y1="26.5586" x2="30.896" y2="32.5084" gradientUnits="userSpaceOnUse">
<stop stop-color="#ECC271"/>
<stop offset="1" stop-color="#7F642E"/>
</linearGradient>
<linearGradient id="paint5_linear_2853_5141" x1="16.7587" y1="26.5586" x2="30.896" y2="32.5084" gradientUnits="userSpaceOnUse">
<stop stop-color="#ECC271"/>
<stop offset="1" stop-color="#7F642E"/>
</linearGradient>
<linearGradient id="paint6_linear_2853_5141" x1="39.9484" y1="20.0391" x2="39.9484" y2="22.7825" gradientUnits="userSpaceOnUse">
<stop stop-color="#ECC271"/>
<stop offset="1" stop-color="#7F642E"/>
</linearGradient>
<linearGradient id="paint7_linear_2853_5141" x1="35.7735" y1="20.0742" x2="35.7735" y2="22.7478" gradientUnits="userSpaceOnUse">
<stop stop-color="#ECC271"/>
<stop offset="1" stop-color="#7F642E"/>
</linearGradient>
<linearGradient id="paint8_linear_2853_5141" x1="32.4265" y1="20.0742" x2="32.4265" y2="22.7478" gradientUnits="userSpaceOnUse">
<stop stop-color="#ECC271"/>
<stop offset="1" stop-color="#7F642E"/>
</linearGradient>
<linearGradient id="paint9_linear_2853_5141" x1="28.8654" y1="20.0742" x2="28.8654" y2="22.7478" gradientUnits="userSpaceOnUse">
<stop stop-color="#ECC271"/>
<stop offset="1" stop-color="#7F642E"/>
</linearGradient>
<linearGradient id="paint10_linear_2853_5141" x1="25.0658" y1="20.0742" x2="25.0658" y2="22.7478" gradientUnits="userSpaceOnUse">
<stop stop-color="#ECC271"/>
<stop offset="1" stop-color="#7F642E"/>
</linearGradient>
<linearGradient id="paint11_linear_2853_5141" x1="21.0346" y1="20.0742" x2="21.0346" y2="22.7478" gradientUnits="userSpaceOnUse">
<stop stop-color="#ECC271"/>
<stop offset="1" stop-color="#7F642E"/>
</linearGradient>
<linearGradient id="paint12_linear_2853_5141" x1="16.073" y1="20.0742" x2="16.073" y2="22.7478" gradientUnits="userSpaceOnUse">
<stop stop-color="#ECC271"/>
<stop offset="1" stop-color="#7F642E"/>
</linearGradient>
<linearGradient id="paint13_linear_2853_5141" x1="11.8613" y1="20.0391" x2="11.8613" y2="22.7825" gradientUnits="userSpaceOnUse">
<stop stop-color="#ECC271"/>
<stop offset="1" stop-color="#7F642E"/>
</linearGradient>
<linearGradient id="paint14_linear_2853_5141" x1="8.73299" y1="20.0742" x2="8.73298" y2="22.7478" gradientUnits="userSpaceOnUse">
<stop stop-color="#ECC271"/>
<stop offset="1" stop-color="#7F642E"/>
</linearGradient>
<linearGradient id="paint15_linear_2853_5141" x1="6.54195" y1="20.0742" x2="6.54195" y2="22.7478" gradientUnits="userSpaceOnUse">
<stop stop-color="#ECC271"/>
<stop offset="1" stop-color="#7F642E"/>
</linearGradient>
<linearGradient id="paint16_linear_2853_5141" x1="39.9836" y1="15.7539" x2="39.9836" y2="18.8031" gradientUnits="userSpaceOnUse">
<stop stop-color="#ECC271"/>
<stop offset="1" stop-color="#7F642E"/>
</linearGradient>
<linearGradient id="paint17_linear_2853_5141" x1="34.9873" y1="15.7969" x2="34.9873" y2="18.8047" gradientUnits="userSpaceOnUse">
<stop stop-color="#ECC271"/>
<stop offset="1" stop-color="#7F642E"/>
</linearGradient>
<linearGradient id="paint18_linear_2853_5141" x1="30.433" y1="15.7969" x2="30.433" y2="18.8461" gradientUnits="userSpaceOnUse">
<stop stop-color="#ECC271"/>
<stop offset="1" stop-color="#7F642E"/>
</linearGradient>
<linearGradient id="paint19_linear_2853_5141" x1="25.8072" y1="15.7969" x2="25.8072" y2="18.8047" gradientUnits="userSpaceOnUse">
<stop stop-color="#ECC271"/>
<stop offset="1" stop-color="#7F642E"/>
</linearGradient>
<linearGradient id="paint20_linear_2853_5141" x1="21.1539" y1="15.7969" x2="21.1539" y2="18.8047" gradientUnits="userSpaceOnUse">
<stop stop-color="#ECC271"/>
<stop offset="1" stop-color="#7F642E"/>
</linearGradient>
<linearGradient id="paint21_linear_2853_5141" x1="16.7381" y1="15.7969" x2="16.7381" y2="18.8047" gradientUnits="userSpaceOnUse">
<stop stop-color="#ECC271"/>
<stop offset="1" stop-color="#7F642E"/>
</linearGradient>
<linearGradient id="paint22_linear_2853_5141" x1="11.9081" y1="15.7539" x2="11.9081" y2="18.8031" gradientUnits="userSpaceOnUse">
<stop stop-color="#ECC271"/>
<stop offset="1" stop-color="#7F642E"/>
</linearGradient>
<linearGradient id="paint23_linear_2853_5141" x1="7.09562" y1="15.7969" x2="7.09562" y2="18.8047" gradientUnits="userSpaceOnUse">
<stop stop-color="#ECC271"/>
<stop offset="1" stop-color="#7F642E"/>
</linearGradient>
<linearGradient id="paint24_linear_2853_5141" x1="29.6856" y1="42" x2="37.0453" y2="45.2146" gradientUnits="userSpaceOnUse">
<stop stop-color="#ECC271"/>
<stop offset="1" stop-color="#7F642E"/>
</linearGradient>
<linearGradient id="paint25_linear_2853_5141" x1="18.3144" y1="42" x2="10.9547" y2="45.2146" gradientUnits="userSpaceOnUse">
<stop stop-color="#ECC271"/>
<stop offset="1" stop-color="#7F642E"/>
</linearGradient>
<clipPath id="clip0_2853_5141">
<rect width="38.481" height="13.4815" fill="white" transform="translate(5 25.5195)"/>
</clipPath>
</defs>
</svg>
