<?xml version="1.0" standalone="no"?>
<!DOCTYPE svg PUBLIC "-//W3C//DTD SVG 20010904//EN"
 "http://www.w3.org/TR/2001/REC-SVG-20010904/DTD/svg10.dtd">
<svg version="1.0" xmlns="http://www.w3.org/2000/svg"
 width="256.000000pt" height="256.000000pt" viewBox="0 0 256.000000 256.000000"
 preserveAspectRatio="xMidYMid meet">

<g transform="translate(0.000000,256.000000) scale(0.100000,-0.100000)"
fill="#797979" stroke="none">
<path d="M1680 1374 c-404 -405 -753 -749 -774 -765 -28 -21 -50 -29 -79 -29
-40 0 -47 6 -351 309 -203 202 -321 312 -339 316 -67 17 -127 -29 -127 -97 0
-42 1 -43 308 -351 169 -170 324 -320 345 -333 20 -14 65 -32 99 -40 51 -13
71 -14 122 -4 33 7 74 19 91 27 16 8 378 362 802 786 828 827 803 799 769 865
-20 39 -44 52 -93 52 -37 0 -56 -18 -773 -736z"/>
</g>
</svg>
