<svg width="52" height="52" viewBox="0 0 52 52" fill="none" xmlns="http://www.w3.org/2000/svg">
<path fill-rule="evenodd" clip-rule="evenodd" d="M0 23.4234C0 17.9833 1.85456 12.9764 4.96593 9.00031L7.83373 7.58411L8.97996 4.98188C12.9593 1.86089 17.974 0 23.4234 0H28.5766C34.0829 0 39.1454 1.89997 43.1444 5.08008L44.2629 7.57286L46.6367 8.50636C49.9869 12.5579 52 17.7556 52 23.4234V28.5766C52 34.2294 49.9976 39.4145 46.6634 43.4612L43.8041 44.7443L42.8614 47.1414C38.9078 50.1881 33.9538 52 28.5766 52H23.4234C18.2615 52 13.4895 50.3302 9.61821 47.5014L8.34887 44.931L5.52508 43.6872C2.07801 39.6083 0 34.3351 0 28.5766V23.4234Z" fill="url(#paint0_linear_878_18880)"/>
<circle cx="26" cy="25.9997" r="23.1386" fill="url(#paint1_linear_878_18880)"/>
<ellipse cx="26.0001" cy="25.9998" rx="19.9471" ry="19.9471" fill="url(#paint2_linear_878_18880)"/>
<path d="M23.5748 14.8054C21.0962 14.8054 18.8758 15.5367 16.9136 16.8425V19.5063C18.566 17.4693 20.8897 16.2157 23.5748 16.2157C28.532 16.2157 32.6113 20.8644 32.6113 26.5577C32.6113 32.2511 28.5836 36.8998 23.5748 36.8998C18.6176 36.8998 14.5383 32.2511 14.5383 26.5577C14.5383 26.1399 14.5383 25.6698 14.5899 25.3041V18.8273C12.7826 20.9166 11.6982 23.5805 11.6982 26.5577C11.6982 33.0868 17.0169 38.31 23.5748 38.31C30.1327 38.31 35.4514 33.0868 35.4514 26.5577C35.4514 20.0287 30.0811 14.8054 23.5748 14.8054Z" fill="url(#paint3_linear_878_18880)"/>
<path d="M28.6 38.3098C31.0786 38.3098 33.299 37.5786 35.2612 36.2727L35.2612 33.6089C33.6088 35.646 31.2851 36.8995 28.6 36.8995C23.6428 36.8995 19.5635 32.2508 19.5635 26.5575C19.5635 20.8642 23.5912 16.2155 28.6 16.2155C33.5572 16.2155 37.6365 20.8642 37.6365 26.5575C37.6365 26.9754 37.6365 27.4455 37.5849 27.8111L37.5849 34.2879C39.3922 32.1986 40.4766 29.5348 40.4766 26.5575C40.4766 20.0284 35.1579 14.8052 28.6 14.8052C22.0421 14.8052 16.7234 20.0284 16.7234 26.5575C16.7234 33.0866 22.0937 38.3098 28.6 38.3098Z" fill="url(#paint4_linear_878_18880)"/>
<path d="M25.3412 27.005H23.2136C23.0089 27.005 22.8407 26.9828 22.7091 26.9384C22.5775 26.8939 22.4751 26.8125 22.402 26.6941C22.3289 26.5756 22.2777 26.4054 22.2485 26.1833C22.2339 25.9612 22.2266 25.6799 22.2266 25.3394H25.3412V23.1852C25.3412 22.9779 25.3631 22.8076 25.407 22.6744C25.4509 22.5411 25.5313 22.4375 25.6483 22.3635C25.7653 22.2894 25.9334 22.245 26.1528 22.2302C26.3721 22.2006 26.6499 22.1858 26.9863 22.1858V25.3394H29.1358C29.5452 25.3394 29.8084 25.4504 29.9254 25.6725C30.057 25.8798 30.1228 26.3239 30.1228 27.005H26.9863V29.1814C26.9863 29.3887 26.9643 29.5589 26.9205 29.6922C26.8766 29.8254 26.7889 29.9291 26.6572 30.0031C26.5403 30.0771 26.3721 30.1289 26.1528 30.1586C25.948 30.1734 25.6775 30.1808 25.3412 30.1808V27.005Z" fill="url(#paint5_linear_878_18880)"/>
<defs>
<linearGradient id="paint0_linear_878_18880" x1="15.5606" y1="-3.61164e-05" x2="39.2329" y2="2.72092" gradientUnits="userSpaceOnUse">
<stop stop-color="#16202B"/>
<stop offset="1" stop-color="#101419"/>
</linearGradient>
<linearGradient id="paint1_linear_878_18880" x1="16.7094" y1="2.86104" x2="40.8748" y2="57.4021" gradientUnits="userSpaceOnUse">
<stop stop-color="#20303D"/>
<stop offset="1" stop-color="#0C131B"/>
</linearGradient>
<linearGradient id="paint2_linear_878_18880" x1="20.9085" y1="5.34125" x2="37.1704" y2="45.149" gradientUnits="userSpaceOnUse">
<stop stop-color="#0B0C10"/>
<stop offset="1" stop-color="#1D2835"/>
</linearGradient>
<linearGradient id="paint3_linear_878_18880" x1="23.5748" y1="14.8054" x2="23.5748" y2="38.31" gradientUnits="userSpaceOnUse">
<stop stop-color="#F0C673"/>
<stop offset="1" stop-color="#785E2A"/>
</linearGradient>
<linearGradient id="paint4_linear_878_18880" x1="28.6" y1="38.3098" x2="28.6" y2="14.8052" gradientUnits="userSpaceOnUse">
<stop stop-color="#F0C673"/>
<stop offset="1" stop-color="#785E2A"/>
</linearGradient>
<linearGradient id="paint5_linear_878_18880" x1="26.1747" y1="22.1858" x2="26.1747" y2="30.1808" gradientUnits="userSpaceOnUse">
<stop stop-color="#F0C673"/>
<stop offset="1" stop-color="#785E2A"/>
</linearGradient>
</defs>
</svg>
