<svg width="46" height="46" viewBox="0 0 46 46"  fill="none" xmlns="http://www.w3.org/2000/svg">
<path fill-rule="evenodd" clip-rule="evenodd" d="M0 20.7207C0 15.9083 1.64057 11.4791 4.39294 7.96181L6.92984 6.70902L7.94381 4.40705C11.464 1.64618 15.9001 0 20.7207 0H25.2793C30.1502 0 34.6287 1.68074 38.1662 4.49392L39.1557 6.69907L41.2555 7.52485C44.2192 11.1089 46 15.7068 46 20.7207V25.2793C46 30.2798 44.2286 34.8666 41.2792 38.4465L38.7498 39.5815L37.9159 41.702C34.4185 44.3971 30.0361 46 25.2793 46H20.7207C16.1544 46 11.933 44.5229 8.50841 42.0205L7.38554 39.7466L4.88757 38.6463C1.83824 35.0381 0 30.3734 0 25.2793V20.7207Z"/>
</svg>
