<svg width="62" height="62" viewBox="0 0 62 62" fill="none" xmlns="http://www.w3.org/2000/svg">
<path d="M9.56161 9.49091L9.72455 9.41045L9.7978 9.24415L11.1137 6.25663C15.7576 2.6483 21.5912 0.5 27.9279 0.5H34.0721C40.4767 0.5 46.3675 2.6946 51.0352 6.3732L52.3189 9.23388L52.4023 9.41988L52.5921 9.49449L55.3016 10.56C59.1757 15.2899 61.5 21.3368 61.5 27.9279V34.0721C61.5 40.6498 59.1852 46.6856 55.3252 51.4111L52.0233 52.8928L51.8373 52.9762L51.7627 53.1659L50.6895 55.8948C46.0782 59.4117 40.3197 61.5 34.0721 61.5H27.9279C21.9267 61.5 16.3769 59.5732 11.8616 56.3044L10.4027 53.3502L10.3223 53.1872L10.156 53.114L6.8954 51.6778C2.90318 46.9136 0.5 40.7741 0.5 34.0721V27.9279C0.5 21.598 2.64366 15.7701 6.24495 11.1288L9.56161 9.49091Z" stroke="#ECC271"/>
</svg>
