<svg width="53" height="52" viewBox="0 0 53 52" fill="none" xmlns="http://www.w3.org/2000/svg">
<path fill-rule="evenodd" clip-rule="evenodd" d="M0.330078 23.4539C0.330078 18.082 2.18376 13.1379 5.29368 9.21167L8.16013 7.81323L9.30582 5.24363C13.2833 2.16178 18.2957 0.324219 23.7425 0.324219H28.8932C34.397 0.324219 39.4571 2.20036 43.4542 5.3406L44.5722 7.80212L46.9449 8.72391C50.2935 12.7246 52.3056 17.8571 52.3056 23.4539V28.5425C52.3056 34.1244 50.3042 39.2444 46.9716 43.2405L44.1136 44.5074L43.1714 46.8745C39.2196 49.883 34.2679 51.6722 28.8932 51.6722H23.7425C18.583 51.6722 13.8133 50.0234 9.94377 47.23L8.67502 44.6918L5.85257 43.4636C2.40712 39.4359 0.330078 34.2288 0.330078 28.5425V23.4539Z" fill="url(#paint0_linear_2853_5109)"/>
<ellipse cx="26.3177" cy="26.0008" rx="23.1278" ry="22.8485" fill="url(#paint1_linear_2853_5109)"/>
<ellipse cx="25.9616" cy="25.9286" rx="20.4623" ry="20.1669" fill="url(#paint2_linear_2853_5109)"/>
<path d="M22.35 29.0729L31.0887 20.4368L26.6186 31.8681L36.2271 46.2137L33.1028 17.3597L5.00008 25.7651L22.35 29.0729Z" fill="url(#paint3_radial_2853_5109)" stroke="url(#paint4_linear_2853_5109)" stroke-linejoin="round"/>
<circle cx="22" cy="12" r="1" fill="url(#paint5_linear_2853_5109)"/>
<circle cx="21.5" cy="16.5" r="0.5" fill="url(#paint6_linear_2853_5109)"/>
<ellipse cx="18.5" cy="15.5" rx="0.5" ry="0.5" transform="rotate(90 18.5 15.5)" fill="url(#paint7_linear_2853_5109)"/>
<path fill-rule="evenodd" clip-rule="evenodd" d="M40.8235 22.2518C40.2609 22.5773 39.8823 23.1856 39.8823 23.8823C39.8823 24.5791 40.2609 25.1874 40.8235 25.5129C40.5466 25.673 40.2252 25.7647 39.8823 25.7647C38.8428 25.7647 38 24.9219 38 23.8823C38 22.8428 38.8428 22 39.8823 22C40.2252 22 40.5466 22.0917 40.8235 22.2518Z" fill="url(#paint8_linear_2853_5109)"/>
<defs>
<linearGradient id="paint0_linear_2853_5109" x1="15.9502" y1="2.36201" x2="37.0491" y2="50.6124" gradientUnits="userSpaceOnUse">
<stop stop-color="#1A232E"/>
<stop offset="1" stop-color="#0B131C"/>
</linearGradient>
<linearGradient id="paint1_linear_2853_5109" x1="17.0316" y1="3.1523" x2="40.699" y2="57.2225" gradientUnits="userSpaceOnUse">
<stop stop-color="#324655"/>
<stop offset="1" stop-color="#090C10"/>
</linearGradient>
<linearGradient id="paint2_linear_2853_5109" x1="20.7385" y1="5.0424" x2="37.009" y2="45.4545" gradientUnits="userSpaceOnUse">
<stop stop-color="#0B0C10"/>
<stop offset="1"/>
</linearGradient>
<radialGradient id="paint3_radial_2853_5109" cx="0" cy="0" r="1" gradientUnits="userSpaceOnUse" gradientTransform="translate(32.896 17.2243) rotate(123.206) scale(22.4274 50.3999)">
<stop stop-color="#485661"/>
<stop offset="1" stop-color="#090A0A"/>
</radialGradient>
<linearGradient id="paint4_linear_2853_5109" x1="32.896" y1="17.2243" x2="20.6096" y2="35.9868" gradientUnits="userSpaceOnUse">
<stop stop-color="#F0C673"/>
<stop offset="1" stop-color="#785E2A"/>
</linearGradient>
<linearGradient id="paint5_linear_2853_5109" x1="21.5985" y1="11" x2="22.509" y2="11.1047" gradientUnits="userSpaceOnUse">
<stop stop-color="#ECC271"/>
<stop offset="1" stop-color="#7F642E"/>
</linearGradient>
<linearGradient id="paint6_linear_2853_5109" x1="21.2992" y1="16" x2="21.7545" y2="16.0523" gradientUnits="userSpaceOnUse">
<stop stop-color="#ECC271"/>
<stop offset="1" stop-color="#7F642E"/>
</linearGradient>
<linearGradient id="paint7_linear_2853_5109" x1="18.2992" y1="15" x2="18.7545" y2="15.0523" gradientUnits="userSpaceOnUse">
<stop stop-color="#ECC271"/>
<stop offset="1" stop-color="#7F642E"/>
</linearGradient>
<linearGradient id="paint8_linear_2853_5109" x1="38.8449" y1="22" x2="40.1377" y2="22.1114" gradientUnits="userSpaceOnUse">
<stop stop-color="#ECC271"/>
<stop offset="1" stop-color="#7F642E"/>
</linearGradient>
</defs>
</svg>
