<svg width="24" height="23" viewBox="0 0 24 23" fill="none" xmlns="http://www.w3.org/2000/svg">
<path d="M11.5 10.2818L3.5 16.6562C3.5 16.6562 7.94574 11.1829 11.5 8.08193L11.5 10.2818Z" fill="#293543"/>
<path d="M11.5 10.2818L19.5 16.6563C19.5 16.6563 15.0543 11.1829 11.5 8.08193L11.5 10.2818Z" fill="#293543"/>
<path d="M11.5 12.1256L3.5 18.5C3.5 18.5 7.94574 13.0267 11.5 9.92568L11.5 12.1256Z" fill="#151D27"/>
<path d="M11.5 12.1256L19.5 18.5C19.5 18.5 15.0543 13.0267 11.5 9.92568L11.5 12.1256Z" fill="#151D27"/>
<path d="M11.5 8.43416L3.5 14.8086C3.5 14.8086 7.94574 9.33525 11.5 6.23428L11.5 8.43416Z" fill="#394A5C"/>
<path d="M11.5 8.43416L19.5 14.8086C19.5 14.8086 15.0543 9.33525 11.5 6.23428L11.5 8.43416Z" fill="#394A5C"/>
<line y1="2.5" x2="22" y2="2.5" stroke="#394A5C"/>
<line y1="0.5" x2="22" y2="0.5" stroke="#394A5C"/>
</svg>
