<svg width="24" height="23" viewBox="0 0 24 23" fill="none" xmlns="http://www.w3.org/2000/svg">
<path d="M12.5 12.7182L20.5 6.34375C20.5 6.34375 16.0543 11.8171 12.5 14.9181L12.5 12.7182Z" fill="#293543"/>
<path d="M12.5 12.7182L4.5 6.34375C4.5 6.34375 8.94574 11.8171 12.5 14.9181L12.5 12.7182Z" fill="#293543"/>
<path d="M12.5 10.8744L20.5 4.5C20.5 4.5 16.0543 9.97335 12.5 13.0743L12.5 10.8744Z" fill="#151D27"/>
<path d="M12.5 10.8744L4.5 4.5C4.5 4.5 8.94574 9.97335 12.5 13.0743L12.5 10.8744Z" fill="#151D27"/>
<path d="M12.5 14.5658L20.5 8.19141C20.5 8.19141 16.0543 13.6648 12.5 16.7657L12.5 14.5658Z" fill="#394A5C"/>
<path d="M12.5 14.5658L4.5 8.19141C4.5 8.19141 8.94574 13.6648 12.5 16.7657L12.5 14.5658Z" fill="#394A5C"/>
</svg>
