<svg width="158" height="155" viewBox="0 0 158 155" fill="none" xmlns="http://www.w3.org/2000/svg">
<g filter="url(#filter0_d_413_60082)">
<path fill-rule="evenodd" clip-rule="evenodd" d="M14 63.1812C14 48.782 18.8169 35.5078 26.9272 24.8821L34.6206 21.1844L38.0735 13.5548C48.8307 5.06597 62.4144 0 77.1812 0H80.6489C94.4362 0 107.192 4.41618 117.579 11.9112L121.683 20.8127L130.307 24.1135C138.777 34.8644 143.83 48.4327 143.83 63.1812C143.83 78.0343 138.705 91.6902 130.126 102.477L120.538 106.665L117.315 114.641C106.976 122.021 94.3195 126.362 80.6489 126.362H77.1812C63.8188 126.362 51.4254 122.214 41.2182 115.135L37.6744 108.151L29.5148 104.653C19.8515 93.5555 14 79.0517 14 63.1812Z" fill="url(#paint0_linear_413_60082)"/>
<rect x="20.1104" y="5.94635" width="117.611" height="114.469" rx="57.2347" fill="url(#paint1_linear_413_60082)"/>
<path d="M78.0324 118.201L78.064 112.834M21.6218 62.3219L27.1358 62.3526M129.933 62.9266L135.447 62.9573M78.6537 12.7828L78.6853 7.41601M37.9365 101.632L41.8579 97.8594M38.6451 23.2969L42.5217 27.1136M114.793 98.2665L118.67 102.083M114.963 27.518L118.885 23.7449M28.996 90.083L33.7871 87.4263M50.5115 14.5952L53.2412 19.2583M104.129 106.192L106.859 110.856M123.107 37.8975L127.898 35.2408M23.4314 76.6749L28.7657 75.3156M64.2876 9.17916L65.6842 14.371M91.7205 111.162L93.1171 116.354M128.213 49.9747L133.547 48.6154M63.3196 116.187L64.7773 111.012M23.6907 48.0021L29.0087 49.4209M128.151 75.8705L133.469 77.2892M91.9528 14.5177L93.4105 9.34179M49.6437 110.536L52.4281 105.904M29.4971 34.6914L34.2565 37.4015M122.987 87.9243L127.746 90.6343M104.337 19.5436L107.122 14.9113M55.8049 113.594L57.9915 108.668M26.3549 40.6882L31.4169 42.8163M125.788 82.4908L130.85 84.619M98.7548 16.8167L100.941 11.8899M25.5662 83.0777L30.6917 81.0987M57.709 11.257L59.7423 16.2456M97.649 109.248L99.6823 114.237M126.246 44.2045L131.372 42.2255M21.9812 69.0443L27.4583 68.4239M72.1276 7.7678L72.765 13.0987M84.6487 112.481L85.2861 117.812M129.568 56.8576L135.045 56.2372M22.2502 54.5861L27.7057 55.3665M86.9826 8.02963L86.1807 13.3394M71.2315 112.329L70.4297 117.639M129.412 69.9164L134.867 70.6968M43.0746 106.139L46.4968 101.93M34.0153 28.2979L38.339 31.6286M118.945 93.724L123.268 97.0548M110.296 23.4778L113.718 19.2696M32.7608 95.7298L37.1854 92.5271M44.7097 18.2594L48.0003 22.5659M109.347 102.85L112.637 107.157M119.673 32.8193L124.098 29.6165" stroke="url(#paint2_linear_413_60082)"/>
<path d="M74.4215 118.058L74.803 112.705M21.768 58.8077L27.2689 59.179M129.822 66.101L135.322 66.4723M81.9149 12.891L82.2964 7.53703M35.4867 99.0467L39.6462 95.5234M41.3014 20.9129L44.9214 24.9613M112.408 100.435L116.028 104.483M117.191 29.8392L121.35 26.316M27.3173 86.9683L32.2719 84.6129M53.7113 12.9616L56.1314 17.7839M101.249 107.686L103.669 112.508M124.641 40.7008L129.596 38.3454M22.6381 73.2436L28.0503 72.2165M67.8127 8.40736L68.868 13.675M88.5409 111.879L89.5962 117.147M128.949 53.069L134.361 52.0419M59.8697 115.14L61.6619 110.065M24.7664 44.6446L29.9811 46.389M127.199 78.9087L132.413 80.6531M95.0741 15.4439L96.8663 10.3684M46.5898 108.656L49.6706 104.205M31.4289 31.7194L36.0021 34.7179M121.259 90.6193L125.832 93.6178M107.106 21.2246L110.187 16.7736M52.5392 112.088L55.0425 107.306M27.902 37.5099L32.8151 39.9464M124.41 85.3698L129.323 87.8063M101.713 18.1584L104.216 13.3765M24.3511 79.7653L29.5953 78.1069M61.1119 10.0747L62.8159 15.1788M94.5823 110.335L96.2862 115.439M127.363 47.189L132.607 45.5305M21.6883 65.5388L27.1949 65.2579M75.7289 7.48308L76.0175 12.8426M81.3974 112.759L81.6859 118.118M129.853 60.0217L135.359 59.7409M22.8995 51.1263L28.2931 52.2421M90.5369 8.6619L89.3905 13.9115M68.0172 111.778L66.8707 117.028M128.846 73.0445L134.239 74.1604M40.3206 103.861L44.0103 99.8728M36.3549 25.6178L40.4527 29.2089M116.847 96.1577L120.945 99.7488M112.796 25.5189L116.486 21.5306M30.7062 92.8363L35.3308 89.9133M47.6823 16.2601L50.6855 20.7611M106.674 104.673L109.677 109.174M121.545 35.4207L126.17 32.4977" stroke="url(#paint3_linear_413_60082)"/>
<g filter="url(#filter1_i_413_60082)">
<ellipse cx="78" cy="62.5" rx="49" ry="48.5" fill="#141414"/>
</g>
<path d="M126.5 62.5C126.5 89.0048 104.791 110.5 78 110.5C51.2093 110.5 29.5 89.0048 29.5 62.5C29.5 35.9952 51.2093 14.5 78 14.5C104.791 14.5 126.5 35.9952 126.5 62.5Z" stroke="url(#paint4_linear_413_60082)"/>
<g clip-path="url(#clip0_413_60082)">
<path d="M66.1405 61.8814C66.9979 62.1727 67.7447 62.4639 68.4426 62.9169C70.2758 64.1142 71.0539 66.0143 70.6047 68.3289C70.3133 69.8326 69.521 70.9651 68.4283 71.8388C67.0639 72.932 65.5104 73.4568 63.8831 73.7601C62.8243 73.9563 61.7593 73.9877 60.6898 73.9866C53.3087 73.9826 45.9278 73.9853 38.5473 73.9947C38.132 73.9947 38.0001 73.9037 38.001 73.3981C38.017 66.1214 38.017 58.8448 38.001 51.5681C38.001 51.1414 38.0696 50.9998 38.4805 51.0008C63.9796 51.0129 89.4782 51.0166 114.976 51.0119C115.377 51.0119 115.778 51.0321 116.179 51.022C116.397 51.017 116.505 51.0756 116.502 51.3557C116.492 52.4842 116.495 53.6128 116.502 54.7413C116.502 54.9799 116.422 55.0628 116.212 55.0669C115.62 55.077 115.028 55.1265 114.435 55.1265C103.282 55.1306 92.1296 55.1323 80.9768 55.1316C80.2379 55.1316 80.3467 55.0456 80.3467 55.8637C80.3431 61.7422 80.3446 67.6207 80.3511 73.4992C80.3511 73.8673 80.3101 74.0049 79.926 73.9998C78.4706 73.9624 77.0153 73.9664 75.559 73.9998C75.1232 74.0089 74.9824 73.8987 74.9842 73.3678C75.0038 67.5028 74.9966 61.6448 74.9966 55.7828C74.9966 55.1387 74.9966 55.1346 74.4129 55.1346C64.2256 55.1346 54.038 55.1316 43.8501 55.1255C43.4695 55.1255 43.3466 55.2176 43.3483 55.6777C43.3644 60.2766 43.3662 64.8753 43.3537 69.4736C43.3537 69.8174 43.3688 70.0237 43.7699 70.0217C49.1903 70.0005 54.6108 70.0217 60.0303 69.9792C61.4117 69.9691 62.7931 69.7709 64.0533 69.0398C65.408 68.2551 65.7359 66.5906 64.7832 65.3924C64.4062 64.9191 63.9143 64.642 63.3867 64.4418C62.4723 64.094 61.5258 64.0323 60.5731 64.0323C56.2952 64.0323 52.0173 64.0252 47.7394 64.0434C47.3063 64.0434 47.1289 63.9524 47.1655 63.4124C47.2079 62.7054 47.2079 61.9959 47.1655 61.2889C47.1378 60.7833 47.2662 60.6306 47.7278 60.6326C51.8126 60.6528 55.8968 60.6555 59.9804 60.6407C60.8841 60.6407 61.7869 60.6296 62.6808 60.4101C64.1959 60.039 64.809 59.1906 64.7386 57.4473C64.7262 57.154 64.8278 57.1085 65.039 57.1095C66.6432 57.1095 68.2474 57.1237 69.8516 57.1045C70.201 57.0994 70.2036 57.2905 70.1716 57.5717C70.0094 58.9752 69.4048 60.0619 68.3579 60.8318C67.7073 61.3111 66.9756 61.5821 66.1405 61.8814Z" fill="#09090A"/>
<path d="M98.1366 73.9839C94.1573 73.9839 90.1788 73.9758 86.1995 73.995C85.7779 73.995 85.6719 73.8514 85.6861 73.3974C85.7138 72.4549 85.7164 71.5104 85.6861 70.566C85.6701 70.1038 85.7869 69.9754 86.2004 69.9764C91.726 69.9919 97.2489 69.9953 102.769 69.9865C104.759 69.9865 106.748 69.9967 108.74 69.9865C109.728 69.9785 110.693 69.8065 111.592 69.2929C112.649 68.6861 113.135 67.5991 112.897 66.3897C112.743 65.607 112.3 65.0882 111.698 64.7272C110.638 64.0912 109.481 64.0285 108.318 64.0275C103.594 64.0275 98.8754 64.0477 94.1537 64.0184C92.2438 64.0062 90.366 63.6918 88.6192 62.7412C86.9856 61.8534 85.72 60.5813 85.31 58.4678C85.0819 57.2928 85.1363 57.218 86.1861 57.218C87.5972 57.218 89.0077 57.218 90.4177 57.218C90.5959 57.218 90.7929 57.1421 90.8036 57.5163C90.8561 59.2809 91.6057 60.196 93.1965 60.5034C93.7981 60.6069 94.4063 60.6526 95.0146 60.6399C99.7212 60.6399 104.428 60.6227 109.134 60.651C110.934 60.6612 112.721 60.8836 114.417 61.636C116.113 62.3883 117.441 63.5987 117.852 65.7324C118.45 68.8307 117.301 71.3416 114.687 72.7219C113.082 73.5662 111.382 73.9353 109.635 73.9556C105.803 73.995 101.971 73.9677 98.1437 73.9677L98.1366 73.9839Z" fill="#09090A"/>
<path d="M73.9802 79.2861L78.468 73.3193H79.9978V79.2861H81.2229V80.5366H79.9978V82.4219H78.6965V80.5366H73.9802V79.2861ZM78.6965 79.2861V74.8936L75.3957 79.2861H78.6965ZM78.9377 113.185C79.2551 113.172 79.4815 113.088 79.6169 112.931C79.7523 112.77 79.82 112.525 79.82 112.195V111.598C79.82 111.251 79.7439 110.997 79.5915 110.836C79.4392 110.676 79.1916 110.595 78.8488 110.595H76.4812C76.1384 110.595 75.8908 110.676 75.7385 110.836C75.5861 110.997 75.51 111.251 75.51 111.598V112.195C75.51 112.525 75.5777 112.77 75.7131 112.931C75.8527 113.088 76.0791 113.172 76.3923 113.185H78.9377ZM78.9758 117.146C79.3228 117.146 79.5725 117.066 79.7248 116.905C79.8772 116.744 79.9533 116.492 79.9533 116.149V115.445C79.9533 115.098 79.8772 114.846 79.7248 114.689C79.5725 114.533 79.3228 114.455 78.9758 114.455H76.3542C76.0072 114.455 75.7575 114.533 75.6052 114.689C75.4528 114.846 75.3767 115.098 75.3767 115.445V116.149C75.3767 116.492 75.4528 116.744 75.6052 116.905C75.7575 117.066 76.0072 117.146 76.3542 117.146H78.9758ZM76.3161 118.422C74.8392 118.422 74.1008 117.686 74.1008 116.213V115.756C74.1008 115.189 74.2024 114.734 74.4055 114.391C74.6086 114.048 74.9027 113.82 75.2878 113.706C74.945 113.545 74.6827 113.299 74.5007 112.969C74.323 112.635 74.2341 112.212 74.2341 111.7V111.535C74.2341 110.058 74.9704 109.319 76.4431 109.319H78.8869C80.3596 109.319 81.0959 110.058 81.0959 111.535V111.7C81.0959 112.212 81.0049 112.635 80.823 112.969C80.6452 113.299 80.385 113.545 80.0422 113.706C80.4273 113.82 80.7214 114.048 80.9245 114.391C81.1276 114.734 81.2292 115.189 81.2292 115.756V116.213C81.2292 117.686 80.4929 118.422 79.0202 118.422H76.3161Z" fill="#09090A"/>
</g>
<path d="M74.3324 101.735C74.3324 101.549 74.3084 101.417 74.2604 101.339C74.2124 101.261 74.0954 101.222 73.9094 101.222H72.5864C72.6224 101.048 72.6764 100.919 72.7484 100.835C72.8264 100.745 72.9524 100.7 73.1264 100.7H74.1974C74.5094 100.7 74.7284 100.766 74.8544 100.898C74.9864 101.024 75.0524 101.243 75.0524 101.555V102.869C75.0524 103.115 75.0254 103.301 74.9714 103.427C74.9174 103.553 74.8034 103.637 74.6294 103.679V103.688C74.9594 103.772 75.1244 104.045 75.1244 104.507V106.145C75.1244 106.457 75.0584 106.679 74.9264 106.811C74.8004 106.937 74.5814 107 74.2694 107H73.1984C73.0244 107 72.8984 106.958 72.8204 106.874C72.7484 106.784 72.6944 106.652 72.6584 106.478H73.9814C74.1674 106.478 74.2844 106.439 74.3324 106.361C74.3804 106.283 74.4044 106.151 74.4044 105.965V104.507C74.4044 104.321 74.3654 104.189 74.2874 104.111C74.2094 104.033 74.0774 103.994 73.8914 103.994H73.1354V103.715C73.1354 103.619 73.1504 103.556 73.1804 103.526C73.2164 103.49 73.2824 103.472 73.3784 103.472H73.9454C74.1074 103.466 74.2124 103.424 74.2604 103.346C74.3084 103.262 74.3324 103.133 74.3324 102.959V101.735ZM77.0198 105.965C77.0198 106.151 77.0438 106.283 77.0918 106.361C77.1398 106.439 77.2568 106.478 77.4428 106.478H77.9378C78.1238 106.478 78.2408 106.439 78.2888 106.361C78.3368 106.283 78.3608 106.151 78.3608 105.965V101.735C78.3608 101.549 78.3368 101.417 78.2888 101.339C78.2408 101.261 78.1238 101.222 77.9378 101.222H77.4428C77.2568 101.222 77.1398 101.261 77.0918 101.339C77.0438 101.417 77.0198 101.549 77.0198 101.735V105.965ZM76.3448 101.555C76.3448 101.243 76.4078 101.024 76.5338 100.898C76.6658 100.766 76.8878 100.7 77.1998 100.7H78.1808C78.4928 100.7 78.7118 100.766 78.8378 100.898C78.9698 101.024 79.0358 101.243 79.0358 101.555V106.145C79.0358 106.457 78.9698 106.679 78.8378 106.811C78.7118 106.937 78.4928 107 78.1808 107H77.1998C76.8878 107 76.6658 106.937 76.5338 106.811C76.4078 106.679 76.3448 106.457 76.3448 106.145V101.555ZM83.2339 106.757C83.2339 106.853 83.2159 106.919 83.1799 106.955C83.1499 106.985 83.0869 107 82.9909 107H82.5139V103.463C82.5139 103.277 82.4899 103.145 82.4419 103.067C82.3939 102.989 82.2769 102.95 82.0909 102.95H80.9839V106.757C80.9839 106.853 80.9659 106.919 80.9299 106.955C80.8999 106.985 80.8369 107 80.7409 107H80.2639V100.943C80.2639 100.847 80.2789 100.784 80.3089 100.754C80.3449 100.718 80.4109 100.7 80.5069 100.7H80.9839V102.95C81.0199 102.776 81.0739 102.647 81.1459 102.563C81.2239 102.473 81.3499 102.428 81.5239 102.428H82.3789C82.6909 102.428 82.9099 102.494 83.0359 102.626C83.1679 102.752 83.2339 102.971 83.2339 103.283V106.757Z" fill="#00448E"/>
<path d="M75.246 22.139C75.246 22.313 75.231 22.457 75.201 22.571C75.177 22.679 75.132 22.766 75.066 22.832C75 22.892 74.913 22.934 74.805 22.958C74.697 22.982 74.559 22.994 74.391 22.994H73.869C73.779 22.994 73.704 23.003 73.644 23.021C73.59 23.033 73.548 23.057 73.518 23.093C73.488 23.129 73.467 23.18 73.455 23.246C73.449 23.312 73.446 23.399 73.446 23.507V24.965C73.446 25.151 73.47 25.283 73.518 25.361C73.566 25.439 73.683 25.478 73.869 25.478H75.246V25.757C75.246 25.853 75.228 25.919 75.192 25.955C75.162 25.985 75.099 26 75.003 26H73.581C73.269 26 73.047 25.937 72.915 25.811C72.789 25.679 72.726 25.457 72.726 25.145V23.327C72.726 23.153 72.738 23.012 72.762 22.904C72.792 22.79 72.84 22.703 72.906 22.643C72.972 22.577 73.059 22.532 73.167 22.508C73.275 22.484 73.413 22.472 73.581 22.472H74.103C74.193 22.472 74.265 22.466 74.319 22.454C74.379 22.436 74.424 22.409 74.454 22.373C74.484 22.337 74.502 22.286 74.508 22.22C74.52 22.154 74.526 22.067 74.526 21.959V20.735C74.526 20.549 74.502 20.417 74.454 20.339C74.406 20.261 74.289 20.222 74.103 20.222H72.78C72.816 20.048 72.87 19.919 72.942 19.835C73.02 19.745 73.146 19.7 73.32 19.7H74.391C74.703 19.7 74.922 19.766 75.048 19.898C75.18 20.024 75.246 20.243 75.246 20.555V22.139ZM79.0291 25.757C79.0291 25.853 79.0111 25.919 78.9751 25.955C78.9451 25.985 78.8821 26 78.7861 26H78.3091V22.994H77.0941C76.9261 22.994 76.7881 22.982 76.6801 22.958C76.5721 22.934 76.4851 22.892 76.4191 22.832C76.3531 22.766 76.3051 22.679 76.2751 22.571C76.2511 22.457 76.2391 22.313 76.2391 22.139V19.943C76.2391 19.847 76.2541 19.784 76.2841 19.754C76.3201 19.718 76.3861 19.7 76.4821 19.7H76.9591V21.959C76.9591 22.067 76.9621 22.154 76.9681 22.22C76.9801 22.286 77.0011 22.337 77.0311 22.373C77.0611 22.409 77.1031 22.436 77.1571 22.454C77.2171 22.466 77.2921 22.472 77.3821 22.472H78.3091V19.943C78.3091 19.847 78.3241 19.784 78.3541 19.754C78.3901 19.718 78.4561 19.7 78.5521 19.7H79.0291V25.757ZM83.2383 25.757C83.2383 25.853 83.2203 25.919 83.1843 25.955C83.1543 25.985 83.0913 26 82.9953 26H82.5183V22.463C82.5183 22.277 82.4943 22.145 82.4463 22.067C82.3983 21.989 82.2813 21.95 82.0953 21.95H80.9883V25.757C80.9883 25.853 80.9703 25.919 80.9343 25.955C80.9043 25.985 80.8413 26 80.7453 26H80.2683V19.943C80.2683 19.847 80.2833 19.784 80.3133 19.754C80.3493 19.718 80.4153 19.7 80.5113 19.7H80.9883V21.95C81.0243 21.776 81.0783 21.647 81.1503 21.563C81.2283 21.473 81.3543 21.428 81.5283 21.428H82.3833C82.6953 21.428 82.9143 21.494 83.0403 21.626C83.1723 21.752 83.2383 21.971 83.2383 22.283V25.757Z" fill="#CC0000"/>
</g>
<defs>
<filter id="filter0_d_413_60082" x="0" y="0" width="157.83" height="154.362" filterUnits="userSpaceOnUse" color-interpolation-filters="sRGB">
<feFlood flood-opacity="0" result="BackgroundImageFix"/>
<feColorMatrix in="SourceAlpha" type="matrix" values="0 0 0 0 0 0 0 0 0 0 0 0 0 0 0 0 0 0 127 0" result="hardAlpha"/>
<feOffset dy="14"/>
<feGaussianBlur stdDeviation="7"/>
<feComposite in2="hardAlpha" operator="out"/>
<feColorMatrix type="matrix" values="0 0 0 0 0 0 0 0 0 0 0 0 0 0 0 0 0 0 0.35 0"/>
<feBlend mode="normal" in2="BackgroundImageFix" result="effect1_dropShadow_413_60082"/>
<feBlend mode="normal" in="SourceGraphic" in2="effect1_dropShadow_413_60082" result="shape"/>
</filter>
<filter id="filter1_i_413_60082" x="29" y="14" width="98" height="101" filterUnits="userSpaceOnUse" color-interpolation-filters="sRGB">
<feFlood flood-opacity="0" result="BackgroundImageFix"/>
<feBlend mode="normal" in="SourceGraphic" in2="BackgroundImageFix" result="shape"/>
<feColorMatrix in="SourceAlpha" type="matrix" values="0 0 0 0 0 0 0 0 0 0 0 0 0 0 0 0 0 0 127 0" result="hardAlpha"/>
<feOffset dy="4"/>
<feGaussianBlur stdDeviation="2"/>
<feComposite in2="hardAlpha" operator="arithmetic" k2="-1" k3="1"/>
<feColorMatrix type="matrix" values="0 0 0 0 0 0 0 0 0 0 0 0 0 0 0 0 0 0 0.25 0"/>
<feBlend mode="normal" in2="shape" result="effect1_innerShadow_413_60082"/>
</filter>
<linearGradient id="paint0_linear_413_60082" x1="69" y1="-4.5" x2="101" y2="126" gradientUnits="userSpaceOnUse">
<stop stop-color="#304354"/>
<stop offset="1" stop-color="#11191F"/>
</linearGradient>
<linearGradient id="paint1_linear_413_60082" x1="78.9157" y1="5.94635" x2="78.9157" y2="120.416" gradientUnits="userSpaceOnUse">
<stop stop-color="#3E5466"/>
<stop offset="1" stop-color="#060A0D"/>
</linearGradient>
<linearGradient id="paint2_linear_413_60082" x1="78.8599" y1="7.41698" x2="78.2414" y2="118.202" gradientUnits="userSpaceOnUse">
<stop stop-color="#597488"/>
<stop offset="1" stop-color="#07090B"/>
</linearGradient>
<linearGradient id="paint3_linear_413_60082" x1="94.5001" y1="111.5" x2="56.5001" y2="16.4999" gradientUnits="userSpaceOnUse">
<stop stop-color="#030508"/>
<stop offset="1" stop-color="#192430" stop-opacity="0.56"/>
</linearGradient>
<linearGradient id="paint4_linear_413_60082" x1="78" y1="14" x2="78" y2="111" gradientUnits="userSpaceOnUse">
<stop stop-color="#F0C673"/>
<stop offset="1" stop-color="#F0C673" stop-opacity="0"/>
</linearGradient>
<clipPath id="clip0_413_60082">
<rect width="80" height="23" fill="white" transform="translate(38 51)"/>
</clipPath>
</defs>
</svg>
