<svg width="52" height="52" viewBox="0 0 52 52" fill="none" xmlns="http://www.w3.org/2000/svg">
<path fill-rule="evenodd" clip-rule="evenodd" d="M0 23.4234C0 17.9833 1.85456 12.9764 4.96593 9.00031L7.83373 7.58411L8.97996 4.98188C12.9593 1.86089 17.974 0 23.4234 0H28.5766C34.0829 0 39.1454 1.89997 43.1444 5.08008L44.2629 7.57286L46.6367 8.50636C49.9869 12.5579 52 17.7556 52 23.4234V28.5766C52 34.2294 49.9976 39.4145 46.6634 43.4612L43.8041 44.7443L42.8614 47.1414C38.9078 50.1881 33.9538 52 28.5766 52H23.4234C18.2615 52 13.4895 50.3302 9.61821 47.5014L8.34887 44.931L5.52508 43.6872C2.07801 39.6083 0 34.3351 0 28.5766V23.4234Z" fill="url(#paint0_linear_1007_34036)"/>
<ellipse cx="26" cy="25.9997" rx="23.1386" ry="23.1386" fill="url(#paint1_linear_1007_34036)"/>
<ellipse cx="26.0001" cy="26.0001" rx="19.9471" ry="19.9471" fill="url(#paint2_linear_1007_34036)"/>
<path d="M24.409 32.4746C24.2287 32.1898 24.3339 31.2486 24.409 30.8135C24.409 30.7344 24.2513 30.6 23.6203 30.6949C22.8317 30.8135 22.6063 31.7627 22.3809 32.1186C22.1556 32.4746 21.4796 32.4745 21.3669 33.1864C21.2542 33.8983 20.8035 33.661 20.4655 33.661C20.1275 33.661 20.2402 34.8474 19.7895 35.0847C19.4289 35.2746 19.2637 35.8757 19.2261 36.1525H18.7754C18.3999 36.2316 17.6262 36.5559 17.5361 37.2203C17.4459 37.8847 18.475 38.4463 19.0008 38.644C18.6252 38.565 17.8065 38.3118 17.5361 37.9322C17.2656 37.5525 17.198 37.1412 17.198 36.983L16.4093 37.9322L16.184 39.7118C16.1464 39.3164 16.0939 38.4068 16.184 37.9322C16.2741 37.4576 17.1229 36.7062 17.5361 36.3898L17.3107 36.0339L18.2121 36.1525C18.3623 35.9943 18.7754 35.6068 19.2261 35.322C19.6768 35.0373 19.8646 34.2542 19.9022 33.8983C19.8646 33.9774 19.6768 34.1593 19.2261 34.2542C18.7754 34.3491 18.2121 34.452 17.9867 34.4915L16.6347 35.4407L15.846 37.1017L16.184 35.6779C15.9587 35.757 15.3953 35.7254 14.9446 35.9152C14.4939 36.1051 13.9306 36.4689 13.7052 36.6271L13.4799 37.6949V36.6271C12.9165 36.5085 11.925 36.2949 12.4658 36.3898C13.0067 36.4847 13.5174 36.2712 13.7052 36.1525L13.4799 35.4407L13.9306 35.9152L15.0573 35.4407L14.4939 35.0847C14.8319 35.1638 15.5981 35.322 15.9587 35.322C16.3192 35.322 17.3107 34.531 17.6487 34.2542L17.0854 33.1864L18.2121 32.1186C18.0619 32.3164 17.7163 32.8542 17.5361 33.4237C17.3558 33.9932 18.2121 34.1356 18.6628 34.1356L19.4515 33.661L20.4655 33.1864C20.9162 32.7909 21.8626 31.9525 22.0429 31.7627C22.2232 31.5728 22.5687 30.7344 22.719 30.3389L22.2683 29.8644L20.8035 29.5084H19.2261C18.7754 29.5084 18.4374 29.9039 18.3248 30.1017L17.3107 30.8135C17.5361 30.4971 18.0318 29.8169 18.2121 29.6271C18.3924 29.4372 18.6628 29.3898 18.7754 29.3898L19.5641 29.1525C19.489 29.113 19.3163 28.9864 19.2261 28.7966C19.136 28.6068 18.5877 28.6384 18.3248 28.6779C17.9116 28.757 16.9502 28.9627 16.4093 29.1525C15.8685 29.3424 15.4329 29.2316 15.2826 29.1525L14.7193 30.1017V30.9322L14.4939 31.4068L14.7193 32.1186L14.0432 31.644L13.8179 32V31.644L14.2686 30.9322V30.1017L14.7193 29.3898C14.6441 29.3898 14.3587 29.4135 13.8179 29.5084C13.2771 29.6033 12.7663 30.2598 12.5785 30.5762L12.9165 31.2881L12.4658 30.8135L11.1138 32L12.2405 30.4576L11.6771 30.1017H12.4658L12.9165 29.7457L12.4658 29.1525H13.1419C13.5174 29.1525 14.3136 29.1051 14.4939 28.9152C14.6742 28.7254 14.9446 28.6779 15.0573 28.6779L13.9306 28.0847L12.9165 27.8474L11.4518 27.3729H12.2405H13.1419V26.7796L14.7193 26.1864C14.3812 26.3446 13.6601 26.7559 13.4799 27.1356C13.2996 27.5152 13.9306 27.6101 14.2686 27.6101L14.9446 28.0847C15.2075 28.2429 15.8685 28.5356 16.4093 28.4407C17.0854 28.322 17.3107 28.0847 17.7614 27.8474C18.1219 27.6576 18.8881 28.0056 19.2261 28.2034V27.3729C19.2261 26.8983 19.0008 26.8983 19.2261 26.661C19.4064 26.4711 19.9773 26.3446 20.2402 26.305L20.9162 26.8983L21.3669 28.0847L20.6909 27.6101C20.6909 27.4519 20.6007 27.0406 20.2402 26.661C19.7895 26.1864 19.5641 26.8983 19.7895 27.6101C20.0148 28.322 20.4655 28.7966 21.1415 28.7966C21.8176 28.7966 22.8316 29.6271 23.5077 29.3898C24.1837 29.1525 24.2964 28.7966 24.6344 28.9152C24.9048 29.0101 25.4231 29.2712 25.6484 29.3898C25.6484 28.9548 25.6033 28.0847 25.4231 28.0847C25.2428 28.0847 24.8973 27.7683 24.747 27.6101H23.395C22.6063 27.6101 21.9303 26.305 21.4796 25.4745C21.119 24.8101 20.2777 24.7231 19.9022 24.7627C19.6017 24.9209 19.0459 25.1661 19.2261 24.8813C19.4515 24.5254 19.4515 24.2881 19.4515 24.0508C19.4515 23.8135 17.7614 24.2881 17.3107 24.0508C16.9502 23.861 16.3342 23.9717 16.0713 24.0508L15.1699 23.8135C15.0573 24.0113 14.6517 24.5016 13.9306 24.8813C13.2095 25.261 12.3532 24.9604 12.0151 24.7627C12.5034 24.8022 13.57 24.8339 13.9306 24.644C14.2911 24.4542 14.4564 23.9322 14.4939 23.6949L13.9306 23.2203C14.231 23.2598 14.8995 23.3389 15.1699 23.3389C15.508 23.3389 15.9587 23.5762 16.184 23.4576C16.4093 23.3389 17.0854 23.3389 17.3107 23.2203C17.5361 23.1016 17.3107 22.7457 17.0854 22.3898C16.86 22.0339 16.7474 21.6779 16.6347 21.322C16.5445 21.0372 16.2967 20.887 16.184 20.8474L15.1699 20.9661L16.0713 20.3728L15.508 18.8305L16.86 20.9661L17.3107 20.3728L17.0854 21.2033C17.198 21.4406 17.491 22.0338 17.7614 22.5084C18.0318 22.983 18.3248 23.2598 18.4374 23.3389H19.4515L19.5641 22.7457L19.2261 21.2033C19.4515 21.5988 19.9022 22.5322 19.9022 23.1016C19.9022 23.8135 20.1275 24.0508 20.8035 24.4067C21.3444 24.6915 21.7049 25.0791 21.8176 25.2372C21.8927 25.2372 22.0429 25.1661 22.0429 24.8813C22.0429 24.5254 21.8176 24.0508 22.0429 24.2881C22.2683 24.5254 22.2683 24.8813 22.3809 25.5932C22.4936 26.305 23.5077 26.7796 24.071 26.661C24.5217 26.5661 25.3104 26.7005 25.6484 26.7796C25.6484 26.661 25.6033 26.305 25.4231 25.8305C25.1977 25.2372 24.409 25.2372 23.9583 24.8813C23.5077 24.5254 23.2823 23.8135 23.057 22.8644C22.8767 22.105 22.4561 21.9152 22.2683 21.9152L21.8176 21.2033L20.9162 20.7288L20.8035 19.8983L21.1415 20.4915L21.8176 20.9661L22.6063 21.5593L21.9303 19.661L21.8176 19.0677H21.1415L20.2402 17.8813L19.2261 17.644L19.9022 17.5254L19.7895 16.6949L19.0008 15.5084L19.5641 16.1016L20.1275 15.0338L19.9022 16.2203L20.2402 17.2881L20.6909 17.5254L20.8035 16.6949C20.8786 16.8926 21.0063 17.383 20.9162 17.7627C20.8261 18.1423 21.2542 18.5536 21.4796 18.7118L21.8176 18.5932L22.2683 18.8305C22.3809 18.5141 22.6063 17.8338 22.6063 17.644C22.6063 17.4542 23.057 16.774 23.2823 16.4576L23.057 15.7457L23.2823 14.7966V15.7457C23.2823 16.1254 23.5828 16.2203 23.733 16.2203L24.071 15.8643L24.1837 15.1525L24.071 14.2033L24.747 13.6101L24.2964 14.2033L24.409 14.6779L24.5217 15.7457L25.7611 15.5084C25.3855 15.7062 24.5217 16.1491 24.071 16.3389C23.6203 16.5288 23.2072 17.2881 23.057 17.644L23.733 17.7627C23.5828 17.8418 23.1696 18.1423 22.719 18.7118C22.2683 19.2813 22.4561 20.1355 22.6063 20.4915L22.8316 20.0169L23.395 19.305L24.747 19.0677C24.4841 19.1864 23.8682 19.4711 23.5077 19.661C23.057 19.8983 23.057 20.4915 23.057 20.7288C23.057 20.9186 23.2072 21.757 23.2823 22.1525L23.9583 21.5593L23.5077 22.5084C23.5828 22.7062 23.7781 23.1728 23.9583 23.4576C24.1837 23.8135 24.9724 24.7627 25.4231 24.8813C25.7836 24.9762 26.2493 25.9491 26.4371 26.4237C26.7 26.305 27.2258 25.9491 27.2258 25.4745C27.2258 25 27.6765 24.7231 27.7892 24.644L27.6765 23.1016L26.4371 21.9152C26.8502 22.1129 27.6765 22.4847 27.6765 22.3898C27.6765 22.2711 27.7892 20.7288 27.6765 20.3728C27.5864 20.0881 27.7141 19.6214 27.7892 19.4237L27.4512 18.2372L28.0145 18.8305L28.5779 17.8813L28.3525 17.0508L28.9159 17.644L29.4793 16.4576V15.2711L29.9299 16.2203L31.0567 15.2711C30.7562 15.6666 30.1102 16.505 29.9299 16.6949C29.7046 16.9321 29.4793 17.4067 29.1412 17.7627C28.8708 18.0474 28.4277 18.9886 28.2399 19.4237V20.7288L29.3666 19.8983C29.1788 20.096 28.7131 20.6101 28.3525 21.0847C27.9018 21.6779 28.0145 22.1525 28.2399 22.5084C28.4652 22.8644 28.1272 23.3389 28.3525 23.8135C28.5328 24.1932 28.4277 24.6045 28.3525 24.7627L29.1412 23.6949L29.4793 22.8644L29.7046 22.3898V23.2203C29.9675 23.0621 30.5384 22.6745 30.7186 22.3898C30.8989 22.105 31.0191 21.7966 31.0567 21.6779L31.62 20.0169L31.5073 20.9661C31.62 21.0056 31.8904 21.061 32.0707 20.9661C32.251 20.8711 32.7467 19.8983 32.9721 19.4237C33.1974 19.305 33.6706 18.9728 33.7608 18.5932C33.8509 18.2135 34.0237 18.1977 34.0988 18.2372L34.2115 17.0508L34.4368 17.7627L35.7889 17.0508L34.7748 17.8813L34.2115 18.4745H35.4509L34.7748 18.5932C34.5119 18.8305 33.8509 19.3762 33.3101 19.661C32.7693 19.9457 32.6341 20.8079 32.6341 21.2033H33.4228C33.8734 21.2033 34.1363 21.0451 34.2115 20.9661C34.4368 20.6101 35.0227 19.922 35.5635 20.0169C36.1043 20.1118 36.6902 20.531 36.9156 20.7288L38.155 21.0847C37.7418 21.1638 36.893 21.2745 36.8029 21.0847C36.7128 20.8949 36.3147 20.7683 36.1269 20.7288V22.1525L35.7889 20.7288C35.7138 20.6497 35.4734 20.4915 35.1128 20.4915C34.6621 20.4915 34.5495 21.322 34.0988 21.5593C33.6481 21.7966 32.8594 21.5593 32.1834 21.6779C31.5073 21.7966 31.8454 22.2711 32.1834 22.1525C32.5214 22.0338 33.1974 22.3898 33.5354 22.5084C33.8058 22.6033 34.1739 23.3389 34.3241 23.6949L33.7608 23.1016C33.573 23.0226 33.1523 22.8406 32.9721 22.7457C32.7467 22.6271 32.4087 22.5084 32.0707 22.5084C31.7327 22.5084 31.1693 22.6271 31.0567 23.1016C30.9665 23.4813 30.5684 23.7344 30.3806 23.8135C30.1928 23.8926 29.7497 24.1694 29.4793 24.644C29.1412 25.2372 29.1412 25.1186 28.8032 25.5932C28.4652 26.0678 29.1412 25.8305 29.4793 25.8305C29.7497 25.8305 30.4933 25.0395 30.8313 24.644C30.7186 24.8418 30.4257 25.2847 30.1553 25.4745C29.8173 25.7118 29.3666 26.4237 28.9159 26.4237C28.4652 26.4237 28.5779 26.5423 27.7892 26.8983C27.1582 27.183 27.3009 27.9661 27.4512 28.4407C27.7516 28.2429 28.4201 27.7525 28.6905 27.3729C29.0286 26.8983 29.5919 27.2542 29.8173 27.2542C30.0426 27.2542 30.4933 26.8983 30.8313 26.8983C31.1693 26.8983 31.8454 26.661 32.1834 26.661H33.7608C34.2115 26.661 34.5495 26.4237 35.1128 26.1864C35.6762 25.9491 36.3522 25.8305 36.9156 25.8305C37.4789 25.8305 37.9296 25.5932 38.3803 25.2372C38.7409 24.9525 38.9061 24.3276 38.9437 24.0508L39.0563 24.7627L40.9718 23.8135C40.7464 23.9322 40.2281 24.2169 39.9577 24.4067C39.6873 24.5966 38.7934 25.435 38.3803 25.8305L39.9577 26.4237C39.6573 26.3841 38.9887 26.305 38.7183 26.305C38.3803 26.305 37.9296 25.9491 37.5916 26.0678C37.2536 26.1864 36.1269 26.305 35.7889 26.305C35.4509 26.305 35.3382 26.305 34.8875 26.8983C34.6684 27.1866 34.9651 27.5771 35.358 27.9102C35.4655 27.9782 35.542 28.0347 35.5596 28.0705C35.758 28.2191 35.9626 28.3484 36.1269 28.4407C35.9391 28.3616 35.5635 28.1796 35.5635 28.0847C35.5635 28.0804 35.5622 28.0757 35.5596 28.0705C35.4911 28.0191 35.4232 27.9654 35.358 27.9102C35.0494 27.7147 34.4852 27.4238 34.3241 27.2542C34.0988 27.0169 34.0988 27.2542 33.5354 27.1356C33.0847 27.0406 32.7467 27.1751 32.6341 27.2542C32.9721 27.6497 33.5805 28.3932 33.3101 28.2034C32.9721 27.9661 32.296 27.3729 31.5073 27.2542C30.8764 27.1593 30.3431 27.452 30.1553 27.6101C29.8924 27.6497 29.3215 27.7525 29.1412 27.8474C28.961 27.9423 29.7422 28.2825 30.1553 28.4407V29.1525L29.8173 30.1017V28.7966C29.8173 28.5118 29.0661 28.4407 28.6905 28.4407C28.3901 28.5593 27.7216 29.0101 27.4512 29.8644C27.361 30.339 27.7892 30.2203 28.0145 30.1017C28.0145 30.2203 28.0821 30.5525 28.3525 30.9322C28.6905 31.4068 29.3666 32 29.8173 32C30.1778 32 31.0942 31.5254 31.5073 31.2881L31.8454 29.8644V30.4576V31.2881L32.9721 30.8135L34.3241 29.8644L33.6481 30.8135L34.5495 30.5762V30.8135L35.0002 30.9322L35.7889 30.4576C36.4273 30.4972 37.7944 30.5288 38.155 30.339C38.5155 30.1491 38.9061 30.0226 39.0563 30.1017L39.9076 29.5638C40.0078 29.49 40.1079 29.4294 40.1831 29.3898L39.9076 29.5638C39.7073 29.7115 39.507 29.9118 39.507 30.1017C39.507 30.3864 40.9342 30.3785 41.6478 30.339C41.5351 30.4181 41.107 30.5762 40.2957 30.5762H39.507L40.5211 32.1186C40.3708 31.9604 40.0479 31.5966 39.9577 31.4068C39.8676 31.2169 39.3192 30.774 39.0563 30.5762C38.7559 30.5367 38.1099 30.5051 37.9296 30.6949C37.7494 30.8847 37.4789 30.8531 37.3663 30.8135L36.3522 30.6949C36.1269 30.7344 35.6537 30.861 35.5635 31.0508C35.4734 31.2406 36.4273 31.6836 36.9156 31.8813L37.7043 33.1864C37.5165 33.0678 37.0959 32.7593 36.9156 32.4746C36.7353 32.1898 36.1644 31.8022 35.9015 31.644H35.3382C35.1879 31.5649 34.6621 31.383 33.7608 31.2881C32.6341 31.1695 31.958 31.4067 31.62 31.644C31.3496 31.8339 31.8829 31.9604 32.1834 32L33.3101 32.4746C32.9721 32.4746 32.2059 32.4034 31.8454 32.1186C31.3947 31.7627 30.8313 32.1186 30.3806 32.4746C29.9299 32.8305 30.3806 33.5423 30.4933 33.8983C30.5834 34.183 31.7327 34.6497 32.296 34.8474L33.1974 34.6101L32.7467 35.0847L33.6481 35.322L34.5495 36.0339L34.8875 37.2203C34.7373 36.9435 34.3692 36.3186 34.0988 36.0339C33.8284 35.7491 33.6857 35.8361 33.6481 35.9152V36.3898L33.1974 35.6779C33.0472 35.5988 32.7242 35.4169 32.6341 35.322C32.5439 35.2271 31.62 34.9661 31.1693 34.8474L31.5073 36.6271L31.1693 36.0339L30.8313 36.6271L30.4933 34.6101L30.1553 34.4915L29.8173 34.8474V33.4237C29.8173 32.8305 29.0286 32.5932 28.6905 32.4746C28.3525 32.3559 27.7892 31.4068 27.2258 31.4068C26.6625 31.4068 26.4371 31.7627 26.4371 32.1186C26.4371 32.4746 26.3244 32.7118 26.4371 33.661C26.5498 34.6101 27.5638 35.5593 28.0145 36.6271C28.4652 37.6949 28.1272 38.2881 28.0145 38.8813C27.9018 39.4746 28.4652 40.0678 28.6905 40.3051C28.9159 40.5424 28.9159 41.3729 29.1412 41.9661C29.3666 42.5593 30.4933 42.678 30.8313 42.678C31.1017 42.678 31.3947 42.8361 31.5073 42.9152C31.9205 42.9548 32.8369 43.0339 33.1974 43.0339C33.6481 43.0339 33.8734 43.2712 34.4368 43.2712C34.8875 43.2712 35.2255 43.3503 35.3382 43.3898C35.1128 43.5085 34.6171 43.7458 34.4368 43.7458C34.2565 43.7458 33.3852 43.5876 32.9721 43.5085H31.8454C31.7552 43.5085 31.1318 43.4294 30.8313 43.3898H30.1553C30.2304 43.4689 30.4708 43.6508 30.8313 43.7458C31.282 43.8644 31.62 44.2203 31.958 44.339C32.2284 44.4339 32.5965 44.8531 32.7467 45.0508L32.296 44.8136L31.1693 44.6949C30.9064 44.5763 30.313 44.2678 30.0426 43.983C29.7722 43.6983 29.4793 43.8644 29.3666 43.983C29.1412 43.983 28.6455 43.8881 28.4652 43.5085C28.2399 43.0339 27.9018 43.0339 27.7892 43.0339C27.699 43.0339 27.0756 43.1921 26.7751 43.2712V43.7458C26.7751 43.8644 27.7892 43.983 27.9018 44.339C28.0145 44.6949 28.4652 44.5763 28.6905 44.6949C28.8708 44.7898 29.3666 45.3672 29.5919 45.6441L28.9159 45.5254L28.4652 45.1695H27.7892C27.6765 45.0508 27.4061 44.7898 27.2258 44.6949C27.0455 44.6 26.8502 44.5763 26.7751 44.5763V45.2881L27.1131 46L26.3244 45.6441V45.2881L26.2118 44.8136L25.9864 44.2203H25.4231L24.747 44.5763L24.409 45.1695C24.3339 45.4859 24.1611 46.0237 24.071 45.6441C23.9809 45.2644 24.1086 44.774 24.1837 44.5763L24.8597 43.983L24.747 43.7458L24.409 43.983C24.0334 44.1412 23.1922 44.4813 22.8316 44.5763C22.4711 44.6712 22.3809 45.0113 22.3809 45.1695L21.7049 45.5254C21.78 45.3672 21.9753 45.0034 22.1556 44.8136C22.3809 44.5763 22.8316 43.983 23.057 43.983C23.2372 43.983 23.4325 43.7458 23.5077 43.6271L24.1837 43.0339L24.807 42.4869C24.699 42.5692 24.4826 42.678 24.1837 42.678C23.733 42.678 23.1696 43.2712 23.057 43.2712C22.9443 43.2712 22.3809 43.5085 21.9303 43.6271C21.5697 43.722 21.2542 44.0621 21.1415 44.2203C20.4655 44.339 19.2712 44.5051 19.9022 44.2203C20.6909 43.8644 20.1275 43.6271 20.6909 43.5085C21.2542 43.3898 21.7049 42.9152 21.4796 42.9152C21.2542 42.9152 20.8035 43.1525 20.2402 43.2712C19.7895 43.3661 19.5266 43.4689 19.4515 43.5085L18.4374 43.6271L17.4234 43.5085C17.8365 43.4689 18.7078 43.2949 18.8881 42.9152C19.1135 42.4407 19.1135 42.678 19.9022 42.678C20.6909 42.678 20.9162 42.2034 21.1415 42.2034H22.3809C22.6063 42.2034 23.2823 41.3729 23.5077 41.1356C23.733 40.8983 24.6344 40.4237 24.6344 39.7118C24.6344 39 24.9724 38.8813 25.0851 38.5254C25.1977 38.1695 25.6484 37.9322 25.6484 37.2203C25.6484 36.6508 24.9724 35.1638 24.6344 34.4915C24.6344 33.9378 24.5893 32.7593 24.409 32.4746Z" fill="url(#paint3_linear_1007_34036)"/>
<path d="M23.2915 13.7289C23.1112 13.3492 22.5404 12.3842 22.2775 11.9492C22.1648 12.3842 21.9395 13.3967 21.9395 13.9662C21.9395 14.5357 22.8408 15.3899 23.2915 15.6272C23.3666 15.1526 23.4718 14.1085 23.2915 13.7289Z" fill="url(#paint4_linear_1007_34036)"/>
<path d="M19.3665 20.2007C19.1986 19.8578 18.6669 18.9862 18.422 18.5933C18.3171 18.9862 18.1072 19.9006 18.1072 20.415C18.1072 20.9294 18.9467 21.701 19.3665 21.9153C19.4365 21.4867 19.5344 20.5436 19.3665 20.2007Z" fill="url(#paint5_linear_1007_34036)"/>
<path d="M18.2555 14.7578C17.947 14.6252 17.099 14.351 16.7135 14.2304C16.8856 14.5602 17.3072 15.3071 17.6164 15.6566C17.9255 16.0061 18.9012 16.0283 19.286 15.9229C19.0711 15.5898 18.564 14.8904 18.2555 14.7578Z" fill="url(#paint6_linear_1007_34036)"/>
<path d="M15.7778 17.7933C15.5173 17.4364 14.727 16.5494 14.3644 16.1505C14.2996 16.6168 14.1909 17.6954 14.2739 18.2793C14.357 18.8632 15.5073 19.5774 16.0547 19.7398C16.0709 19.2397 16.0383 18.1502 15.7778 17.7933Z" fill="url(#paint7_linear_1007_34036)"/>
<path d="M32.3222 19.1491C32.3434 18.7768 32.3116 17.7785 32.2931 17.3258C32.0259 17.6047 31.432 18.2709 31.1944 18.7042C30.9568 19.1376 31.2863 20.2046 31.5302 20.5936C31.7854 20.2672 32.301 19.5214 32.3222 19.1491Z" fill="url(#paint8_linear_1007_34036)"/>
<path d="M39.1664 23.3507C39.1216 23.0672 38.9347 22.3231 38.8469 21.9864C38.6917 22.2443 38.3544 22.8521 38.2466 23.2206C38.1389 23.5891 38.5606 24.3309 38.8073 24.579C38.9457 24.2876 39.2112 23.6341 39.1664 23.3507Z" fill="url(#paint9_linear_1007_34036)"/>
<path d="M29.8233 14.2032C29.643 13.8236 29.0721 12.8586 28.8092 12.4236C28.6965 12.8586 28.4712 13.871 28.4712 14.4405C28.4712 15.01 29.3726 15.8643 29.8233 16.1016C29.8984 15.627 30.0035 14.5829 29.8233 14.2032Z" fill="url(#paint10_linear_1007_34036)"/>
<path d="M27.5471 17.3406C27.3446 17.0904 26.7449 16.4764 26.4703 16.2006C26.4618 16.5497 26.4697 17.3548 26.5697 17.7829C26.6697 18.2111 27.4991 18.6773 27.8804 18.7678C27.8537 18.3963 27.7497 17.5909 27.5471 17.3406Z" fill="url(#paint11_linear_1007_34036)"/>
<path d="M26.2278 20.9784C25.9582 20.8126 25.1997 20.4413 24.8541 20.2764C24.9554 20.6089 25.2152 21.3662 25.4438 21.7356C25.6723 22.105 26.6014 22.257 26.9897 22.2098C26.8481 21.8684 26.4974 21.1443 26.2278 20.9784Z" fill="url(#paint12_linear_1007_34036)"/>
<path d="M35.6418 22.6441C35.7048 22.9662 35.9491 23.8085 36.0635 24.1895C36.2307 23.888 36.5923 23.1786 36.7007 22.7527C36.8091 22.3268 36.2958 21.4973 36.0031 21.2245C35.8565 21.5635 35.5789 22.3221 35.6418 22.6441Z" fill="url(#paint13_linear_1007_34036)"/>
<path d="M35.6015 28.4815C35.8978 28.5851 36.7128 28.7835 37.0833 28.8697C36.919 28.5664 36.5163 27.8819 36.2202 27.5702C35.9242 27.2584 34.9853 27.3117 34.6146 27.4423C34.8201 27.7455 35.3052 28.3778 35.6015 28.4815Z" fill="url(#paint14_linear_1007_34036)"/>
<path d="M37.7734 33.8617C38.0426 34.0282 38.8004 34.4013 39.1456 34.567C39.045 34.2343 38.7869 33.4764 38.5591 33.1064C38.3314 32.7365 37.4027 32.5823 37.0142 32.6285C37.1551 32.9702 37.5041 33.6952 37.7734 33.8617Z" fill="url(#paint15_linear_1007_34036)"/>
<path d="M40.2658 32.6837C40.4898 32.9128 41.1416 33.4648 41.4395 33.7122C41.4169 33.3639 41.3372 32.5631 41.1995 32.1467C41.0618 31.7303 40.1945 31.3481 39.8068 31.2958C39.8665 31.6629 40.0419 32.4546 40.2658 32.6837Z" fill="url(#paint16_linear_1007_34036)"/>
<path d="M35.1739 30.0862C35.4242 29.852 36.036 29.1615 36.3106 28.8455C35.9551 28.8435 35.1356 28.8703 34.702 28.9927C34.2683 29.115 33.812 30.0616 33.7284 30.494C34.106 30.4557 34.9236 30.3204 35.1739 30.0862Z" fill="url(#paint17_linear_1007_34036)"/>
<path d="M41.9091 30.6783C42.2275 30.5693 43.0507 30.1945 43.4225 30.0207C43.0975 29.869 42.3364 29.548 41.8925 29.4773C41.4486 29.4066 40.6706 30.0816 40.4295 30.4426C40.79 30.5666 41.5907 30.7874 41.9091 30.6783Z" fill="url(#paint18_linear_1007_34036)"/>
<path d="M32.4864 29.4965C32.527 29.1465 32.5519 28.2025 32.5593 27.7742C32.2915 28.0204 31.6938 28.6114 31.4455 29.0052C31.1972 29.3991 31.4497 30.4267 31.6587 30.8093C31.9178 30.5175 32.4459 29.8464 32.4864 29.4965Z" fill="url(#paint19_linear_1007_34036)"/>
<path d="M33.5416 31.8736C33.8695 31.9446 34.7273 32.2205 35.1152 32.3496C34.8082 32.5385 34.0858 32.9467 33.6522 33.0691C33.2185 33.1914 32.3739 32.6119 32.0961 32.2814C32.4413 32.1159 33.2137 31.8025 33.5416 31.8736Z" fill="url(#paint20_linear_1007_34036)"/>
<path d="M34.2908 34.7531C34.6116 34.5499 35.4191 33.9233 35.7827 33.6355C35.3922 33.5563 34.4862 33.4082 33.9857 33.4488C33.4851 33.4893 32.7986 34.431 32.6222 34.8882C33.0447 34.9278 33.9699 34.9563 34.2908 34.7531Z" fill="url(#paint21_linear_1007_34036)"/>
<path d="M31.4931 38.1519C31.6609 38.5043 32.1922 39.4001 32.4369 39.804C32.5417 39.4001 32.7515 38.4603 32.7515 37.9316C32.7515 37.4029 31.9125 36.6099 31.4931 36.3896C31.4232 36.8302 31.3253 37.7994 31.4931 38.1519Z" fill="url(#paint22_linear_1007_34036)"/>
<path d="M34.6339 38.0968C34.7738 38.3907 35.2169 39.1378 35.421 39.4746C35.5084 39.1378 35.6833 38.354 35.6833 37.9131C35.6833 37.4722 34.9837 36.8109 34.6339 36.6271C34.5756 36.9946 34.494 37.8029 34.6339 38.0968Z" fill="url(#paint23_linear_1007_34036)"/>
<path d="M33.2089 28.6856C33.3846 28.8408 33.89 29.2087 34.1207 29.3732C34.0865 29.1193 33.9877 28.5371 33.8657 28.2399C33.7438 27.9426 33.0891 27.7112 32.8025 27.6947C32.8648 27.9603 33.0333 28.5303 33.2089 28.6856Z" fill="url(#paint24_linear_1007_34036)"/>
<path d="M40.3198 29.4934C40.4597 29.302 40.7872 28.7547 40.9335 28.505C40.694 28.5517 40.1459 28.6804 39.869 28.8213C39.5921 28.9623 39.4004 29.6608 39.3969 29.9631C39.6462 29.8863 40.1799 29.6848 40.3198 29.4934Z" fill="url(#paint25_linear_1007_34036)"/>
<path d="M30.3503 37.3545C30.3368 37.5956 30.3581 38.2421 30.3705 38.5353C30.5436 38.3549 30.9282 37.9239 31.0819 37.6435C31.2357 37.3631 31.0213 36.6718 30.8629 36.4197C30.6977 36.6309 30.3638 37.1135 30.3503 37.3545Z" fill="url(#paint26_linear_1007_34036)"/>
<path d="M18.5489 16.9824C18.2574 16.95 17.4722 16.9404 17.1161 16.9396C17.3246 17.183 17.8243 17.7256 18.1553 17.9489C18.4862 18.1723 19.337 17.9249 19.6521 17.7268C19.4058 17.4922 18.8405 17.0148 18.5489 16.9824Z" fill="url(#paint27_linear_1007_34036)"/>
<path d="M13.9772 22.3167C13.7214 22.1659 13.0033 21.8313 12.6763 21.6828C12.7768 21.993 13.0331 22.6991 13.2537 23.0416C13.4743 23.3842 14.3489 23.5099 14.7126 23.4586C14.5741 23.1407 14.233 22.4674 13.9772 22.3167Z" fill="url(#paint28_linear_1007_34036)"/>
<path d="M14.1349 21.332C13.7598 21.2564 12.7773 20.9558 12.3329 20.8149C12.6803 20.5945 13.4982 20.1169 13.991 19.9701C14.4839 19.8234 15.4559 20.4705 15.7777 20.843C15.3864 21.0375 14.51 21.4076 14.1349 21.332Z" fill="url(#paint29_linear_1007_34036)"/>
<path d="M11.2027 26.9474C10.8892 26.9287 10.0488 26.9614 9.66775 26.9801C9.90282 27.229 10.4642 27.7821 10.8293 28.0028C11.1943 28.2236 12.0922 27.9124 12.4195 27.6833C12.1445 27.4458 11.5161 26.9661 11.2027 26.9474Z" fill="url(#paint30_linear_1007_34036)"/>
<path d="M11.3358 24.1744C10.9543 24.1563 9.93237 24.2086 9.46909 24.237C9.75838 24.5364 10.4487 25.2008 10.8958 25.464C11.3428 25.7271 12.4309 25.3352 12.826 25.0516C12.4882 24.7668 11.7174 24.1926 11.3358 24.1744Z" fill="url(#paint31_linear_1007_34036)"/>
<path d="M11.5849 35.315C11.2076 35.2526 10.1864 35.1854 9.72301 35.1597C9.97906 35.4909 10.5953 36.2317 11.0119 36.5453C11.4286 36.859 12.5512 36.5963 12.9736 36.3605C12.6679 36.038 11.9622 35.3775 11.5849 35.315Z" fill="url(#paint32_linear_1007_34036)"/>
<path d="M16.5847 30.6278C16.3183 30.8487 15.6603 31.508 15.3646 31.8101C15.7239 31.8346 16.5539 31.8594 16.9993 31.7632C17.4447 31.667 17.9601 30.739 18.0694 30.307C17.6855 30.3219 16.8511 30.4069 16.5847 30.6278Z" fill="url(#paint33_linear_1007_34036)"/>
<path d="M19.6077 37.969C19.9354 38.0604 20.7879 38.3905 21.1732 38.5442C20.8526 38.7168 20.1002 39.0866 19.6551 39.1844C19.21 39.2823 18.3872 38.6459 18.1241 38.2951C18.482 38.1483 19.2799 37.8776 19.6077 37.969Z" fill="url(#paint34_linear_1007_34036)"/>
<path d="M13.2679 34.2987C13.0426 34.0318 12.3784 33.3793 12.0745 33.0864C12.0727 33.4656 12.0984 34.3395 12.2161 34.802C12.3338 35.2644 13.2442 35.7511 13.6601 35.8402C13.6232 35.4376 13.4931 34.5656 13.2679 34.2987Z" fill="url(#paint35_linear_1007_34036)"/>
<path d="M15.0043 37.3723C14.8236 37.6363 14.4044 38.3883 14.2173 38.7313C14.538 38.6576 15.2713 38.4597 15.6386 38.2575C16.006 38.0553 16.2361 37.1057 16.2288 36.6983C15.8959 36.8129 15.185 37.1082 15.0043 37.3723Z" fill="url(#paint36_linear_1007_34036)"/>
<path d="M12.7497 38.1547C12.7269 38.4794 12.7433 39.3511 12.7543 39.7465C12.991 39.507 13.5176 38.9343 13.7301 38.5596C13.9427 38.1849 13.6669 37.2489 13.4582 36.9057C13.2315 37.1868 12.7725 37.8301 12.7497 38.1547Z" fill="url(#paint37_linear_1007_34036)"/>
<path d="M10.7712 29.4876C10.4372 29.4717 9.54262 29.5175 9.13708 29.5423C9.39032 29.8044 9.99463 30.386 10.386 30.6164C10.7773 30.8467 11.7298 30.5037 12.0756 30.2554C11.78 30.0061 11.1052 29.5034 10.7712 29.4876Z" fill="url(#paint38_linear_1007_34036)"/>
<path d="M10.6135 32.3133C10.4991 32.6441 10.2727 33.5566 10.1738 33.9715C10.487 33.7955 11.195 33.3625 11.5209 33.0383C11.8468 32.7142 11.8212 31.6544 11.6998 31.2326C11.3853 31.455 10.7278 31.9825 10.6135 32.3133Z" fill="url(#paint39_linear_1007_34036)"/>
<path d="M25.9603 14.1909C26.3123 13.9841 27.3001 13.5251 27.75 13.3215C27.6104 13.7478 27.2552 14.7181 26.9507 15.1887C26.6461 15.6593 25.4444 15.8308 24.9451 15.7596C25.1368 15.3229 25.6083 14.3978 25.9603 14.1909Z" fill="url(#paint40_linear_1007_34036)"/>
<path d="M25.7614 13.1912C25.951 12.8166 26.3677 11.7678 26.5524 11.2902C26.1503 11.4453 25.2359 11.838 24.7949 12.1677C24.3539 12.4974 24.2143 13.7658 24.2915 14.2902C24.7024 14.0799 25.5718 13.5658 25.7614 13.1912Z" fill="url(#paint41_linear_1007_34036)"/>
<path d="M20.7199 14.4865C20.7737 14.1057 20.8267 13.0761 20.8465 12.6089C20.5478 12.8702 19.8799 13.4987 19.5984 13.9216C19.3169 14.3446 19.5641 15.4732 19.7815 15.8965C20.0719 15.5851 20.6662 14.8673 20.7199 14.4865Z" fill="url(#paint42_linear_1007_34036)"/>
<path d="M17.8764 19.5886C17.895 19.2676 17.8682 18.4067 17.8525 18.0164C17.6219 18.2567 17.1094 18.8306 16.9042 19.2041C16.6991 19.5776 16.9825 20.4979 17.1926 20.8335C17.4128 20.5523 17.8579 19.9096 17.8764 19.5886Z" fill="url(#paint43_linear_1007_34036)"/>
<path d="M14.633 32.838C14.8068 33.0443 15.3192 33.5489 15.5537 33.7754C15.5549 33.4824 15.5347 32.807 15.4437 32.4496C15.3528 32.0921 14.6505 31.7156 14.3298 31.6464C14.3584 31.9576 14.4592 32.6316 14.633 32.838Z" fill="url(#paint44_linear_1007_34036)"/>
<path d="M15.545 39.6831C15.4621 39.9448 15.3034 40.6644 15.2343 40.9915C15.4759 40.8461 16.0213 40.4899 16.2698 40.2283C16.5183 39.9666 16.4769 39.1379 16.3733 38.8108C16.1317 38.9925 15.6278 39.4214 15.545 39.6831Z" fill="url(#paint45_linear_1007_34036)"/>
<path d="M15.1628 26.358C15.3975 26.1523 15.9748 25.542 16.234 25.2625C15.9098 25.2503 15.1616 25.2504 14.7627 25.3489C14.3638 25.4474 13.9213 26.2953 13.833 26.6864C14.1785 26.6626 14.928 26.5637 15.1628 26.358Z" fill="url(#paint46_linear_1007_34036)"/>
<path d="M12.4269 32.342C12.4881 32.6571 12.7262 33.4811 12.8376 33.8538C13.0011 33.5587 13.3545 32.8643 13.4606 32.4475C13.5666 32.0308 13.066 31.2195 12.7804 30.9528C12.6371 31.2846 12.3657 32.0269 12.4269 32.342Z" fill="url(#paint47_linear_1007_34036)"/>
<path d="M31.63 15.0896C31.8197 14.715 32.2364 13.6662 32.421 13.1887C32.0189 13.3438 31.1045 13.7364 30.6636 14.0661C30.2226 14.3958 30.0829 15.6643 30.1601 16.1886C30.5711 15.9784 31.4404 15.4642 31.63 15.0896Z" fill="url(#paint48_linear_1007_34036)"/>
<path d="M36.5812 16.513C36.7708 16.1384 37.1875 15.0896 37.3722 14.612C36.9701 14.7671 36.0557 15.1598 35.6147 15.4895C35.1738 15.8191 35.0341 17.0876 35.1113 17.6119C35.5223 17.4017 36.3916 16.8875 36.5812 16.513Z" fill="url(#paint49_linear_1007_34036)"/>
<path d="M39.2809 21.2035C39.6414 21.0137 40.5578 20.4126 40.9709 20.1357C40.5578 20.0171 39.5964 19.7798 39.0555 19.7798C38.5147 19.7798 37.7035 20.7289 37.4781 21.2035C37.9288 21.2826 38.9203 21.3933 39.2809 21.2035Z" fill="url(#paint50_linear_1007_34036)"/>
<path d="M40.1007 27.2854C40.4964 27.3663 41.5709 27.4776 42.0587 27.5232C41.7998 27.164 41.1747 26.359 40.7459 26.012C40.3171 25.6649 39.1246 25.897 38.6713 26.1287C38.9829 26.4806 39.705 27.2046 40.1007 27.2854Z" fill="url(#paint51_linear_1007_34036)"/>
<path d="M34.9632 16.2763C34.953 15.9017 34.8371 14.9055 34.7804 14.4542C34.5364 14.7583 33.9982 15.4805 33.7969 15.9364C33.5957 16.3923 34.0153 17.4294 34.2923 17.7959C34.5201 17.4455 34.9733 16.6509 34.9632 16.2763Z" fill="url(#paint52_linear_1007_34036)"/>
<path d="M40.3839 23.0847C40.6809 22.8782 41.5218 22.4058 41.9052 22.1954C41.8089 22.5804 41.5568 23.4592 41.3181 23.8946C41.0794 24.3299 40.0322 24.5641 39.5882 24.536C39.7297 24.1383 40.0869 23.2912 40.3839 23.0847Z" fill="url(#paint53_linear_1007_34036)"/>
<path d="M30.0977 20.0323C30.3312 19.7657 30.8905 18.9932 31.1409 18.6403C30.7767 18.6773 29.9404 18.7942 29.5083 18.9667C29.0762 19.1391 28.701 20.1561 28.6575 20.6071C29.0403 20.5266 29.8643 20.2989 30.0977 20.0323Z" fill="url(#paint54_linear_1007_34036)"/>
<path d="M25.5077 19.4158C25.8232 19.2704 26.6299 18.7993 26.9939 18.582C26.6462 18.4619 25.8356 18.2154 25.3742 18.1907C24.9127 18.166 24.1813 18.9387 23.9695 19.3334C24.3508 19.4215 25.1922 19.5613 25.5077 19.4158Z" fill="url(#paint55_linear_1007_34036)"/>
<path d="M35.2625 23.7243C35.502 23.9849 36.0788 24.7429 36.3373 25.0893C35.9723 25.0617 35.1335 24.966 34.6976 24.8046C34.2617 24.6431 33.8634 23.636 33.8095 23.1862C34.194 23.257 35.023 23.4637 35.2625 23.7243Z" fill="url(#paint56_linear_1007_34036)"/>
<path d="M36.095 18.8185C36.42 18.6986 37.2583 18.2933 37.6368 18.1056C37.2989 17.9581 36.5083 17.6477 36.05 17.5862C35.5916 17.5247 34.8067 18.2369 34.5671 18.6135C34.941 18.7318 35.7699 18.9383 36.095 18.8185Z" fill="url(#paint57_linear_1007_34036)"/>
<defs>
<linearGradient id="paint0_linear_1007_34036" x1="15.5606" y1="-3.61164e-05" x2="39.2329" y2="2.72092" gradientUnits="userSpaceOnUse">
<stop stop-color="#16202B"/>
<stop offset="1" stop-color="#101419"/>
</linearGradient>
<linearGradient id="paint1_linear_1007_34036" x1="16.7094" y1="2.86104" x2="40.8748" y2="57.4021" gradientUnits="userSpaceOnUse">
<stop stop-color="#20303D"/>
<stop offset="1" stop-color="#0C131B"/>
</linearGradient>
<linearGradient id="paint2_linear_1007_34036" x1="20.9085" y1="5.3415" x2="37.1704" y2="45.1493" gradientUnits="userSpaceOnUse">
<stop stop-color="#0B0C10"/>
<stop offset="1" stop-color="#1D2835"/>
</linearGradient>
<linearGradient id="paint3_linear_1007_34036" x1="20.2508" y1="13.6101" x2="37.8311" y2="51.0151" gradientUnits="userSpaceOnUse">
<stop stop-color="#ECC271"/>
<stop offset="1" stop-color="#7F642E"/>
</linearGradient>
<linearGradient id="paint4_linear_1007_34036" x1="22.3738" y1="11.9492" x2="24.9494" y2="14.2435" gradientUnits="userSpaceOnUse">
<stop stop-color="#ECC271"/>
<stop offset="1" stop-color="#7F642E"/>
</linearGradient>
<linearGradient id="paint5_linear_1007_34036" x1="18.5118" y1="18.5933" x2="20.8453" y2="20.7368" gradientUnits="userSpaceOnUse">
<stop stop-color="#ECC271"/>
<stop offset="1" stop-color="#7F642E"/>
</linearGradient>
<linearGradient id="paint6_linear_1007_34036" x1="16.7682" y1="14.1767" x2="19.4745" y2="14.0868" gradientUnits="userSpaceOnUse">
<stop stop-color="#ECC271"/>
<stop offset="1" stop-color="#7F642E"/>
</linearGradient>
<linearGradient id="paint7_linear_1007_34036" x1="14.474" y1="16.1332" x2="17.5009" y2="18.3492" gradientUnits="userSpaceOnUse">
<stop stop-color="#ECC271"/>
<stop offset="1" stop-color="#7F642E"/>
</linearGradient>
<linearGradient id="paint8_linear_1007_34036" x1="32.3664" y1="17.3704" x2="33.3083" y2="20.3271" gradientUnits="userSpaceOnUse">
<stop stop-color="#ECC271"/>
<stop offset="1" stop-color="#7F642E"/>
</linearGradient>
<linearGradient id="paint9_linear_1007_34036" x1="38.9092" y1="22.0066" x2="40.1305" y2="24.0382" gradientUnits="userSpaceOnUse">
<stop stop-color="#ECC271"/>
<stop offset="1" stop-color="#7F642E"/>
</linearGradient>
<linearGradient id="paint10_linear_1007_34036" x1="28.9056" y1="12.4236" x2="31.4812" y2="14.7179" gradientUnits="userSpaceOnUse">
<stop stop-color="#ECC271"/>
<stop offset="1" stop-color="#7F642E"/>
</linearGradient>
<linearGradient id="paint11_linear_1007_34036" x1="26.543" y1="16.1818" x2="28.8732" y2="17.43" gradientUnits="userSpaceOnUse">
<stop stop-color="#ECC271"/>
<stop offset="1" stop-color="#7F642E"/>
</linearGradient>
<linearGradient id="paint12_linear_1007_34036" x1="24.9168" y1="20.2334" x2="27.4956" y2="20.6722" gradientUnits="userSpaceOnUse">
<stop stop-color="#ECC271"/>
<stop offset="1" stop-color="#7F642E"/>
</linearGradient>
<linearGradient id="paint13_linear_1007_34036" x1="35.9912" y1="24.1691" x2="34.5114" y2="21.899" gradientUnits="userSpaceOnUse">
<stop stop-color="#ECC271"/>
<stop offset="1" stop-color="#7F642E"/>
</linearGradient>
<linearGradient id="paint14_linear_1007_34036" x1="37.0304" y1="28.9254" x2="34.4195" y2="29.0015" gradientUnits="userSpaceOnUse">
<stop stop-color="#ECC271"/>
<stop offset="1" stop-color="#7F642E"/>
</linearGradient>
<linearGradient id="paint15_linear_1007_34036" x1="39.0828" y1="34.6099" x2="36.5048" y2="34.1654" gradientUnits="userSpaceOnUse">
<stop stop-color="#ECC271"/>
<stop offset="1" stop-color="#7F642E"/>
</linearGradient>
<linearGradient id="paint16_linear_1007_34036" x1="41.3689" y1="33.7381" x2="38.944" y2="32.711" gradientUnits="userSpaceOnUse">
<stop stop-color="#ECC271"/>
<stop offset="1" stop-color="#7F642E"/>
</linearGradient>
<linearGradient id="paint17_linear_1007_34036" x1="36.3314" y1="28.927" x2="34.8969" y2="31.4632" gradientUnits="userSpaceOnUse">
<stop stop-color="#ECC271"/>
<stop offset="1" stop-color="#7F642E"/>
</linearGradient>
<linearGradient id="paint18_linear_1007_34036" x1="43.4105" y1="30.1042" x2="41.1226" y2="31.8112" gradientUnits="userSpaceOnUse">
<stop stop-color="#ECC271"/>
<stop offset="1" stop-color="#7F642E"/>
</linearGradient>
<linearGradient id="paint19_linear_1007_34036" x1="32.6261" y1="27.8209" x2="33.3301" y2="30.6761" gradientUnits="userSpaceOnUse">
<stop stop-color="#ECC271"/>
<stop offset="1" stop-color="#7F642E"/>
</linearGradient>
<linearGradient id="paint20_linear_1007_34036" x1="35.0944" y1="32.268" x2="32.6466" y2="30.8291" gradientUnits="userSpaceOnUse">
<stop stop-color="#ECC271"/>
<stop offset="1" stop-color="#7F642E"/>
</linearGradient>
<linearGradient id="paint21_linear_1007_34036" x1="35.7896" y1="33.7296" x2="33.701" y2="36.1929" gradientUnits="userSpaceOnUse">
<stop stop-color="#ECC271"/>
<stop offset="1" stop-color="#7F642E"/>
</linearGradient>
<linearGradient id="paint22_linear_1007_34036" x1="32.3472" y1="39.804" x2="29.9555" y2="37.668" gradientUnits="userSpaceOnUse">
<stop stop-color="#ECC271"/>
<stop offset="1" stop-color="#7F642E"/>
</linearGradient>
<linearGradient id="paint23_linear_1007_34036" x1="35.3462" y1="39.4746" x2="33.3516" y2="37.6933" gradientUnits="userSpaceOnUse">
<stop stop-color="#ECC271"/>
<stop offset="1" stop-color="#7F642E"/>
</linearGradient>
<linearGradient id="paint24_linear_1007_34036" x1="34.0703" y1="29.3961" x2="32.2455" y2="28.7695" gradientUnits="userSpaceOnUse">
<stop stop-color="#ECC271"/>
<stop offset="1" stop-color="#7F642E"/>
</linearGradient>
<linearGradient id="paint25_linear_1007_34036" x1="40.9574" y1="28.557" x2="40.3259" y2="30.4655" gradientUnits="userSpaceOnUse">
<stop stop-color="#ECC271"/>
<stop offset="1" stop-color="#7F642E"/>
</linearGradient>
<linearGradient id="paint26_linear_1007_34036" x1="30.3229" y1="38.5063" x2="29.715" y2="36.5894" gradientUnits="userSpaceOnUse">
<stop stop-color="#ECC271"/>
<stop offset="1" stop-color="#7F642E"/>
</linearGradient>
<linearGradient id="paint27_linear_1007_34036" x1="17.1539" y1="16.8773" x2="19.546" y2="16.3065" gradientUnits="userSpaceOnUse">
<stop stop-color="#ECC271"/>
<stop offset="1" stop-color="#7F642E"/>
</linearGradient>
<linearGradient id="paint28_linear_1007_34036" x1="12.7344" y1="21.6413" x2="15.1615" y2="22.0105" gradientUnits="userSpaceOnUse">
<stop stop-color="#ECC271"/>
<stop offset="1" stop-color="#7F642E"/>
</linearGradient>
<linearGradient id="paint29_linear_1007_34036" x1="12.3578" y1="20.9076" x2="15.1702" y2="22.5107" gradientUnits="userSpaceOnUse">
<stop stop-color="#ECC271"/>
<stop offset="1" stop-color="#7F642E"/>
</linearGradient>
<linearGradient id="paint30_linear_1007_34036" x1="9.7052" y1="26.9114" x2="12.239" y2="26.1808" gradientUnits="userSpaceOnUse">
<stop stop-color="#ECC271"/>
<stop offset="1" stop-color="#7F642E"/>
</linearGradient>
<linearGradient id="paint31_linear_1007_34036" x1="9.51373" y1="24.1529" x2="12.5872" y2="23.2297" gradientUnits="userSpaceOnUse">
<stop stop-color="#ECC271"/>
<stop offset="1" stop-color="#7F642E"/>
</linearGradient>
<linearGradient id="paint32_linear_1007_34036" x1="9.77621" y1="35.0813" x2="12.9218" y2="34.4899" gradientUnits="userSpaceOnUse">
<stop stop-color="#ECC271"/>
<stop offset="1" stop-color="#7F642E"/>
</linearGradient>
<linearGradient id="paint33_linear_1007_34036" x1="15.3483" y1="31.7263" x2="16.9504" y2="29.2577" gradientUnits="userSpaceOnUse">
<stop stop-color="#ECC271"/>
<stop offset="1" stop-color="#7F642E"/>
</linearGradient>
<linearGradient id="paint34_linear_1007_34036" x1="21.1566" y1="38.4605" x2="18.7549" y2="36.8654" gradientUnits="userSpaceOnUse">
<stop stop-color="#ECC271"/>
<stop offset="1" stop-color="#7F642E"/>
</linearGradient>
<linearGradient id="paint35_linear_1007_34036" x1="12.153" y1="33.0643" x2="14.7078" y2="34.3675" gradientUnits="userSpaceOnUse">
<stop stop-color="#ECC271"/>
<stop offset="1" stop-color="#7F642E"/>
</linearGradient>
<linearGradient id="paint36_linear_1007_34036" x1="14.183" y1="38.6622" x2="14.9501" y2="36.0609" gradientUnits="userSpaceOnUse">
<stop stop-color="#ECC271"/>
<stop offset="1" stop-color="#7F642E"/>
</linearGradient>
<linearGradient id="paint37_linear_1007_34036" x1="12.6908" y1="39.7065" x2="11.9113" y2="37.1092" gradientUnits="userSpaceOnUse">
<stop stop-color="#ECC271"/>
<stop offset="1" stop-color="#7F642E"/>
</linearGradient>
<linearGradient id="paint38_linear_1007_34036" x1="9.17615" y1="29.4687" x2="11.8667" y2="28.6605" gradientUnits="userSpaceOnUse">
<stop stop-color="#ECC271"/>
<stop offset="1" stop-color="#7F642E"/>
</linearGradient>
<linearGradient id="paint39_linear_1007_34036" x1="10.1188" y1="33.9102" x2="10.1118" y2="30.9652" gradientUnits="userSpaceOnUse">
<stop stop-color="#ECC271"/>
<stop offset="1" stop-color="#7F642E"/>
</linearGradient>
<linearGradient id="paint40_linear_1007_34036" x1="27.6703" y1="13.2644" x2="24.3339" y2="13.7603" gradientUnits="userSpaceOnUse">
<stop stop-color="#ECC271"/>
<stop offset="1" stop-color="#7F642E"/>
</linearGradient>
<linearGradient id="paint41_linear_1007_34036" x1="26.6082" y1="11.373" x2="26.1027" y2="14.8809" gradientUnits="userSpaceOnUse">
<stop stop-color="#ECC271"/>
<stop offset="1" stop-color="#7F642E"/>
</linearGradient>
<linearGradient id="paint42_linear_1007_34036" x1="20.9181" y1="12.6617" x2="21.6083" y2="15.797" gradientUnits="userSpaceOnUse">
<stop stop-color="#ECC271"/>
<stop offset="1" stop-color="#7F642E"/>
</linearGradient>
<linearGradient id="paint43_linear_1007_34036" x1="17.9157" y1="18.0549" x2="18.7258" y2="20.6051" gradientUnits="userSpaceOnUse">
<stop stop-color="#ECC271"/>
<stop offset="1" stop-color="#7F642E"/>
</linearGradient>
<linearGradient id="paint44_linear_1007_34036" x1="15.4932" y1="33.7925" x2="13.52" y2="32.7891" gradientUnits="userSpaceOnUse">
<stop stop-color="#ECC271"/>
<stop offset="1" stop-color="#7F642E"/>
</linearGradient>
<linearGradient id="paint45_linear_1007_34036" x1="15.1901" y1="40.9449" x2="15.1124" y2="38.6409" gradientUnits="userSpaceOnUse">
<stop stop-color="#ECC271"/>
<stop offset="1" stop-color="#7F642E"/>
</linearGradient>
<linearGradient id="paint46_linear_1007_34036" x1="16.2507" y1="25.3374" x2="14.8742" y2="27.6043" gradientUnits="userSpaceOnUse">
<stop stop-color="#ECC271"/>
<stop offset="1" stop-color="#7F642E"/>
</linearGradient>
<linearGradient id="paint47_linear_1007_34036" x1="12.7671" y1="33.8339" x2="11.3181" y2="31.6174" gradientUnits="userSpaceOnUse">
<stop stop-color="#ECC271"/>
<stop offset="1" stop-color="#7F642E"/>
</linearGradient>
<linearGradient id="paint48_linear_1007_34036" x1="32.4768" y1="13.2714" x2="31.9713" y2="16.7793" gradientUnits="userSpaceOnUse">
<stop stop-color="#ECC271"/>
<stop offset="1" stop-color="#7F642E"/>
</linearGradient>
<linearGradient id="paint49_linear_1007_34036" x1="37.428" y1="14.6947" x2="36.9225" y2="18.2027" gradientUnits="userSpaceOnUse">
<stop stop-color="#ECC271"/>
<stop offset="1" stop-color="#7F642E"/>
</linearGradient>
<linearGradient id="paint50_linear_1007_34036" x1="40.971" y1="20.2372" x2="38.5391" y2="22.6993" gradientUnits="userSpaceOnUse">
<stop stop-color="#ECC271"/>
<stop offset="1" stop-color="#7F642E"/>
</linearGradient>
<linearGradient id="paint51_linear_1007_34036" x1="42" y1="27.6036" x2="38.6665" y2="28.1215" gradientUnits="userSpaceOnUse">
<stop stop-color="#ECC271"/>
<stop offset="1" stop-color="#7F642E"/>
</linearGradient>
<linearGradient id="paint52_linear_1007_34036" x1="34.8575" y1="14.492" x2="36.0692" y2="17.3546" gradientUnits="userSpaceOnUse">
<stop stop-color="#ECC271"/>
<stop offset="1" stop-color="#7F642E"/>
</linearGradient>
<linearGradient id="paint53_linear_1007_34036" x1="41.8315" y1="22.1506" x2="38.9206" y2="22.7974" gradientUnits="userSpaceOnUse">
<stop stop-color="#ECC271"/>
<stop offset="1" stop-color="#7F642E"/>
</linearGradient>
<linearGradient id="paint54_linear_1007_34036" x1="31.1701" y1="18.7214" x2="29.9722" y2="21.4799" gradientUnits="userSpaceOnUse">
<stop stop-color="#ECC271"/>
<stop offset="1" stop-color="#7F642E"/>
</linearGradient>
<linearGradient id="paint55_linear_1007_34036" x1="26.9897" y1="18.6686" x2="24.8134" y2="20.6587" gradientUnits="userSpaceOnUse">
<stop stop-color="#ECC271"/>
<stop offset="1" stop-color="#7F642E"/>
</linearGradient>
<linearGradient id="paint56_linear_1007_34036" x1="36.3646" y1="25.0076" x2="35.0993" y2="22.2824" gradientUnits="userSpaceOnUse">
<stop stop-color="#ECC271"/>
<stop offset="1" stop-color="#7F642E"/>
</linearGradient>
<linearGradient id="paint57_linear_1007_34036" x1="37.6264" y1="18.1916" x2="35.3156" y2="20.0053" gradientUnits="userSpaceOnUse">
<stop stop-color="#ECC271"/>
<stop offset="1" stop-color="#7F642E"/>
</linearGradient>
</defs>
</svg>
