<?xml version="1.0" standalone="no"?>
<!DOCTYPE svg PUBLIC "-//W3C//DTD SVG 20010904//EN"
 "http://www.w3.org/TR/2001/REC-SVG-20010904/DTD/svg10.dtd">
<svg version="1.0" xmlns="http://www.w3.org/2000/svg"
 width="256.000000pt" height="256.000000pt" viewBox="0 0 256.000000 256.000000"
 preserveAspectRatio="xMidYMid meet">

<g transform="translate(0.000000,256.000000) scale(0.100000,-0.100000)"
fill="#6F6F6F" stroke="none">
<path d="M674 2550 c-216 -32 -400 -201 -443 -408 -15 -74 -15 -1650 0 -1724
37 -176 184 -334 364 -391 69 -22 78 -22 685 -22 607 0 616 0 685 22 178 56
314 199 360 378 23 90 22 1093 -1 1198 -21 92 -78 215 -137 292 -67 88 -482
494 -552 540 -82 54 -214 102 -315 114 -94 12 -567 13 -646 1z m608 -503 l3
-302 33 -67 c39 -79 93 -129 169 -158 49 -18 78 -20 348 -20 l294 0 6 -32 c3
-18 5 -251 3 -518 -3 -440 -5 -489 -22 -532 -25 -66 -96 -141 -164 -175 l-57
-28 -615 0 -615 0 -57 28 c-72 35 -141 110 -165 180 -17 49 -18 104 -18 857 0
750 1 809 18 857 20 58 79 130 133 164 72 44 104 48 411 48 l291 1 4 -303z
m309 159 c162 -140 469 -465 469 -498 0 -4 -106 -8 -235 -8 -261 0 -292 6
-319 59 -22 42 -24 511 -3 511 8 0 47 -29 88 -64z"/>
</g>
</svg>
