<svg width="29" height="30" viewBox="0 0 29 30" fill="none" xmlns="http://www.w3.org/2000/svg">
<path d="M21.3922 16.8404L16.0262 22.3733C13.4546 25.0248 9.28522 25.0248 6.71364 22.3733C4.14205 19.7217 4.14206 15.4228 6.71364 12.7713L13.9368 5.32361C15.6525 3.55459 18.4342 3.55459 20.1499 5.32361C21.8656 7.09263 21.8656 9.96079 20.1499 11.7298L12.6992 19.4121C11.8931 20.2433 10.5861 20.2433 9.78003 19.4121C8.97394 18.581 8.97394 17.2334 9.78003 16.4022L15.3737 10.6348C15.6577 10.3419 15.6577 9.86699 15.3737 9.57409C15.0896 9.2812 14.629 9.2812 14.345 9.57409L8.75135 15.3416C7.37712 16.7585 7.37712 19.0558 8.75135 20.4728C10.1256 21.8897 12.3536 21.8897 13.7279 20.4728L21.1786 12.7905C23.4624 10.4357 23.4624 6.61776 21.1786 4.26295C18.8947 1.90815 15.1919 1.90815 12.9081 4.26295L5.68495 11.7106C2.54524 14.9479 2.54524 20.1966 5.68495 23.4339C8.82467 26.6712 13.9151 26.6712 17.0549 23.4339L22.4209 17.9011C22.705 17.6082 22.705 17.1333 22.4209 16.8404C22.1369 16.5475 21.6763 16.5475 21.3922 16.8404Z" fill="#7F7F7F"/>
</svg>
