<svg width="49" height="48" viewBox="0 0 49 48" fill="none" xmlns="http://www.w3.org/2000/svg">
<path d="M0 0C9.56785 0 24.5 0 24.5 0L49 15V48H0V0Z" fill="#0D0D0D"/>
<path d="M11.75 29.084C11.554 29.084 11.386 29.014 11.246 28.874C11.106 28.734 11.036 28.566 11.036 28.37C11.036 28.174 11.106 28.006 11.246 27.866C11.386 27.726 11.554 27.656 11.75 27.656C11.946 27.656 12.114 27.726 12.254 27.866C12.394 28.006 12.464 28.174 12.464 28.37C12.464 28.566 12.394 28.734 12.254 28.874C12.114 29.014 11.946 29.084 11.75 29.084ZM14.382 31.856V21.986H15.404V22.742C16.0107 22.1633 16.7667 21.874 17.672 21.874C18.3347 21.874 18.932 22.0373 19.464 22.364C19.996 22.6813 20.416 23.1107 20.724 23.652C21.0413 24.1933 21.2 24.8047 21.2 25.486C21.2 26.1673 21.0413 26.7833 20.724 27.334C20.416 27.8753 19.996 28.3093 19.464 28.636C18.932 28.9533 18.33 29.112 17.658 29.112C17.2473 29.112 16.8507 29.042 16.468 28.902C16.0853 28.762 15.7353 28.5613 15.418 28.3V31.856H14.382ZM17.574 28.202C18.0687 28.202 18.512 28.0853 18.904 27.852C19.296 27.6093 19.604 27.2873 19.828 26.886C20.0613 26.4753 20.178 26.0133 20.178 25.5C20.178 24.9867 20.0613 24.5247 19.828 24.114C19.604 23.7033 19.296 23.3813 18.904 23.148C18.512 22.9053 18.0687 22.784 17.574 22.784C17.1353 22.784 16.7247 22.8727 16.342 23.05C15.9687 23.218 15.6607 23.456 15.418 23.764V27.236C15.6607 27.5347 15.9733 27.7727 16.356 27.95C16.7387 28.118 17.1447 28.202 17.574 28.202ZM25.8458 29.112C25.1925 29.112 24.5951 28.9533 24.0538 28.636C23.5218 28.3093 23.0971 27.8753 22.7798 27.334C22.4718 26.7833 22.3178 26.1673 22.3178 25.486C22.3178 24.8047 22.4718 24.1933 22.7798 23.652C23.0971 23.1107 23.5218 22.6813 24.0538 22.364C24.5951 22.0373 25.1971 21.874 25.8598 21.874C26.2705 21.874 26.6671 21.944 27.0498 22.084C27.4325 22.2147 27.7825 22.4107 28.0998 22.672V19.2L29.1358 18.962V29H28.1138V28.258C27.4978 28.8273 26.7418 29.112 25.8458 29.112ZM25.9438 28.202C26.3825 28.202 26.7885 28.118 27.1618 27.95C27.5445 27.7727 27.8571 27.53 28.0998 27.222V23.75C27.8571 23.4513 27.5445 23.218 27.1618 23.05C26.7885 22.8727 26.3825 22.784 25.9438 22.784C25.4585 22.784 25.0151 22.9007 24.6138 23.134C24.2218 23.3673 23.9091 23.6893 23.6758 24.1C23.4518 24.5013 23.3398 24.9587 23.3398 25.472C23.3398 25.9853 23.4518 26.4473 23.6758 26.858C23.9091 27.2687 24.2218 27.5953 24.6138 27.838C25.0151 28.0807 25.4585 28.202 25.9438 28.202ZM31.9056 29V22.868H30.2536V21.986H31.9056V20.656C31.9056 19.9653 32.0923 19.438 32.4656 19.074C32.839 18.71 33.3756 18.528 34.0756 18.528C34.2623 18.528 34.4303 18.5373 34.5796 18.556C34.729 18.5747 34.8736 18.6073 35.0136 18.654V19.578C34.855 19.5313 34.7103 19.4987 34.5796 19.48C34.449 19.452 34.3043 19.438 34.1456 19.438C33.735 19.438 33.427 19.5407 33.2216 19.746C33.0256 19.942 32.9276 20.2547 32.9276 20.684V21.986H35.0136V22.868H32.9276V29H31.9056Z" fill="#2F4252"/>
</svg>
