<svg width="143" height="144" viewBox="0 0 143 144" fill="none" xmlns="http://www.w3.org/2000/svg">
<path d="M54.1533 124.097C53.7107 124.23 52.3964 124.6 51.2297 124.6C48.0915 124.6 46.4419 123.038 46.4419 120.245C46.4419 118.498 47.3404 117.134 48.8023 116.485C49.5533 116.141 50.3714 115.982 51.4174 115.982C52.5037 115.982 53.2682 116.194 54.0728 116.274C53.9656 116.763 53.8449 117.783 53.8314 118.379C53.7912 118.445 53.4559 118.471 53.3889 118.418C53.2816 117.425 53.1207 117.055 52.7317 116.83C52.316 116.591 51.7795 116.459 50.9078 116.459C48.8157 116.459 47.8098 117.928 47.8098 120.099C47.8098 122.376 49.0437 124.137 51.4711 124.137C51.8466 124.137 52.1819 124.084 52.3696 123.965C52.5574 123.872 52.6378 123.634 52.6647 123.409C52.7049 122.999 52.7049 122.509 52.6915 122.059C52.6647 121.622 52.5842 121.463 52.1953 121.357C51.9539 121.304 51.7125 121.278 51.2967 121.225C51.2297 121.185 51.2565 120.88 51.3101 120.841C51.7259 120.841 52.3696 120.88 53.1877 120.88C53.979 120.88 54.3813 120.854 54.6495 120.841C54.6898 120.88 54.6898 121.198 54.6361 121.238C54.4752 121.264 54.3142 121.291 54.1935 121.331C53.9387 121.41 53.8717 121.582 53.8583 121.966C53.8449 122.363 53.8314 123.184 53.8583 123.435C53.8717 123.634 53.8985 123.7 54.1935 123.819C54.207 123.859 54.1801 124.058 54.1533 124.097Z" fill="url(#paint0_linear_2703_34606)"/>
<path d="M55.6587 116.172C55.994 116.172 56.6913 116.225 57.4424 116.225H60.0844C60.594 116.225 61.2914 116.212 61.573 116.172C61.5864 116.185 61.6267 116.225 61.6267 116.238C61.5194 116.635 61.4255 117.522 61.3853 118.052C61.3316 118.118 61.0097 118.118 60.9695 118.078C60.9293 117.694 60.8756 117.469 60.822 117.271C60.7147 116.953 60.594 116.807 60.1514 116.768C59.8966 116.754 58.2739 116.754 58.0995 116.768C58.0056 116.794 57.9386 116.953 57.9386 117.019C57.9252 117.76 57.9252 119.23 57.9252 119.826C57.9252 119.865 57.952 119.918 57.9922 119.918C58.5287 119.931 59.5613 119.931 60.0441 119.892C60.3392 119.865 60.4331 119.706 60.5001 119.495C60.5538 119.349 60.6074 119.164 60.6476 118.965C60.7281 118.925 61.0366 118.939 61.0902 119.005C61.05 119.27 60.9963 119.786 60.9963 120.249C60.9963 120.739 61.0097 121.123 61.0232 121.454C60.9561 121.52 60.6342 121.533 60.5672 121.467C60.5269 121.189 60.5135 121.083 60.4599 120.924C60.4062 120.739 60.3124 120.567 60.0039 120.54C59.6016 120.501 58.4884 120.501 57.9922 120.514C57.9654 120.514 57.9252 120.58 57.9252 120.62C57.9252 121.229 57.9252 122.632 57.952 123.267C57.952 123.532 58.0995 123.718 58.2605 123.77C58.5287 123.837 59.6954 123.85 60.2453 123.85C60.822 123.837 60.9963 123.718 61.2377 123.413C61.4523 123.175 61.7339 122.645 61.9083 122.248C61.9754 122.235 62.2436 122.328 62.2972 122.394C62.2302 122.804 61.9351 123.81 61.7339 124.207C61.6535 124.353 61.573 124.419 60.9025 124.419C59.7759 124.419 58.8103 124.366 57.4155 124.366C56.517 124.366 55.8464 124.406 55.2966 124.406C55.2429 124.366 55.2295 124.088 55.2832 124.022C55.6989 123.982 56.061 123.956 56.3024 123.89C56.6243 123.81 56.7182 123.638 56.7584 123.175C56.7718 122.923 56.7718 121.467 56.7718 119.971C56.7718 118.767 56.7718 117.588 56.7584 117.35C56.7316 116.873 56.6779 116.754 56.3561 116.675C56.1817 116.622 55.9537 116.582 55.6453 116.543C55.5782 116.49 55.605 116.238 55.6587 116.172Z" fill="url(#paint1_linear_2703_34606)"/>
<path d="M62.8598 116.184C63.1951 116.184 63.8656 116.223 64.5362 116.223C64.8044 116.223 65.0324 116.223 65.1397 116.21C65.1933 116.342 65.2738 116.488 65.6225 116.925C66.9904 118.619 69.7397 121.929 70.3835 122.67C70.4103 122.683 70.4237 122.67 70.4371 122.657C70.4371 120.843 70.4505 118.368 70.3835 117.415C70.3566 117.031 70.2762 116.819 69.8738 116.713C69.6324 116.647 69.3374 116.594 68.9753 116.554C68.9216 116.501 68.9351 116.223 68.9753 116.184C69.324 116.184 69.9409 116.223 70.759 116.223C71.215 116.223 72.0062 116.184 72.1806 116.184C72.2342 116.223 72.2342 116.501 72.1806 116.554C71.9392 116.594 71.7648 116.634 71.5905 116.687C71.2418 116.806 71.1613 117.044 71.1345 117.401C71.054 118.421 71.0674 120.115 71.0272 122.617C71.0272 123.226 71.0406 123.994 71.054 124.431C70.9065 124.418 70.2896 124.418 70.1286 124.431C69.4179 123.425 65.7298 118.871 64.9251 117.878C64.9117 117.865 64.8715 117.878 64.8715 117.891C64.8446 119.255 64.8446 122.353 64.8849 123.094C64.9117 123.623 65.086 123.809 65.4347 123.888C65.6359 123.954 65.9041 123.981 66.2394 124.02C66.293 124.073 66.2528 124.351 66.2126 124.404C65.8907 124.404 65.2872 124.365 64.5362 124.365C63.7181 124.365 63.2085 124.404 62.9268 124.404C62.8866 124.365 62.8866 124.06 62.9268 124.02C63.2219 123.994 63.4365 123.954 63.6376 123.901C63.9461 123.809 64.1204 123.637 64.1473 123.12C64.2009 122.432 64.2411 120.274 64.268 117.494C64.268 117.296 64.2009 117.004 63.9059 116.845C63.651 116.673 63.356 116.607 62.833 116.554C62.7927 116.515 62.8061 116.223 62.8598 116.184Z" fill="url(#paint2_linear_2703_34606)"/>
<path d="M72.9868 116.172C73.3221 116.172 74.0195 116.225 74.7705 116.225H77.4125C77.9221 116.225 78.6195 116.212 78.9012 116.172C78.9146 116.185 78.9548 116.225 78.9548 116.238C78.8475 116.635 78.7536 117.522 78.7134 118.052C78.6598 118.118 78.3379 118.118 78.2976 118.078C78.2574 117.694 78.2038 117.469 78.1501 117.271C78.0428 116.953 77.9221 116.807 77.4796 116.768C77.2248 116.754 75.602 116.754 75.4277 116.768C75.3338 116.794 75.2667 116.953 75.2667 117.019C75.2533 117.76 75.2533 119.23 75.2533 119.826C75.2533 119.865 75.2801 119.918 75.3204 119.918C75.8568 119.931 76.8895 119.931 77.3723 119.892C77.6673 119.865 77.7612 119.706 77.8283 119.495C77.8819 119.349 77.9355 119.164 77.9758 118.965C78.0562 118.925 78.3647 118.939 78.4183 119.005C78.3781 119.27 78.3245 119.786 78.3245 120.249C78.3245 120.739 78.3379 121.123 78.3513 121.454C78.2842 121.52 77.9624 121.533 77.8953 121.467C77.8551 121.189 77.8417 121.083 77.788 120.924C77.7344 120.739 77.6405 120.567 77.332 120.54C76.9297 120.501 75.8166 120.501 75.3204 120.514C75.2935 120.514 75.2533 120.58 75.2533 120.62C75.2533 121.229 75.2533 122.632 75.2801 123.267C75.2801 123.532 75.4276 123.718 75.5886 123.77C75.8568 123.837 77.0236 123.85 77.5734 123.85C78.1501 123.837 78.3245 123.718 78.5659 123.413C78.7805 123.175 79.0621 122.645 79.2364 122.248C79.3035 122.235 79.5717 122.328 79.6254 122.394C79.5583 122.804 79.2633 123.81 79.0621 124.207C78.9816 124.353 78.9012 124.419 78.2306 124.419C77.1041 124.419 76.1384 124.366 74.7437 124.366C73.8451 124.366 73.1746 124.406 72.6247 124.406C72.5711 124.366 72.5577 124.088 72.6113 124.022C73.027 123.982 73.3891 123.956 73.6305 123.89C73.9524 123.81 74.0463 123.638 74.0865 123.175C74.0999 122.923 74.0999 121.467 74.0999 119.971C74.0999 118.767 74.0999 117.588 74.0865 117.35C74.0597 116.873 74.0061 116.754 73.6842 116.675C73.5098 116.622 73.2819 116.582 72.9734 116.543C72.9063 116.49 72.9332 116.238 72.9868 116.172Z" fill="url(#paint3_linear_2703_34606)"/>
<path d="M79.7719 116.184C80.0938 116.184 80.8314 116.223 81.4081 116.223C82.2127 116.223 82.9235 116.184 83.1247 116.184C83.1918 116.21 83.2052 116.515 83.1381 116.554C82.8431 116.607 82.6151 116.66 82.4407 116.7C82.2127 116.753 82.1859 116.925 82.253 117.11C82.6553 118.249 84.1842 122.286 84.439 122.882C84.4524 122.882 84.4792 122.882 84.506 122.869C84.8279 122.141 86.2495 118.606 86.625 117.454C86.7859 116.965 86.7189 116.766 86.3166 116.687L85.5923 116.554C85.5521 116.501 85.5789 116.21 85.6326 116.184C85.8472 116.184 86.3836 116.223 87.2151 116.223C87.9259 116.223 88.3014 116.184 88.6233 116.184C88.6769 116.223 88.6769 116.501 88.6233 116.554C88.3953 116.594 88.2075 116.634 88.0332 116.687C87.6174 116.819 87.4967 117.084 87.1749 117.825C86.7591 118.765 85.8606 120.976 85.19 122.617C84.8681 123.412 84.6267 124.073 84.4926 124.484C84.2915 124.444 83.8891 124.444 83.688 124.484C83.5538 123.968 83.3661 123.372 83.1113 122.683C82.4407 120.896 81.6092 118.712 81.2203 117.732C80.9118 117.004 80.7643 116.793 80.362 116.673C80.1876 116.634 79.9865 116.594 79.7317 116.554C79.678 116.501 79.7048 116.21 79.7719 116.184Z" fill="url(#paint4_linear_2703_34606)"/>
<path d="M88.8213 116.172C89.1566 116.172 89.8539 116.225 90.605 116.225H93.247C93.7566 116.225 94.454 116.212 94.7356 116.172C94.749 116.185 94.7893 116.225 94.7893 116.238C94.682 116.635 94.5881 117.522 94.5479 118.052C94.4942 118.118 94.1724 118.118 94.1321 118.078C94.0919 117.694 94.0382 117.469 93.9846 117.271C93.8773 116.953 93.7566 116.807 93.314 116.768C93.0592 116.754 91.4365 116.754 91.2621 116.768C91.1682 116.794 91.1012 116.953 91.1012 117.019C91.0878 117.76 91.0878 119.23 91.0878 119.826C91.0878 119.865 91.1146 119.918 91.1548 119.918C91.6913 119.931 92.7239 119.931 93.2068 119.892C93.5018 119.865 93.5957 119.706 93.6627 119.495C93.7164 119.349 93.77 119.164 93.8103 118.965C93.8907 118.925 94.1992 118.939 94.2528 119.005C94.2126 119.27 94.1589 119.786 94.1589 120.249C94.1589 120.739 94.1724 121.123 94.1858 121.454C94.1187 121.52 93.7968 121.533 93.7298 121.467C93.6896 121.189 93.6761 121.083 93.6225 120.924C93.5689 120.739 93.475 120.567 93.1665 120.54C92.7642 120.501 91.651 120.501 91.1548 120.514C91.128 120.514 91.0878 120.58 91.0878 120.62C91.0878 121.229 91.0878 122.632 91.1146 123.267C91.1146 123.532 91.2621 123.718 91.4231 123.77C91.6913 123.837 92.8581 123.85 93.4079 123.85C93.9846 123.837 94.1589 123.718 94.4003 123.413C94.6149 123.175 94.8966 122.645 95.0709 122.248C95.138 122.235 95.4062 122.328 95.4598 122.394C95.3928 122.804 95.0977 123.81 94.8966 124.207C94.8161 124.353 94.7356 124.419 94.0651 124.419C92.9385 124.419 91.9729 124.366 90.5782 124.366C89.6796 124.366 89.009 124.406 88.4592 124.406C88.4055 124.366 88.3921 124.088 88.4458 124.022C88.8615 123.982 89.2236 123.956 89.465 123.89C89.7869 123.81 89.8808 123.638 89.921 123.175C89.9344 122.923 89.9344 121.467 89.9344 119.971C89.9344 118.767 89.9344 117.588 89.921 117.35C89.8942 116.873 89.8405 116.754 89.5187 116.675C89.3443 116.622 89.1163 116.582 88.8079 116.543C88.7408 116.49 88.7676 116.238 88.8213 116.172Z" fill="url(#paint5_linear_2703_34606)"/>
<path d="M93.3393 7.67806L71.5461 44.9564L68.8706 40.3859L67.4222 37.9104L65.9738 35.4382C66.4029 35.1933 66.8924 35.0411 67.4222 35.0411C67.9419 35.0411 68.4247 35.1867 68.8438 35.4217L74.4899 25.5395L63.1038 25.5593V25.5626C63.1038 26.625 62.5137 27.5384 61.6453 28.0382L60.2003 25.5626L58.7485 23.0904L56.1099 18.573H70.1513C73.6751 18.573 74.0942 20.6844 73.189 22.3425L75.7807 23.4876L85.0512 7.68137H85.0411L88.7158 1.40654L86.2481 0C82.8517 5.8115 79.5325 7.4133 73.9098 7.67806H29.6597V10.4911C36.4591 10.4911 39.5202 12.5265 42.5646 17.1995L71.5428 66.7462L99.7196 18.563L99.7062 18.5696C103.066 12.9104 106.04 10.4878 113.466 10.4878V7.67475H93.3393V7.67806Z" fill="url(#paint6_linear_2703_34606)"/>
<path d="M81.0404 99.2506C80.923 99.1579 80.809 99.2506 80.6883 99.4392C79.8132 100.723 77.8049 101.928 75.1126 101.928C74.308 101.928 72.9635 101.743 71.4279 100.184C69.7515 98.4364 69.3291 95.5671 69.3291 94.101C69.3056 90.6525 70.7674 87.5481 74.2174 87.5481C76.0112 87.5481 77.2651 88.316 78.281 89.2956C79.2667 90.3017 79.9071 91.4898 80.172 92.4231C80.2424 92.6316 80.343 92.7242 80.457 92.6779L80.9767 92.5356C81.0907 92.5157 81.1175 92.3966 81.0907 92.2344C80.9767 91.5361 80.5509 87.5746 80.5509 87.1278C80.5509 86.8068 80.5039 86.7605 80.1519 86.7605C79.7965 86.7605 79.7495 86.7605 79.7026 86.8962L79.5182 87.482C79.4679 87.6441 79.3472 87.6673 79.0186 87.5018C78.1905 87.0583 76.4236 86.5222 74.2744 86.5222C71.3441 86.5222 69.3827 87.621 68.0382 89.0407C66.3887 90.7882 65.6075 92.9559 65.6075 95.3586C65.6075 97.3608 66.4356 100.042 68.1757 101.58C69.6643 102.884 71.3206 103.722 74.4588 103.722C77.7882 103.722 80.0781 101.835 81.4494 99.8761C81.5399 99.7371 81.5198 99.6411 81.4494 99.5948L81.0404 99.2506ZM113.408 102.491H112.798C112.369 102.491 111.46 102.272 111.447 101.25C111.447 101.25 111.447 101.246 111.447 101.243C111.43 99.9489 111.376 96.0238 111.376 95.8252V94.0282C111.376 93.8064 111.423 90.4473 111.44 89.0076V89.0043C111.454 87.9784 112.372 87.76 112.791 87.76H113.267V86.8035H99.9166V87.76H100.772C101.449 87.76 101.734 88.2465 101.734 88.5245C101.734 88.8025 101.734 89.2029 101.499 89.8085C101.12 90.861 100.386 92.8169 99.9401 93.962C99.6316 94.8026 98.4715 97.7117 97.7909 99.2771H97.6937C97.3886 98.3669 96.2084 94.9383 95.8999 94.0778C95.4037 92.7242 94.5085 89.9475 94.3141 89.1102C94.247 88.7859 94.247 88.5046 94.247 88.316C94.247 88.0148 94.6963 87.76 95.2629 87.76H96.4666V86.8035H88.4869V87.76H88.9463C89.3017 87.76 90.0191 87.9321 90.3913 88.9282C90.8238 90.0568 91.7861 92.7739 92.3594 94.1705C93.0233 95.7756 95.169 101.418 96.0441 103.262C96.1849 103.563 96.2755 103.841 96.5839 103.841C96.8421 103.841 96.9628 103.725 97.1271 103.447C97.5294 102.765 100.195 96.5235 100.792 95.2626C101.687 93.3067 102.703 90.5532 103.648 88.9679C104.262 87.9221 104.999 87.76 105.395 87.76H106.957C107.457 87.76 107.695 87.9916 107.739 88.5476C107.762 88.8521 107.836 93.0485 107.836 93.6079V95.2361C107.836 96.2489 107.789 99.79 107.745 101.243C107.735 102.266 106.813 102.484 106.391 102.484H105.777V103.444H113.405V103.305C113.405 103.301 113.405 103.301 113.405 103.301V102.649C113.405 102.646 113.405 102.646 113.405 102.646V102.491H113.408ZM13.3441 87.1113C13.2972 86.8498 13.2268 86.7108 13.1094 86.7108C12.9183 86.7108 12.402 86.8101 11.8789 86.8101C11.8052 86.8101 11.708 86.8101 11.594 86.8101H0V87.7666H0.80467C1.23383 87.7666 2.14579 87.985 2.15585 89.011C2.16926 90.0468 2.19943 92.1914 2.19943 92.9857V94.614C2.19943 97.6355 2.15585 100.048 2.12902 101.253C2.11561 102.275 1.20365 102.494 0.777848 102.494H0.402335V103.454H7.93606V102.494H7.11463C6.68882 102.494 5.77351 102.275 5.7601 101.253C5.75339 100.101 5.73998 97.4006 5.73998 96.8346V95.9477C6.70894 95.9477 7.53373 95.9708 8.28811 96.1098C8.71391 96.2257 9.16318 96.646 9.44482 97.0464C9.58564 97.2748 9.84715 97.9764 9.89409 98.1651C9.92092 98.3041 9.99132 98.3736 10.0819 98.3504L10.6015 98.2346C10.7155 98.2114 10.7658 98.1684 10.7658 98.0459C10.7155 97.5826 10.6485 96.464 10.6485 95.6234C10.6485 95.2957 10.6485 93.363 10.6954 92.9691C10.6954 92.8731 10.6485 92.807 10.5579 92.807L10.0114 92.754C9.91756 92.754 9.84715 92.8235 9.82368 92.9393C9.72981 93.3596 9.56552 93.8495 9.304 94.1771C8.92514 94.6669 8.47586 94.9648 8.07688 95.0144C7.62425 95.0839 6.65865 95.1534 5.73663 95.1534V94.0546C5.73663 92.6944 5.75675 88.3855 5.76345 87.7666H8.31493C9.02907 87.803 9.65604 87.8592 9.91756 87.9287C10.4808 88.0677 11.1212 88.5112 11.5437 88.9745C12.5126 89.9806 13.0792 90.7253 13.3844 91.1191C13.5486 91.3508 13.5956 91.3971 13.7163 91.3508L14.189 91.0959C14.2561 91.0695 14.2829 91.0033 14.2561 90.9073L13.3441 87.1113ZM142.031 102.491C141.676 102.491 141.062 102.209 140.663 101.445C140.331 100.816 138.792 96.4805 138.252 94.6603C137.807 93.1677 135.966 87.942 135.513 86.4759C135.443 86.2177 135.396 86.082 135.255 86.082C135.134 86.082 135.064 86.1747 134.947 86.2905C134.591 86.6844 133.056 87.2867 132.301 87.4522C132.113 87.4952 132.063 87.5945 132.063 87.6607C132.063 87.7566 132.157 87.8725 132.227 87.9618C132.392 88.22 132.281 88.5211 132.207 88.7528C131.996 89.3849 130.082 94.3955 129.891 94.8622C129.237 96.5864 127.718 100.131 127.363 100.962C126.95 101.905 126.239 102.249 125.589 102.322C124.318 102.467 123.252 102.434 122.142 102.434H120.798C120.731 101.508 120.731 96.4706 120.731 96.0734V94.0712C120.731 92.7011 120.778 90.0104 120.791 88.9944C120.808 87.9718 121.72 87.7533 122.146 87.7533H122.97V86.7969H115.366V87.7533H115.779C116.208 87.7533 117.123 87.9718 117.133 88.9977C117.157 89.8449 117.187 91.7148 117.187 92.9228V94.23C117.187 95.6498 117.116 101.451 117.116 101.895C117.116 102.15 116.976 102.474 116.101 102.474H115.202V103.434H130.886V102.474H129.8C129.093 102.474 128.878 101.915 128.878 101.405C128.878 100.657 130.031 97.4668 130.222 96.9769H135.396C135.674 97.8143 136.6 100.803 136.807 101.64C136.955 102.246 136.74 102.474 136.103 102.474H135.302V103.434H143V102.474H142.031V102.491ZM130.528 96.0602C130.722 95.4711 132.751 89.974 132.868 89.6729C132.935 89.4644 133.009 89.3684 133.149 89.3684C133.27 89.3684 133.314 89.5339 133.411 89.8847C133.575 90.4638 134.97 95.3652 135.185 96.0635H130.528V96.0602ZM59.606 87.7633H60.5012C61.0443 87.7633 61.6109 88.0909 61.7517 88.6668C61.8222 89.0209 61.9395 91.3044 61.963 92.2112C62.0133 93.3762 62.0334 94.5213 62.0334 96.593V98.7111H61.9395C61.6847 98.41 58.2347 94.1473 57.9027 93.7535C57.1953 92.8897 52.5249 87.2602 52.4075 87.1212C52.2198 86.9061 52.0354 86.8134 51.7235 86.8134C51.6062 86.8134 51.4319 86.8333 51.2005 86.8465H51.1334L51.7235 86.8101H46.5938V87.7666H47.3213C48.5049 87.7864 49.3565 89.0904 49.3565 90.4671V92.5687C49.3565 95.5406 49.2157 98.7111 49.162 99.8198C49.152 99.9886 49.1419 100.171 49.1251 100.363C49.1218 100.432 49.1117 100.502 49.1084 100.571C49.0011 101.494 48.696 102.494 47.5828 102.494H46.9995C46.4261 102.494 45.7824 102.213 45.3801 101.448C45.0515 100.819 43.5126 96.4838 42.9728 94.6636C42.5235 93.171 40.6794 87.9453 40.2335 86.4792C40.1631 86.221 40.1162 86.0853 39.972 86.0853C39.858 86.0853 39.7842 86.178 39.6703 86.2938C39.3149 86.6877 37.7793 87.29 37.0215 87.4555C36.8338 87.4985 36.7835 87.5978 36.7835 87.664C36.7835 87.76 36.8774 87.8758 36.9478 87.9651C37.1121 88.2233 36.9947 88.5245 36.9243 88.7561C36.7131 89.3882 34.7986 94.3988 34.6109 94.8655C33.8297 96.9207 32.2002 100.74 31.9052 101.256C31.5766 101.845 31.2682 102.398 30.5875 102.398C30.2053 102.398 29.9203 102.173 29.7527 101.997C29.2799 101.458 28.0059 99.6907 27.8617 99.4789C27.674 99.1976 26.3731 97.1292 26.068 96.7519C25.622 96.1893 25.2398 95.7458 24.5089 95.5141V95.352C26.591 95.1633 28.8307 93.8329 28.8307 90.8742C28.8307 90.0104 28.3311 89.1003 27.4828 88.3325C26.5172 87.4456 25.146 86.7969 23.3053 86.7969C23.2248 86.7969 23.1209 86.7969 23.0203 86.7969H15.2787V87.7533H15.6743C16.1001 87.7533 17.0154 87.9718 17.0255 88.9977C17.0255 89.0109 17.0255 89.0176 17.0255 89.0308C17.049 89.7126 17.049 91.1257 17.049 92.7639V95.0243C17.049 97.0795 17.0456 99.1215 17.0054 101.25C16.9853 102.262 16.08 102.481 15.6575 102.481H15.2317V103.44H22.1988V102.481H21.773C21.3506 102.481 20.4353 102.262 20.4252 101.24C20.3816 100.422 20.3313 98.4298 20.3313 97.288V96.0966H21.1293C22.2659 96.0966 23.2315 97.8209 24.0362 99.4061C24.4352 100.197 25.9003 102.898 26.6111 103.44H35.6V102.481H34.5103C33.8029 102.481 33.5883 101.921 33.5883 101.412C33.5883 100.664 34.745 97.4734 34.9361 96.9836H40.1095C40.3911 97.8209 41.3131 100.809 41.5243 101.647C41.6652 102.252 41.4539 102.481 40.8169 102.481H40.0156V103.44H52.8233V102.481H52.0488C51.0563 102.481 50.6305 101.786 50.5802 100.432C50.5601 99.5451 50.3455 96.6824 50.3455 94.743V90.0336H50.5333C51.0765 90.8047 54.3354 94.8125 54.7411 95.2759C55.187 95.7888 57.0746 98.0261 58.7745 100.008C60.1927 101.66 61.3494 102.894 61.7517 103.272C62.0133 103.526 62.315 103.646 62.6704 103.646C63.0023 103.646 63.0258 103.225 63.0258 102.874V98.9031C63.0258 95.8252 63.4047 90.5565 63.569 88.9977C63.6427 88.1571 63.8774 87.7633 64.2764 87.7633H65.0543V86.8068H59.5993V87.7633H59.606ZM21.3003 95.309C21.0891 95.309 20.8007 95.309 20.3548 95.2891L20.4722 88.4847C20.5258 88.2034 20.5962 87.9453 20.7337 87.8592C20.7773 87.8228 20.8242 87.7897 20.8812 87.7666H22.4972C23.0706 87.9122 23.7076 88.1968 24.2508 88.6701C24.7704 89.1864 25.146 90.2123 25.146 91.2813C25.1493 92.3734 24.415 95.309 21.3003 95.309ZM35.2479 96.0602C35.4357 95.4711 37.4708 89.974 37.5848 89.6729C37.6552 89.4644 37.7256 89.3684 37.8698 89.3684C37.9838 89.3684 38.0341 89.5339 38.128 89.8847C38.2956 90.4638 39.6837 95.3652 39.8982 96.0635H35.2479V96.0602Z" fill="url(#paint7_linear_2703_34606)"/>
<path d="M33.9751 120.328H13.8784V121.043H33.9751V120.328Z" fill="url(#paint8_linear_2703_34606)"/>
<path d="M128.026 120.328H107.933V121.043H128.026V120.328Z" fill="url(#paint9_linear_2703_34606)"/>
<defs>
<linearGradient id="paint0_linear_2703_34606" x1="48.9065" y1="115.982" x2="53.5431" y2="125.984" gradientUnits="userSpaceOnUse">
<stop stop-color="#ECC271"/>
<stop offset="1" stop-color="#7F642E"/>
</linearGradient>
<linearGradient id="paint1_linear_2703_34606" x1="57.3581" y1="116.172" x2="62.1096" y2="125.337" gradientUnits="userSpaceOnUse">
<stop stop-color="#ECC271"/>
<stop offset="1" stop-color="#7F642E"/>
</linearGradient>
<linearGradient id="paint2_linear_2703_34606" x1="65.6258" y1="116.184" x2="69.5492" y2="126.288" gradientUnits="userSpaceOnUse">
<stop stop-color="#ECC271"/>
<stop offset="1" stop-color="#7F642E"/>
</linearGradient>
<linearGradient id="paint3_linear_2703_34606" x1="74.6863" y1="116.172" x2="79.4377" y2="125.337" gradientUnits="userSpaceOnUse">
<stop stop-color="#ECC271"/>
<stop offset="1" stop-color="#7F642E"/>
</linearGradient>
<linearGradient id="paint4_linear_2703_34606" x1="82.3845" y1="116.184" x2="86.4952" y2="126.199" gradientUnits="userSpaceOnUse">
<stop stop-color="#ECC271"/>
<stop offset="1" stop-color="#7F642E"/>
</linearGradient>
<linearGradient id="paint5_linear_2703_34606" x1="90.5207" y1="116.172" x2="95.2722" y2="125.337" gradientUnits="userSpaceOnUse">
<stop stop-color="#ECC271"/>
<stop offset="1" stop-color="#7F642E"/>
</linearGradient>
<linearGradient id="paint6_linear_2703_34606" x1="54.7381" y1="-6.18506e-05" x2="84.2691" y2="83.6871" gradientUnits="userSpaceOnUse">
<stop stop-color="#ECC271"/>
<stop offset="1" stop-color="#7F642E"/>
</linearGradient>
<linearGradient id="paint7_linear_2703_34606" x1="42.7917" y1="86.082" x2="44.1652" y2="111.045" gradientUnits="userSpaceOnUse">
<stop stop-color="#ECC271"/>
<stop offset="1" stop-color="#7F642E"/>
</linearGradient>
<linearGradient id="paint8_linear_2703_34606" x1="19.8922" y1="120.328" x2="19.9081" y2="121.336" gradientUnits="userSpaceOnUse">
<stop stop-color="#ECC271"/>
<stop offset="1" stop-color="#7F642E"/>
</linearGradient>
<linearGradient id="paint9_linear_2703_34606" x1="113.945" y1="120.328" x2="113.961" y2="121.336" gradientUnits="userSpaceOnUse">
<stop stop-color="#ECC271"/>
<stop offset="1" stop-color="#7F642E"/>
</linearGradient>
</defs>
</svg>
