<svg width="52" height="52" viewBox="0 0 52 52" fill="none" xmlns="http://www.w3.org/2000/svg">
<path fill-rule="evenodd" clip-rule="evenodd" d="M0 23.4234C0 17.9833 1.85456 12.9764 4.96593 9.00031L7.83373 7.58411L8.97996 4.98188C12.9593 1.86089 17.974 0 23.4234 0H28.5766C34.0829 0 39.1454 1.89997 43.1444 5.08008L44.2629 7.57286L46.6367 8.50636C49.9869 12.5579 52 17.7556 52 23.4234V28.5766C52 34.2294 49.9976 39.4145 46.6634 43.4612L43.8041 44.7443L42.8614 47.1414C38.9078 50.1881 33.9538 52 28.5766 52H23.4234C18.2615 52 13.4895 50.3302 9.61821 47.5014L8.34887 44.931L5.52508 43.6872C2.07801 39.6083 0 34.3351 0 28.5766V23.4234Z" fill="url(#paint0_linear_2853_1845)"/>
<ellipse cx="26" cy="25.998" rx="23.1386" ry="23.1386" fill="url(#paint1_linear_2853_1845)"/>
<ellipse cx="26.0001" cy="26.0018" rx="19.9471" ry="19.9471" fill="url(#paint2_linear_2853_1845)"/>
<path d="M33.2756 18.6458L25.9944 31.4915L25.1005 29.9166L24.6166 29.0635L24.1327 28.2116C24.276 28.1272 24.4396 28.0748 24.6166 28.0748C24.7902 28.0748 24.9515 28.125 25.0915 28.2059L26.9779 24.8006L23.1738 24.8075V24.8086C23.1738 25.1747 22.9766 25.4894 22.6865 25.6616L22.2037 24.8086L21.7187 23.9567L20.8371 22.4H25.5284C26.7057 22.4 26.8457 23.1276 26.5433 23.699L27.4092 24.0936L30.5065 18.6469H30.5031L31.7308 16.4847L30.9064 16C29.7716 18.0026 28.6627 18.5545 26.7841 18.6458H12V19.6151C14.2717 19.6151 15.2944 20.3165 16.3116 21.9268L25.9933 39L35.4073 22.3966L35.4028 22.3989C36.5252 20.4488 37.5188 19.614 40 19.614V18.6446H33.2756V18.6458Z" fill="url(#paint3_linear_2853_1845)"/>
<defs>
<linearGradient id="paint0_linear_2853_1845" x1="15.5606" y1="-3.61164e-05" x2="39.2329" y2="2.72092" gradientUnits="userSpaceOnUse">
<stop stop-color="#16202B"/>
<stop offset="1" stop-color="#101419"/>
</linearGradient>
<linearGradient id="paint1_linear_2853_1845" x1="16.7094" y1="2.85933" x2="40.8748" y2="57.4004" gradientUnits="userSpaceOnUse">
<stop stop-color="#20303D"/>
<stop offset="1" stop-color="#0C131B"/>
</linearGradient>
<linearGradient id="paint2_linear_2853_1845" x1="20.9085" y1="5.34321" x2="37.1704" y2="45.151" gradientUnits="userSpaceOnUse">
<stop stop-color="#0B0C10"/>
<stop offset="1" stop-color="#1D2835"/>
</linearGradient>
<linearGradient id="paint3_linear_2853_1845" x1="20.3788" y1="16" x2="30.8006" y2="44.6355" gradientUnits="userSpaceOnUse">
<stop stop-color="#ECC271"/>
<stop offset="1" stop-color="#7F642E"/>
</linearGradient>
</defs>
</svg>
