<svg width="136" height="60" viewBox="0 0 136 60" fill="none" xmlns="http://www.w3.org/2000/svg">
<path d="M4.12343 59.1895V58.3691C4.95025 58.3626 5.43202 58.3008 5.56874 58.1836C5.67291 58.1055 5.73476 57.8743 5.75429 57.4902C5.83241 56.2207 5.87148 54.7559 5.87148 53.0957C5.87148 51.8652 5.8552 50.5469 5.82265 49.1406C5.7901 47.7279 5.73476 46.9141 5.65663 46.6992C5.61757 46.6016 5.56223 46.5332 5.49062 46.4941C5.37994 46.4225 4.92421 46.3639 4.12343 46.3184V45.498C5.26275 45.5306 6.24257 45.5469 7.06288 45.5469C8.2608 45.5469 9.51731 45.5306 10.8324 45.498C11.6983 45.472 12.4275 45.459 13.0199 45.459C13.4431 45.459 13.8467 45.472 14.2309 45.498L14.3285 45.7031C14.1918 46.5299 14.1072 47.5033 14.0746 48.623H13.2543L13.1762 47.5781C13.1566 47.2461 13.1111 47.0443 13.0394 46.9727C12.9743 46.8945 12.7335 46.8164 12.3168 46.7383C11.9066 46.6602 11.3174 46.6211 10.5492 46.6211C9.9828 46.6211 9.38385 46.6504 8.75233 46.709C8.68072 47.8092 8.64491 48.5872 8.64491 49.043L8.66444 51.1426L8.65468 51.5918C9.0453 51.6048 9.51731 51.6113 10.0707 51.6113C11.0668 51.6113 11.6657 51.5885 11.8676 51.543C11.9717 51.5169 12.0466 51.4648 12.0922 51.3867C12.1638 51.25 12.2224 50.8431 12.268 50.166H13.1078C13.0883 50.7389 13.0785 51.3086 13.0785 51.875C13.0785 52.4089 13.0883 53.2585 13.1078 54.4238H12.268C12.2159 53.5775 12.154 53.0827 12.0824 52.9395C12.0434 52.8613 11.962 52.806 11.8383 52.7734C11.5258 52.6888 10.891 52.6465 9.93398 52.6465L8.65468 52.666L8.69374 56.416C8.71978 57.321 8.76536 57.8451 8.83046 57.9883C8.87603 58.0794 8.94439 58.1478 9.03554 58.1934C9.16575 58.2585 9.70937 58.3171 10.6664 58.3691V59.1895C9.62473 59.1439 8.64817 59.1211 7.73671 59.1211C6.92942 59.1211 5.72499 59.1439 4.12343 59.1895ZM15.2367 59.1895V58.3691C15.9919 58.304 16.4249 58.2422 16.5355 58.1836C16.6072 58.1445 16.6592 58.0827 16.6918 57.998C16.7569 57.8418 16.8025 57.3145 16.8285 56.416C16.8611 55.0228 16.8773 53.9258 16.8773 53.125C16.8773 52.0443 16.8643 50.6706 16.8383 49.0039C16.8122 47.7604 16.7504 46.9987 16.6527 46.7188C16.6267 46.6341 16.5746 46.569 16.4965 46.5234C16.3923 46.4583 15.9724 46.3867 15.2367 46.3086V45.4883C16.5844 45.5404 17.4535 45.5664 17.8441 45.5664L22.7367 45.4785C23.7979 45.4785 24.5694 45.5827 25.0512 45.791C25.5394 45.9928 25.9236 46.3216 26.2035 46.7773C26.49 47.2266 26.6332 47.7572 26.6332 48.3691C26.6332 49.1504 26.4053 49.8372 25.9496 50.4297C25.5004 51.0156 24.7159 51.5365 23.5961 51.9922L25.6762 55.127L27.2973 57.5293C27.6032 57.9199 27.8311 58.1576 27.9809 58.2422C28.1306 58.3203 28.3747 58.3626 28.7133 58.3691V59.1211L28.1371 59.1309C26.4835 59.1439 25.419 59.1634 24.9437 59.1895C24.3773 58.2845 23.531 56.9727 22.4047 55.2539L20.393 52.1973C20.4516 52.0866 20.5004 51.9694 20.5394 51.8457C20.7999 51.8783 20.9919 51.8945 21.1156 51.8945C21.7211 51.8945 22.3168 51.6504 22.9027 51.1621C23.4887 50.6738 23.7816 49.9772 23.7816 49.0723C23.7816 48.2845 23.5505 47.6725 23.0883 47.2363C22.626 46.8001 21.9327 46.582 21.0082 46.582C20.7152 46.582 20.3181 46.6048 19.8168 46.6504L19.7484 49.5312L19.6605 53.1836C19.6605 54.0104 19.6931 55.0684 19.7582 56.3574C19.8103 57.3275 19.8624 57.8711 19.9144 57.9883C19.9535 58.0729 20.0251 58.1413 20.1293 58.1934C20.266 58.2715 20.7087 58.3301 21.4574 58.3691V59.1895C20.2855 59.1439 19.2471 59.1211 18.3422 59.1211C17.3786 59.1211 16.3435 59.1439 15.2367 59.1895ZM29.6019 58.3008C30.2139 58.2682 30.5915 58.2064 30.7348 58.1152C30.8324 58.0501 30.9854 57.8027 31.1937 57.373C31.5909 56.5267 32.0987 55.3516 32.7172 53.8477L36.1742 45.3809H37.6098L42.0238 55.8691C42.5967 57.2298 42.9483 57.9753 43.0785 58.1055C43.2152 58.2357 43.6286 58.3236 44.3187 58.3691V59.1895C43.2575 59.1439 42.2549 59.1211 41.3109 59.1211C40.1846 59.1211 39.1137 59.1439 38.098 59.1895V58.3691C38.8728 58.3366 39.3187 58.2943 39.4359 58.2422C39.5596 58.1836 39.6215 58.0827 39.6215 57.9395C39.6215 57.8158 39.4848 57.3926 39.2113 56.6699L38.5668 55C37.7595 54.987 36.8578 54.9805 35.8617 54.9805C34.9958 54.9805 34.2081 54.987 33.4984 55L33.0687 56.123C32.9516 56.429 32.8083 56.8848 32.6391 57.4902C32.6 57.627 32.5805 57.7507 32.5805 57.8613C32.5805 58.0111 32.6423 58.1185 32.766 58.1836C32.8962 58.2422 33.3552 58.304 34.143 58.3691V59.1895C33.5049 59.1439 32.7107 59.1211 31.7601 59.1211C30.8552 59.1211 30.1358 59.1439 29.6019 59.1895V58.3008ZM36.0082 48.8379L33.9476 53.8477C34.5466 53.8802 35.2074 53.8965 35.9301 53.8965C36.6853 53.8965 37.4079 53.8802 38.098 53.8477L36.0082 48.8379ZM45.2172 59.1895V58.3691C46.0114 58.3366 46.4769 58.2845 46.6137 58.2129C46.7048 58.1608 46.7732 58.0762 46.8187 57.959C46.8904 57.8027 46.9359 57.2526 46.9555 56.3086C46.9945 54.7461 47.0141 53.5677 47.0141 52.7734L46.9945 48.6426C46.9945 47.5488 46.9587 46.9173 46.8871 46.748C46.848 46.6504 46.7862 46.5788 46.7016 46.5332C46.5713 46.4551 46.0766 46.3802 45.2172 46.3086V45.4883C46.2458 45.5208 47.0075 45.5371 47.5023 45.5371C48.0492 45.5371 48.671 45.5208 49.3676 45.4883C50.865 47.4023 52.5577 49.4792 54.4457 51.7188C55.7022 53.2161 56.7862 54.4531 57.6976 55.4297V51.5625C57.6976 50.0977 57.6781 48.8346 57.6391 47.7734C57.613 47.1419 57.5609 46.7546 57.4828 46.6113C57.4437 46.5332 57.3721 46.4779 57.268 46.4453C57.1638 46.4128 56.7081 46.3672 55.9008 46.3086V45.4883C56.6104 45.5208 57.3168 45.5371 58.0199 45.5371C58.9835 45.5371 59.8559 45.5208 60.6371 45.4883V46.3086C59.9079 46.3542 59.4685 46.4062 59.3187 46.4648C59.2341 46.4974 59.1657 46.543 59.1137 46.6016C59.0616 46.6602 59.0225 46.735 58.9965 46.8262C58.9509 46.9824 58.9249 47.4837 58.9184 48.3301L58.8891 52.2363L58.8695 56.1719C58.8695 57.2266 58.8923 58.2812 58.9379 59.3359L58.8109 59.4727C58.0232 59.3294 57.4665 59.235 57.141 59.1895C55.4678 57.334 53.4463 55.0033 51.0766 52.1973C49.8786 50.778 48.9118 49.5833 48.1762 48.6133V52.4121C48.1762 53.4473 48.1924 54.694 48.225 56.1523C48.2445 57.2266 48.2901 57.8451 48.3617 58.0078C48.3878 58.0794 48.4366 58.1348 48.5082 58.1738C48.6319 58.2454 49.1006 58.3105 49.9144 58.3691V59.1895C48.8598 59.1439 48.1045 59.1211 47.6488 59.1211C47.2712 59.1211 46.4607 59.1439 45.2172 59.1895ZM74.7973 57.0703L75.0414 57.2949C74.8721 57.6204 74.7224 57.9525 74.5922 58.291C73.837 58.6882 73.1078 58.9681 72.4047 59.1309C71.7081 59.3001 70.904 59.3848 69.9926 59.3848C68.2868 59.3848 66.8448 59.0853 65.6664 58.4863C64.488 57.8874 63.5798 57.0443 62.9418 55.957C62.3103 54.8698 61.9945 53.623 61.9945 52.2168C61.9945 50.1921 62.7107 48.5352 64.143 47.2461C65.5818 45.9505 67.5642 45.3027 70.0902 45.3027C70.9301 45.3027 71.7601 45.3776 72.5805 45.5273C73.4073 45.6771 74.2276 45.9049 75.0414 46.2109L75.1098 46.3574C74.9926 46.709 74.9112 47.0475 74.8656 47.373C74.781 47.9395 74.7159 48.6426 74.6703 49.4824H73.85C73.8109 48.4538 73.7719 47.8906 73.7328 47.793C73.6937 47.6888 73.5147 47.5163 73.1957 47.2754C72.8767 47.028 72.4437 46.8294 71.8969 46.6797C71.3565 46.5234 70.7575 46.4453 70.1 46.4453C68.5375 46.4453 67.294 46.9271 66.3695 47.8906C65.4516 48.8542 64.9926 50.1953 64.9926 51.9141C64.9926 53.776 65.546 55.2832 66.6527 56.4355C67.6749 57.5033 69.0779 58.0371 70.8617 58.0371C71.5518 58.0371 72.1963 57.9655 72.7953 57.8223C73.4008 57.679 74.0681 57.4284 74.7973 57.0703ZM80.8031 46.3086V45.4883C82.0401 45.5339 83.1729 45.5566 84.2016 45.5566C85.113 45.5566 86.1124 45.5339 87.1996 45.4883V46.3086C86.4444 46.3607 85.9919 46.4225 85.8422 46.4941C85.6989 46.5592 85.6273 46.6667 85.6273 46.8164C85.6273 47.0052 85.9008 47.7734 86.4476 49.1211L89.2113 55.8594L91.4184 50.4102C92.2322 48.4049 92.6391 47.2005 92.6391 46.7969C92.6391 46.6471 92.5674 46.5397 92.4242 46.4746C92.2875 46.4095 91.8155 46.3542 91.0082 46.3086V45.4883C92.1996 45.5339 92.9971 45.5566 93.4008 45.5566C93.8239 45.5566 94.5792 45.5339 95.6664 45.4883V46.3086C95.0088 46.3737 94.628 46.4518 94.5238 46.543C94.3676 46.6667 93.99 47.4154 93.391 48.7891L90.393 55.9766C89.781 57.3958 89.3448 58.5319 89.0844 59.3848H87.6586L84.2016 51.1035C83.4073 49.2155 82.8506 47.9362 82.5316 47.2656C82.3493 46.8685 82.1898 46.6276 82.0531 46.543C81.9229 46.4518 81.5062 46.3737 80.8031 46.3086ZM96.9359 59.1895V58.3691C97.8344 58.3236 98.3422 58.2487 98.4594 58.1445C98.5766 58.0404 98.6482 57.7832 98.6742 57.373C98.7198 56.5137 98.7426 54.9121 98.7426 52.5684C98.7426 51.6699 98.7295 50.3678 98.7035 48.6621C98.6905 47.4967 98.6644 46.8587 98.6254 46.748C98.5863 46.6309 98.518 46.5462 98.4203 46.4941C98.2771 46.4225 97.7823 46.3607 96.9359 46.3086V45.4883C98.2771 45.5404 99.3025 45.5664 100.012 45.5664C101.236 45.5664 102.343 45.5404 103.332 45.4883V46.3086C102.447 46.3607 101.946 46.4323 101.829 46.5234C101.718 46.6081 101.646 46.8099 101.614 47.1289C101.555 47.7539 101.526 49.0202 101.526 50.9277C101.526 53.4668 101.536 55.2376 101.555 56.2402C101.575 57.2363 101.633 57.8288 101.731 58.0176C101.77 58.1022 101.851 58.1706 101.975 58.2227C102.105 58.2682 102.558 58.3171 103.332 58.3691V59.1895L102.18 59.1602C101.451 59.1341 100.8 59.1211 100.227 59.1211L96.9359 59.1895ZM105.354 59.1895V58.6816C105.712 58.5124 106.051 58.3138 106.37 58.0859C106.454 56.3216 106.496 54.4824 106.496 52.5684C106.496 51.0645 106.48 49.6452 106.448 48.3105C106.428 47.36 106.383 46.8132 106.311 46.6699C106.278 46.5853 106.21 46.5234 106.106 46.4844C106.008 46.4388 105.536 46.3802 104.69 46.3086V45.4883C105.946 45.5208 107.112 45.5371 108.186 45.5371C109.228 45.5371 110.214 45.5208 111.145 45.4883V46.3086C110.246 46.3672 109.729 46.4453 109.592 46.543C109.508 46.6016 109.446 46.722 109.407 46.9043C109.374 47.0801 109.348 48.1315 109.329 50.0586L109.27 54.8145C109.27 55.7064 109.293 56.7383 109.338 57.9102C110.191 57.9557 110.823 57.9785 111.233 57.9785C112.463 57.9785 113.498 57.8841 114.338 57.6953C114.508 57.1029 114.674 56.3965 114.836 55.5762H115.696C115.552 56.5072 115.426 57.6628 115.315 59.043C114.696 59.1341 114.127 59.1797 113.606 59.1797L110.071 59.1406L108.489 59.1211C107.759 59.1146 106.715 59.1374 105.354 59.1895ZM116.868 58.3008C117.48 58.2682 117.857 58.2064 118 58.1152C118.098 58.0501 118.251 57.8027 118.459 57.373C118.857 56.5267 119.364 55.3516 119.983 53.8477L123.44 45.3809H124.875L129.289 55.8691C129.862 57.2298 130.214 57.9753 130.344 58.1055C130.481 58.2357 130.894 58.3236 131.584 58.3691V59.1895C130.523 59.1439 129.521 59.1211 128.577 59.1211C127.45 59.1211 126.379 59.1439 125.364 59.1895V58.3691C126.138 58.3366 126.584 58.2943 126.702 58.2422C126.825 58.1836 126.887 58.0827 126.887 57.9395C126.887 57.8158 126.75 57.3926 126.477 56.6699L125.832 55C125.025 54.987 124.123 54.9805 123.127 54.9805C122.261 54.9805 121.474 54.987 120.764 55L120.334 56.123C120.217 56.429 120.074 56.8848 119.905 57.4902C119.866 57.627 119.846 57.7507 119.846 57.8613C119.846 58.0111 119.908 58.1185 120.032 58.1836C120.162 58.2422 120.621 58.304 121.409 58.3691V59.1895C120.771 59.1439 119.976 59.1211 119.026 59.1211C118.121 59.1211 117.401 59.1439 116.868 59.1895V58.3008ZM123.274 48.8379L121.213 53.8477C121.812 53.8802 122.473 53.8965 123.196 53.8965C123.951 53.8965 124.674 53.8802 125.364 53.8477L123.274 48.8379Z" fill="url(#paint0_linear_454_7663)"/>
<path d="M76.9663 3.65302L66.5774 21.3891L65.3019 19.2146L64.6114 18.0368L63.921 16.8606C64.1256 16.7441 64.3589 16.6716 64.6114 16.6716C64.8592 16.6716 65.0893 16.7409 65.2891 16.8527L67.9807 12.151L62.5528 12.1605V12.162C62.5528 12.6675 62.2715 13.1021 61.8576 13.3398L61.1687 12.162L60.4766 10.9858L59.2188 8.83654H65.9125C67.5923 8.83654 67.7921 9.84112 67.3605 10.63L68.596 11.1748L73.0153 3.6546H73.0105L74.7623 0.669196L73.5859 0C71.9668 2.76496 70.3845 3.52706 67.7042 3.65302H46.6097V4.99141C49.8511 4.99141 51.3104 5.95978 52.7616 8.18308L66.5758 31.7561L80.0079 8.83181L80.0015 8.83496C81.603 6.14243 83.0207 4.98984 86.561 4.98984V3.65145H76.9663V3.65302Z" fill="url(#paint1_linear_454_7663)"/>
<defs>
<linearGradient id="paint0_linear_454_7663" x1="40.4634" y1="39.1211" x2="42.2064" y2="66.4521" gradientUnits="userSpaceOnUse">
<stop stop-color="#ECC271"/>
<stop offset="1" stop-color="#7F642E"/>
</linearGradient>
<linearGradient id="paint1_linear_454_7663" x1="58.5648" y1="-2.94269e-05" x2="72.5935" y2="39.8334" gradientUnits="userSpaceOnUse">
<stop stop-color="#ECC271"/>
<stop offset="1" stop-color="#7F642E"/>
</linearGradient>
</defs>
</svg>
