<svg width="370" height="362" viewBox="0 0 370 362" fill="none" xmlns="http://www.w3.org/2000/svg">
<g filter="url(#filter0_d_3624_55309)">
<path d="M37.6471 0L185 61.679L332.353 0L352 198.827L185 326L18 198.827L37.6471 0Z" fill="url(#paint0_linear_3624_55309)"/>
<path d="M352 198.827L332.353 0L185 61.679V326L352 198.827Z" fill="url(#paint1_linear_3624_55309)"/>
<path d="M50.6488 14.3828L185 70.6195L319.351 14.3828L337.265 195.667L185 311.618L32.7354 195.667L50.6488 14.3828Z" fill="url(#paint2_linear_3624_55309)"/>
<path d="M337.265 195.667L319.351 14.3828L185 70.6195V311.618L337.265 195.667Z" fill="url(#paint3_linear_3624_55309)"/>
<path d="M66.053 31.4229L185 81.2118L303.947 31.4229L319.807 191.922L185 294.579L50.1934 191.922L66.053 31.4229Z" fill="url(#paint4_linear_3624_55309)"/>
<path d="M319.807 191.922L303.947 31.4229L185 81.2118V294.579L319.807 191.922Z" fill="url(#paint5_linear_3624_55309)"/>
<path d="M81.1435 48.1152L185 91.5875L288.857 48.1152L302.704 188.252L185 277.885L67.2959 188.252L81.1435 48.1152Z" fill="url(#paint6_linear_3624_55309)"/>
<path d="M302.704 188.252L288.857 48.1152L185 91.5875V277.885L302.704 188.252Z" fill="url(#paint7_linear_3624_55309)"/>
<path d="M95.3455 63.8262L185 101.354L274.654 63.8262L286.608 184.799L185 262.175L83.3916 184.799L95.3455 63.8262Z" fill="url(#paint8_linear_3624_55309)"/>
<path d="M286.608 184.799L274.654 63.8262L185 101.354V262.175L286.608 184.799Z" fill="url(#paint9_linear_3624_55309)"/>
<path d="M110.436 80.5195L185 111.73L259.563 80.5195L269.505 181.13L185 245.482L100.494 181.13L110.436 80.5195Z" fill="url(#paint10_linear_3624_55309)"/>
<path d="M269.505 181.13L259.564 80.5195L185 111.73V245.482L269.505 181.13Z" fill="url(#paint11_linear_3624_55309)"/>
<path d="M126.414 98.1934L185 122.716L243.585 98.1934L251.397 177.245L185 227.807L118.603 177.245L126.414 98.1934Z" fill="url(#paint12_linear_3624_55309)"/>
<path d="M251.397 177.245L243.586 98.1934L185 122.716V227.807L251.397 177.245Z" fill="url(#paint13_linear_3624_55309)"/>
<path d="M142.392 115.868L185 133.703L227.607 115.868L233.288 173.36L185 210.132L136.711 173.36L142.392 115.868Z" fill="url(#paint14_linear_3624_55309)"/>
<path d="M233.289 173.36L227.608 115.868L185 133.703V210.132L233.289 173.36Z" fill="url(#paint15_linear_3624_55309)"/>
</g>
<defs>
<filter id="filter0_d_3624_55309" x="0" y="0" width="370" height="362" filterUnits="userSpaceOnUse" color-interpolation-filters="sRGB">
<feFlood flood-opacity="0" result="BackgroundImageFix"/>
<feColorMatrix in="SourceAlpha" type="matrix" values="0 0 0 0 0 0 0 0 0 0 0 0 0 0 0 0 0 0 127 0" result="hardAlpha"/>
<feOffset dy="18"/>
<feGaussianBlur stdDeviation="9"/>
<feComposite in2="hardAlpha" operator="out"/>
<feColorMatrix type="matrix" values="0 0 0 0 0 0 0 0 0 0 0 0 0 0 0 0 0 0 0.15 0"/>
<feBlend mode="normal" in2="BackgroundImageFix" result="effect1_dropShadow_3624_55309"/>
<feBlend mode="normal" in="SourceGraphic" in2="effect1_dropShadow_3624_55309" result="shape"/>
</filter>
<linearGradient id="paint0_linear_3624_55309" x1="185" y1="-1.21248e-05" x2="185" y2="326" gradientUnits="userSpaceOnUse">
<stop stop-color="#ECC271"/>
<stop offset="1" stop-color="#35270A"/>
</linearGradient>
<linearGradient id="paint1_linear_3624_55309" x1="268.5" y1="-1.21248e-05" x2="268.5" y2="326" gradientUnits="userSpaceOnUse">
<stop stop-color="#ECC271"/>
<stop offset="1" stop-color="#35270A"/>
</linearGradient>
<linearGradient id="paint2_linear_3624_55309" x1="185" y1="14.3828" x2="185" y2="311.618" gradientUnits="userSpaceOnUse">
<stop stop-color="#ECC271"/>
<stop offset="1" stop-color="#35270A"/>
</linearGradient>
<linearGradient id="paint3_linear_3624_55309" x1="261.132" y1="14.3828" x2="261.132" y2="311.618" gradientUnits="userSpaceOnUse">
<stop stop-color="#ECC271"/>
<stop offset="1" stop-color="#35270A"/>
</linearGradient>
<linearGradient id="paint4_linear_3624_55309" x1="185" y1="31.4228" x2="185" y2="294.579" gradientUnits="userSpaceOnUse">
<stop stop-color="#ECC271"/>
<stop offset="1" stop-color="#35270A"/>
</linearGradient>
<linearGradient id="paint5_linear_3624_55309" x1="252.403" y1="31.4228" x2="252.403" y2="294.579" gradientUnits="userSpaceOnUse">
<stop stop-color="#ECC271"/>
<stop offset="1" stop-color="#35270A"/>
</linearGradient>
<linearGradient id="paint6_linear_3624_55309" x1="185" y1="48.1152" x2="185" y2="277.885" gradientUnits="userSpaceOnUse">
<stop stop-color="#ECC271"/>
<stop offset="1" stop-color="#35270A"/>
</linearGradient>
<linearGradient id="paint7_linear_3624_55309" x1="243.852" y1="48.1152" x2="243.852" y2="277.885" gradientUnits="userSpaceOnUse">
<stop stop-color="#ECC271"/>
<stop offset="1" stop-color="#35270A"/>
</linearGradient>
<linearGradient id="paint8_linear_3624_55309" x1="185" y1="63.8262" x2="185" y2="262.175" gradientUnits="userSpaceOnUse">
<stop stop-color="#ECC271"/>
<stop offset="1" stop-color="#35270A"/>
</linearGradient>
<linearGradient id="paint9_linear_3624_55309" x1="235.804" y1="63.8262" x2="235.804" y2="262.175" gradientUnits="userSpaceOnUse">
<stop stop-color="#ECC271"/>
<stop offset="1" stop-color="#35270A"/>
</linearGradient>
<linearGradient id="paint10_linear_3624_55309" x1="185" y1="80.5195" x2="185" y2="245.482" gradientUnits="userSpaceOnUse">
<stop stop-color="#ECC271"/>
<stop offset="1" stop-color="#35270A"/>
</linearGradient>
<linearGradient id="paint11_linear_3624_55309" x1="227.253" y1="80.5195" x2="227.253" y2="245.482" gradientUnits="userSpaceOnUse">
<stop stop-color="#ECC271"/>
<stop offset="1" stop-color="#35270A"/>
</linearGradient>
<linearGradient id="paint12_linear_3624_55309" x1="185" y1="98.1934" x2="185" y2="227.807" gradientUnits="userSpaceOnUse">
<stop stop-color="#ECC271"/>
<stop offset="1" stop-color="#35270A"/>
</linearGradient>
<linearGradient id="paint13_linear_3624_55309" x1="218.199" y1="98.1934" x2="218.199" y2="227.807" gradientUnits="userSpaceOnUse">
<stop stop-color="#ECC271"/>
<stop offset="1" stop-color="#35270A"/>
</linearGradient>
<linearGradient id="paint14_linear_3624_55309" x1="185" y1="115.868" x2="185" y2="210.132" gradientUnits="userSpaceOnUse">
<stop stop-color="#ECC271"/>
<stop offset="1" stop-color="#35270A"/>
</linearGradient>
<linearGradient id="paint15_linear_3624_55309" x1="209.144" y1="115.868" x2="209.144" y2="210.132" gradientUnits="userSpaceOnUse">
<stop stop-color="#ECC271"/>
<stop offset="1" stop-color="#35270A"/>
</linearGradient>
</defs>
</svg>
