<svg width="350" height="362" viewBox="0 0 370 362" fill="none" xmlns="http://www.w3.org/2000/svg">
<g filter="url(#filter0_d_1862_22890)">
<path d="M37.6471 0L185 61.679L332.353 0L352 198.827L185 326L18 198.827L37.6471 0Z" fill="url(#paint0_linear_1862_22890)"/>
<path d="M352 198.827L332.353 0L185 61.679V326L352 198.827Z" fill="url(#paint1_radial_1862_22890)"/>
<path d="M50.6488 14.3828L185 70.6195L319.351 14.3828L337.265 195.667L185 311.618L32.7353 195.667L50.6488 14.3828Z" fill="url(#paint2_linear_1862_22890)"/>
<path d="M337.265 195.667L319.351 14.3828L185 70.6195V311.618L337.265 195.667Z" fill="url(#paint3_radial_1862_22890)"/>
<path d="M66.0528 31.4229L185 81.2118L303.947 31.4229L319.807 191.922L185 294.579L50.1932 191.922L66.0528 31.4229Z" fill="url(#paint4_linear_1862_22890)"/>
<path d="M319.807 191.922L303.947 31.4229L185 81.2118V294.579L319.807 191.922Z" fill="url(#paint5_radial_1862_22890)"/>
<path d="M81.1433 48.1152L185 91.5875L288.857 48.1152L302.704 188.252L185 277.885L67.2958 188.252L81.1433 48.1152Z" fill="url(#paint6_linear_1862_22890)"/>
<path d="M302.704 188.252L288.857 48.1152L185 91.5875V277.885L302.704 188.252Z" fill="url(#paint7_radial_1862_22890)"/>
<path d="M95.3459 63.8262L185 101.354L274.654 63.8262L286.608 184.799L185 262.175L83.392 184.799L95.3459 63.8262Z" fill="url(#paint8_linear_1862_22890)"/>
<path d="M286.608 184.799L274.654 63.8262L185 101.354V262.175L286.608 184.799Z" fill="url(#paint9_radial_1862_22890)"/>
<path d="M110.436 80.5195L185 111.73L259.564 80.5195L269.505 181.13L185 245.482L100.495 181.13L110.436 80.5195Z" fill="url(#paint10_linear_1862_22890)"/>
<path d="M269.505 181.13L259.564 80.5195L185 111.73V245.482L269.505 181.13Z" fill="url(#paint11_radial_1862_22890)"/>
<path d="M126.414 98.1934L185 122.716L243.586 98.1934L251.397 177.245L185 227.807L118.603 177.245L126.414 98.1934Z" fill="url(#paint12_linear_1862_22890)"/>
<path d="M251.397 177.245L243.586 98.1934L185 122.716V227.807L251.397 177.245Z" fill="url(#paint13_radial_1862_22890)"/>
<path d="M142.392 115.868L185 133.703L227.608 115.868L233.289 173.36L185 210.132L136.711 173.36L142.392 115.868Z" fill="url(#paint14_linear_1862_22890)"/>
<path d="M233.289 173.36L227.608 115.868L185 133.703V210.132L233.289 173.36Z" fill="url(#paint15_radial_1862_22890)"/>
</g>
<defs>
<filter id="filter0_d_1862_22890" x="0" y="0" width="370" height="362" filterUnits="userSpaceOnUse" color-interpolation-filters="sRGB">
<feFlood flood-opacity="0" result="BackgroundImageFix"/>
<feColorMatrix in="SourceAlpha" type="matrix" values="0 0 0 0 0 0 0 0 0 0 0 0 0 0 0 0 0 0 127 0" result="hardAlpha"/>
<feOffset dy="18"/>
<feGaussianBlur stdDeviation="9"/>
<feComposite in2="hardAlpha" operator="out"/>
<feColorMatrix type="matrix" values="0 0 0 0 0 0 0 0 0 0 0 0 0 0 0 0 0 0 0.25 0"/>
<feBlend mode="normal" in2="BackgroundImageFix" result="effect1_dropShadow_1862_22890"/>
<feBlend mode="normal" in="SourceGraphic" in2="effect1_dropShadow_1862_22890" result="shape"/>
</filter>
<linearGradient id="paint0_linear_1862_22890" x1="122.129" y1="1.16923e-06" x2="184.948" y2="326.01" gradientUnits="userSpaceOnUse">
<stop stop-color="#D50000"/>
<stop offset="1" stop-color="#220C0C"/>
</linearGradient>
<radialGradient id="paint1_radial_1862_22890" cx="0" cy="0" r="1" gradientUnits="userSpaceOnUse" gradientTransform="translate(268.5 1.69916e-05) rotate(112.02) scale(298.692 206.577)">
<stop stop-color="#F20000"/>
<stop offset="1" stop-color="#191010"/>
</radialGradient>
<linearGradient id="paint2_linear_1862_22890" x1="127.677" y1="14.3828" x2="184.952" y2="311.627" gradientUnits="userSpaceOnUse">
<stop stop-color="#D50000"/>
<stop offset="1" stop-color="#220C0C"/>
</linearGradient>
<radialGradient id="paint3_radial_1862_22890" cx="0" cy="0" r="1" gradientUnits="userSpaceOnUse" gradientTransform="translate(261.132 14.3828) rotate(112.02) scale(272.337 188.349)">
<stop stop-color="#F20000"/>
<stop offset="1" stop-color="#191010"/>
</radialGradient>
<linearGradient id="paint4_linear_1862_22890" x1="134.249" y1="31.4229" x2="184.958" y2="294.587" gradientUnits="userSpaceOnUse">
<stop stop-color="#D50000"/>
<stop offset="1" stop-color="#220C0C"/>
</linearGradient>
<radialGradient id="paint5_radial_1862_22890" cx="0" cy="0" r="1" gradientUnits="userSpaceOnUse" gradientTransform="translate(252.403 31.4229) rotate(112.02) scale(241.112 166.754)">
<stop stop-color="#F20000"/>
<stop offset="1" stop-color="#191010"/>
</radialGradient>
<linearGradient id="paint6_linear_1862_22890" x1="140.688" y1="48.1152" x2="184.963" y2="277.892" gradientUnits="userSpaceOnUse">
<stop stop-color="#D50000"/>
<stop offset="1" stop-color="#220C0C"/>
</linearGradient>
<radialGradient id="paint7_radial_1862_22890" cx="0" cy="0" r="1" gradientUnits="userSpaceOnUse" gradientTransform="translate(243.852 48.1152) rotate(112.02) scale(210.523 145.599)">
<stop stop-color="#F20000"/>
<stop offset="1" stop-color="#191010"/>
</radialGradient>
<linearGradient id="paint8_linear_1862_22890" x1="146.748" y1="63.8262" x2="184.968" y2="262.181" gradientUnits="userSpaceOnUse">
<stop stop-color="#D50000"/>
<stop offset="1" stop-color="#220C0C"/>
</linearGradient>
<radialGradient id="paint9_radial_1862_22890" cx="0" cy="0" r="1" gradientUnits="userSpaceOnUse" gradientTransform="translate(235.804 63.8262) rotate(112.02) scale(181.734 125.688)">
<stop stop-color="#F20000"/>
<stop offset="1" stop-color="#191010"/>
</radialGradient>
<linearGradient id="paint10_linear_1862_22890" x1="153.186" y1="80.5195" x2="184.973" y2="245.487" gradientUnits="userSpaceOnUse">
<stop stop-color="#D50000"/>
<stop offset="1" stop-color="#220C0C"/>
</linearGradient>
<radialGradient id="paint11_radial_1862_22890" cx="0" cy="0" r="1" gradientUnits="userSpaceOnUse" gradientTransform="translate(227.253 80.5195) rotate(112.02) scale(151.144 104.532)">
<stop stop-color="#F20000"/>
<stop offset="1" stop-color="#191010"/>
</radialGradient>
<linearGradient id="paint12_linear_1862_22890" x1="160.003" y1="98.1934" x2="184.979" y2="227.811" gradientUnits="userSpaceOnUse">
<stop stop-color="#D50000"/>
<stop offset="1" stop-color="#220C0C"/>
</linearGradient>
<radialGradient id="paint13_radial_1862_22890" cx="0" cy="0" r="1" gradientUnits="userSpaceOnUse" gradientTransform="translate(218.199 98.1934) rotate(112.02) scale(118.756 82.1324)">
<stop stop-color="#F20000"/>
<stop offset="1" stop-color="#191010"/>
</radialGradient>
<linearGradient id="paint14_linear_1862_22890" x1="166.821" y1="115.868" x2="184.985" y2="210.135" gradientUnits="userSpaceOnUse">
<stop stop-color="#D50000"/>
<stop offset="1" stop-color="#220C0C"/>
</linearGradient>
<radialGradient id="paint15_radial_1862_22890" cx="0" cy="0" r="1" gradientUnits="userSpaceOnUse" gradientTransform="translate(209.144 115.868) rotate(112.02) scale(86.3678 59.7323)">
<stop stop-color="#F20000"/>
<stop offset="1" stop-color="#191010"/>
</radialGradient>
</defs>
</svg>
