<svg width="30" height="30" viewBox="0 0 30 30" fill="none" xmlns="http://www.w3.org/2000/svg">
<path d="M15.2499 14.7508L13.4874 16.5133C12.5124 17.4883 12.5124 19.0758 13.4874 20.0508C14.4624 21.0258 16.0499 21.0258 17.0249 20.0508L19.7999 17.2758C21.7499 15.3258 21.7499 12.1633 19.7999 10.2008C17.8499 8.25078 14.6874 8.25078 12.7249 10.2008L9.69985 13.2258C8.02485 14.9008 8.02485 17.6133 9.69985 19.2883" stroke="#797979" stroke-width="2" stroke-linecap="round" stroke-linejoin="round"/>
<path d="M11.25 27.5H18.75C25 27.5 27.5 25 27.5 18.75V11.25C27.5 5 25 2.5 18.75 2.5H11.25C5 2.5 2.5 5 2.5 11.25V18.75C2.5 25 5 27.5 11.25 27.5Z" stroke="#797979" stroke-width="2" stroke-linecap="round" stroke-linejoin="round"/>
</svg>
