<svg width="21" height="24" viewBox="0 0 21 24" fill="none" xmlns="http://www.w3.org/2000/svg">
<path d="M18.979 14.481L13.6129 20.0139C11.0413 22.6654 6.87199 22.6654 4.3004 20.0139C1.72882 17.3624 1.72882 13.0634 4.3004 10.4119L11.5236 2.96424C13.2393 1.19522 16.0209 1.19522 17.7366 2.96424C19.4523 4.73326 19.4523 7.60141 17.7366 9.37043L10.2859 17.0527C9.47983 17.8839 8.17289 17.8839 7.3668 17.0527C6.5607 16.2216 6.5607 14.874 7.3668 14.0429L12.9604 8.27538C13.2445 7.98248 13.2445 7.50761 12.9604 7.21472C12.6764 6.92182 12.2158 6.92182 11.9317 7.21472L6.33811 12.9822C4.96389 14.3991 4.96389 16.6965 6.33811 18.1134C7.71233 19.5303 9.94039 19.5303 11.3146 18.1134L18.7653 10.4311C21.0491 8.07629 21.0491 4.25839 18.7653 1.90358C16.4815 -0.45123 12.7787 -0.45123 10.4949 1.90358L3.27171 9.35124C0.132002 12.5885 0.132001 17.8372 3.27171 21.0745C6.41143 24.3118 11.5019 24.3118 14.6416 21.0745L20.0077 15.5417C20.2918 15.2488 20.2918 14.7739 20.0077 14.481C19.7236 14.1881 19.2631 14.1881 18.979 14.481Z" fill="#7F7F7F"/>
</svg>
