<svg width="47" height="51" viewBox="0 0 47 51" fill="none" xmlns="http://www.w3.org/2000/svg">
<path d="M0 0L23.5 7.22124L47 0V44.2301L23.5 51L0 44.2301V0Z" fill="url(#paint0_linear_878_19839)"/>
<path d="M47 44.2301V0L23.5 7.22124V51L47 44.2301Z" fill="url(#paint1_linear_878_19839)"/>
<path d="M5 8L23.5 13.5221L42 8V41.823L23.5 47L5 41.823V8Z" fill="url(#paint2_linear_878_19839)"/>
<path d="M42 41.823V8L24 13.5221V47L42 41.823Z" fill="url(#paint3_linear_878_19839)"/>
<path d="M37.8216 24.1579C37.772 24.1062 37.671 24.1046 37.6198 24.1546C37.5685 24.2047 37.5164 24.3056 37.5148 24.4074C37.4099 24.6601 37.3562 24.8628 37.1031 24.9096C37.0021 24.908 36.806 24.5488 36.6611 24.1394C36.2336 22.4535 36.0383 22.0434 35.3912 21.4734C35.1429 21.2151 34.7401 21.1578 34.5895 21.1045L34.5391 21.1037C34.5903 21.0536 34.6416 21.0036 34.6921 21.0044C34.8963 20.855 35.1006 20.7056 35.3073 20.4036C35.8272 19.4451 35.9386 18.7854 35.5422 18.3212C35.3444 18.0637 34.6485 17.3912 33.0347 17.3146C33.0347 17.3146 32.9842 17.3138 32.9338 17.313C32.5814 17.2565 31.4216 17.1872 30.5606 17.377C30.1553 17.4724 29.8029 17.4159 29.501 17.3602C29.7573 17.1099 30.0136 16.8595 30.2708 16.5583C31.1976 15.4028 31.2057 14.8941 31.213 14.4363C31.2138 14.3855 31.2146 14.3346 31.2162 14.2329C31.2195 14.0294 31.1747 13.6725 31.0249 13.5684C30.9744 13.5676 30.9248 13.5159 30.924 13.5668C30.7718 13.6152 30.6156 13.918 30.2999 14.7271L30.2991 14.778C29.8792 15.7889 28.5495 16.8871 26.2603 18.021C25.9039 18.2189 25.7012 18.2665 25.6516 18.2149C25.6019 18.1632 25.7085 17.8087 25.7646 17.4535C25.8167 17.3525 25.8191 17.1999 25.872 17.0481L25.8736 16.9464C26.0355 16.2875 26.3064 15.1215 26.8158 14.8244C26.9167 14.826 27.2114 15.3395 27.3587 15.5962C27.4572 15.7504 27.5557 15.9046 27.6046 16.0072C27.6542 16.0588 27.7535 16.1622 27.8552 16.1129C27.957 16.0636 28.0595 15.9635 27.9235 14.9946C27.8787 14.6377 27.8315 14.4335 27.7842 14.2292C27.6882 13.9224 27.6409 13.7181 27.7483 13.3128C27.8549 12.9583 28.0624 12.6054 28.2683 12.3543C28.4229 12.1532 28.5262 12.0022 28.5791 11.8504C28.5823 11.6469 28.5351 11.4427 28.3846 11.3894C28.2853 11.2861 28.0338 11.2312 27.6269 11.4282C26.9661 11.723 26.7081 12.0751 25.512 14.2948C24.8358 15.5561 24.5153 16.6704 24.4022 17.4318L24.4014 17.4827C24.3453 17.8379 24.2411 18.0398 24.1899 18.0899C24.0353 18.2909 23.9319 18.4419 23.7293 18.4896C23.6788 18.4888 23.5274 18.4864 23.429 18.3322C23.4298 18.2813 23.3305 18.178 23.3842 17.9753C23.385 17.9244 23.3858 17.8736 23.437 17.8235C23.4907 17.6208 23.5436 17.469 23.5965 17.3172C23.8642 16.3547 24.0991 14.2724 24.1161 13.2041C24.1177 13.1024 24.1202 12.9498 24.121 12.8989C24.1274 12.492 24.1299 12.3394 24.0306 12.236C23.9313 12.1327 23.7286 12.1804 23.4243 12.2773L23.3738 12.2765C22.7659 12.4195 22.3517 13.0743 21.8862 13.7793C21.7308 14.0312 21.5754 14.2831 21.4208 14.4842C20.9049 15.1883 20.5509 15.2336 19.9446 15.2748C19.7932 15.2724 19.6915 15.3217 19.5401 15.3193C19.4896 15.3185 19.4384 15.3685 19.3863 15.4695C19.3855 15.5203 19.3855 15.5203 19.3847 15.5712C19.4343 15.6229 19.5841 15.727 20.1888 15.7875C20.8431 15.8997 21.5039 15.6049 22.3747 14.8046C22.5285 14.6545 22.6823 14.5042 22.7848 14.4041C22.8873 14.304 22.9394 14.203 23.0403 14.2047C23.0387 14.3064 23.0347 14.5607 22.981 14.7634C22.8631 15.83 22.6426 16.9968 21.9705 18.0037C21.3505 18.9097 20.3998 18.3858 19.5005 17.8118C19.1505 17.6027 18.7044 17.0868 18.2608 16.4183C18.7271 15.6625 18.9923 14.8526 18.9475 14.4958C18.8563 13.8837 18.1116 13.1087 17.3587 12.8423C17.2082 12.789 17.0063 12.7858 16.9038 12.886C16.4953 13.1848 16.3293 14.098 16.3221 14.5558C16.3164 14.9119 16.5061 15.6781 17.198 16.6049C16.8391 16.9554 16.3289 17.3035 15.7185 17.599C15.6168 17.6483 15.5655 17.6984 15.4646 17.6968C15.4133 17.7468 15.3629 17.746 15.3124 17.7452L15.2628 17.6936C15.0129 17.537 14.1624 17.0655 13.093 17.6591C12.1759 18.2042 11.5607 18.805 11.0977 19.3573C11.0977 19.3573 10.7893 19.7086 10.8869 19.9137C10.9862 20.017 11.1384 19.9685 11.1889 19.9693C11.4428 19.8716 11.6975 19.723 12.0035 19.5244C12.1565 19.425 12.3608 19.2756 12.6155 19.127C12.7172 19.0778 12.7685 19.0277 12.8197 18.9776C12.9215 18.9284 13.0232 18.8791 13.0744 18.829C12.8084 19.6898 11.3959 22.8219 11.0834 23.4276C11.0314 23.5285 10.9793 23.6294 10.9272 23.7304C10.7181 24.185 10.5611 24.5386 10.207 24.5839C10.1566 24.5831 10.1061 24.5823 10.0565 24.5306C9.85707 24.3748 9.76505 23.8136 9.72025 23.4568C9.72106 23.4059 9.72268 23.3042 9.72349 23.2533C9.67545 23.0999 9.67788 22.9473 9.57696 22.9457C9.47604 22.9441 9.42478 22.9941 9.31011 23.8573C9.19141 24.9748 9.38031 25.7919 9.82878 26.1552C9.97853 26.2593 10.1291 26.3126 10.3317 26.2649C10.7362 26.2205 11.2985 25.7715 11.7648 25.0157C12.1782 24.4117 12.9145 22.5408 13.5467 20.8718C13.9145 19.9618 14.2309 19.1018 14.4401 18.6472C14.4409 18.5964 14.4913 18.5972 14.5418 18.598C14.5922 18.5988 14.7941 18.602 15.2914 19.0678L15.341 19.1195C15.6894 19.4303 16.0378 19.7411 15.9287 20.2482C15.8718 20.6543 15.4641 20.9023 15.0051 21.2003C14.9026 21.3004 14.7504 21.3488 14.6479 21.449C14.5462 21.4982 14.4949 21.5483 14.4436 21.5984C14.2898 21.7486 14.1881 21.7978 14.1873 21.8487C14.1857 21.9504 14.2353 22.0021 14.2842 22.1047L14.3338 22.1563C14.4811 22.4131 14.6692 23.281 14.6563 24.0949C14.6498 24.5019 14.6442 24.8579 14.5376 25.2124C14.5376 25.2124 14.536 25.3141 14.4831 25.4659C14.4302 25.6177 14.3765 25.8204 14.3236 25.9722L14.3228 26.0231C14.322 26.074 14.2707 26.124 14.2699 26.1749C14.2691 26.2258 14.2179 26.2758 14.2162 26.3776C14.1642 26.4785 14.1121 26.5794 14.0104 26.6287C13.7044 26.8274 13.6035 26.8258 13.6035 26.8258C13.553 26.8249 13.4057 26.5682 13.3609 26.2113C13.2192 25.5985 13.1752 25.1907 13.1793 24.9364C13.1881 24.3769 13.189 24.326 13.189 24.326C13.1898 24.2751 13.1906 24.2243 13.1409 24.1726C13.0913 24.1209 13.0424 24.0184 12.992 24.0176L12.9415 24.0168C12.8911 24.016 12.7885 24.1161 12.6836 24.3689C12.5802 24.5199 12.4728 24.9252 12.4175 25.2296L12.3638 25.4323C12.2556 25.8885 12.1491 26.2429 12.1377 26.9551C12.1321 27.3112 12.2233 27.9232 12.5163 28.5384C12.6148 28.6926 12.6637 28.7952 12.763 28.8985L12.8126 28.9502C13.0609 29.2085 13.2603 29.3643 13.6623 29.4725C13.7128 29.4733 13.8129 29.5258 13.8634 29.5266C14.1148 29.5814 14.2158 29.583 14.4144 29.7897C14.0474 30.6489 13.7822 31.4587 13.718 32.3227C13.5383 34.1007 14.6265 35.4918 15.1759 35.8567C15.3265 35.9099 15.6268 36.0673 15.7806 35.9171C15.8327 35.8162 15.7855 35.6119 15.4444 34.8433C15.2979 34.5357 15.2018 34.2289 15.1057 33.9221C14.8648 33.2059 14.7816 32.0852 15.0461 31.3262L15.0981 31.2253C15.2047 30.8708 15.522 29.96 16.3463 28.9046C16.5009 28.7035 16.6547 28.5533 16.706 28.5033C16.7549 28.6058 16.8517 28.8617 16.9478 29.1685L17.0455 29.3736C17.481 30.5508 17.4632 31.6699 17.3583 31.9226C17.158 31.8177 16.5085 31.4003 16.2579 31.2946C16.2074 31.2938 16.0568 31.2405 16.0048 31.3414C15.9527 31.4424 15.9503 31.595 16.5445 32.3168C17.0882 33.0377 17.3324 33.5504 17.5253 34.1132C17.671 34.4717 17.7126 35.032 17.7558 35.4906C17.7998 35.8984 17.7949 36.2036 17.8934 36.3578C17.9919 36.512 18.1409 36.667 18.2922 36.6694C18.3932 36.671 18.5958 36.6234 18.8017 36.3722C18.905 36.2212 19.0092 36.0194 19.1125 35.8684C19.1133 35.8175 19.1646 35.7674 19.1654 35.7165C19.2695 35.5147 19.429 35.0084 19.4827 34.8057C19.5877 34.553 19.6446 34.1469 19.7536 33.6398C19.7552 33.5381 19.8065 33.488 19.8065 33.488C19.9074 33.4896 20.0571 33.5937 20.3046 33.903C20.6009 34.3147 20.8923 35.0317 20.9892 35.2876C20.9387 35.2868 20.9387 35.2868 20.8883 35.286C20.6368 35.2311 20.2339 35.1738 19.9263 35.4742L19.8238 35.5744C19.2598 36.1251 18.5926 36.8268 18.4153 38.4522C18.4145 38.5031 18.312 38.6032 18.0589 38.6501C17.7553 38.6961 17.5567 38.4894 17.4078 38.3344C17.3581 38.2827 17.3581 38.2827 17.3581 38.2827C17.258 38.2303 17.2075 38.2295 17.1563 38.2795C17.0537 38.3797 17.0505 38.5831 17.1482 38.7882C17.2955 39.045 17.7416 39.5609 18.4488 39.5212C19.0046 39.4792 19.3619 39.2304 19.5157 39.0803C19.567 39.0302 19.6719 38.7775 19.6727 38.7266C20.0453 37.5114 20.9698 36.5084 21.3783 36.2097C21.3246 36.4123 21.2701 36.6659 21.2156 36.9194C20.9992 37.8318 20.6771 39.0478 20.612 39.9627C20.5495 40.7249 20.74 41.4402 21.0883 41.7511C21.2373 41.9061 21.4383 41.9601 21.6401 41.9634C22.2969 41.9229 22.655 41.6233 23.0724 40.765C23.4377 40.0076 23.4393 39.9058 23.3392 39.8534C23.2391 39.8009 23.1366 39.901 23.0332 40.052C22.7761 40.3532 22.5198 40.6035 22.1193 40.3937C21.9191 40.2887 21.8735 39.9827 21.9312 39.5257C22.0394 39.0695 22.0955 38.7142 22.2021 38.3597C22.2566 38.1062 22.3624 37.8026 22.4185 37.4473C22.5267 36.9911 22.578 36.9411 22.578 36.9411C22.6284 36.9419 22.7261 37.1469 22.8246 37.3011C22.8743 37.3528 22.9231 37.4553 22.9719 37.5579C23.02 37.7113 23.1185 37.8655 23.217 38.0197L23.2666 38.0714L23.4147 38.2773C23.4644 38.3289 23.514 38.3806 23.7159 38.3838C23.8673 38.3862 23.969 38.337 24.0202 38.2869C24.0715 38.2368 24.0723 38.1859 24.1236 38.1359L24.2269 37.9849C24.3303 37.8339 24.3832 37.6821 24.4857 37.5819C24.5378 37.481 24.5898 37.3801 24.6411 37.33C24.7445 37.179 24.8478 37.028 24.8991 36.9779C24.8991 36.9779 24.9992 37.0304 25.0424 37.489C25.0872 37.8459 25.1832 38.1527 25.2296 38.4079C25.3249 38.7655 25.3697 39.1224 25.4633 39.5818C25.5065 40.0405 25.4512 40.3449 25.2478 40.4434C24.8913 40.6412 24.5926 40.3821 24.3452 40.0729C24.2467 39.9187 24.1474 39.8153 24.0456 39.8646C23.9439 39.9138 23.9423 40.0156 24.2834 40.7842C24.6741 41.6045 25.0225 41.9154 25.6768 42.0275L25.7273 42.0283C25.8786 42.0307 26.0308 41.9823 26.1838 41.8829C26.5419 41.5833 26.7542 40.9253 26.768 40.0605C26.8298 39.3492 26.5432 38.327 26.3559 37.4081C26.2623 36.9487 26.1173 36.5394 26.0726 36.1825C26.6716 36.5991 27.6093 37.9369 27.7477 38.7532C27.7461 38.8549 27.8438 39.06 27.8934 39.1117C28.0928 39.2675 28.4412 39.5783 28.9458 39.5863C29.6514 39.6484 30.1136 39.147 30.269 38.895C30.3732 38.6932 30.3764 38.4897 30.2771 38.3863C30.2275 38.3347 30.177 38.3339 30.0753 38.3831L30.024 38.4332C29.8702 38.5834 29.6659 38.7328 29.3632 38.728C29.1117 38.6731 29.0124 38.5698 29.0132 38.5189C28.7892 36.7345 28.1942 36.0636 27.5976 35.4944C27.2493 35.1836 26.7943 35.2273 26.5917 35.2749C26.9074 34.4658 27.5258 33.6616 27.5779 33.5606C27.63 33.4597 27.7301 33.5122 27.7805 33.513C27.7805 33.513 27.831 33.5138 27.879 33.6672C27.9214 34.1767 28.0158 34.5852 28.1127 34.8411C28.1616 34.9437 28.208 35.1988 28.3073 35.3022C28.405 35.5073 28.7965 36.2767 29.1457 36.5366C29.5941 36.8999 30.7018 37.0702 31.3642 36.6737C32.1292 36.177 32.9608 34.6638 33.0258 33.749C33.0387 32.9351 32.8034 31.8629 32.4119 31.0934C32.2165 30.6833 31.9202 30.2715 31.6744 29.8606C31.5759 29.7064 31.4807 29.3487 31.4831 29.1961C31.4863 28.9926 31.5449 28.4847 31.5994 28.2312L31.6002 28.1803C31.7613 27.5723 31.8662 27.3196 31.9679 27.2703C32.0168 27.3728 32.1137 27.6288 32.0047 28.1359C31.9461 28.6437 31.921 30.2207 32.6153 30.9949C32.8131 31.2525 33.0117 31.4591 33.264 31.4631C33.4659 31.4663 33.6188 31.367 33.8247 31.1159C34.0819 30.8147 34.3976 30.0056 34.6612 29.2975C34.819 28.8929 35.0289 28.3875 35.1323 28.2365C35.1811 28.339 35.2788 28.5441 35.3765 28.7492C35.4734 29.0051 35.6207 29.2618 35.7184 29.4669C35.8169 29.6211 35.8673 29.6219 35.9178 29.6227C35.9682 29.6235 36.1204 29.5751 36.2294 29.068C36.3368 28.6627 35.3842 25.0858 34.8373 24.5683C34.7876 24.5167 34.6875 24.4642 34.6363 24.5143C34.3832 24.5611 34.3287 24.8147 34.1074 26.0323L34.0505 26.4384C33.8813 27.5551 33.5999 29.3824 33.3949 29.5826C33.1946 29.4777 32.8471 29.116 32.8689 27.7426C32.8827 26.8778 32.7915 26.2658 32.5945 25.9574L32.5953 25.9065C32.5961 25.8556 32.5464 25.804 32.5464 25.804L32.5472 25.7531L32.4976 25.7014C32.5489 25.6514 32.5489 25.6514 32.701 25.6029C32.802 25.6045 32.8532 25.5544 32.955 25.5052C33.0054 25.506 33.0062 25.4551 33.0062 25.4551C33.0062 25.4551 33.0062 25.4551 33.0575 25.405L33.1088 25.355C33.4164 25.0546 33.374 24.5451 33.3837 23.9347C33.3853 23.8329 33.3869 23.7312 33.3885 23.6295C33.4039 22.663 33.1278 20.9795 32.9446 19.8063C32.8534 19.1943 32.7614 18.6332 32.7158 18.3272C32.8679 18.2787 33.6248 18.2907 34.2263 18.5547C34.477 18.6604 34.7268 18.8171 34.7732 19.0722C34.9141 19.7359 34.198 20.3351 33.8391 20.6855C33.5828 20.9359 33.4298 21.0352 33.5291 21.1385C33.5779 21.2411 33.7285 21.2944 33.8782 21.3985C34.4276 21.7634 35.4759 22.4924 35.9474 24.586C35.9457 24.6877 36.2909 25.202 36.741 25.4636C37.2407 25.7768 37.9503 25.5846 38.3116 25.0815C38.1627 24.9265 37.9706 24.3129 37.8216 24.1579ZM17.2408 13.9089C17.2913 13.9097 17.3409 13.9614 17.441 14.0139C17.6893 14.2722 17.9311 14.9375 17.6691 15.5439C17.3752 14.9796 17.1807 14.5186 17.1847 14.2642C17.1375 14.06 17.1896 13.959 17.2408 13.9089ZM31.8659 24.165C31.8146 24.215 31.5615 24.2619 30.7199 23.2309C30.6214 23.0767 30.5221 22.9733 30.4204 23.0226C30.3187 23.0719 30.317 23.1736 30.6581 23.9422C31 24.66 31.3956 25.1751 31.7448 25.4351C31.7448 25.4351 31.6935 25.4851 31.6422 25.5352C31.591 25.5852 31.5405 25.5844 31.4892 25.6345L31.5381 25.737L31.4884 25.6854L31.438 25.6846C31.0311 25.8816 30.5192 26.3314 30.503 27.3488C30.5022 27.3996 30.5006 27.5014 30.4998 27.5523C30.4998 27.5523 30.4941 27.9083 30.5405 28.1635C30.5397 28.2143 30.5389 28.2652 30.5894 28.266C30.6382 28.3685 30.6366 28.4703 30.635 28.572C30.6334 28.6738 30.6318 28.7755 30.5805 28.8256C30.5805 28.8256 30.53 28.8247 30.4804 28.7731C29.9326 28.3064 29.2246 28.397 28.9178 28.6465C28.8161 28.6958 28.5085 28.9961 28.2497 29.3991C28.1472 29.4992 28.0454 29.5485 28.0454 29.5485C28.0454 29.5485 28.0454 29.5485 27.995 29.5477C27.9461 29.4451 27.9005 29.1391 27.9021 29.0374C27.903 28.9865 27.9038 28.9357 27.9046 28.8848C27.907 28.7322 27.8582 28.6296 27.8598 28.5279C27.815 28.171 27.7653 28.1194 28.2732 27.9239C28.9844 27.6299 29.8511 27.084 30.0594 26.6803C30.2148 26.4284 30.2798 25.5135 29.9836 25.1018C29.6376 24.6383 28.7806 24.5738 28.0726 24.6643C27.9212 24.6619 27.8195 24.7112 27.7178 24.7605C27.6673 24.7597 27.6673 24.7597 27.6161 24.8097C27.4631 24.9091 27.3621 24.9075 27.2596 25.0076C27.2596 25.0076 27.2596 25.0076 27.2604 24.9567C27.3141 24.754 27.3165 24.6014 27.4199 24.4504C27.5232 24.2994 27.6258 24.1993 27.83 24.0499C27.983 23.9506 28.136 23.8513 28.2882 23.8028C28.7464 23.5557 29.1533 23.3586 29.3103 23.0049L29.3111 22.9541L29.3119 22.9032C29.3656 22.7005 29.4185 22.5487 29.3688 22.4971C29.32 22.3945 29.1686 22.3921 28.9163 22.3881C28.8659 22.3873 28.765 22.3857 28.7145 22.3849C28.3108 22.3785 27.5539 22.3665 26.898 22.356C26.5448 22.3504 26.2917 22.3973 26.089 22.4449C25.8864 22.4926 25.6333 22.5394 25.3802 22.5863C25.3297 22.5855 25.3297 22.5855 25.2793 22.5847C25.3305 22.5346 25.4843 22.3844 25.8929 22.0856C25.9441 22.0356 25.9946 22.0364 26.0459 21.9863C26.2501 21.8369 26.3518 21.7877 26.2566 21.43C26.1597 21.174 26.1133 20.9189 25.813 20.7615C25.7633 20.7098 25.6624 20.7082 25.6111 20.7583C25.5599 20.8083 25.6087 20.9109 25.708 21.0142C25.7568 21.1168 25.905 21.3226 25.9034 21.4244C25.9026 21.4752 25.5982 21.5722 25.3955 21.6198C25.1416 21.7175 24.7868 21.8137 24.5826 21.9631C24.2766 22.1617 24.2717 22.4669 24.2124 23.0257C24.2043 23.5344 24.302 23.7394 24.3516 23.7911C24.4493 23.9962 24.5462 24.2521 24.6935 24.5089C24.7423 24.6114 24.8881 24.9699 24.8872 25.0208C24.8864 25.0716 24.8848 25.1734 24.9345 25.225C24.9825 25.3784 24.9809 25.4802 24.9768 25.7345C24.9704 26.1415 24.9623 26.6501 24.8589 26.8011C24.7597 26.6978 24.6091 26.6445 24.4569 26.693C24.1533 26.739 23.6455 26.9345 23.543 27.0346C23.3924 26.9814 22.9415 26.7707 22.6404 26.6641C22.4898 26.6108 22.3376 26.6593 22.2351 26.7594C22.1366 26.6052 22.0942 26.0957 22.1512 25.6896C22.1552 25.4353 22.2073 25.3343 22.2097 25.1817C22.2105 25.1309 22.2113 25.08 22.2634 24.9791C22.265 24.8773 22.4221 24.5236 22.4733 24.4736C22.6287 24.2216 22.7329 24.0198 22.837 23.8179C22.8883 23.7678 22.9933 23.5151 23.0014 23.0064C23.0094 22.4978 22.9646 22.1409 22.6651 21.9326C22.4657 21.7768 22.1141 21.6694 21.8635 21.5637C21.6624 21.5096 21.3613 21.403 21.3621 21.3522C21.3637 21.2504 21.5183 21.0494 21.5704 20.9485C21.6738 20.7975 21.725 20.7474 21.6754 20.6957C21.6257 20.644 21.524 20.6933 21.4735 20.6925C21.1684 20.8403 21.0634 21.093 21.0089 21.3466C20.9031 21.6502 20.952 21.7527 21.2018 21.9093C21.2515 21.961 21.3019 21.9618 21.3516 22.0135C21.7512 22.2742 21.9002 22.4292 21.949 22.5318L21.8985 22.531C21.6471 22.4761 21.3956 22.4212 21.1946 22.3671C20.9935 22.3131 20.7412 22.309 20.3888 22.2526C19.7337 22.1913 18.9768 22.1792 18.5723 22.2237C18.4714 22.2221 18.421 22.2213 18.3705 22.2205C18.1182 22.2165 18.0173 22.2149 17.9147 22.315C17.8627 22.4159 17.8611 22.5177 17.9587 22.7227L17.9579 22.7736C17.9579 22.7736 17.9571 22.8245 18.0076 22.8253C18.1533 23.1838 18.5537 23.3937 19.0038 23.6552C19.1536 23.7594 19.3041 23.8126 19.4539 23.9168C19.6533 24.0726 19.8031 24.1767 19.8511 24.3301C19.9496 24.4843 19.9472 24.6369 19.9944 24.8412C19.9928 24.943 20.0424 24.9946 20.0408 25.0964C20.04 25.1472 20.0896 25.1989 20.1401 25.1997L20.1906 25.2005L20.241 25.2013C20.2923 25.1512 20.3436 25.1012 20.3484 24.796C20.3492 24.7451 20.35 24.6942 20.3508 24.6434C20.3541 24.4399 20.3077 24.1848 20.21 23.9797C20.1123 23.7746 19.9145 23.517 19.6158 23.2579C19.5165 23.1545 19.4172 23.0512 19.3171 22.9987C19.2666 22.9979 19.2674 22.9471 19.217 22.9463C19.3179 22.9479 19.4188 22.9495 19.4693 22.9503C19.7216 22.9543 20.0235 23.01 20.3254 23.0657C20.7788 23.1237 21.18 23.2828 21.53 23.4919C21.7798 23.6485 21.8775 23.8535 21.8735 24.1079L21.8727 24.1587C21.8702 24.3113 21.8166 24.514 21.7645 24.615C21.6563 25.0712 21.5994 25.4773 21.5416 25.9343C21.5392 26.0869 21.5368 26.2395 21.5343 26.3921C21.5335 26.443 21.5327 26.4939 21.5327 26.4939C21.5279 26.7991 21.5263 26.9008 21.4237 27.0009C21.3212 27.1011 21.2707 27.1003 20.8663 27.1447C20.614 27.1407 20.5122 27.19 20.5114 27.2408C20.5106 27.2917 20.5106 27.2917 20.5603 27.3434C20.6099 27.395 20.8606 27.5008 21.0624 27.504C21.1129 27.5048 21.2138 27.5064 21.2643 27.5072C21.4156 27.5096 21.5678 27.4612 21.7176 27.5653C21.8177 27.6178 22.2181 27.8277 22.2678 27.8793L22.3174 27.931C22.3671 27.9827 22.4175 27.9835 22.4672 28.0351C22.5673 28.0876 22.8676 28.245 23.0638 28.6043C23.1086 28.9612 23.2511 29.5232 23.4008 29.6273C23.4513 29.6281 23.4505 29.679 23.5017 29.6289C23.5522 29.6297 23.6539 29.5804 23.9216 28.618C24.1291 28.2651 24.4847 28.1181 24.536 28.068C24.5872 28.018 24.6377 28.0188 24.689 27.9687L24.7907 27.9194C24.9437 27.8201 25.2489 27.6723 25.3506 27.6231C25.5028 27.5746 25.6542 27.577 25.8055 27.5794C25.856 27.5802 25.9569 27.5818 26.0074 27.5826C26.2092 27.5858 26.4623 27.539 26.5136 27.4889C26.5648 27.4388 26.5656 27.388 26.5656 27.388C26.5673 27.2862 26.4663 27.2846 26.2141 27.2806C25.8112 27.2233 25.7607 27.2225 25.6614 27.1192C25.5621 27.0158 25.5637 26.9141 25.5686 26.6089C25.5694 26.558 25.5702 26.5072 25.571 26.4563C25.5735 26.3037 25.5759 26.1511 25.5783 25.9985C25.5856 25.5407 25.5424 25.082 25.3975 24.6727C25.3495 24.5193 25.3519 24.3667 25.3039 24.2133L25.3047 24.1624C25.3095 23.8572 25.4137 23.6553 25.6676 23.5576C26.024 23.3598 26.3788 23.2636 26.885 23.1699C27.1886 23.1239 27.4914 23.1287 27.7445 23.0818C27.8454 23.0834 27.9463 23.085 27.9968 23.0858C27.9463 23.085 27.9455 23.1359 27.895 23.1351C27.8438 23.1852 27.7412 23.2853 27.6387 23.3854C27.3824 23.6357 27.1765 23.8869 27.0219 24.088C26.9177 24.2898 26.864 24.4925 26.86 24.7468C26.8592 24.7977 26.8584 24.8486 26.8576 24.8994C26.8551 25.052 26.9032 25.2054 26.952 25.308C27.0505 25.4622 27.2035 25.3629 27.5079 25.2659C27.5583 25.2667 27.5591 25.2159 27.6096 25.2167C27.8122 25.169 27.9131 25.1706 28.2159 25.1754C28.7205 25.1834 29.0721 25.2908 29.2699 25.5483C29.3195 25.6 29.3684 25.7026 29.3147 25.9052C29.2618 26.057 29.1544 26.4624 28.5953 26.7079C28.4423 26.8072 28.2901 26.8557 28.1884 26.9049C28.0354 27.0043 27.8832 27.0527 27.6293 27.1505C27.5276 27.1997 27.4771 27.1989 27.3754 27.2482C27.1215 27.3459 26.8684 27.3928 26.8147 27.5954C26.7626 27.6964 26.7602 27.849 26.8595 27.9523C27.1045 28.4141 27.2999 28.8243 27.1844 29.7383C27.1804 29.9926 26.9696 30.549 26.6628 30.7985C26.509 30.9487 25.9524 31.0416 25.145 31.0288L25.0946 31.028C24.0854 31.0119 23.8388 30.6519 23.7899 30.5493C23.7403 30.4977 23.7411 30.4468 23.6923 30.3443C23.5457 30.0366 23.4481 29.8316 23.3471 29.83C23.2462 29.8284 23.1429 29.9794 22.9858 30.333C22.9346 30.3831 22.933 30.4848 22.8817 30.5349C22.8296 30.6358 22.5725 30.937 21.5625 30.9718C21.2597 30.967 20.957 30.9622 20.7055 30.9073C20.3026 30.8501 20.1513 30.8477 20.0992 30.9486C20.0471 31.0495 20.1464 31.1529 20.2465 31.2053C20.546 31.4136 20.7454 31.5694 21.4519 31.5807C21.2468 31.7809 21.1947 31.8819 21.2363 32.4422C21.2819 32.7482 21.3715 33.462 21.4684 33.7179C21.5661 33.923 21.9152 34.1829 22.9236 34.2499C23.0245 34.2515 23.1254 34.2531 23.2263 34.2547C23.3273 34.2563 23.4282 34.2579 23.5291 34.2595C24.3372 34.2214 24.8442 34.0769 25.0005 33.7741C25.0525 33.6731 25.2657 32.9642 25.1192 32.6566C25.0695 32.6049 25.0711 32.5032 24.971 32.4507C24.8709 32.3982 24.818 32.55 24.7131 32.8028C24.661 32.9037 24.6081 33.0555 24.556 33.1564C24.5552 33.2073 24.2965 33.6102 23.2873 33.5942L23.1864 33.5926L23.1359 33.5918C22.1772 33.5765 21.9306 33.2165 21.9322 33.1147C21.7865 32.7562 21.6432 32.2452 21.6464 32.0417C21.6497 31.8382 21.8035 31.688 21.906 31.5879C22.8647 31.6031 23.121 31.3528 23.274 31.2535C23.3733 31.3568 23.6712 31.6668 24.7309 31.6837C25.185 31.6909 25.539 31.6456 25.9451 31.4994C26.0973 31.451 26.2495 31.4025 26.352 31.3024C26.4025 31.3032 26.4033 31.2523 26.4537 31.2531C26.5042 31.2539 26.5555 31.2039 26.6059 31.2047C27.0641 30.9575 27.2203 30.6547 27.2732 30.5029C27.2732 30.5029 27.274 30.4521 27.3245 30.4529C27.3765 30.3519 27.5328 30.0491 27.5328 30.0491C27.584 29.9991 27.5856 29.8973 27.6377 29.7964C27.6874 29.8481 27.737 29.8997 27.8371 29.9522C27.7322 30.205 27.6777 30.4585 27.6232 30.712C27.5069 31.6769 27.5517 32.0338 27.7446 32.5965C27.9384 33.1084 28.0328 33.517 28.3796 33.9295C28.5774 34.1871 28.8777 34.3445 29.0307 34.2452C29.0819 34.1951 29.1845 34.095 29.0363 33.8891C28.8402 33.5298 28.5951 33.068 28.5039 32.456C28.4143 31.7422 28.5754 31.1342 28.6283 30.9824C28.7878 30.4761 29.0978 30.0231 29.4534 29.8761C29.6056 29.8277 29.7065 29.8293 29.8058 29.9326C30.2055 30.1934 31.5762 32.861 31.0514 34.1246C30.7366 34.8829 30.0204 35.482 29.0169 35.1099C28.6653 35.0026 28.4667 34.7959 28.317 34.6918C28.2673 34.6401 28.2177 34.5884 28.2177 34.5884L28.168 34.5368C28.1184 34.4851 28.0695 34.3825 28.0199 34.3309C27.9222 34.1258 27.875 33.9215 27.8774 33.7689C27.8782 33.7181 27.879 33.6672 27.8294 33.6155C27.831 33.5138 27.7838 33.3095 27.7357 33.1561C27.7365 33.1052 27.7366 33.1052 27.6869 33.0535L27.6389 32.9001C27.5908 32.7467 27.3922 32.5401 27.1912 32.486C26.9902 32.4319 26.4848 32.4748 26.2765 32.8785C26.2252 32.9286 26.1178 33.3339 25.855 33.9912C25.6964 34.4466 25.4865 34.952 25.3799 35.3065C25.331 35.204 25.2309 35.1515 25.1308 35.099C24.6287 34.9384 24.3723 35.1887 24.1673 35.389C24.0647 35.4891 23.9093 35.7411 23.9085 35.7919C23.5456 36.3967 23.3861 36.903 23.2739 37.6136C23.1843 36.8998 23.041 36.3887 22.6975 35.7727C22.6975 35.7727 22.5502 35.5159 22.4517 35.3617C22.3035 35.1559 22.1049 34.9492 21.8022 34.9444C21.7013 34.9428 21.6003 34.9412 21.4986 34.9904C21.3969 35.0397 21.2952 35.089 21.2431 35.1899C21.0974 34.8314 20.9549 34.2694 20.8108 33.8092C20.6187 33.1956 20.5234 32.8379 20.4241 32.7346C20.1775 32.3745 19.725 32.2655 19.5223 32.3132C19.3701 32.3617 19.1659 32.5111 19.113 32.6629C19.0617 32.7129 19.0609 32.7638 19.0096 32.8139C18.9568 32.9657 18.851 33.2693 18.7981 33.4211C18.7973 33.4719 18.7965 33.5228 18.7452 33.5729C18.7436 33.6746 18.6907 33.8264 18.637 34.0291C18.637 34.0291 18.6362 34.08 18.585 34.13C18.5466 33.3662 18.5107 32.4498 18.4244 31.5325C18.2613 29.0877 17.2805 27.2913 16.6839 26.7221C16.4853 26.5154 16.3347 26.4621 16.1833 26.4597C15.8798 26.5058 15.5705 26.9079 15.0522 27.7646L14.8968 28.0166C14.638 28.4195 14.4305 28.7724 14.223 29.1252C14.1734 29.0736 14.1237 29.0219 14.1245 28.971C14.0749 28.9194 14.0261 28.8168 13.9764 28.7651C13.9276 28.6626 13.8787 28.5601 14.0333 28.359C14.0854 28.2581 14.1879 28.1579 14.24 28.057C14.4459 27.8059 14.6021 27.5031 14.8088 27.2011C14.9121 27.0501 15.0163 26.8482 15.1196 26.6972C15.1709 26.6471 15.1717 26.5963 15.2238 26.4953C15.9537 25.0314 15.9258 23.6063 15.7386 22.6875C15.6441 22.2789 15.2933 22.1207 15.0931 22.0157C15.0427 22.0149 14.993 21.9633 14.9425 21.9625C14.9938 21.9124 15.1468 21.8131 15.5024 21.6661C15.7059 21.5676 15.8581 21.5191 15.9606 21.419C16.3162 21.272 16.5173 21.3261 16.7688 21.3809L16.8192 21.3817C16.8697 21.3825 16.9706 21.3841 17.0211 21.3849C16.9585 22.1472 16.8886 23.3672 16.874 24.2828C16.866 24.7915 16.8603 25.1476 16.8579 25.3002C16.7945 26.1133 16.7912 26.3167 16.9386 26.5735C17.1339 26.9836 17.9828 27.5568 18.6844 27.8732C19.1858 28.0847 19.1345 28.1348 19.0784 28.4901C19.0768 28.5918 19.0247 28.6927 19.0223 28.8454C18.9108 29.505 19.3024 30.2745 19.4009 30.4287C19.4505 30.4803 19.501 30.4812 19.5514 30.482C19.6531 30.4327 19.6035 30.381 19.5579 30.075C19.5107 29.8707 19.4659 29.5139 19.4691 29.3104C19.4748 28.9543 19.631 28.6515 19.8377 28.3495C19.8898 28.2486 19.9418 28.1476 20.0444 28.0475C20.1477 27.8965 20.1493 27.7948 20.1005 27.6922C20.0028 27.4872 19.8018 27.4331 19.5511 27.3273C19.451 27.2749 19.4005 27.2741 19.3004 27.2216C19.1002 27.1167 18.9496 27.0634 18.7999 26.9592C18.6998 26.9068 18.55 26.8026 18.3498 26.6977C17.3487 26.173 17.2834 23.9332 17.3133 22.051C17.3133 22.051 17.3214 21.5424 17.4792 21.1378C17.5321 20.986 17.585 20.8342 17.585 20.8342C17.7461 20.2262 18.0537 19.9258 18.205 19.9282C18.306 19.9298 18.6071 20.0364 18.9074 20.1938C19.2582 20.352 19.6594 20.511 19.8613 20.5142C19.9622 20.5158 20.1144 20.4674 20.2169 20.3672L20.3186 20.318L20.2185 20.2655C19.5715 19.6955 17.8232 18.5484 17.3707 18.4394C17.1697 18.3853 17.0647 18.6381 17.0118 18.7899C16.9557 19.1451 16.9965 19.7564 16.9876 20.3159C16.9835 20.5703 17.0299 20.8254 17.0267 21.0289L17.0259 21.0797C17.0251 21.1306 17.0243 21.1815 16.973 21.2315C16.9226 21.2307 16.8713 21.2808 16.8721 21.2299C16.8216 21.2291 16.8216 21.2291 16.8224 21.1783C16.7744 21.0248 16.7768 20.8722 16.7793 20.7196C16.7801 20.6688 16.7817 20.567 16.7825 20.5162C16.7849 20.3636 16.7369 20.2102 16.6881 20.1076C16.5431 19.6983 15.9514 18.8239 15.3548 18.2547C15.708 18.2603 16.2655 18.1166 16.8774 17.7192C17.0304 17.6199 17.1842 17.4697 17.338 17.3195C17.6359 17.6295 17.9338 17.9396 18.2822 18.2504C20.0736 19.8562 20.6751 20.1201 21.5825 20.1854C21.9862 20.1918 22.3955 19.8422 22.7609 19.0848C22.8073 19.3399 22.8545 19.5442 22.9538 19.6475C23.0027 19.7501 23.1516 19.9051 23.2541 19.8049C23.4576 19.7064 23.5609 19.5554 23.7139 19.4561C23.7652 19.406 23.8165 19.356 23.8677 19.3059L24.1241 19.0556C24.1216 19.2082 24.1697 19.3616 24.1672 19.5142C24.2137 19.7693 24.3121 19.9235 24.4627 19.9768C24.763 20.1342 25.2204 19.938 26.1359 19.4946L26.3898 19.3969C27.508 18.9058 28.2722 18.4601 28.937 17.9109C29.1372 18.0159 29.3887 18.0707 29.6907 18.1264L29.8917 18.1805C30.1936 18.2362 30.5965 18.2935 30.9489 18.3499C30.8968 18.4509 30.8456 18.5009 30.7935 18.6019C30.2743 19.5095 30.11 20.321 29.9457 21.1325C29.9457 21.1325 29.9449 21.1833 29.9441 21.2342C29.8904 21.4369 29.8904 21.4369 29.8896 21.4877C29.8383 21.5378 29.7374 21.5362 29.6878 21.4845C29.6878 21.4845 29.6381 21.4329 29.6397 21.3311C29.6438 21.0768 29.6983 20.8232 29.7023 20.5689C29.7617 20.0102 29.8218 19.4005 29.7266 19.0429C29.6785 18.8895 29.5817 18.6335 29.379 18.6812C28.9233 18.7757 27.3437 19.7173 26.8326 20.1162L26.7822 20.1154C26.4762 20.3141 26.4249 20.3642 26.4241 20.415L26.4233 20.4659L26.473 20.5176C26.5234 20.5184 26.6732 20.6225 26.8238 20.6758C27.1257 20.7315 27.5831 20.5352 27.99 20.3381C28.2439 20.2404 28.4473 20.1419 28.5482 20.1435C28.6996 20.1459 29.0455 20.6093 29.1392 21.0688C29.1384 21.1196 29.1872 21.2222 29.1872 21.2222C29.2344 21.4264 29.2825 21.5798 29.3826 21.6323C29.4819 21.7356 29.7334 21.7905 29.8847 21.7929L29.9352 21.7937C30.0361 21.7953 30.2388 21.7477 30.3421 21.5967L30.4454 21.4457C30.4454 21.4457 30.4463 21.3948 30.4967 21.3956C30.6001 21.2446 30.7042 21.0428 30.8092 20.79C30.9133 20.5882 30.967 20.3855 31.1224 20.1335C31.1232 20.0827 31.1745 20.0326 31.1753 19.9817C31.2282 19.8299 31.3323 19.6281 31.3836 19.578C31.3836 19.578 31.4333 19.6297 31.5285 19.9874C31.8664 20.9595 32.1727 23.9154 31.8659 24.165Z" fill="url(#paint4_linear_878_19839)"/>
<defs>
<linearGradient id="paint0_linear_878_19839" x1="23.5" y1="0" x2="23.5" y2="51" gradientUnits="userSpaceOnUse">
<stop stop-color="#324559"/>
<stop offset="1" stop-color="#131D28"/>
</linearGradient>
<linearGradient id="paint1_linear_878_19839" x1="35.25" y1="0" x2="35.25" y2="51" gradientUnits="userSpaceOnUse">
<stop stop-color="#111921"/>
<stop offset="1" stop-color="#0D1116"/>
</linearGradient>
<linearGradient id="paint2_linear_878_19839" x1="9" y1="15" x2="23.5" y2="47" gradientUnits="userSpaceOnUse">
<stop stop-color="#405973"/>
<stop offset="1" stop-color="#131D28"/>
</linearGradient>
<linearGradient id="paint3_linear_878_19839" x1="33" y1="8" x2="33" y2="47" gradientUnits="userSpaceOnUse">
<stop stop-color="#1D2C3D"/>
<stop offset="1" stop-color="#0D1116"/>
</linearGradient>
<linearGradient id="paint4_linear_878_19839" x1="18.1788" y1="11.1381" x2="34.2963" y2="46.9462" gradientUnits="userSpaceOnUse">
<stop stop-color="#ECC271"/>
<stop offset="1" stop-color="#7F642E"/>
</linearGradient>
</defs>
</svg>
