<svg width="172" height="49" viewBox="0 0 172 49" fill="none" xmlns="http://www.w3.org/2000/svg">
<path d="M5.25785 48.3817C4.25438 48.4752 3.65493 47.6837 3.52084 46.2446C3.44619 45.4434 3.50972 44.441 3.73912 43.2819C4.62578 38.7347 8.96013 30.5159 14.386 26.4324C14.8517 23.431 14.9224 21.8316 14.7948 20.4625C14.5172 17.4832 13.2232 16.3954 11.5663 16.5498C9.76166 16.718 7.52103 18.3548 5.65534 20.6471C4.38218 22.2252 3.69954 24.0777 3.85175 25.7113C3.92567 26.5047 4.19895 27.2482 4.68984 27.8851C5.03815 28.3391 5.209 28.8254 5.24813 29.2454C5.30394 29.8444 5.08783 30.3039 4.73778 30.3365C4.34106 30.3735 3.76915 29.8775 3.21916 28.438C3.04271 27.9758 2.9341 27.4837 2.88626 26.9703C2.68912 24.8545 3.56 22.4116 5.20359 20.4303C6.99749 18.2937 9.7576 16.1691 12.0835 15.9524C14.0359 15.7705 15.6478 16.9856 15.9979 20.7427C16.1124 21.9718 16.0914 23.3468 15.8549 25.4403C17.1865 24.6572 18.5745 24.1434 19.9747 24.0129C20.2936 23.9832 20.6069 23.9775 20.9295 23.9867C21.6453 24.0063 22.087 24.4516 22.1174 24.7784C22.1326 24.9417 22.0353 25.0763 21.8175 25.0966C21.7319 25.1046 21.6372 25.0977 21.5168 25.0697C20.7802 24.9108 20.0473 24.8771 19.3317 24.9437C18.1026 25.0583 16.9096 25.4754 15.7687 26.1153C14.8898 32.8509 12.0936 42.8409 8.02961 46.719C6.91304 47.7881 5.98128 48.3143 5.25785 48.3817ZM5.16184 47.5197C5.67524 47.4719 6.3449 47.0799 7.19322 46.2477C10.8159 42.6853 13.2458 33.3964 14.2828 27.0933C8.86544 31.1838 4.8349 39.8843 4.12936 43.5123C3.94896 44.4393 3.88504 45.2691 3.94737 45.9381C4.04304 46.9649 4.43841 47.5871 5.16184 47.5197ZM19.4083 26.6079C19.1204 26.6347 18.992 26.4348 18.9659 26.1548C18.9137 25.5947 19.2725 24.7296 19.677 24.6919C20.0815 24.6542 20.2787 24.9183 20.3106 25.2605C20.3613 25.8051 19.9995 26.5528 19.4083 26.6079ZM18.8423 34.7659C18.1967 34.826 17.6744 34.6942 17.3849 34.2818C17.1585 33.9577 17.0467 33.5993 17.0119 33.2259C16.9285 32.3314 17.275 31.334 17.5884 30.4025C17.8131 29.6989 18.4614 29.2462 18.9359 29.202C19.2082 29.1766 19.4228 29.29 19.4503 29.5856C19.4742 29.8423 19.3542 30.2379 18.9982 30.7968C18.4922 31.5972 17.8696 32.4948 17.9669 33.6234C18.03 34.3002 18.4825 34.5248 19.1437 34.4632C21.1739 34.274 25.1574 31.3842 25.6217 30.8937C25.9068 30.5847 26.1222 30.4547 26.2467 30.4431C26.3167 30.4366 26.3507 30.4648 26.3558 30.5193C26.363 30.5971 26.3124 30.7273 26.1861 30.8882C25.3315 31.7367 21.2227 34.5441 18.8423 34.7659ZM24.9091 43.0356C24.6291 43.0617 24.3711 42.8189 24.308 42.1422C24.2095 41.0843 24.5118 39.0239 24.9266 36.6549C25.3434 34.2229 25.876 31.3486 26.4114 28.5054C27.522 22.5721 28.9988 17.201 30.9595 15.3392C31.2497 15.0846 31.4658 14.9625 31.6603 14.9444C32.1122 14.9101 32.3003 15.4968 32.3503 16.0335C32.3619 16.158 32.365 16.2754 32.3673 16.385C32.3647 18.0408 31.5835 20.0987 30.5971 22.1444C29.548 24.2743 28.2224 27.0578 27.3384 28.6858C27.3328 28.7099 27.3264 28.7262 27.3279 28.7417C26.5253 31.6647 25.8949 34.4148 25.6184 37.9322C26.6532 34.1323 28.6631 28.3349 31.1756 28.1008C31.6968 28.0522 32.1289 28.3101 32.1977 29.0491C32.2876 30.0137 31.6599 31.7827 31.7447 32.6928C31.7897 33.1751 32.0365 33.4659 32.5265 33.4203C33.8878 33.2934 36.6833 30.5378 37.0119 30.107C37.1742 29.9115 37.3359 29.7944 37.4214 29.7864C37.4681 29.7821 37.4936 29.8032 37.498 29.8499C37.5052 29.9277 37.4497 30.0898 37.2925 30.3398C36.8169 31.1296 33.8508 33.8226 31.9839 33.9965C31.066 34.0821 30.6108 33.5752 30.539 32.8051C30.4245 31.5761 31.1766 29.7955 31.1443 28.9433C31.124 28.7254 31.0156 28.6571 30.8678 28.6709C29.6742 28.8291 28.2317 31.5371 27.238 34.0935C26.2767 36.5762 25.5246 39.2826 25.6666 40.8073C25.6927 41.0873 25.7752 41.2993 25.7955 41.5171C25.8665 42.2794 25.3525 42.9943 24.9091 43.0356ZM27.9849 26.1932C28.3652 25.4752 28.7577 24.8031 29.1196 24.0553C30.3052 21.6223 31.7627 18.654 31.8367 16.3324C31.8351 16.2306 31.8349 16.1443 31.8284 16.0743C31.8052 15.8254 31.7435 15.7527 31.6579 15.7606C31.5101 15.7744 31.3177 16.067 31.1176 16.4465C29.7802 19.0192 28.813 22.954 28.1048 25.7113C28.0943 25.7672 27.9777 26.1155 27.9842 26.1855L27.9849 26.1932ZM37.8328 33.4437C37.3894 33.485 36.9525 33.259 36.5494 32.6374C36.4308 32.4602 36.3709 32.2382 36.3463 31.9737C36.2376 30.8069 36.991 28.9556 38.1819 27.9266C38.7184 27.4529 39.3233 27.2082 39.9145 27.1532C40.4356 27.1046 40.955 27.2053 41.4153 27.4292C41.6178 26.9081 41.8564 26.6898 42.0898 26.668C42.4243 26.6368 42.7131 27.0415 42.7558 27.5004C42.7921 27.8894 42.6996 27.9921 42.5385 28.3681C42.6726 28.5439 42.7337 28.6951 42.7453 28.8196C42.7722 29.1074 42.5348 29.2551 42.2703 29.2797L42.2392 29.2826C42.1371 29.7864 42.1055 30.2052 42.1367 30.5397C42.2215 31.4499 42.7668 31.7443 43.5369 31.6725C45.7149 31.4696 49.6434 28.326 49.7477 27.8455C49.8817 27.6839 50.0244 27.6157 50.1489 27.6041C50.3278 27.5874 50.4631 27.6925 50.4769 27.8403C50.4849 27.9259 50.4483 28.0391 50.3404 28.1433C49.7751 28.7296 45.611 31.7853 43.0828 32.0208C42.2661 32.0969 41.6177 31.8749 41.3169 31.1732C41.2273 30.9697 41.183 30.7463 41.1627 30.5285C41.096 29.8128 41.2981 29.1192 41.2981 29.1192C40.8395 30.2604 39.303 33.3067 37.8328 33.4437ZM38.3229 32.4722C38.8675 32.4215 40.8913 29.0473 41.2339 27.9247C41.1252 27.6838 41.0499 27.5495 40.9021 27.5633C40.801 27.5727 40.5636 27.7204 40.2806 27.9665C39.4666 28.6622 38.0091 31.2931 38.0917 32.1799C38.1062 32.3355 38.1708 32.4393 38.2833 32.468L38.3229 32.4722ZM59.3299 15.9913C59.8277 15.9449 60.072 16.3773 60.1271 16.9685C60.1742 17.4741 60.0822 18.0868 59.903 18.6057C59.1293 20.8277 57.208 22.9447 55.894 24.9267C55.8891 24.9586 55.8765 24.9911 55.8638 25.0237C55.7844 25.2665 55.6062 25.8794 55.3633 26.7259C55.6503 26.9424 55.7831 27.189 55.8027 27.399C55.823 27.6168 55.7052 27.7847 55.503 27.8036C55.3941 27.8137 55.2582 27.7871 55.1088 27.699C54.27 30.9079 53.1047 36.0852 53.3685 38.9167C53.4729 40.0368 53.8013 40.783 54.4558 40.9025C54.7028 40.9423 54.8162 41.0651 54.8286 41.1973C54.8467 41.3918 54.647 41.6066 54.3592 41.6334C54.2269 41.6457 54.0833 41.6198 53.9268 41.5403C53.3674 41.2628 53.0478 40.3589 52.926 39.0521C52.6781 36.3917 53.2251 32.0723 54.1303 27.8922C53.8169 28.4864 53.4584 29.1867 53.0553 29.8284C52.4745 30.7535 51.8136 31.5761 51.1713 31.84C51.0504 31.8905 50.9274 31.9176 50.8029 31.9292C50.0251 32.0017 49.3551 31.2952 49.1943 30.5805C49.1693 30.4808 49.1514 30.3726 49.1413 30.2637C48.9956 28.7002 50.2005 26.642 51.4582 26.0776C51.6165 26.0079 51.8166 25.9657 52.0422 25.9447C52.8123 25.873 53.8652 26.0573 54.5051 26.2723C55.6439 21.5683 57.182 17.3606 58.465 16.3936C58.7877 16.1517 59.0584 16.0245 59.2832 15.9957L59.3299 15.9913ZM59.6261 16.5601C59.4939 16.5724 59.2976 16.7397 59.0227 17.1577C57.7496 19.0731 57.2484 21.1049 56.5083 23.1825C56.4893 23.2314 56.3598 23.5259 56.3656 23.5882L56.3663 23.5959C57.3025 22.1905 59.2212 19.8776 59.7123 18.4116C59.8036 18.1285 59.9047 17.4443 59.8619 16.9853C59.8387 16.7364 59.7669 16.5548 59.6261 16.5601ZM53.2288 26.4697C52.7154 26.5175 52.2198 26.9247 51.8009 27.4815C51.1176 28.4005 50.6127 29.7186 50.599 30.583C50.5978 30.6537 50.5965 30.7244 50.6023 30.7867C50.6284 31.0667 50.7406 31.2603 51.0207 31.2342C51.0907 31.2277 51.1748 31.2041 51.273 31.1636C51.7486 30.9623 52.329 30.2021 52.8674 29.3281C53.3988 28.4625 53.8797 27.4762 54.2206 26.8402C53.8953 26.5489 53.5718 26.4456 53.2521 26.4675L53.2288 26.4697ZM68.4514 42.1407C66.46 42.3262 64.3173 41.8982 64.0849 39.8249C63.8752 36.2272 69.2948 28.7077 74.7746 22.8459L73.8956 22.9278C73.0788 23.0039 72.2678 23.1422 71.4838 23.3173C68.8306 23.894 68.4249 24.3398 66.9281 25.8759C66.5603 27.1499 66.2164 28.3432 65.9061 29.3922C65.3355 31.352 64.5708 32.2393 63.894 32.3023C63.155 32.3712 62.5299 31.4722 62.3835 29.9008C62.1131 26.9994 63.4829 21.8265 68.8242 16.3307C69.9155 13.1376 71.0391 10.4593 71.9261 9.53712C72.1844 9.27767 72.3616 9.15915 72.5017 9.1461C72.6495 9.13233 72.7233 9.25099 72.7421 9.45324C72.8218 10.3089 71.8963 12.6706 71.0206 12.9562C70.7821 13.512 70.5381 14.1781 70.2774 14.9164C72.671 12.7318 74.8823 10.9486 76.8192 10.7682L77.0059 10.7508C77.0129 10.7423 77.02 10.7338 77.0355 10.7323C78.2449 10.6589 78.7809 11.527 78.8475 12.2426C78.9921 14.5517 72.6654 20.3354 69.3756 23.4274C70.6563 23.0256 72.121 22.6616 73.7616 22.5009C74.2284 22.4574 74.6973 22.4372 75.1676 22.4326C78.7474 18.6624 82.9838 15.035 84.664 14.8784C85.1152 14.8364 85.3766 15.0317 85.3984 15.2651C85.423 15.5296 85.1387 15.8464 84.5008 15.9058C82.699 16.1051 79.2499 18.8353 75.7257 22.4434C78.0198 22.5592 79.9518 22.9991 81.063 24.9042C81.4066 25.4763 81.5856 26.1344 81.6487 26.8112C81.6835 27.1846 81.6793 27.5616 81.6519 27.9408C81.308 32.5865 77.7564 37.2486 73.9068 39.8905C72.9266 40.5703 71.9199 41.1349 70.9483 41.5707C70.2975 41.8275 69.3926 42.053 68.4514 42.1407ZM67.2593 24.7152L67.282 24.7053L69.1715 22.3322C71.8482 18.9757 77.7987 13.533 77.755 11.7167L77.7521 11.6856C77.7325 11.4756 77.5413 11.36 77.1346 11.3743C75.0805 11.6442 72.5117 13.2959 69.9998 15.7269C69.1279 18.3268 68.1437 21.659 67.2593 24.7152ZM63.8891 31.9968C64.3869 31.9504 64.9702 31.2213 65.4554 29.6068C65.694 28.7999 65.9358 27.7731 66.1885 26.6118C66.1462 26.6628 66.0953 26.7068 66.0523 26.75C65.7291 27.0705 65.4825 27.2033 65.3192 27.2185C65.148 27.2344 65.0594 27.125 65.0441 26.9616C65.0195 26.6972 65.1707 26.2986 65.4628 25.9811C65.7126 25.7146 66.0791 25.4372 66.5014 25.1703C67.0461 22.6793 67.6727 19.8041 68.5179 17.2538C63.7587 22.4285 62.5718 27.4588 62.8175 30.0958C62.9327 31.3326 63.3601 32.0461 63.8891 31.9968ZM67.1439 41.6662C67.984 41.5879 68.9013 41.2435 69.6609 40.8903C70.6763 40.4191 71.6701 39.8008 72.6204 39.0531C74.9971 37.1918 80.7772 29.9211 80.3894 25.7594C80.2756 24.5382 79.6298 23.5861 78.2127 23.114C77.1842 22.7704 76.3262 22.7405 75.3821 22.7971C69.9237 28.4686 64.4232 36.1291 64.745 39.5829C64.9385 41.3224 65.8915 41.7829 67.1439 41.6662ZM99.6314 35.6419C99.3202 35.6709 98.8603 35.2822 98.811 34.7533L98.8103 34.7455C98.6768 33.2279 98.7913 30.6672 99.1164 27.7573C98.3581 27.7024 98.0165 27.4047 97.9752 26.9613C97.9078 26.2379 98.6289 25.1349 99.6217 24.0852C99.9328 22.1182 100.334 20.1113 100.805 18.255C97.3338 22.6036 92.7574 27.6357 90.136 27.88C89.3814 27.9503 88.7944 27.6284 88.4331 26.7832C88.3436 26.5797 88.2992 26.3563 88.2782 26.1307C88.2115 25.4151 88.4137 24.7215 88.4137 24.7215C87.9636 25.8697 86.427 28.916 84.9491 29.0538C84.5057 29.0951 84.061 28.8697 83.6578 28.2482C83.5471 28.0702 83.4794 27.849 83.4555 27.5923C83.346 26.4177 84.1072 24.5656 85.2896 23.5296C85.8339 23.0552 86.4388 22.8105 87.03 22.7554C87.5512 22.7069 88.0706 22.8075 88.5308 23.0314C88.7334 22.5104 88.9797 22.2913 89.2053 22.2703C89.5398 22.2391 89.8286 22.6437 89.8713 23.1027C89.888 23.2816 89.8658 23.4641 89.7954 23.6355C89.7433 23.7502 89.699 23.8642 89.6618 23.9696C89.7881 24.1462 89.8493 24.2974 89.8609 24.4219C89.8877 24.7097 89.6503 24.8573 89.3859 24.882L89.3547 24.8849C89.2448 25.3894 89.2103 25.7771 89.2386 26.0805C89.2647 26.3605 89.3479 26.5803 89.482 26.7561C89.7715 27.1686 90.1786 27.3268 90.6609 27.2818C93.1657 27.0485 97.8892 21.4062 101.108 17.1283C101.869 14.4366 102.786 12.1542 103.837 10.8872C104.233 10.4188 104.582 10.2058 104.878 10.1782C104.908 10.1676 104.946 10.1562 104.977 10.1533C105.008 10.1504 105.033 10.156 105.057 10.1616C105.201 10.1952 105.331 10.2458 105.424 10.3156C105.583 10.4186 105.682 10.5584 105.736 10.7181C105.758 10.7867 105.773 10.856 105.779 10.926C105.786 11.0038 105.786 11.0823 105.778 11.1693C105.746 11.494 105.526 11.8361 105.369 12.0862C105.11 12.5027 104.321 13.6354 103.22 15.1268C102.734 16.4746 102.233 17.9179 101.914 18.9598L101.906 18.9605C101.696 19.6549 101.556 20.1701 101.549 20.3512C101.14 21.9429 101.286 21.4036 100.877 22.9012C101.924 22.0189 103.022 21.336 103.725 21.2156L103.833 21.1977C104.564 21.1296 105.088 21.7791 105.155 22.5025C105.17 22.6659 105.155 22.8399 105.124 23.0076C105.032 23.4556 104.617 23.714 104.267 23.7466C104.002 23.7712 103.78 23.6663 103.758 23.4252C103.745 23.2852 103.791 23.1082 103.935 22.883C104.215 22.4332 104.345 22.0602 104.325 21.8424C104.31 21.6868 104.232 21.6077 104.076 21.6222C103.898 21.6389 103.628 21.7817 103.273 22.0894C102.336 22.8986 101.262 23.8382 100.393 24.7038C100.214 25.3874 100.051 26.0774 99.9107 26.7653C99.868 26.9811 99.8197 27.221 99.7807 27.4757C100.613 27.3981 101.999 27.0336 104.116 26.2557C107.151 25.1491 110.362 23.3983 111.235 22.8305C111.316 22.7681 111.391 22.7375 111.461 22.731C111.617 22.7165 111.73 22.8393 111.745 22.9949C111.757 23.1271 111.685 23.2829 111.504 23.3625C109.973 24.1093 106.217 25.9893 103.048 27.0065C101.677 27.4481 100.638 27.6704 99.8683 27.7421L99.736 27.7545C99.556 28.854 99.4204 30.177 99.3737 31.4446C99.369 31.5628 99.348 32.263 99.4168 33.002C99.4625 33.4921 99.5485 33.9941 99.7014 34.3722C99.8245 34.6824 99.8858 34.9199 99.9032 35.1066C99.9366 35.4644 99.8103 35.6253 99.6314 35.6419ZM103.916 13.2416C104.191 12.8315 104.384 12.5467 104.459 12.4221C104.604 12.2046 104.938 11.3339 104.968 11.0643C104.979 11.0084 104.973 10.9539 104.968 10.8995C104.759 11.1779 104.563 11.5179 103.916 13.2416ZM85.4314 28.0829C85.9837 28.0315 88.0146 24.6488 88.3494 23.527C88.2414 23.2938 88.1661 23.1596 88.0183 23.1733C87.8861 23.1857 87.701 23.3049 87.3883 23.5694C86.5821 24.2644 85.1175 26.9039 85.2009 27.7984C85.2147 27.9462 85.2792 28.05 85.3918 28.0788L85.4314 28.0829ZM99.1511 27.4559C99.2115 26.9246 99.2782 26.3769 99.3604 25.8279C98.9456 26.3452 98.6962 26.7843 98.7238 27.0798C98.7412 27.2665 98.8716 27.4035 99.1511 27.4559ZM111.283 34.5485C110.98 34.5767 110.52 34.188 110.471 33.6668C110.336 32.1337 110.442 29.5659 110.769 26.6716C110.011 26.6167 109.669 26.319 109.628 25.8756C109.56 25.1521 110.289 24.0485 111.274 22.9995C112.128 17.6786 113.586 12.1052 115.491 9.81703C115.894 9.33232 116.245 9.14268 116.548 9.11442C117.031 9.07726 117.34 9.52712 117.395 10.1183C117.415 10.3361 117.399 10.5809 117.343 10.8293C116.928 12.5235 115.922 14.8613 115.677 15.3471C114.638 17.4134 113.664 19.2616 112.809 20.8557L112.79 20.9046C112.708 21.2103 112.618 21.509 112.53 21.8232C113.614 20.914 114.696 20.2248 115.478 20.1127C116.217 20.0438 116.733 20.7019 116.801 21.4331C116.817 21.5965 116.808 21.762 116.777 21.9297C116.685 22.3698 116.269 22.6282 115.919 22.6609C115.655 22.6855 115.433 22.5806 115.411 22.3395C115.398 22.1994 115.444 22.0225 115.588 21.7973C115.867 21.3475 115.997 20.9744 115.977 20.7566C115.963 20.6088 115.878 20.5305 115.73 20.5443C115.551 20.561 115.29 20.703 114.926 21.0115C113.996 21.8122 112.916 22.7603 112.039 23.6266C111.834 24.4539 111.595 25.347 111.433 26.39C112.266 26.3124 113.644 25.9486 115.769 25.17C118.804 24.0633 122.007 22.3133 122.88 21.7455C122.96 21.6831 123.036 21.6525 123.098 21.6467C123.262 21.6315 123.376 21.7621 123.39 21.9099C123.403 22.0499 123.331 22.2057 123.15 22.2853C121.626 23.0236 117.871 24.9114 114.701 25.9208C113.33 26.3624 112.291 26.5847 111.521 26.6564L111.389 26.6688C111.216 27.7676 111.08 29.0828 111.034 30.3582C111.029 30.4763 111.008 31.1688 111.077 31.9156C111.122 32.3979 111.201 32.9084 111.354 33.2864C111.477 33.5967 111.538 33.8342 111.556 34.0209C111.589 34.3787 111.462 34.5318 111.283 34.5485ZM113.206 19.3122C113.867 18.0658 116.235 12.9098 116.959 10.5826C117.068 10.235 117.107 9.98032 117.092 9.81697C117.078 9.66917 117.017 9.59646 116.931 9.60443C116.768 9.61965 116.518 9.88616 116.284 10.4023C115.817 11.2932 113.149 18.6976 113.206 19.3044L113.206 19.3122ZM110.804 26.3702L111.013 24.7422C110.598 25.2594 110.349 25.6985 110.376 25.9941C110.394 26.1808 110.532 26.317 110.804 26.3702ZM124.126 24.9327C123.333 25.0066 122.619 24.4141 122.503 23.1695C122.398 22.0416 122.869 20.5382 123.386 20.0193C123.536 19.864 123.748 19.7737 123.95 19.7549L124.107 19.7559C124.2 19.3236 124.49 19.069 124.84 19.0364C125.486 18.9762 126.306 19.606 126.427 20.9051C126.449 21.1462 126.442 21.4058 126.414 21.6909C126.849 21.7366 127.39 21.7255 127.981 21.6704C129.381 21.54 131.011 21.1763 131.919 20.8248L131.973 20.812C132.113 20.7989 132.252 20.9429 132.263 21.0596C132.271 21.1452 132.222 21.2125 132.09 21.2248L132.082 21.2255C131.272 21.5364 129.511 21.8417 128.057 21.9772C127.403 22.0381 126.809 22.0621 126.391 22.0383C126.053 23.8823 125.036 24.8479 124.126 24.9327ZM126.007 21.6268C126.026 21.4838 126.019 21.3275 126.005 21.1797C125.943 20.5185 125.613 19.8353 124.945 19.6543C124.88 19.6368 124.825 19.6341 124.771 19.6392C124.616 19.6614 124.548 19.7698 124.532 19.9438C124.593 20.001 124.623 20.0766 124.631 20.1622C124.637 20.2244 124.635 20.2874 124.61 20.3603C124.799 20.8684 125.304 21.4883 126.007 21.6268ZM124.385 24.5084C124.953 24.4555 125.692 23.5471 125.96 21.9607C125.296 21.8186 124.662 21.501 124.31 20.8355C124.295 20.8448 124.288 20.8611 124.274 20.8781C124.03 21.1205 123.763 21.624 123.662 22.8104C123.64 23.0792 123.638 23.3148 123.657 23.517C123.724 24.2327 124.019 24.5425 124.385 24.5084ZM145.2 23.4008C144.92 23.4268 144.621 23.2507 144.59 22.9162C144.586 22.8695 144.589 22.8221 144.593 22.7747C144.629 22.4104 145.755 18.3196 145.627 16.9505C145.6 16.6627 145.514 16.4981 145.359 16.5126C145.234 16.5242 145.065 16.642 144.837 16.8985C143.774 18.1118 138.631 23.6362 136.476 23.8369C136.173 23.8652 135.931 23.7936 135.763 23.5896C135.586 23.3707 135.483 23.0272 135.444 22.6149C135.35 21.6037 135.609 20.1672 135.881 19.0512C135.174 20.7256 133.883 23.7098 133.288 23.8045C133.134 23.8423 133.004 23.8702 132.871 23.8825C131.938 23.9695 131.544 23.3628 131.467 22.5382C131.333 21.0992 132.133 18.9924 132.675 18.5732C132.711 18.5462 132.955 18.4686 133.22 18.4439C133.547 18.4135 133.905 18.4664 133.933 18.7698C133.942 18.8709 133.923 18.9983 133.851 19.1541C133.432 20.1346 132.65 21.9337 132.736 22.8516C132.758 23.0849 132.837 23.2658 132.987 23.3539C133.012 23.3673 133.043 23.3722 133.075 23.3693C133.86 23.2961 135.984 18.1315 136.234 17.7864C136.429 17.3524 136.773 17.085 137.045 17.0596C137.24 17.0415 137.398 17.1366 137.458 17.3586L137.461 17.3897C137.508 17.9031 136.196 21.0854 136.322 22.6822L136.325 22.7134C136.364 23.1412 136.576 23.302 136.91 23.2708C138.645 23.1092 143.673 17.6269 144.431 16.8344C144.918 16.3261 145.317 16.1477 145.636 16.118L145.643 16.1173C145.986 16.0854 146.242 16.2263 146.437 16.2944C146.714 16.402 146.846 16.7271 146.888 17.1783C146.952 17.8628 146.807 18.8413 146.597 19.7868C147.137 18.9283 147.8 18.1212 148.41 17.6799C148.733 17.4457 149.075 17.3276 149.418 17.2957C151.074 17.1413 152.984 18.8544 155.177 18.65C155.621 18.6087 156.072 18.4881 156.538 18.2643C156.606 18.2344 156.674 18.2123 156.729 18.2072C156.869 18.1942 156.954 18.2647 156.963 18.3581C156.971 18.4437 156.917 18.5428 156.784 18.6259C156.33 18.8957 155.864 19.0332 155.398 19.0767C153.367 19.2659 151.344 17.6733 149.842 17.8132C149.523 17.8429 149.228 17.9567 148.958 18.178C147.765 19.1759 146.171 21.8665 145.745 22.8478C145.691 23.1981 145.449 23.3776 145.2 23.4008ZM157.253 22.317C156.81 22.3583 156.373 22.1322 155.97 21.5107C155.851 21.3334 155.791 21.1115 155.767 20.847C155.658 19.6802 156.411 17.8288 157.602 16.7999C158.139 16.3262 158.744 16.0815 159.335 16.0264C159.856 15.9779 160.375 16.0785 160.836 16.3024C161.038 15.7814 161.277 15.563 161.51 15.5413C161.845 15.5101 162.133 15.9147 162.176 16.3737C162.212 16.7626 162.12 16.8654 161.959 17.2413C162.093 17.4172 162.154 17.5684 162.166 17.6929C162.192 17.9807 161.955 18.1283 161.691 18.153L161.659 18.1559C161.557 18.6597 161.526 19.0785 161.557 19.413C161.642 20.3231 162.187 20.6175 162.957 20.5458C165.135 20.3428 169.064 17.1992 169.168 16.7187C169.302 16.5572 169.445 16.4889 169.569 16.4773C169.748 16.4607 169.883 16.5658 169.897 16.7135C169.905 16.7991 169.869 16.9124 169.761 17.0166C169.195 17.6028 165.031 20.6585 162.503 20.8941C161.686 20.9702 161.038 20.7481 160.737 20.0465C160.648 19.843 160.603 19.6195 160.583 19.4017C160.516 18.6861 160.718 17.9925 160.718 17.9925C160.26 19.1337 158.723 22.18 157.253 22.317ZM157.743 21.3454C158.288 21.2947 160.312 17.9205 160.654 16.798C160.545 16.557 160.47 16.4228 160.322 16.4366C160.221 16.446 159.984 16.5936 159.701 16.8397C158.887 17.5354 157.429 20.1663 157.512 21.0531C157.526 21.2087 157.591 21.3125 157.704 21.3413L157.743 21.3454Z" fill="url(#paint0_linear_2561_29556)"/>
<defs>
<linearGradient id="paint0_linear_2561_29556" x1="55.8168" y1="-4.39567" x2="61.0817" y2="52.1116" gradientUnits="userSpaceOnUse">
<stop stop-color="#DFC188"/>
<stop offset="1" stop-color="#927A4D"/>
</linearGradient>
</defs>
</svg>
