<svg width="46" height="48" viewBox="0 0 46 48" fill="none" xmlns="http://www.w3.org/2000/svg">
<path d="M45.4953 19.8989C45.3816 19.7855 45.2678 19.8233 45.192 19.8611C45.1162 19.9368 45.0404 20.088 45.0024 20.2771C44.8887 20.6932 44.737 20.9957 44.3579 21.0336C44.2063 21.0714 43.8651 20.4662 43.6376 19.8611C42.9172 17.2515 42.576 16.5707 41.5903 15.7386C41.1733 15.3604 40.6046 15.2469 40.3013 15.2091C40.2634 15.2091 40.2634 15.2091 40.2254 15.2091C40.2634 15.1713 40.3771 15.0957 40.4529 15.02C40.7183 14.7931 41.1353 14.4905 41.3628 14.0745C42.1969 12.5616 42.2727 11.5783 41.6661 10.7841C41.3249 10.368 40.2634 9.38467 37.6853 9.27121C37.6474 9.27121 37.6095 9.27121 37.5336 9.27121C36.965 9.23339 35.1831 9.08212 33.8182 9.4225C33.1737 9.57379 32.6429 9.49813 32.1501 9.38467C32.5671 8.96864 32.9462 8.55262 33.3254 8.09877C34.766 6.28336 34.766 5.45127 34.7281 4.77049C34.7281 4.65703 34.7281 4.58139 34.7281 4.46793C34.6902 4.12754 34.6144 3.56022 34.4248 3.44676C34.349 3.40894 34.3111 3.40894 34.2353 3.44676C33.9699 3.56022 33.7803 4.05191 33.2874 5.26219L33.2495 5.33781C32.605 6.96412 30.4819 8.66608 26.956 10.4815C26.3874 10.7841 26.084 10.8975 26.0082 10.8219C25.9324 10.7462 26.0461 10.1789 26.1599 9.64942C26.1978 9.46032 26.2357 9.27122 26.2736 9.04429L26.3115 8.93081C26.539 7.87182 26.9181 6.05642 27.7522 5.56475C27.9039 5.60257 28.3967 6.35898 28.6242 6.73719C28.7758 7.00194 28.9275 7.22887 29.0412 7.38016C29.0791 7.4558 29.2308 7.6449 29.4204 7.56926C29.572 7.49362 29.7237 7.30452 29.5341 5.8295C29.4583 5.30001 29.3824 4.92179 29.2687 4.61922C29.155 4.12755 29.0412 3.78716 29.155 3.18203C29.2687 2.57689 29.6478 2.08521 29.9132 1.707C30.1407 1.36661 30.3303 1.13968 30.3682 0.874928C30.4061 0.572359 30.2923 0.26979 30.0649 0.118506C29.8753 0.0050428 29.5341 -0.108416 28.8896 0.194153C27.8659 0.685827 27.4868 1.25313 25.6291 4.77049C24.5675 6.77501 24.1505 8.5526 23.9609 9.68723V9.76288C23.8851 10.2924 23.7335 10.595 23.6197 10.7462C23.4302 11.0488 23.2027 11.3135 22.8994 11.3514C22.7857 11.3892 22.5961 11.3135 22.4065 11.0866C22.3686 11.0488 22.2549 10.8219 22.3307 10.5193C22.3307 10.4437 22.3686 10.3302 22.3686 10.2924C22.4444 9.98982 22.5582 9.72506 22.5961 9.46032C23.0131 7.94747 23.3164 4.65705 23.3164 2.99292C23.3164 2.80382 23.3164 2.65251 23.3164 2.50123C23.3164 1.89609 23.3543 1.59353 23.1648 1.44224C22.9752 1.29096 22.7098 1.36662 22.179 1.48008H22.1032C21.1554 1.70701 20.5109 2.72817 19.7906 3.8628C19.5631 4.24101 19.2977 4.65704 19.0323 4.99743C18.2361 6.13207 17.6674 6.16987 16.6817 6.28334C16.4922 6.32116 16.2647 6.32116 16.0372 6.35898C15.9614 6.35898 15.8476 6.43464 15.8097 6.58592C15.8097 6.66157 15.8097 6.69937 15.8477 6.73719C15.9235 6.85066 16.1509 6.92631 17.1367 7.07759C18.1982 7.22888 19.2219 6.77501 20.5488 5.52692C20.8142 5.26217 21.0417 5.03526 21.1933 4.88398C21.345 4.73269 21.4587 4.61922 21.5725 4.54358C21.5725 4.73268 21.5345 5.11089 21.4966 5.41346C21.3071 7.03976 21.0417 8.93082 20.018 10.5193C19.1081 11.9565 17.5537 11.2001 16.0751 10.2924C15.5444 9.98982 14.824 9.19556 14.1037 8.17439C14.824 7.00194 15.2411 5.71602 15.1273 5.14871C14.9378 4.20318 13.7625 3.03074 12.5492 2.61471C12.2839 2.53907 12.0185 2.53906 11.791 2.72817C11.1465 3.18202 10.919 4.65703 10.8811 5.33781C10.8811 5.90513 11.2223 7.07759 12.3218 8.51479C11.7152 9.11993 10.919 9.64942 10.0091 10.1411C9.85746 10.2167 9.74372 10.2546 9.62998 10.3302C9.55416 10.368 9.44042 10.4058 9.40251 10.4437L9.28876 10.368C8.87172 10.1033 7.50687 9.38468 5.87663 10.368C4.43595 11.2379 3.52605 12.1834 2.72989 13.129C2.72989 13.129 2.23703 13.6963 2.42659 13.9988C2.54033 14.1879 2.80571 14.0745 2.91945 14.0367C3.33649 13.8854 3.71561 13.6206 4.17056 13.2802C4.43595 13.0911 4.73925 12.8642 5.11838 12.6373C5.23211 12.5617 5.34586 12.486 5.4596 12.4104C5.61125 12.3347 5.76289 12.2212 5.87663 12.1456C5.45959 13.5072 3.33649 18.3861 2.88153 19.3694C2.80571 19.5585 2.72988 19.7098 2.65406 19.8611C2.31284 20.6175 2.08537 21.1092 1.51668 21.2605C1.40294 21.2983 1.32712 21.2605 1.2513 21.2227C0.910084 20.9957 0.796349 20.088 0.720523 19.5207C0.720523 19.4072 0.682608 19.3316 0.682608 19.2181C0.644696 18.9534 0.606779 18.7265 0.417215 18.7265C0.265565 18.7265 0.151827 18.8399 0.0380895 20.1637C-0.113561 21.9034 0.189747 23.2272 0.910086 23.7567C1.13756 23.9458 1.40294 23.9836 1.70624 23.9458C2.38867 23.8323 3.22275 23.1137 3.981 21.9791C4.62551 21.0336 5.72498 18.0835 6.71071 15.4739C7.24149 14.0367 7.77227 12.7129 8.11348 11.9565C8.15139 11.8809 8.1893 11.843 8.22721 11.843C8.34095 11.8052 8.64425 11.843 9.40251 12.5238L9.47832 12.5995C10.047 13.0911 10.5778 13.5828 10.4261 14.3392C10.3124 14.9444 9.66789 15.3982 8.98547 15.8521C8.7959 16.0034 8.60634 16.1168 8.41678 16.2681C8.26513 16.3816 8.15139 16.4572 8.07557 16.5329C7.81018 16.722 7.69644 16.7976 7.65852 16.9489C7.62061 17.0623 7.69644 17.1758 7.81017 17.3271L7.84809 17.4027C8.11348 17.781 8.37886 19.1803 8.37886 20.3906C8.37886 21.0336 8.34095 21.6009 8.26513 22.1682C8.26513 22.206 8.22721 22.3195 8.1893 22.5464C8.15139 22.7733 8.07556 23.0759 7.96182 23.3785L7.92392 23.4919C7.88601 23.5676 7.886 23.6432 7.84809 23.7189C7.81018 23.8323 7.77227 23.908 7.73435 23.9836C7.65853 24.1727 7.54478 24.2862 7.39313 24.3996C6.93818 24.74 6.74862 24.74 6.71071 24.7022C6.63488 24.6644 6.40741 24.324 6.29367 23.7567C6.10411 22.7733 5.99037 22.1304 5.99037 21.7522C5.95246 20.8823 5.95246 20.7688 5.95246 20.7688C5.95246 20.6554 5.95246 20.5797 5.91454 20.5041C5.87663 20.3906 5.8008 20.315 5.68707 20.2771H5.61125C5.53542 20.315 5.42168 20.4284 5.19421 20.8444C5.08047 21.1092 4.8909 21.7522 4.77716 22.206L4.70135 22.5086C4.5497 23.1894 4.39804 23.7945 4.39804 24.8535C4.39804 25.4586 4.51178 26.3663 5.04256 27.274C5.1563 27.501 5.30795 27.7279 5.42168 27.8413L5.4596 27.917C5.80081 28.333 6.17994 28.56 6.78654 28.6734C6.90028 28.7112 6.9761 28.7112 7.08984 28.7491C7.46896 28.8247 7.62061 28.8625 7.96182 29.1273C7.35522 30.451 7.01401 31.7369 6.90027 33.1363C6.63488 35.8972 8.41677 38.053 9.28876 38.6204C9.51624 38.7338 10.0091 38.9608 10.1987 38.696C10.3124 38.5447 10.1987 38.2043 9.66789 36.9941C9.44041 36.5024 9.25085 36.0107 9.0992 35.5947C8.72007 34.46 8.53051 32.7203 8.90964 31.5478L8.94755 31.3965C9.13711 30.7914 9.59207 29.4298 10.8811 27.6901C11.1465 27.3497 11.3361 27.1228 11.4877 27.0471C11.5635 27.1984 11.7152 27.5766 11.9047 28.0305L12.0185 28.3709C12.7009 30.1484 12.7009 31.9638 12.5872 32.3799C12.2839 32.1908 11.2602 31.5478 10.8053 31.3965C10.7294 31.3587 10.502 31.2831 10.3882 31.4344C10.2745 31.5856 10.2745 31.8126 11.2223 32.9472C12.1322 34.0062 12.4734 34.8004 12.8146 35.746C13.0421 36.3133 13.1179 37.1832 13.1938 37.9018C13.2317 38.5069 13.3075 38.9986 13.4212 39.2255C13.5729 39.4903 13.8004 39.6794 14.0658 39.6794C14.2553 39.6794 14.5586 39.6415 14.8619 39.2255C15.0515 39.0364 15.2031 38.696 15.3169 38.3934C15.3548 38.3178 15.3927 38.2421 15.4306 38.1287C15.5823 37.8261 15.8476 36.994 15.9614 36.7293C16.0751 36.3511 16.2268 35.7081 16.3405 34.9139C16.3784 34.7248 16.4163 34.687 16.4163 34.6491C16.568 34.6491 16.8334 34.8004 17.2125 35.3299C17.7054 35.9729 18.1603 37.0697 18.312 37.4479C18.2741 37.4479 18.1982 37.4479 18.1603 37.4101C17.7812 37.3345 17.1367 37.2588 16.6817 37.7505L16.568 38.0152C15.7339 38.9229 14.6724 40.0576 14.4449 42.5538C14.4449 42.6294 14.2932 42.8185 13.8762 42.8563C13.3833 42.932 13.0421 42.5916 12.8526 42.4025C12.8146 42.3646 12.7767 42.3268 12.7388 42.289C12.6251 42.1755 12.5113 42.2134 12.4355 42.2512C12.2839 42.3647 12.2839 42.7429 12.4355 43.0454C12.6251 43.4236 13.4212 44.2179 14.5207 44.1801C15.3927 44.1422 15.9993 43.6506 16.2268 43.4615C16.3026 43.3858 16.4542 42.9698 16.4922 42.8942C17.0229 41.0031 18.5015 39.3768 19.146 38.8851C19.0702 39.1877 18.9944 39.6037 18.8807 40.0197C18.5394 41.4569 18.0466 43.3858 18.0087 44.823C17.9708 46.0333 18.2741 47.0923 18.8048 47.6218C19.0702 47.8487 19.3735 47.9622 19.6768 47.9622C20.7384 47.8487 21.3071 47.3949 21.9516 46.1089C22.5203 44.8987 22.4824 44.7852 22.3686 44.7096C22.217 44.5961 22.0653 44.7852 21.8758 44.9743C21.4587 45.466 21.0417 45.882 20.4351 45.5038C20.1318 45.3147 20.018 44.8608 20.1318 44.1423C20.2455 43.3858 20.3972 42.8563 20.5488 42.289C20.6625 41.873 20.7763 41.4191 20.89 40.8518C21.0417 40.1332 21.1554 40.0954 21.1554 40.0954C21.2312 40.0954 21.4208 40.4358 21.5725 40.6249C21.6483 40.7384 21.7241 40.8518 21.7999 41.0031C21.9137 41.23 22.0274 41.4569 22.217 41.7217L22.2928 41.7973L22.3307 41.8351L22.5582 42.1377C22.634 42.2512 22.7477 42.3268 23.089 42.3268C23.3164 42.3268 23.4681 42.289 23.5818 42.1377C23.6197 42.0999 23.6956 41.9864 23.7714 41.9108L23.923 41.6839C24.0747 41.457 24.1884 41.23 24.3022 41.0409C24.378 40.8896 24.4538 40.7383 24.5296 40.6627C24.6434 40.4736 24.8329 40.1332 24.9088 40.1332C24.9088 40.1332 25.0225 40.2088 25.1742 40.8896C25.2879 41.4569 25.4016 41.9108 25.5154 42.3268C25.667 42.8942 25.7808 43.4615 25.9324 44.1801C26.0461 44.8987 25.9703 45.3525 25.667 45.5416C25.0604 45.882 24.6434 45.5038 24.2263 45.0121C24.0368 44.823 23.8851 44.6339 23.7335 44.7474C23.5818 44.823 23.5439 44.9743 24.1505 46.1468C24.795 47.4327 25.3637 47.9244 26.4253 48C26.4632 48 26.5011 48 26.539 48C26.8044 48 27.0319 47.9244 27.2214 47.7353C27.7522 47.2814 28.0555 46.2602 28.1313 44.8987C28.1692 43.8019 27.7522 42.2134 27.411 40.814C27.2214 40.0954 27.0319 39.4524 26.956 38.9229C27.9418 39.5659 29.4204 41.6082 29.6478 42.932C29.6857 43.0454 29.8374 43.4615 29.9132 43.5371C30.1786 43.8018 30.7852 44.2179 31.6193 44.2557C32.7188 44.2935 33.477 43.4993 33.7045 43.1211C33.8561 42.8185 33.8561 42.4781 33.7045 42.3268C33.6287 42.2512 33.5149 42.2512 33.4012 42.3647C33.3633 42.4025 33.3254 42.4403 33.2874 42.4781C33.06 42.6672 32.7567 43.0076 32.2638 42.932C31.8468 42.8941 31.6951 42.705 31.6951 42.6294C31.2781 39.8306 30.3303 38.7716 29.4204 37.9396C28.8517 37.4101 28.1692 37.5236 27.828 37.5992C28.3209 36.3133 29.2308 35.0652 29.3445 34.9139C29.4583 34.8004 29.572 34.8004 29.6478 34.8004C29.6857 34.8004 29.7237 34.8383 29.7616 35.0652C29.8753 35.8594 30.027 36.5024 30.1407 36.8806C30.2165 37.0697 30.3303 37.4479 30.444 37.5992C30.5957 37.9396 31.2023 39.0742 31.8089 39.5281C32.5292 40.0576 34.3111 40.3601 35.2968 39.6794C36.4721 38.8851 37.799 36.4646 37.837 35.0652C37.8749 33.7793 37.4578 32.1151 36.8133 30.9049C36.4721 30.2619 36.0551 29.6189 35.6001 28.976C35.4485 28.7491 35.2968 28.2196 35.2968 27.9548C35.2968 27.6523 35.3726 26.858 35.4485 26.442L35.4864 26.3663C35.7139 25.383 35.9034 25.0426 36.0171 24.8913C36.093 25.0426 36.2067 25.4586 36.1309 26.2529C36.0551 27.0471 36.0551 29.5055 37.1545 30.7536C37.4957 31.1318 37.799 31.4722 38.1782 31.4344C38.4815 31.4344 38.7469 31.2453 39.0881 30.8292C39.5051 30.3375 39.9601 29.0895 40.415 27.9548C40.6425 27.3119 40.9458 26.5554 41.0974 26.2907C41.2112 26.442 41.3628 26.7824 41.5145 27.0849C41.704 27.4631 41.8936 27.8792 42.0832 28.2196C42.1969 28.4087 42.3486 28.4465 42.4244 28.4465C42.5002 28.4465 42.7277 28.4087 42.8793 27.5766C42.9931 26.8958 41.4007 21.374 40.6046 20.6175C40.4908 20.5041 40.3771 20.4663 40.3013 20.5041C39.9222 20.6175 39.8084 20.9957 39.5051 22.9246L39.4293 23.5298C39.1639 25.2695 38.7848 28.1439 38.4815 28.4843C38.2161 28.333 37.6474 27.7657 37.5716 25.6099C37.5337 24.2484 37.382 23.3028 37.1166 22.8112L37.0787 22.7733C37.0408 22.6977 37.0029 22.622 37.0029 22.622L36.965 22.5842C36.9271 22.5464 36.9271 22.5086 36.9271 22.5086C36.965 22.4329 37.0029 22.3951 37.1924 22.3951C37.3441 22.3951 37.4578 22.3573 37.5716 22.2817C37.6095 22.2438 37.6474 22.2438 37.6853 22.206L37.7232 22.1682C37.7611 22.1304 37.799 22.0926 37.837 22.0926C38.2919 21.6387 38.254 20.8445 38.254 19.8233C38.254 19.672 38.254 19.5207 38.254 19.3316C38.254 17.8188 37.7611 15.2469 37.4199 13.3181C37.2304 12.3347 37.0787 11.4648 37.0408 11.011C37.3062 10.9353 38.5194 10.9353 39.4293 11.3136C39.8084 11.4648 40.2634 11.7296 40.3392 12.1078C40.5667 13.1668 39.5051 14.1123 38.8606 14.6796C38.4436 15.0578 38.254 15.2091 38.4057 15.3982C38.5194 15.5117 38.7089 15.6251 38.9364 15.8143C39.8084 16.3816 41.4766 17.4784 42.2727 20.7688C42.3106 20.8823 42.8035 21.7143 43.5238 22.1304C44.2821 22.5842 45.4195 22.2817 45.9882 21.4874C46.064 21.1092 45.7607 20.1258 45.4953 19.8989ZM12.7388 4.39228C12.8146 4.39228 12.9284 4.43011 13.0421 4.54358C13.4592 4.95961 13.8383 5.98079 13.4591 6.96413C12.9663 6.13207 12.663 5.41347 12.663 4.99743C12.5872 4.5814 12.663 4.4301 12.7388 4.39228ZM36.1309 20.0502C36.0551 20.1259 35.638 20.2393 34.2732 18.613C34.0836 18.4239 33.932 18.2348 33.7803 18.3483C33.6287 18.4239 33.5907 18.5752 34.1973 19.7477C34.7281 20.8066 35.3726 21.6387 35.9792 22.0547C35.9792 22.0547 36.0171 22.0547 36.0171 22.0926C36.0171 22.1304 35.9413 22.206 35.9034 22.2438C35.8276 22.3195 35.7897 22.3573 35.6759 22.3951L35.7518 22.5086L35.638 22.3951L35.5622 22.4329C34.9177 22.7733 34.1594 23.4919 34.1215 25.0804C34.1215 25.1939 34.1215 25.2695 34.1215 25.383V25.4208C34.1215 25.4586 34.1215 26.0259 34.2353 26.3663C34.2353 26.442 34.2732 26.5176 34.2732 26.5554C34.3111 26.7446 34.349 26.858 34.349 27.0093C34.349 27.1984 34.3111 27.3119 34.2732 27.4253L34.2353 27.4631C34.2353 27.4631 34.1594 27.4253 34.0836 27.3875C33.2116 26.6311 32.0742 26.8202 31.5814 27.2362C31.4297 27.3497 30.9748 27.8035 30.5198 28.4465C30.3682 28.6356 30.2165 28.7112 30.1786 28.6734C30.1786 28.6734 30.1407 28.6734 30.1407 28.6356C30.027 28.4465 29.989 27.9926 29.9511 27.8413V27.8035C29.9511 27.7279 29.9511 27.6144 29.9511 27.5388C29.9132 27.3497 29.8753 27.1606 29.8753 27.0093C29.7616 26.4798 29.7616 26.3663 30.5198 26.0259C31.6193 25.5343 32.9841 24.7022 33.3254 24.0592C33.5149 23.681 33.6666 22.206 33.2116 21.6009C32.6429 20.9201 31.2781 20.7688 30.1786 20.9579C29.9511 20.9958 29.7616 21.0336 29.572 21.1092C29.5341 21.1092 29.4962 21.147 29.4204 21.147C29.155 21.2605 29.0033 21.3361 28.8517 21.4496V21.4118C28.9275 21.1092 28.9654 20.8445 29.0791 20.6175C29.1929 20.3906 29.4204 20.2015 29.7237 20.0124C29.9511 19.8611 30.2165 19.7098 30.4819 19.5964C31.1643 19.2181 31.8468 18.8778 32.0742 18.3105C32.0742 18.2726 32.1122 18.2726 32.1122 18.2348V18.197C32.2259 17.8566 32.2638 17.6675 32.188 17.5162C32.0742 17.3649 31.8847 17.3649 31.5056 17.3649C31.4297 17.3649 31.316 17.3649 31.1643 17.3649C30.5198 17.3271 29.3066 17.3271 28.2451 17.4027C27.7143 17.4406 27.2973 17.4784 26.956 17.554C26.6527 17.6297 26.2357 17.7053 25.8566 17.8188C25.8187 17.8188 25.7808 17.8188 25.7428 17.8566C25.8187 17.7431 26.0461 17.5162 26.6527 17.1002C26.7286 17.0245 26.8044 16.9867 26.8802 16.9489C27.2214 16.722 27.3352 16.6085 27.1835 16.1168C27.0698 15.7386 26.9181 15.3604 26.4253 15.0957C26.3494 15.0578 26.1978 14.9822 26.122 15.0957C26.0082 15.2091 26.0841 15.3226 26.2357 15.5117C26.3494 15.7008 26.539 15.9655 26.539 16.1168C26.539 16.2303 26.0461 16.3438 25.7807 16.4572C25.3258 16.6085 24.8329 16.7598 24.4917 16.9867C24.0368 17.2893 23.9989 17.8188 23.9609 18.613C23.923 19.3694 24.1126 19.7477 24.1505 19.8233C24.2642 20.1637 24.4917 20.5419 24.7192 20.9201C24.795 21.0336 25.0225 21.6387 25.0225 21.7522C25.0604 21.8656 25.0604 21.9791 25.0983 22.0547C25.1362 22.2438 25.1742 22.4329 25.1742 22.8112C25.2121 23.4163 25.1362 24.2484 24.9846 24.5131C24.8329 24.324 24.6055 24.2484 24.3401 24.324C23.8093 24.4375 23.089 24.74 22.8994 24.8535C22.6719 24.74 21.9516 24.4375 21.4587 24.324C21.1933 24.2484 20.9659 24.324 20.8142 24.5131C20.6626 24.2484 20.6246 23.4541 20.6246 22.8112C20.6246 22.3951 20.6625 22.2438 20.7005 22.0547C20.7005 21.9791 20.7384 21.8656 20.7763 21.7522C20.8142 21.6009 21.0417 21.0336 21.0796 20.9201C21.2691 20.5797 21.4966 20.1637 21.6104 19.8611C21.6483 19.7476 21.8378 19.4073 21.8378 18.613C21.7999 17.8188 21.762 17.2893 21.3071 16.9867C20.9658 16.722 20.473 16.5707 20.018 16.4572C19.7526 16.3816 19.2598 16.2303 19.2598 16.1168C19.2598 15.9655 19.4493 15.663 19.5631 15.5117C19.7147 15.2848 19.7906 15.2091 19.6768 15.0957C19.601 14.9822 19.4493 15.0578 19.3735 15.0957C18.8807 15.3604 18.7669 15.7386 18.6153 16.1168C18.4636 16.6085 18.5394 16.722 18.9186 16.9489C18.9944 16.9867 19.0702 17.0624 19.146 17.1002C19.7526 17.5162 19.9801 17.7431 20.056 17.8566C20.018 17.8566 19.9801 17.8566 19.9422 17.8188C19.5252 17.7053 19.146 17.6297 18.8048 17.554C18.5015 17.4784 18.0845 17.4406 17.5537 17.4027C16.4922 17.3271 15.3169 17.3271 14.6344 17.3649C14.5207 17.3649 14.407 17.3649 14.2932 17.3649C13.8762 17.3649 13.6866 17.4027 13.6108 17.5162C13.4971 17.6675 13.5729 17.8188 13.6866 18.197V18.2348C13.6866 18.2726 13.7245 18.3104 13.7245 18.3483C13.952 18.9156 14.6344 19.256 15.3169 19.6342C15.5823 19.7855 15.8477 19.8989 16.0751 20.0502C16.4163 20.2393 16.6059 20.4284 16.7196 20.6553C16.8713 20.8823 16.9092 21.147 16.9471 21.4496C16.985 21.5631 16.985 21.7143 17.0229 21.8656C17.0229 21.9413 17.0988 22.0169 17.2125 22.0169H17.2883L17.3262 21.9791C17.4021 21.9034 17.44 21.8278 17.4779 21.374C17.4779 21.2983 17.4779 21.2227 17.5158 21.1092C17.5537 20.7688 17.4779 20.4284 17.2883 20.088C17.0988 19.7476 16.7955 19.3694 16.3784 18.9912C16.2268 18.8399 16.0751 18.7265 15.9235 18.5752C15.8856 18.5374 15.8476 18.4995 15.8097 18.4617C15.9235 18.4617 16.113 18.4617 16.2268 18.4617C16.6438 18.4617 17.1367 18.4995 17.6295 18.5752C18.3878 18.6886 18.9944 18.8778 19.5252 19.1803C19.9422 19.4073 20.0939 19.7098 20.056 20.1637V20.2393C20.018 20.5041 19.9422 20.7688 19.9043 20.9957C19.7526 21.6765 19.6389 22.3573 19.6389 23.0759C19.6389 23.3407 19.6389 23.6054 19.6389 23.7945C19.6389 23.8702 19.6389 23.9458 19.6768 23.9836V24.0214C19.7147 24.4753 19.6768 24.6644 19.5252 24.8157C19.3735 24.9669 19.2977 25.0048 18.6911 25.0426C18.2361 25.0804 18.1224 25.1182 18.0845 25.2317C18.0845 25.2695 18.0845 25.3452 18.1603 25.383C18.2361 25.4964 18.6532 25.6099 18.9565 25.6099C19.0323 25.6099 19.184 25.6099 19.2598 25.5721C19.4873 25.5343 19.7526 25.4965 19.9801 25.6099C20.1318 25.6856 20.7763 26.026 20.8521 26.0638L20.9659 26.1394H21.0038C21.0796 26.1772 21.1554 26.2151 21.2312 26.2529C21.3829 26.3285 21.9137 26.5933 22.217 27.1228C22.3307 27.6523 22.5582 28.56 22.7857 28.7113C22.8236 28.7491 22.8994 28.7491 22.9373 28.7491C23.0131 28.7112 23.1648 28.7112 23.5818 27.1606C23.8851 26.5933 24.4159 26.3285 24.5675 26.2529C24.6434 26.2151 24.7192 26.1772 24.8329 26.1016L24.9467 26.0259C25.1742 25.9125 25.7049 25.6099 25.7807 25.5721C26.0461 25.4586 26.2736 25.4965 26.5011 25.5343C26.6148 25.5343 26.7286 25.5721 26.8044 25.5721C27.1077 25.5721 27.4868 25.4586 27.5626 25.383C27.6385 25.3073 27.6385 25.2317 27.6385 25.1939C27.6006 25.0804 27.4868 25.0426 27.0319 25.0048C26.3874 24.9669 26.3494 24.9291 26.1978 24.7779C26.0461 24.6644 26.0082 24.4375 26.0461 23.9836C26.0461 23.908 26.0461 23.8323 26.0841 23.7567C26.0841 23.5298 26.0841 23.3028 26.0841 23.0381C26.0461 22.3195 25.9703 21.6387 25.8187 20.9579C25.7807 20.731 25.7049 20.4663 25.667 20.2015V20.1259C25.6291 19.672 25.7807 19.3694 26.1978 19.1425C26.7286 18.8399 27.3352 18.6508 28.0934 18.5374C28.5863 18.4617 29.0791 18.4239 29.4962 18.4239C29.6099 18.4239 29.7995 18.4239 29.9132 18.4239C29.8753 18.4617 29.8374 18.4996 29.7995 18.5374L29.7616 18.5752C29.6478 18.6886 29.4962 18.8021 29.3445 18.9534C28.8896 19.3694 28.5863 19.7098 28.4346 20.0502C28.2451 20.3906 28.1692 20.731 28.2072 21.0714C28.2072 21.147 28.2072 21.2605 28.2451 21.3361C28.283 21.6009 28.283 21.79 28.3967 21.9413C28.5484 22.1682 28.8138 22.0547 29.3066 21.8278C29.3824 21.79 29.4204 21.79 29.4583 21.7522C29.7237 21.6765 29.989 21.6765 30.4061 21.6765C31.2023 21.6765 31.7709 21.8656 32.1122 22.2438C32.188 22.3195 32.2259 22.5086 32.188 22.7733C32.1501 23.0003 31.9605 23.6054 31.0885 24.0592C30.8231 24.1727 30.6336 24.2862 30.4819 24.3996C30.2165 24.5509 29.989 24.6644 29.6478 24.8157C29.5341 24.8535 29.3824 24.9291 29.2687 24.967C28.8896 25.0804 28.5105 25.2317 28.3967 25.5343C28.3209 25.6856 28.3588 25.9125 28.4725 26.1394C28.8517 26.8202 29.1929 27.4632 29.0412 28.9382C29.0033 29.3542 28.7379 30.1863 28.2451 30.6023C27.9797 30.8292 27.1077 31.0561 25.8945 31.0561C25.8566 31.0561 25.8566 31.0561 25.8187 31.0561C24.2642 31.0561 23.8472 30.5267 23.7714 30.3376C23.7335 30.2619 23.6956 30.1485 23.6197 30.035C23.3923 29.5055 23.2406 29.2407 23.051 29.2407C22.8615 29.2407 22.7477 29.4677 22.4824 30.035C22.4444 30.1485 22.3686 30.2619 22.3307 30.3376C22.2549 30.4888 21.8757 30.9805 20.2834 31.0561C19.7906 31.0561 19.2977 31.0183 18.9186 31.0183C18.2741 30.9805 18.0466 30.9427 17.9708 31.1318C17.8949 31.2831 18.0845 31.4344 18.1982 31.51C18.6911 31.8504 19.0323 32.0395 20.1318 32.1152C19.7906 32.4555 19.7526 32.6446 19.8285 33.4767C19.8664 33.9684 20.0559 35.0274 20.2834 35.4812C20.4351 35.8216 20.9658 36.1998 22.634 36.2755C22.7857 36.2755 22.9752 36.2755 23.089 36.2755C23.2406 36.2755 23.3923 36.2755 23.5818 36.2755C24.8708 36.1998 25.667 35.9351 25.9324 35.4812C26.0082 35.3299 26.3494 34.2331 26.0841 33.7036C26.0461 33.5902 25.9703 33.4389 25.8566 33.4389C25.7049 33.4011 25.6291 33.5523 25.4774 33.9684C25.4016 34.1575 25.3258 34.3844 25.25 34.4979C25.2121 34.5735 24.8329 35.2165 23.2406 35.2165H23.089H22.9752C21.4208 35.2165 21.0796 34.6491 21.0417 34.5357C20.7763 34.0062 20.5488 33.212 20.5867 32.8716C20.6246 32.569 20.8142 32.3043 20.9659 32.1152C22.4444 32.0773 22.8994 31.6991 23.089 31.51L23.1269 31.4722C23.3164 31.6613 23.7335 32.0773 25.4395 32.0773C26.1599 32.0773 26.7286 31.9639 27.3352 31.7747C27.5626 31.6991 27.7901 31.5857 28.0176 31.4722C28.0555 31.4344 28.0934 31.4344 28.1692 31.3965C28.2451 31.3587 28.3209 31.3209 28.3588 31.2831C29.0412 30.867 29.3066 30.4132 29.4204 30.1863C29.4204 30.1484 29.4583 30.1106 29.4583 30.1106C29.572 29.9593 29.7616 29.5055 29.7616 29.4677C29.7995 29.3542 29.8753 29.2029 29.9132 29.0516C29.9891 29.1651 30.1028 29.2407 30.2544 29.2786C30.1028 29.6946 29.989 30.0728 29.9511 30.4888C29.7995 32.0395 29.8753 32.569 30.1786 33.4011C30.444 34.1953 30.6715 34.8004 31.2023 35.4434C31.5435 35.8594 31.9984 36.0864 32.2259 35.9351C32.3017 35.8972 32.4534 35.746 32.2259 35.3678C31.8847 34.8004 31.5056 34.0818 31.3539 33.0985C31.2023 32.0017 31.4297 30.9805 31.4676 30.8292C31.6572 30.035 32.188 29.3164 32.7567 29.0895C32.9841 29.0138 33.1737 29.0138 33.3633 29.1273C34.0078 29.5433 36.2446 33.628 35.4485 35.6703C34.9935 36.8428 33.8182 37.7883 32.2259 37.221C31.6572 37.0319 31.3539 36.7671 31.1264 36.578C31.0506 36.5024 31.0127 36.4646 30.9369 36.3889L30.861 36.3133C30.7852 36.1998 30.7094 36.0863 30.6336 35.9729C30.4819 35.6325 30.444 35.3299 30.3682 35.0652C30.3682 34.9895 30.3303 34.9139 30.3303 34.8382C30.2923 34.687 30.2165 34.3466 30.1407 34.1197C30.1407 34.0818 30.1028 34.044 30.1028 33.9684L29.989 33.7415C29.8753 33.5523 29.6099 33.212 29.2687 33.0985C28.9275 32.985 28.1692 33.1363 27.7901 33.7415C27.7143 33.8549 27.5247 34.46 27.1456 35.4812C26.8802 36.1998 26.6148 36.9941 26.4253 37.5614C26.3115 37.4101 26.1599 37.2966 26.0082 37.2588C25.25 36.9941 24.795 37.3723 24.4917 37.7505C24.3401 37.9396 24.0747 38.3178 24.0747 38.3556C23.506 39.3012 23.2785 40.0954 23.089 41.1922C22.8994 40.0954 22.6719 39.3012 22.1032 38.3556C22.1032 38.3556 21.8378 37.9396 21.6862 37.7505C21.4587 37.4479 21.1175 37.1454 20.6246 37.1454C20.473 37.1454 20.3213 37.1832 20.1318 37.221C19.9801 37.2588 19.8285 37.3723 19.7147 37.5614C19.4493 36.9562 19.2219 36.162 18.9565 35.4056C18.6532 34.4979 18.5015 33.9306 18.3499 33.7415C17.9328 33.1741 17.2125 32.985 16.8713 33.0985C16.6059 33.1741 16.3405 33.4389 16.2268 33.628C16.1889 33.7036 16.1509 33.7793 16.113 33.8549C15.9993 34.0818 15.8856 34.5735 15.8097 34.8004C15.7718 34.8761 15.7718 34.9517 15.7718 35.0274C15.7339 35.2165 15.696 35.4056 15.5823 35.746C15.5823 35.7838 15.5444 35.8216 15.5064 35.8973C15.4685 34.7248 15.3548 33.2876 15.2031 31.8126C14.8619 27.9926 13.3075 25.2317 12.3218 24.2862C12.0185 24.0214 11.791 23.908 11.5256 23.908C11.0328 23.9836 10.6157 24.6266 9.78163 25.9881L9.55416 26.3663C9.17503 27.0093 8.83381 27.5766 8.53051 28.1061C8.45469 28.0305 8.41677 27.9548 8.34095 27.8792C8.26512 27.7657 8.18931 27.6901 8.11348 27.5766C8.03766 27.4632 7.99974 27.274 8.1893 26.9715C8.30304 26.8202 8.41677 26.6311 8.53051 26.4798C8.83381 26.0638 9.13712 25.6099 9.40251 25.0804C9.55416 24.8157 9.7058 24.5509 9.85745 24.2483C9.89536 24.1727 9.9712 24.0592 10.0091 23.9458C11.1465 21.6765 11.0327 19.4451 10.7294 17.9701C10.5778 17.3271 10.0091 17.1002 9.66789 16.9489C9.59206 16.9111 9.51625 16.8732 9.44042 16.8354C9.51625 16.7598 9.74372 16.6085 10.3503 16.3438C10.6536 16.1925 10.8811 16.079 11.1086 15.9277C11.7152 15.7008 11.9806 15.7386 12.3597 15.8521H12.4355C12.5493 15.8899 12.663 15.8899 12.7767 15.8899C12.663 17.1002 12.6251 19.029 12.6251 20.4284C12.6251 21.1849 12.6251 21.79 12.5872 22.0547C12.4734 23.3406 12.5492 23.6432 12.7388 24.0214C13.08 24.6266 14.4449 25.4965 15.5443 25.9881C16.3026 26.3285 16.3026 26.4042 16.1889 26.9715C16.1509 27.1228 16.113 27.274 16.113 27.501C15.9614 28.56 16.568 29.7324 16.7575 29.9593C16.8334 30.0728 16.9471 30.035 16.9471 29.9972C17.0609 29.9215 17.0609 29.808 16.9471 29.3542C16.8713 29.0138 16.7575 28.5221 16.7575 28.1439C16.7575 27.5766 17.0229 27.1228 17.3262 26.5933C17.44 26.442 17.5158 26.2529 17.6295 26.1016C17.7433 25.8747 17.7812 25.6856 17.7054 25.4965C17.5916 25.1939 17.2125 25.0804 16.8334 24.9291C16.6817 24.8913 16.568 24.8535 16.4543 24.7779C16.151 24.6266 15.9235 24.5131 15.696 24.3996C15.5064 24.2862 15.279 24.1727 14.9757 24.0214C13.3454 23.2272 13.1938 19.7477 13.2696 16.7976C13.2696 16.7976 13.2696 16.0034 13.4971 15.3226C13.5729 15.0578 13.6487 14.8309 13.6487 14.8309C13.8762 13.8476 14.3691 13.3559 14.6344 13.3937C14.824 13.3937 15.3169 13.5828 15.7718 13.7719C16.3405 13.9989 16.9471 14.2636 17.2883 14.2636C17.4779 14.2636 17.7054 14.1879 17.8949 14.0367L18.0466 13.9232L17.8949 13.8097C16.8713 12.9399 14.0658 11.2001 13.3454 11.0488C13.0421 10.9732 12.8526 11.3514 12.8146 11.5783C12.7009 12.1078 12.7767 13.0533 12.8526 13.961C12.8905 14.3392 12.9284 14.7174 12.9284 15.0578V15.1335C12.9284 15.2469 12.8905 15.2848 12.8526 15.3604C12.8146 15.3982 12.7388 15.3982 12.663 15.3982C12.6251 15.3982 12.5872 15.3604 12.5872 15.3604C12.4734 15.1335 12.4734 14.9065 12.5113 14.6796C12.5113 14.5662 12.5113 14.4527 12.5113 14.3392C12.5113 14.1123 12.4355 13.8476 12.3597 13.6584C12.1322 12.9777 11.1465 11.6918 10.2366 10.7841C10.2366 10.7841 10.2366 10.7841 10.2745 10.7841C10.8811 10.7841 11.7531 10.5571 12.663 9.91417C12.8905 9.76289 13.1179 9.53596 13.3833 9.27121C13.8383 9.76289 14.3311 10.2546 14.8998 10.7462C17.7433 13.2046 18.729 13.6206 20.1697 13.6584C20.8521 13.6963 21.4587 13.0912 21.9895 11.8809C22.0653 12.2591 22.1791 12.5616 22.2549 12.7508C22.3307 12.902 22.5582 13.129 22.7477 13.0155C23.089 12.8264 23.2406 12.6373 23.4302 12.4104C23.506 12.3347 23.5439 12.2591 23.6197 12.1834L24.0368 11.7674C24.0747 12.0321 24.0747 12.2969 24.1505 12.486C24.2642 12.8642 24.378 13.0911 24.6055 13.2046C25.0604 13.4315 25.7808 13.0911 27.2214 12.4104L27.6385 12.2212C29.4204 11.3892 30.5956 10.6706 31.6572 9.80072C31.9984 9.91418 32.3775 10.0276 32.8704 10.1411L33.2116 10.2167C33.7045 10.3302 34.349 10.4058 34.8798 10.4815C34.8039 10.595 34.7281 10.7462 34.6523 10.8975C33.8561 12.2969 33.5907 13.5828 33.4012 14.8687C33.4012 14.9065 33.4012 14.9444 33.4012 14.9822C33.3254 15.2848 33.2874 15.3226 33.2874 15.3604C33.2495 15.3982 33.06 15.436 32.9462 15.3604C32.9462 15.3604 32.8704 15.3226 32.8704 15.1335C32.8704 14.7553 32.9083 14.3771 32.9462 13.9232C33.0221 13.0155 33.0979 12.07 32.9841 11.5405C32.9462 11.3135 32.7188 10.9353 32.4534 11.011C31.733 11.1623 29.2687 12.7129 28.4346 13.3559L28.3967 13.3937C27.9039 13.7341 27.8659 13.8097 27.8659 13.8854V13.961L27.9039 13.9988C27.9418 14.0367 28.2072 14.1879 28.4725 14.2258C28.9654 14.2636 29.6858 13.961 30.2924 13.6963C30.6336 13.545 30.9748 13.3937 31.1643 13.3937C31.3918 13.3937 31.9605 14.0745 32.1501 14.7931C32.188 14.9065 32.2259 14.9822 32.2259 15.0578C32.3017 15.3604 32.4155 15.5873 32.5292 15.663C32.7188 15.8143 33.0979 15.9277 33.3633 15.8899H33.4391C33.6287 15.8899 33.8941 15.8521 34.0836 15.5495L34.2353 15.2848C34.2353 15.2469 34.2732 15.2091 34.2732 15.2091C34.4248 14.9444 34.5765 14.604 34.7281 14.2636C34.8419 13.961 34.9935 13.6206 35.1831 13.2424C35.221 13.1668 35.2589 13.0911 35.2968 13.0155C35.4105 12.7886 35.5622 12.4482 35.638 12.4104C35.638 12.4104 35.7518 12.486 35.8655 13.0155C36.0172 15.0578 36.6238 19.6342 36.1309 20.0502Z" fill="url(#paint0_linear_2561_29557)"/>
<defs>
<linearGradient id="paint0_linear_2561_29557" x1="13.7652" y1="-4.44794e-05" x2="39.5441" y2="55.7585" gradientUnits="userSpaceOnUse">
<stop stop-color="#ECC271"/>
<stop offset="1" stop-color="#7F642E"/>
</linearGradient>
</defs>
</svg>
