<svg width="22" height="23" viewBox="0 0 22 23" fill="none" xmlns="http://www.w3.org/2000/svg">
<path fill-rule="evenodd" clip-rule="evenodd" d="M0.473633 11.1975C0.473633 9.10401 1.24136 7.17722 2.52938 5.64713L3.71657 5.10215L4.19107 4.10074C5.83839 2.89971 7.91436 2.18359 10.1702 2.18359H12.3035C14.5829 2.18359 16.6787 2.91475 18.3341 4.13853L18.7972 5.09782L19.7799 5.45705C21.1667 7.01616 22.0001 9.01637 22.0001 11.1975V13.1806C22.0001 15.3559 21.1712 17.3512 19.7909 18.9085L18.6073 19.4023L18.217 20.3248C16.5803 21.4972 14.5295 22.1945 12.3035 22.1945H10.1702C8.03334 22.1945 6.90207 22.0785 5.29946 20.9899L1.39729 22.6337L2.76085 18.9955C1.33387 17.4258 0.473633 15.3966 0.473633 13.1806V11.1975Z" fill="#979DA2"/>
<path d="M7.23724 13.112C6.9599 13.112 6.7199 13.016 6.51724 12.824C6.32524 12.6213 6.22924 12.3813 6.22924 12.104C6.22924 11.8267 6.32524 11.592 6.51724 11.4C6.7199 11.1973 6.9599 11.096 7.23724 11.096C7.51457 11.096 7.74924 11.1973 7.94124 11.4C8.1439 11.592 8.24524 11.8267 8.24524 12.104C8.24524 12.3813 8.1439 12.6213 7.94124 12.824C7.74924 13.016 7.51457 13.112 7.23724 13.112ZM11.2372 13.112C10.9599 13.112 10.7199 13.016 10.5172 12.824C10.3252 12.6213 10.2292 12.3813 10.2292 12.104C10.2292 11.8267 10.3252 11.592 10.5172 11.4C10.7199 11.1973 10.9599 11.096 11.2372 11.096C11.5146 11.096 11.7492 11.1973 11.9412 11.4C12.1439 11.592 12.2452 11.8267 12.2452 12.104C12.2452 12.3813 12.1439 12.6213 11.9412 12.824C11.7492 13.016 11.5146 13.112 11.2372 13.112ZM15.2372 13.112C14.9599 13.112 14.7199 13.016 14.5172 12.824C14.3252 12.6213 14.2292 12.3813 14.2292 12.104C14.2292 11.8267 14.3252 11.592 14.5172 11.4C14.7199 11.1973 14.9599 11.096 15.2372 11.096C15.5146 11.096 15.7492 11.1973 15.9412 11.4C16.1439 11.592 16.2452 11.8267 16.2452 12.104C16.2452 12.3813 16.1439 12.6213 15.9412 12.824C15.7492 13.016 15.5146 13.112 15.2372 13.112Z" fill="white"/>
</svg>
