<svg width="182" height="104" viewBox="0 0 182 104" fill="none" xmlns="http://www.w3.org/2000/svg">
<g filter="url(#filter0_d_245_109759)">
<path fill-rule="evenodd" clip-rule="evenodd" d="M99.7 53.4667C99.7 50.958 100.32 48.6314 101.379 46.7157L103.044 45.6822L103.718 43.7603C105.251 42.4079 107.118 41.614 109.133 41.614H112.467C114.501 41.614 116.386 42.4236 117.927 43.8003L118.597 45.6762L120.032 46.3853C121.205 48.361 121.9 50.8119 121.9 53.4667V57.6546C121.9 60.2823 121.219 62.7104 120.068 64.6756L118.401 65.6152L117.844 67.394C116.319 68.7263 114.465 69.5073 112.467 69.5073H109.133C107.244 69.5073 105.483 68.809 104.008 67.6065L103.264 65.7154L101.604 64.7966C100.409 62.8105 99.7 60.3366 99.7 57.6546V53.4667Z" fill="url(#paint0_linear_245_109759)"/>
<path fill-rule="evenodd" clip-rule="evenodd" d="M60.25 53.4666C60.25 50.9579 60.8703 48.6313 61.9287 46.7156L63.5944 45.6821L64.2682 43.7602C65.8008 42.4078 67.6683 41.6139 69.6834 41.6139H73.0166C75.0514 41.6139 76.9359 42.4235 78.4769 43.8002L79.1468 45.6761L80.582 46.3852C81.7553 48.3609 82.45 50.8118 82.45 53.4666V57.6545C82.45 60.2823 81.7694 62.7103 80.6176 64.6755L78.951 65.6151L78.3942 67.394C76.8687 68.7262 75.0152 69.5072 73.0166 69.5072H69.6834C67.7935 69.5072 66.0334 68.8089 64.5576 67.6064L63.8143 65.7153L62.1542 64.7965C60.9589 62.8104 60.25 60.3365 60.25 57.6545V53.4666Z" fill="url(#paint1_linear_245_109759)"/>
<path d="M73 47.0129L75.175 47.7349L77.35 47.0129V51.4349L75.175 52.1117L73 51.4349V47.0129Z" fill="url(#paint2_linear_245_109759)"/>
<path d="M104.2 47.0129L106.45 47.7349L108.7 47.0129V51.4349L106.45 52.1117L104.2 51.4349V47.0129Z" fill="url(#paint3_linear_245_109759)"/>
<path d="M90.9564 70.2765L101.285 66.2706C101.285 66.2706 97.0668 73.615 90.9564 77.3331V70.2765Z" fill="url(#paint4_linear_245_109759)"/>
<path d="M90.9535 70.2765L80.6253 66.2706C80.6253 66.2706 84.843 73.615 90.9535 77.3331V70.2765Z" fill="url(#paint5_linear_245_109759)"/>
<path d="M91.0086 81.9346L101.815 78.5298C101.815 78.5298 95.8096 82.3069 91.0086 83.4839V81.9346Z" fill="url(#paint6_linear_245_109759)"/>
<path d="M91.0063 81.9346L80.2 78.5298C80.2 78.5298 86.2052 82.3069 91.0063 83.4839V81.9346Z" fill="url(#paint7_linear_245_109759)"/>
<path d="M115.831 5.67123C114.172 7.88558 113.2 10.575 113.2 13.4748V16.0934C122.397 17.0875 129.652 26.2848 130.514 34.5789H133.212C136.345 34.5789 139.251 33.6762 141.642 32.1362L142.515 30.08L145.128 28.9939C146.933 26.7223 148 21.3531 148 18.3157V14.4998C148 11.4311 146.911 8.59811 145.072 6.3143L142.822 5.49463L141.772 3.32631C139.356 1.73492 136.402 0.799156 133.212 0.799156H127.988C124.829 0.799156 121.901 0.69174 119.499 2.25497L118.443 4.47656L115.831 5.67123Z" fill="url(#paint8_linear_245_109759)"/>
<path d="M65.1979 5.4153C66.807 7.81505 67.75 10.7296 67.75 13.8722V16.7099C58.8303 17.7872 51.7943 27.5401 50.9583 36.5286H48.3413C45.3029 36.5286 42.4851 35.5503 40.1659 33.8814L39.3194 31.6531L36.7856 30.476C35.0347 28.0142 34 22.4101 34 19.1183V13.8721C34 10.5466 35.056 8.50141 36.8399 6.0264L39.0217 5.1381L40.0401 2.78825C42.3829 1.06362 45.2478 0.0495192 48.3414 0.0495192H53.4086C56.4721 0.0495192 59.3112 0.0189271 61.6413 1.71303L62.6656 4.12062L65.1979 5.4153Z" fill="url(#paint9_linear_245_109759)"/>
<path d="M91.0014 96.5185L101.808 98.8982C101.808 98.8982 95.8024 96.1462 91.0014 94.9692V96.5185Z" fill="#979DA2"/>
<path d="M90.9991 96.5185L80.1928 98.8982C80.1928 98.8982 86.1981 96.1462 90.9991 94.9692V96.5185Z" fill="#979DA2"/>
<path d="M119.2 11.3484C119.2 2.02977 139.364 0.600071 129.818 0.600071C121.036 0.600071 114.386 4.02569 113.287 12.3102C110.34 11.2215 107.376 10.5517 104.514 10.1528C100.239 9.55414 96.167 9.52408 92.61 9.52171C92.0593 9.52171 91.5218 9.52387 91.0002 9.52387C90.4804 9.52387 89.9431 9.52171 89.39 9.52171C86.2281 9.52387 82.66 9.54982 78.9027 9.97261C76.0872 10.2914 73.1608 10.8355 70.2274 11.7786C69.7233 11.9391 69.2172 12.1168 68.7131 12.3032C67.6095 4.02137 60.3618 0 51.5822 0C42.0362 0.000216259 62.35 2.62984 62.35 11.9482C62.35 20.3497 59.5 16.8833 48.811 33.7156C48.2491 34.8558 47.7007 36.0309 47.1902 37.2844C41.3146 51.6349 39.5361 59.7155 39.5361 67.1976C39.5361 69.7776 39.7492 71.9826 40.0801 73.8342C40.4132 75.6858 40.8639 77.1817 41.3614 78.3741C42.7182 81.6243 44.8431 84.2062 47.2322 86.2053C50.8229 89.2102 54.9864 90.9926 58.5656 92.2783C60.3552 92.918 62.0052 93.4294 63.3508 93.8674C64.0214 94.0843 64.6143 94.2836 65.0938 94.4636C65.5734 94.6411 65.9419 94.804 66.133 94.908C66.9858 95.3589 68.1359 96.0505 69.5572 96.8158C71.6888 97.9694 74.4489 99.2875 77.9749 100.293C81.4987 101.304 85.7889 102.002 91.0004 102C97.9482 102.004 103.26 100.753 107.301 99.2031C109.322 98.4291 111.022 97.5857 112.443 96.816C113.862 96.0509 115.013 95.3593 115.868 94.9082C116.123 94.7694 116.689 94.5308 117.422 94.2795C118.714 93.8241 120.526 93.2822 122.553 92.5882C125.598 91.5389 129.15 90.1384 132.461 87.9313C134.115 86.8253 135.707 85.5161 137.117 83.9333C138.527 82.355 139.749 80.5034 140.639 78.3743C141.137 77.184 141.587 75.686 141.92 73.8344C142.253 71.9828 142.464 69.7778 142.464 67.1954C142.462 59.7157 140.686 51.6329 134.81 37.2846C134.3 36.0313 133.756 34.8521 133.194 33.7159C122.731 17.783 119.2 19.7477 119.2 11.3484ZM139.263 67.1952C139.263 69.4458 139.079 71.2929 138.815 72.7628C138.553 74.2308 138.209 75.3214 137.911 76.0279C136.976 78.2526 135.555 80.0086 133.781 81.5045C131.127 83.7376 124.513 85.2987 121.254 86.4564C119.624 87.0375 118.052 87.5253 116.642 87.9849C115.934 88.2148 115.268 88.4382 114.639 88.6722C114.008 88.9083 113.418 89.1514 112.834 89.4594C111.744 90.0424 110.642 90.7059 109.37 91.391C107.469 92.4186 105.2 93.4982 102.242 94.3438C99.2868 95.1893 95.6385 95.7988 91.0002 95.8009C84.8139 95.7964 80.3951 94.7214 77.0177 93.4312C75.328 92.7828 73.8981 92.0761 72.6301 91.391C71.3576 90.7059 70.2562 90.0422 69.1661 89.4594C68.3889 89.0517 67.594 88.7502 66.7191 88.4423C65.1959 87.909 63.4352 87.3867 61.5565 86.7403C58.7432 85.7756 52.0991 84.5397 49.5253 82.8139C48.2351 81.9554 47.065 80.9774 46.0703 79.8609C45.0757 78.7443 44.2517 77.4933 43.6389 76.0275C43.3412 75.3207 42.997 74.2304 42.7352 72.7624C42.471 71.2925 42.2845 69.4454 42.2865 67.197C42.2845 60.6776 44.8953 53.0557 50.5352 39.2841C52.7425 33.8921 55.3693 27.3856 58.1981 24.4566C60.3208 22.2581 62.5636 20.6234 64.8927 19.3745C68.3833 17.5056 72.0938 16.5127 75.8376 15.9879C79.5769 15.4632 85.8817 15.7199 89.39 15.7199C89.9298 15.7199 90.4671 15.7242 91.0002 15.7242C91.5309 15.7242 92.0682 15.7199 92.61 15.7199C95.7276 15.7199 101.591 15.7545 104.917 16.1317C107.41 16.4137 109.908 16.8864 112.34 17.6667C115.988 18.8418 119.487 20.6848 122.731 23.7027C125.971 26.7249 128.98 33.5199 131.465 39.5838C137.105 53.3544 139.266 60.678 139.263 67.1952Z" fill="url(#paint10_linear_245_109759)"/>
</g>
<path fill-rule="evenodd" clip-rule="evenodd" d="M99.2656 53.8304C99.2656 51.447 99.855 49.2365 100.861 47.4164L102.443 46.4345L103.083 44.6084C104.539 43.3236 106.314 42.5693 108.228 42.5693H111.395C113.328 42.5693 115.119 43.3385 116.583 44.6465L117.219 46.4287L118.583 47.1025C119.698 48.9796 120.358 51.3082 120.358 53.8304V57.8094C120.358 60.306 119.711 62.6128 118.617 64.4799L117.033 65.3727L116.504 67.0627C115.055 68.3285 113.294 69.0705 111.395 69.0705H108.228C106.433 69.0705 104.76 68.407 103.358 67.2646L102.652 65.4678L101.075 64.5949C99.9392 62.7079 99.2656 60.3575 99.2656 57.8094V53.8304Z" fill="url(#paint11_linear_245_109759)"/>
<path fill-rule="evenodd" clip-rule="evenodd" d="M61.7847 53.8304C61.7847 51.447 62.374 49.2365 63.3796 47.4164L64.9621 46.4345L65.6023 44.6084C67.0585 43.3236 68.8328 42.5693 70.7473 42.5693H73.9141C75.8474 42.5693 77.6378 43.3385 79.1019 44.6465L79.7384 46.4287L81.1019 47.1025C82.2167 48.9796 82.8767 51.3082 82.8767 53.8304V57.8094C82.8767 60.306 82.2301 62.6128 81.1358 64.4799L79.5523 65.3727L79.0233 67.0627C77.5739 68.3285 75.813 69.0705 73.9141 69.0705H70.7473C68.9517 69.0705 67.2794 68.407 65.8773 67.2646L65.1711 65.4678L63.5939 64.5949C62.4582 62.7079 61.7847 60.3575 61.7847 57.8094V53.8304Z" fill="url(#paint12_linear_245_109759)"/>
<g filter="url(#filter1_d_245_109759)">
<path d="M73.8984 47.6987L75.9649 48.3846L78.0313 47.6987V51.9L75.9649 52.543L73.8984 51.9V47.6987Z" fill="url(#paint13_linear_245_109759)"/>
</g>
<g filter="url(#filter2_d_245_109759)">
<path d="M103.541 47.6987L105.679 48.3846L107.816 47.6987V51.9L105.679 52.543L103.541 51.9V47.6987Z" fill="url(#paint14_linear_245_109759)"/>
</g>
<path d="M90.9585 70.387L100.925 66.4204C100.925 66.4204 96.3227 72.8679 90.9585 76.1319V70.387Z" fill="url(#paint15_linear_245_109759)"/>
<path d="M90.9556 70.387L80.9886 66.4204C80.9886 66.4204 85.5913 72.8679 90.9556 76.1319V70.387Z" fill="url(#paint16_linear_245_109759)"/>
<path d="M91.0078 80.8776L101.275 78.6167C101.275 78.6167 95.5693 81.2314 91.0078 82.3496V80.8776Z" fill="url(#paint17_linear_245_109759)"/>
<path d="M91.0059 80.8776L80.7389 78.6167C80.7389 78.6167 86.4444 81.2314 91.0059 82.3496V80.8776Z" fill="url(#paint18_linear_245_109759)"/>
<path fill-rule="evenodd" clip-rule="evenodd" d="M114.592 8.42042C113.016 10.5243 112.092 13.0794 112.092 15.8345V18.3224C120.83 19.267 127.723 25.5705 128.542 33.4507H131.105C134.082 33.4507 136.843 32.593 139.115 31.1299L139.944 29.1763L142.426 28.1444C144.141 25.9861 145.155 23.3196 145.155 20.4338V15.8345C145.155 12.919 144.12 10.2274 142.373 8.05752L140.236 7.27876L139.238 5.21865C136.943 3.70668 134.136 2.81763 131.105 2.81763H126.141C123.14 2.81763 120.359 3.68946 118.076 5.17467L117.073 7.28539L114.592 8.42042Z" fill="url(#paint19_linear_245_109759)"/>
<path fill-rule="evenodd" clip-rule="evenodd" d="M66.4855 8.17734C68.0142 10.4573 68.9102 13.2264 68.9102 16.2121V18.9084C60.4357 19.9319 53.7509 26.7632 52.9565 35.3031H50.4702C47.5833 35.3031 44.9062 34.3737 42.7027 32.788L41.8985 30.6709L39.4912 29.5526C37.8276 27.2137 36.8446 24.3239 36.8446 21.1965V16.2121C36.8446 13.0525 37.8479 10.1355 39.5427 7.78405L41.6156 6.94009L42.5832 4.70751C44.8091 3.06896 47.531 2.10547 50.4702 2.10547H55.2846C58.1951 2.10547 60.8926 3.05029 63.1063 4.65984L64.0795 6.94727L66.4855 8.17734Z" fill="url(#paint20_linear_245_109759)"/>
<path d="M91.0012 94.7337L101.268 96.9947C101.268 96.9947 95.5627 94.3799 91.0012 93.2617V94.7337Z" fill="url(#paint21_linear_245_109759)"/>
<path d="M90.9991 94.7337L80.7321 96.9947C80.7321 96.9947 86.4376 94.3799 90.9991 93.2617V94.7337Z" fill="url(#paint22_linear_245_109759)"/>
<path d="M117.793 13.8142C117.793 4.9607 136.95 2.62847 127.881 2.62847C119.537 2.62847 113.219 6.85701 112.174 14.728C109.375 13.6937 106.559 13.0574 103.839 12.6783C99.7782 12.1095 95.909 12.081 92.5295 12.0787C92.0064 12.0787 91.4957 12.0808 91.0001 12.0808C90.5062 12.0808 89.9957 12.0787 89.4703 12.0787C86.4662 12.0808 83.0762 12.1054 79.5064 12.5071C76.8314 12.81 74.051 13.3269 71.2641 14.223C70.7851 14.3754 70.3043 14.5443 69.8253 14.7214C68.7768 6.8529 61.8909 2.05835 53.5494 2.05835C44.4798 2.05856 63.7798 5.53082 63.7798 14.3841C63.7798 22.3663 61.072 16.6382 50.9165 32.6305C50.3826 33.7137 49.8616 34.8302 49.3766 36.0211C43.7942 49.6554 42.1045 59.7674 42.1045 66.8761C42.1045 69.3274 42.3069 71.4223 42.6213 73.1815C42.9378 74.9407 43.366 76.3619 43.8387 77.4948C45.1277 80.5828 47.1466 83.0359 49.4165 84.9352C52.828 87.7901 56.7837 89.4836 60.1843 90.7051C61.8845 91.3128 63.4522 91.7988 64.7306 92.2148C65.3678 92.4209 65.9311 92.6104 66.3867 92.7813C66.8423 92.95 67.1924 93.1047 67.374 93.2035C68.1842 93.6319 69.277 94.289 70.6273 95.0162C72.6525 96.1121 75.2749 97.3644 78.6249 98.3203C81.9729 99.2802 86.0489 99.9436 91.0003 99.9416C97.6013 99.9455 102.648 98.7573 106.487 97.2843C108.407 96.5489 110.023 95.7476 111.373 95.0164C112.721 94.2894 113.814 93.6323 114.626 93.2037C114.869 93.0718 115.407 92.8452 116.103 92.6065C117.331 92.1737 119.052 91.6588 120.978 90.9995C123.871 90.0026 127.246 88.672 130.392 86.575C131.964 85.5242 133.476 84.2803 134.816 82.7765C136.155 81.2771 137.316 79.5179 138.162 77.495C138.634 76.3642 139.062 74.9409 139.379 73.1817C139.695 71.4225 139.896 69.3276 139.896 66.8741C139.894 59.7676 138.206 49.6535 132.624 36.0213C132.138 34.8306 131.622 33.7102 131.088 32.6307C121.148 17.4931 117.793 21.7943 117.793 13.8142ZM136.855 66.8739C136.855 69.0122 136.68 70.767 136.428 72.1636C136.18 73.5583 135.852 74.5945 135.57 75.2657C134.682 77.3794 133.331 79.0477 131.646 80.469C129.125 82.5906 122.841 84.0739 119.744 85.1737C118.196 85.7258 116.702 86.1893 115.362 86.626C114.689 86.8444 114.056 87.0566 113.459 87.2789C112.86 87.5033 112.299 87.7342 111.744 88.0268C110.708 88.5808 109.662 89.2111 108.453 89.862C106.647 90.8384 104.491 91.8641 101.681 92.6675C98.8732 93.4708 95.407 94.0499 91.0001 94.0519C85.1226 94.0476 80.9243 93.0262 77.7154 91.8004C76.1101 91.1844 74.7515 90.513 73.5468 89.862C72.3379 89.2111 71.2914 88.5806 70.2557 88.0268C69.5173 87.6395 68.762 87.3531 67.9308 87.0605C66.4837 86.5538 64.8108 86.0576 63.0259 85.4435C60.353 84.5269 54.0405 83.3527 51.5951 81.7131C50.3694 80.8974 49.2577 79.9682 48.3126 78.9074C47.3676 77.8466 46.5848 76.658 46.0025 75.2653C45.7197 74.5938 45.3927 73.5579 45.144 72.1632C44.8929 70.7666 44.7157 69.0117 44.7176 66.8755C44.7157 60.6815 47.1962 51.0053 52.5546 37.9211C54.6518 32.7982 57.1475 29.0511 59.8351 26.2682C61.8519 24.1795 63.9827 22.6264 66.1956 21.4398C69.512 19.6642 73.0373 18.7209 76.5942 18.2222C80.1469 17.7237 86.1371 17.9676 89.4703 17.9676C89.9831 17.9676 90.4936 17.9717 91.0001 17.9717C91.5043 17.9717 92.0148 17.9676 92.5295 17.9676C95.4916 17.9676 101.062 18.0005 104.222 18.3588C106.591 18.6267 108.965 19.0759 111.275 19.8172C114.741 20.9337 118.066 22.6847 121.148 25.552C124.226 28.4234 127.084 32.4445 129.445 38.2058C134.804 51.2891 136.857 60.6819 136.855 66.8739Z" fill="url(#paint23_linear_245_109759)"/>
<g filter="url(#filter3_d_245_109759)">
<path fill-rule="evenodd" clip-rule="evenodd" d="M141.202 84.6156C138.569 87.98 137 94.2167 137 98.8198V101H181V98.8198C181 94.0239 179.297 87.6259 176.462 84.1977L174.453 83.4078L173.507 81.2985C170.123 78.6077 165.839 77 161.18 77H156.82C152.209 77 147.966 78.5746 144.598 81.2154L143.629 83.4173L141.202 84.6156Z" fill="url(#paint24_linear_245_109759)"/>
</g>
<path fill-rule="evenodd" clip-rule="evenodd" d="M142.82 86.9233C140.427 89.9818 139 93.8333 139 98.018V100H179V98.018C179 93.6581 177.451 89.6599 174.874 86.5434L173.048 85.8253L172.188 83.9078C169.112 81.4615 165.218 80 160.982 80H157.018C152.826 80 148.969 81.4315 145.908 83.8322L145.026 85.8339L142.82 86.9233Z" fill="url(#paint25_linear_245_109759)"/>
<g filter="url(#filter4_d_245_109759)">
<path fill-rule="evenodd" clip-rule="evenodd" d="M5.20194 84.6156C2.56924 87.98 1 94.2167 1 98.8198V101H45V98.8198C45 94.0239 43.2966 87.6259 40.4618 84.1977L38.4533 83.4078L37.5068 81.2985C34.1231 78.6077 29.8394 77 25.1802 77H20.8198C16.2088 77 11.9655 78.5746 8.59843 81.2154L7.62855 83.4173L5.20194 84.6156Z" fill="url(#paint26_linear_245_109759)"/>
</g>
<path fill-rule="evenodd" clip-rule="evenodd" d="M6.81995 86.9233C4.42658 89.9818 3 93.8333 3 98.018V100H43V98.018C43 93.6581 41.4515 89.6599 38.8744 86.5434L37.0484 85.8253L36.188 83.9078C33.1119 81.4615 29.2176 80 24.982 80H21.018C16.8262 80 12.9687 81.4315 9.90766 83.8322L9.02595 85.8339L6.81995 86.9233Z" fill="url(#paint27_linear_245_109759)"/>
<defs>
<filter id="filter0_d_245_109759" x="33" y="0" width="116" height="104" filterUnits="userSpaceOnUse" color-interpolation-filters="sRGB">
<feFlood flood-opacity="0" result="BackgroundImageFix"/>
<feColorMatrix in="SourceAlpha" type="matrix" values="0 0 0 0 0 0 0 0 0 0 0 0 0 0 0 0 0 0 127 0" result="hardAlpha"/>
<feOffset dy="1"/>
<feGaussianBlur stdDeviation="0.5"/>
<feComposite in2="hardAlpha" operator="out"/>
<feColorMatrix type="matrix" values="0 0 0 0 1 0 0 0 0 1 0 0 0 0 1 0 0 0 0.1 0"/>
<feBlend mode="normal" in2="BackgroundImageFix" result="effect1_dropShadow_245_109759"/>
<feBlend mode="normal" in="SourceGraphic" in2="effect1_dropShadow_245_109759" result="shape"/>
</filter>
<filter id="filter1_d_245_109759" x="72.8984" y="47.6987" width="6.13281" height="6.84424" filterUnits="userSpaceOnUse" color-interpolation-filters="sRGB">
<feFlood flood-opacity="0" result="BackgroundImageFix"/>
<feColorMatrix in="SourceAlpha" type="matrix" values="0 0 0 0 0 0 0 0 0 0 0 0 0 0 0 0 0 0 127 0" result="hardAlpha"/>
<feOffset dy="1"/>
<feGaussianBlur stdDeviation="0.5"/>
<feComposite in2="hardAlpha" operator="out"/>
<feColorMatrix type="matrix" values="0 0 0 0 1 0 0 0 0 1 0 0 0 0 1 0 0 0 0.15 0"/>
<feBlend mode="normal" in2="BackgroundImageFix" result="effect1_dropShadow_245_109759"/>
<feBlend mode="normal" in="SourceGraphic" in2="effect1_dropShadow_245_109759" result="shape"/>
</filter>
<filter id="filter2_d_245_109759" x="102.541" y="47.6987" width="6.27539" height="6.84424" filterUnits="userSpaceOnUse" color-interpolation-filters="sRGB">
<feFlood flood-opacity="0" result="BackgroundImageFix"/>
<feColorMatrix in="SourceAlpha" type="matrix" values="0 0 0 0 0 0 0 0 0 0 0 0 0 0 0 0 0 0 127 0" result="hardAlpha"/>
<feOffset dy="1"/>
<feGaussianBlur stdDeviation="0.5"/>
<feComposite in2="hardAlpha" operator="out"/>
<feColorMatrix type="matrix" values="0 0 0 0 1 0 0 0 0 1 0 0 0 0 1 0 0 0 0.15 0"/>
<feBlend mode="normal" in2="BackgroundImageFix" result="effect1_dropShadow_245_109759"/>
<feBlend mode="normal" in="SourceGraphic" in2="effect1_dropShadow_245_109759" result="shape"/>
</filter>
<filter id="filter3_d_245_109759" x="136" y="77" width="46" height="26" filterUnits="userSpaceOnUse" color-interpolation-filters="sRGB">
<feFlood flood-opacity="0" result="BackgroundImageFix"/>
<feColorMatrix in="SourceAlpha" type="matrix" values="0 0 0 0 0 0 0 0 0 0 0 0 0 0 0 0 0 0 127 0" result="hardAlpha"/>
<feOffset dy="1"/>
<feGaussianBlur stdDeviation="0.5"/>
<feComposite in2="hardAlpha" operator="out"/>
<feColorMatrix type="matrix" values="0 0 0 0 1 0 0 0 0 1 0 0 0 0 1 0 0 0 0.15 0"/>
<feBlend mode="normal" in2="BackgroundImageFix" result="effect1_dropShadow_245_109759"/>
<feBlend mode="normal" in="SourceGraphic" in2="effect1_dropShadow_245_109759" result="shape"/>
</filter>
<filter id="filter4_d_245_109759" x="0" y="77" width="46" height="26" filterUnits="userSpaceOnUse" color-interpolation-filters="sRGB">
<feFlood flood-opacity="0" result="BackgroundImageFix"/>
<feColorMatrix in="SourceAlpha" type="matrix" values="0 0 0 0 0 0 0 0 0 0 0 0 0 0 0 0 0 0 127 0" result="hardAlpha"/>
<feOffset dy="1"/>
<feGaussianBlur stdDeviation="0.5"/>
<feComposite in2="hardAlpha" operator="out"/>
<feColorMatrix type="matrix" values="0 0 0 0 1 0 0 0 0 1 0 0 0 0 1 0 0 0 0.15 0"/>
<feBlend mode="normal" in2="BackgroundImageFix" result="effect1_dropShadow_245_109759"/>
<feBlend mode="normal" in="SourceGraphic" in2="effect1_dropShadow_245_109759" result="shape"/>
</filter>
<linearGradient id="paint0_linear_245_109759" x1="91.0002" y1="-1.02504" x2="91.0002" y2="102" gradientUnits="userSpaceOnUse">
<stop stop-color="#E2E2E2"/>
<stop offset="1" stop-color="#C8C8C8"/>
</linearGradient>
<linearGradient id="paint1_linear_245_109759" x1="91.0002" y1="-1.02504" x2="91.0002" y2="102" gradientUnits="userSpaceOnUse">
<stop stop-color="#E2E2E2"/>
<stop offset="1" stop-color="#C8C8C8"/>
</linearGradient>
<linearGradient id="paint2_linear_245_109759" x1="91.0002" y1="-1.02504" x2="91.0002" y2="102" gradientUnits="userSpaceOnUse">
<stop stop-color="#E2E2E2"/>
<stop offset="1" stop-color="#C8C8C8"/>
</linearGradient>
<linearGradient id="paint3_linear_245_109759" x1="91.0002" y1="-1.02504" x2="91.0002" y2="102" gradientUnits="userSpaceOnUse">
<stop stop-color="#E2E2E2"/>
<stop offset="1" stop-color="#C8C8C8"/>
</linearGradient>
<linearGradient id="paint4_linear_245_109759" x1="91.0002" y1="-1.02504" x2="91.0002" y2="102" gradientUnits="userSpaceOnUse">
<stop stop-color="#E2E2E2"/>
<stop offset="1" stop-color="#C8C8C8"/>
</linearGradient>
<linearGradient id="paint5_linear_245_109759" x1="91.0002" y1="-1.02504" x2="91.0002" y2="102" gradientUnits="userSpaceOnUse">
<stop stop-color="#E2E2E2"/>
<stop offset="1" stop-color="#C8C8C8"/>
</linearGradient>
<linearGradient id="paint6_linear_245_109759" x1="91.0002" y1="-1.02504" x2="91.0002" y2="102" gradientUnits="userSpaceOnUse">
<stop stop-color="#E2E2E2"/>
<stop offset="1" stop-color="#C8C8C8"/>
</linearGradient>
<linearGradient id="paint7_linear_245_109759" x1="91.0002" y1="-1.02504" x2="91.0002" y2="102" gradientUnits="userSpaceOnUse">
<stop stop-color="#E2E2E2"/>
<stop offset="1" stop-color="#C8C8C8"/>
</linearGradient>
<linearGradient id="paint8_linear_245_109759" x1="91.0002" y1="-1.02504" x2="91.0002" y2="102" gradientUnits="userSpaceOnUse">
<stop stop-color="#E2E2E2"/>
<stop offset="1" stop-color="#C8C8C8"/>
</linearGradient>
<linearGradient id="paint9_linear_245_109759" x1="91.0002" y1="-1.02504" x2="91.0002" y2="102" gradientUnits="userSpaceOnUse">
<stop stop-color="#E2E2E2"/>
<stop offset="1" stop-color="#C8C8C8"/>
</linearGradient>
<linearGradient id="paint10_linear_245_109759" x1="91.0002" y1="-1.02504" x2="91.0002" y2="102" gradientUnits="userSpaceOnUse">
<stop stop-color="#E2E2E2"/>
<stop offset="1" stop-color="#C8C8C8"/>
</linearGradient>
<linearGradient id="paint11_linear_245_109759" x1="105.577" y1="42.5693" x2="121.457" y2="71.0942" gradientUnits="userSpaceOnUse">
<stop stop-color="#ECC271"/>
<stop offset="1" stop-color="#7F642E"/>
</linearGradient>
<linearGradient id="paint12_linear_245_109759" x1="68.0963" y1="42.5693" x2="83.9759" y2="71.0942" gradientUnits="userSpaceOnUse">
<stop stop-color="#ECC271"/>
<stop offset="1" stop-color="#7F642E"/>
</linearGradient>
<linearGradient id="paint13_linear_245_109759" x1="75.9649" y1="47.6987" x2="75.9649" y2="52.543" gradientUnits="userSpaceOnUse">
<stop stop-color="#324559"/>
<stop offset="1" stop-color="#131D28"/>
</linearGradient>
<linearGradient id="paint14_linear_245_109759" x1="105.679" y1="47.6987" x2="105.679" y2="52.543" gradientUnits="userSpaceOnUse">
<stop stop-color="#324559"/>
<stop offset="1" stop-color="#131D28"/>
</linearGradient>
<linearGradient id="paint15_linear_245_109759" x1="93.941" y1="66.4204" x2="98.9237" y2="77.962" gradientUnits="userSpaceOnUse">
<stop stop-color="#ECC271"/>
<stop offset="1" stop-color="#7F642E"/>
</linearGradient>
<linearGradient id="paint16_linear_245_109759" x1="87.973" y1="66.4204" x2="82.9904" y2="77.962" gradientUnits="userSpaceOnUse">
<stop stop-color="#ECC271"/>
<stop offset="1" stop-color="#7F642E"/>
</linearGradient>
<linearGradient id="paint17_linear_245_109759" x1="94.0801" y1="78.6167" x2="94.9065" y2="83.7468" gradientUnits="userSpaceOnUse">
<stop stop-color="#ECC271"/>
<stop offset="1" stop-color="#7F642E"/>
</linearGradient>
<linearGradient id="paint18_linear_245_109759" x1="87.9335" y1="78.6167" x2="87.1071" y2="83.7468" gradientUnits="userSpaceOnUse">
<stop stop-color="#ECC271"/>
<stop offset="1" stop-color="#7F642E"/>
</linearGradient>
<linearGradient id="paint19_linear_245_109759" x1="128.87" y1="2.81763" x2="128.87" y2="33.4507" gradientUnits="userSpaceOnUse">
<stop stop-color="#ECC271"/>
<stop offset="1" stop-color="#7F642E"/>
</linearGradient>
<linearGradient id="paint20_linear_245_109759" x1="52.6381" y1="2.10547" x2="52.6381" y2="35.3031" gradientUnits="userSpaceOnUse">
<stop stop-color="#ECC271"/>
<stop offset="1" stop-color="#7F642E"/>
</linearGradient>
<linearGradient id="paint21_linear_245_109759" x1="71.3678" y1="2.05828" x2="115.887" y2="7.17062" gradientUnits="userSpaceOnUse">
<stop stop-color="#ECC271"/>
<stop offset="1" stop-color="#7F642E"/>
</linearGradient>
<linearGradient id="paint22_linear_245_109759" x1="71.3678" y1="2.05828" x2="115.887" y2="7.17062" gradientUnits="userSpaceOnUse">
<stop stop-color="#ECC271"/>
<stop offset="1" stop-color="#7F642E"/>
</linearGradient>
<linearGradient id="paint23_linear_245_109759" x1="71.3678" y1="2.05826" x2="122.513" y2="117.385" gradientUnits="userSpaceOnUse">
<stop stop-color="#ECC271"/>
<stop offset="1" stop-color="#7F642E"/>
</linearGradient>
<linearGradient id="paint24_linear_245_109759" x1="159.328" y1="77" x2="159.328" y2="99" gradientUnits="userSpaceOnUse">
<stop stop-color="#DEDEDE"/>
<stop offset="1" stop-color="#ABABAB"/>
</linearGradient>
<linearGradient id="paint25_linear_245_109759" x1="159.299" y1="80" x2="159.299" y2="100" gradientUnits="userSpaceOnUse">
<stop stop-color="#ECC271"/>
<stop offset="1" stop-color="#7F642E"/>
</linearGradient>
<linearGradient id="paint26_linear_245_109759" x1="23.3284" y1="77" x2="23.3284" y2="99" gradientUnits="userSpaceOnUse">
<stop stop-color="#DEDEDE"/>
<stop offset="1" stop-color="#ABABAB"/>
</linearGradient>
<linearGradient id="paint27_linear_245_109759" x1="23.2985" y1="80" x2="23.2985" y2="100" gradientUnits="userSpaceOnUse">
<stop stop-color="#ECC271"/>
<stop offset="1" stop-color="#7F642E"/>
</linearGradient>
</defs>
</svg>
