<svg width="20" height="20" viewBox="0 0 20 20" fill="none" xmlns="http://www.w3.org/2000/svg">
<path fill-rule="evenodd" clip-rule="evenodd" d="M1 9.10811C1 7.22499 1.64196 5.49182 2.71898 4.11549L3.71168 3.62527L4.10845 2.7245C5.4859 1.64416 7.22178 1 9.10811 1H10.8919C12.7979 1 14.5503 1.65768 15.9346 2.75849L16.3218 3.62138L17.1435 3.94451C18.3032 5.34695 19 7.14615 19 9.10811V10.8919C19 12.8486 18.3069 14.6435 17.1527 16.0443L16.163 16.4884L15.8366 17.3182C14.4681 18.3728 12.7532 19 10.8919 19H9.10811C7.32128 19 5.66945 18.422 4.32938 17.4428L3.88999 16.553L2.91253 16.1225C1.71931 14.7106 1 12.8852 1 10.8919V9.10811Z" fill="#C0C3C5"/>
<path d="M6 10.037C6 7.8622 6.38223 6.28338 7.1467 5.3005C7.91713 4.31761 8.94438 3.82617 10.2284 3.82617C11.0168 3.82617 11.6887 4.01258 12.2441 4.3854C12.7996 4.75257 13.2296 5.31462 13.5342 6.07155C13.8447 6.82283 14 7.91869 14 9.35912C14 11.8672 13.6178 13.6381 12.8533 14.6718C12.0888 15.7055 11.0705 16.2224 9.79843 16.2224C8.92049 16.2224 8.18888 15.9795 7.60358 15.4937C7.01829 15.0022 6.58828 14.3103 6.31355 13.4177C6.10452 12.7343 6 11.6073 6 10.037ZM7.55879 9.8082C7.55879 12.1185 7.81262 13.703 8.32027 14.5616C8.72639 15.2621 9.31168 15.6123 10.0761 15.6123C10.8048 15.6123 11.3572 15.2903 11.7335 14.6464C12.2053 13.8386 12.4412 12.3558 12.4412 10.198C12.4412 7.90457 12.1904 6.33987 11.6887 5.50385C11.2647 4.79211 10.6674 4.43624 9.89698 4.43624C9.17432 4.43624 8.60396 4.78928 8.18589 5.49538C7.76782 6.19582 7.55879 7.63343 7.55879 9.8082Z" fill="#979DA2"/>
<line y1="-0.4" x2="5.40413" y2="-0.4" transform="matrix(-0.556771 0.830666 -0.766002 -0.642838 13.1069 3)" stroke="#979DA2" stroke-width="0.8"/>
<line y1="-0.4" x2="5.40413" y2="-0.4" transform="matrix(-0.556771 0.830666 -0.766002 -0.642838 13.7568 4.12207)" stroke="#979DA2" stroke-width="0.8"/>
</svg>
