<svg width="147" height="147" viewBox="0 0 147 147" fill="none" xmlns="http://www.w3.org/2000/svg">
<g filter="url(#filter0_d_245_91839)">
<g filter="url(#filter1_d_245_91839)">
<path fill-rule="evenodd" clip-rule="evenodd" d="M1 61.5555C1 48.5271 5.04758 36.444 11.9539 26.4951L22.823 21.1276L27.2196 11.1462C37.2205 4.12279 49.4065 0 62.5555 0H84.3051C97.5834 0 109.88 4.20427 119.935 11.3542L124.307 21.0963L133.671 24.779C141.328 35.0399 145.861 47.7683 145.861 61.5555V83.3051C145.861 96.952 141.42 109.562 133.904 119.768L123.029 124.648L119.396 133.886C109.441 140.805 97.3468 144.861 84.3052 144.861H62.5555C50.2233 144.861 38.7381 141.234 29.1082 134.989L24.2581 125.168L13.4256 120.396C5.6261 110.082 1 97.2336 1 83.3052V61.5555Z" fill="url(#paint0_linear_245_91839)"/>
</g>
<rect x="4.21631" y="3.2168" width="138.428" height="138.428" rx="69.2142" fill="url(#paint1_linear_245_91839)" stroke="url(#paint2_linear_245_91839)"/>
<circle cx="73.3253" cy="71.5123" r="61.8863" fill="#CBCFD2" stroke="url(#paint3_angular_245_91839)" stroke-width="3"/>
<circle cx="73" cy="72" r="62" fill="url(#paint4_linear_245_91839)"/>
<g clip-path="url(#clip0_245_91839)" filter="url(#filter2_i_245_91839)">
<path d="M59.592 72.8668C60.5848 73.1858 61.4497 73.5048 62.2578 74.001C64.3807 75.3124 65.2817 77.3935 64.7616 79.9288C64.4241 81.5758 63.5066 82.8163 62.2413 83.7732C60.6612 84.9705 58.8623 85.5453 56.9778 85.8776C55.7517 86.0925 54.5184 86.1268 53.28 86.1257C44.7325 86.1213 36.1853 86.1242 27.6385 86.1346C27.1576 86.1346 27.0048 86.0349 27.0059 85.4811C27.0244 77.5109 27.0244 69.5408 27.0059 61.5706C27.0059 61.1032 27.0853 60.9481 27.5611 60.9492C57.0896 60.9625 86.6174 60.9666 116.145 60.9614C116.609 60.9614 117.073 60.9836 117.538 60.9725C117.79 60.9669 117.915 61.0312 117.911 61.338C117.9 62.5741 117.903 63.8101 117.911 65.0462C117.911 65.3076 117.819 65.3984 117.576 65.4028C116.89 65.4139 116.204 65.4682 115.518 65.4682C102.603 65.4726 89.6878 65.4744 76.7726 65.4737C75.9171 65.4737 76.043 65.3796 76.043 66.2756C76.0389 72.7143 76.0406 79.1531 76.0481 85.5919C76.0481 85.995 76.0007 86.1457 75.5559 86.1401C73.8705 86.0991 72.1852 86.1036 70.4988 86.1401C69.9941 86.1501 69.831 86.0294 69.8331 85.4479C69.8558 79.0239 69.8475 72.6077 69.8475 66.187C69.8475 65.4815 69.8475 65.477 69.1716 65.477C57.3745 65.477 45.577 65.4737 33.7792 65.4671C33.3386 65.4671 33.1961 65.5678 33.1982 66.0718C33.2168 71.1091 33.2188 76.146 33.2044 81.1826C33.2044 81.5591 33.2219 81.7851 33.6864 81.7829C39.9633 81.7596 46.2403 81.7829 52.5162 81.7364C54.1159 81.7253 55.7156 81.5082 57.1749 80.7074C58.7437 79.8479 59.1235 78.0248 58.0202 76.7124C57.5836 76.194 57.0139 75.8905 56.403 75.6712C55.3441 75.2902 54.248 75.2227 53.1448 75.2227C48.1909 75.2227 43.237 75.2149 38.2831 75.2348C37.7816 75.2348 37.5762 75.1352 37.6185 74.5437C37.6677 73.7693 37.6677 72.9922 37.6185 72.2178C37.5865 71.664 37.7351 71.4967 38.2697 71.499C43 71.5211 47.7296 71.5241 52.4584 71.5078C53.5049 71.5078 54.5504 71.4956 55.5856 71.2553C57.3401 70.8488 58.0501 69.9195 57.9686 68.0101C57.9541 67.6889 58.0718 67.639 58.3164 67.6401C60.1741 67.6401 62.0318 67.6556 63.8895 67.6346C64.2941 67.6291 64.2972 67.8384 64.26 68.1463C64.0722 69.6836 63.3721 70.8739 62.1598 71.7172C61.4064 72.2421 60.559 72.539 59.592 72.8668Z" fill="#EAEAEA"/>
<path d="M96.6441 86.1226C92.036 86.1226 87.4289 86.1137 82.8208 86.1348C82.3326 86.1348 82.2098 85.9775 82.2263 85.4802C82.2583 84.4479 82.2614 83.4135 82.2263 82.379C82.2077 81.8728 82.3429 81.7321 82.8218 81.7332C89.2206 81.7502 95.6162 81.7539 102.009 81.7443C104.313 81.7443 106.617 81.7554 108.924 81.7443C110.067 81.7355 111.185 81.5472 112.226 80.9845C113.45 80.32 114.013 79.1293 113.737 77.8047C113.559 76.9474 113.046 76.3792 112.349 75.9838C111.121 75.2871 109.781 75.2184 108.434 75.2173C102.964 75.2173 97.4997 75.2395 92.0319 75.2074C89.8202 75.1941 87.6456 74.8496 85.6228 73.8085C83.7311 72.836 82.2655 71.4427 81.7908 69.1278C81.5266 67.8408 81.5895 67.7589 82.8053 67.7589C84.4394 67.7589 86.0728 67.7589 87.7055 67.7589C87.9119 67.7589 88.14 67.6758 88.1524 68.0856C88.2133 70.0183 89.0812 71.0207 90.9235 71.3574C91.6201 71.4707 92.3244 71.5208 93.0288 71.5069C98.4791 71.5069 103.929 71.4881 109.38 71.5191C111.463 71.5302 113.533 71.7739 115.497 72.5979C117.461 73.4219 118.998 74.7477 119.475 77.0847C120.168 80.4784 118.836 83.2285 115.809 84.7403C113.952 85.6652 111.983 86.0694 109.96 86.0916C105.522 86.1348 101.084 86.1049 96.6524 86.1049L96.6441 86.1226Z" fill="#EAEAEA"/>
<path d="M69.2534 90.2275L73.7412 84.2607H75.271V90.2275H76.4961V91.478H75.271V93.3633H73.9697V91.478H69.2534V90.2275ZM73.9697 90.2275V85.835L70.6689 90.2275H73.9697ZM74.2109 124.126C74.5283 124.114 74.7547 124.029 74.8901 123.873C75.0255 123.712 75.0933 123.466 75.0933 123.136V122.54C75.0933 122.193 75.0171 121.939 74.8647 121.778C74.7124 121.617 74.4648 121.537 74.1221 121.537H71.7544C71.4116 121.537 71.1641 121.617 71.0117 121.778C70.8594 121.939 70.7832 122.193 70.7832 122.54V123.136C70.7832 123.466 70.8509 123.712 70.9863 123.873C71.126 124.029 71.3524 124.114 71.6655 124.126H74.2109ZM74.249 128.087C74.596 128.087 74.8457 128.007 74.998 127.846C75.1504 127.685 75.2266 127.434 75.2266 127.091V126.386C75.2266 126.039 75.1504 125.787 74.998 125.631C74.8457 125.474 74.596 125.396 74.249 125.396H71.6274C71.2804 125.396 71.0308 125.474 70.8784 125.631C70.7261 125.787 70.6499 126.039 70.6499 126.386V127.091C70.6499 127.434 70.7261 127.685 70.8784 127.846C71.0308 128.007 71.2804 128.087 71.6274 128.087H74.249ZM71.5893 129.363C70.1125 129.363 69.374 128.627 69.374 127.154V126.697C69.374 126.13 69.4756 125.675 69.6787 125.333C69.8818 124.99 70.1759 124.761 70.561 124.647C70.2183 124.486 69.9559 124.241 69.7739 123.911C69.5962 123.576 69.5073 123.153 69.5073 122.641V122.476C69.5073 120.999 70.2436 120.261 71.7163 120.261H74.1601C75.6328 120.261 76.3691 120.999 76.3691 122.476V122.641C76.3691 123.153 76.2781 123.576 76.0962 123.911C75.9184 124.241 75.6582 124.486 75.3154 124.647C75.7005 124.761 75.9946 124.99 76.1977 125.333C76.4009 125.675 76.5024 126.13 76.5024 126.697V127.154C76.5024 128.627 75.7661 129.363 74.2934 129.363H71.5893Z" fill="#EAEAEA"/>
</g>
</g>
<path d="M69.5378 22H67.7738V15.154C67.7738 14.146 67.2698 13.6 66.3458 13.6H65.3658V11.822H66.3458C68.3898 11.822 69.5378 13.054 69.5378 15.154V22ZM81.0705 22H71.2985V19.018C71.2985 17.044 72.3905 16.078 74.4345 16.078H78.1165C78.8865 16.078 79.4045 15.616 79.4045 14.846C79.4045 14.076 78.9145 13.6 78.1165 13.6H71.3825V11.822H78.1165C80.1325 11.822 81.2385 13.04 81.2385 14.678C81.2385 16.358 80.0625 17.576 78.1305 17.576H74.4345C73.4825 17.576 72.9785 18.024 72.9785 18.892V20.222H81.0705V22Z" fill="url(#paint5_linear_245_91839)"/>
<path d="M69.5378 22V22.25H69.7878V22H69.5378ZM67.7738 22H67.5238V22.25H67.7738V22ZM65.3658 13.6H65.1158V13.85H65.3658V13.6ZM65.3658 11.822V11.572H65.1158V11.822H65.3658ZM69.5378 21.75H67.7738V22.25H69.5378V21.75ZM68.0238 22V15.154H67.5238V22H68.0238ZM68.0238 15.154C68.0238 14.6114 67.8881 14.1535 67.5903 13.8297C67.2893 13.5026 66.8575 13.35 66.3458 13.35V13.85C66.758 13.85 67.0403 13.9704 67.2223 14.1683C67.4074 14.3695 67.5238 14.6886 67.5238 15.154H68.0238ZM66.3458 13.35H65.3658V13.85H66.3458V13.35ZM65.6158 13.6V11.822H65.1158V13.6H65.6158ZM65.3658 12.072H66.3458V11.572H65.3658V12.072ZM66.3458 12.072C67.3169 12.072 68.0427 12.3634 68.5271 12.8728C69.0133 13.384 69.2878 14.148 69.2878 15.154H69.7878C69.7878 14.06 69.4883 13.158 68.8895 12.5282C68.2888 11.8966 67.4186 11.572 66.3458 11.572V12.072ZM69.2878 15.154V22H69.7878V15.154H69.2878ZM81.0705 22V22.25H81.3205V22H81.0705ZM71.2985 22H71.0485V22.25H71.2985V22ZM71.3825 13.6H71.1325V13.85H71.3825V13.6ZM71.3825 11.822V11.572H71.1325V11.822H71.3825ZM72.9785 20.222H72.7285V20.472H72.9785V20.222ZM81.0705 20.222H81.3205V19.972H81.0705V20.222ZM81.0705 21.75H71.2985V22.25H81.0705V21.75ZM71.5485 22V19.018H71.0485V22H71.5485ZM71.5485 19.018C71.5485 18.0763 71.8079 17.418 72.2696 16.9914C72.735 16.5615 73.4477 16.328 74.4345 16.328V15.828C73.3773 15.828 72.522 16.0775 71.9304 16.6241C71.3351 17.174 71.0485 17.9857 71.0485 19.018H71.5485ZM74.4345 16.328H78.1165V15.828H74.4345V16.328ZM78.1165 16.328C78.551 16.328 78.9389 16.1971 79.2203 15.9331C79.5037 15.6672 79.6545 15.2894 79.6545 14.846H79.1545C79.1545 15.1726 79.0463 15.4108 78.8782 15.5684C78.7081 15.7279 78.452 15.828 78.1165 15.828V16.328ZM79.6545 14.846C79.6545 14.4068 79.5135 14.0257 79.2337 13.7547C78.9548 13.4846 78.5651 13.35 78.1165 13.35V13.85C78.466 13.85 78.7202 13.9534 78.8858 14.1138C79.0505 14.2733 79.1545 14.5152 79.1545 14.846H79.6545ZM78.1165 13.35H71.3825V13.85H78.1165V13.35ZM71.6325 13.6V11.822H71.1325V13.6H71.6325ZM71.3825 12.072H78.1165V11.572H71.3825V12.072ZM78.1165 12.072C79.0737 12.072 79.7873 12.3602 80.26 12.8158C80.7326 13.2711 80.9885 13.9164 80.9885 14.678H81.4885C81.4885 13.8016 81.1915 13.0189 80.607 12.4557C80.0228 11.8928 79.1753 11.572 78.1165 11.572V12.072ZM80.9885 14.678C80.9885 15.458 80.7167 16.1146 80.2358 16.5767C79.7544 17.0392 79.0432 17.326 78.1305 17.326V17.826C79.1498 17.826 79.9926 17.5038 80.5822 16.9373C81.1723 16.3704 81.4885 15.578 81.4885 14.678H80.9885ZM78.1305 17.326H74.4345V17.826H78.1305V17.326ZM74.4345 17.326C73.9235 17.326 73.4898 17.4459 73.1823 17.7227C72.8701 18.0036 72.7285 18.4093 72.7285 18.892H73.2285C73.2285 18.5067 73.3389 18.2544 73.5167 18.0943C73.6992 17.9301 73.9935 17.826 74.4345 17.826V17.326ZM72.7285 18.892V20.222H73.2285V18.892H72.7285ZM72.9785 20.472H81.0705V19.972H72.9785V20.472ZM80.8205 20.222V22H81.3205V20.222H80.8205Z" fill="#D2D2D2"/>
<path d="M120.283 104.916L119.461 104.319L120.373 103.064L118.424 101.649C117.44 100.935 117.215 100.06 117.972 99.0173L119.382 97.075L120.204 97.6719L118.799 99.6076C118.404 100.151 118.505 100.502 118.998 100.859L120.946 102.274L122.878 99.6128L123.7 100.21L121.768 102.871L122.448 103.364L121.875 104.154L121.195 103.66L120.283 104.916Z" fill="url(#paint6_linear_245_91839)"/>
<path d="M120.283 104.916L120.137 105.119L120.339 105.266L120.486 105.063L120.283 104.916ZM119.461 104.319L119.259 104.173L119.112 104.375L119.314 104.522L119.461 104.319ZM120.373 103.064L120.575 103.21L120.722 103.008L120.52 102.861L120.373 103.064ZM119.382 97.075L119.529 96.8727L119.326 96.7259L119.179 96.9282L119.382 97.075ZM120.204 97.6719L120.406 97.8188L120.553 97.6164L120.351 97.4696L120.204 97.6719ZM120.946 102.274L120.799 102.476L121.002 102.623L121.149 102.421L120.946 102.274ZM122.878 99.6128L123.025 99.4105L122.822 99.2636L122.675 99.466L122.878 99.6128ZM123.7 100.21L123.902 100.357L124.049 100.154L123.847 100.007L123.7 100.21ZM121.768 102.871L121.566 102.724L121.419 102.926L121.622 103.073L121.768 102.871ZM122.448 103.364L122.651 103.511L122.797 103.309L122.595 103.162L122.448 103.364ZM121.875 104.154L121.728 104.356L121.93 104.503L122.077 104.301L121.875 104.154ZM121.195 103.66L121.342 103.458L121.14 103.311L120.993 103.513L121.195 103.66ZM120.43 104.714L119.608 104.117L119.314 104.522L120.137 105.119L120.43 104.714ZM119.663 104.466L120.575 103.21L120.171 102.917L119.259 104.173L119.663 104.466ZM120.52 102.861L118.571 101.447L118.277 101.851L120.226 103.266L120.52 102.861ZM118.571 101.447C118.108 101.11 117.859 100.762 117.791 100.409C117.723 100.06 117.822 99.6499 118.174 99.1641L117.77 98.8704C117.366 99.427 117.198 99.9757 117.3 100.504C117.401 101.027 117.757 101.473 118.277 101.851L118.571 101.447ZM118.174 99.1641L119.584 97.2219L119.179 96.9282L117.77 98.8704L118.174 99.1641ZM119.235 97.2774L120.057 97.8742L120.351 97.4696L119.529 96.8727L119.235 97.2774ZM120.002 97.525L118.596 99.4608L119.001 99.7545L120.406 97.8188L120.002 97.525ZM118.596 99.4608C118.383 99.7554 118.264 100.05 118.32 100.349C118.375 100.645 118.588 100.871 118.851 101.061L119.144 100.657C118.915 100.491 118.831 100.362 118.811 100.257C118.792 100.156 118.82 100.004 119.001 99.7545L118.596 99.4608ZM118.851 101.061L120.799 102.476L121.093 102.071L119.144 100.657L118.851 101.061ZM121.149 102.421L123.08 99.7597L122.675 99.466L120.744 102.127L121.149 102.421ZM122.731 99.8151L123.553 100.412L123.847 100.007L123.025 99.4105L122.731 99.8151ZM123.498 100.063L121.566 102.724L121.971 103.017L123.902 100.357L123.498 100.063ZM121.622 103.073L122.301 103.566L122.595 103.162L121.915 102.668L121.622 103.073ZM122.246 103.217L121.673 104.007L122.077 104.301L122.651 103.511L122.246 103.217ZM122.022 103.951L121.342 103.458L121.048 103.863L121.728 104.356L122.022 103.951ZM120.993 103.513L120.081 104.769L120.486 105.063L121.397 103.807L120.993 103.513Z" fill="#D2D2D2"/>
<path d="M101.304 122.858H96.9444V121.842H101.304C101.848 121.842 102.144 121.538 102.144 121.082C102.144 120.586 101.84 120.33 101.304 120.33H96.9444V117.042H102.824V118.058H97.9924V119.474H101.304C102.472 119.474 103.104 120.026 103.104 121.154C103.104 122.13 102.512 122.858 101.304 122.858Z" fill="url(#paint7_linear_245_91839)"/>
<path d="M96.9444 122.858H96.6944V123.108H96.9444V122.858ZM96.9444 121.842V121.592H96.6944V121.842H96.9444ZM96.9444 120.33H96.6944V120.58H96.9444V120.33ZM96.9444 117.042V116.792H96.6944V117.042H96.9444ZM102.824 117.042H103.074V116.792H102.824V117.042ZM102.824 118.058V118.308H103.074V118.058H102.824ZM97.9924 118.058V117.808H97.7424V118.058H97.9924ZM97.9924 119.474H97.7424V119.724H97.9924V119.474ZM101.304 122.608H96.9444V123.108H101.304V122.608ZM97.1944 122.858V121.842H96.6944V122.858H97.1944ZM96.9444 122.092H101.304V121.592H96.9444V122.092ZM101.304 122.092C101.622 122.092 101.899 122.003 102.099 121.816C102.301 121.627 102.394 121.366 102.394 121.082H101.894C101.894 121.255 101.84 121.374 101.757 121.451C101.673 121.53 101.531 121.592 101.304 121.592V122.092ZM102.394 121.082C102.394 120.782 102.3 120.518 102.091 120.333C101.886 120.153 101.608 120.08 101.304 120.08V120.58C101.536 120.58 101.679 120.636 101.76 120.708C101.836 120.775 101.894 120.887 101.894 121.082H102.394ZM101.304 120.08H96.9444V120.58H101.304V120.08ZM97.1944 120.33V117.042H96.6944V120.33H97.1944ZM96.9444 117.292H102.824V116.792H96.9444V117.292ZM102.574 117.042V118.058H103.074V117.042H102.574ZM102.824 117.808H97.9924V118.308H102.824V117.808ZM97.7424 118.058V119.474H98.2424V118.058H97.7424ZM97.9924 119.724H101.304V119.224H97.9924V119.724ZM101.304 119.724C101.853 119.724 102.232 119.854 102.473 120.076C102.71 120.293 102.854 120.637 102.854 121.154H103.354C103.354 120.544 103.182 120.048 102.811 119.707C102.444 119.37 101.924 119.224 101.304 119.224V119.724ZM102.854 121.154C102.854 121.592 102.722 121.95 102.479 122.197C102.237 122.443 101.857 122.608 101.304 122.608V123.108C101.959 123.108 102.48 122.91 102.836 122.548C103.191 122.187 103.354 121.692 103.354 121.154H102.854Z" fill="#D2D2D2"/>
<path d="M75.767 132H72.603C69.733 132 67.983 130.292 67.983 126.806C67.983 123.334 69.733 121.822 72.603 121.822H78.441V123.6H72.603C70.993 123.6 70.027 124.342 69.803 126.064H75.767C77.713 126.064 78.861 126.946 78.861 128.906C78.861 130.88 77.685 132 75.767 132ZM75.599 127.576H69.789C69.971 129.41 70.951 130.222 72.603 130.222H75.599C76.607 130.222 77.153 129.718 77.153 128.836C77.153 127.996 76.621 127.576 75.599 127.576Z" fill="url(#paint8_linear_245_91839)"/>
<path d="M78.441 121.822H78.691V121.572H78.441V121.822ZM78.441 123.6V123.85H78.691V123.6H78.441ZM69.803 126.064L69.5551 126.032L69.5184 126.314H69.803V126.064ZM69.789 127.576V127.326H69.513L69.5402 127.601L69.789 127.576ZM75.767 131.75H72.603V132.25H75.767V131.75ZM72.603 131.75C71.218 131.75 70.1375 131.339 69.4005 130.541C68.6607 129.739 68.233 128.51 68.233 126.806H67.733C67.733 128.588 68.1804 129.956 69.0331 130.88C69.8885 131.807 71.118 132.25 72.603 132.25V131.75ZM68.233 126.806C68.233 125.109 68.6605 123.936 69.3953 123.187C70.1293 122.438 71.2098 122.072 72.603 122.072V121.572C71.1262 121.572 69.8967 121.962 69.0383 122.837C68.1806 123.712 67.733 125.031 67.733 126.806H68.233ZM72.603 122.072H78.441V121.572H72.603V122.072ZM78.191 121.822V123.6H78.691V121.822H78.191ZM78.441 123.35H72.603V123.85H78.441V123.35ZM72.603 123.35C71.7618 123.35 71.0521 123.544 70.5212 123.996C69.989 124.449 69.6723 125.131 69.5551 126.032L70.0509 126.096C70.1577 125.275 70.436 124.725 70.8453 124.377C71.2559 124.027 71.8343 123.85 72.603 123.85V123.35ZM69.803 126.314H75.767V125.814H69.803V126.314ZM75.767 126.314C76.7071 126.314 77.4115 126.528 77.8788 126.938C78.3402 127.343 78.611 127.976 78.611 128.906H79.111C79.111 127.876 78.8078 127.088 78.2087 126.562C77.6156 126.041 76.7729 125.814 75.767 125.814V126.314ZM78.611 128.906C78.611 129.843 78.3329 130.546 77.8577 131.015C77.3818 131.485 76.6778 131.75 75.767 131.75V132.25C76.7742 132.25 77.6172 131.955 78.2089 131.371C78.8011 130.787 79.111 129.943 79.111 128.906H78.611ZM75.599 127.326H69.789V127.826H75.599V127.326ZM69.5402 127.601C69.6351 128.556 69.9419 129.284 70.4764 129.772C71.0112 130.259 71.7376 130.472 72.603 130.472V129.972C71.8164 129.972 71.2269 129.779 70.8132 129.402C70.3992 129.025 70.125 128.43 70.0378 127.551L69.5402 127.601ZM72.603 130.472H75.599V129.972H72.603V130.472ZM75.599 130.472C76.1417 130.472 76.5982 130.336 76.9213 130.046C77.2484 129.751 77.403 129.33 77.403 128.836H76.903C76.903 129.224 76.7847 129.496 76.5868 129.674C76.3849 129.856 76.0644 129.972 75.599 129.972V130.472ZM77.403 128.836C77.403 128.36 77.2495 127.965 76.9161 127.696C76.5926 127.436 76.1381 127.326 75.599 127.326V127.826C76.0819 127.826 76.4044 127.926 76.6025 128.086C76.7905 128.237 76.903 128.472 76.903 128.836H77.403Z" fill="#D2D2D2"/>
<path d="M45.4992 122.858H44.1792L48.1552 118.058H44.1312V117.042H49.0192C49.4752 117.042 49.6592 117.258 49.6592 117.522C49.6592 117.674 49.6272 117.81 49.4672 118.002L45.4992 122.858Z" fill="url(#paint9_linear_245_91839)"/>
<path d="M45.4992 122.858V123.108H45.6178L45.6928 123.017L45.4992 122.858ZM44.1792 122.858L43.9867 122.699L43.6475 123.108H44.1792V122.858ZM48.1552 118.058L48.3478 118.218L48.687 117.808H48.1552V118.058ZM44.1312 118.058H43.8812V118.308H44.1312V118.058ZM44.1312 117.042V116.792H43.8812V117.042H44.1312ZM49.4672 118.002L49.2752 117.842L49.2737 117.844L49.4672 118.002ZM45.4992 122.608H44.1792V123.108H45.4992V122.608ZM44.3718 123.018L48.3478 118.218L47.9627 117.899L43.9867 122.699L44.3718 123.018ZM48.1552 117.808H44.1312V118.308H48.1552V117.808ZM44.3812 118.058V117.042H43.8812V118.058H44.3812ZM44.1312 117.292H49.0192V116.792H44.1312V117.292ZM49.0192 117.292C49.2111 117.292 49.3059 117.338 49.3489 117.374C49.3868 117.406 49.4092 117.451 49.4092 117.522H49.9092C49.9092 117.329 49.8397 117.134 49.6716 116.992C49.5086 116.855 49.2834 116.792 49.0192 116.792V117.292ZM49.4092 117.522C49.4092 117.579 49.4034 117.62 49.3883 117.662C49.3726 117.705 49.3419 117.762 49.2752 117.842L49.6593 118.162C49.7526 118.05 49.8179 117.944 49.8582 117.833C49.8991 117.72 49.9092 117.618 49.9092 117.522H49.4092ZM49.2737 117.844L45.3057 122.7L45.6928 123.017L49.6608 118.161L49.2737 117.844Z" fill="#D2D2D2"/>
<path d="M29.4023 103.031L27.1646 104.401C26.1958 104.995 25.2047 104.785 24.649 103.878C24.2939 103.298 24.379 102.702 24.7416 102.283C24.3021 102.392 23.7961 102.271 23.4117 101.643C22.8937 100.797 23.2607 99.972 24.2227 99.3829L26.2694 98.1295C27.2313 97.5404 28.14 97.5843 28.6581 98.4303C29.0425 99.0579 28.914 99.5681 28.6166 99.9097C29.1547 99.7772 29.7244 99.9724 30.0796 100.552C30.6353 101.46 30.3711 102.438 29.4023 103.031ZM28.048 100.896L25.8785 102.225C25.3941 102.521 25.2632 102.92 25.5139 103.33C25.7771 103.759 26.2997 103.74 26.8455 103.405L28.6602 102.294C29.206 101.96 29.4612 101.503 29.198 101.073C28.9473 100.664 28.5323 100.599 28.048 100.896ZM26.6321 99.0894L24.9129 100.142C24.3466 100.489 24.122 100.842 24.402 101.299C24.6652 101.729 25.0016 101.758 25.4928 101.457L27.5395 100.204C28.0307 99.9027 28.1582 99.5901 27.895 99.1603C27.6151 98.7032 27.1983 98.7426 26.6321 99.0894Z" fill="url(#paint10_linear_245_91839)"/>
<path d="M24.7416 102.283L24.9306 102.446L25.4474 101.849L24.681 102.04L24.7416 102.283ZM28.6166 99.9097L28.4281 99.7456L27.9094 100.341L28.6764 100.152L28.6166 99.9097ZM29.2718 102.818L27.034 104.188L27.2952 104.614L29.5329 103.244L29.2718 102.818ZM27.034 104.188C26.5932 104.458 26.1676 104.534 25.803 104.458C25.4404 104.382 25.1087 104.15 24.8622 103.747L24.4358 104.009C24.745 104.513 25.1867 104.84 25.7008 104.947C26.2129 105.054 26.7673 104.938 27.2952 104.614L27.034 104.188ZM24.8622 103.747C24.5637 103.26 24.6396 102.783 24.9306 102.446L24.5525 102.119C24.1185 102.621 24.024 103.336 24.4358 104.009L24.8622 103.747ZM24.681 102.04C24.5048 102.084 24.3242 102.08 24.1518 102.009C23.9797 101.937 23.7949 101.79 23.6249 101.513L23.1985 101.774C23.413 102.124 23.6734 102.351 23.9602 102.47C24.2467 102.589 24.5389 102.591 24.8021 102.525L24.681 102.04ZM23.6249 101.513C23.4022 101.149 23.3789 100.812 23.4958 100.506C23.6168 100.189 23.9008 99.8732 24.3532 99.5961L24.0921 99.1697C23.5826 99.4818 23.2022 99.8731 23.0286 100.328C22.851 100.793 22.9032 101.291 23.1985 101.774L23.6249 101.513ZM24.3532 99.5961L26.3999 98.3427L26.1388 97.9163L24.0921 99.1697L24.3532 99.5961ZM26.3999 98.3427C26.8524 98.0656 27.2648 97.9549 27.6042 97.9904C27.932 98.0247 28.2227 98.198 28.4449 98.5608L28.8713 98.2997C28.5754 97.8166 28.1527 97.545 27.6562 97.4931C27.1712 97.4424 26.6483 97.6043 26.1388 97.9163L26.3999 98.3427ZM28.4449 98.5608C28.6142 98.8373 28.6599 99.0692 28.6439 99.256C28.6279 99.4436 28.5478 99.6081 28.4281 99.7456L28.8052 100.074C28.9829 99.8698 29.1157 99.6083 29.1421 99.2986C29.1686 98.9879 29.0864 98.6509 28.8713 98.2997L28.4449 98.5608ZM28.6764 100.152C29.1083 100.046 29.5679 100.195 29.8664 100.683L30.2928 100.422C29.881 99.7493 29.201 99.5084 28.5569 99.667L28.6764 100.152ZM29.8664 100.683C30.1129 101.085 30.1688 101.486 30.0714 101.844C29.9735 102.203 29.7127 102.548 29.2718 102.818L29.5329 103.244C30.0608 102.921 30.4164 102.48 30.5538 101.975C30.6918 101.468 30.6019 100.927 30.2928 100.422L29.8664 100.683ZM27.9174 100.683L25.7479 102.011L26.009 102.438L28.1785 101.109L27.9174 100.683ZM25.7479 102.011C25.4748 102.179 25.2696 102.394 25.1831 102.657C25.094 102.927 25.1446 103.205 25.3007 103.46L25.7271 103.199C25.6326 103.045 25.6232 102.919 25.658 102.813C25.6953 102.7 25.7977 102.567 26.009 102.438L25.7479 102.011ZM25.3007 103.46C25.4787 103.751 25.7547 103.894 26.0662 103.904C26.3637 103.913 26.6792 103.8 26.9761 103.619L26.7149 103.192C26.466 103.345 26.2473 103.409 26.0813 103.404C25.9293 103.399 25.8124 103.338 25.7271 103.199L25.3007 103.46ZM26.9761 103.619L28.7908 102.507L28.5297 102.081L26.7149 103.192L26.9761 103.619ZM28.7908 102.507C29.0876 102.325 29.3313 102.095 29.4585 101.826C29.5917 101.545 29.5891 101.233 29.4112 100.943L28.9848 101.204C29.07 101.343 29.0715 101.475 29.0065 101.613C28.9355 101.763 28.7786 101.928 28.5297 102.081L28.7908 102.507ZM29.4112 100.943C29.255 100.688 29.0303 100.516 28.7489 100.473C28.4755 100.431 28.1905 100.515 27.9174 100.683L28.1785 101.109C28.3898 100.98 28.5545 100.949 28.6723 100.967C28.7822 100.984 28.8902 101.05 28.9848 101.204L29.4112 100.943ZM26.5015 98.8762L24.7823 99.9291L25.0434 100.355L26.7626 99.3026L26.5015 98.8762ZM24.7823 99.9291C24.4883 100.109 24.2394 100.315 24.1153 100.57C23.9791 100.85 24.0132 101.143 24.1888 101.43L24.6152 101.169C24.5108 100.998 24.5173 100.887 24.5649 100.789C24.6246 100.666 24.7712 100.522 25.0434 100.355L24.7823 99.9291ZM24.1888 101.43C24.3435 101.683 24.5499 101.864 24.8296 101.9C25.0933 101.934 25.3613 101.831 25.6234 101.67L25.3622 101.244C25.1331 101.384 24.9873 101.416 24.8942 101.404C24.8171 101.394 24.7237 101.346 24.6152 101.169L24.1888 101.43ZM25.6234 101.67L27.6701 100.417L27.4089 99.9903L25.3622 101.244L25.6234 101.67ZM27.6701 100.417C27.9321 100.256 28.1464 100.065 28.2357 99.8142C28.3303 99.5485 28.2629 99.2824 28.1082 99.0297L27.6818 99.2908C27.7903 99.468 27.7908 99.5731 27.7647 99.6464C27.7332 99.7348 27.6381 99.85 27.4089 99.9903L27.6701 100.417ZM28.1082 99.0297C27.9327 98.7431 27.6868 98.5793 27.3756 98.5734C27.0922 98.5681 26.7956 98.6961 26.5015 98.8762L26.7626 99.3026C27.0349 99.1359 27.2297 99.0708 27.3662 99.0733C27.475 99.0754 27.5774 99.1204 27.6818 99.2908L28.1082 99.0297Z" fill="#D2D2D2"/>
<path d="M19.3162 80H14.2062V78.222H19.3162C20.8422 78.222 21.7942 77.564 22.0742 75.996H15.9982C14.1502 75.996 13.0582 75.1 13.0582 73C13.0582 71.194 14.1922 69.822 15.9982 69.822H19.3162C22.1722 69.822 23.9362 71.53 23.9362 75.016C23.9362 78.488 22.1722 80 19.3162 80ZM14.8642 73.098C14.8642 74.064 15.3962 74.512 16.2922 74.512H22.1442C22.0182 72.51 21.0382 71.614 19.3162 71.614H16.2922C15.4102 71.614 14.8642 72.146 14.8642 73.098Z" fill="url(#paint11_linear_245_91839)"/>
<path d="M14.2062 80H13.9562V80.25H14.2062V80ZM14.2062 78.222V77.972H13.9562V78.222H14.2062ZM22.0742 75.996L22.3203 76.0399L22.3728 75.746H22.0742V75.996ZM22.1442 74.512V74.762H22.4104L22.3937 74.4963L22.1442 74.512ZM19.3162 79.75H14.2062V80.25H19.3162V79.75ZM14.4562 80V78.222H13.9562V80H14.4562ZM14.2062 78.472H19.3162V77.972H14.2062V78.472ZM19.3162 78.472C20.1127 78.472 20.7936 78.3004 21.3159 77.8944C21.8411 77.4861 22.1727 76.8669 22.3203 76.0399L21.8281 75.9521C21.6958 76.6931 21.4113 77.1869 21.009 77.4996C20.6039 77.8146 20.0457 77.972 19.3162 77.972V78.472ZM22.0742 75.746H15.9982V76.246H22.0742V75.746ZM15.9982 75.746C15.1109 75.746 14.4493 75.5308 14.0088 75.1056C13.57 74.682 13.3082 74.0089 13.3082 73H12.8082C12.8082 74.0911 13.0924 74.916 13.6616 75.4654C14.2291 76.0132 15.0376 76.246 15.9982 76.246V75.746ZM13.3082 73C13.3082 72.1486 13.5752 71.4165 14.0372 70.9005C14.4967 70.3873 15.1627 70.072 15.9982 70.072V69.572C15.0277 69.572 14.2237 69.9427 13.6647 70.567C13.1082 71.1885 12.8082 72.0454 12.8082 73H13.3082ZM15.9982 70.072H19.3162V69.572H15.9982V70.072ZM19.3162 70.072C20.6939 70.072 21.7747 70.4826 22.5137 71.2815C23.2553 72.0833 23.6862 73.3125 23.6862 75.016H24.1862C24.1862 73.2335 23.7351 71.8657 22.8807 70.942C22.0237 70.0154 20.7945 69.572 19.3162 69.572V70.072ZM23.6862 75.016C23.6862 76.7124 23.2555 77.8852 22.5189 78.6348C21.7829 79.3837 20.7021 79.75 19.3162 79.75V80.25C20.7863 80.25 22.0155 79.8603 22.8755 78.9852C23.7349 78.1108 24.1862 76.7916 24.1862 75.016H23.6862ZM14.6142 73.098C14.6142 73.626 14.7605 74.0545 15.07 74.3485C15.3772 74.6403 15.8058 74.762 16.2922 74.762V74.262C15.8827 74.262 15.5972 74.1597 15.4144 73.986C15.2339 73.8145 15.1142 73.536 15.1142 73.098H14.6142ZM16.2922 74.762H22.1442V74.262H16.2922V74.762ZM22.3937 74.4963C22.3285 73.4606 22.0399 72.668 21.5052 72.1351C20.9678 71.5998 20.2196 71.364 19.3162 71.364V71.864C20.1348 71.864 20.7376 72.0762 21.1523 72.4894C21.5695 72.905 21.8339 73.5614 21.8947 74.5277L22.3937 74.4963ZM19.3162 71.364H16.2922V71.864H19.3162V71.364ZM16.2922 71.364C15.8007 71.364 15.3732 71.5133 15.0688 71.8241C14.7651 72.1343 14.6142 72.5747 14.6142 73.098H15.1142C15.1142 72.6693 15.2364 72.3677 15.4261 72.1739C15.6153 71.9807 15.9017 71.864 16.2922 71.864V71.364Z" fill="#D2D2D2"/>
<path d="M22.8071 47.2607L21.9719 46.6964L24.162 43.4549C24.4845 42.9776 24.4205 42.5578 23.983 42.2622L23.519 41.9487L24.0878 41.1069L24.5518 41.4204C25.5196 42.0743 25.669 43.0249 24.9972 44.0192L22.8071 47.2607ZM25.9604 49.478C24.5484 48.5241 24.2137 46.6759 25.1632 45.2706C26.1172 43.8587 27.8851 43.5856 29.297 44.5395C30.7023 45.489 31.1153 47.2356 30.1613 48.6475C29.2119 50.0528 27.3657 50.4275 25.9604 49.478ZM29.286 48.114C29.913 47.186 29.7711 46.0957 28.7237 45.388C27.6631 44.6714 26.6052 44.9511 25.9782 45.8792C25.3512 46.8072 25.4686 47.9196 26.5225 48.6317C27.5832 49.3483 28.659 49.0421 29.286 48.114Z" fill="url(#paint12_linear_245_91839)"/>
<path d="M22.8071 47.2607L22.6672 47.4678L22.8743 47.6078L23.0143 47.4006L22.8071 47.2607ZM21.9719 46.6964L21.7648 46.5564L21.6248 46.7636L21.832 46.9035L21.9719 46.6964ZM23.519 41.9487L23.3118 41.8088L23.1719 42.0159L23.379 42.1559L23.519 41.9487ZM24.0878 41.1069L24.2277 40.8997L24.0206 40.7598L23.8806 40.9669L24.0878 41.1069ZM22.9471 47.0535L22.1119 46.4892L21.832 46.9035L22.6672 47.4678L22.9471 47.0535ZM22.1791 46.8363L24.3691 43.5948L23.9548 43.3149L21.7648 46.5564L22.1791 46.8363ZM24.3691 43.5948C24.552 43.3242 24.6475 43.037 24.6047 42.7532C24.5612 42.4648 24.3829 42.2307 24.1229 42.0551L23.843 42.4694C24.0206 42.5893 24.093 42.713 24.1103 42.8277C24.1282 42.9469 24.0945 43.1082 23.9548 43.3149L24.3691 43.5948ZM24.1229 42.0551L23.6589 41.7416L23.379 42.1559L23.843 42.4694L24.1229 42.0551ZM23.7261 42.0887L24.2949 41.2468L23.8806 40.9669L23.3118 41.8088L23.7261 42.0887ZM23.9478 41.314L24.4118 41.6275L24.6917 41.2132L24.2277 40.8997L23.9478 41.314ZM24.4118 41.6275C24.8536 41.926 25.0824 42.2729 25.1428 42.6334C25.2036 42.9965 25.1013 43.4185 24.7901 43.8792L25.2044 44.1591C25.5649 43.6255 25.7238 43.0751 25.6359 42.5508C25.5476 42.024 25.2178 41.5686 24.6917 41.2132L24.4118 41.6275ZM24.7901 43.8792L22.6 47.1207L23.0143 47.4006L25.2044 44.1591L24.7901 43.8792ZM26.1003 49.2709C24.8053 48.3959 24.4965 46.704 25.3704 45.4106L24.9561 45.1306C23.931 46.6478 24.2916 48.6522 25.8204 49.6852L26.1003 49.2709ZM25.3704 45.4106C26.2411 44.1218 27.8506 43.864 29.157 44.7467L29.437 44.3324C27.9196 43.3072 25.9932 43.5955 24.9561 45.1306L25.3704 45.4106ZM29.157 44.7467C30.4573 45.6252 30.8247 47.2191 29.9542 48.5076L30.3685 48.7875C31.4059 47.252 30.9474 45.3529 29.437 44.3324L29.157 44.7467ZM29.9542 48.5076C29.0806 49.8006 27.3891 50.1416 26.1003 49.2709L25.8204 49.6852C27.3423 50.7134 29.3432 50.305 30.3685 48.7875L29.9542 48.5076ZM29.4931 48.254C29.8371 47.7448 29.9804 47.1746 29.8786 46.623C29.7765 46.0699 29.4338 45.5661 28.8637 45.1809L28.5838 45.5952C29.061 45.9176 29.3129 46.3127 29.3869 46.7137C29.4612 47.1162 29.3618 47.5552 29.0788 47.9741L29.4931 48.254ZM28.8637 45.1809C28.2876 44.7916 27.6906 44.66 27.1387 44.7718C26.5883 44.8834 26.1147 45.2306 25.7711 45.7392L26.1854 46.0191C26.4688 45.5996 26.8375 45.343 27.238 45.2619C27.637 45.181 28.0993 45.2678 28.5838 45.5952L28.8637 45.1809ZM25.7711 45.7392C25.4277 46.2474 25.2783 46.8218 25.3736 47.3786C25.4693 47.9378 25.8071 48.45 26.3826 48.8388L26.6625 48.4245C26.184 48.1012 25.9361 47.7012 25.8664 47.2942C25.7963 46.8847 25.9017 46.4389 26.1854 46.0191L25.7711 45.7392ZM26.3826 48.8388C26.961 49.2296 27.5637 49.3532 28.1193 49.234C28.6725 49.1153 29.1497 48.7622 29.4931 48.254L29.0788 47.9741C28.7952 48.3938 28.4211 48.6579 28.0144 48.7451C27.6102 48.8319 27.1447 48.7503 26.6625 48.4245L26.3826 48.8388Z" fill="#D2D2D2"/>
<path d="M44.3006 27.6865H43.2926V23.7745C43.2926 23.1985 43.0046 22.8865 42.4766 22.8865H41.9166V21.8705H42.4766C43.6446 21.8705 44.3006 22.5745 44.3006 23.7745V27.6865ZM47.3787 27.6865H46.3707V23.7745C46.3707 23.1985 46.0827 22.8865 45.5547 22.8865H44.9947V21.8705H45.5547C46.7227 21.8705 47.3787 22.5745 47.3787 23.7745V27.6865Z" fill="url(#paint13_linear_245_91839)"/>
<path d="M44.3006 27.6865V27.9365H44.5506V27.6865H44.3006ZM43.2926 27.6865H43.0426V27.9365H43.2926V27.6865ZM41.9166 22.8865H41.6666V23.1365H41.9166V22.8865ZM41.9166 21.8705V21.6205H41.6666V21.8705H41.9166ZM44.3006 27.4365H43.2926V27.9365H44.3006V27.4365ZM43.5426 27.6865V23.7745H43.0426V27.6865H43.5426ZM43.5426 23.7745C43.5426 23.4479 43.4609 23.1565 43.2665 22.9453C43.0691 22.7306 42.7903 22.6365 42.4766 22.6365V23.1365C42.6908 23.1365 42.82 23.1984 42.8986 23.2838C42.9802 23.3725 43.0426 23.5251 43.0426 23.7745H43.5426ZM42.4766 22.6365H41.9166V23.1365H42.4766V22.6365ZM42.1666 22.8865V21.8705H41.6666V22.8865H42.1666ZM41.9166 22.1205H42.4766V21.6205H41.9166V22.1205ZM42.4766 22.1205C43.0097 22.1205 43.3935 22.2799 43.6454 22.5448C43.899 22.8115 44.0506 23.2185 44.0506 23.7745H44.5506C44.5506 23.1305 44.3741 22.5855 44.0077 22.2002C43.6396 21.8131 43.1114 21.6205 42.4766 21.6205V22.1205ZM44.0506 23.7745V27.6865H44.5506V23.7745H44.0506ZM47.3787 27.6865V27.9365H47.6287V27.6865H47.3787ZM46.3707 27.6865H46.1207V27.9365H46.3707V27.6865ZM44.9947 22.8865H44.7447V23.1365H44.9947V22.8865ZM44.9947 21.8705V21.6205H44.7447V21.8705H44.9947ZM47.3787 27.4365H46.3707V27.9365H47.3787V27.4365ZM46.6207 27.6865V23.7745H46.1207V27.6865H46.6207ZM46.6207 23.7745C46.6207 23.4479 46.539 23.1565 46.3447 22.9453C46.1472 22.7306 45.8684 22.6365 45.5547 22.6365V23.1365C45.7689 23.1365 45.8982 23.1984 45.9767 23.2838C46.0583 23.3725 46.1207 23.5251 46.1207 23.7745H46.6207ZM45.5547 22.6365H44.9947V23.1365H45.5547V22.6365ZM45.2447 22.8865V21.8705H44.7447V22.8865H45.2447ZM44.9947 22.1205H45.5547V21.6205H44.9947V22.1205ZM45.5547 22.1205C46.0878 22.1205 46.4716 22.2799 46.7235 22.5448C46.9772 22.8115 47.1287 23.2185 47.1287 23.7745H47.6287C47.6287 23.1305 47.4522 22.5855 47.0859 22.2002C46.7177 21.8131 46.1895 21.6205 45.5547 21.6205V22.1205ZM47.1287 23.7745V27.6865H47.6287V23.7745H47.1287Z" fill="#D2D2D2"/>
<path d="M125.103 46.8064L120.103 49.2912L119.344 47.7652C118.842 46.755 119.156 45.983 120.202 45.4633L122.086 44.527C122.48 44.3312 122.627 43.9631 122.432 43.569C122.236 43.175 121.864 43.056 121.456 43.2589L118.01 44.9712L117.558 44.0614L121.004 42.3491C122.035 41.8364 122.911 42.1785 123.327 43.0167C123.755 43.8764 123.463 44.7988 122.474 45.29L120.583 46.2298C120.095 46.4719 119.951 46.8293 120.172 47.2735L120.51 47.9541L124.651 45.8965L125.103 46.8064Z" fill="url(#paint14_linear_245_91839)"/>
<path d="M125.103 46.8064L125.215 47.0302L125.438 46.919L125.327 46.6951L125.103 46.8064ZM120.103 49.2912L119.879 49.4024L119.99 49.6263L120.214 49.5151L120.103 49.2912ZM118.01 44.9712L117.786 45.0825L117.897 45.3064L118.121 45.1951L118.01 44.9712ZM117.558 44.0614L117.446 43.8375L117.222 43.9487L117.334 44.1726L117.558 44.0614ZM120.51 47.9541L120.286 48.0654L120.398 48.2893L120.621 48.178L120.51 47.9541ZM124.651 45.8965L124.875 45.7853L124.764 45.5614L124.54 45.6726L124.651 45.8965ZM124.992 46.5825L119.991 49.0673L120.214 49.5151L125.215 47.0302L124.992 46.5825ZM120.327 49.1799L119.568 47.6539L119.12 47.8764L119.879 49.4024L120.327 49.1799ZM119.568 47.6539C119.337 47.1894 119.312 46.8186 119.426 46.5193C119.542 46.2154 119.821 45.9314 120.313 45.6871L120.09 45.2394C119.536 45.5149 119.136 45.8768 118.959 46.3414C118.78 46.8105 118.849 47.3308 119.12 47.8764L119.568 47.6539ZM120.313 45.6871L122.197 44.7509L121.975 44.3031L120.09 45.2394L120.313 45.6871ZM122.197 44.7509C122.438 44.631 122.626 44.4469 122.714 44.2095C122.803 43.9697 122.779 43.7071 122.656 43.4578L122.208 43.6803C122.28 43.825 122.28 43.9435 122.246 44.0352C122.211 44.1294 122.127 44.2272 121.975 44.3031L122.197 44.7509ZM122.656 43.4578C122.534 43.2123 122.344 43.0298 122.099 42.9519C121.856 42.8744 121.593 42.9115 121.344 43.035L121.567 43.4828C121.727 43.4034 121.854 43.3986 121.948 43.4283C122.04 43.4577 122.134 43.5318 122.208 43.6803L122.656 43.4578ZM121.344 43.035L117.898 44.7474L118.121 45.1951L121.567 43.4828L121.344 43.035ZM118.234 44.86L117.781 43.9501L117.334 44.1726L117.786 45.0825L118.234 44.86ZM117.669 44.2853L121.115 42.5729L120.892 42.1252L117.446 43.8375L117.669 44.2853ZM121.115 42.5729C121.585 42.3392 121.995 42.3118 122.321 42.4147C122.647 42.5176 122.921 42.7603 123.104 43.128L123.551 42.9055C123.318 42.4349 122.946 42.0875 122.471 41.9379C121.998 41.7884 121.454 41.8463 120.892 42.1252L121.115 42.5729ZM123.104 43.128C123.29 43.5041 123.314 43.8789 123.196 44.2072C123.078 44.536 122.809 44.8442 122.363 45.0661L122.585 45.5139C123.127 45.2446 123.498 44.846 123.667 44.3759C123.836 43.9052 123.792 43.3891 123.551 42.9055L123.104 43.128ZM122.363 45.0661L120.471 46.006L120.694 46.4537L122.585 45.5139L122.363 45.0661ZM120.471 46.006C120.196 46.1426 119.98 46.3306 119.879 46.5839C119.777 46.843 119.816 47.119 119.948 47.3848L120.396 47.1623C120.307 46.9838 120.308 46.859 120.344 46.7679C120.383 46.6709 120.482 46.5592 120.694 46.4537L120.471 46.006ZM119.948 47.3848L120.286 48.0654L120.734 47.8429L120.396 47.1623L119.948 47.3848ZM120.621 48.178L124.762 46.1204L124.54 45.6726L120.399 47.7302L120.621 48.178ZM124.427 46.0077L124.879 46.9176L125.327 46.6951L124.875 45.7853L124.427 46.0077Z" fill="#D2D2D2"/>
<path d="M105.621 27.8184H104.613V23.9064C104.613 23.3304 104.325 23.0184 103.797 23.0184H103.237V22.0024H103.797C104.965 22.0024 105.621 22.7064 105.621 23.9064V27.8184Z" fill="url(#paint15_linear_245_91839)"/>
<path d="M105.621 27.8184V28.0684H105.871V27.8184H105.621ZM104.613 27.8184H104.363V28.0684H104.613V27.8184ZM103.237 23.0184H102.987V23.2684H103.237V23.0184ZM103.237 22.0024V21.7524H102.987V22.0024H103.237ZM105.621 27.5684H104.613V28.0684H105.621V27.5684ZM104.863 27.8184V23.9064H104.363V27.8184H104.863ZM104.863 23.9064C104.863 23.5798 104.782 23.2884 104.587 23.0771C104.39 22.8625 104.111 22.7684 103.797 22.7684V23.2684C104.012 23.2684 104.141 23.3303 104.219 23.4156C104.301 23.5044 104.363 23.657 104.363 23.9064H104.863ZM103.797 22.7684H103.237V23.2684H103.797V22.7684ZM103.487 23.0184V22.0024H102.987V23.0184H103.487ZM103.237 22.2524H103.797V21.7524H103.237V22.2524ZM103.797 22.2524C104.331 22.2524 104.714 22.4117 104.966 22.6766C105.22 22.9434 105.371 23.3504 105.371 23.9064H105.871C105.871 23.2624 105.695 22.7173 105.329 22.3321C104.96 21.945 104.432 21.7524 103.797 21.7524V22.2524ZM105.371 23.9064V27.8184H105.871V23.9064H105.371Z" fill="#D2D2D2"/>
<path d="M129.825 80H122.853V78.222H129.391C130.511 78.222 131.295 77.76 131.295 76.878C131.295 76.038 130.749 75.576 129.755 75.576H125.261V74.078H129.629C130.637 74.078 131.113 73.728 131.113 72.846C131.113 71.908 130.455 71.586 129.279 71.586H122.895V69.822H129.629C131.603 69.822 132.905 70.718 132.905 72.454C132.905 73.742 132.261 74.386 131.505 74.624C132.429 74.918 133.101 75.73 133.101 76.92C133.101 78.768 131.813 80 129.825 80Z" fill="url(#paint16_linear_245_91839)"/>
<path d="M122.853 80H122.603V80.25H122.853V80ZM122.853 78.222V77.972H122.603V78.222H122.853ZM125.261 75.576H125.011V75.826H125.261V75.576ZM125.261 74.078V73.828H125.011V74.078H125.261ZM122.895 71.586H122.645V71.836H122.895V71.586ZM122.895 69.822V69.572H122.645V69.822H122.895ZM131.505 74.624L131.43 74.3855L130.677 74.6227L131.43 74.8622L131.505 74.624ZM129.825 79.75H122.853V80.25H129.825V79.75ZM123.103 80V78.222H122.603V80H123.103ZM122.853 78.472H129.391V77.972H122.853V78.472ZM129.391 78.472C129.981 78.472 130.512 78.3512 130.903 78.0883C131.305 77.8179 131.545 77.4054 131.545 76.878H131.045C131.045 77.2326 130.894 77.4921 130.624 77.6732C130.343 77.8618 129.922 77.972 129.391 77.972V78.472ZM131.545 76.878C131.545 76.4008 131.388 75.9987 131.06 75.7211C130.738 75.4491 130.287 75.326 129.755 75.326V75.826C130.218 75.826 130.537 75.9339 130.737 76.1029C130.93 76.2663 131.045 76.5152 131.045 76.878H131.545ZM129.755 75.326H125.261V75.826H129.755V75.326ZM125.511 75.576V74.078H125.011V75.576H125.511ZM125.261 74.328H129.629V73.828H125.261V74.328ZM129.629 74.328C130.153 74.328 130.595 74.2391 130.906 73.9873C131.231 73.7254 131.363 73.3313 131.363 72.846H130.863C130.863 73.2427 130.758 73.4646 130.592 73.5982C130.414 73.7419 130.114 73.828 129.629 73.828V74.328ZM131.363 72.846C131.363 72.3087 131.169 71.9054 130.771 71.6532C130.398 71.4162 129.88 71.336 129.279 71.336V71.836C129.855 71.836 130.254 71.9168 130.503 72.0753C130.729 72.2186 130.863 72.4453 130.863 72.846H131.363ZM129.279 71.336H122.895V71.836H129.279V71.336ZM123.145 71.586V69.822H122.645V71.586H123.145ZM122.895 70.072H129.629V69.572H122.895V70.072ZM129.629 70.072C130.583 70.072 131.341 70.289 131.855 70.685C132.36 71.074 132.655 71.6556 132.655 72.454H133.155C133.155 71.5164 132.8 70.782 132.16 70.289C131.53 69.803 130.65 69.572 129.629 69.572V70.072ZM132.655 72.454C132.655 73.0554 132.506 73.4843 132.287 73.7858C132.067 74.0876 131.766 74.28 131.43 74.3855L131.581 74.8625C132.001 74.73 132.399 74.4814 132.691 74.0797C132.983 73.6777 133.155 73.1406 133.155 72.454H132.655ZM131.43 74.8622C132.25 75.1231 132.851 75.8385 132.851 76.92H133.351C133.351 75.6215 132.609 74.7129 131.581 74.3858L131.43 74.8622ZM132.851 76.92C132.851 77.7836 132.552 78.485 132.037 78.9713C131.521 79.4588 130.768 79.75 129.825 79.75V80.25C130.871 80.25 131.756 79.9252 132.381 79.3347C133.007 78.743 133.351 77.9044 133.351 76.92H132.851Z" fill="#D2D2D2"/>
<defs>
<filter id="filter0_d_245_91839" x="0" y="0" width="146.861" height="146.86" filterUnits="userSpaceOnUse" color-interpolation-filters="sRGB">
<feFlood flood-opacity="0" result="BackgroundImageFix"/>
<feColorMatrix in="SourceAlpha" type="matrix" values="0 0 0 0 0 0 0 0 0 0 0 0 0 0 0 0 0 0 127 0" result="hardAlpha"/>
<feOffset dy="1"/>
<feGaussianBlur stdDeviation="0.5"/>
<feComposite in2="hardAlpha" operator="out"/>
<feColorMatrix type="matrix" values="0 0 0 0 1 0 0 0 0 1 0 0 0 0 1 0 0 0 0.15 0"/>
<feBlend mode="normal" in2="BackgroundImageFix" result="effect1_dropShadow_245_91839"/>
<feBlend mode="normal" in="SourceGraphic" in2="effect1_dropShadow_245_91839" result="shape"/>
</filter>
<filter id="filter1_d_245_91839" x="0" y="0" width="146.861" height="146.86" filterUnits="userSpaceOnUse" color-interpolation-filters="sRGB">
<feFlood flood-opacity="0" result="BackgroundImageFix"/>
<feColorMatrix in="SourceAlpha" type="matrix" values="0 0 0 0 0 0 0 0 0 0 0 0 0 0 0 0 0 0 127 0" result="hardAlpha"/>
<feOffset dy="1"/>
<feGaussianBlur stdDeviation="0.5"/>
<feComposite in2="hardAlpha" operator="out"/>
<feColorMatrix type="matrix" values="0 0 0 0 1 0 0 0 0 1 0 0 0 0 1 0 0 0 0.1 0"/>
<feBlend mode="normal" in2="BackgroundImageFix" result="effect1_dropShadow_245_91839"/>
<feBlend mode="normal" in="SourceGraphic" in2="effect1_dropShadow_245_91839" result="shape"/>
</filter>
<filter id="filter2_i_245_91839" x="27.0049" y="60.9482" width="92.6416" height="26.1924" filterUnits="userSpaceOnUse" color-interpolation-filters="sRGB">
<feFlood flood-opacity="0" result="BackgroundImageFix"/>
<feBlend mode="normal" in="SourceGraphic" in2="BackgroundImageFix" result="shape"/>
<feColorMatrix in="SourceAlpha" type="matrix" values="0 0 0 0 0 0 0 0 0 0 0 0 0 0 0 0 0 0 127 0" result="hardAlpha"/>
<feOffset dy="1"/>
<feGaussianBlur stdDeviation="0.5"/>
<feComposite in2="hardAlpha" operator="arithmetic" k2="-1" k3="1"/>
<feColorMatrix type="matrix" values="0 0 0 0 0 0 0 0 0 0 0 0 0 0 0 0 0 0 0.25 0"/>
<feBlend mode="normal" in2="shape" result="effect1_innerShadow_245_91839"/>
</filter>
<linearGradient id="paint0_linear_245_91839" x1="44.5348" y1="5.74893" x2="104.548" y2="141.335" gradientUnits="userSpaceOnUse">
<stop stop-color="#E0E0E0"/>
<stop offset="1" stop-color="#BBBBBB"/>
</linearGradient>
<linearGradient id="paint1_linear_245_91839" x1="45.4392" y1="2.71667" x2="118.247" y2="167.043" gradientUnits="userSpaceOnUse">
<stop stop-color="white"/>
<stop offset="1" stop-color="#8B8D8F"/>
</linearGradient>
<linearGradient id="paint2_linear_245_91839" x1="73.4305" y1="2.7168" x2="73.4305" y2="142.145" gradientUnits="userSpaceOnUse">
<stop stop-color="#BDBDBD"/>
<stop offset="1" stop-color="white" stop-opacity="0"/>
</linearGradient>
<radialGradient id="paint3_angular_245_91839" cx="0" cy="0" r="1" gradientUnits="userSpaceOnUse" gradientTransform="translate(73.3253 71.5123) rotate(-128.806) scale(66.0891)">
<stop stop-color="#007AFF"/>
<stop offset="1" stop-color="#21C004" stop-opacity="0"/>
</radialGradient>
<linearGradient id="paint4_linear_245_91839" x1="73" y1="10" x2="73" y2="134" gradientUnits="userSpaceOnUse">
<stop stop-color="#CCCCCC"/>
<stop offset="0.494" stop-color="#F7F7F7"/>
<stop offset="0.999" stop-color="#CECECE"/>
</linearGradient>
<linearGradient id="paint5_linear_245_91839" x1="70.0866" y1="7.99999" x2="77.8366" y2="8.8413" gradientUnits="userSpaceOnUse">
<stop stop-color="#ECC271"/>
<stop offset="1" stop-color="#7F642E"/>
</linearGradient>
<linearGradient id="paint6_linear_245_91839" x1="120.388" y1="95.107" x2="125.734" y2="100.466" gradientUnits="userSpaceOnUse">
<stop stop-color="#ECC271"/>
<stop offset="1" stop-color="#7F642E"/>
</linearGradient>
<linearGradient id="paint7_linear_245_91839" x1="96.4931" y1="114.858" x2="104.293" y2="116.139" gradientUnits="userSpaceOnUse">
<stop stop-color="#ECC271"/>
<stop offset="1" stop-color="#7F642E"/>
</linearGradient>
<linearGradient id="paint8_linear_245_91839" x1="70.0866" y1="118" x2="77.8127" y2="118.944" gradientUnits="userSpaceOnUse">
<stop stop-color="#ECC271"/>
<stop offset="1" stop-color="#7F642E"/>
</linearGradient>
<linearGradient id="paint9_linear_245_91839" x1="43.3163" y1="114.858" x2="51.0835" y2="116.232" gradientUnits="userSpaceOnUse">
<stop stop-color="#ECC271"/>
<stop offset="1" stop-color="#7F642E"/>
</linearGradient>
<linearGradient id="paint10_linear_245_91839" x1="21.1158" y1="98.7246" x2="28.5081" y2="95.8559" gradientUnits="userSpaceOnUse">
<stop stop-color="#ECC271"/>
<stop offset="1" stop-color="#7F642E"/>
</linearGradient>
<linearGradient id="paint11_linear_245_91839" x1="15.0866" y1="66" x2="22.8256" y2="66.8895" gradientUnits="userSpaceOnUse">
<stop stop-color="#ECC271"/>
<stop offset="1" stop-color="#7F642E"/>
</linearGradient>
<linearGradient id="paint12_linear_245_91839" x1="26.2974" y1="39.964" x2="32.0133" y2="45.4732" gradientUnits="userSpaceOnUse">
<stop stop-color="#ECC271"/>
<stop offset="1" stop-color="#7F642E"/>
</linearGradient>
<linearGradient id="paint13_linear_245_91839" x1="41.3163" y1="19.6865" x2="49.0835" y2="21.06" gradientUnits="userSpaceOnUse">
<stop stop-color="#ECC271"/>
<stop offset="1" stop-color="#7F642E"/>
</linearGradient>
<linearGradient id="paint14_linear_245_91839" x1="115.983" y1="42.4051" x2="123.392" y2="40.0812" gradientUnits="userSpaceOnUse">
<stop stop-color="#ECC271"/>
<stop offset="1" stop-color="#7F642E"/>
</linearGradient>
<linearGradient id="paint15_linear_245_91839" x1="101.098" y1="19.8184" x2="108.898" y2="21.0991" gradientUnits="userSpaceOnUse">
<stop stop-color="#ECC271"/>
<stop offset="1" stop-color="#7F642E"/>
</linearGradient>
<linearGradient id="paint16_linear_245_91839" x1="124.386" y1="66" x2="132.567" y2="66.9957" gradientUnits="userSpaceOnUse">
<stop stop-color="#ECC271"/>
<stop offset="1" stop-color="#7F642E"/>
</linearGradient>
<clipPath id="clip0_245_91839">
<rect width="92.6415" height="25.192" fill="white" transform="translate(27.0049 60.9482)"/>
</clipPath>
</defs>
</svg>
