<svg width="54" height="54" viewBox="0 0 44 44" fill="none" xmlns="http://www.w3.org/2000/svg">
<path d="M6.84994 6.86564L7.01287 6.78518L7.08612 6.61888L8.00518 4.53236C11.2715 2.00424 15.3693 0.5 19.8198 0.5H24.1802C28.6789 0.5 32.8173 2.03701 36.1007 4.61493L36.9971 6.6125L37.0805 6.79851L37.2703 6.87312L39.1579 7.61545C41.8725 10.9428 43.5 15.1906 43.5 19.8198V24.1802C43.5 28.8013 41.8782 33.0423 39.1723 36.367L36.8603 37.4044L36.6743 37.4878L36.5997 37.6775L35.853 39.5764C32.6102 42.0388 28.5665 43.5 24.1802 43.5H19.8198C15.6053 43.5 11.7074 42.1511 8.53213 39.8614L7.51274 37.7971L7.43228 37.6342L7.26598 37.5609L4.98308 36.5554C2.18396 33.2032 0.5 28.889 0.5 24.1802V19.8198C0.5 15.3729 2.00179 11.2782 4.52618 8.01318L6.84994 6.86564Z" stroke="#CBCFD2"/>
</svg>
