<svg width="158" height="155" viewBox="0 0 158 155" fill="none" xmlns="http://www.w3.org/2000/svg">
<g filter="url(#filter0_d_413_60107)">
<path fill-rule="evenodd" clip-rule="evenodd" d="M14 63.1812C14 48.782 18.8169 35.5078 26.9272 24.8821L34.6206 21.1844L38.0735 13.5548C48.8307 5.06597 62.4144 0 77.1812 0H80.6489C94.4362 0 107.192 4.41618 117.579 11.9112L121.683 20.8127L130.307 24.1135C138.777 34.8644 143.83 48.4327 143.83 63.1812C143.83 78.0343 138.705 91.6902 130.126 102.477L120.538 106.665L117.315 114.641C106.976 122.021 94.3195 126.362 80.6489 126.362H77.1812C63.8188 126.362 51.4254 122.214 41.2182 115.135L37.6744 108.151L29.5148 104.653C19.8515 93.5555 14 79.0517 14 63.1812Z" fill="url(#paint0_linear_413_60107)"/>
<rect x="20.1104" y="5.94635" width="117.611" height="114.469" rx="57.2347" fill="url(#paint1_linear_413_60107)"/>
<path d="M78.0324 118.201L78.064 112.834M21.6218 62.3219L27.1358 62.3526M129.933 62.9266L135.447 62.9573M78.6537 12.7828L78.6853 7.41601M37.9365 101.632L41.8579 97.8594M38.6451 23.2969L42.5217 27.1136M114.793 98.2665L118.67 102.083M114.963 27.518L118.885 23.7449M28.996 90.083L33.7871 87.4263M50.5115 14.5952L53.2412 19.2583M104.129 106.192L106.859 110.856M123.107 37.8975L127.898 35.2408M23.4314 76.6749L28.7657 75.3156M64.2876 9.17916L65.6842 14.371M91.7205 111.162L93.1171 116.354M128.213 49.9747L133.547 48.6154M63.3196 116.187L64.7773 111.012M23.6907 48.0021L29.0087 49.4209M128.151 75.8705L133.469 77.2892M91.9528 14.5177L93.4105 9.34179M49.6437 110.536L52.4281 105.904M29.4971 34.6914L34.2565 37.4015M122.987 87.9243L127.746 90.6343M104.337 19.5436L107.122 14.9113M55.8049 113.594L57.9915 108.668M26.3549 40.6882L31.4169 42.8163M125.788 82.4908L130.85 84.619M98.7548 16.8167L100.941 11.8899M25.5662 83.0777L30.6917 81.0987M57.709 11.257L59.7423 16.2456M97.649 109.248L99.6823 114.237M126.246 44.2045L131.372 42.2255M21.9812 69.0443L27.4583 68.4239M72.1276 7.7678L72.765 13.0987M84.6487 112.481L85.2861 117.812M129.568 56.8576L135.045 56.2372M22.2502 54.5861L27.7057 55.3665M86.9826 8.02963L86.1807 13.3394M71.2315 112.329L70.4297 117.639M129.412 69.9164L134.867 70.6968M43.0746 106.139L46.4968 101.93M34.0153 28.2979L38.339 31.6286M118.945 93.724L123.268 97.0548M110.296 23.4778L113.718 19.2696M32.7608 95.7298L37.1854 92.5271M44.7097 18.2594L48.0003 22.5659M109.347 102.85L112.637 107.157M119.673 32.8193L124.098 29.6165" stroke="url(#paint2_linear_413_60107)"/>
<path d="M74.4215 118.058L74.803 112.705M21.768 58.8077L27.2689 59.179M129.822 66.101L135.322 66.4723M81.9149 12.891L82.2964 7.53703M35.4867 99.0467L39.6462 95.5234M41.3014 20.9129L44.9214 24.9613M112.408 100.435L116.028 104.483M117.191 29.8392L121.35 26.316M27.3173 86.9683L32.2719 84.6129M53.7113 12.9616L56.1314 17.7839M101.249 107.686L103.669 112.508M124.641 40.7008L129.596 38.3454M22.6381 73.2436L28.0503 72.2165M67.8127 8.40736L68.868 13.675M88.5409 111.879L89.5962 117.147M128.949 53.069L134.361 52.0419M59.8697 115.14L61.6619 110.065M24.7664 44.6446L29.9811 46.389M127.199 78.9087L132.413 80.6531M95.0741 15.4439L96.8663 10.3684M46.5898 108.656L49.6706 104.205M31.4289 31.7194L36.0021 34.7179M121.259 90.6193L125.832 93.6178M107.106 21.2246L110.187 16.7736M52.5392 112.088L55.0425 107.306M27.902 37.5099L32.8151 39.9464M124.41 85.3698L129.323 87.8063M101.713 18.1584L104.216 13.3765M24.3511 79.7653L29.5953 78.1069M61.1119 10.0747L62.8159 15.1788M94.5823 110.335L96.2862 115.439M127.363 47.189L132.607 45.5305M21.6883 65.5388L27.1949 65.2579M75.7289 7.48308L76.0175 12.8426M81.3974 112.759L81.6859 118.118M129.853 60.0217L135.359 59.7409M22.8995 51.1263L28.2931 52.2421M90.5369 8.6619L89.3905 13.9115M68.0172 111.778L66.8707 117.028M128.846 73.0445L134.239 74.1604M40.3206 103.861L44.0103 99.8728M36.3549 25.6178L40.4527 29.2089M116.847 96.1577L120.945 99.7488M112.796 25.5189L116.486 21.5306M30.7062 92.8363L35.3308 89.9133M47.6823 16.2601L50.6855 20.7611M106.674 104.673L109.677 109.174M121.545 35.4207L126.17 32.4977" stroke="url(#paint3_linear_413_60107)"/>
<g filter="url(#filter1_i_413_60107)">
<ellipse cx="78" cy="62.5" rx="49" ry="48.5" fill="url(#paint4_linear_413_60107)"/>
</g>
<path d="M126.5 62.5C126.5 89.0048 104.791 110.5 78 110.5C51.2093 110.5 29.5 89.0048 29.5 62.5C29.5 35.9952 51.2093 14.5 78 14.5C104.791 14.5 126.5 35.9952 126.5 62.5Z" stroke="url(#paint5_linear_413_60107)"/>
<g clip-path="url(#clip0_413_60107)">
<path d="M66.1405 61.8814C66.9979 62.1727 67.7447 62.4639 68.4426 62.9169C70.2758 64.1142 71.0539 66.0143 70.6047 68.3289C70.3133 69.8326 69.521 70.9651 68.4283 71.8388C67.0639 72.932 65.5104 73.4568 63.8831 73.7601C62.8243 73.9563 61.7593 73.9877 60.6898 73.9866C53.3087 73.9826 45.9278 73.9853 38.5473 73.9947C38.132 73.9947 38.0001 73.9037 38.001 73.3981C38.017 66.1214 38.017 58.8448 38.001 51.5681C38.001 51.1414 38.0696 50.9998 38.4805 51.0008C63.9796 51.0129 89.4782 51.0166 114.976 51.0119C115.377 51.0119 115.778 51.0321 116.179 51.022C116.397 51.017 116.505 51.0756 116.502 51.3557C116.492 52.4842 116.495 53.6128 116.502 54.7413C116.502 54.9799 116.422 55.0628 116.212 55.0669C115.62 55.077 115.028 55.1265 114.435 55.1265C103.282 55.1306 92.1296 55.1323 80.9768 55.1316C80.2379 55.1316 80.3467 55.0456 80.3467 55.8637C80.3431 61.7422 80.3446 67.6207 80.3511 73.4992C80.3511 73.8673 80.3101 74.0049 79.926 73.9998C78.4706 73.9624 77.0153 73.9664 75.559 73.9998C75.1232 74.0089 74.9824 73.8987 74.9842 73.3678C75.0038 67.5028 74.9966 61.6448 74.9966 55.7828C74.9966 55.1387 74.9966 55.1346 74.4129 55.1346C64.2256 55.1346 54.038 55.1316 43.8501 55.1255C43.4695 55.1255 43.3466 55.2176 43.3483 55.6777C43.3644 60.2766 43.3662 64.8753 43.3537 69.4736C43.3537 69.8174 43.3688 70.0237 43.7699 70.0217C49.1903 70.0005 54.6108 70.0217 60.0303 69.9792C61.4117 69.9691 62.7931 69.7709 64.0533 69.0398C65.408 68.2551 65.7359 66.5906 64.7832 65.3924C64.4062 64.9191 63.9143 64.642 63.3867 64.4418C62.4723 64.094 61.5258 64.0323 60.5731 64.0323C56.2952 64.0323 52.0173 64.0252 47.7394 64.0434C47.3063 64.0434 47.1289 63.9524 47.1655 63.4124C47.2079 62.7054 47.2079 61.9959 47.1655 61.2889C47.1378 60.7833 47.2662 60.6306 47.7278 60.6326C51.8126 60.6528 55.8968 60.6555 59.9804 60.6407C60.8841 60.6407 61.7869 60.6296 62.6808 60.4101C64.1959 60.039 64.809 59.1906 64.7386 57.4473C64.7262 57.154 64.8278 57.1085 65.039 57.1095C66.6432 57.1095 68.2474 57.1237 69.8516 57.1045C70.201 57.0994 70.2036 57.2905 70.1716 57.5717C70.0094 58.9752 69.4048 60.0619 68.3579 60.8318C67.7073 61.3111 66.9756 61.5821 66.1405 61.8814Z" fill="#E1E1E1"/>
<path d="M98.1366 73.9839C94.1573 73.9839 90.1788 73.9758 86.1995 73.995C85.7779 73.995 85.6719 73.8514 85.6861 73.3974C85.7138 72.4549 85.7164 71.5104 85.6861 70.566C85.6701 70.1038 85.7869 69.9754 86.2004 69.9764C91.726 69.9919 97.2489 69.9953 102.769 69.9865C104.759 69.9865 106.748 69.9967 108.74 69.9865C109.728 69.9785 110.693 69.8065 111.592 69.2929C112.649 68.6861 113.135 67.5991 112.897 66.3897C112.743 65.607 112.3 65.0882 111.698 64.7272C110.638 64.0912 109.481 64.0285 108.318 64.0275C103.594 64.0275 98.8754 64.0477 94.1537 64.0184C92.2438 64.0062 90.366 63.6918 88.6192 62.7412C86.9856 61.8534 85.72 60.5813 85.31 58.4678C85.0819 57.2928 85.1363 57.218 86.1861 57.218C87.5972 57.218 89.0077 57.218 90.4177 57.218C90.5959 57.218 90.7929 57.1421 90.8036 57.5163C90.8561 59.2809 91.6057 60.196 93.1965 60.5034C93.7981 60.6069 94.4063 60.6526 95.0146 60.6399C99.7212 60.6399 104.428 60.6227 109.134 60.651C110.934 60.6612 112.721 60.8836 114.417 61.636C116.113 62.3883 117.441 63.5987 117.852 65.7324C118.45 68.8307 117.301 71.3416 114.687 72.7219C113.082 73.5662 111.382 73.9353 109.635 73.9556C105.803 73.995 101.971 73.9677 98.1437 73.9677L98.1366 73.9839Z" fill="#E1E1E1"/>
<path d="M73.9802 79.2861L78.468 73.3193H79.9978V79.2861H81.2229V80.5366H79.9978V82.4219H78.6965V80.5366H73.9802V79.2861ZM78.6965 79.2861V74.8936L75.3957 79.2861H78.6965ZM78.9377 113.185C79.2551 113.172 79.4815 113.088 79.6169 112.931C79.7523 112.77 79.82 112.525 79.82 112.195V111.598C79.82 111.251 79.7439 110.997 79.5915 110.836C79.4392 110.676 79.1916 110.595 78.8488 110.595H76.4812C76.1384 110.595 75.8908 110.676 75.7385 110.836C75.5861 110.997 75.51 111.251 75.51 111.598V112.195C75.51 112.525 75.5777 112.77 75.7131 112.931C75.8527 113.088 76.0791 113.172 76.3923 113.185H78.9377ZM78.9758 117.146C79.3228 117.146 79.5725 117.066 79.7248 116.905C79.8772 116.744 79.9533 116.492 79.9533 116.149V115.445C79.9533 115.098 79.8772 114.846 79.7248 114.689C79.5725 114.533 79.3228 114.455 78.9758 114.455H76.3542C76.0072 114.455 75.7575 114.533 75.6052 114.689C75.4528 114.846 75.3767 115.098 75.3767 115.445V116.149C75.3767 116.492 75.4528 116.744 75.6052 116.905C75.7575 117.066 76.0072 117.146 76.3542 117.146H78.9758ZM76.3161 118.422C74.8392 118.422 74.1008 117.686 74.1008 116.213V115.756C74.1008 115.189 74.2024 114.734 74.4055 114.391C74.6086 114.048 74.9027 113.82 75.2878 113.706C74.945 113.545 74.6827 113.299 74.5007 112.969C74.323 112.635 74.2341 112.212 74.2341 111.7V111.535C74.2341 110.058 74.9704 109.319 76.4431 109.319H78.8869C80.3596 109.319 81.0959 110.058 81.0959 111.535V111.7C81.0959 112.212 81.0049 112.635 80.823 112.969C80.6452 113.299 80.385 113.545 80.0422 113.706C80.4273 113.82 80.7214 114.048 80.9245 114.391C81.1276 114.734 81.2292 115.189 81.2292 115.756V116.213C81.2292 117.686 80.4929 118.422 79.0202 118.422H76.3161Z" fill="#E1E1E1"/>
</g>
<path d="M72.2949 100.81C72.2949 100.521 72.2576 100.315 72.1829 100.194C72.1082 100.073 71.9262 100.012 71.6369 100.012H69.5789C69.6349 99.7413 69.7189 99.5407 69.8309 99.41C69.9522 99.27 70.1482 99.2 70.4189 99.2H72.0849C72.5702 99.2 72.9109 99.3027 73.1069 99.508C73.3122 99.704 73.4149 100.045 73.4149 100.53V102.574C73.4149 102.957 73.3729 103.246 73.2889 103.442C73.2049 103.638 73.0276 103.769 72.7569 103.834V103.848C73.2702 103.979 73.5269 104.403 73.5269 105.122V107.67C73.5269 108.155 73.4242 108.501 73.2189 108.706C73.0229 108.902 72.6822 109 72.1969 109H70.5309C70.2602 109 70.0642 108.935 69.9429 108.804C69.8309 108.664 69.7469 108.459 69.6909 108.188H71.7489C72.0382 108.188 72.2202 108.127 72.2949 108.006C72.3696 107.885 72.4069 107.679 72.4069 107.39V105.122C72.4069 104.833 72.3462 104.627 72.2249 104.506C72.1036 104.385 71.8982 104.324 71.6089 104.324H70.4329V103.89C70.4329 103.741 70.4562 103.643 70.5029 103.596C70.5589 103.54 70.6616 103.512 70.8109 103.512H71.6929C71.9449 103.503 72.1082 103.437 72.1829 103.316C72.2576 103.185 72.2949 102.985 72.2949 102.714V100.81ZM76.4753 107.39C76.4753 107.679 76.5126 107.885 76.5873 108.006C76.662 108.127 76.844 108.188 77.1333 108.188H77.9033C78.1926 108.188 78.3746 108.127 78.4493 108.006C78.524 107.885 78.5613 107.679 78.5613 107.39V100.81C78.5613 100.521 78.524 100.315 78.4493 100.194C78.3746 100.073 78.1926 100.012 77.9033 100.012H77.1333C76.844 100.012 76.662 100.073 76.5873 100.194C76.5126 100.315 76.4753 100.521 76.4753 100.81V107.39ZM75.4253 100.53C75.4253 100.045 75.5233 99.704 75.7193 99.508C75.9246 99.3027 76.27 99.2 76.7553 99.2H78.2813C78.7666 99.2 79.1073 99.3027 79.3033 99.508C79.5086 99.704 79.6113 100.045 79.6113 100.53V107.67C79.6113 108.155 79.5086 108.501 79.3033 108.706C79.1073 108.902 78.7666 109 78.2813 109H76.7553C76.27 109 75.9246 108.902 75.7193 108.706C75.5233 108.501 75.4253 108.155 75.4253 107.67V100.53ZM86.1417 108.622C86.1417 108.771 86.1137 108.874 86.0577 108.93C86.011 108.977 85.913 109 85.7637 109H85.0217V103.498C85.0217 103.209 84.9843 103.003 84.9097 102.882C84.835 102.761 84.653 102.7 84.3637 102.7H82.6417V108.622C82.6417 108.771 82.6137 108.874 82.5577 108.93C82.511 108.977 82.413 109 82.2637 109H81.5217V99.578C81.5217 99.4287 81.545 99.3307 81.5917 99.284C81.6477 99.228 81.7503 99.2 81.8997 99.2H82.6417V102.7C82.6977 102.429 82.7817 102.229 82.8937 102.098C83.015 101.958 83.211 101.888 83.4817 101.888H84.8117C85.297 101.888 85.6377 101.991 85.8337 102.196C86.039 102.392 86.1417 102.733 86.1417 103.218V108.622Z" fill="#00448E"/>
<path d="M73.7161 21.994C73.7161 22.2647 73.6927 22.4887 73.6461 22.666C73.6087 22.834 73.5387 22.9693 73.4361 23.072C73.3334 23.1653 73.1981 23.2307 73.0301 23.268C72.8621 23.3053 72.6474 23.324 72.3861 23.324H71.5741C71.4341 23.324 71.3174 23.338 71.2241 23.366C71.1401 23.3847 71.0747 23.422 71.0281 23.478C70.9814 23.534 70.9487 23.6133 70.9301 23.716C70.9207 23.8187 70.9161 23.954 70.9161 24.122V26.39C70.9161 26.6793 70.9534 26.8847 71.0281 27.006C71.1027 27.1273 71.2847 27.188 71.5741 27.188H73.7161V27.622C73.7161 27.7713 73.6881 27.874 73.6321 27.93C73.5854 27.9767 73.4874 28 73.3381 28H71.1261C70.6407 28 70.2954 27.902 70.0901 27.706C69.8941 27.5007 69.7961 27.1553 69.7961 26.67V23.842C69.7961 23.5713 69.8147 23.352 69.8521 23.184C69.8987 23.0067 69.9734 22.8713 70.0761 22.778C70.1787 22.6753 70.3141 22.6053 70.4821 22.568C70.6501 22.5307 70.8647 22.512 71.1261 22.512H71.9381C72.0781 22.512 72.1901 22.5027 72.2741 22.484C72.3674 22.456 72.4374 22.414 72.4841 22.358C72.5307 22.302 72.5587 22.2227 72.5681 22.12C72.5867 22.0173 72.5961 21.882 72.5961 21.714V19.81C72.5961 19.5207 72.5587 19.3153 72.4841 19.194C72.4094 19.0727 72.2274 19.012 71.9381 19.012H69.8801C69.9361 18.7413 70.0201 18.5407 70.1321 18.41C70.2534 18.27 70.4494 18.2 70.7201 18.2H72.3861C72.8714 18.2 73.2121 18.3027 73.4081 18.508C73.6134 18.704 73.7161 19.0447 73.7161 19.53V21.994ZM79.6009 27.622C79.6009 27.7713 79.5729 27.874 79.5169 27.93C79.4702 27.9767 79.3722 28 79.2229 28H78.4809V23.324H76.5909C76.3295 23.324 76.1149 23.3053 75.9469 23.268C75.7789 23.2307 75.6435 23.1653 75.5409 23.072C75.4382 22.9693 75.3635 22.834 75.3169 22.666C75.2795 22.4887 75.2609 22.2647 75.2609 21.994V18.578C75.2609 18.4287 75.2842 18.3307 75.3309 18.284C75.3869 18.228 75.4895 18.2 75.6389 18.2H76.3809V21.714C76.3809 21.882 76.3855 22.0173 76.3949 22.12C76.4135 22.2227 76.4462 22.302 76.4929 22.358C76.5395 22.414 76.6049 22.456 76.6889 22.484C76.7822 22.5027 76.8989 22.512 77.0389 22.512H78.4809V18.578C78.4809 18.4287 78.5042 18.3307 78.5509 18.284C78.6069 18.228 78.7095 18.2 78.8589 18.2H79.6009V27.622ZM86.1485 27.622C86.1485 27.7713 86.1205 27.874 86.0645 27.93C86.0178 27.9767 85.9198 28 85.7705 28H85.0285V22.498C85.0285 22.2087 84.9912 22.0033 84.9165 21.882C84.8418 21.7607 84.6598 21.7 84.3705 21.7H82.6485V27.622C82.6485 27.7713 82.6205 27.874 82.5645 27.93C82.5178 27.9767 82.4198 28 82.2705 28H81.5285V18.578C81.5285 18.4287 81.5518 18.3307 81.5985 18.284C81.6545 18.228 81.7572 18.2 81.9065 18.2H82.6485V21.7C82.7045 21.4293 82.7885 21.2287 82.9005 21.098C83.0218 20.958 83.2178 20.888 83.4885 20.888H84.8185C85.3038 20.888 85.6445 20.9907 85.8405 21.196C86.0458 21.392 86.1485 21.7327 86.1485 22.218V27.622Z" fill="#CC0000"/>
</g>
<defs>
<filter id="filter0_d_413_60107" x="0" y="0" width="157.83" height="154.362" filterUnits="userSpaceOnUse" color-interpolation-filters="sRGB">
<feFlood flood-opacity="0" result="BackgroundImageFix"/>
<feColorMatrix in="SourceAlpha" type="matrix" values="0 0 0 0 0 0 0 0 0 0 0 0 0 0 0 0 0 0 127 0" result="hardAlpha"/>
<feOffset dy="14"/>
<feGaussianBlur stdDeviation="7"/>
<feComposite in2="hardAlpha" operator="out"/>
<feColorMatrix type="matrix" values="0 0 0 0 0 0 0 0 0 0 0 0 0 0 0 0 0 0 0.35 0"/>
<feBlend mode="normal" in2="BackgroundImageFix" result="effect1_dropShadow_413_60107"/>
<feBlend mode="normal" in="SourceGraphic" in2="effect1_dropShadow_413_60107" result="shape"/>
</filter>
<filter id="filter1_i_413_60107" x="29" y="14" width="98" height="101" filterUnits="userSpaceOnUse" color-interpolation-filters="sRGB">
<feFlood flood-opacity="0" result="BackgroundImageFix"/>
<feBlend mode="normal" in="SourceGraphic" in2="BackgroundImageFix" result="shape"/>
<feColorMatrix in="SourceAlpha" type="matrix" values="0 0 0 0 0 0 0 0 0 0 0 0 0 0 0 0 0 0 127 0" result="hardAlpha"/>
<feOffset dy="4"/>
<feGaussianBlur stdDeviation="2"/>
<feComposite in2="hardAlpha" operator="arithmetic" k2="-1" k3="1"/>
<feColorMatrix type="matrix" values="0 0 0 0 0 0 0 0 0 0 0 0 0 0 0 0 0 0 0.25 0"/>
<feBlend mode="normal" in2="shape" result="effect1_innerShadow_413_60107"/>
</filter>
<linearGradient id="paint0_linear_413_60107" x1="69" y1="-4.5" x2="101" y2="126" gradientUnits="userSpaceOnUse">
<stop stop-color="#DFDFDF"/>
<stop offset="1" stop-color="#A3A3A3"/>
</linearGradient>
<linearGradient id="paint1_linear_413_60107" x1="78.9157" y1="5.94635" x2="78.9157" y2="120.416" gradientUnits="userSpaceOnUse">
<stop stop-color="#F2F2F2"/>
<stop offset="1" stop-color="#929597"/>
</linearGradient>
<linearGradient id="paint2_linear_413_60107" x1="78.8599" y1="7.41698" x2="78.2414" y2="118.202" gradientUnits="userSpaceOnUse">
<stop stop-color="#DFDFDF"/>
<stop offset="1" stop-color="#7B7B7B"/>
</linearGradient>
<linearGradient id="paint3_linear_413_60107" x1="94.5001" y1="111.5" x2="56.5001" y2="16.4999" gradientUnits="userSpaceOnUse">
<stop stop-color="#A9A9A9"/>
<stop offset="1" stop-color="#BABABA" stop-opacity="0.56"/>
</linearGradient>
<linearGradient id="paint4_linear_413_60107" x1="78" y1="14" x2="78" y2="111" gradientUnits="userSpaceOnUse">
<stop stop-color="#CCCCCC"/>
<stop offset="0.494" stop-color="#F7F7F7"/>
<stop offset="0.999" stop-color="#CECECE"/>
</linearGradient>
<linearGradient id="paint5_linear_413_60107" x1="78" y1="14" x2="78" y2="111" gradientUnits="userSpaceOnUse">
<stop stop-color="#F0C673"/>
<stop offset="1" stop-color="#F0C673" stop-opacity="0"/>
</linearGradient>
<clipPath id="clip0_413_60107">
<rect width="80" height="23" fill="white" transform="translate(38 51)"/>
</clipPath>
</defs>
</svg>
