<svg width="352" height="17" viewBox="0 0 352 17" fill="none" xmlns="http://www.w3.org/2000/svg">
<line x1="4.37114e-08" y1="7.5" x2="144" y2="7.50001" stroke="url(#paint0_linear_245_88336)"/>
<line x1="208" y1="7.5" x2="352" y2="7.50001" stroke="url(#paint1_linear_245_88336)"/>
<path d="M175 7.46313L201 -1.67462e-06C201 -1.67462e-06 186.551 6.40814 175 10.0387L175 7.46313Z" fill="#604A25"/>
<path d="M175 7.46313L149 1.67462e-06C149 1.67462e-06 163.449 6.40815 175 10.0387L175 7.46313Z" fill="#604A25"/>
<path d="M175 9.62426L201 2.16113C201 2.16113 186.551 8.56928 175 12.1999L175 9.62426Z" fill="#7E6941"/>
<path d="M175 9.62426L149 2.16113C149 2.16113 163.449 8.56928 175 12.1999L175 9.62426Z" fill="#7E6941"/>
<path d="M174.999 13.9475L200.999 6.48437C200.999 6.48437 186.55 12.8925 174.999 16.5231L174.999 13.9475Z" fill="#DFC188"/>
<path d="M174.999 13.9475L148.999 6.48438C148.999 6.48438 163.448 12.8925 174.999 16.5231L174.999 13.9475Z" fill="#DFC188"/>
<path d="M174.999 11.7864L200.999 4.32324C200.999 4.32324 186.55 10.7314 174.999 14.362L174.999 11.7864Z" fill="#A98F5F"/>
<path d="M174.999 11.7864L148.999 4.32324C148.999 4.32324 163.448 10.7314 174.999 14.362L174.999 11.7864Z" fill="#A98F5F"/>
<defs>
<linearGradient id="paint0_linear_245_88336" x1="134" y1="7.9998" x2="-5" y2="8.00001" gradientUnits="userSpaceOnUse">
<stop stop-color="#BDBDBD"/>
<stop offset="1" stop-color="white" stop-opacity="0"/>
</linearGradient>
<linearGradient id="paint1_linear_245_88336" x1="208" y1="8" x2="344" y2="7.99981" gradientUnits="userSpaceOnUse">
<stop stop-color="#BDBDBD"/>
<stop offset="1" stop-color="white" stop-opacity="0"/>
</linearGradient>
</defs>
</svg>
