<svg width="13" height="16" viewBox="0 0 13 16" fill="none" xmlns="http://www.w3.org/2000/svg">
<g opacity="0.5">
<path d="M8.22062 8L1.84619 9.53674e-07C1.84619 9.53674e-07 7.31954 4.44574 10.4205 8L8.22062 8Z" fill="#293543"/>
<path d="M8.22062 8L1.84619 16C1.84619 16 7.31954 11.5543 10.4205 8L8.22062 8Z" fill="#293543"/>
<path d="M6.37443 8L8.60778e-07 9.53674e-07C8.60778e-07 9.53674e-07 5.47335 4.44574 8.57432 8L6.37443 8Z" fill="#151D27"/>
<path d="M6.37443 8L-8.60778e-07 16C-8.60778e-07 16 5.47335 11.5543 8.57432 8L6.37443 8Z" fill="#151D27"/>
<path d="M10.0668 8L3.69238 9.53674e-07C3.69238 9.53674e-07 9.16573 4.44574 12.2667 8L10.0668 8Z" fill="#394A5C"/>
<path d="M10.0668 8L3.69238 16C3.69238 16 9.16573 11.5543 12.2667 8L10.0668 8Z" fill="#394A5C"/>
</g>
</svg>
