<svg width="70" height="70" viewBox="0 0 70 70" fill="none" stroke="#BDBDBD" stroke-width="1" xmlns="http://www.w3.org/2000/svg">
<path d="M11.358 11.2571L11.521 11.1766L11.5942 11.0103L13.0492 7.70708C18.1758 3.72019 24.6177 1.34619 31.6154 1.34619H38.3847C45.4572 1.34619 51.9621 3.77124 57.1149 7.83556L58.5342 10.9987L58.6177 11.1847L58.8074 11.2593L61.805 12.4381C66.0855 17.6594 68.6539 24.3368 68.6539 31.6154V38.3847C68.6539 45.6481 66.0962 52.3128 61.8318 57.5292L58.183 59.1665L57.997 59.25L57.9224 59.4397L56.7349 62.4594C51.6439 66.3458 45.2845 68.6539 38.3846 68.6539H31.6154C24.9881 68.6539 18.8595 66.5246 13.8745 62.9126L12.2617 59.6465L12.1812 59.4836L12.0149 59.4104L8.41175 57.8233C4.00142 52.5644 1.34619 45.7852 1.34619 38.3846V31.6154C1.34619 24.6256 3.7148 18.1904 7.69348 13.0667L11.358 11.2571Z" fill="url(#paint0_linear_316_21471)" stroke="#CBCFD2"/>
<defs>
<linearGradient id="paint0_linear_316_21471" x1="35" y1="0.846191" x2="35" y2="69.1539" gradientUnits="userSpaceOnUse">
<stop stop-color="#BDBDBD"/>
<stop offset="1" stop-color="white" stop-opacity="0"/>
</linearGradient>
</defs>
</svg>
