<svg width="49" height="49" viewBox="0 0 49 49" fill="none" xmlns="http://www.w3.org/2000/svg">
<path fill-rule="evenodd" clip-rule="evenodd" d="M0 22.0721C0 16.9458 1.74756 12.2277 4.67942 8.48106L7.38177 7.14657L8.46186 4.69446C12.2116 1.75353 16.937 0 22.072 0H26.9278C32.1165 0 36.8869 1.79036 40.6552 4.787L41.7092 7.13597L43.946 8.0156C47.1029 11.8334 48.9998 16.7312 48.9998 22.0721V26.9279C48.9998 32.2546 47.113 37.1405 43.9712 40.9539L41.2768 42.1629L40.3885 44.4217C36.663 47.2926 31.9948 49 26.9278 49H22.072C17.2079 49 12.7112 47.4266 9.06328 44.7609L7.86718 42.3388L5.20631 41.1667C1.95812 37.3232 0 32.3542 0 26.9279V22.0721Z" fill="url(#paint0_linear_266_1960)"/>
<defs>
<linearGradient id="paint0_linear_266_1960" x1="14.6628" y1="-3.40328e-05" x2="36.9693" y2="2.56392" gradientUnits="userSpaceOnUse">
<stop stop-color="#A0A6AE"/>
<stop offset="1" stop-color="#B9BABB"/>
</linearGradient>
</defs>
</svg>
