<svg width="24" height="23" viewBox="0 0 24 23" fill="none" xmlns="http://www.w3.org/2000/svg">
<g opacity="0.5">
<path d="M11.5 10.2779L3.5 16.6523C3.5 16.6523 7.94574 11.179 11.5 8.07803L11.5 10.2779Z" fill="#293543"/>
<path d="M11.5 10.2779L19.5 16.6523C19.5 16.6523 15.0543 11.179 11.5 8.07803L11.5 10.2779Z" fill="#293543"/>
<path d="M11.5 12.1256L3.5 18.5C3.5 18.5 7.94574 13.0267 11.5 9.92568L11.5 12.1256Z" fill="#151D27"/>
<path d="M11.5 12.1256L19.5 18.5C19.5 18.5 15.0543 13.0267 11.5 9.92568L11.5 12.1256Z" fill="#151D27"/>
<path d="M11.5 8.43221L3.5 14.8066C3.5 14.8066 7.94574 9.33329 11.5 6.23232L11.5 8.43221Z" fill="#394A5C"/>
<path d="M11.5 8.43221L19.5 14.8066C19.5 14.8066 15.0543 9.33329 11.5 6.23232L11.5 8.43221Z" fill="#394A5C"/>
<line y1="2.5" x2="22" y2="2.5" stroke="#394A5C"/>
<line y1="0.5" x2="22" y2="0.5" stroke="#394A5C"/>
</g>
</svg>
