<svg width="147" height="147" viewBox="0 0 147 147" fill="none" xmlns="http://www.w3.org/2000/svg">
<g filter="url(#filter0_d_245_92232)">
<g filter="url(#filter1_d_245_92232)">
<path fill-rule="evenodd" clip-rule="evenodd" d="M1 61.5555C1 48.5271 5.04758 36.444 11.9539 26.4951L22.823 21.1276L27.2196 11.1462C37.2205 4.12279 49.4065 0 62.5555 0H84.3051C97.5834 0 109.88 4.20427 119.935 11.3542L124.307 21.0963L133.671 24.779C141.328 35.0399 145.861 47.7683 145.861 61.5555V83.3051C145.861 96.952 141.42 109.562 133.904 119.768L123.029 124.648L119.396 133.886C109.441 140.805 97.3468 144.861 84.3052 144.861H62.5555C50.2233 144.861 38.7381 141.234 29.1082 134.989L24.2581 125.168L13.4256 120.396C5.6261 110.082 1 97.2336 1 83.3052V61.5555Z" fill="url(#paint0_linear_245_92232)"/>
</g>
<rect x="4.21631" y="3.2168" width="138.428" height="138.428" rx="69.2142" fill="url(#paint1_linear_245_92232)" stroke="url(#paint2_linear_245_92232)"/>
<circle cx="73.3253" cy="71.5123" r="61.8863" fill="#CBCFD2" stroke="url(#paint3_angular_245_92232)" stroke-width="3"/>
<circle cx="73" cy="72" r="62" fill="url(#paint4_linear_245_92232)"/>
<g clip-path="url(#clip0_245_92232)" filter="url(#filter2_i_245_92232)">
<path d="M59.592 72.8668C60.5848 73.1858 61.4497 73.5048 62.2578 74.001C64.3807 75.3124 65.2817 77.3935 64.7616 79.9288C64.4241 81.5758 63.5066 82.8163 62.2413 83.7732C60.6612 84.9705 58.8623 85.5453 56.9778 85.8776C55.7517 86.0925 54.5184 86.1268 53.28 86.1257C44.7325 86.1213 36.1853 86.1242 27.6385 86.1346C27.1576 86.1346 27.0048 86.0349 27.0059 85.4811C27.0244 77.5109 27.0244 69.5408 27.0059 61.5706C27.0059 61.1032 27.0853 60.9481 27.5611 60.9492C57.0896 60.9625 86.6174 60.9666 116.145 60.9614C116.609 60.9614 117.073 60.9836 117.538 60.9725C117.79 60.9669 117.915 61.0312 117.911 61.338C117.9 62.5741 117.903 63.8101 117.911 65.0462C117.911 65.3076 117.819 65.3984 117.576 65.4028C116.89 65.4139 116.204 65.4682 115.518 65.4682C102.603 65.4726 89.6878 65.4744 76.7726 65.4737C75.9171 65.4737 76.043 65.3796 76.043 66.2756C76.0389 72.7143 76.0406 79.1531 76.0481 85.5919C76.0481 85.995 76.0007 86.1457 75.5559 86.1401C73.8705 86.0991 72.1852 86.1036 70.4988 86.1401C69.9941 86.1501 69.831 86.0294 69.8331 85.4479C69.8558 79.0239 69.8475 72.6077 69.8475 66.187C69.8475 65.4815 69.8475 65.477 69.1716 65.477C57.3745 65.477 45.577 65.4737 33.7792 65.4671C33.3386 65.4671 33.1961 65.5678 33.1982 66.0718C33.2168 71.1091 33.2188 76.146 33.2044 81.1826C33.2044 81.5591 33.2219 81.7851 33.6864 81.7829C39.9633 81.7596 46.2403 81.7829 52.5162 81.7364C54.1159 81.7253 55.7156 81.5082 57.1749 80.7074C58.7437 79.8479 59.1235 78.0248 58.0202 76.7124C57.5836 76.194 57.0139 75.8905 56.403 75.6712C55.3441 75.2902 54.248 75.2227 53.1448 75.2227C48.1909 75.2227 43.237 75.2149 38.2831 75.2348C37.7816 75.2348 37.5762 75.1352 37.6185 74.5437C37.6677 73.7693 37.6677 72.9922 37.6185 72.2178C37.5865 71.664 37.7351 71.4967 38.2697 71.499C43 71.5211 47.7296 71.5241 52.4584 71.5078C53.5049 71.5078 54.5504 71.4956 55.5856 71.2553C57.3401 70.8488 58.0501 69.9195 57.9686 68.0101C57.9541 67.6889 58.0718 67.639 58.3164 67.6401C60.1741 67.6401 62.0318 67.6556 63.8895 67.6346C64.2941 67.6291 64.2972 67.8384 64.26 68.1463C64.0722 69.6836 63.3721 70.8739 62.1598 71.7172C61.4064 72.2421 60.559 72.539 59.592 72.8668Z" fill="#E6E6E6"/>
<path d="M96.6441 86.1226C92.036 86.1226 87.4289 86.1137 82.8208 86.1348C82.3326 86.1348 82.2098 85.9775 82.2263 85.4802C82.2583 84.4479 82.2614 83.4135 82.2263 82.379C82.2077 81.8728 82.3429 81.7321 82.8218 81.7332C89.2206 81.7502 95.6162 81.7539 102.009 81.7443C104.313 81.7443 106.617 81.7554 108.924 81.7443C110.067 81.7355 111.185 81.5472 112.226 80.9845C113.45 80.32 114.013 79.1293 113.737 77.8047C113.559 76.9474 113.046 76.3792 112.349 75.9838C111.121 75.2871 109.781 75.2184 108.434 75.2173C102.964 75.2173 97.4997 75.2395 92.0319 75.2074C89.8202 75.1941 87.6456 74.8496 85.6228 73.8085C83.7311 72.836 82.2655 71.4427 81.7908 69.1278C81.5266 67.8408 81.5895 67.7589 82.8053 67.7589C84.4394 67.7589 86.0728 67.7589 87.7055 67.7589C87.9119 67.7589 88.14 67.6758 88.1524 68.0856C88.2133 70.0183 89.0812 71.0207 90.9235 71.3574C91.6201 71.4707 92.3244 71.5208 93.0288 71.5069C98.4791 71.5069 103.929 71.4881 109.38 71.5191C111.463 71.5302 113.533 71.7739 115.497 72.5979C117.461 73.4219 118.998 74.7477 119.475 77.0847C120.168 80.4784 118.836 83.2285 115.809 84.7403C113.952 85.6652 111.983 86.0694 109.96 86.0916C105.522 86.1348 101.084 86.1049 96.6524 86.1049L96.6441 86.1226Z" fill="#E6E6E6"/>
<path d="M69.2534 90.2275L73.7412 84.2607H75.271V90.2275H76.4961V91.478H75.271V93.3633H73.9697V91.478H69.2534V90.2275ZM73.9697 90.2275V85.835L70.6689 90.2275H73.9697ZM74.2109 124.126C74.5283 124.114 74.7547 124.029 74.8901 123.873C75.0255 123.712 75.0933 123.466 75.0933 123.136V122.54C75.0933 122.193 75.0171 121.939 74.8647 121.778C74.7124 121.617 74.4648 121.537 74.1221 121.537H71.7544C71.4116 121.537 71.1641 121.617 71.0117 121.778C70.8594 121.939 70.7832 122.193 70.7832 122.54V123.136C70.7832 123.466 70.8509 123.712 70.9863 123.873C71.126 124.029 71.3524 124.114 71.6655 124.126H74.2109ZM74.249 128.087C74.596 128.087 74.8457 128.007 74.998 127.846C75.1504 127.685 75.2266 127.434 75.2266 127.091V126.386C75.2266 126.039 75.1504 125.787 74.998 125.631C74.8457 125.474 74.596 125.396 74.249 125.396H71.6274C71.2804 125.396 71.0308 125.474 70.8784 125.631C70.7261 125.787 70.6499 126.039 70.6499 126.386V127.091C70.6499 127.434 70.7261 127.685 70.8784 127.846C71.0308 128.007 71.2804 128.087 71.6274 128.087H74.249ZM71.5893 129.363C70.1125 129.363 69.374 128.627 69.374 127.154V126.697C69.374 126.13 69.4756 125.675 69.6787 125.333C69.8818 124.99 70.1759 124.761 70.561 124.647C70.2183 124.486 69.9559 124.241 69.7739 123.911C69.5962 123.576 69.5073 123.153 69.5073 122.641V122.476C69.5073 120.999 70.2436 120.261 71.7163 120.261H74.1601C75.6328 120.261 76.3691 120.999 76.3691 122.476V122.641C76.3691 123.153 76.2781 123.576 76.0962 123.911C75.9184 124.241 75.6582 124.486 75.3154 124.647C75.7005 124.761 75.9946 124.99 76.1977 125.333C76.4009 125.675 76.5024 126.13 76.5024 126.697V127.154C76.5024 128.627 75.7661 129.363 74.2934 129.363H71.5893Z" fill="#E6E6E6"/>
</g>
</g>
<path d="M69.9607 22H62.9887V20.222H69.5267C70.6467 20.222 71.4307 19.76 71.4307 18.878C71.4307 18.038 70.8847 17.576 69.8907 17.576H65.3967V16.078H69.7647C70.7727 16.078 71.2487 15.728 71.2487 14.846C71.2487 13.908 70.5907 13.586 69.4147 13.586H63.0307V11.822H69.7647C71.7387 11.822 73.0407 12.718 73.0407 14.454C73.0407 15.742 72.3967 16.386 71.6407 16.624C72.5647 16.918 73.2367 17.73 73.2367 18.92C73.2367 20.768 71.9487 22 69.9607 22ZM79.7908 22.126C76.8088 22.126 74.5128 19.774 74.5128 16.806C74.5128 13.824 76.8088 11.696 79.7908 11.696C82.7588 11.696 85.0688 13.824 85.0688 16.806C85.0688 19.774 82.7588 22.126 79.7908 22.126ZM83.2768 16.89C83.2768 14.93 82.0028 13.488 79.7908 13.488C77.5508 13.488 76.2908 14.93 76.2908 16.89C76.2908 18.85 77.5508 20.348 79.7768 20.348C82.0168 20.348 83.2768 18.85 83.2768 16.89Z" fill="url(#paint5_linear_245_92232)"/>
<path d="M62.9887 22H62.6387V22.35H62.9887V22ZM62.9887 20.222V19.872H62.6387V20.222H62.9887ZM65.3967 17.576H65.0467V17.926H65.3967V17.576ZM65.3967 16.078V15.728H65.0467V16.078H65.3967ZM63.0307 13.586H62.6807V13.936H63.0307V13.586ZM63.0307 11.822V11.472H62.6807V11.822H63.0307ZM71.6407 16.624L71.5356 16.2902L70.4808 16.6222L71.5346 16.9575L71.6407 16.624ZM69.9607 21.65H62.9887V22.35H69.9607V21.65ZM63.3387 22V20.222H62.6387V22H63.3387ZM62.9887 20.572H69.5267V19.872H62.9887V20.572ZM69.5267 20.572C70.1279 20.572 70.6805 20.4491 71.0939 20.1713C71.5229 19.883 71.7807 19.44 71.7807 18.878H71.0807C71.0807 19.198 70.9465 19.427 70.7035 19.5902C70.445 19.7639 70.0456 19.872 69.5267 19.872V20.572ZM71.7807 18.878C71.7807 18.3779 71.6148 17.9452 71.2595 17.6447C70.9135 17.3522 70.4361 17.226 69.8907 17.226V17.926C70.3393 17.926 70.6319 18.0308 70.8075 18.1793C70.9737 18.3198 71.0807 18.5381 71.0807 18.878H71.7807ZM69.8907 17.226H65.3967V17.926H69.8907V17.226ZM65.7467 17.576V16.078H65.0467V17.576H65.7467ZM65.3967 16.428H69.7647V15.728H65.3967V16.428ZM69.7647 16.428C70.2957 16.428 70.7658 16.3385 71.1046 16.0651C71.4608 15.7776 71.5987 15.349 71.5987 14.846H70.8987C70.8987 15.225 70.7986 15.4124 70.6649 15.5204C70.5136 15.6425 70.2417 15.728 69.7647 15.728V16.428ZM71.5987 14.846C71.5987 14.2814 71.3919 13.8427 70.9603 13.5688C70.5622 13.316 70.0201 13.236 69.4147 13.236V13.936C69.9854 13.936 70.3603 14.017 70.5851 14.1597C70.7766 14.2813 70.8987 14.4726 70.8987 14.846H71.5987ZM69.4147 13.236H63.0307V13.936H69.4147V13.236ZM63.3807 13.586V11.822H62.6807V13.586H63.3807ZM63.0307 12.172H69.7647V11.472H63.0307V12.172ZM69.7647 12.172C70.7049 12.172 71.4387 12.3861 71.9293 12.7642C72.4071 13.1324 72.6907 13.6834 72.6907 14.454H73.3907C73.3907 13.4886 73.0233 12.7236 72.3566 12.2098C71.7027 11.7059 70.7985 11.472 69.7647 11.472V12.172ZM72.6907 14.454C72.6907 15.0383 72.5454 15.4457 72.341 15.7271C72.1363 16.0089 71.8538 16.19 71.5356 16.2902L71.7458 16.9578C72.1837 16.82 72.6011 16.5601 72.9074 16.1384C73.214 15.7163 73.3907 15.1577 73.3907 14.454H72.6907ZM71.5346 16.9575C72.3128 17.2051 72.8867 17.8819 72.8867 18.92H73.5867C73.5867 17.5781 72.8166 16.6309 71.7468 16.2905L71.5346 16.9575ZM72.8867 18.92C72.8867 19.7595 72.5963 20.4334 72.1039 20.8986C71.6097 21.3655 70.8823 21.65 69.9607 21.65V22.35C71.0272 22.35 71.9378 22.0185 72.5846 21.4074C73.2332 20.7946 73.5867 19.9285 73.5867 18.92H72.8867ZM79.7908 21.776C77.0063 21.776 74.8628 19.585 74.8628 16.806H74.1628C74.1628 19.963 76.6113 22.476 79.7908 22.476V21.776ZM74.8628 16.806C74.8628 14.0321 76.987 12.046 79.7908 12.046V11.346C76.6306 11.346 74.1628 13.6159 74.1628 16.806H74.8628ZM79.7908 12.046C82.5813 12.046 84.7188 14.0327 84.7188 16.806H85.4188C85.4188 13.6153 82.9363 11.346 79.7908 11.346V12.046ZM84.7188 16.806C84.7188 19.5843 82.5619 21.776 79.7908 21.776V22.476C82.9557 22.476 85.4188 19.9637 85.4188 16.806H84.7188ZM83.6268 16.89C83.6268 15.8337 83.2824 14.8899 82.6129 14.2087C81.9421 13.526 80.9753 13.138 79.7908 13.138V13.838C80.8183 13.838 81.5945 14.171 82.1137 14.6993C82.6342 15.2291 82.9268 15.9863 82.9268 16.89H83.6268ZM79.7908 13.138C78.5934 13.138 77.6227 13.5253 76.9512 14.2087C76.2811 14.8905 75.9408 15.8347 75.9408 16.89H76.6408C76.6408 15.9853 76.9305 15.2285 77.4504 14.6993C77.9689 14.1717 78.7482 13.838 79.7908 13.838V13.138ZM75.9408 16.89C75.9408 17.9447 76.2807 18.901 76.9463 19.5961C77.6143 20.2937 78.5818 20.698 79.7768 20.698V19.998C78.7458 19.998 77.9703 19.6533 77.4518 19.1119C76.9309 18.568 76.6408 17.7953 76.6408 16.89H75.9408ZM79.7768 20.698C80.9781 20.698 81.9492 20.2941 82.6192 19.5964C83.2869 18.9013 83.6268 17.9447 83.6268 16.89H82.9268C82.9268 17.7952 82.6367 18.5677 82.1144 19.1116C81.5944 19.6529 80.8155 19.998 79.7768 19.998V20.698Z" fill="#CECECE"/>
<path d="M112.714 100.931L111.287 99.8952L115.308 94.355C115.9 93.5393 115.813 92.8014 115.066 92.2586L114.272 91.6829L115.317 90.244L116.11 90.8197C117.764 92.0204 117.969 93.6918 116.736 95.3913L112.714 100.931ZM118.098 104.996C115.685 103.244 115.209 99.9917 116.952 97.5898C118.704 95.1766 121.812 94.8033 124.225 96.555C126.627 98.2986 127.247 101.378 125.495 103.791C123.751 106.193 120.5 106.739 118.098 104.996ZM123.995 102.806C125.147 101.22 124.963 99.3046 123.173 98.0052C121.36 96.6893 119.493 97.1161 118.342 98.7023C117.19 100.288 117.33 102.241 119.132 103.549C120.944 104.864 122.844 104.392 123.995 102.806Z" fill="url(#paint6_linear_245_92232)"/>
<path d="M112.714 100.931L112.509 101.215L112.792 101.42L112.997 101.137L112.714 100.931ZM111.287 99.8952L111.003 99.6896L110.798 99.9729L111.081 100.178L111.287 99.8952ZM114.272 91.6829L113.989 91.4773L113.784 91.7605L114.067 91.9661L114.272 91.6829ZM115.317 90.244L115.523 89.9608L115.239 89.7551L115.034 90.0384L115.317 90.244ZM112.92 100.648L111.492 99.612L111.081 100.178L112.509 101.215L112.92 100.648ZM111.57 100.101L115.592 94.5606L115.025 94.1494L111.003 99.6896L111.57 100.101ZM115.592 94.5606C115.919 94.109 116.092 93.634 116.037 93.164C115.982 92.6876 115.701 92.2876 115.271 91.9753L114.86 92.5418C115.177 92.7723 115.315 93.0127 115.342 93.2449C115.369 93.4835 115.289 93.7853 115.025 94.1494L115.592 94.5606ZM115.271 91.9753L114.478 91.3996L114.067 91.9661L114.86 92.5418L115.271 91.9753ZM114.556 91.8885L115.6 90.4496L115.034 90.0384L113.989 91.4773L114.556 91.8885ZM115.111 90.5272L115.904 91.1029L116.316 90.5364L115.523 89.9608L115.111 90.5272ZM115.904 91.1029C116.674 91.6615 117.071 92.3013 117.159 92.9647C117.248 93.6316 117.033 94.3858 116.453 95.1857L117.019 95.5969C117.672 94.6973 117.972 93.7661 117.853 92.8723C117.733 91.9749 117.2 91.1786 116.316 90.5364L115.904 91.1029ZM116.453 95.1857L112.431 100.726L112.997 101.137L117.019 95.5969L116.453 95.1857ZM118.304 104.712C116.051 103.077 115.603 100.044 117.236 97.7954L116.669 97.3842C114.814 99.9391 115.32 103.411 117.893 105.279L118.304 104.712ZM117.236 97.7954C118.865 95.5506 121.751 95.1912 124.02 96.8383L124.431 96.2718C121.874 94.4153 118.543 94.8026 116.669 97.3842L117.236 97.7954ZM124.02 96.8383C126.278 98.4775 126.841 101.341 125.212 103.585L125.778 103.997C127.652 101.414 126.977 98.1196 124.431 96.2718L124.02 96.8383ZM125.212 103.585C123.58 105.834 120.547 106.34 118.304 104.712L117.893 105.279C120.454 107.138 123.923 106.552 125.778 103.997L125.212 103.585ZM124.279 103.012C124.899 102.157 125.175 101.191 125.033 100.246C124.891 99.2997 124.337 98.4178 123.378 97.722L122.967 98.2885C123.799 98.8921 124.231 99.6176 124.341 100.35C124.451 101.085 124.243 101.869 123.712 102.601L124.279 103.012ZM123.378 97.722C122.409 97.0186 121.396 96.7618 120.451 96.9203C119.509 97.0785 118.678 97.6427 118.059 98.4967L118.625 98.9079C119.157 98.1757 119.836 97.7334 120.567 97.6107C121.297 97.4882 122.123 97.676 122.967 98.2885L123.378 97.722ZM118.059 98.4967C117.439 99.3502 117.152 100.324 117.283 101.277C117.413 102.234 117.959 103.13 118.926 103.832L119.337 103.265C118.503 102.66 118.078 101.925 117.976 101.182C117.874 100.436 118.093 99.6405 118.625 98.9079L118.059 98.4967ZM118.926 103.832C119.898 104.538 120.921 104.781 121.873 104.61C122.822 104.44 123.659 103.865 124.279 103.012L123.712 102.601C123.18 103.333 122.492 103.788 121.75 103.921C121.011 104.054 120.178 103.875 119.337 103.265L118.926 103.832Z" fill="#CECECE"/>
<path d="M69.1213 133H67.3573V126.154C67.3573 125.146 66.8533 124.6 65.9293 124.6H64.9493V122.822H65.9293C67.9733 122.822 69.1213 124.054 69.1213 126.154V133ZM78.512 133H70.882V131.222H78.512C79.464 131.222 79.982 130.69 79.982 129.892C79.982 129.024 79.45 128.576 78.512 128.576H70.882V122.822H81.172V124.6H72.716V127.078H78.512C80.556 127.078 81.662 128.044 81.662 130.018C81.662 131.726 80.626 133 78.512 133Z" fill="url(#paint7_linear_245_92232)"/>
<path d="M69.1213 133V133.35H69.4713V133H69.1213ZM67.3573 133H67.0073V133.35H67.3573V133ZM64.9493 124.6H64.5993V124.95H64.9493V124.6ZM64.9493 122.822V122.472H64.5993V122.822H64.9493ZM69.1213 132.65H67.3573V133.35H69.1213V132.65ZM67.7073 133V126.154H67.0073V133H67.7073ZM67.7073 126.154C67.7073 125.596 67.5678 125.11 67.2474 124.762C66.9226 124.409 66.4609 124.25 65.9293 124.25V124.95C66.3216 124.95 66.5739 125.064 66.7322 125.236C66.8948 125.413 67.0073 125.704 67.0073 126.154H67.7073ZM65.9293 124.25H64.9493V124.95H65.9293V124.25ZM65.2993 124.6V122.822H64.5993V124.6H65.2993ZM64.9493 123.172H65.9293V122.472H64.9493V123.172ZM65.9293 123.172C66.8801 123.172 67.577 123.457 68.0381 123.942C68.5018 124.429 68.7713 125.166 68.7713 126.154H69.4713C69.4713 125.042 69.1668 124.113 68.5454 123.459C67.9216 122.803 67.0225 122.472 65.9293 122.472V123.172ZM68.7713 126.154V133H69.4713V126.154H68.7713ZM70.882 133H70.532V133.35H70.882V133ZM70.882 131.222V130.872H70.532V131.222H70.882ZM70.882 128.576H70.532V128.926H70.882V128.576ZM70.882 122.822V122.472H70.532V122.822H70.882ZM81.172 122.822H81.522V122.472H81.172V122.822ZM81.172 124.6V124.95H81.522V124.6H81.172ZM72.716 124.6V124.25H72.366V124.6H72.716ZM72.716 127.078H72.366V127.428H72.716V127.078ZM78.512 132.65H70.882V133.35H78.512V132.65ZM71.232 133V131.222H70.532V133H71.232ZM70.882 131.572H78.512V130.872H70.882V131.572ZM78.512 131.572C79.0519 131.572 79.5137 131.42 79.8433 131.112C80.1752 130.801 80.332 130.369 80.332 129.892H79.632C79.632 130.213 79.5298 130.446 79.3647 130.601C79.1973 130.758 78.9241 130.872 78.512 130.872V131.572ZM80.332 129.892C80.332 129.384 80.1738 128.949 79.8301 128.646C79.4939 128.35 79.0313 128.226 78.512 128.226V128.926C78.9307 128.926 79.2031 129.026 79.3674 129.171C79.5242 129.309 79.632 129.532 79.632 129.892H80.332ZM78.512 128.226H70.882V128.926H78.512V128.226ZM71.232 128.576V122.822H70.532V128.576H71.232ZM70.882 123.172H81.172V122.472H70.882V123.172ZM80.822 122.822V124.6H81.522V122.822H80.822ZM81.172 124.25H72.716V124.95H81.172V124.25ZM72.366 124.6V127.078H73.066V124.6H72.366ZM72.716 127.428H78.512V126.728H72.716V127.428ZM78.512 127.428C79.4847 127.428 80.173 127.658 80.6168 128.066C81.0553 128.468 81.312 129.096 81.312 130.018H82.012C82.012 128.966 81.7157 128.124 81.0902 127.55C80.47 126.981 79.5833 126.728 78.512 126.728V127.428ZM81.312 130.018C81.312 130.802 81.0752 131.452 80.6302 131.904C80.1869 132.355 79.4975 132.65 78.512 132.65V133.35C79.6405 133.35 80.5261 133.008 81.1293 132.395C81.7308 131.783 82.012 130.942 82.012 130.018H81.312Z" fill="#CECECE"/>
<path d="M32.6067 103.879L24.2732 108.983L22.7159 106.44C21.685 104.756 22.1117 103.362 23.8548 102.295L26.9948 100.372C27.6514 99.9698 27.8519 99.3053 27.4497 98.6486C27.0476 97.992 26.3812 97.8419 25.7006 98.2587L19.9579 101.776L19.0294 100.259L24.7721 96.7424C26.4913 95.6896 28.0706 96.1507 28.926 97.5475C29.8034 98.9802 29.4366 100.633 27.789 101.642L24.6371 103.572C23.8253 104.07 23.6294 104.715 24.0828 105.455L24.7774 106.589L31.6781 102.363L32.6067 103.879ZM38.4414 100.454C35.8984 102.011 32.712 101.205 31.162 98.6736C29.6046 96.1305 30.4513 93.1167 32.9943 91.5593C35.5254 90.0093 38.6067 90.6176 40.164 93.1606C41.7141 95.6917 40.9725 98.9039 38.4414 100.454ZM38.6797 94.1681C37.6561 92.4967 35.8165 91.9323 33.9302 93.0875C32.0199 94.2574 31.6985 96.1451 32.7221 97.8166C33.7457 99.4881 35.6026 100.108 37.5009 98.945C39.4111 97.7751 39.7033 95.8396 38.6797 94.1681Z" fill="url(#paint8_linear_245_92232)"/>
<path d="M32.6067 103.879L32.7895 104.178L33.088 103.995L32.9052 103.697L32.6067 103.879ZM24.2732 108.983L23.9748 109.166L24.1576 109.464L24.456 109.281L24.2732 108.983ZM19.9579 101.776L19.6595 101.958L19.8423 102.257L20.1407 102.074L19.9579 101.776ZM19.0294 100.259L18.8466 99.9608L18.5481 100.144L18.7309 100.442L19.0294 100.259ZM24.7774 106.589L24.4789 106.772L24.6617 107.07L24.9602 106.888L24.7774 106.589ZM31.6781 102.363L31.9766 102.18L31.7938 101.882L31.4953 102.065L31.6781 102.363ZM32.4239 103.581L24.0905 108.684L24.456 109.281L32.7895 104.178L32.4239 103.581ZM24.5717 108.8L23.0144 106.257L22.4174 106.623L23.9748 109.166L24.5717 108.8ZM23.0144 106.257C22.532 105.469 22.4208 104.802 22.5819 104.232C22.7449 103.655 23.2081 103.101 24.0376 102.593L23.672 101.996C22.7584 102.556 22.1367 103.233 21.9083 104.041C21.678 104.856 21.8688 105.727 22.4174 106.623L23.0144 106.257ZM24.0376 102.593L27.1776 100.67L26.812 100.073L23.672 101.996L24.0376 102.593ZM27.1776 100.67C27.5649 100.433 27.8466 100.1 27.9568 99.6984C28.0681 99.2931 27.992 98.8639 27.7482 98.4658L27.1513 98.8314C27.3096 99.09 27.3344 99.3213 27.2818 99.5131C27.2281 99.7085 27.0812 99.9085 26.812 100.073L27.1776 100.67ZM27.7482 98.4658C27.5075 98.0728 27.1673 97.8015 26.7559 97.7096C26.3463 97.618 25.9173 97.7156 25.5178 97.9602L25.8834 98.5572C26.1645 98.385 26.409 98.3493 26.6032 98.3927C26.7957 98.4357 26.9898 98.5678 27.1513 98.8314L27.7482 98.4658ZM25.5178 97.9602L19.7752 101.477L20.1407 102.074L25.8834 98.5572L25.5178 97.9602ZM20.2564 101.593L19.3278 100.077L18.7309 100.442L19.6595 101.958L20.2564 101.593ZM19.2122 100.558L24.9548 97.0409L24.5893 96.444L18.8466 99.9608L19.2122 100.558ZM24.9548 97.0409C25.7538 96.5516 26.4866 96.4332 27.0975 96.5681C27.7079 96.7029 28.2418 97.1004 28.6275 97.7303L29.2245 97.3647C28.7548 96.5978 28.0714 96.0663 27.2484 95.8846C26.426 95.7029 25.5095 95.8804 24.5893 96.444L24.9548 97.0409ZM28.6275 97.7303C29.0223 98.375 29.127 99.0491 28.9658 99.6651C28.8044 100.282 28.3665 100.878 27.6063 101.344L27.9718 101.941C28.8592 101.397 29.4284 100.662 29.643 99.8423C29.8578 99.0214 29.7071 98.1528 29.2245 97.3647L28.6275 97.7303ZM27.6063 101.344L24.4543 103.274L24.8199 103.871L27.9718 101.941L27.6063 101.344ZM24.4543 103.274C24.0066 103.548 23.6772 103.894 23.55 104.323C23.4202 104.76 23.522 105.209 23.7843 105.638L24.3812 105.272C24.1902 104.96 24.1633 104.717 24.221 104.522C24.2813 104.319 24.4558 104.094 24.8199 103.871L24.4543 103.274ZM23.7843 105.638L24.4789 106.772L25.0758 106.406L24.3812 105.272L23.7843 105.638ZM24.9602 106.888L31.8609 102.662L31.4953 102.065L24.5946 106.291L24.9602 106.888ZM31.3797 102.546L32.3082 104.062L32.9052 103.697L31.9766 102.18L31.3797 102.546ZM38.2586 100.155C35.884 101.61 32.9118 100.861 31.4605 98.4908L30.8635 98.8563C32.5123 101.549 35.9127 102.413 38.6242 100.752L38.2586 100.155ZM31.4605 98.4908C30.0118 96.1252 30.786 93.3221 33.1771 91.8578L32.8115 91.2609C30.1165 92.9113 29.1975 96.1359 30.8635 98.8563L31.4605 98.4908ZM33.1771 91.8578C35.5568 90.4005 38.4172 90.9784 39.8656 93.3434L40.4625 92.9778C38.7962 90.2569 35.494 89.6181 32.8115 91.2609L33.1771 91.8578ZM39.8656 93.3434C41.3166 95.7128 40.6218 98.7082 38.2586 100.155L38.6242 100.752C41.3232 99.0995 42.1116 95.6707 40.4625 92.9778L39.8656 93.3434ZM38.9782 93.9854C38.4265 93.0846 37.6399 92.4596 36.7132 92.2283C35.7846 91.9964 34.7575 92.1705 33.7474 92.7891L34.113 93.386C34.9892 92.8494 35.8251 92.728 36.5437 92.9074C37.2643 93.0873 37.9092 93.5802 38.3812 94.3509L38.9782 93.9854ZM33.7474 92.7891C32.7263 93.4144 32.1007 94.2516 31.8849 95.1851C31.6696 96.1166 31.8725 97.0995 32.4236 97.9994L33.0206 97.6338C32.5481 96.8623 32.3999 96.0656 32.5669 95.3428C32.7335 94.6221 33.2238 93.9305 34.113 93.386L33.7474 92.7891ZM32.4236 97.9994C32.9745 98.8989 33.7638 99.5369 34.6943 99.782C35.6284 100.028 36.6646 99.8675 37.6837 99.2435L37.3181 98.6465C36.4388 99.185 35.5975 99.296 34.8726 99.1051C34.1443 98.9133 33.4934 98.4058 33.0206 97.6338L32.4236 97.9994ZM37.6837 99.2435C38.7082 98.6161 39.3253 97.7645 39.5324 96.8196C39.7387 95.8781 39.529 94.8848 38.9782 93.9854L38.3812 94.3509C38.854 95.1229 39.01 95.9332 38.8486 96.6697C38.6879 97.4029 38.2039 98.1041 37.3181 98.6465L37.6837 99.2435Z" fill="#CECECE"/>
<path d="M26.395 50.8989L18.2979 45.4282L19.9673 42.9573C21.0724 41.3217 22.518 41.1326 24.2117 42.2769L27.2626 44.3382C27.9007 44.7693 28.5885 44.6764 29.0196 44.0384C29.4507 43.4004 29.3111 42.7317 28.6499 42.2849L23.0701 38.515L24.0655 37.0417L29.6453 40.8117C31.3158 41.9403 31.5503 43.5687 30.6333 44.926C29.6928 46.318 28.0365 46.6689 26.4356 45.5873L23.3731 43.5181C22.5842 42.9852 21.9158 43.0742 21.4299 43.7934L20.6853 44.8955L27.3904 49.4257L26.395 50.8989ZM34.1927 56.1674L27.8705 51.8959L28.8659 50.4226L35.1881 54.6942C35.977 55.2271 36.704 55.0763 37.1508 54.4151C37.6367 53.6958 37.4467 53.0268 36.6695 52.5017L30.3472 48.2301L33.5685 43.4623L42.0948 49.223L41.0994 50.6963L34.0928 45.9623L32.7055 48.0156L37.5081 51.2604C39.2018 52.4047 39.5774 53.8243 38.4723 55.46C37.5161 56.8753 35.9444 57.3509 34.1927 56.1674Z" fill="url(#paint9_linear_245_92232)"/>
<path d="M26.395 50.8989L26.199 51.1889L26.489 51.3849L26.685 51.0949L26.395 50.8989ZM18.2979 45.4282L18.0079 45.2323L17.8119 45.5223L18.1019 45.7182L18.2979 45.4282ZM23.0701 38.515L22.7801 38.319L22.5841 38.609L22.8741 38.805L23.0701 38.515ZM24.0655 37.0417L24.2614 36.7517L23.9714 36.5558L23.7755 36.8458L24.0655 37.0417ZM20.6853 44.8955L20.3953 44.6995L20.1994 44.9896L20.4894 45.1855L20.6853 44.8955ZM27.3904 49.4257L27.6804 49.6216L27.8763 49.3316L27.5863 49.1357L27.3904 49.4257ZM26.5909 50.6089L18.4938 45.1382L18.1019 45.7182L26.199 51.1889L26.5909 50.6089ZM18.5879 45.6242L20.2573 43.1533L19.6773 42.7614L18.0079 45.2323L18.5879 45.6242ZM20.2573 43.1533C20.7743 42.388 21.3362 42.0101 21.9217 41.9206C22.514 41.8301 23.2098 42.0223 24.0158 42.5669L24.4077 41.9869C23.52 41.3871 22.6462 41.1018 21.8159 41.2286C20.9789 41.3565 20.2654 41.891 19.6773 42.7614L20.2573 43.1533ZM24.0158 42.5669L27.0667 44.6282L27.4586 44.0482L24.4077 41.9869L24.0158 42.5669ZM27.0667 44.6282C27.4431 44.8825 27.8631 45.0008 28.2742 44.9348C28.6891 44.8682 29.0483 44.6211 29.3096 44.2344L28.7296 43.8425C28.5598 44.0937 28.3595 44.2121 28.1632 44.2436C27.9631 44.2758 27.7202 44.2249 27.4586 44.0482L27.0667 44.6282ZM29.3096 44.2344C29.5676 43.8525 29.6736 43.4305 29.5869 43.0179C29.5005 42.6072 29.2339 42.2571 28.8458 41.9949L28.454 42.5749C28.7271 42.7595 28.8609 42.9672 28.9018 43.1619C28.9424 43.355 28.9027 43.5863 28.7296 43.8425L29.3096 44.2344ZM28.8458 41.9949L23.266 38.225L22.8741 38.805L28.454 42.5749L28.8458 41.9949ZM23.3601 38.7109L24.3555 37.2377L23.7755 36.8458L22.7801 38.319L23.3601 38.7109ZM23.8695 37.3317L29.4494 41.1017L29.8412 40.5216L24.2614 36.7517L23.8695 37.3317ZM29.4494 41.1017C30.2256 41.6262 30.637 42.2441 30.7673 42.856C30.8974 43.4673 30.7568 44.118 30.3433 44.73L30.9233 45.1219C31.4268 44.3767 31.6274 43.5345 31.4519 42.7102C31.2766 41.8864 30.7354 41.1258 29.8412 40.5216L29.4494 41.1017ZM30.3433 44.73C29.9201 45.3564 29.3498 45.7309 28.7224 45.8394C28.0942 45.948 27.3702 45.7963 26.6315 45.2973L26.2397 45.8773C27.1019 46.4598 28.0064 46.6735 28.8417 46.5291C29.6778 46.3846 30.406 45.8876 30.9233 45.1219L30.3433 44.73ZM26.6315 45.2973L23.569 43.2281L23.1771 43.8081L26.2397 45.8773L26.6315 45.2973ZM23.569 43.2281C23.134 42.9342 22.6826 42.7778 22.2395 42.8396C21.7878 42.9026 21.4211 43.1813 21.1399 43.5975L21.7199 43.9894C21.9247 43.6863 22.1351 43.5609 22.3363 43.5329C22.5461 43.5036 22.8234 43.5691 23.1771 43.8081L23.569 43.2281ZM21.1399 43.5975L20.3953 44.6995L20.9753 45.0914L21.7199 43.9894L21.1399 43.5975ZM20.4894 45.1855L27.1944 49.7157L27.5863 49.1357L20.8812 44.6055L20.4894 45.1855ZM27.1004 49.2297L26.105 50.703L26.685 51.0949L27.6804 49.6216L27.1004 49.2297ZM27.8705 51.8959L27.5805 51.6999L27.3845 51.9899L27.6746 52.1859L27.8705 51.8959ZM28.8659 50.4226L29.0618 50.1326L28.7718 49.9366L28.5759 50.2267L28.8659 50.4226ZM30.3472 48.2301L30.0572 48.0342L29.8613 48.3242L30.1513 48.5201L30.3472 48.2301ZM33.5685 43.4623L33.7645 43.1723L33.4744 42.9764L33.2785 43.2664L33.5685 43.4623ZM42.0948 49.223L42.3849 49.419L42.5808 49.129L42.2908 48.933L42.0948 49.223ZM41.0995 50.6963L40.9035 50.9863L41.1935 51.1823L41.3895 50.8922L41.0995 50.6963ZM34.0928 45.9623L34.2887 45.6723L33.9987 45.4764L33.8028 45.7664L34.0928 45.9623ZM32.7055 48.0156L32.4155 47.8197L32.2196 48.1097L32.5096 48.3056L32.7055 48.0156ZM34.3887 55.8774L28.0664 51.6058L27.6746 52.1859L33.9968 56.4574L34.3887 55.8774ZM28.1605 52.0918L29.1559 50.6185L28.5759 50.2267L27.5805 51.6999L28.1605 52.0918ZM28.6699 50.7126L34.9922 54.9842L35.3841 54.4041L29.0618 50.1326L28.6699 50.7126ZM34.9922 54.9842C35.4395 55.2864 35.9071 55.4193 36.353 55.348C36.8021 55.2763 37.1739 55.006 37.4408 54.611L36.8607 54.2191C36.6809 54.4853 36.4658 54.6211 36.2425 54.6568C36.0159 54.693 35.7256 54.6349 35.3841 54.4041L34.9922 54.9842ZM37.4408 54.611C37.725 54.1903 37.8378 53.7408 37.7225 53.2975C37.6098 52.8638 37.2957 52.5024 36.8654 52.2117L36.4735 52.7917C36.8205 53.0261 36.99 53.2617 37.0451 53.4736C37.0977 53.676 37.0624 53.9206 36.8607 54.2191L37.4408 54.611ZM36.8654 52.2117L30.5432 47.9401L30.1513 48.5201L36.4735 52.7917L36.8654 52.2117ZM30.6372 48.4261L33.8585 43.6583L33.2785 43.2664L30.0572 48.0342L30.6372 48.4261ZM33.3726 43.7523L41.8989 49.5131L42.2908 48.933L33.7645 43.1723L33.3726 43.7523ZM41.8048 49.0271L40.8094 50.5004L41.3895 50.8922L42.3849 49.419L41.8048 49.0271ZM41.2954 50.4063L34.2887 45.6723L33.8968 46.2523L40.9035 50.9863L41.2954 50.4063ZM33.8028 45.7664L32.4155 47.8197L32.9955 48.2116L34.3828 46.1583L33.8028 45.7664ZM32.5096 48.3056L37.3121 51.5504L37.704 50.9704L32.9014 47.7256L32.5096 48.3056ZM37.3121 51.5504C38.1181 52.095 38.5595 52.6711 38.6993 53.2571C38.8373 53.836 38.6986 54.4998 38.1823 55.2641L38.7623 55.6559C39.3511 54.7845 39.5771 53.9207 39.3802 53.0948C39.185 52.276 38.5917 51.5702 37.704 50.9704L37.3121 51.5504ZM38.1823 55.2641C37.7433 55.9137 37.1835 56.3194 36.5614 56.4452C35.9418 56.5705 35.2053 56.4291 34.3887 55.8774L33.9968 56.4574C34.9319 57.0892 35.857 57.3018 36.7002 57.1313C37.5409 56.9613 38.245 56.4215 38.7623 55.6559L38.1823 55.2641Z" fill="#CECECE"/>
<path d="M126.354 50.3881L119.521 53.7833L118.729 52.1911L125.562 48.7958C126.415 48.3722 126.642 47.6653 126.287 46.9506C125.901 46.1733 125.225 46.0088 124.385 46.4262L117.552 49.8215L114.992 44.6686L124.207 40.0897L124.998 41.6819L117.425 45.4447L118.528 47.6639L123.718 45.0847C125.549 44.1752 126.969 44.5481 127.848 46.3159C128.608 47.8455 128.247 49.4474 126.354 50.3881Z" fill="url(#paint10_linear_245_92232)"/>
<path d="M119.521 53.7834L119.207 53.9391L119.363 54.2525L119.676 54.0968L119.521 53.7834ZM118.729 52.1911L118.574 51.8776L118.26 52.0334L118.416 52.3468L118.729 52.1911ZM117.552 49.8215L117.239 49.9772L117.394 50.2907L117.708 50.1349L117.552 49.8215ZM114.992 44.6686L114.836 44.3551L114.522 44.5109L114.678 44.8243L114.992 44.6686ZM124.207 40.0897L124.52 39.9339L124.364 39.6205L124.051 39.7762L124.207 40.0897ZM124.998 41.6819L125.154 41.9954L125.467 41.8396L125.311 41.5262L124.998 41.6819ZM117.425 45.4447L117.269 45.1313L116.956 45.287L117.112 45.6005L117.425 45.4447ZM118.528 47.6639L118.214 47.8196L118.37 48.1331L118.684 47.9773L118.528 47.6639ZM126.198 50.0747L119.365 53.4699L119.676 54.0968L126.509 50.7015L126.198 50.0747ZM119.834 53.6276L119.043 52.0353L118.416 52.3468L119.207 53.9391L119.834 53.6276ZM118.885 52.5045L125.718 49.1093L125.407 48.4824L118.574 51.8776L118.885 52.5045ZM125.718 49.1093C126.202 48.869 126.548 48.5277 126.706 48.1047C126.864 47.6785 126.813 47.2218 126.6 46.7949L125.974 47.1064C126.117 47.3941 126.129 47.6482 126.05 47.8601C125.969 48.075 125.776 48.299 125.407 48.4824L125.718 49.1093ZM126.6 46.7949C126.375 46.3402 126.039 46.0205 125.597 45.9023C125.164 45.7866 124.694 45.8817 124.229 46.1128L124.541 46.7397C124.916 46.5534 125.204 46.522 125.416 46.5786C125.618 46.6325 125.813 46.7838 125.974 47.1064L126.6 46.7949ZM124.229 46.1128L117.396 49.5081L117.708 50.1349L124.541 46.7397L124.229 46.1128ZM117.865 49.6658L115.305 44.5128L114.678 44.8243L117.239 49.9772L117.865 49.6658ZM115.147 44.982L124.362 40.4031L124.051 39.7762L114.836 44.3551L115.147 44.982ZM123.893 40.2454L124.684 41.8377L125.311 41.5262L124.52 39.9339L123.893 40.2454ZM124.842 41.3685L117.269 45.1313L117.581 45.7582L125.154 41.9954L124.842 41.3685ZM117.112 45.6005L118.214 47.8196L118.841 47.5081L117.739 45.289L117.112 45.6005ZM118.684 47.9773L123.874 45.3982L123.563 44.7713L118.372 47.3504L118.684 47.9773ZM123.874 45.3982C124.745 44.9653 125.464 44.8652 126.043 45.0325C126.614 45.1978 127.124 45.6457 127.534 46.4716L128.161 46.1601C127.693 45.2183 127.053 44.5959 126.237 44.3601C125.429 44.1263 124.522 44.2946 123.563 44.7713L123.874 45.3982ZM127.534 46.4716C127.883 47.1738 127.96 47.8609 127.763 48.4641C127.566 49.065 127.08 49.6361 126.198 50.0747L126.509 50.7015C127.52 50.1994 128.161 49.4992 128.428 48.6816C128.695 47.8662 128.572 46.9876 128.161 46.1601L127.534 46.4716Z" fill="#CECECE"/>
<path d="M99.9917 122.858H99.1097V119.435C99.1097 118.931 98.8577 118.658 98.3957 118.658H97.9057V117.769H98.3957C99.4177 117.769 99.9917 118.385 99.9917 119.435V122.858ZM104.239 122.858H100.753V121.969H104.022C104.582 121.969 104.974 121.738 104.974 121.297C104.974 120.877 104.701 120.646 104.204 120.646H101.957V119.897H104.141C104.645 119.897 104.883 119.722 104.883 119.281C104.883 118.812 104.554 118.651 103.966 118.651H100.774V117.769H104.141C105.128 117.769 105.779 118.217 105.779 119.085C105.779 119.729 105.457 120.051 105.079 120.17C105.541 120.317 105.877 120.723 105.877 121.318C105.877 122.242 105.233 122.858 104.239 122.858Z" fill="url(#paint11_linear_245_92232)"/>
<path d="M99.9917 122.858V123.108H100.242V122.858H99.9917ZM99.1097 122.858H98.8597V123.108H99.1097V122.858ZM97.9057 118.658H97.6557V118.908H97.9057V118.658ZM97.9057 117.769V117.519H97.6557V117.769H97.9057ZM99.9917 122.608H99.1097V123.108H99.9917V122.608ZM99.3597 122.858V119.435H98.8597V122.858H99.3597ZM99.3597 119.435C99.3597 119.145 99.2871 118.881 99.11 118.689C98.9298 118.493 98.6765 118.408 98.3957 118.408V118.908C98.577 118.908 98.6807 118.961 98.742 119.027C98.8064 119.097 98.8597 119.222 98.8597 119.435H99.3597ZM98.3957 118.408H97.9057V118.908H98.3957V118.408ZM98.1557 118.658V117.769H97.6557V118.658H98.1557ZM97.9057 118.019H98.3957V117.519H97.9057V118.019ZM98.3957 118.019C98.8559 118.019 99.1827 118.157 99.3958 118.381C99.6107 118.607 99.7417 118.954 99.7417 119.435H100.242C100.242 118.866 100.086 118.381 99.7582 118.036C99.4288 117.69 98.9576 117.519 98.3957 117.519V118.019ZM99.7417 119.435V122.858H100.242V119.435H99.7417ZM100.753 122.858H100.503V123.108H100.753V122.858ZM100.753 121.969V121.719H100.503V121.969H100.753ZM101.957 120.646H101.707V120.896H101.957V120.646ZM101.957 119.897V119.647H101.707V119.897H101.957ZM100.774 118.651H100.524V118.901H100.774V118.651ZM100.774 117.769V117.519H100.524V117.769H100.774ZM105.079 120.17L105.004 119.932L104.251 120.169L105.003 120.409L105.079 120.17ZM104.239 122.608H100.753V123.108H104.239V122.608ZM101.003 122.858V121.969H100.503V122.858H101.003ZM100.753 122.219H104.022V121.719H100.753V122.219ZM104.022 122.219C104.331 122.219 104.624 122.156 104.848 122.006C105.082 121.849 105.224 121.604 105.224 121.297H104.724C104.724 121.431 104.67 121.523 104.569 121.591C104.456 121.667 104.273 121.719 104.022 121.719V122.219ZM105.224 121.297C105.224 121.03 105.135 120.791 104.937 120.624C104.746 120.462 104.487 120.396 104.204 120.396V120.896C104.418 120.896 104.545 120.947 104.614 121.005C104.677 121.058 104.724 121.145 104.724 121.297H105.224ZM104.204 120.396H101.957V120.896H104.204V120.396ZM102.207 120.646V119.897H101.707V120.646H102.207ZM101.957 120.147H104.141V119.647H101.957V120.147ZM104.141 120.147C104.412 120.147 104.669 120.102 104.858 119.949C105.06 119.786 105.133 119.546 105.133 119.281H104.633C104.633 119.458 104.587 119.526 104.544 119.56C104.489 119.605 104.374 119.647 104.141 119.647V120.147ZM105.133 119.281C105.133 118.979 105.021 118.733 104.779 118.579C104.561 118.441 104.273 118.401 103.966 118.401V118.901C104.248 118.901 104.417 118.942 104.511 119.002C104.581 119.046 104.633 119.115 104.633 119.281H105.133ZM103.966 118.401H100.774V118.901H103.966V118.401ZM101.024 118.651V117.769H100.524V118.651H101.024ZM100.774 118.019H104.141V117.519H100.774V118.019ZM104.141 118.019C104.601 118.019 104.95 118.124 105.178 118.3C105.396 118.468 105.529 118.721 105.529 119.085H106.029C106.029 118.582 105.836 118.176 105.483 117.904C105.138 117.638 104.668 117.519 104.141 117.519V118.019ZM105.529 119.085C105.529 119.365 105.46 119.552 105.369 119.678C105.277 119.804 105.15 119.886 105.004 119.932L105.154 120.409C105.386 120.336 105.609 120.198 105.773 119.972C105.937 119.746 106.029 119.45 106.029 119.085H105.529ZM105.003 120.409C105.361 120.522 105.627 120.832 105.627 121.318H106.127C106.127 120.615 105.721 120.112 105.155 119.932L105.003 120.409ZM105.627 121.318C105.627 121.72 105.489 122.036 105.259 122.253C105.028 122.471 104.684 122.608 104.239 122.608V123.108C104.788 123.108 105.263 122.938 105.603 122.617C105.944 122.294 106.127 121.841 106.127 121.318H105.627Z" fill="#B3B3B3"/>
<path d="M43.566 122.858H42.684V119.435C42.684 118.931 42.432 118.658 41.97 118.658H41.48V117.769H41.97C42.992 117.769 43.566 118.385 43.566 119.435V122.858ZM48.2963 122.858H46.0003C45.0063 122.858 44.3623 122.249 44.3623 121.318C44.3623 120.723 44.6983 120.317 45.1603 120.17C44.7823 120.051 44.4603 119.729 44.4603 119.085C44.4603 118.217 45.1113 117.769 46.0983 117.769H48.1983C49.1853 117.769 49.8433 118.217 49.8433 119.085C49.8433 119.729 49.5143 120.051 49.1363 120.17C49.5983 120.317 49.9343 120.723 49.9343 121.318C49.9343 122.249 49.2903 122.858 48.2963 122.858ZM48.2613 120.646H46.0353C45.5383 120.646 45.2583 120.884 45.2583 121.304C45.2583 121.745 45.6573 121.969 46.2173 121.969H48.0793C48.6393 121.969 49.0383 121.745 49.0383 121.304C49.0383 120.884 48.7583 120.646 48.2613 120.646ZM48.0303 118.651H46.2663C45.6853 118.651 45.3563 118.812 45.3563 119.281C45.3563 119.722 45.5943 119.897 46.0983 119.897H48.1983C48.7023 119.897 48.9403 119.722 48.9403 119.281C48.9403 118.812 48.6113 118.651 48.0303 118.651Z" fill="url(#paint12_linear_245_92232)"/>
<path d="M43.566 122.858V123.108H43.816V122.858H43.566ZM42.684 122.858H42.434V123.108H42.684V122.858ZM41.48 118.658H41.23V118.908H41.48V118.658ZM41.48 117.769V117.519H41.23V117.769H41.48ZM43.566 122.608H42.684V123.108H43.566V122.608ZM42.934 122.858V119.435H42.434V122.858H42.934ZM42.934 119.435C42.934 119.145 42.8613 118.881 42.6842 118.689C42.504 118.493 42.2507 118.408 41.97 118.408V118.908C42.1512 118.908 42.2549 118.961 42.3162 119.027C42.3806 119.097 42.434 119.222 42.434 119.435H42.934ZM41.97 118.408H41.48V118.908H41.97V118.408ZM41.73 118.658V117.769H41.23V118.658H41.73ZM41.48 118.019H41.97V117.519H41.48V118.019ZM41.97 118.019C42.4301 118.019 42.7569 118.157 42.97 118.381C43.1849 118.607 43.316 118.954 43.316 119.435H43.816C43.816 118.866 43.66 118.381 43.3324 118.036C43.003 117.69 42.5318 117.519 41.97 117.519V118.019ZM43.316 119.435V122.858H43.816V119.435H43.316ZM45.1603 120.17L45.2361 120.409L45.9888 120.169L45.2354 119.932L45.1603 120.17ZM49.1363 120.17L49.0612 119.932L48.3078 120.169L49.0605 120.409L49.1363 120.17ZM48.2963 122.608H46.0003V123.108H48.2963V122.608ZM46.0003 122.608C45.5543 122.608 45.2103 122.472 44.98 122.256C44.751 122.04 44.6123 121.724 44.6123 121.318H44.1123C44.1123 121.844 44.2956 122.298 44.6372 122.62C44.9773 122.94 45.4523 123.108 46.0003 123.108V122.608ZM44.6123 121.318C44.6123 120.832 44.8782 120.522 45.2361 120.409L45.0845 119.932C44.5184 120.112 44.1123 120.615 44.1123 121.318H44.6123ZM45.2354 119.932C45.0892 119.886 44.9623 119.804 44.8708 119.678C44.7796 119.552 44.7103 119.365 44.7103 119.085H44.2103C44.2103 119.45 44.302 119.746 44.4663 119.972C44.6303 120.198 44.8535 120.336 45.0852 120.409L45.2354 119.932ZM44.7103 119.085C44.7103 118.721 44.8431 118.468 45.0618 118.3C45.2896 118.124 45.6383 118.019 46.0983 118.019V117.519C45.5714 117.519 45.101 117.638 44.7566 117.904C44.403 118.176 44.2103 118.582 44.2103 119.085H44.7103ZM46.0983 118.019H48.1983V117.519H46.0983V118.019ZM48.1983 118.019C48.6584 118.019 49.0091 118.124 49.2389 118.3C49.4595 118.469 49.5933 118.722 49.5933 119.085H50.0933C50.0933 118.581 49.8982 118.175 49.543 117.903C49.197 117.638 48.7253 117.519 48.1983 117.519V118.019ZM49.5933 119.085C49.5933 119.364 49.5229 119.551 49.4303 119.677C49.3371 119.803 49.2082 119.886 49.0612 119.932L49.2114 120.409C49.4425 120.336 49.667 120.198 49.8329 119.973C49.9992 119.747 50.0933 119.451 50.0933 119.085H49.5933ZM49.0605 120.409C49.4184 120.522 49.6843 120.832 49.6843 121.318H50.1843C50.1843 120.615 49.7782 120.112 49.2121 119.932L49.0605 120.409ZM49.6843 121.318C49.6843 121.724 49.5456 122.04 49.3167 122.256C49.0863 122.472 48.7423 122.608 48.2963 122.608V123.108C48.8443 123.108 49.3193 122.94 49.6595 122.62C50.001 122.298 50.1843 121.844 50.1843 121.318H49.6843ZM48.2613 120.396H46.0353V120.896H48.2613V120.396ZM46.0353 120.396C45.7506 120.396 45.4909 120.464 45.2988 120.627C45.1004 120.795 45.0083 121.035 45.0083 121.304H45.5083C45.5083 121.153 45.5562 121.064 45.6221 121.009C45.6942 120.947 45.8231 120.896 46.0353 120.896V120.396ZM45.0083 121.304C45.0083 121.614 45.1544 121.857 45.3909 122.011C45.6157 122.159 45.9092 122.219 46.2173 122.219V121.719C45.9654 121.719 45.7795 121.668 45.6647 121.593C45.5618 121.526 45.5083 121.436 45.5083 121.304H45.0083ZM46.2173 122.219H48.0793V121.719H46.2173V122.219ZM48.0793 122.219C48.3874 122.219 48.681 122.159 48.9057 122.011C49.1423 121.857 49.2883 121.614 49.2883 121.304H48.7883C48.7883 121.436 48.7349 121.526 48.6319 121.593C48.5172 121.668 48.3312 121.719 48.0793 121.719V122.219ZM49.2883 121.304C49.2883 121.035 49.1962 120.795 48.9979 120.627C48.8057 120.464 48.5461 120.396 48.2613 120.396V120.896C48.4736 120.896 48.6024 120.947 48.6745 121.009C48.7404 121.064 48.7883 121.153 48.7883 121.304H49.2883ZM48.0303 118.401H46.2663V118.901H48.0303V118.401ZM46.2663 118.401C45.963 118.401 45.6757 118.441 45.4589 118.58C45.2187 118.733 45.1063 118.979 45.1063 119.281H45.6063C45.6063 119.115 45.6584 119.046 45.728 119.001C45.8209 118.942 45.9886 118.901 46.2663 118.901V118.401ZM45.1063 119.281C45.1063 119.546 45.1793 119.786 45.3813 119.949C45.5708 120.102 45.827 120.147 46.0983 120.147V119.647C45.8656 119.647 45.7509 119.605 45.6953 119.56C45.6523 119.526 45.6063 119.458 45.6063 119.281H45.1063ZM46.0983 120.147H48.1983V119.647H46.0983V120.147ZM48.1983 120.147C48.4696 120.147 48.7259 120.102 48.9153 119.949C49.1173 119.786 49.1903 119.546 49.1903 119.281H48.6903C48.6903 119.458 48.6443 119.526 48.6013 119.56C48.5458 119.605 48.431 119.647 48.1983 119.647V120.147ZM49.1903 119.281C49.1903 118.979 49.0779 118.733 48.8377 118.58C48.6209 118.441 48.3336 118.401 48.0303 118.401V118.901C48.308 118.901 48.4757 118.942 48.5687 119.001C48.6382 119.046 48.6903 119.115 48.6903 119.281H49.1903Z" fill="#B3B3B3"/>
<path d="M18.1658 74.5742H13.2798V73.0832C13.2798 72.0962 13.8258 71.6132 14.8478 71.6132H16.6888C17.0738 71.6132 17.3328 71.3822 17.3328 70.9972C17.3328 70.6122 17.0878 70.3742 16.6888 70.3742H13.3218V69.4852H16.6888C17.6968 69.4852 18.2498 70.0942 18.2498 70.9132C18.2498 71.7532 17.6618 72.3622 16.6958 72.3622H14.8478C14.3718 72.3622 14.1198 72.5862 14.1198 73.0202V73.6852H18.1658V74.5742ZM22.4232 74.5742H18.9372V73.6852H22.2062C22.7662 73.6852 23.1582 73.4542 23.1582 73.0132C23.1582 72.5932 22.8852 72.3622 22.3882 72.3622H20.1412V71.6132H22.3252C22.8292 71.6132 23.0672 71.4382 23.0672 70.9972C23.0672 70.5282 22.7382 70.3672 22.1502 70.3672H18.9582V69.4852H22.3252C23.3122 69.4852 23.9632 69.9332 23.9632 70.8012C23.9632 71.4452 23.6412 71.7672 23.2632 71.8862C23.7252 72.0332 24.0612 72.4392 24.0612 73.0342C24.0612 73.9582 23.4172 74.5742 22.4232 74.5742Z" fill="url(#paint13_linear_245_92232)"/>
<path d="M18.1658 74.5742V74.8242H18.4158V74.5742H18.1658ZM13.2798 74.5742H13.0298V74.8242H13.2798V74.5742ZM13.3218 70.3742H13.0718V70.6242H13.3218V70.3742ZM13.3218 69.4852V69.2352H13.0718V69.4852H13.3218ZM14.1198 73.6852H13.8698V73.9352H14.1198V73.6852ZM18.1658 73.6852H18.4158V73.4352H18.1658V73.6852ZM18.1658 74.3242H13.2798V74.8242H18.1658V74.3242ZM13.5298 74.5742V73.0832H13.0298V74.5742H13.5298ZM13.5298 73.0832C13.5298 72.635 13.6527 72.3442 13.8502 72.1617C14.0513 71.9759 14.372 71.8632 14.8478 71.8632V71.3632C14.3016 71.3632 13.8383 71.492 13.5109 71.7945C13.1799 72.1003 13.0298 72.5444 13.0298 73.0832H13.5298ZM14.8478 71.8632H16.6888V71.3632H14.8478V71.8632ZM16.6888 71.8632C16.9308 71.8632 17.1577 71.79 17.3262 71.6319C17.4968 71.472 17.5828 71.2481 17.5828 70.9972H17.0828C17.0828 71.1313 17.0394 71.2155 16.9842 71.2673C16.927 71.3209 16.8319 71.3632 16.6888 71.3632V71.8632ZM17.5828 70.9972C17.5828 70.7505 17.503 70.5251 17.3344 70.3618C17.1666 70.1993 16.9379 70.1242 16.6888 70.1242V70.6242C16.8388 70.6242 16.932 70.6681 16.9865 70.7209C17.0401 70.7728 17.0828 70.8589 17.0828 70.9972H17.5828ZM16.6888 70.1242H13.3218V70.6242H16.6888V70.1242ZM13.5718 70.3742V69.4852H13.0718V70.3742H13.5718ZM13.3218 69.7352H16.6888V69.2352H13.3218V69.7352ZM16.6888 69.7352C17.142 69.7352 17.4653 69.8712 17.6738 70.0721C17.8821 70.2728 17.9998 70.5611 17.9998 70.9132H18.4998C18.4998 70.4463 18.341 70.0206 18.0208 69.7121C17.7008 69.4038 17.2436 69.2352 16.6888 69.2352V69.7352ZM17.9998 70.9132C17.9998 71.2732 17.8751 71.5676 17.6619 71.7724C17.4482 71.9777 17.1256 72.1122 16.6958 72.1122V72.6122C17.2321 72.6122 17.6864 72.4423 18.0083 72.133C18.3306 71.8233 18.4998 71.3933 18.4998 70.9132H17.9998ZM16.6958 72.1122H14.8478V72.6122H16.6958V72.1122ZM14.8478 72.1122C14.5748 72.1122 14.3231 72.1761 14.1381 72.3426C13.9484 72.5133 13.8698 72.7545 13.8698 73.0202H14.3698C14.3698 72.852 14.4172 72.7641 14.4726 72.7143C14.5326 72.6603 14.6448 72.6122 14.8478 72.6122V72.1122ZM13.8698 73.0202V73.6852H14.3698V73.0202H13.8698ZM14.1198 73.9352H18.1658V73.4352H14.1198V73.9352ZM17.9158 73.6852V74.5742H18.4158V73.6852H17.9158ZM18.9372 74.5742H18.6872V74.8242H18.9372V74.5742ZM18.9372 73.6852V73.4352H18.6872V73.6852H18.9372ZM20.1412 72.3622H19.8912V72.6122H20.1412V72.3622ZM20.1412 71.6132V71.3632H19.8912V71.6132H20.1412ZM18.9582 70.3672H18.7082V70.6172H18.9582V70.3672ZM18.9582 69.4852V69.2352H18.7082V69.4852H18.9582ZM23.2632 71.8862L23.1881 71.6478L22.4347 71.885L23.1874 72.1245L23.2632 71.8862ZM22.4232 74.3242H18.9372V74.8242H22.4232V74.3242ZM19.1872 74.5742V73.6852H18.6872V74.5742H19.1872ZM18.9372 73.9352H22.2062V73.4352H18.9372V73.9352ZM22.2062 73.9352C22.5156 73.9352 22.8083 73.8722 23.0316 73.7221C23.266 73.5646 23.4082 73.3202 23.4082 73.0132H22.9082C22.9082 73.1473 22.8543 73.2388 22.7528 73.3071C22.6401 73.3828 22.4568 73.4352 22.2062 73.4352V73.9352ZM23.4082 73.0132C23.4082 72.746 23.3189 72.5067 23.121 72.3393C22.9297 72.1776 22.6713 72.1122 22.3882 72.1122V72.6122C22.6021 72.6122 22.7286 72.6623 22.7981 72.7211C22.861 72.7742 22.9082 72.8604 22.9082 73.0132H23.4082ZM22.3882 72.1122H20.1412V72.6122H22.3882V72.1122ZM20.3912 72.3622V71.6132H19.8912V72.3622H20.3912ZM20.1412 71.8632H22.3252V71.3632H20.1412V71.8632ZM22.3252 71.8632C22.5965 71.8632 22.8527 71.8181 23.0422 71.6651C23.2442 71.5021 23.3172 71.262 23.3172 70.9972H22.8172C22.8172 71.1735 22.7712 71.2413 22.7282 71.2761C22.6726 71.3209 22.5579 71.3632 22.3252 71.3632V71.8632ZM23.3172 70.9972C23.3172 70.6945 23.2047 70.4486 22.9632 70.2953C22.7455 70.1571 22.4566 70.1172 22.1502 70.1172V70.6172C22.4318 70.6172 22.6013 70.6578 22.6952 70.7174C22.7652 70.7618 22.8172 70.831 22.8172 70.9972H23.3172ZM22.1502 70.1172H18.9582V70.6172H22.1502V70.1172ZM19.2082 70.3672V69.4852H18.7082V70.3672H19.2082ZM18.9582 69.7352H22.3252V69.2352H18.9582V69.7352ZM22.3252 69.7352C22.7852 69.7352 23.1339 69.8402 23.3617 70.0157C23.5804 70.1842 23.7132 70.4368 23.7132 70.8012H24.2132C24.2132 70.2977 24.0205 69.8922 23.6669 69.6197C23.3225 69.3543 22.8521 69.2352 22.3252 69.2352V69.7352ZM23.7132 70.8012C23.7132 71.0806 23.6439 71.2681 23.5527 71.3937C23.4612 71.5196 23.3344 71.6017 23.1881 71.6478L23.3383 72.1247C23.57 72.0517 23.7932 71.9133 23.9572 71.6875C24.1215 71.4614 24.2132 71.1658 24.2132 70.8012H23.7132ZM23.1874 72.1245C23.5453 72.2383 23.8112 72.5477 23.8112 73.0342H24.3112C24.3112 72.3307 23.9051 71.8281 23.339 71.648L23.1874 72.1245ZM23.8112 73.0342C23.8112 73.4359 23.6727 73.7522 23.4432 73.969C23.2125 74.187 22.8684 74.3242 22.4232 74.3242V74.8242C22.9719 74.8242 23.4469 74.6534 23.7866 74.3324C24.1277 74.0102 24.3112 73.5566 24.3112 73.0342H23.8112Z" fill="#B3B3B3"/>
<path d="M44.0975 26.6865H39.2115V25.1955C39.2115 24.2085 39.7575 23.7255 40.7795 23.7255H42.6205C43.0055 23.7255 43.2645 23.4945 43.2645 23.1095C43.2645 22.7245 43.0195 22.4865 42.6205 22.4865H39.2535V21.5975H42.6205C43.6285 21.5975 44.1815 22.2065 44.1815 23.0255C44.1815 23.8655 43.5935 24.4745 42.6275 24.4745H40.7795C40.3035 24.4745 40.0515 24.6985 40.0515 25.1325V25.7975H44.0975V26.6865ZM48.8378 26.6865H46.5418C45.5478 26.6865 44.9038 26.0775 44.9038 25.1465C44.9038 24.5515 45.2398 24.1455 45.7018 23.9985C45.3238 23.8795 45.0018 23.5575 45.0018 22.9135C45.0018 22.0455 45.6528 21.5975 46.6398 21.5975H48.7398C49.7268 21.5975 50.3848 22.0455 50.3848 22.9135C50.3848 23.5575 50.0558 23.8795 49.6778 23.9985C50.1398 24.1455 50.4758 24.5515 50.4758 25.1465C50.4758 26.0775 49.8318 26.6865 48.8378 26.6865ZM48.8028 24.4745H46.5768C46.0798 24.4745 45.7998 24.7125 45.7998 25.1325C45.7998 25.5735 46.1988 25.7975 46.7588 25.7975H48.6208C49.1808 25.7975 49.5798 25.5735 49.5798 25.1325C49.5798 24.7125 49.2998 24.4745 48.8028 24.4745ZM48.5718 22.4795H46.8078C46.2268 22.4795 45.8978 22.6405 45.8978 23.1095C45.8978 23.5505 46.1358 23.7255 46.6398 23.7255H48.7398C49.2438 23.7255 49.4818 23.5505 49.4818 23.1095C49.4818 22.6405 49.1528 22.4795 48.5718 22.4795Z" fill="url(#paint14_linear_245_92232)"/>
<path d="M44.0975 26.6865V26.9365H44.3475V26.6865H44.0975ZM39.2115 26.6865H38.9615V26.9365H39.2115V26.6865ZM39.2535 22.4865H39.0035V22.7365H39.2535V22.4865ZM39.2535 21.5975V21.3475H39.0035V21.5975H39.2535ZM40.0515 25.7975H39.8015V26.0475H40.0515V25.7975ZM44.0975 25.7975H44.3475V25.5475H44.0975V25.7975ZM44.0975 26.4365H39.2115V26.9365H44.0975V26.4365ZM39.4615 26.6865V25.1955H38.9615V26.6865H39.4615ZM39.4615 25.1955C39.4615 24.7473 39.5844 24.4565 39.7819 24.274C39.983 24.0882 40.3036 23.9755 40.7795 23.9755V23.4755C40.2333 23.4755 39.77 23.6043 39.4426 23.9068C39.1115 24.2126 38.9615 24.6567 38.9615 25.1955H39.4615ZM40.7795 23.9755H42.6205V23.4755H40.7795V23.9755ZM42.6205 23.9755C42.8624 23.9755 43.0893 23.9023 43.2579 23.7442C43.4284 23.5843 43.5145 23.3604 43.5145 23.1095H43.0145C43.0145 23.2436 42.971 23.3278 42.9158 23.3796C42.8586 23.4332 42.7635 23.4755 42.6205 23.4755V23.9755ZM43.5145 23.1095C43.5145 22.8628 43.4347 22.6374 43.266 22.4741C43.0983 22.3116 42.8695 22.2365 42.6205 22.2365V22.7365C42.7704 22.7365 42.8637 22.7804 42.9182 22.8332C42.9717 22.8851 43.0145 22.9712 43.0145 23.1095H43.5145ZM42.6205 22.2365H39.2535V22.7365H42.6205V22.2365ZM39.5035 22.4865V21.5975H39.0035V22.4865H39.5035ZM39.2535 21.8475H42.6205V21.3475H39.2535V21.8475ZM42.6205 21.8475C43.0737 21.8475 43.397 21.9835 43.6055 22.1844C43.8138 22.3851 43.9315 22.6734 43.9315 23.0255H44.4315C44.4315 22.5586 44.2727 22.1329 43.9524 21.8244C43.6325 21.5161 43.1753 21.3475 42.6205 21.3475V21.8475ZM43.9315 23.0255C43.9315 23.3855 43.8067 23.6799 43.5935 23.8847C43.3799 24.09 43.0572 24.2245 42.6275 24.2245V24.7245C43.1637 24.7245 43.618 24.5546 43.9399 24.2453C44.2622 23.9356 44.4315 23.5056 44.4315 23.0255H43.9315ZM42.6275 24.2245H40.7795V24.7245H42.6275V24.2245ZM40.7795 24.2245C40.5064 24.2245 40.2547 24.2884 40.0697 24.4549C39.8801 24.6256 39.8015 24.8668 39.8015 25.1325H40.3015C40.3015 24.9643 40.3488 24.8764 40.4042 24.8266C40.4642 24.7726 40.5765 24.7245 40.7795 24.7245V24.2245ZM39.8015 25.1325V25.7975H40.3015V25.1325H39.8015ZM40.0515 26.0475H44.0975V25.5475H40.0515V26.0475ZM43.8475 25.7975V26.6865H44.3475V25.7975H43.8475ZM45.7018 23.9985L45.7776 24.2368L46.5303 23.9973L45.7769 23.7601L45.7018 23.9985ZM49.6778 23.9985L49.6028 23.7601L48.8493 23.9973L49.602 24.2368L49.6778 23.9985ZM48.8378 26.4365H46.5418V26.9365H48.8378V26.4365ZM46.5418 26.4365C46.0958 26.4365 45.7518 26.3006 45.5215 26.0836C45.2925 25.8681 45.1538 25.5521 45.1538 25.1465H44.6538C44.6538 25.672 44.8371 26.126 45.1787 26.4476C45.5188 26.7679 45.9938 26.9365 46.5418 26.9365V26.4365ZM45.1538 25.1465C45.1538 24.66 45.4198 24.3506 45.7776 24.2368L45.626 23.7603C45.0599 23.9404 44.6538 24.4431 44.6538 25.1465H45.1538ZM45.7769 23.7601C45.6307 23.714 45.5038 23.6319 45.4123 23.506C45.3211 23.3804 45.2518 23.1929 45.2518 22.9135H44.7518C44.7518 23.2781 44.8435 23.5737 45.0078 23.7998C45.1718 24.0256 45.395 24.164 45.6268 24.237L45.7769 23.7601ZM45.2518 22.9135C45.2518 22.5491 45.3847 22.2965 45.6033 22.128C45.8311 21.9525 46.1798 21.8475 46.6398 21.8475V21.3475C46.1129 21.3475 45.6425 21.4666 45.2981 21.732C44.9445 22.0045 44.7518 22.41 44.7518 22.9135H45.2518ZM46.6398 21.8475H48.7398V21.3475H46.6398V21.8475ZM48.7398 21.8475C49.1999 21.8475 49.5506 21.9525 49.7804 22.1285C50.001 22.2974 50.1348 22.55 50.1348 22.9135H50.6348C50.6348 22.409 50.4397 22.0036 50.0845 21.7316C49.7385 21.4666 49.2668 21.3475 48.7398 21.3475V21.8475ZM50.1348 22.9135C50.1348 23.1917 50.0644 23.3788 49.9718 23.5047C49.8786 23.6312 49.7497 23.7138 49.6028 23.7601L49.7529 24.237C49.984 24.1642 50.2085 24.0264 50.3744 23.8011C50.5407 23.5752 50.6348 23.2793 50.6348 22.9135H50.1348ZM49.602 24.2368C49.9599 24.3506 50.2258 24.66 50.2258 25.1465H50.7258C50.7258 24.4431 50.3198 23.9404 49.7536 23.7603L49.602 24.2368ZM50.2258 25.1465C50.2258 25.5521 50.0871 25.8681 49.8582 26.0836C49.6278 26.3006 49.2838 26.4365 48.8378 26.4365V26.9365C49.3858 26.9365 49.8608 26.7679 50.201 26.4476C50.5425 26.126 50.7258 25.672 50.7258 25.1465H50.2258ZM48.8028 24.2245H46.5768V24.7245H48.8028V24.2245ZM46.5768 24.2245C46.2921 24.2245 46.0324 24.2924 45.8403 24.4553C45.642 24.6235 45.5498 24.8635 45.5498 25.1325H46.0498C46.0498 24.9815 46.0977 24.8926 46.1636 24.8367C46.2357 24.7756 46.3646 24.7245 46.5768 24.7245V24.2245ZM45.5498 25.1325C45.5498 25.4418 45.6959 25.6847 45.9324 25.8396C46.1572 25.9867 46.4507 26.0475 46.7588 26.0475V25.5475C46.5069 25.5475 46.321 25.4963 46.2063 25.4212C46.1033 25.3538 46.0498 25.2643 46.0498 25.1325H45.5498ZM46.7588 26.0475H48.6208V25.5475H46.7588V26.0475ZM48.6208 26.0475C48.9289 26.0475 49.2225 25.9867 49.4473 25.8396C49.6838 25.6847 49.8298 25.4418 49.8298 25.1325H49.3298C49.3298 25.2643 49.2764 25.3538 49.1734 25.4212C49.0587 25.4963 48.8727 25.5475 48.6208 25.5475V26.0475ZM49.8298 25.1325C49.8298 24.8635 49.7377 24.6235 49.5394 24.4553C49.3472 24.2924 49.0876 24.2245 48.8028 24.2245V24.7245C49.0151 24.7245 49.144 24.7756 49.216 24.8367C49.282 24.8926 49.3298 24.9815 49.3298 25.1325H49.8298ZM48.5718 22.2295H46.8078V22.7295H48.5718V22.2295ZM46.8078 22.2295C46.5045 22.2295 46.2172 22.2695 46.0004 22.4079C45.7602 22.5613 45.6478 22.8069 45.6478 23.1095H46.1478C46.1478 22.9431 46.1999 22.8738 46.2695 22.8294C46.3624 22.77 46.5301 22.7295 46.8078 22.7295V22.2295ZM45.6478 23.1095C45.6478 23.3743 45.7208 23.6144 45.9228 23.7774C46.1123 23.9304 46.3685 23.9755 46.6398 23.9755V23.4755C46.4071 23.4755 46.2924 23.4332 46.2368 23.3884C46.1938 23.3536 46.1478 23.2858 46.1478 23.1095H45.6478ZM46.6398 23.9755H48.7398V23.4755H46.6398V23.9755ZM48.7398 23.9755C49.0111 23.9755 49.2674 23.9304 49.4568 23.7774C49.6588 23.6144 49.7318 23.3743 49.7318 23.1095H49.2318C49.2318 23.2858 49.1858 23.3536 49.1428 23.3884C49.0873 23.4332 48.9725 23.4755 48.7398 23.4755V23.9755ZM49.7318 23.1095C49.7318 22.8069 49.6194 22.5613 49.3792 22.4079C49.1624 22.2695 48.8751 22.2295 48.5718 22.2295V22.7295C48.8495 22.7295 49.0172 22.77 49.1102 22.8294C49.1797 22.8738 49.2318 22.9431 49.2318 23.1095H49.7318Z" fill="#B3B3B3"/>
<path d="M105.497 26.8184H102.011V25.9294H105.28C105.84 25.9294 106.232 25.6984 106.232 25.2574C106.232 24.8374 105.959 24.6064 105.462 24.6064H103.215V23.8574H105.399C105.903 23.8574 106.141 23.6824 106.141 23.2414C106.141 22.7724 105.812 22.6114 105.224 22.6114H102.032V21.7294H105.399C106.386 21.7294 107.037 22.1774 107.037 23.0454C107.037 23.6894 106.715 24.0114 106.337 24.1304C106.799 24.2774 107.135 24.6834 107.135 25.2784C107.135 26.2024 106.491 26.8184 105.497 26.8184Z" fill="url(#paint15_linear_245_92232)"/>
<path d="M102.011 26.8184H101.761V27.0684H102.011V26.8184ZM102.011 25.9294V25.6794H101.761V25.9294H102.011ZM103.215 24.6064H102.965V24.8564H103.215V24.6064ZM103.215 23.8574V23.6074H102.965V23.8574H103.215ZM102.032 22.6114H101.782V22.8614H102.032V22.6114ZM102.032 21.7294V21.4794H101.782V21.7294H102.032ZM106.337 24.1304L106.262 23.8919L105.509 24.1291L106.262 24.3686L106.337 24.1304ZM105.497 26.5684H102.011V27.0684H105.497V26.5684ZM102.261 26.8184V25.9294H101.761V26.8184H102.261ZM102.011 26.1794H105.28V25.6794H102.011V26.1794ZM105.28 26.1794C105.59 26.1794 105.882 26.1163 106.106 25.9662C106.34 25.8087 106.482 25.5643 106.482 25.2574H105.982C105.982 25.3914 105.929 25.483 105.827 25.5512C105.714 25.6269 105.531 25.6794 105.28 25.6794V26.1794ZM106.482 25.2574C106.482 24.9901 106.393 24.7508 106.195 24.5835C106.004 24.4217 105.745 24.3564 105.462 24.3564V24.8564C105.676 24.8564 105.803 24.9065 105.872 24.9653C105.935 25.0184 105.982 25.1046 105.982 25.2574H106.482ZM105.462 24.3564H103.215V24.8564H105.462V24.3564ZM103.465 24.6064V23.8574H102.965V24.6064H103.465ZM103.215 24.1074H105.399V23.6074H103.215V24.1074ZM105.399 24.1074C105.671 24.1074 105.927 24.0622 106.116 23.9093C106.318 23.7463 106.391 23.5061 106.391 23.2414H105.891C105.891 23.4176 105.845 23.4855 105.802 23.5202C105.747 23.565 105.632 23.6074 105.399 23.6074V24.1074ZM106.391 23.2414C106.391 22.9386 106.279 22.6927 106.037 22.5394C105.82 22.4013 105.531 22.3614 105.224 22.3614V22.8614C105.506 22.8614 105.676 22.902 105.769 22.9615C105.839 23.006 105.891 23.0751 105.891 23.2414H106.391ZM105.224 22.3614H102.032V22.8614H105.224V22.3614ZM102.282 22.6114V21.7294H101.782V22.6114H102.282ZM102.032 21.9794H105.399V21.4794H102.032V21.9794ZM105.399 21.9794C105.859 21.9794 106.208 22.0843 106.436 22.2599C106.655 22.4284 106.787 22.6809 106.787 23.0454H107.287C107.287 22.5418 107.095 22.1363 106.741 21.8638C106.397 21.5984 105.926 21.4794 105.399 21.4794V21.9794ZM106.787 23.0454C106.787 23.3247 106.718 23.5122 106.627 23.6378C106.535 23.7637 106.409 23.8459 106.262 23.8919L106.412 24.3688C106.644 24.2959 106.867 24.1575 107.031 23.9317C107.196 23.7055 107.287 23.41 107.287 23.0454H106.787ZM106.262 24.3686C106.619 24.4825 106.885 24.7918 106.885 25.2784H107.385C107.385 24.5749 106.979 24.0723 106.413 23.8921L106.262 24.3686ZM106.885 25.2784C106.885 25.68 106.747 25.9963 106.517 26.2131C106.287 26.4311 105.943 26.5684 105.497 26.5684V27.0684C106.046 27.0684 106.521 26.8976 106.861 26.5766C107.202 26.2544 107.385 25.8007 107.385 25.2784H106.885Z" fill="#B3B3B3"/>
<path d="M131.175 74.5742H128.879C127.885 74.5742 127.241 73.9652 127.241 73.0342C127.241 72.4392 127.577 72.0332 128.039 71.8862C127.661 71.7672 127.339 71.4452 127.339 70.8012C127.339 69.9332 127.99 69.4852 128.977 69.4852H131.077C132.064 69.4852 132.722 69.9332 132.722 70.8012C132.722 71.4452 132.393 71.7672 132.015 71.8862C132.477 72.0332 132.813 72.4392 132.813 73.0342C132.813 73.9652 132.169 74.5742 131.175 74.5742ZM131.14 72.3622H128.914C128.417 72.3622 128.137 72.6002 128.137 73.0202C128.137 73.4612 128.536 73.6852 129.096 73.6852H130.958C131.518 73.6852 131.917 73.4612 131.917 73.0202C131.917 72.6002 131.637 72.3622 131.14 72.3622ZM130.909 70.3672H129.145C128.564 70.3672 128.235 70.5282 128.235 70.9972C128.235 71.4382 128.473 71.6132 128.977 71.6132H131.077C131.581 71.6132 131.819 71.4382 131.819 70.9972C131.819 70.5282 131.49 70.3672 130.909 70.3672Z" fill="url(#paint16_linear_245_92232)"/>
<path d="M128.039 71.8862L128.115 72.1245L128.868 71.885L128.114 71.6478L128.039 71.8862ZM132.015 71.8862L131.94 71.6478L131.187 71.885L131.939 72.1245L132.015 71.8862ZM131.175 74.3242H128.879V74.8242H131.175V74.3242ZM128.879 74.3242C128.433 74.3242 128.089 74.1883 127.859 73.9713C127.63 73.7558 127.491 73.4398 127.491 73.0342H126.991C126.991 73.5597 127.175 74.0137 127.516 74.3353C127.856 74.6556 128.331 74.8242 128.879 74.8242V74.3242ZM127.491 73.0342C127.491 72.5477 127.757 72.2383 128.115 72.1245L127.963 71.648C127.397 71.8281 126.991 72.3307 126.991 73.0342H127.491ZM128.114 71.6478C127.968 71.6017 127.841 71.5196 127.75 71.3937C127.659 71.2681 127.589 71.0806 127.589 70.8012H127.089C127.089 71.1658 127.181 71.4614 127.345 71.6875C127.509 71.9133 127.732 72.0517 127.964 72.1247L128.114 71.6478ZM127.589 70.8012C127.589 70.4368 127.722 70.1842 127.941 70.0157C128.169 69.8402 128.517 69.7352 128.977 69.7352V69.2352C128.45 69.2352 127.98 69.3543 127.635 69.6197C127.282 69.8922 127.089 70.2977 127.089 70.8012H127.589ZM128.977 69.7352H131.077V69.2352H128.977V69.7352ZM131.077 69.7352C131.537 69.7352 131.888 69.8402 132.118 70.0162C132.338 70.1851 132.472 70.4377 132.472 70.8012H132.972C132.972 70.2967 132.777 69.8913 132.422 69.6192C132.076 69.3543 131.604 69.2352 131.077 69.2352V69.7352ZM132.472 70.8012C132.472 71.0794 132.402 71.2665 132.309 71.3924C132.216 71.5189 132.087 71.6015 131.94 71.6478L132.09 72.1247C132.321 72.0519 132.546 71.9141 132.712 71.6888C132.878 71.4629 132.972 71.167 132.972 70.8012H132.472ZM131.939 72.1245C132.297 72.2383 132.563 72.5477 132.563 73.0342H133.063C133.063 72.3307 132.657 71.8281 132.091 71.648L131.939 72.1245ZM132.563 73.0342C132.563 73.4398 132.425 73.7558 132.196 73.9713C131.965 74.1883 131.621 74.3242 131.175 74.3242V74.8242C131.723 74.8242 132.198 74.6556 132.538 74.3353C132.88 74.0137 133.063 73.5597 133.063 73.0342H132.563ZM131.14 72.1122H128.914V72.6122H131.14V72.1122ZM128.914 72.1122C128.629 72.1122 128.37 72.1801 128.178 72.343C127.979 72.5111 127.887 72.7512 127.887 73.0202H128.387C128.387 72.8692 128.435 72.7803 128.501 72.7244C128.573 72.6633 128.702 72.6122 128.914 72.6122V72.1122ZM127.887 73.0202C127.887 73.3295 128.033 73.5724 128.27 73.7273C128.495 73.8744 128.788 73.9352 129.096 73.9352V73.4352C128.844 73.4352 128.658 73.384 128.544 73.3089C128.441 73.2415 128.387 73.1519 128.387 73.0202H127.887ZM129.096 73.9352H130.958V73.4352H129.096V73.9352ZM130.958 73.9352C131.266 73.9352 131.56 73.8744 131.785 73.7273C132.021 73.5724 132.167 73.3295 132.167 73.0202H131.667C131.667 73.1519 131.614 73.2415 131.511 73.3089C131.396 73.384 131.21 73.4352 130.958 73.4352V73.9352ZM132.167 73.0202C132.167 72.7512 132.075 72.5111 131.877 72.343C131.685 72.1801 131.425 72.1122 131.14 72.1122V72.6122C131.352 72.6122 131.481 72.6633 131.553 72.7244C131.619 72.7803 131.667 72.8692 131.667 73.0202H132.167ZM130.909 70.1172H129.145V70.6172H130.909V70.1172ZM129.145 70.1172C128.842 70.1172 128.555 70.1572 128.338 70.2956C128.098 70.449 127.985 70.6946 127.985 70.9972H128.485C128.485 70.8308 128.537 70.7615 128.607 70.7171C128.7 70.6577 128.868 70.6172 129.145 70.6172V70.1172ZM127.985 70.9972C127.985 71.262 128.058 71.5021 128.26 71.6651C128.45 71.8181 128.706 71.8632 128.977 71.8632V71.3632C128.745 71.3632 128.63 71.3209 128.574 71.2761C128.531 71.2413 128.485 71.1735 128.485 70.9972H127.985ZM128.977 71.8632H131.077V71.3632H128.977V71.8632ZM131.077 71.8632C131.349 71.8632 131.605 71.8181 131.794 71.6651C131.996 71.5021 132.069 71.262 132.069 70.9972H131.569C131.569 71.1735 131.523 71.2413 131.48 71.2761C131.425 71.3209 131.31 71.3632 131.077 71.3632V71.8632ZM132.069 70.9972C132.069 70.6946 131.957 70.449 131.717 70.2956C131.5 70.1572 131.213 70.1172 130.909 70.1172V70.6172C131.187 70.6172 131.355 70.6577 131.448 70.7171C131.517 70.7615 131.569 70.8308 131.569 70.9972H132.069Z" fill="#B3B3B3"/>
<defs>
<filter id="filter0_d_245_92232" x="0" y="0" width="146.861" height="146.86" filterUnits="userSpaceOnUse" color-interpolation-filters="sRGB">
<feFlood flood-opacity="0" result="BackgroundImageFix"/>
<feColorMatrix in="SourceAlpha" type="matrix" values="0 0 0 0 0 0 0 0 0 0 0 0 0 0 0 0 0 0 127 0" result="hardAlpha"/>
<feOffset dy="1"/>
<feGaussianBlur stdDeviation="0.5"/>
<feComposite in2="hardAlpha" operator="out"/>
<feColorMatrix type="matrix" values="0 0 0 0 1 0 0 0 0 1 0 0 0 0 1 0 0 0 0.15 0"/>
<feBlend mode="normal" in2="BackgroundImageFix" result="effect1_dropShadow_245_92232"/>
<feBlend mode="normal" in="SourceGraphic" in2="effect1_dropShadow_245_92232" result="shape"/>
</filter>
<filter id="filter1_d_245_92232" x="0" y="0" width="146.861" height="146.86" filterUnits="userSpaceOnUse" color-interpolation-filters="sRGB">
<feFlood flood-opacity="0" result="BackgroundImageFix"/>
<feColorMatrix in="SourceAlpha" type="matrix" values="0 0 0 0 0 0 0 0 0 0 0 0 0 0 0 0 0 0 127 0" result="hardAlpha"/>
<feOffset dy="1"/>
<feGaussianBlur stdDeviation="0.5"/>
<feComposite in2="hardAlpha" operator="out"/>
<feColorMatrix type="matrix" values="0 0 0 0 1 0 0 0 0 1 0 0 0 0 1 0 0 0 0.1 0"/>
<feBlend mode="normal" in2="BackgroundImageFix" result="effect1_dropShadow_245_92232"/>
<feBlend mode="normal" in="SourceGraphic" in2="effect1_dropShadow_245_92232" result="shape"/>
</filter>
<filter id="filter2_i_245_92232" x="27.0049" y="60.9482" width="92.6416" height="26.1924" filterUnits="userSpaceOnUse" color-interpolation-filters="sRGB">
<feFlood flood-opacity="0" result="BackgroundImageFix"/>
<feBlend mode="normal" in="SourceGraphic" in2="BackgroundImageFix" result="shape"/>
<feColorMatrix in="SourceAlpha" type="matrix" values="0 0 0 0 0 0 0 0 0 0 0 0 0 0 0 0 0 0 127 0" result="hardAlpha"/>
<feOffset dy="1"/>
<feGaussianBlur stdDeviation="0.5"/>
<feComposite in2="hardAlpha" operator="arithmetic" k2="-1" k3="1"/>
<feColorMatrix type="matrix" values="0 0 0 0 0 0 0 0 0 0 0 0 0 0 0 0 0 0 0.25 0"/>
<feBlend mode="normal" in2="shape" result="effect1_innerShadow_245_92232"/>
</filter>
<linearGradient id="paint0_linear_245_92232" x1="44.5348" y1="5.74893" x2="104.548" y2="141.335" gradientUnits="userSpaceOnUse">
<stop stop-color="#E0E0E0"/>
<stop offset="1" stop-color="#BBBBBB"/>
</linearGradient>
<linearGradient id="paint1_linear_245_92232" x1="45.4392" y1="2.71667" x2="118.247" y2="167.043" gradientUnits="userSpaceOnUse">
<stop stop-color="white"/>
<stop offset="1" stop-color="#8B8D8F"/>
</linearGradient>
<linearGradient id="paint2_linear_245_92232" x1="73.4305" y1="2.7168" x2="73.4305" y2="142.145" gradientUnits="userSpaceOnUse">
<stop stop-color="#BDBDBD"/>
<stop offset="1" stop-color="white" stop-opacity="0"/>
</linearGradient>
<radialGradient id="paint3_angular_245_92232" cx="0" cy="0" r="1" gradientUnits="userSpaceOnUse" gradientTransform="translate(73.3253 71.5123) rotate(-128.806) scale(66.0891)">
<stop stop-color="#007AFF"/>
<stop offset="1" stop-color="#21C004" stop-opacity="0"/>
</radialGradient>
<linearGradient id="paint4_linear_245_92232" x1="73" y1="10" x2="73" y2="134" gradientUnits="userSpaceOnUse">
<stop stop-color="#CCCCCC"/>
<stop offset="0.494" stop-color="#F7F7F7"/>
<stop offset="0.999" stop-color="#CECECE"/>
</linearGradient>
<linearGradient id="paint5_linear_245_92232" x1="69.1818" y1="7.99999" x2="79.6962" y2="10.4171" gradientUnits="userSpaceOnUse">
<stop stop-color="#ECC271"/>
<stop offset="1" stop-color="#7F642E"/>
</linearGradient>
<linearGradient id="paint6_linear_245_92232" x1="120.363" y1="89.1841" x2="127.848" y2="96.933" gradientUnits="userSpaceOnUse">
<stop stop-color="#ECC271"/>
<stop offset="1" stop-color="#7F642E"/>
</linearGradient>
<linearGradient id="paint7_linear_245_92232" x1="69.2841" y1="119" x2="78.7259" y2="120.519" gradientUnits="userSpaceOnUse">
<stop stop-color="#ECC271"/>
<stop offset="1" stop-color="#7F642E"/>
</linearGradient>
<linearGradient id="paint8_linear_245_92232" x1="21.5279" y1="94.2474" x2="32.9689" y2="90.1187" gradientUnits="userSpaceOnUse">
<stop stop-color="#ECC271"/>
<stop offset="1" stop-color="#7F642E"/>
</linearGradient>
<linearGradient id="paint9_linear_245_92232" x1="31.1642" y1="37.2253" x2="39.0632" y2="45.3006" gradientUnits="userSpaceOnUse">
<stop stop-color="#ECC271"/>
<stop offset="1" stop-color="#7F642E"/>
</linearGradient>
<linearGradient id="paint10_linear_245_92232" x1="114.983" y1="40.4051" x2="122.392" y2="38.0812" gradientUnits="userSpaceOnUse">
<stop stop-color="#ECC271"/>
<stop offset="1" stop-color="#7F642E"/>
</linearGradient>
<linearGradient id="paint11_linear_245_92232" x1="98.4931" y1="115.858" x2="106.293" y2="117.139" gradientUnits="userSpaceOnUse">
<stop stop-color="#ECC271"/>
<stop offset="1" stop-color="#7F642E"/>
</linearGradient>
<linearGradient id="paint12_linear_245_92232" x1="42.3168" y1="115.858" x2="50.084" y2="117.232" gradientUnits="userSpaceOnUse">
<stop stop-color="#ECC271"/>
<stop offset="1" stop-color="#7F642E"/>
</linearGradient>
<linearGradient id="paint13_linear_245_92232" x1="15.1356" y1="67.5742" x2="22.9355" y2="68.855" gradientUnits="userSpaceOnUse">
<stop stop-color="#ECC271"/>
<stop offset="1" stop-color="#7F642E"/>
</linearGradient>
<linearGradient id="paint14_linear_245_92232" x1="41.3168" y1="19.6865" x2="49.084" y2="21.06" gradientUnits="userSpaceOnUse">
<stop stop-color="#ECC271"/>
<stop offset="1" stop-color="#7F642E"/>
</linearGradient>
<linearGradient id="paint15_linear_245_92232" x1="101.098" y1="19.8184" x2="108.898" y2="21.0991" gradientUnits="userSpaceOnUse">
<stop stop-color="#ECC271"/>
<stop offset="1" stop-color="#7F642E"/>
</linearGradient>
<linearGradient id="paint16_linear_245_92232" x1="126.542" y1="67.5742" x2="134.342" y2="68.855" gradientUnits="userSpaceOnUse">
<stop stop-color="#ECC271"/>
<stop offset="1" stop-color="#7F642E"/>
</linearGradient>
<clipPath id="clip0_245_92232">
<rect width="92.6415" height="25.192" fill="white" transform="translate(27.0049 60.9482)"/>
</clipPath>
</defs>
</svg>
