<svg width="353" height="336" viewBox="0 0 353 336" fill="none" xmlns="http://www.w3.org/2000/svg">
<path d="M0 0L176.5 47.5752L353 0V291.398L176.5 336L0 291.398V0Z" fill="url(#paint0_linear_245_107082)"/>
<path d="M353 291.398V0C353 0 244.588 28.9959 177 47.5752V336L353 291.398Z" fill="url(#paint1_linear_245_107082)"/>
<path d="M27 41L177 78.3805L327 41V269.956L177 305L27 269.956V41Z" fill="url(#paint2_linear_245_107082)"/>
<path d="M327 269.956V41L177 78.3805V305L327 269.956Z" fill="url(#paint3_linear_245_107082)"/>
<defs>
<linearGradient id="paint0_linear_245_107082" x1="106.087" y1="13.3345" x2="240.655" y2="332.742" gradientUnits="userSpaceOnUse">
<stop stop-color="#E8E8E8"/>
<stop offset="1" stop-color="#BBBBBB"/>
</linearGradient>
<linearGradient id="paint1_linear_245_107082" x1="242.538" y1="-5.9923" x2="432.256" y2="237.272" gradientUnits="userSpaceOnUse">
<stop stop-color="#D2D2D2"/>
<stop offset="1" stop-color="#A3A3A3"/>
</linearGradient>
<linearGradient id="paint2_linear_245_107082" x1="138.712" y1="36.2918" x2="236.569" y2="308.503" gradientUnits="userSpaceOnUse">
<stop stop-color="#F4F4F4"/>
<stop offset="1" stop-color="#CBCBCB"/>
</linearGradient>
<linearGradient id="paint3_linear_245_107082" x1="222.079" y1="51.4771" x2="365.343" y2="235.381" gradientUnits="userSpaceOnUse">
<stop stop-color="#E0E0E0"/>
<stop offset="1" stop-color="#BBBBBB"/>
</linearGradient>
</defs>
</svg>
