<svg width="19" height="21" viewBox="0 0 19 21" fill="none" xmlns="http://www.w3.org/2000/svg">
<path d="M7.73317 10.5L16.0996 21C16.0996 21 8.91584 15.165 4.84582 10.5L7.73317 10.5Z" fill="#908F8F"/>
<path d="M7.73317 10.5L16.0996 1.90735e-06C16.0996 1.90735e-06 8.91584 5.83503 4.84582 10.5L7.73317 10.5Z" fill="#908F8F"/>
<path d="M10.157 10.5L18.5234 21C18.5234 21 11.3397 15.165 7.26964 10.5L10.157 10.5Z" fill="#A8A8A8"/>
<path d="M10.157 10.5L18.5234 1.90735e-06C18.5234 1.90735e-06 11.3397 5.83503 7.26964 10.5L10.157 10.5Z" fill="#A8A8A8"/>
<path d="M2.88747 10.5L11.2539 21C11.2539 21 4.07014 15.165 0.000113487 10.5L2.88747 10.5Z" fill="#828282"/>
<path d="M2.88747 10.5L11.2539 1.90735e-06C11.2539 1.90735e-06 4.07014 5.83503 0.000113487 10.5L2.88747 10.5Z" fill="#828282"/>
<path d="M5.31032 10.5L13.6768 21C13.6768 21 6.49299 15.165 2.42297 10.5L5.31032 10.5Z" fill="#838383"/>
<path d="M5.31032 10.5L13.6768 1.90735e-06C13.6768 1.90735e-06 6.49299 5.83503 2.42297 10.5L5.31032 10.5Z" fill="#838383"/>
</svg>
