<svg width="150" height="150" viewBox="0 0 364 355" fill="none" xmlns="http://www.w3.org/2000/svg">
<path fill-rule="evenodd" clip-rule="evenodd" d="M0 177.139C0 136.768 13.5052 99.5511 36.2443 69.7601L57.8124 59.3937L67.4925 38.0043C97.6524 14.2038 135.737 0 177.139 0H186.861C225.517 0 261.281 12.382 290.403 33.3963L301.908 58.3517L326.085 67.6054C349.832 97.7475 364 135.789 364 177.139C364 218.782 349.63 257.069 325.578 287.312L298.696 299.052L289.661 321.414C260.674 342.105 225.189 354.278 186.861 354.278H177.139C139.675 354.278 104.927 342.648 76.3098 322.801L66.3744 303.219L43.4985 293.412C16.4058 262.298 0 221.635 0 177.139Z" fill="url(#paint0_linear_1_43)"/>
<rect x="17.6314" y="17.1713" width="328.741" height="319.934" rx="159.967" fill="url(#paint1_linear_1_43)" stroke="url(#paint2_linear_1_43)"/>
<path d="M179.526 331.396L179.614 316.349M21.3694 174.729L36.8289 174.816M325.038 176.425L340.497 176.511M181.268 35.8382L181.356 20.7916M67.1104 284.943L78.1046 274.364M69.097 65.3164L79.9658 76.017M282.591 275.506L293.46 286.207M283.068 77.151L294.062 66.5725M42.0442 252.562L55.4768 245.114M102.366 40.9196L110.019 53.9935M252.692 297.728L260.345 310.802M305.899 106.252L319.332 98.803M26.4428 214.97L41.3985 211.159M140.99 25.7349L144.905 40.2911M217.903 311.661L221.818 326.217M320.215 140.112L335.17 136.301M138.276 325.75L142.363 311.239M27.17 134.581L42.0797 138.559M320.04 212.715L334.95 216.693M218.554 40.7024L222.641 26.1909M99.9334 309.906L107.74 296.918M43.4489 97.2628L56.7929 104.861M305.563 246.51L318.907 254.108M253.276 54.7934L261.083 41.8058M117.207 318.48L123.338 304.667M34.6392 114.076L48.8316 120.042M313.417 231.276L327.61 237.243M237.624 47.1481L243.755 33.3348M32.428 232.922L46.7983 227.373M122.546 31.5605L128.247 45.5469M234.524 306.295L240.225 320.281M314.701 123.934L329.072 118.386M22.377 193.577L37.7331 191.837M162.971 21.7779L164.758 36.7239M198.076 315.359L199.863 330.305M324.014 159.409L339.37 157.67M23.1313 153.041L38.4267 155.229M204.619 22.512L202.371 37.3989M160.458 314.933L158.21 329.82M323.576 196.022L338.872 198.21M81.5158 297.577L91.1105 285.778M56.1167 79.3373L68.2388 88.6758M294.23 262.77L306.352 272.109M269.983 65.8236L279.577 54.0253M52.5992 268.394L65.0044 259.415M86.1001 51.1929L95.3259 63.2668M267.321 288.358L276.546 300.432M296.272 92.0139L308.678 83.0345" stroke="url(#paint3_linear_1_43)"/>
<path d="M169.402 330.996L170.471 315.986M21.7791 164.877L37.2018 165.918M324.725 185.325L340.148 186.366M190.411 36.1421L191.481 21.1313M60.2418 277.694L71.9036 267.816M76.5443 58.6327L86.6936 69.983M275.904 281.585L286.053 292.935M289.313 83.6593L300.974 73.7811M37.3374 243.83L51.2287 237.226M111.338 36.34L118.123 49.8602M244.616 301.915L251.401 315.436M310.201 114.111L324.092 107.508M24.2185 205.35L39.3926 202.471M150.873 23.5714L153.832 38.3401M208.988 313.671L211.947 328.44M322.279 148.788L337.453 145.908M128.603 322.814L133.628 308.585M30.1857 125.169L44.806 130.059M317.371 221.234L331.992 226.124M227.305 43.2995L232.33 29.0696M91.3711 304.634L100.009 292.155M48.8651 88.9305L61.6867 97.3374M300.719 254.066L313.541 262.473M261.038 59.5067L269.676 47.0275M108.051 314.258L115.07 300.851M38.9769 105.165L52.7516 111.996M309.552 239.348L323.326 246.18M245.917 50.91L252.935 37.5032M29.0212 223.635L43.7243 218.986M132.086 28.246L136.864 42.5564M225.926 309.343L230.703 323.653M317.832 132.302L332.535 127.652M21.5558 183.749L36.9943 182.961M173.067 20.9801L173.877 36.0063M188.96 316.138L189.769 331.164M324.813 168.281L340.252 167.493M24.9516 143.341L40.0735 146.469M214.584 24.2851L211.37 39.0031M151.446 313.389L148.232 328.107M321.989 204.792L337.111 207.921M73.7945 291.192L84.1391 280.01M62.676 71.8236L74.1649 81.8919M288.349 269.594L299.838 279.662M276.992 71.5465L287.337 60.3646M46.8389 260.282L59.8046 252.087M94.4341 45.5879L102.854 58.2072M259.826 293.468L268.246 306.087M301.521 99.3078L314.487 91.1127" stroke="url(#paint4_linear_1_43)"/>
<g filter="url(#filter0_i_1_43)">
<ellipse cx="179.434" cy="175.229" rx="137.38" ry="135.978" fill="url(#paint5_linear_1_43)"/>
</g>
<ellipse cx="179.5" cy="176.5" rx="137.5" ry="133.5" fill="url(#paint6_radial_1_43)" fill-opacity="0.5"/>
<ellipse opacity="0.5" cx="137.5" cy="133.5" rx="137.5" ry="133.5" transform="matrix(1 0 0 -1 42 308)" fill="url(#paint7_radial_1_43)"/>
<path d="M167.222 286.45C167.222 285.83 167.142 285.39 166.982 285.13C166.822 284.87 166.432 284.74 165.812 284.74H161.402C161.522 284.16 161.702 283.73 161.942 283.45C162.202 283.15 162.622 283 163.202 283H166.772C167.812 283 168.542 283.22 168.962 283.66C169.402 284.08 169.622 284.81 169.622 285.85V290.23C169.622 291.05 169.532 291.67 169.352 292.09C169.172 292.51 168.792 292.79 168.212 292.93V292.96C169.312 293.24 169.862 294.15 169.862 295.69V301.15C169.862 302.19 169.642 302.93 169.202 303.37C168.782 303.79 168.052 304 167.012 304H163.442C162.862 304 162.442 303.86 162.182 303.58C161.942 303.28 161.762 302.84 161.642 302.26H166.052C166.672 302.26 167.062 302.13 167.222 301.87C167.382 301.61 167.462 301.17 167.462 300.55V295.69C167.462 295.07 167.332 294.63 167.072 294.37C166.812 294.11 166.372 293.98 165.752 293.98H163.232V293.05C163.232 292.73 163.282 292.52 163.382 292.42C163.502 292.3 163.722 292.24 164.042 292.24H165.932C166.472 292.22 166.822 292.08 166.982 291.82C167.142 291.54 167.222 291.11 167.222 290.53V286.45ZM176.18 300.55C176.18 301.17 176.26 301.61 176.42 301.87C176.58 302.13 176.97 302.26 177.59 302.26H179.24C179.86 302.26 180.25 302.13 180.41 301.87C180.57 301.61 180.65 301.17 180.65 300.55V286.45C180.65 285.83 180.57 285.39 180.41 285.13C180.25 284.87 179.86 284.74 179.24 284.74H177.59C176.97 284.74 176.58 284.87 176.42 285.13C176.26 285.39 176.18 285.83 176.18 286.45V300.55ZM173.93 285.85C173.93 284.81 174.14 284.08 174.56 283.66C175 283.22 175.74 283 176.78 283H180.05C181.09 283 181.82 283.22 182.24 283.66C182.68 284.08 182.9 284.81 182.9 285.85V301.15C182.9 302.19 182.68 302.93 182.24 303.37C181.82 303.79 181.09 304 180.05 304H176.78C175.74 304 175 303.79 174.56 303.37C174.14 302.93 173.93 302.19 173.93 301.15V285.85ZM196.894 303.19C196.894 303.51 196.834 303.73 196.714 303.85C196.614 303.95 196.404 304 196.084 304H194.494V292.21C194.494 291.59 194.414 291.15 194.254 290.89C194.094 290.63 193.704 290.5 193.084 290.5H189.394V303.19C189.394 303.51 189.334 303.73 189.214 303.85C189.114 303.95 188.904 304 188.584 304H186.994V283.81C186.994 283.49 187.044 283.28 187.144 283.18C187.264 283.06 187.484 283 187.804 283H189.394V290.5C189.514 289.92 189.694 289.49 189.934 289.21C190.194 288.91 190.614 288.76 191.194 288.76H194.044C195.084 288.76 195.814 288.98 196.234 289.42C196.674 289.84 196.894 290.57 196.894 291.61V303.19Z" fill="#007AFF"/>
<path d="M173.268 59.13C173.268 59.71 173.218 60.19 173.118 60.57C173.038 60.93 172.888 61.22 172.668 61.44C172.448 61.64 172.158 61.78 171.798 61.86C171.438 61.94 170.978 61.98 170.418 61.98H168.678C168.378 61.98 168.128 62.01 167.928 62.07C167.748 62.11 167.608 62.19 167.508 62.31C167.408 62.43 167.338 62.6 167.298 62.82C167.278 63.04 167.268 63.33 167.268 63.69V68.55C167.268 69.17 167.348 69.61 167.508 69.87C167.668 70.13 168.058 70.26 168.678 70.26H173.268V71.19C173.268 71.51 173.208 71.73 173.088 71.85C172.988 71.95 172.778 72 172.458 72H167.718C166.678 72 165.938 71.79 165.498 71.37C165.078 70.93 164.868 70.19 164.868 69.15V63.09C164.868 62.51 164.908 62.04 164.988 61.68C165.088 61.3 165.248 61.01 165.468 60.81C165.688 60.59 165.978 60.44 166.338 60.36C166.698 60.28 167.158 60.24 167.718 60.24H169.458C169.758 60.24 169.998 60.22 170.178 60.18C170.378 60.12 170.528 60.03 170.628 59.91C170.728 59.79 170.788 59.62 170.808 59.4C170.848 59.18 170.868 58.89 170.868 58.53V54.45C170.868 53.83 170.788 53.39 170.628 53.13C170.468 52.87 170.078 52.74 169.458 52.74H165.048C165.168 52.16 165.348 51.73 165.588 51.45C165.848 51.15 166.268 51 166.848 51H170.418C171.458 51 172.188 51.22 172.608 51.66C173.048 52.08 173.268 52.81 173.268 53.85V59.13ZM185.878 71.19C185.878 71.51 185.818 71.73 185.698 71.85C185.598 71.95 185.388 72 185.068 72H183.478V61.98H179.428C178.868 61.98 178.408 61.94 178.048 61.86C177.688 61.78 177.398 61.64 177.178 61.44C176.958 61.22 176.798 60.93 176.698 60.57C176.618 60.19 176.578 59.71 176.578 59.13V51.81C176.578 51.49 176.628 51.28 176.728 51.18C176.848 51.06 177.068 51 177.388 51H178.978V58.53C178.978 58.89 178.988 59.18 179.008 59.4C179.048 59.62 179.118 59.79 179.218 59.91C179.318 60.03 179.458 60.12 179.638 60.18C179.838 60.22 180.088 60.24 180.388 60.24H183.478V51.81C183.478 51.49 183.528 51.28 183.628 51.18C183.748 51.06 183.968 51 184.288 51H185.878V71.19ZM199.909 71.19C199.909 71.51 199.849 71.73 199.729 71.85C199.629 71.95 199.419 72 199.099 72H197.509V60.21C197.509 59.59 197.429 59.15 197.269 58.89C197.109 58.63 196.719 58.5 196.099 58.5H192.409V71.19C192.409 71.51 192.349 71.73 192.229 71.85C192.129 71.95 191.919 72 191.599 72H190.009V51.81C190.009 51.49 190.059 51.28 190.159 51.18C190.279 51.06 190.499 51 190.819 51H192.409V58.5C192.529 57.92 192.709 57.49 192.949 57.21C193.209 56.91 193.629 56.76 194.209 56.76H197.059C198.099 56.76 198.829 56.98 199.249 57.42C199.689 57.84 199.909 58.57 199.909 59.61V71.19Z" fill="#F20000"/>
<g filter="url(#filter1_i_1_43)">
<path d="M80.4813 180.435H73.3215C72.6326 180.435 72.0667 180.361 71.6239 180.214C71.181 180.066 70.8365 179.795 70.5905 179.402C70.3445 179.008 70.1722 178.442 70.0738 177.704C70.0246 176.966 70 176.031 70 174.899H80.4813V167.739C80.4813 167.05 80.5551 166.485 80.7027 166.042C80.8503 165.599 81.121 165.254 81.5146 165.008C81.9083 164.762 82.4742 164.615 83.2123 164.565C83.9504 164.467 84.8853 164.418 86.0171 164.418V174.899H93.2507C94.6285 174.899 95.5142 175.268 95.9079 176.006C96.3508 176.695 96.5722 178.171 96.5722 180.435H86.0171V187.669C86.0171 188.357 85.9433 188.923 85.7957 189.366C85.6481 189.809 85.3528 190.154 84.91 190.4C84.5163 190.646 83.9504 190.818 83.2123 190.916C82.5234 190.965 81.613 190.99 80.4813 190.99V180.435Z" fill="url(#paint8_linear_1_43)"/>
</g>
<path d="M251.889 196.714V190.854H255.347C255.916 190.854 256.366 190.973 256.65 191.235C256.935 191.474 257.1 191.855 257.1 192.331C257.1 192.569 257.053 192.784 256.958 192.95C256.863 193.117 256.745 193.284 256.555 193.403C256.863 193.593 257.1 193.808 257.266 194.07C257.432 194.332 257.503 194.641 257.503 194.975C257.503 195.523 257.337 195.951 256.982 196.261C256.627 196.571 256.153 196.737 255.537 196.737H251.889V196.714ZM252.623 193.165H255.418C255.726 193.165 255.963 193.093 256.129 192.95C256.295 192.807 256.366 192.617 256.366 192.355C256.366 192.069 256.295 191.878 256.129 191.736C255.963 191.593 255.726 191.521 255.418 191.521H252.623V193.165ZM252.623 196.047H255.679C256.011 196.047 256.271 195.951 256.461 195.761C256.65 195.57 256.745 195.284 256.745 194.951C256.745 194.618 256.65 194.356 256.461 194.141C256.271 193.927 256.011 193.832 255.679 193.832H252.623V196.047Z" fill="url(#paint9_linear_1_43)"/>
<path d="M258.001 196.714L260.299 192.164H260.749L263.071 196.714H262.313L261.72 195.57H259.328L258.735 196.714H258.001ZM259.636 194.975H261.412L260.536 193.236L259.636 194.975Z" fill="url(#paint10_linear_1_43)"/>
<path d="M263.732 196.713V192.188H264.443V194.212L266.836 192.188H267.76L265.865 193.807L268.044 196.737H267.262L265.391 194.236L264.467 195.022V196.737H263.732V196.713Z" fill="url(#paint11_linear_1_43)"/>
<path d="M268.874 196.713V192.188H269.584V194.212L271.977 192.188H272.901L271.006 193.807L273.185 196.737H272.403L270.532 194.236L269.608 195.022V196.737H268.874V196.713Z" fill="url(#paint12_linear_1_43)"/>
<path d="M276.193 196.856C275.388 196.856 274.724 196.618 274.203 196.166C273.682 195.713 273.421 195.142 273.421 194.451C273.421 193.76 273.682 193.189 274.203 192.736C274.724 192.283 275.388 192.069 276.193 192.069C276.998 192.069 277.662 192.283 278.183 192.736C278.704 193.189 278.965 193.76 278.965 194.451C278.965 195.142 278.704 195.713 278.183 196.166C277.662 196.642 276.998 196.856 276.193 196.856ZM276.193 196.19C276.785 196.19 277.283 196.023 277.662 195.689C278.041 195.356 278.23 194.951 278.23 194.427C278.23 193.927 278.041 193.498 277.662 193.189C277.283 192.855 276.785 192.688 276.193 192.688C275.601 192.688 275.103 192.855 274.724 193.189C274.345 193.522 274.156 193.927 274.156 194.451C274.156 194.975 274.345 195.38 274.724 195.713C275.103 196.047 275.577 196.19 276.193 196.19Z" fill="url(#paint13_linear_1_43)"/>
<path d="M280.104 192.188H280.814V195.094C280.814 195.522 280.909 195.832 281.122 195.975C281.335 196.118 281.738 196.213 282.33 196.213C282.946 196.213 283.349 196.142 283.562 195.975C283.775 195.832 283.87 195.522 283.87 195.094V192.188H284.581V195.284C284.581 195.832 284.415 196.237 284.06 196.499C283.704 196.737 283.136 196.88 282.354 196.88C281.572 196.88 281.004 196.761 280.648 196.523C280.293 196.285 280.127 195.88 280.127 195.308V192.188H280.104Z" fill="url(#paint14_linear_1_43)"/>
<path d="M286.854 194.213C286.854 194.213 286.854 195.856 286.854 196.738H286.143V192.212H289.247C289.697 192.212 290.076 192.331 290.337 192.546C290.597 192.76 290.739 193.07 290.739 193.475C290.739 193.808 290.644 194.07 290.431 194.308C290.218 194.546 289.957 194.689 289.626 194.737L290.881 196.738H290.123L288.844 194.761L288.37 194.094H289.27C289.507 194.094 289.697 194.046 289.839 193.927C289.981 193.808 290.029 193.665 290.029 193.475C290.029 193.284 289.957 193.117 289.839 193.022C289.721 192.927 289.531 192.855 289.27 192.855H286.878V194.165C286.878 194.403 286.878 194.165 286.878 194.165" fill="url(#paint15_linear_1_43)"/>
<path d="M290.929 196.714L293.227 192.164H293.677L295.998 196.714H295.24L294.648 195.57H292.255L291.663 196.714H290.929ZM292.563 194.975H294.34L293.464 193.236L292.563 194.975Z" fill="url(#paint16_linear_1_43)"/>
<g filter="url(#filter2_i_1_43)">
<path d="M279.621 159.155C279.248 159.513 275.347 164.523 273.443 166.984C272.472 164.561 270.587 159.655 270.401 159.298C270.168 158.85 269.713 158.932 269.596 159.379C269.48 159.826 269.13 160.497 268.664 161.168C268.198 161.839 265.4 163.74 262.952 165.418C260.504 167.096 258.989 167.543 258.639 167.878C258.29 168.214 258.756 168.773 259.455 169.332C260.155 169.891 261.087 171.793 261.786 172.911C262.486 174.029 262.836 173.47 263.302 172.799C263.768 172.128 264.584 172.016 265.633 171.569C266.682 171.122 266.216 170.674 265.633 170.674C265.05 170.674 264.135 170.227 263.435 169.556C262.736 168.885 262.736 168.661 263.202 167.99C263.668 167.319 267.122 164.853 268.171 164.182C269.22 163.511 269.453 164.406 269.686 164.853C269.873 165.211 270.999 167.724 271.582 169.029C271.038 169.551 269.83 170.92 268.897 171.904C267.731 173.135 264.934 175.595 264.001 176.266C263.069 176.937 261.786 177.832 262.136 178.167C262.486 178.503 264.001 178.726 264.584 179.509C265.167 180.292 265.866 183.088 266.216 183.088C266.566 183.088 266.915 181.634 268.431 178.95C269.643 176.803 271.967 173.656 272.977 172.352C273.482 173.507 274.62 176.248 275.086 177.143C276.191 179.454 276.579 181.289 275.763 182.296C274.947 183.302 272.933 183.71 271.695 182.864C270.648 182.15 270.529 180.068 270.063 179.621C269.596 179.174 269.069 179.777 268.486 181.008C267.904 182.238 267.149 183.871 267.032 184.206C266.915 184.542 266.915 184.653 267.382 184.877C267.848 185.101 268.314 185.548 270.412 186.443C273.793 188.12 276.171 186.977 277.639 185.324C279.21 183.557 280.204 183.088 280.787 182.976C281.369 182.864 282.069 182.864 281.952 182.417C281.836 181.969 280.204 180.516 279.738 180.068C279.365 179.71 278.727 178.428 278.455 177.832L274.791 170.153L279.271 164.747C280.165 165.493 282.21 167.229 281.934 169.732C281.476 173.881 278.515 173.287 277.29 173.135C277.534 173.817 277.839 174.785 278.805 176.378C284.658 176.631 285.566 170.674 284.4 167.99C283.341 165.029 279.954 161.468 279.971 161.28C280.067 160.184 280.132 158.665 279.621 159.155Z" fill="url(#paint17_linear_1_43)"/>
</g>
<defs>
<filter id="filter0_i_1_43" x="42.0545" y="39.2512" width="274.759" height="275.955" filterUnits="userSpaceOnUse" color-interpolation-filters="sRGB">
<feFlood flood-opacity="0" result="BackgroundImageFix"/>
<feBlend mode="normal" in="SourceGraphic" in2="BackgroundImageFix" result="shape"/>
<feColorMatrix in="SourceAlpha" type="matrix" values="0 0 0 0 0 0 0 0 0 0 0 0 0 0 0 0 0 0 127 0" result="hardAlpha"/>
<feOffset dy="4"/>
<feGaussianBlur stdDeviation="2"/>
<feComposite in2="hardAlpha" operator="arithmetic" k2="-1" k3="1"/>
<feColorMatrix type="matrix" values="0 0 0 0 0 0 0 0 0 0 0 0 0 0 0 0 0 0 0.25 0"/>
<feBlend mode="normal" in2="shape" result="effect1_innerShadow_1_43"/>
</filter>
<filter id="filter1_i_1_43" x="70" y="164.418" width="26.5722" height="28.5722" filterUnits="userSpaceOnUse" color-interpolation-filters="sRGB">
<feFlood flood-opacity="0" result="BackgroundImageFix"/>
<feBlend mode="normal" in="SourceGraphic" in2="BackgroundImageFix" result="shape"/>
<feColorMatrix in="SourceAlpha" type="matrix" values="0 0 0 0 0 0 0 0 0 0 0 0 0 0 0 0 0 0 127 0" result="hardAlpha"/>
<feOffset dy="2"/>
<feGaussianBlur stdDeviation="1"/>
<feComposite in2="hardAlpha" operator="arithmetic" k2="-1" k3="1"/>
<feColorMatrix type="matrix" values="0 0 0 0 0 0 0 0 0 0 0 0 0 0 0 0 0 0 0.25 0"/>
<feBlend mode="normal" in2="shape" result="effect1_innerShadow_1_43"/>
</filter>
<filter id="filter2_i_1_43" x="258.52" y="159" width="26.3212" height="29.2666" filterUnits="userSpaceOnUse" color-interpolation-filters="sRGB">
<feFlood flood-opacity="0" result="BackgroundImageFix"/>
<feBlend mode="normal" in="SourceGraphic" in2="BackgroundImageFix" result="shape"/>
<feColorMatrix in="SourceAlpha" type="matrix" values="0 0 0 0 0 0 0 0 0 0 0 0 0 0 0 0 0 0 127 0" result="hardAlpha"/>
<feOffset dy="1"/>
<feGaussianBlur stdDeviation="0.5"/>
<feComposite in2="hardAlpha" operator="arithmetic" k2="-1" k3="1"/>
<feColorMatrix type="matrix" values="0 0 0 0 0 0 0 0 0 0 0 0 0 0 0 0 0 0 0.25 0"/>
<feBlend mode="normal" in2="shape" result="effect1_innerShadow_1_43"/>
</filter>
<linearGradient id="paint0_linear_1_43" x1="154.202" y1="-12.6165" x2="243.919" y2="353.262" gradientUnits="userSpaceOnUse">
<stop stop-color="#C8CCD0"/>
<stop offset="1" stop-color="#CACACA"/>
</linearGradient>
<linearGradient id="paint1_linear_1_43" x1="182.002" y1="16.6713" x2="182.002" y2="337.605" gradientUnits="userSpaceOnUse">
<stop stop-color="#E6E6E6"/>
<stop offset="1" stop-color="#B9B9B9"/>
</linearGradient>
<linearGradient id="paint2_linear_1_43" x1="182.002" y1="16.6713" x2="182.002" y2="337.605" gradientUnits="userSpaceOnUse">
<stop stop-color="#D8D8D8"/>
<stop offset="1" stop-color="#A0AFBB"/>
</linearGradient>
<linearGradient id="paint3_linear_1_43" x1="181.846" y1="20.7944" x2="180.112" y2="331.399" gradientUnits="userSpaceOnUse">
<stop stop-color="#C4D1DB"/>
<stop offset="1" stop-color="#909FAB"/>
</linearGradient>
<linearGradient id="paint4_linear_1_43" x1="225.696" y1="312.608" x2="119.156" y2="46.2603" gradientUnits="userSpaceOnUse">
<stop stop-color="#738293"/>
<stop offset="1" stop-color="#D2D2D2" stop-opacity="0.56"/>
</linearGradient>
<linearGradient id="paint5_linear_1_43" x1="179.434" y1="39.2512" x2="179.434" y2="311.207" gradientUnits="userSpaceOnUse">
<stop stop-color="#CCCCCC"/>
<stop offset="0.494" stop-color="#F7F7F7"/>
<stop offset="0.999" stop-color="#CECECE"/>
</linearGradient>
<radialGradient id="paint6_radial_1_43" cx="0" cy="0" r="1" gradientUnits="userSpaceOnUse" gradientTransform="translate(180 38) rotate(90) scale(42.5 77)">
<stop stop-color="#FF2727"/>
<stop offset="1" stop-color="white" stop-opacity="0"/>
</radialGradient>
<radialGradient id="paint7_radial_1_43" cx="0" cy="0" r="1" gradientUnits="userSpaceOnUse" gradientTransform="translate(138 -5) rotate(90) scale(42.5 77)">
<stop stop-color="#007AFF"/>
<stop offset="1" stop-color="white" stop-opacity="0"/>
</radialGradient>
<linearGradient id="paint8_linear_1_43" x1="83.2861" y1="164.418" x2="83.2861" y2="190.99" gradientUnits="userSpaceOnUse">
<stop stop-color="#F0C673"/>
<stop offset="1" stop-color="#785E2A"/>
</linearGradient>
<linearGradient id="paint9_linear_1_43" x1="253.569" y1="190.854" x2="256.737" y2="197.678" gradientUnits="userSpaceOnUse">
<stop stop-color="#ECC271"/>
<stop offset="1" stop-color="#7F642E"/>
</linearGradient>
<linearGradient id="paint10_linear_1_43" x1="259.518" y1="192.164" x2="261.72" y2="197.703" gradientUnits="userSpaceOnUse">
<stop stop-color="#ECC271"/>
<stop offset="1" stop-color="#7F642E"/>
</linearGradient>
<linearGradient id="paint11_linear_1_43" x1="265.023" y1="192.188" x2="267.483" y2="197.452" gradientUnits="userSpaceOnUse">
<stop stop-color="#ECC271"/>
<stop offset="1" stop-color="#7F642E"/>
</linearGradient>
<linearGradient id="paint12_linear_1_43" x1="270.164" y1="192.188" x2="272.625" y2="197.452" gradientUnits="userSpaceOnUse">
<stop stop-color="#ECC271"/>
<stop offset="1" stop-color="#7F642E"/>
</linearGradient>
<linearGradient id="paint13_linear_1_43" x1="275.08" y1="192.069" x2="277.333" y2="197.957" gradientUnits="userSpaceOnUse">
<stop stop-color="#ECC271"/>
<stop offset="1" stop-color="#7F642E"/>
</linearGradient>
<linearGradient id="paint14_linear_1_43" x1="281.443" y1="192.188" x2="283.97" y2="197.63" gradientUnits="userSpaceOnUse">
<stop stop-color="#ECC271"/>
<stop offset="1" stop-color="#7F642E"/>
</linearGradient>
<linearGradient id="paint15_linear_1_43" x1="287.561" y1="192.212" x2="289.851" y2="197.624" gradientUnits="userSpaceOnUse">
<stop stop-color="#ECC271"/>
<stop offset="1" stop-color="#7F642E"/>
</linearGradient>
<linearGradient id="paint16_linear_1_43" x1="292.446" y1="192.164" x2="294.648" y2="197.703" gradientUnits="userSpaceOnUse">
<stop stop-color="#ECC271"/>
<stop offset="1" stop-color="#7F642E"/>
</linearGradient>
<linearGradient id="paint17_linear_1_43" x1="266.397" y1="159" x2="281.859" y2="191.497" gradientUnits="userSpaceOnUse">
<stop stop-color="#ECC271"/>
<stop offset="1" stop-color="#7F642E"/>
</linearGradient>
</defs>
</svg>
