<svg width="288" height="333" viewBox="0 0 288 333" fill="none" xmlns="http://www.w3.org/2000/svg">
<g filter="url(#filter0_f_163_51652)">
<path fill-rule="evenodd" clip-rule="evenodd" d="M156.021 145.977C149.981 137.114 146.379 124.805 133.586 124.002C120.234 123.165 104.814 131.707 94.7718 142.134C85.9184 151.327 87.0173 162.631 86.1677 173.237C85.4767 181.864 85.1633 190.461 90.4091 196.599C95.8513 202.967 104.962 205.33 114.652 206.566C127.419 208.194 141.896 213.217 153.65 204.664C165.447 196.08 164.448 181.74 164.923 169.985C165.304 160.563 160.991 153.27 156.021 145.977Z" fill="white" fill-opacity="0.5"/>
</g>
<g filter="url(#filter1_f_163_51652)">
<ellipse cx="0.77461" cy="0.775632" rx="0.77461" ry="0.775632" transform="matrix(0.980845 -0.194791 0.185659 0.982614 134.272 174.609)" fill="#FFE6C0"/>
</g>
<g filter="url(#filter2_f_163_51652)">
<ellipse cx="0.77461" cy="0.775632" rx="0.77461" ry="0.775632" transform="matrix(0.980845 -0.194791 0.185659 0.982614 150.752 173.725)" fill="#FFE6C0"/>
</g>
<g filter="url(#filter3_f_163_51652)">
<ellipse cx="0.77461" cy="0.775632" rx="0.77461" ry="0.775632" transform="matrix(0.980845 -0.194791 0.185659 0.982614 120.048 155.997)" fill="#FFE6C0"/>
</g>
<g filter="url(#filter4_f_163_51652)">
<ellipse cx="0.386104" cy="0.389011" rx="0.386104" ry="0.389011" transform="matrix(0.660364 0.750946 -0.747198 0.664601 131.559 183.608)" fill="#F6D47D"/>
</g>
<g filter="url(#filter5_f_163_51652)">
<ellipse cx="0.786867" cy="0.784976" rx="0.786867" ry="0.784976" transform="matrix(-0.127408 -0.99185 -0.990652 0.13641 108.721 177.122)" fill="#FFE6C0"/>
</g>
<g filter="url(#filter6_f_163_51652)">
<ellipse cx="1.25124" cy="1.24823" rx="1.25124" ry="1.24823" transform="matrix(-0.127408 -0.99185 -0.990652 0.13641 90.8579 122.225)" fill="#FFE6C0"/>
</g>
<g filter="url(#filter7_f_163_51652)">
<ellipse cx="1.25124" cy="1.24823" rx="1.25124" ry="1.24823" transform="matrix(-0.127408 -0.99185 -0.990652 0.13641 126.959 226.265)" fill="#FFE6C0"/>
</g>
<g filter="url(#filter8_f_163_51652)">
<ellipse cx="0.622015" cy="0.627708" rx="0.622015" ry="0.627708" transform="matrix(-0.921329 -0.388784 -0.390893 0.920436 85.6221 156.69)" fill="#F6D47D"/>
</g>
<defs>
<filter id="filter0_f_163_51652" x="-37.2124" y="0.945312" width="325.159" height="331.57" filterUnits="userSpaceOnUse" color-interpolation-filters="sRGB">
<feFlood flood-opacity="0" result="BackgroundImageFix"/>
<feBlend mode="normal" in="SourceGraphic" in2="BackgroundImageFix" result="shape"/>
<feGaussianBlur stdDeviation="61.5" result="effect1_foregroundBlur_163_51652"/>
</filter>
<filter id="filter1_f_163_51652" x="131.403" y="171.443" width="7.54688" height="7.55469" filterUnits="userSpaceOnUse" color-interpolation-filters="sRGB">
<feFlood flood-opacity="0" result="BackgroundImageFix"/>
<feBlend mode="normal" in="SourceGraphic" in2="BackgroundImageFix" result="shape"/>
<feGaussianBlur stdDeviation="1.5" result="effect1_foregroundBlur_163_51652"/>
</filter>
<filter id="filter2_f_163_51652" x="142.883" y="165.559" width="17.5469" height="17.5547" filterUnits="userSpaceOnUse" color-interpolation-filters="sRGB">
<feFlood flood-opacity="0" result="BackgroundImageFix"/>
<feBlend mode="normal" in="SourceGraphic" in2="BackgroundImageFix" result="shape"/>
<feGaussianBlur stdDeviation="4" result="effect1_foregroundBlur_163_51652"/>
</filter>
<filter id="filter3_f_163_51652" x="117.178" y="152.831" width="7.54688" height="7.55469" filterUnits="userSpaceOnUse" color-interpolation-filters="sRGB">
<feFlood flood-opacity="0" result="BackgroundImageFix"/>
<feBlend mode="normal" in="SourceGraphic" in2="BackgroundImageFix" result="shape"/>
<feGaussianBlur stdDeviation="1.5" result="effect1_foregroundBlur_163_51652"/>
</filter>
<filter id="filter4_f_163_51652" x="130.136" y="182.769" width="2.77344" height="2.77637" filterUnits="userSpaceOnUse" color-interpolation-filters="sRGB">
<feFlood flood-opacity="0" result="BackgroundImageFix"/>
<feBlend mode="normal" in="SourceGraphic" in2="BackgroundImageFix" result="shape"/>
<feGaussianBlur stdDeviation="0.5" result="effect1_foregroundBlur_163_51652"/>
</filter>
<filter id="filter5_f_163_51652" x="104.059" y="172.661" width="7.56836" height="7.5752" filterUnits="userSpaceOnUse" color-interpolation-filters="sRGB">
<feFlood flood-opacity="0" result="BackgroundImageFix"/>
<feBlend mode="normal" in="SourceGraphic" in2="BackgroundImageFix" result="shape"/>
<feGaussianBlur stdDeviation="1.5" result="effect1_foregroundBlur_163_51652"/>
</filter>
<filter id="filter6_f_163_51652" x="80.2151" y="111.901" width="18.4939" height="18.5049" filterUnits="userSpaceOnUse" color-interpolation-filters="sRGB">
<feFlood flood-opacity="0" result="BackgroundImageFix"/>
<feBlend mode="normal" in="SourceGraphic" in2="BackgroundImageFix" result="shape"/>
<feGaussianBlur stdDeviation="4" result="effect1_foregroundBlur_163_51652"/>
</filter>
<filter id="filter7_f_163_51652" x="121.316" y="220.941" width="8.49414" height="8.50488" filterUnits="userSpaceOnUse" color-interpolation-filters="sRGB">
<feFlood flood-opacity="0" result="BackgroundImageFix"/>
<feBlend mode="normal" in="SourceGraphic" in2="BackgroundImageFix" result="shape"/>
<feGaussianBlur stdDeviation="1.5" result="effect1_foregroundBlur_163_51652"/>
</filter>
<filter id="filter8_f_163_51652" x="83.1802" y="155.399" width="3.24707" height="3.25391" filterUnits="userSpaceOnUse" color-interpolation-filters="sRGB">
<feFlood flood-opacity="0" result="BackgroundImageFix"/>
<feBlend mode="normal" in="SourceGraphic" in2="BackgroundImageFix" result="shape"/>
<feGaussianBlur stdDeviation="0.5" result="effect1_foregroundBlur_163_51652"/>
</filter>
</defs>
</svg>
