<svg width="40" height="40" viewBox="0 0 40 40" fill="none" xmlns="http://www.w3.org/2000/svg">
<path fill-rule="evenodd" clip-rule="evenodd" d="M8.47351 19.1975C8.47351 17.104 9.24124 15.1772 10.5293 13.6471L11.7164 13.1021L12.1909 12.1007C13.8383 10.8997 15.9142 10.1836 18.1701 10.1836H20.3034C22.5828 10.1836 24.6786 10.9147 26.334 12.1385L26.7971 13.0978L27.7797 13.457C29.1666 15.0162 30 17.0164 30 19.1975V21.1806C30 23.3559 29.171 25.3512 27.7908 26.9085L26.6071 27.4023L26.2169 28.3248C24.5802 29.4972 22.5294 30.1945 20.3034 30.1945H18.1701C16.0332 30.1945 14.9019 30.0785 13.2993 28.9899L9.39717 30.6337L10.7607 26.9955C9.33375 25.4258 8.47351 23.3966 8.47351 21.1806V19.1975Z" fill="url(#paint0_radial_943_11896)"/>
<path d="M15.2367 21.112C14.9594 21.112 14.7194 21.016 14.5167 20.824C14.3247 20.6213 14.2287 20.3813 14.2287 20.104C14.2287 19.8267 14.3247 19.592 14.5167 19.4C14.7194 19.1973 14.9594 19.096 15.2367 19.096C15.5141 19.096 15.7487 19.1973 15.9407 19.4C16.1434 19.592 16.2447 19.8267 16.2447 20.104C16.2447 20.3813 16.1434 20.6213 15.9407 20.824C15.7487 21.016 15.5141 21.112 15.2367 21.112ZM19.2367 21.112C18.9594 21.112 18.7194 21.016 18.5167 20.824C18.3247 20.6213 18.2287 20.3813 18.2287 20.104C18.2287 19.8267 18.3247 19.592 18.5167 19.4C18.7194 19.1973 18.9594 19.096 19.2367 19.096C19.5141 19.096 19.7487 19.1973 19.9407 19.4C20.1434 19.592 20.2447 19.8267 20.2447 20.104C20.2447 20.3813 20.1434 20.6213 19.9407 20.824C19.7487 21.016 19.5141 21.112 19.2367 21.112ZM23.2367 21.112C22.9594 21.112 22.7194 21.016 22.5167 20.824C22.3247 20.6213 22.2287 20.3813 22.2287 20.104C22.2287 19.8267 22.3247 19.592 22.5167 19.4C22.7194 19.1973 22.9594 19.096 23.2367 19.096C23.5141 19.096 23.7487 19.1973 23.9407 19.4C24.1434 19.592 24.2447 19.8267 24.2447 20.104C24.2447 20.3813 24.1434 20.6213 23.9407 20.824C23.7487 21.016 23.5141 21.112 23.2367 21.112Z" fill="#979DA2"/>
<defs>
<radialGradient id="paint0_radial_943_11896" cx="0" cy="0" r="1" gradientUnits="userSpaceOnUse" gradientTransform="translate(19.2367 20.4087) rotate(90) scale(13.1426 13.8343)">
<stop stop-color="#36424B"/>
<stop offset="1" stop-color="#0C0C0C"/>
</radialGradient>
</defs>
</svg>
