<svg width="52" height="52" viewBox="0 0 52 52" fill="none" xmlns="http://www.w3.org/2000/svg">
<path fill-rule="evenodd" clip-rule="evenodd" d="M0 23.4234C0 17.9833 1.85456 12.9764 4.96593 9.00031L7.83373 7.58411L8.97996 4.98188C12.9593 1.86089 17.974 0 23.4234 0H28.5766C34.0829 0 39.1454 1.89997 43.1444 5.08008L44.2629 7.57286L46.6367 8.50636C49.9869 12.5579 52 17.7556 52 23.4234V28.5766C52 34.2294 49.9976 39.4145 46.6634 43.4612L43.8041 44.7443L42.8614 47.1414C38.9078 50.1881 33.9538 52 28.5766 52H23.4234C18.2615 52 13.4895 50.3302 9.61821 47.5014L8.34887 44.931L5.52508 43.6872C2.07801 39.6083 0 34.3351 0 28.5766V23.4234Z" fill="url(#paint0_linear_3346_27920)"/>
<ellipse cx="26" cy="26" rx="23.1386" ry="23.1386" fill="url(#paint1_linear_3346_27920)"/>
<path d="M20.0837 20.2194L20.2467 20.139L20.3199 19.9727L20.6874 19.1383C22.0404 18.11 23.7276 17.5 25.5586 17.5H27.4414C29.2932 17.5 30.998 18.124 32.3587 19.1736L32.7168 19.9717L32.8003 20.1577L32.99 20.2323L33.7353 20.5254C34.8398 21.9047 35.5 23.6539 35.5 25.5586V27.4414C35.5 29.3452 34.8405 31.0936 33.7369 32.4726L32.8007 32.8927L32.6147 32.9762L32.54 33.1659L32.247 33.911C30.9053 34.9094 29.243 35.5 27.4414 35.5H25.5586C23.8254 35.5 22.2214 34.9534 20.9075 34.0232L20.4989 33.1957L20.4184 33.0328L20.2521 32.9595L19.3278 32.5524C18.1853 31.1614 17.5 29.3821 17.5 27.4414V25.5586C17.5 23.7268 18.1106 22.039 19.1396 20.6856L20.0837 20.2194Z" stroke="url(#paint2_linear_3346_27920)"/>
<defs>
<linearGradient id="paint0_linear_3346_27920" x1="15.5606" y1="-3.61164e-05" x2="39.2329" y2="2.72092" gradientUnits="userSpaceOnUse">
<stop stop-color="#16202B"/>
<stop offset="1" stop-color="#101419"/>
</linearGradient>
<linearGradient id="paint1_linear_3346_27920" x1="16.7094" y1="2.86129" x2="40.8748" y2="57.4024" gradientUnits="userSpaceOnUse">
<stop stop-color="#20303D"/>
<stop offset="1" stop-color="#0C131B"/>
</linearGradient>
<linearGradient id="paint2_linear_3346_27920" x1="22.6856" y1="17" x2="32.6072" y2="39.3929" gradientUnits="userSpaceOnUse">
<stop stop-color="#ECC271"/>
<stop offset="1" stop-color="#7F642E"/>
</linearGradient>
</defs>
</svg>
