<svg width="60" height="60" viewBox="0 0 60 60" fill="none" xmlns="http://www.w3.org/2000/svg">
<path d="M9.26032 9.19921L9.42325 9.11875L9.4965 8.95245L10.7683 6.06504C15.2591 2.57673 20.8999 0.5 27.027 0.5H32.973C39.1659 0.5 44.8619 2.62153 49.3758 6.17783L50.6165 8.94261L50.6999 9.12862L50.8896 9.20323L53.5079 10.2329C57.2532 14.8068 59.5 20.6539 59.5 27.027V32.973C59.5 39.3333 57.2622 45.1697 53.5304 49.7396L50.3385 51.1718L50.1525 51.2553L50.0779 51.445L49.041 54.0817C44.5817 57.4814 39.0138 59.5 32.973 59.5H27.027C21.2243 59.5 15.8581 57.6374 11.4917 54.4774L10.0816 51.622L10.0012 51.4591L9.83486 51.3859L6.68292 49.9975C2.82326 45.3903 0.5 39.4536 0.5 32.973V27.027C0.5 20.9063 2.57234 15.271 6.05397 10.7826L9.26032 9.19921Z" stroke-width="2" stroke="#121212"/>
</svg>
