<svg width="30" height="30" viewBox="0 0 30 30" fill="none" xmlns="http://www.w3.org/2000/svg">
<path d="M14.9625 27.5C21.866 27.5 27.4625 21.9035 27.4625 15C27.4625 8.09644 21.866 2.5 14.9625 2.5C8.0589 2.5 2.46246 8.09644 2.46246 15C2.46246 21.9035 8.0589 27.5 14.9625 27.5Z" stroke="#797979" stroke-width="2" stroke-linecap="round" stroke-linejoin="round"/>
<path d="M13.4 18.1624V11.8375C13.4 11.2375 13.15 11 12.5125 11H10.8875C10.25 11 10 11.2375 10 11.8375V18.1624C10 18.7624 10.25 18.9999 10.8875 18.9999H12.5C13.15 18.9999 13.4 18.7624 13.4 18.1624Z" stroke="#797979" stroke-width="2" stroke-linecap="round" stroke-linejoin="round"/>
<path d="M20 18.1624V11.8375C20 11.2375 19.75 11 19.1125 11H17.5C16.8625 11 16.6125 11.2375 16.6125 11.8375V18.1624C16.6125 18.7624 16.8625 18.9999 17.5 18.9999H19.1125C19.75 18.9999 20 18.7624 20 18.1624Z" stroke="#797979" stroke-width="2" stroke-linecap="round" stroke-linejoin="round"/>
</svg>
