<svg width="319" height="310" viewBox="0 0 319 310" fill="none" xmlns="http://www.w3.org/2000/svg">
<path d="M15.6335 125.807C51.7143 62.4883 100.432 64.7276 131.351 61.0337C131.351 61.0337 133.3 61.0334 135.114 60.3207C136.928 59.6081 235.273 23.1659 282.574 73.9325C329.875 124.699 319.782 205.167 286.326 244.616C252.87 284.065 196.46 315.528 114.093 302.568C31.725 289.607 -20.4472 189.125 15.6335 125.807Z" fill="url(#paint0_linear_12_195)" stroke="#0D0D0D" stroke-width="7"/>
<path d="M15.6336 125.807C51.7143 62.4883 100.432 64.7276 131.351 61.0337C131.351 61.0337 133.3 61.0334 135.114 60.3207C136.928 59.6081 235.274 23.1659 282.574 73.9325C329.875 124.699 319.782 205.167 286.326 244.616C252.87 284.065 196.46 315.528 114.093 302.568C31.7251 289.607 -20.4471 189.125 15.6336 125.807Z" stroke="url(#paint1_angular_12_195)" stroke-width="7"/>
<g opacity="0.3" filter="url(#filter0_f_12_195)">
<path d="M174.973 86.194C164.563 90.24 150.251 93.47 144.396 94.5792L146.762 91.0226L143.922 92.0769L143.317 88.8795C145.126 86.4246 152.338 79.2211 166.715 70.0457C184.685 58.5766 194.145 55.3443 203.949 55.6468C213.753 55.9494 185.411 53.8309 172.046 69.0355C163.643 78.5967 161.615 82.9637 161.691 84.5685C163.998 83.8113 166.469 83.0348 169.032 82.2792C181.341 78.6511 234.76 65.65 234.959 58.124C235.157 50.5981 249.321 46.4744 245.663 47.7436C242.004 49.0127 239.187 53.0028 239.45 54.3929C239.713 55.7831 237.992 58.7014 235.485 60.9044C232.979 63.1074 187.985 81.1365 174.973 86.194Z" fill="#0D0D0D"/>
<path d="M113.502 99.5686C121.154 97.4277 127.772 96.577 130.125 96.4192C130.647 95.7443 130.938 94.537 127.927 95.1075C124.163 95.8206 103.168 94.7581 100.03 93.6247C96.8908 92.4914 76.5784 93.3156 55.9715 89.1555C35.3646 84.9953 64.1643 77.5228 54.2859 80.2585C44.4075 82.9941 45.1737 88.7532 50.9533 90.1062C56.7329 91.4593 79.248 95.402 83.0931 96.8336C86.9382 98.2652 103.937 102.245 113.502 99.5686Z" fill="#0D0D0D"/>
<path d="M110.346 86.3413C117.04 87.3771 125.309 92.7228 128.607 95.2662L134.542 95.7256C134.968 95.1169 135.264 92.6799 133.041 87.8017C130.261 81.7039 117.608 81.7973 104.925 80.0239C92.2434 78.2505 100.199 65.3667 95.8705 73.3871C91.5419 81.4076 101.978 85.0465 110.346 86.3413Z" fill="#0D0D0D"/>
<path d="M146.692 72.3993C141.536 79.482 146.844 87.4912 150.142 90.6105C150.239 91.1202 148.66 92.7345 141.574 95.1141C134.487 97.4936 128.129 96.7492 125.837 96.0796C124.911 94.6228 123.209 90.4426 123.809 85.3752C124.558 79.0409 140.721 64.8901 145.191 64.4752C148.614 64.1575 151.464 64.5904 152.604 64.8781C152.743 64.7731 152.778 64.8075 152.747 64.9158C152.703 64.9036 152.655 64.891 152.604 64.8781C152.157 65.216 150.625 66.9963 146.692 72.3993Z" fill="#0D0D0D"/>
<path d="M130.589 92.0107C140.963 91.8886 144.656 93.0898 145.311 94.2617C143.752 95.181 138.889 97.4081 131.906 98.9616C123.177 100.903 114.811 101.336 108.771 100.321C102.73 99.305 91.1167 95.1691 92.5236 91.7344C93.2922 92.9328 97.4448 96.1014 104.555 95.2152C113.442 94.1074 117.622 92.1634 130.589 92.0107Z" fill="#0D0D0D"/>
</g>
<path d="M173.904 80.5534C163.97 87.114 149.778 90.9726 143.923 92.0818L145.574 84.7559L142.854 86.4363L141.487 79.2226C142.811 74.2066 148.682 59.925 161.576 42.9266C177.694 21.6786 186.823 16.7002 197.123 19.622C207.424 22.5439 177.361 11.3451 166.908 41.9164C160.335 61.1408 159.223 70.3372 159.671 73.9056C161.904 72.76 164.304 71.6096 166.806 70.5268C178.816 65.3271 231.574 48.8336 230.052 32.2273C228.53 15.621 242.363 9.75114 238.837 11.7188C235.311 13.6864 233.288 21.8674 233.882 25.0038C234.476 28.1401 233.35 34.2016 231.24 38.5001C229.131 42.7985 186.321 72.3527 173.904 80.5534Z" fill="url(#paint2_linear_12_195)"/>
<path d="M112.83 96.0236C120.323 93.0445 127.034 92.6827 129.453 92.8741C129.842 91.5007 129.869 88.8964 126.858 89.4669C123.094 90.18 100.942 83.0056 97.4059 79.777C93.8701 76.5483 72.8629 73.7054 50.4033 59.7663C27.9436 45.8272 56.2801 35.9102 46.6002 39.6936C36.9203 43.4769 39.043 56.3955 45.385 60.7171C51.7271 65.0386 76.128 78.9349 80.4694 82.9858C84.8108 87.0367 103.464 99.7474 112.83 96.0236Z" fill="url(#paint3_linear_12_195)"/>
<path d="M106.498 66.0331C113.722 69.8628 123.579 83.5903 127.604 89.9754L133.903 92.3556C134.208 91.1066 133.957 85.7826 130.516 74.4782C126.214 60.3477 113.032 57.6474 99.3903 50.81C85.7487 43.9726 91.0908 17.2936 88.4164 34.0451C85.7421 50.7967 97.4687 61.2459 106.498 66.0331Z" fill="url(#paint4_linear_12_195)"/>
<path d="M141.223 43.5337C137.47 58.0205 144.849 76.961 149.007 84.6204C149.225 85.7704 147.949 88.9796 141.1 92.6164C134.252 96.2532 127.447 93.1456 124.9 91.1372C123.599 87.7014 120.863 78.0612 120.325 66.9868C119.651 53.1438 133.267 25.5471 137.836 25.6561C141.335 25.7395 144.409 27.3523 145.665 28.2508C145.786 28.0504 145.829 28.1343 145.822 28.3669C145.773 28.3298 145.721 28.291 145.665 28.2508C145.275 28.8955 144.086 32.4828 141.223 43.5337Z" fill="url(#paint5_linear_12_195)"/>
<path d="M128.925 83.2278C139.722 85.3408 143.852 88.847 144.805 91.5905C143.389 93.2665 138.826 97.0768 131.896 98.9097C123.233 101.201 114.603 100.237 108.066 96.6018C101.529 92.9668 88.46 81.1475 89.1391 73.8711C90.2164 76.6993 95.2777 84.6642 102.493 84.3368C111.513 83.9275 115.428 80.5865 128.925 83.2278Z" fill="url(#paint6_linear_12_195)"/>
<defs>
<filter id="filter0_f_12_195" x="42.708" y="43.5166" width="207.558" height="61.3359" filterUnits="userSpaceOnUse" color-interpolation-filters="sRGB">
<feFlood flood-opacity="0" result="BackgroundImageFix"/>
<feBlend mode="normal" in="SourceGraphic" in2="BackgroundImageFix" result="shape"/>
<feGaussianBlur stdDeviation="2" result="effect1_foregroundBlur_12_195"/>
</filter>
<linearGradient id="paint0_linear_12_195" x1="139.003" y1="56.8196" x2="185.554" y2="302.519" gradientUnits="userSpaceOnUse">
<stop stop-color="#424E58"/>
<stop offset="1" stop-color="#0D0E0F"/>
</linearGradient>
<radialGradient id="paint1_angular_12_195" cx="0" cy="0" r="1" gradientUnits="userSpaceOnUse" gradientTransform="translate(162.278 179.669) rotate(-151.384) scale(174.497 217.711)">
<stop stop-color="#F20000"/>
<stop offset="1" stop-color="#F20000" stop-opacity="0"/>
</radialGradient>
<linearGradient id="paint2_linear_12_195" x1="137.958" y1="21.9675" x2="150.988" y2="90.7432" gradientUnits="userSpaceOnUse">
<stop stop-color="#ECC271"/>
<stop offset="1" stop-color="#35270A"/>
</linearGradient>
<linearGradient id="paint3_linear_12_195" x1="137.958" y1="21.9675" x2="150.988" y2="90.7432" gradientUnits="userSpaceOnUse">
<stop stop-color="#ECC271"/>
<stop offset="1" stop-color="#35270A"/>
</linearGradient>
<linearGradient id="paint4_linear_12_195" x1="96.4046" y1="27.2664" x2="155.67" y2="74.2059" gradientUnits="userSpaceOnUse">
<stop stop-color="#ECC271"/>
<stop offset="1" stop-color="#7F642E"/>
</linearGradient>
<linearGradient id="paint5_linear_12_195" x1="128.801" y1="27.3401" x2="141.288" y2="93.2452" gradientUnits="userSpaceOnUse">
<stop stop-color="#ECC271"/>
<stop offset="1" stop-color="#35270A"/>
</linearGradient>
<linearGradient id="paint6_linear_12_195" x1="104.076" y1="71.041" x2="123.776" y2="110.761" gradientUnits="userSpaceOnUse">
<stop stop-color="#ECC271"/>
<stop offset="1" stop-color="#7F642E"/>
</linearGradient>
</defs>
</svg>
