<svg width="79" height="79" viewBox="0 0 79 79" fill="none" xmlns="http://www.w3.org/2000/svg">
<path fill-rule="evenodd" clip-rule="evenodd" d="M0 35.5856C0 27.3208 2.81749 19.7141 7.54437 13.6736L11.9012 11.522L13.6426 7.56862C19.6881 2.82713 27.3066 0 35.5855 0H43.4143C51.7796 0 59.4708 2.88649 65.5461 7.71782L67.2454 11.5049L70.8517 12.9231C75.9414 19.0783 78.9998 26.9748 78.9998 35.5856V43.4144C78.9998 52.0023 75.9577 59.8797 70.8923 66.0277L66.5484 67.9769L65.1162 71.6187C59.1098 76.2473 51.5835 79 43.4143 79H35.5855C27.7433 79 20.4936 76.4632 14.6122 72.1656L12.6838 68.2605L8.39385 66.3709C3.15698 60.1741 0 52.1629 0 43.4144V35.5856Z" fill="url(#paint0_linear_2830_5772)"/>
<defs>
<linearGradient id="paint0_linear_2830_5772" x1="23.6401" y1="-5.48692e-05" x2="59.6036" y2="4.13367" gradientUnits="userSpaceOnUse">
<stop stop-color="#1D2126"/>
<stop offset="1" stop-color="#3F4B58"/>
</linearGradient>
</defs>
</svg>
