<svg width="137" height="137" viewBox="0 0 137 137" fill="none" xmlns="http://www.w3.org/2000/svg">
<path d="M20.8603 20.4295L21.0232 20.3491L21.0965 20.1828L24.0657 13.4417C34.449 5.33214 47.5154 0.5 61.7118 0.5H75.2883C89.6347 0.5 102.827 5.43481 113.263 13.7L116.16 20.1563L116.243 20.3423L116.433 20.4169L122.566 22.829C131.272 33.4023 136.5 46.9459 136.5 61.7118V75.2883C136.5 90.019 131.297 103.533 122.629 114.096L115.202 117.428L115.016 117.511L114.942 117.701L112.509 123.888C102.195 131.799 89.2914 136.5 75.2883 136.5H61.7117C48.2655 136.5 35.8332 132.165 25.7342 124.816L22.4444 118.154L22.3639 117.992L22.1976 117.918L14.864 114.688C5.90019 104.041 0.5 90.2958 0.5 75.2883V61.7117C0.5 47.5356 5.31839 34.4862 13.4071 24.1101L20.8603 20.4295Z" fill="url(#paint0_linear_454_7269)" stroke="#465F7B"/>
<defs>
<linearGradient id="paint0_linear_454_7269" x1="68.5" y1="0" x2="68.5" y2="137" gradientUnits="userSpaceOnUse">
<stop stop-color="#272F35"/>
<stop offset="1" stop-opacity="0"/>
</linearGradient>
</defs>
</svg>
