<svg width="15" height="9" viewBox="0 0 15 9" fill="none" xmlns="http://www.w3.org/2000/svg">
<path fill-rule="evenodd" clip-rule="evenodd" d="M13.6336 0.655212L7.1336 7.45521L7.07835 7.52452C6.95066 7.71854 6.9799 7.97939 7.15978 8.14164C7.36213 8.32418 7.6785 8.31279 7.8664 8.11622L14.3664 1.31622L14.4216 1.24692C14.5493 1.05289 14.5201 0.792039 14.3402 0.629788C14.1379 0.447255 13.8215 0.458638 13.6336 0.655212ZM10.1352 0.653544L3.93573 7.0784L1.36215 4.45215L1.29435 4.3943C1.10286 4.25855 0.833042 4.27083 0.655256 4.43524C0.455247 4.6202 0.447456 4.92764 0.637853 5.12194L3.57639 8.12061L3.64702 8.18047C3.84667 8.32 4.12866 8.2989 4.30333 8.11789L10.8648 1.31789L10.9204 1.24884C11.049 1.0554 11.021 0.794414 10.8419 0.631344C10.6405 0.44789 10.3241 0.45783 10.1352 0.653544Z" fill="#8E8E93"/>
</svg>
