<svg width="49" height="49" viewBox="0 0 49 49" fill="none" xmlns="http://www.w3.org/2000/svg">
<path d="M22.2252 40.7611V0L0 6.65487V47L22.2252 40.7611Z" fill="url(#paint0_linear_2853_24079)"/>
<path d="M19.6287 10.1963V8.73047C19.6287 8.73047 12.1225 11.3311 3.44302 13.9299V14.9798L19.6287 10.1963Z" fill="url(#paint1_linear_2853_24079)"/>
<path d="M19.6287 24.7501V23.2843C19.6287 23.2843 12.1225 25.8849 3.44302 28.4837V29.5336L19.6287 24.7501Z" fill="url(#paint2_linear_2853_24079)"/>
<path d="M19.6287 16.0178V14.552C19.6287 14.552 12.1225 17.1526 3.44302 19.7515V20.8013L19.6287 16.0178Z" fill="url(#paint3_linear_2853_24079)"/>
<path d="M19.6287 30.5716V29.1058C19.6287 29.1058 12.1225 31.7064 3.44302 34.3053V35.3551L19.6287 30.5716Z" fill="url(#paint4_linear_2853_24079)"/>
<path d="M19.6287 13.107V11.6412C19.6287 11.6412 12.1225 14.2418 3.44302 16.8407V17.8906L19.6287 13.107Z" fill="url(#paint5_linear_2853_24079)"/>
<path d="M19.6287 27.6608V26.195C19.6287 26.195 12.1225 28.7956 3.44302 31.3945V32.4444L19.6287 27.6608Z" fill="url(#paint6_linear_2853_24079)"/>
<path d="M19.6287 18.9285V17.4628C19.6287 17.4628 12.1225 20.0633 3.44302 22.6622V23.7121L19.6287 18.9285Z" fill="url(#paint7_linear_2853_24079)"/>
<path d="M19.6287 33.4823V32.0166C19.6287 32.0166 12.1225 34.6171 3.44302 37.216V38.2659L19.6287 33.4823Z" fill="url(#paint8_linear_2853_24079)"/>
<path d="M19.6287 10.1963V8.73047C19.6287 8.73047 12.1225 11.3311 3.44302 13.9299V14.9798L19.6287 10.1963Z" fill="url(#paint9_linear_2853_24079)"/>
<path d="M19.6287 16.0178V14.552C19.6287 14.552 12.1225 17.1526 3.44302 19.7515V20.8013L19.6287 16.0178Z" fill="url(#paint10_linear_2853_24079)"/>
<path d="M19.6287 13.107V11.6412C19.6287 11.6412 12.1225 14.2418 3.44302 16.8407V17.8906L19.6287 13.107Z" fill="url(#paint11_linear_2853_24079)"/>
<path d="M19.6287 18.9285V17.4628C19.6287 17.4628 12.1225 20.0633 3.44302 22.6622V23.7121L19.6287 18.9285Z" fill="url(#paint12_linear_2853_24079)"/>
<path d="M31.4506 41.7611V1L9.22534 7.65487V48L31.4506 41.7611Z" fill="url(#paint13_linear_2853_24079)"/>
<path d="M28.854 11.1963V9.73047C28.854 9.73047 21.3479 12.3311 12.6684 14.9299V15.9798L28.854 11.1963Z" fill="url(#paint14_linear_2853_24079)"/>
<path d="M28.854 25.7501V24.2843C28.854 24.2843 21.3479 26.8849 12.6684 29.4837V30.5336L28.854 25.7501Z" fill="url(#paint15_linear_2853_24079)"/>
<path d="M28.854 17.0178V15.552C28.854 15.552 21.3479 18.1526 12.6684 20.7515V21.8013L28.854 17.0178Z" fill="url(#paint16_linear_2853_24079)"/>
<path d="M28.854 31.5716V30.1058C28.854 30.1058 21.3479 32.7064 12.6684 35.3053V36.3551L28.854 31.5716Z" fill="url(#paint17_linear_2853_24079)"/>
<path d="M28.854 14.107V12.6412C28.854 12.6412 21.3479 15.2418 12.6684 17.8407V18.8906L28.854 14.107Z" fill="url(#paint18_linear_2853_24079)"/>
<path d="M28.854 28.6608V27.195C28.854 27.195 21.3479 29.7956 12.6684 32.3945V33.4444L28.854 28.6608Z" fill="url(#paint19_linear_2853_24079)"/>
<path d="M28.854 19.9285V18.4628C28.854 18.4628 21.3479 21.0633 12.6684 23.6622V24.7121L28.854 19.9285Z" fill="url(#paint20_linear_2853_24079)"/>
<path d="M28.854 34.4823V33.0166C28.854 33.0166 21.3479 35.6171 12.6684 38.216V39.2659L28.854 34.4823Z" fill="url(#paint21_linear_2853_24079)"/>
<path d="M28.854 25.7519V24.2861C28.854 24.2861 21.3479 26.8867 12.6684 29.4856V30.5354L28.854 25.7519Z" fill="url(#paint22_linear_2853_24079)"/>
<path d="M28.854 31.5734V30.1076C28.854 30.1076 21.3479 32.7082 12.6684 35.3071V36.357L28.854 31.5734Z" fill="url(#paint23_linear_2853_24079)"/>
<path d="M28.854 28.6627V27.1969C28.854 27.1969 21.3479 29.7975 12.6684 32.3963V33.4462L28.854 28.6627Z" fill="url(#paint24_linear_2853_24079)"/>
<path d="M28.854 34.4842V33.0184C28.854 33.0184 21.3479 35.619 12.6684 38.2179V39.2677L28.854 34.4842Z" fill="url(#paint25_linear_2853_24079)"/>
<path d="M40.4506 42.7611V2L18.2253 8.65487V49L40.4506 42.7611Z" fill="url(#paint26_linear_2853_24079)"/>
<path d="M37.854 12.1963V10.7305C37.854 10.7305 30.3479 13.3311 21.6684 15.9299V16.9798L37.854 12.1963Z" fill="url(#paint27_linear_2853_24079)"/>
<path d="M37.854 26.7501V25.2843C37.854 25.2843 30.3479 27.8849 21.6684 30.4837V31.5336L37.854 26.7501Z" fill="url(#paint28_linear_2853_24079)"/>
<path d="M37.854 18.0178V16.552C37.854 16.552 30.3479 19.1526 21.6684 21.7515V22.8013L37.854 18.0178Z" fill="url(#paint29_linear_2853_24079)"/>
<path d="M37.854 32.5716V31.1058C37.854 31.1058 30.3479 33.7064 21.6684 36.3053V37.3551L37.854 32.5716Z" fill="url(#paint30_linear_2853_24079)"/>
<path d="M37.854 15.107V13.6412C37.854 13.6412 30.3479 16.2418 21.6684 18.8407V19.8906L37.854 15.107Z" fill="url(#paint31_linear_2853_24079)"/>
<path d="M37.854 29.6608V28.195C37.854 28.195 30.3479 30.7956 21.6684 33.3945V34.4444L37.854 29.6608Z" fill="url(#paint32_linear_2853_24079)"/>
<path d="M37.854 20.9285V19.4628C37.854 19.4628 30.3479 22.0633 21.6684 24.6622V25.7121L37.854 20.9285Z" fill="url(#paint33_linear_2853_24079)"/>
<path d="M37.854 35.4823V34.0166C37.854 34.0166 30.3479 36.6171 21.6684 39.216V40.2659L37.854 35.4823Z" fill="url(#paint34_linear_2853_24079)"/>
<path d="M37.854 12.1963V10.7305C37.854 10.7305 30.3479 13.3311 21.6684 15.9299V16.9798L37.854 12.1963Z" fill="url(#paint35_linear_2853_24079)"/>
<path d="M37.854 18.0178V16.552C37.854 16.552 30.3479 19.1526 21.6684 21.7515V22.8013L37.854 18.0178Z" fill="url(#paint36_linear_2853_24079)"/>
<path d="M37.854 15.107V13.6412C37.854 13.6412 30.3479 16.2418 21.6684 18.8407V19.8906L37.854 15.107Z" fill="url(#paint37_linear_2853_24079)"/>
<path d="M37.854 20.9285V19.4628C37.854 19.4628 30.3479 22.0633 21.6684 24.6622V25.7121L37.854 20.9285Z" fill="url(#paint38_linear_2853_24079)"/>
<path d="M45.3144 41.5467L47.3835 41.6046L47.3867 43.7148L38.3514 43.4622C37.041 43.4255 35.9496 43.0043 35.2128 42.2803C34.4761 41.5563 34.0939 40.5296 34.1353 39.2021C34.1694 38.1089 34.4721 37.2576 35.1172 36.4941C35.7623 35.7306 36.5356 35.2833 37.5061 35.1541L34.0552 28.4925L36.2623 28.5543L39.7846 35.1397L41.0958 37.3647L38.4749 37.2914C37.7852 37.2721 37.2285 37.4128 36.8025 37.7917C36.3765 38.1706 36.224 38.6352 36.2045 39.2599C36.185 39.8846 36.3748 40.437 36.71 40.759C37.0451 41.081 37.5895 41.3307 38.3482 41.3519L45.3144 41.5467L45.4483 37.2519L45.3144 41.5467Z" fill="url(#paint39_linear_2853_24079)"/>
<path d="M34.7622 34.2553L32.6941 34.169L32.7153 32.0586L41.746 32.4357C43.0558 32.4904 44.1421 32.9268 44.8703 33.6609C45.5986 34.3951 45.9688 35.4271 45.912 36.754C45.8652 37.8468 45.5527 38.6939 44.8989 39.4486C44.2451 40.2032 43.4667 40.6399 42.4949 40.7557L45.868 47.4649L43.662 47.3728L40.2167 40.7387L38.9315 38.4956L41.5511 38.605C42.2404 38.6338 42.7986 38.5007 43.2289 38.1277C43.6592 37.7547 43.8172 37.2921 43.8439 36.6677C43.8706 36.0432 43.6872 35.4882 43.3559 35.1616C43.0245 34.835 42.4831 34.5778 41.7248 34.5461L34.7622 34.2553L34.5785 38.5484L34.7622 34.2553Z" fill="url(#paint40_linear_2853_24079)"/>
<defs>
<linearGradient id="paint0_linear_2853_24079" x1="11.1126" y1="0" x2="11.1126" y2="47" gradientUnits="userSpaceOnUse">
<stop stop-color="#111921"/>
<stop offset="1" stop-color="#0D1116"/>
</linearGradient>
<linearGradient id="paint1_linear_2853_24079" x1="8.72766" y1="10.1858" x2="10.8325" y2="45.8521" gradientUnits="userSpaceOnUse">
<stop stop-color="#2A394A"/>
<stop offset="1" stop-color="#0D1116"/>
</linearGradient>
<linearGradient id="paint2_linear_2853_24079" x1="8.72766" y1="10.1858" x2="10.8325" y2="45.8521" gradientUnits="userSpaceOnUse">
<stop stop-color="#2A394A"/>
<stop offset="1" stop-color="#0D1116"/>
</linearGradient>
<linearGradient id="paint3_linear_2853_24079" x1="8.72766" y1="10.1858" x2="10.8325" y2="45.8521" gradientUnits="userSpaceOnUse">
<stop stop-color="#2A394A"/>
<stop offset="1" stop-color="#0D1116"/>
</linearGradient>
<linearGradient id="paint4_linear_2853_24079" x1="8.72766" y1="10.1858" x2="10.8325" y2="45.8521" gradientUnits="userSpaceOnUse">
<stop stop-color="#2A394A"/>
<stop offset="1" stop-color="#0D1116"/>
</linearGradient>
<linearGradient id="paint5_linear_2853_24079" x1="8.72766" y1="10.1858" x2="10.8325" y2="45.8521" gradientUnits="userSpaceOnUse">
<stop stop-color="#2A394A"/>
<stop offset="1" stop-color="#0D1116"/>
</linearGradient>
<linearGradient id="paint6_linear_2853_24079" x1="8.72766" y1="10.1858" x2="10.8325" y2="45.8521" gradientUnits="userSpaceOnUse">
<stop stop-color="#2A394A"/>
<stop offset="1" stop-color="#0D1116"/>
</linearGradient>
<linearGradient id="paint7_linear_2853_24079" x1="8.72766" y1="10.1858" x2="10.8325" y2="45.8521" gradientUnits="userSpaceOnUse">
<stop stop-color="#2A394A"/>
<stop offset="1" stop-color="#0D1116"/>
</linearGradient>
<linearGradient id="paint8_linear_2853_24079" x1="8.72766" y1="10.1858" x2="10.8325" y2="45.8521" gradientUnits="userSpaceOnUse">
<stop stop-color="#2A394A"/>
<stop offset="1" stop-color="#0D1116"/>
</linearGradient>
<linearGradient id="paint9_linear_2853_24079" x1="14.7852" y1="8.73046" x2="7.41894" y2="9.58593" gradientUnits="userSpaceOnUse">
<stop stop-color="#ECC271"/>
<stop offset="1" stop-color="#7F642E"/>
</linearGradient>
<linearGradient id="paint10_linear_2853_24079" x1="14.7852" y1="8.73046" x2="7.41894" y2="9.58593" gradientUnits="userSpaceOnUse">
<stop stop-color="#ECC271"/>
<stop offset="1" stop-color="#7F642E"/>
</linearGradient>
<linearGradient id="paint11_linear_2853_24079" x1="14.7852" y1="8.73046" x2="7.41894" y2="9.58593" gradientUnits="userSpaceOnUse">
<stop stop-color="#ECC271"/>
<stop offset="1" stop-color="#7F642E"/>
</linearGradient>
<linearGradient id="paint12_linear_2853_24079" x1="14.7852" y1="8.73046" x2="7.41894" y2="9.58593" gradientUnits="userSpaceOnUse">
<stop stop-color="#ECC271"/>
<stop offset="1" stop-color="#7F642E"/>
</linearGradient>
<linearGradient id="paint13_linear_2853_24079" x1="20.338" y1="1" x2="20.338" y2="48" gradientUnits="userSpaceOnUse">
<stop stop-color="#213040"/>
<stop offset="1" stop-color="#151C24"/>
</linearGradient>
<linearGradient id="paint14_linear_2853_24079" x1="17.953" y1="11.1858" x2="20.0578" y2="46.8521" gradientUnits="userSpaceOnUse">
<stop stop-color="#192736"/>
<stop offset="1" stop-color="#0D1116"/>
</linearGradient>
<linearGradient id="paint15_linear_2853_24079" x1="17.953" y1="11.1858" x2="20.0578" y2="46.8521" gradientUnits="userSpaceOnUse">
<stop stop-color="#192736"/>
<stop offset="1" stop-color="#0D1116"/>
</linearGradient>
<linearGradient id="paint16_linear_2853_24079" x1="17.953" y1="11.1858" x2="20.0578" y2="46.8521" gradientUnits="userSpaceOnUse">
<stop stop-color="#192736"/>
<stop offset="1" stop-color="#0D1116"/>
</linearGradient>
<linearGradient id="paint17_linear_2853_24079" x1="17.953" y1="11.1858" x2="20.0578" y2="46.8521" gradientUnits="userSpaceOnUse">
<stop stop-color="#192736"/>
<stop offset="1" stop-color="#0D1116"/>
</linearGradient>
<linearGradient id="paint18_linear_2853_24079" x1="17.953" y1="11.1858" x2="20.0578" y2="46.8521" gradientUnits="userSpaceOnUse">
<stop stop-color="#192736"/>
<stop offset="1" stop-color="#0D1116"/>
</linearGradient>
<linearGradient id="paint19_linear_2853_24079" x1="17.953" y1="11.1858" x2="20.0578" y2="46.8521" gradientUnits="userSpaceOnUse">
<stop stop-color="#192736"/>
<stop offset="1" stop-color="#0D1116"/>
</linearGradient>
<linearGradient id="paint20_linear_2853_24079" x1="17.953" y1="11.1858" x2="20.0578" y2="46.8521" gradientUnits="userSpaceOnUse">
<stop stop-color="#192736"/>
<stop offset="1" stop-color="#0D1116"/>
</linearGradient>
<linearGradient id="paint21_linear_2853_24079" x1="17.953" y1="11.1858" x2="20.0578" y2="46.8521" gradientUnits="userSpaceOnUse">
<stop stop-color="#192736"/>
<stop offset="1" stop-color="#0D1116"/>
</linearGradient>
<linearGradient id="paint22_linear_2853_24079" x1="24.0106" y1="23.6641" x2="16.6496" y2="24.5417" gradientUnits="userSpaceOnUse">
<stop stop-color="#ECC271"/>
<stop offset="1" stop-color="#7F642E"/>
</linearGradient>
<linearGradient id="paint23_linear_2853_24079" x1="24.0106" y1="23.6641" x2="16.6496" y2="24.5417" gradientUnits="userSpaceOnUse">
<stop stop-color="#ECC271"/>
<stop offset="1" stop-color="#7F642E"/>
</linearGradient>
<linearGradient id="paint24_linear_2853_24079" x1="24.0106" y1="23.6641" x2="16.6496" y2="24.5417" gradientUnits="userSpaceOnUse">
<stop stop-color="#ECC271"/>
<stop offset="1" stop-color="#7F642E"/>
</linearGradient>
<linearGradient id="paint25_linear_2853_24079" x1="24.0106" y1="23.6641" x2="16.6496" y2="24.5417" gradientUnits="userSpaceOnUse">
<stop stop-color="#ECC271"/>
<stop offset="1" stop-color="#7F642E"/>
</linearGradient>
<linearGradient id="paint26_linear_2853_24079" x1="29.338" y1="2" x2="29.338" y2="49" gradientUnits="userSpaceOnUse">
<stop stop-color="#2E4259"/>
<stop offset="1" stop-color="#151C24"/>
</linearGradient>
<linearGradient id="paint27_linear_2853_24079" x1="26.953" y1="12.1858" x2="29.0578" y2="47.8521" gradientUnits="userSpaceOnUse">
<stop stop-color="#172533"/>
<stop offset="1" stop-color="#0D1116"/>
</linearGradient>
<linearGradient id="paint28_linear_2853_24079" x1="26.953" y1="12.1858" x2="29.0578" y2="47.8521" gradientUnits="userSpaceOnUse">
<stop stop-color="#172533"/>
<stop offset="1" stop-color="#0D1116"/>
</linearGradient>
<linearGradient id="paint29_linear_2853_24079" x1="26.953" y1="12.1858" x2="29.0578" y2="47.8521" gradientUnits="userSpaceOnUse">
<stop stop-color="#172533"/>
<stop offset="1" stop-color="#0D1116"/>
</linearGradient>
<linearGradient id="paint30_linear_2853_24079" x1="26.953" y1="12.1858" x2="29.0578" y2="47.8521" gradientUnits="userSpaceOnUse">
<stop stop-color="#172533"/>
<stop offset="1" stop-color="#0D1116"/>
</linearGradient>
<linearGradient id="paint31_linear_2853_24079" x1="26.953" y1="12.1858" x2="29.0578" y2="47.8521" gradientUnits="userSpaceOnUse">
<stop stop-color="#172533"/>
<stop offset="1" stop-color="#0D1116"/>
</linearGradient>
<linearGradient id="paint32_linear_2853_24079" x1="26.953" y1="12.1858" x2="29.0578" y2="47.8521" gradientUnits="userSpaceOnUse">
<stop stop-color="#172533"/>
<stop offset="1" stop-color="#0D1116"/>
</linearGradient>
<linearGradient id="paint33_linear_2853_24079" x1="26.953" y1="12.1858" x2="29.0578" y2="47.8521" gradientUnits="userSpaceOnUse">
<stop stop-color="#172533"/>
<stop offset="1" stop-color="#0D1116"/>
</linearGradient>
<linearGradient id="paint34_linear_2853_24079" x1="26.953" y1="12.1858" x2="29.0578" y2="47.8521" gradientUnits="userSpaceOnUse">
<stop stop-color="#172533"/>
<stop offset="1" stop-color="#0D1116"/>
</linearGradient>
<linearGradient id="paint35_linear_2853_24079" x1="33.0106" y1="10.7305" x2="25.6583" y2="11.6435" gradientUnits="userSpaceOnUse">
<stop stop-color="#ECC271"/>
<stop offset="1" stop-color="#7F642E"/>
</linearGradient>
<linearGradient id="paint36_linear_2853_24079" x1="33.0106" y1="10.7305" x2="25.6583" y2="11.6435" gradientUnits="userSpaceOnUse">
<stop stop-color="#ECC271"/>
<stop offset="1" stop-color="#7F642E"/>
</linearGradient>
<linearGradient id="paint37_linear_2853_24079" x1="33.0106" y1="10.7305" x2="25.6583" y2="11.6435" gradientUnits="userSpaceOnUse">
<stop stop-color="#ECC271"/>
<stop offset="1" stop-color="#7F642E"/>
</linearGradient>
<linearGradient id="paint38_linear_2853_24079" x1="33.0106" y1="10.7305" x2="25.6583" y2="11.6435" gradientUnits="userSpaceOnUse">
<stop stop-color="#ECC271"/>
<stop offset="1" stop-color="#7F642E"/>
</linearGradient>
<linearGradient id="paint39_linear_2853_24079" x1="43.2589" y1="43.5994" x2="36.9918" y2="42.7316" gradientUnits="userSpaceOnUse">
<stop stop-color="#ECC271"/>
<stop offset="1" stop-color="#7F642E"/>
</linearGradient>
<linearGradient id="paint40_linear_2853_24079" x1="36.8411" y1="32.2309" x2="43.099" y2="33.1716" gradientUnits="userSpaceOnUse">
<stop stop-color="#ECC271"/>
<stop offset="1" stop-color="#7F642E"/>
</linearGradient>
</defs>
</svg>
