<svg width="48" height="48" viewBox="0 0 48 48" fill="none" xmlns="http://www.w3.org/2000/svg">
<path d="M36.054 9.99055L35.891 9.91009L35.8178 9.74379L35.031 7.95765C32.2239 5.78958 28.7046 4.5 24.8829 4.5H21.1171C17.2537 4.5 13.6994 5.81784 10.8774 8.02889L10.1102 9.73871L10.0267 9.92471L9.83699 9.99933L8.22337 10.6339C5.8953 13.4937 4.5 17.1418 4.5 21.1171V24.8829C4.5 28.8518 5.8908 32.4945 8.2121 35.3522L10.194 36.2416L10.38 36.325L10.4546 36.5147L11.0925 38.1368C13.879 40.2478 17.3512 41.5 21.1171 41.5H24.8829C28.5018 41.5 31.8492 40.3437 34.5777 38.3803L35.4506 36.6128L35.5311 36.4498L35.6974 36.3766L37.6543 35.5146C40.0558 32.6331 41.5 28.9273 41.5 24.8829V21.1171C41.5 17.2979 40.2121 13.7808 38.0467 10.9746L36.054 9.99055Z" stroke="#465F7B"/>
<path d="M10.5704 23.09L20.9246 24.8174L23.9373 24.8176L34.9977 23.09L23.9373 21.7043L20.9246 21.7043L10.5704 23.09Z" fill="#465F7B"/>
</svg>
