<svg width="21" height="28" viewBox="0 0 21 28" fill="none" xmlns="http://www.w3.org/2000/svg">
<g opacity="0.7">
<path d="M13.0906 13.9111L5.65381 4.51983C5.65381 4.51983 12.0394 9.73874 15.6572 13.9111L13.0906 13.9111Z" fill="url(#paint0_linear_16_11186)"/>
<path d="M13.0906 13.9111L5.65381 23.3024C5.65381 23.3024 12.0394 18.0835 15.6572 13.9111L13.0906 13.9111Z" fill="url(#paint1_linear_16_11186)"/>
</g>
<g opacity="0.4">
<path d="M10.9368 13.9111L3.5 4.51983C3.5 4.51983 9.88557 9.73874 13.5034 13.9111L10.9368 13.9111Z" fill="url(#paint2_linear_16_11186)"/>
<path d="M10.9368 13.9111L3.5 23.3024C3.5 23.3024 9.88557 18.0835 13.5034 13.9111L10.9368 13.9111Z" fill="url(#paint3_linear_16_11186)"/>
</g>
<path d="M15.2446 13.9111L7.80774 4.51983C7.80774 4.51983 14.1933 9.73874 17.8111 13.9111L15.2446 13.9111Z" fill="url(#paint4_linear_16_11186)"/>
<path d="M15.2446 13.9111L7.80774 23.3024C7.80774 23.3024 14.1933 18.0835 17.8111 13.9111L15.2446 13.9111Z" fill="url(#paint5_linear_16_11186)"/>
<defs>
<linearGradient id="paint0_linear_16_11186" x1="5.6538" y1="11.1009" x2="17.1887" y2="5.65702" gradientUnits="userSpaceOnUse">
<stop stop-color="#ECC271"/>
<stop offset="1" stop-color="#7F642E"/>
</linearGradient>
<linearGradient id="paint1_linear_16_11186" x1="5.6538" y1="16.7214" x2="17.1887" y2="22.1653" gradientUnits="userSpaceOnUse">
<stop stop-color="#ECC271"/>
<stop offset="1" stop-color="#7F642E"/>
</linearGradient>
<linearGradient id="paint2_linear_16_11186" x1="3.49999" y1="11.1009" x2="15.0349" y2="5.65702" gradientUnits="userSpaceOnUse">
<stop stop-color="#ECC271"/>
<stop offset="1" stop-color="#7F642E"/>
</linearGradient>
<linearGradient id="paint3_linear_16_11186" x1="3.49999" y1="16.7214" x2="15.0349" y2="22.1653" gradientUnits="userSpaceOnUse">
<stop stop-color="#ECC271"/>
<stop offset="1" stop-color="#7F642E"/>
</linearGradient>
<linearGradient id="paint4_linear_16_11186" x1="7.80773" y1="11.1009" x2="19.3427" y2="5.65702" gradientUnits="userSpaceOnUse">
<stop stop-color="#ECC271"/>
<stop offset="1" stop-color="#7F642E"/>
</linearGradient>
<linearGradient id="paint5_linear_16_11186" x1="7.80773" y1="16.7214" x2="19.3427" y2="22.1653" gradientUnits="userSpaceOnUse">
<stop stop-color="#ECC271"/>
<stop offset="1" stop-color="#7F642E"/>
</linearGradient>
</defs>
</svg>
