<svg width="33" height="33" viewBox="0 0 33 33" fill="none" xmlns="http://www.w3.org/2000/svg">
<path d="M5.1928 5.26131L5.35573 5.18085L5.42899 5.01455L6.10546 3.47877C8.52996 1.61071 11.567 0.5 14.8649 0.5H18.1351C21.4691 0.5 24.5367 1.63521 26.9742 3.54055L27.6338 5.01055L27.7172 5.19655L27.907 5.27117L29.2922 5.81592C31.2982 8.28612 32.5 11.4345 32.5 14.8649V18.1351C32.5 21.5605 31.3017 24.7048 29.3009 27.1733L27.5941 27.9392L27.4081 28.0227L27.3335 28.2124L26.7863 29.6038C24.3799 31.422 21.3841 32.5 18.1351 32.5H14.8649C11.7423 32.5 8.85364 31.5042 6.49739 29.8128L5.74663 28.2925L5.66617 28.1296L5.49987 28.0563L3.81455 27.314C1.74449 24.8247 0.5 21.6259 0.5 18.1351V14.8649C0.5 11.5687 1.60958 8.53304 3.47592 6.10915L5.1928 5.26131Z" fill="url(#paint0_linear_3346_28074)" stroke="#465F7B"/>
<g opacity="0.7">
<path d="M16.9976 19.5368L24.944 13.2441C24.944 13.2441 20.528 18.6473 16.9976 21.7085L16.9976 19.5368Z" fill="url(#paint1_linear_3346_28074)"/>
<path d="M16.9976 19.5368L9.05107 13.2441C9.05107 13.2441 13.4671 18.6473 16.9976 21.7085L16.9976 19.5368Z" fill="url(#paint2_linear_3346_28074)"/>
</g>
<g opacity="0.4">
<path d="M16.9976 17.7146L24.944 11.4219C24.944 11.4219 20.528 16.8251 16.9976 19.8863L16.9976 17.7146Z" fill="url(#paint3_linear_3346_28074)"/>
<path d="M16.9976 17.7146L9.05107 11.4219C9.05107 11.4219 13.4671 16.825 16.9976 19.8863L16.9976 17.7146Z" fill="url(#paint4_linear_3346_28074)"/>
</g>
<path d="M16.9976 21.3591L24.944 15.0664C24.944 15.0664 20.528 20.4696 16.9976 23.5308L16.9976 21.3591Z" fill="url(#paint5_linear_3346_28074)"/>
<path d="M16.9976 21.3591L9.05107 15.0664C9.05107 15.0664 13.4671 20.4696 16.9976 23.5308L16.9976 21.3591Z" fill="url(#paint6_linear_3346_28074)"/>
<defs>
<linearGradient id="paint0_linear_3346_28074" x1="16.5" y1="0" x2="16.5" y2="33" gradientUnits="userSpaceOnUse">
<stop stop-color="#272F35"/>
<stop offset="1" stop-opacity="0"/>
</linearGradient>
<linearGradient id="paint1_linear_3346_28074" x1="19.3755" y1="13.2441" x2="23.9818" y2="23.0045" gradientUnits="userSpaceOnUse">
<stop stop-color="#ECC271"/>
<stop offset="1" stop-color="#7F642E"/>
</linearGradient>
<linearGradient id="paint2_linear_3346_28074" x1="14.6196" y1="13.2441" x2="10.0133" y2="23.0045" gradientUnits="userSpaceOnUse">
<stop stop-color="#ECC271"/>
<stop offset="1" stop-color="#7F642E"/>
</linearGradient>
<linearGradient id="paint3_linear_3346_28074" x1="19.3755" y1="11.4219" x2="23.9818" y2="21.1822" gradientUnits="userSpaceOnUse">
<stop stop-color="#ECC271"/>
<stop offset="1" stop-color="#7F642E"/>
</linearGradient>
<linearGradient id="paint4_linear_3346_28074" x1="14.6196" y1="11.4219" x2="10.0133" y2="21.1822" gradientUnits="userSpaceOnUse">
<stop stop-color="#ECC271"/>
<stop offset="1" stop-color="#7F642E"/>
</linearGradient>
<linearGradient id="paint5_linear_3346_28074" x1="19.3755" y1="15.0664" x2="23.9818" y2="24.8267" gradientUnits="userSpaceOnUse">
<stop stop-color="#ECC271"/>
<stop offset="1" stop-color="#7F642E"/>
</linearGradient>
<linearGradient id="paint6_linear_3346_28074" x1="14.6196" y1="15.0664" x2="10.0133" y2="24.8267" gradientUnits="userSpaceOnUse">
<stop stop-color="#ECC271"/>
<stop offset="1" stop-color="#7F642E"/>
</linearGradient>
</defs>
</svg>
