<svg width="39" height="39" viewBox="0 0 39 39" fill="none" xmlns="http://www.w3.org/2000/svg">
<path d="M6.09669 6.1364L6.25963 6.05594L6.33288 5.88964L7.14168 4.05343C10.0254 1.82535 13.641 0.5 17.5676 0.5H21.4324C25.4017 0.5 29.0534 1.85437 31.9523 4.12656L32.741 5.88434L32.8245 6.07035L33.0142 6.14496L34.6735 6.79749C37.066 9.7352 38.5 13.4833 38.5 17.5676V21.4324C38.5 25.51 37.0707 29.2525 34.6853 32.188L32.6484 33.102L32.4624 33.1855L32.3878 33.3752L31.7317 35.0434C28.8692 37.213 25.3018 38.5 21.4324 38.5H17.5676C13.8494 38.5 10.4102 37.3116 7.60725 35.2938L6.70996 33.4768L6.6295 33.3139L6.4632 33.2407L4.45192 32.3547C1.98419 29.3948 0.5 25.5876 0.5 21.4324V17.5676C0.5 13.6437 1.82351 10.0304 4.04877 7.14772L6.09669 6.1364Z" fill="url(#paint0_linear_3346_27683)" stroke="#465F7B"/>
<path d="M24.4912 24.5039L27.8235 27.823" stroke="#546271" stroke-linecap="round" stroke-linejoin="round"/>
<path d="M13.5198 13.6718L13.6827 13.5914L13.7559 13.4251L14.0494 12.7589C15.1457 11.9316 16.5097 11.4414 17.9894 11.4414H19.54C21.0369 11.4414 22.4153 11.9431 23.5181 12.7878L23.8039 13.4248L23.8874 13.6108L24.0771 13.6854L24.6689 13.9182C25.5577 15.0361 26.0882 16.4503 26.0882 17.9896V19.5402C26.0882 21.0796 25.5576 22.4938 24.6689 23.6118L23.9173 23.949L23.7313 24.0325L23.6567 24.2222L23.4247 24.8123C22.3379 25.6145 20.995 26.0885 19.54 26.0885H17.9894C16.589 26.0885 15.2925 25.6494 14.2283 24.9013L13.9017 24.24L13.8212 24.077L13.6549 24.0038L12.913 23.677C11.9927 22.5491 11.4412 21.1097 11.4412 19.5402V17.9896C11.4412 16.5085 11.9323 15.1434 12.761 14.0465L13.5198 13.6718Z" stroke="#546271"/>
<defs>
<linearGradient id="paint0_linear_3346_27683" x1="19.5" y1="0" x2="19.5" y2="39" gradientUnits="userSpaceOnUse">
<stop stop-color="#272F35"/>
<stop offset="1" stop-opacity="0"/>
</linearGradient>
</defs>
</svg>
