<?xml version="1.0" encoding="UTF-8"?>
<svg version="1.1" viewBox="0 0 2048 2048" width="1280" height="1280" xmlns="http://www.w3.org/2000/svg">
<path transform="translate(407,315)" d="m0 0h10l30 3 23 5 26 8 24 9 39 16 37 16 43 19 36 16 42 19 36 16 35 16 36 16 242 109 140 63 42 19 36 16 35 16 29 13 200 90 37 17 30 14 29 14 30 15 27 16 14 10 13 10 12 11 2 1v2h2l7 8 8 10 8 13 8 17 6 18 4 18 2 17v26l-2 17-5 21-5 15-10 21-10 14-9 10-14 14-17 13-18 12-19 11-23 12-34 17-28 13-39 18-33 15-111 50-36 16-35 16-36 16-42 19-82 37-311 140-140 63-36 16-33 15-36 16-41 18-45 19-36 14-26 8-26 6-25 3h-24l-18-3-25-9-17-8-17-11-11-9-10-9-12-12-12-16-11-19-7-16-5-18-3-20v-28l3-25 5-26 9-34 15-49 16-49 14-43 14-41 57-171 14-41 10-33 1-6v-18l-6-23-14-43-65-195-14-43-16-48-20-64-12-42-7-30-4-28-1-12v-24l3-21 4-14 7-17 10-18 10-14 11-13 11-11 17-13 18-11 17-8 18-6 19-4zm5 102-11 3-15 6-10 8-7 7-8 11-6 12-2 10v11l3 22 6 27 12 42 15 48 12 36 20 61 34 102 14 43 30 90 5 16 1 1 486 1 12 4 9 6 7 6 7 11 4 10 1 4v19l-5 13-7 11-11 9-12 5-11 2-478 1-4 10-14 43-62 186-12 35-12 36-16 49-15 48-10 35-6 28-2 16v14l3 11 8 15 11 12 8 6 16 8 9 3h12l23-5 20-6 20-7 41-17 30-13 43-19 40-18 36-16 35-16 311-140 36-16 35-16 69-31 71-32 231-104 29-13 41-19 26-12 34-16 36-18 15-9 18-12 12-11 5-8 6-18 1-8v-14l-3-14-7-16-9-10-17-12-20-12-52-26-67-31-29-13-40-18-151-68-31-14-36-16-35-16-36-16-113-51-111-50-36-16-35-16-65-29-35-16-36-16-24-11-36-16-35-16-27-12-41-18-30-13-38-16-36-13-21-6-15-2z" fill="#7F7F7F"/>
</svg>

