<svg width="23" height="23" viewBox="0 0 23 23" fill="none" xmlns="http://www.w3.org/2000/svg">
<path d="M5.0644 5.93677L5.23064 5.86332L5.31091 5.70026L5.67226 4.96626C7.02471 4.04849 8.71692 3.5 10.5586 3.5H12.4414C14.3042 3.5 16.014 4.06111 17.374 4.99789L17.7261 5.69989L17.8166 5.88038L18.007 5.9474L18.7553 6.21069C19.8522 7.43736 20.5 8.9831 20.5 10.6577V12.3423C20.5 14.016 19.8529 15.561 18.7571 16.7873L17.8191 17.1639L17.6297 17.24L17.5476 17.4267L17.2612 18.0784C15.92 18.9693 14.253 19.5 12.4414 19.5H10.5586C8.815 19.5 7.2053 19.0084 5.89107 18.1771L5.4883 17.4474L5.40133 17.2898L5.23388 17.2238L4.30753 16.8587C3.17254 15.6212 2.5 14.0485 2.5 12.3423V10.6577C2.5 9.04749 3.09883 7.55686 4.11964 6.3542L5.0644 5.93677Z" stroke="#2F4252"/>
<circle cx="11.5" cy="11.5" r="3.5" fill="#2F4252"/>
</svg>
