<svg width="24" height="24" viewBox="0 0 24 24" fill="none" xmlns="http://www.w3.org/2000/svg">
<path fill-rule="evenodd" clip-rule="evenodd" d="M0 10.8108C0 8.29999 0.855949 5.98909 2.29197 4.15399L3.61557 3.50036L4.1446 2.29933C5.98121 0.858874 8.29571 0 10.8108 0H13.1892C15.7306 0 18.0671 0.876909 19.9128 2.34465L20.4291 3.49517L21.5246 3.92601C23.0709 5.79594 24 8.19487 24 10.8108V13.1892C24 15.7982 23.0758 18.1913 21.537 20.059L20.2173 20.6512L19.7822 21.7576C17.9575 23.1637 15.671 24 13.1892 24H10.8108C8.42837 24 6.22593 23.2293 4.43917 21.9237L3.85332 20.7374L2.55004 20.1633C0.959084 18.2807 0 15.847 0 13.1892V10.8108Z"/>
</svg>
