<svg width="52" height="52" viewBox="0 0 52 52" fill="none" xmlns="http://www.w3.org/2000/svg">
<path d="M5.62158 0L26.3087 6.99338L46.9959 0V42.8345L26.3087 49.3908L5.62158 42.8345V0Z" fill="#1F2B38"/>
<path d="M46.996 42.8345V0L26.3088 6.99338V49.3908L46.996 42.8345Z" fill="#131B24"/>
<path d="M8.43237 9.18732V7.64697C8.43237 7.64697 15.4191 10.3798 23.4979 13.1109V14.2142L8.43237 9.18732Z" fill="url(#paint0_linear_878_18866)"/>
<path d="M8.43237 24.4814V22.9411C8.43237 22.9411 15.4191 25.674 23.4979 28.4051V29.5083L8.43237 24.4814Z" fill="url(#paint1_linear_878_18866)"/>
<path d="M8.43237 15.305V13.7646C8.43237 13.7646 15.4191 16.4975 23.4979 19.2286V20.3318L8.43237 15.305Z" fill="url(#paint2_linear_878_18866)"/>
<path d="M8.43237 30.5991V29.0587C8.43237 29.0587 15.4191 31.7916 23.4979 34.5227V35.626L8.43237 30.5991Z" fill="url(#paint3_linear_878_18866)"/>
<path d="M8.43237 12.2461V10.7058C8.43237 10.7058 15.4191 13.4387 23.4979 16.1698V17.273L8.43237 12.2461Z" fill="url(#paint4_linear_878_18866)"/>
<path d="M8.43237 27.5403V25.9999C8.43237 25.9999 15.4191 28.7328 23.4979 31.4639V32.5671L8.43237 27.5403Z" fill="url(#paint5_linear_878_18866)"/>
<path d="M8.43237 18.3638V16.8234C8.43237 16.8234 15.4191 19.5563 23.4979 22.2874V23.3907L8.43237 18.3638Z" fill="url(#paint6_linear_878_18866)"/>
<path d="M8.43237 33.6579V32.1176C8.43237 32.1176 15.4191 34.8504 23.4979 37.5815V38.6848L8.43237 33.6579Z" fill="url(#paint7_linear_878_18866)"/>
<path d="M44.5791 9.18732V7.64697C44.5791 7.64697 37.5924 10.3798 29.5136 13.1109V14.2142L44.5791 9.18732Z" fill="url(#paint8_linear_878_18866)"/>
<path d="M44.5791 24.4814V22.9411C44.5791 22.9411 37.5924 25.674 29.5136 28.4051V29.5083L44.5791 24.4814Z" fill="url(#paint9_linear_878_18866)"/>
<path d="M44.5791 15.305V13.7646C44.5791 13.7646 37.5924 16.4975 29.5136 19.2286V20.3318L44.5791 15.305Z" fill="url(#paint10_linear_878_18866)"/>
<path d="M44.5791 30.5991V29.0587C44.5791 29.0587 37.5924 31.7916 29.5136 34.5227V35.626L44.5791 30.5991Z" fill="url(#paint11_linear_878_18866)"/>
<path d="M44.5791 12.2461V10.7058C44.5791 10.7058 37.5924 13.4387 29.5136 16.1698V17.273L44.5791 12.2461Z" fill="url(#paint12_linear_878_18866)"/>
<path d="M44.5791 27.5403V25.9999C44.5791 25.9999 37.5924 28.7328 29.5136 31.4639V32.5671L44.5791 27.5403Z" fill="url(#paint13_linear_878_18866)"/>
<path d="M44.5791 18.3638V16.8234C44.5791 16.8234 37.5924 19.5563 29.5136 22.2874V23.3907L44.5791 18.3638Z" fill="url(#paint14_linear_878_18866)"/>
<path d="M44.5791 33.6579V32.1176C44.5791 32.1176 37.5924 34.8504 29.5136 37.5815V38.6848L44.5791 33.6579Z" fill="url(#paint15_linear_878_18866)"/>
<path d="M44.5791 30.5992V29.0588C44.5791 29.0588 37.5924 31.7917 29.5136 34.5228V35.6261L44.5791 30.5992Z" fill="url(#paint16_linear_878_18866)"/>
<path d="M44.5791 27.5404V26C44.5791 26 37.5924 28.7329 29.5136 31.464V32.5672L44.5791 27.5404Z" fill="url(#paint17_linear_878_18866)"/>
<path d="M44.5791 33.658V32.1176C44.5791 32.1176 37.5924 34.8505 29.5136 37.5816V38.6849L44.5791 33.658Z" fill="url(#paint18_linear_878_18866)"/>
<path d="M8 30.5992V29.0588C8 29.0588 14.9867 31.7917 23.0655 34.5228V35.6261L8 30.5992Z" fill="url(#paint19_linear_878_18866)"/>
<path d="M8 27.5404V26C8 26 14.9867 28.7329 23.0655 31.464V32.5672L8 27.5404Z" fill="url(#paint20_linear_878_18866)"/>
<path d="M8 33.658V32.1176C8 32.1176 14.9867 34.8505 23.0655 37.5816V38.6849L8 33.658Z" fill="url(#paint21_linear_878_18866)"/>
<path d="M46.996 42.8346L49.8068 18.353L26.3088 46.7582V49.3909L46.996 42.8346Z" fill="#0D1217"/>
<path d="M5.6217 42.8346L2.81089 18.353L26.3088 46.7582V49.3909L5.6217 42.8346Z" fill="#151C23"/>
<path d="M46.996 42.8345L49.8068 29.0588L26.3088 46.7581V49.3908L46.996 42.8345Z" fill="#151C23"/>
<path d="M5.6217 42.8345L2.81089 29.0588L26.3088 46.7581V49.3908L5.6217 42.8345Z" fill="#24303D"/>
<path d="M5.6217 42.8345L2.81089 29.0588L26.3088 46.7581V49.3908L5.6217 42.8345Z" fill="#24303D"/>
<path d="M46.996 42.8345L49.8068 35.1765L26.3088 46.7581V49.3908L46.996 42.8345Z" fill="#222D39"/>
<path d="M5.6217 42.8345L2.81089 35.1765L26.3088 46.7581V49.3908L5.6217 42.8345Z" fill="#42566D"/>
<path d="M16.9079 24.9999C15.6617 24.9999 14.3021 24.4661 13.2825 23.6358C12.3761 22.8054 11.2432 21.382 11.2432 18.8909C11.2432 14.7984 14.4721 12.9598 16.5681 12.7818C19.1172 12.5446 22.5727 14.7984 26.1982 17.4081C29.767 14.917 33.1092 12.6632 35.6584 12.7818C37.6977 12.9005 40.7567 14.6205 40.7567 18.8909C40.7567 23.0427 37.7543 24.822 35.7717 24.9999C35.6584 24.9999 35.5451 24.9999 35.4318 24.9999C32.9393 24.9999 29.6537 22.8054 26.1982 20.3737C22.6294 22.8054 19.4571 24.9999 16.9079 24.9999ZM16.9079 15.2729C16.8513 15.2729 16.7947 15.2729 16.738 15.2729C15.8883 15.3322 12.6224 16.1626 12.6224 18.8909C12.6224 21.8564 15.7183 22.3902 16.9646 22.5089C18.6074 22.6868 22.5637 20.7295 25.2828 18.8909C22.4504 17.0522 18.6074 15.2729 16.9079 15.2729ZM27.1136 18.8909C29.8894 20.8482 33.9589 22.6275 35.5451 22.5089C36.5081 22.4496 39.3775 21.5599 39.3775 18.8909C39.3775 16.1626 36.5081 15.3322 35.4884 15.2729C33.8456 15.1543 29.8327 16.9929 27.1136 18.8909Z" fill="url(#paint22_linear_878_18866)"/>
<defs>
<linearGradient id="paint0_linear_878_18866" x1="13.1543" y1="30.5881" x2="13.1543" y2="79.9789" gradientUnits="userSpaceOnUse">
<stop stop-color="#111921"/>
<stop offset="1" stop-color="#0D1116"/>
</linearGradient>
<linearGradient id="paint1_linear_878_18866" x1="13.1543" y1="30.5881" x2="13.1543" y2="79.9789" gradientUnits="userSpaceOnUse">
<stop stop-color="#111921"/>
<stop offset="1" stop-color="#0D1116"/>
</linearGradient>
<linearGradient id="paint2_linear_878_18866" x1="13.1543" y1="30.5881" x2="13.1543" y2="79.9789" gradientUnits="userSpaceOnUse">
<stop stop-color="#111921"/>
<stop offset="1" stop-color="#0D1116"/>
</linearGradient>
<linearGradient id="paint3_linear_878_18866" x1="13.1543" y1="30.5881" x2="13.1543" y2="79.9789" gradientUnits="userSpaceOnUse">
<stop stop-color="#111921"/>
<stop offset="1" stop-color="#0D1116"/>
</linearGradient>
<linearGradient id="paint4_linear_878_18866" x1="13.1543" y1="30.5881" x2="13.1543" y2="79.9789" gradientUnits="userSpaceOnUse">
<stop stop-color="#111921"/>
<stop offset="1" stop-color="#0D1116"/>
</linearGradient>
<linearGradient id="paint5_linear_878_18866" x1="13.1543" y1="30.5881" x2="13.1543" y2="79.9789" gradientUnits="userSpaceOnUse">
<stop stop-color="#111921"/>
<stop offset="1" stop-color="#0D1116"/>
</linearGradient>
<linearGradient id="paint6_linear_878_18866" x1="13.1543" y1="30.5881" x2="13.1543" y2="79.9789" gradientUnits="userSpaceOnUse">
<stop stop-color="#111921"/>
<stop offset="1" stop-color="#0D1116"/>
</linearGradient>
<linearGradient id="paint7_linear_878_18866" x1="13.1543" y1="30.5881" x2="13.1543" y2="79.9789" gradientUnits="userSpaceOnUse">
<stop stop-color="#111921"/>
<stop offset="1" stop-color="#0D1116"/>
</linearGradient>
<linearGradient id="paint8_linear_878_18866" x1="34.4325" y1="9.17638" x2="36.9273" y2="46.6212" gradientUnits="userSpaceOnUse">
<stop stop-color="#2A394A"/>
<stop offset="1" stop-color="#0D1116"/>
</linearGradient>
<linearGradient id="paint9_linear_878_18866" x1="34.4325" y1="9.17638" x2="36.9273" y2="46.6212" gradientUnits="userSpaceOnUse">
<stop stop-color="#2A394A"/>
<stop offset="1" stop-color="#0D1116"/>
</linearGradient>
<linearGradient id="paint10_linear_878_18866" x1="34.4325" y1="9.17638" x2="36.9273" y2="46.6212" gradientUnits="userSpaceOnUse">
<stop stop-color="#2A394A"/>
<stop offset="1" stop-color="#0D1116"/>
</linearGradient>
<linearGradient id="paint11_linear_878_18866" x1="34.4325" y1="9.17638" x2="36.9273" y2="46.6212" gradientUnits="userSpaceOnUse">
<stop stop-color="#2A394A"/>
<stop offset="1" stop-color="#0D1116"/>
</linearGradient>
<linearGradient id="paint12_linear_878_18866" x1="34.4325" y1="9.17638" x2="36.9273" y2="46.6212" gradientUnits="userSpaceOnUse">
<stop stop-color="#2A394A"/>
<stop offset="1" stop-color="#0D1116"/>
</linearGradient>
<linearGradient id="paint13_linear_878_18866" x1="34.4325" y1="9.17638" x2="36.9273" y2="46.6212" gradientUnits="userSpaceOnUse">
<stop stop-color="#2A394A"/>
<stop offset="1" stop-color="#0D1116"/>
</linearGradient>
<linearGradient id="paint14_linear_878_18866" x1="34.4325" y1="9.17638" x2="36.9273" y2="46.6212" gradientUnits="userSpaceOnUse">
<stop stop-color="#2A394A"/>
<stop offset="1" stop-color="#0D1116"/>
</linearGradient>
<linearGradient id="paint15_linear_878_18866" x1="34.4325" y1="9.17638" x2="36.9273" y2="46.6212" gradientUnits="userSpaceOnUse">
<stop stop-color="#2A394A"/>
<stop offset="1" stop-color="#0D1116"/>
</linearGradient>
<linearGradient id="paint16_linear_878_18866" x1="40.0709" y1="26" x2="34.2139" y2="41.6999" gradientUnits="userSpaceOnUse">
<stop stop-color="#ECC271"/>
<stop offset="1" stop-color="#7F642E"/>
</linearGradient>
<linearGradient id="paint17_linear_878_18866" x1="40.0709" y1="26" x2="34.2139" y2="41.6999" gradientUnits="userSpaceOnUse">
<stop stop-color="#ECC271"/>
<stop offset="1" stop-color="#7F642E"/>
</linearGradient>
<linearGradient id="paint18_linear_878_18866" x1="40.0709" y1="26" x2="34.2139" y2="41.6999" gradientUnits="userSpaceOnUse">
<stop stop-color="#ECC271"/>
<stop offset="1" stop-color="#7F642E"/>
</linearGradient>
<linearGradient id="paint19_linear_878_18866" x1="12.5082" y1="26" x2="18.3652" y2="41.6999" gradientUnits="userSpaceOnUse">
<stop stop-color="#ECC271"/>
<stop offset="1" stop-color="#7F642E"/>
</linearGradient>
<linearGradient id="paint20_linear_878_18866" x1="12.5082" y1="26" x2="18.3652" y2="41.6999" gradientUnits="userSpaceOnUse">
<stop stop-color="#ECC271"/>
<stop offset="1" stop-color="#7F642E"/>
</linearGradient>
<linearGradient id="paint21_linear_878_18866" x1="12.5082" y1="26" x2="18.3652" y2="41.6999" gradientUnits="userSpaceOnUse">
<stop stop-color="#ECC271"/>
<stop offset="1" stop-color="#7F642E"/>
</linearGradient>
<linearGradient id="paint22_linear_878_18866" x1="20.0749" y1="12.7646" x2="23.1401" y2="29.4526" gradientUnits="userSpaceOnUse">
<stop stop-color="#ECC271"/>
<stop offset="1" stop-color="#7F642E"/>
</linearGradient>
</defs>
</svg>
