<svg width="50" height="50" viewBox="0 0 50 50" fill="none" xmlns="http://www.w3.org/2000/svg">
<path d="M0 0L24.2001 6.97015L48.4002 0V42.6922L24.2001 49.2267L0 42.6922V0Z" fill="url(#paint0_linear_878_18766)"/>
<path d="M48.4003 42.6922V0L24.2002 6.97015V49.2267L48.4003 42.6922Z" fill="url(#paint1_linear_878_18766)"/>
<path d="M31.8944 31.1639L32.1901 18.982L40.4153 12.3907C40.2781 13.1589 40 14.8418 39.9858 15.4284C39.9716 16.0149 40.1713 17.5578 40.273 18.256C39.5295 17.9388 37.803 17.4007 36.8448 17.786C35.647 18.2677 35.0174 19.7774 34.9804 21.3002C34.9434 22.8229 35.7349 24.4202 37.3904 24.6257C39.0459 24.8311 40.1429 23.6137 40.3276 23.3356C40.4753 23.1132 41.0433 22.3544 41.3088 22.0028C41.8483 22.5789 42.4048 23.2682 43.4553 23.9683C44.5058 24.6684 45.7027 25.0332 46.5652 25.3342C46.0079 25.4912 44.5928 25.9681 43.391 26.619C42.1891 27.2698 41.3962 28.1741 41.15 28.5449C41.0558 28.3548 40.741 27.8024 40.2359 27.1143C39.6044 26.254 38.6146 25.4988 37.3658 25.6408C36.117 25.7828 34.962 26.9425 34.7942 28.9702C34.6264 30.9979 35.4881 32.1453 36.4848 32.6185C37.2821 32.9971 39.1161 32.5256 39.9335 32.2425C39.8174 32.9547 39.5697 34.5255 39.508 35.111C39.4464 35.6965 39.6711 37.3529 39.7911 38.1079L31.8944 31.1639Z" fill="#182236"/>
<path fill-rule="evenodd" clip-rule="evenodd" d="M31.2338 18.5483L41.8099 10.0731L41.3683 12.5448C41.2258 13.3421 40.9643 14.9464 40.9521 15.4502C40.94 15.9463 41.1247 17.4053 41.2304 18.131L41.4695 19.773L39.8766 19.0934C39.5584 18.9577 39.0085 18.7671 38.4443 18.6568C37.8337 18.5374 37.4138 18.5542 37.2218 18.6314C36.9085 18.7574 36.5979 19.0484 36.3516 19.5444C36.1072 20.0368 35.9626 20.6649 35.9467 21.322C35.9317 21.9384 36.0877 22.5367 36.3732 22.9756C36.6471 23.3968 37.0228 23.6554 37.5157 23.7166C38.0543 23.7835 38.5126 23.6241 38.881 23.3951C39.0658 23.2803 39.2187 23.1529 39.3327 23.0424C39.3893 22.9875 39.4338 22.9391 39.4659 22.9017C39.4932 22.8698 39.5068 22.8511 39.5097 22.8472C39.5103 22.8464 39.5104 22.8462 39.5101 22.8467C39.6776 22.5945 40.2674 21.8076 40.5232 21.469L41.2277 20.5361L42.0311 21.3939C42.1217 21.4906 42.2096 21.5866 42.2972 21.6823C42.7651 22.1932 43.2226 22.6929 44.0107 23.2181L43.4553 23.969C42.8078 23.5375 42.348 23.1101 41.9642 22.7108C41.8196 22.5604 41.6858 22.414 41.5568 22.2728C41.4726 22.1807 41.3905 22.0908 41.3087 22.0035C41.1667 22.1915 40.9382 22.496 40.7337 22.7727C40.5559 23.0133 40.3963 23.2328 40.3275 23.3363C40.1429 23.6144 39.0459 24.8318 37.3904 24.6263C35.7349 24.4208 34.9434 22.8236 34.9803 21.3008C35.0173 19.7781 35.647 18.2683 36.8447 17.7867C37.4788 17.5317 38.4492 17.681 39.2486 17.9032C39.6574 18.0167 40.0214 18.1493 40.2729 18.2566C40.2349 17.9958 40.1833 17.6172 40.1342 17.2145C40.0519 16.5392 39.9768 15.7965 39.9857 15.429C39.9937 15.1024 40.0834 14.4358 40.1851 13.7765C40.266 13.2518 40.3545 12.7318 40.4153 12.3914L32.1901 18.9827L31.8944 31.1646L39.7911 38.1085C39.7359 37.7614 39.6586 37.2238 39.5971 36.6873C39.5249 36.0569 39.4747 35.428 39.508 35.1117C39.5474 34.7372 39.6629 33.9597 39.7715 33.2616C39.8326 32.8681 39.8916 32.4999 39.9334 32.2432C39.6728 32.3335 39.3089 32.4429 38.9081 32.5378C38.052 32.7405 37.0278 32.8771 36.4847 32.6192C35.488 32.146 34.6263 30.9986 34.7942 28.9709C34.962 26.9432 36.1169 25.7834 37.3657 25.6415C38.6145 25.4995 39.6044 26.2547 40.2358 27.1149C40.3816 27.3136 40.5116 27.5009 40.6249 27.6715C40.9043 28.0918 41.0829 28.4103 41.1499 28.5456C41.2625 28.3761 41.4891 28.0953 41.8168 27.7781C42.2062 27.4012 42.7383 26.9731 43.3909 26.6196C43.9679 26.3072 44.5941 26.0348 45.1509 25.8187C45.7538 25.5846 46.2754 25.4165 46.5652 25.3348C46.4649 25.2998 46.3601 25.264 46.2516 25.2268C45.9143 25.1114 45.5406 24.9836 45.1533 24.8305C44.5931 24.6091 44.0042 24.3348 43.4553 23.969L44.0107 23.2181C44.8257 23.7613 45.7416 24.0758 46.5748 24.3619C46.6844 24.3995 46.7925 24.4366 46.8987 24.4737L49.6316 25.4275L46.8403 26.2143C46.3281 26.3587 44.9875 26.8113 43.8699 27.4165C42.8208 27.9847 42.1389 28.7768 41.9676 29.0348L41.0265 30.4521L40.2753 28.9361C40.2082 28.8008 39.9227 28.2932 39.4428 27.6394C38.8972 26.8962 38.2082 26.4697 37.4807 26.5524C36.841 26.6251 35.903 27.288 35.7578 29.0427C35.6149 30.7688 36.3348 31.5222 36.9171 31.7987C36.9171 31.7987 36.9426 31.8102 37.0064 31.8216C37.0689 31.8327 37.1532 31.841 37.2608 31.8426C37.4787 31.846 37.7455 31.822 38.0405 31.7747C38.6312 31.6799 39.2364 31.508 39.6021 31.3813L41.1388 30.8491L40.8886 32.3835C40.771 33.1052 40.5282 34.6477 40.4698 35.2029C40.4504 35.3863 40.4773 35.8515 40.5428 36.452C40.6044 37.0166 40.6885 37.605 40.7468 37.9716L41.1587 40.5618L30.918 31.5567L31.2338 18.5483Z" fill="url(#paint2_linear_878_18766)"/>
<path d="M29.7666 17.0831L16.9293 17.1311L9.76571 9.50451C10.5784 9.61402 12.3584 9.83246 12.9764 9.83015C13.5945 9.82784 15.2141 9.59668 15.9466 9.48138C15.6326 10.1954 15.1125 11.8481 15.5441 12.7469C16.0837 13.8703 17.6907 14.4271 19.2954 14.4211C20.9 14.4151 22.5608 13.621 22.7326 12.0447C22.9043 10.4683 21.5926 9.46026 21.2948 9.29255C21.0565 9.15838 20.2421 8.63994 19.8647 8.39749C20.4568 7.87004 21.1677 7.32339 21.8767 6.30778C22.5857 5.29217 22.9375 4.14659 23.2313 3.32012C23.4117 3.84468 23.9522 5.17451 24.67 6.29733C25.3879 7.42015 26.3616 8.14808 26.7588 8.3717C26.5611 8.46623 25.9878 8.77976 25.2767 9.27765C24.3878 9.9 23.6192 10.8596 23.8024 12.0406C23.9856 13.2217 25.2381 14.2863 27.3781 14.3908C29.5181 14.4954 30.7033 13.6468 31.1747 12.6884C31.5519 11.9216 31.0059 10.1941 30.6857 9.42623C31.4389 9.5172 33.0999 9.70983 33.7182 9.75253C34.3365 9.79524 36.0748 9.53737 36.8667 9.4031L29.7666 17.0831Z" fill="#182236"/>
<path fill-rule="evenodd" clip-rule="evenodd" d="M16.4977 18.0499L7.28669 8.24347L9.90165 8.59583C10.7452 8.70949 12.4419 8.91435 12.9727 8.91236C13.4955 8.91041 15.0271 8.69579 15.7886 8.57595L17.5114 8.30479L16.8386 9.83447C16.7042 10.1401 16.5184 10.667 16.4174 11.2053C16.3081 11.7879 16.3372 12.1859 16.4237 12.366C16.5648 12.6598 16.8797 12.9467 17.4087 13.167C17.9338 13.3857 18.5992 13.5059 19.2916 13.5033C19.9413 13.5009 20.5671 13.3367 21.0217 13.054C21.4579 12.7827 21.7201 12.4192 21.7712 11.9499C21.8271 11.4371 21.6469 11.0065 21.3958 10.6631C21.2699 10.4909 21.1317 10.3492 21.0122 10.2441C20.9529 10.1919 20.9007 10.1509 20.8604 10.1215C20.826 10.0965 20.806 10.084 20.8018 10.0814C20.8008 10.0807 20.8008 10.0808 20.8018 10.0814C20.5321 9.92953 19.6867 9.3906 19.323 9.15696L18.3215 8.51362L19.2033 7.72815C19.3027 7.63965 19.4014 7.55363 19.4998 7.46796C20.0253 7.01022 20.5392 6.56259 21.071 5.80068C21.6211 5.01269 21.9276 4.13523 22.2065 3.33685C22.2431 3.23191 22.2793 3.12834 22.3155 3.02652L23.2462 0.407687L24.1502 3.03497C24.316 3.51707 24.8289 4.77692 25.4964 5.82102C26.123 6.80114 26.9757 7.42672 27.252 7.58229L28.7701 8.43704L27.1937 9.19073C27.053 9.258 26.5261 9.54264 25.8506 10.0156C25.0826 10.5533 24.652 11.2186 24.7587 11.9067C24.8526 12.5117 25.576 13.3838 27.4279 13.4742C29.2496 13.5632 30.0236 12.8599 30.299 12.2999C30.299 12.2999 30.3105 12.2754 30.3208 12.2146C30.3308 12.1549 30.3372 12.0748 30.3361 11.9726C30.3337 11.7657 30.3013 11.5133 30.2435 11.2346C30.1277 10.6767 29.9303 10.1071 29.7871 9.7635L29.1851 8.31978L30.8078 8.51578C31.571 8.60796 33.2021 8.79666 33.7884 8.83716C33.982 8.85054 34.4712 8.81254 35.1019 8.73415C35.6949 8.66047 36.3123 8.5648 36.6968 8.49961L39.4135 8.03895L30.206 17.9986L16.4977 18.0499ZM29.7667 17.0828L16.9294 17.1308L9.7658 9.50417C10.126 9.5527 10.6761 9.62263 11.2308 9.68525C11.9279 9.76394 12.6323 9.8311 12.9765 9.82981C13.3637 9.82836 14.1439 9.73711 14.8529 9.64079C15.2756 9.58335 15.673 9.52411 15.9467 9.48105C15.8404 9.7226 15.7106 10.0716 15.602 10.4625C15.3897 11.227 15.2586 12.1518 15.5442 12.7465C16.0838 13.87 17.6908 14.4267 19.2954 14.4207C20.9001 14.4147 22.5609 13.6207 22.7327 12.0443C22.9044 10.468 21.5927 9.45992 21.2949 9.29221C21.184 9.2298 20.9485 9.08424 20.6903 8.92198C20.3935 8.73544 20.0666 8.52682 19.8647 8.39715C19.9545 8.31723 20.0469 8.23687 20.1417 8.1545C20.2869 8.0283 20.4375 7.8974 20.592 7.75616C21.0021 7.38119 21.4398 6.93338 21.8768 6.30744C22.2473 5.77675 22.5202 5.21058 22.7383 4.67299C22.8891 4.30137 23.0136 3.9434 23.1261 3.62026C23.1623 3.51626 23.1972 3.41587 23.2313 3.31978C23.3252 3.59251 23.5163 4.08289 23.7791 4.64868C24.0217 5.17115 24.3255 5.75793 24.6701 6.29699C25.0599 6.90669 25.5252 7.39996 25.9326 7.75927C26.2755 8.06166 26.5774 8.26917 26.7589 8.37136C26.6182 8.4386 26.2876 8.61667 25.8524 8.89308C25.6758 9.00524 25.4821 9.13359 25.2768 9.27731C24.3879 9.89966 23.6193 10.8592 23.8025 12.0403C23.9857 13.2214 25.2382 14.2859 27.3782 14.3905C29.5182 14.495 30.7034 13.6465 31.1748 12.688C31.4318 12.1657 31.2603 11.1977 31.0237 10.3908C30.9129 10.0131 30.7879 9.67072 30.6858 9.42589C30.9573 9.45868 31.3467 9.50468 31.7627 9.5521C32.5009 9.63624 33.3228 9.72488 33.7183 9.7522C34.0523 9.77527 34.7132 9.71061 35.3753 9.62511C35.9386 9.55235 36.5027 9.46449 36.8668 9.40276L29.7667 17.0828Z" fill="url(#paint3_linear_878_18766)"/>
<path d="M16.9675 33.2317L29.8046 33.1397L36.9971 40.7417C36.184 40.635 34.4032 40.4226 33.7852 40.4271C33.1671 40.4315 31.5484 40.6682 30.8164 40.786C31.1276 40.0709 31.6415 38.4165 31.2064 37.5192C30.6626 36.3975 29.0535 35.8463 27.4488 35.8578C25.8442 35.8693 24.1864 36.6691 24.0207 38.246C23.8549 39.8229 25.1704 40.8265 25.4689 40.9932C25.7077 41.1265 26.5241 41.6422 26.9024 41.8833C26.3123 42.4128 25.6035 42.9619 24.8983 43.9799C24.1932 44.9979 23.8457 46.1447 23.5552 46.9722C23.3727 46.4482 22.8272 45.1203 22.1051 43.9999C21.383 42.8796 20.4065 42.155 20.0085 41.9327C20.2058 41.8375 20.7778 41.522 21.4871 41.0217C22.3736 40.3963 23.1386 39.4341 22.9509 38.2537C22.7632 37.0732 21.5066 36.013 19.3662 35.9157C17.2258 35.8185 16.0439 36.6712 15.5761 37.6312C15.2018 38.3992 15.7544 40.1248 16.0775 40.8916C15.324 40.8033 13.6623 40.6163 13.0439 40.5757C12.4254 40.5351 10.6881 40.799 9.89671 40.9359L16.9675 33.2317Z" fill="#182236"/>
<path fill-rule="evenodd" clip-rule="evenodd" d="M30.2329 32.2192L39.4811 41.994L36.8648 41.6506C36.0209 41.5398 34.3234 41.3408 33.7926 41.3446C33.2698 41.3483 31.739 41.5682 30.978 41.6906L29.2562 41.9677L29.9232 40.4357C30.0564 40.1296 30.2403 39.6021 30.3392 39.0635C30.4462 38.4805 30.4156 38.0826 30.3285 37.9028C30.1862 37.6095 29.8703 37.3236 29.3405 37.1052C28.8145 36.8883 28.1487 36.7704 27.4563 36.7753C26.8066 36.78 26.1814 36.9463 25.7279 37.2305C25.2927 37.5033 25.0319 37.8677 24.9826 38.3372C24.9286 38.8502 25.1105 39.2802 25.3629 39.6227C25.4895 39.7944 25.6282 39.9357 25.7481 40.0404C25.8076 40.0924 25.86 40.1332 25.9004 40.1624C25.9348 40.1874 25.9548 40.1998 25.9591 40.2024C25.9601 40.203 25.9601 40.2029 25.9591 40.2024C26.2294 40.3533 27.0768 40.8893 27.4414 41.1217L28.4453 41.7616L27.5665 42.5501C27.4675 42.639 27.3691 42.7253 27.2711 42.8113C26.7473 43.2709 26.2351 43.7203 25.7061 44.484C25.159 45.2739 24.8559 46.1524 24.5801 46.9517C24.5438 47.0567 24.5081 47.1604 24.4723 47.2624L23.5515 49.8844L22.6376 47.2602C22.4699 46.7787 21.9522 45.5206 21.2807 44.4788C20.6504 43.5008 19.7953 42.8782 19.5184 42.7236L17.9971 41.874L19.5706 41.1149C19.7111 41.0472 20.2368 40.7607 20.9106 40.2854C21.6765 39.7451 22.1046 39.0784 21.9953 38.3907C21.8991 37.786 21.1724 36.9164 19.3202 36.8322C17.4981 36.7495 16.7268 37.4555 16.4535 38.0164C16.4535 38.0164 16.4421 38.041 16.4321 38.1018C16.4223 38.1615 16.4162 38.2417 16.4177 38.3439C16.4208 38.5507 16.4542 38.803 16.5131 39.0815C16.631 39.6391 16.8305 40.208 16.9751 40.551L17.5825 41.9927L15.9591 41.8023C15.1955 41.7127 13.5638 41.5296 12.9773 41.4911C12.7836 41.4784 12.2946 41.518 11.6642 41.5986C11.0715 41.6743 10.4545 41.7721 10.0702 41.8386L7.35526 42.3086L16.5249 32.3175L30.2329 32.2192ZM16.9676 33.2318L29.8047 33.1398L36.9972 40.7418C36.6369 40.6945 36.0865 40.6265 35.5315 40.5657C34.8341 40.4894 34.1295 40.4247 33.7853 40.4272C33.3981 40.4299 32.6182 40.5239 31.9097 40.6226C31.4871 40.6815 31.0899 40.7421 30.8165 40.7861C30.9218 40.5442 31.0503 40.1948 31.1574 39.8035C31.3668 39.0383 31.4944 38.113 31.2065 37.5193C30.6627 36.3976 29.0536 35.8464 27.449 35.8579C25.8443 35.8694 24.1865 36.6692 24.0208 38.2461C23.855 39.823 25.1706 40.8266 25.469 40.9932C25.5801 41.0553 25.8162 41.2 26.075 41.3614C26.3726 41.5469 26.7002 41.7544 26.9026 41.8834C26.8131 41.9636 26.721 42.0443 26.6265 42.127C26.4818 42.2537 26.3317 42.3851 26.1778 42.5269C25.769 42.9032 25.333 43.3525 24.8985 43.98C24.53 44.5119 24.2592 45.079 24.0432 45.6174C23.8938 45.9895 23.7706 46.3479 23.6594 46.6714C23.6236 46.7756 23.5891 46.8761 23.5553 46.9723C23.4604 46.6999 23.2674 46.2101 23.0025 45.6453C22.7579 45.1236 22.4519 44.5379 22.1052 44C21.7131 43.3916 21.246 42.9 20.8372 42.5421C20.4932 42.2408 20.1905 42.0344 20.0086 41.9328C20.149 41.8651 20.4789 41.6859 20.913 41.408C21.0892 41.2952 21.2825 41.1662 21.4872 41.0218C22.3737 40.3964 23.1387 39.4342 22.951 38.2537C22.7633 37.0733 21.5068 36.013 19.3664 35.9158C17.226 35.8186 16.0441 36.6712 15.5762 37.6313C15.3213 38.1545 15.4964 39.1219 15.7361 39.928C15.8483 40.3053 15.9746 40.6473 16.0776 40.8917C15.806 40.8599 15.4165 40.8152 15.0003 40.7692C14.2618 40.6876 13.4395 40.6018 13.044 40.5758C12.7099 40.5539 12.0492 40.6208 11.3875 40.7086C10.8244 40.7833 10.2607 40.8731 9.89683 40.936L16.9676 33.2318Z" fill="url(#paint4_linear_878_18766)"/>
<path d="M29.8777 24.6496L29.8676 25.9878L17.474 25.9131L17.4841 24.5749L29.8777 24.6496Z" fill="url(#paint5_linear_878_18766)"/>
<path d="M25.2069 25.5172L26.6908 25.5173L26.6903 31.0077L25.2063 31.0076L25.2069 25.5172Z" fill="url(#paint6_linear_878_18766)"/>
<path d="M25.9318 19.3262L27.4158 19.3263L27.4152 24.9012L25.9313 24.9011L25.9318 19.3262Z" fill="url(#paint7_linear_878_18766)"/>
<path d="M21.5818 21.8493L23.0657 21.8494L23.0655 23.9122L21.5816 23.9121L21.5818 21.8493Z" fill="url(#paint8_linear_878_18766)"/>
<path d="M23.9982 21.8493L25.4821 21.8494L25.4819 23.9122L23.998 23.9121L23.9982 21.8493Z" fill="url(#paint9_linear_878_18766)"/>
<path d="M22.79 19.3262L24.2739 19.3263L24.2737 21.3892L22.7898 21.389L22.79 19.3262Z" fill="url(#paint10_linear_878_18766)"/>
<path d="M19.649 19.3262L21.133 19.3263L21.1324 24.9012L19.6485 24.9011L19.649 19.3262Z" fill="url(#paint11_linear_878_18766)"/>
<path d="M17.4743 19.3262L18.9582 19.3263L18.9577 24.9012L17.4738 24.9011L17.4743 19.3262Z" fill="url(#paint12_linear_878_18766)"/>
<path d="M20.3741 25.5172L21.858 25.5173L21.8574 31.0077L20.3735 31.0075L20.3741 25.5172Z" fill="url(#paint13_linear_878_18766)"/>
<path d="M22.79 25.5172L24.2739 25.5173L24.2734 31.0219L22.7895 31.0218L22.79 25.5172Z" fill="url(#paint14_linear_878_18766)"/>
<path d="M17.4735 25.3447L18.9574 25.3449L18.9568 31.0227L17.4729 31.0225L17.4735 25.3447Z" fill="url(#paint15_linear_878_18766)"/>
<path d="M28.3924 19.3263L29.8763 19.3264L29.8758 24.9013L28.3919 24.9011L28.3924 19.3263Z" fill="url(#paint16_linear_878_18766)"/>
<path d="M28.3887 25.3186L29.8726 25.3187L29.872 30.9965L28.3881 30.9964L28.3887 25.3186Z" fill="url(#paint17_linear_878_18766)"/>
<defs>
<linearGradient id="paint0_linear_878_18766" x1="24.2001" y1="0" x2="24.2001" y2="49.2267" gradientUnits="userSpaceOnUse">
<stop stop-color="#394B5E"/>
<stop offset="1" stop-color="#1A2632"/>
</linearGradient>
<linearGradient id="paint1_linear_878_18766" x1="36.3002" y1="0" x2="36.3002" y2="49.2267" gradientUnits="userSpaceOnUse">
<stop stop-color="#1B2530"/>
<stop offset="1" stop-color="#090F15"/>
</linearGradient>
<linearGradient id="paint2_linear_878_18766" x1="49.7786" y1="19.3751" x2="46.9147" y2="32.9032" gradientUnits="userSpaceOnUse">
<stop stop-color="#ECC271"/>
<stop offset="1" stop-color="#7F642E"/>
</linearGradient>
<linearGradient id="paint3_linear_878_18766" x1="16.8682" y1="0.431542" x2="31.0766" y2="3.34859" gradientUnits="userSpaceOnUse">
<stop stop-color="#ECC271"/>
<stop offset="1" stop-color="#7F642E"/>
</linearGradient>
<linearGradient id="paint4_linear_878_18766" x1="29.9293" y1="49.8387" x2="15.7089" y2="46.9753" gradientUnits="userSpaceOnUse">
<stop stop-color="#ECC271"/>
<stop offset="1" stop-color="#7F642E"/>
</linearGradient>
<linearGradient id="paint5_linear_878_18766" x1="21.1849" y1="19.3262" x2="26.8229" y2="20.0134" gradientUnits="userSpaceOnUse">
<stop stop-color="#ECC271"/>
<stop offset="1" stop-color="#7F642E"/>
</linearGradient>
<linearGradient id="paint6_linear_878_18766" x1="21.1849" y1="19.3262" x2="26.8229" y2="20.0134" gradientUnits="userSpaceOnUse">
<stop stop-color="#ECC271"/>
<stop offset="1" stop-color="#7F642E"/>
</linearGradient>
<linearGradient id="paint7_linear_878_18766" x1="21.1849" y1="19.3262" x2="26.8229" y2="20.0134" gradientUnits="userSpaceOnUse">
<stop stop-color="#ECC271"/>
<stop offset="1" stop-color="#7F642E"/>
</linearGradient>
<linearGradient id="paint8_linear_878_18766" x1="21.1849" y1="19.3262" x2="26.8229" y2="20.0134" gradientUnits="userSpaceOnUse">
<stop stop-color="#ECC271"/>
<stop offset="1" stop-color="#7F642E"/>
</linearGradient>
<linearGradient id="paint9_linear_878_18766" x1="21.1849" y1="19.3262" x2="26.8229" y2="20.0134" gradientUnits="userSpaceOnUse">
<stop stop-color="#ECC271"/>
<stop offset="1" stop-color="#7F642E"/>
</linearGradient>
<linearGradient id="paint10_linear_878_18766" x1="21.1849" y1="19.3262" x2="26.8229" y2="20.0134" gradientUnits="userSpaceOnUse">
<stop stop-color="#ECC271"/>
<stop offset="1" stop-color="#7F642E"/>
</linearGradient>
<linearGradient id="paint11_linear_878_18766" x1="21.1849" y1="19.3262" x2="26.8229" y2="20.0134" gradientUnits="userSpaceOnUse">
<stop stop-color="#ECC271"/>
<stop offset="1" stop-color="#7F642E"/>
</linearGradient>
<linearGradient id="paint12_linear_878_18766" x1="21.1849" y1="19.3262" x2="26.8229" y2="20.0134" gradientUnits="userSpaceOnUse">
<stop stop-color="#ECC271"/>
<stop offset="1" stop-color="#7F642E"/>
</linearGradient>
<linearGradient id="paint13_linear_878_18766" x1="21.1849" y1="19.3262" x2="26.8229" y2="20.0134" gradientUnits="userSpaceOnUse">
<stop stop-color="#ECC271"/>
<stop offset="1" stop-color="#7F642E"/>
</linearGradient>
<linearGradient id="paint14_linear_878_18766" x1="21.1849" y1="19.3262" x2="26.8229" y2="20.0134" gradientUnits="userSpaceOnUse">
<stop stop-color="#ECC271"/>
<stop offset="1" stop-color="#7F642E"/>
</linearGradient>
<linearGradient id="paint15_linear_878_18766" x1="21.1849" y1="19.3262" x2="26.8229" y2="20.0134" gradientUnits="userSpaceOnUse">
<stop stop-color="#ECC271"/>
<stop offset="1" stop-color="#7F642E"/>
</linearGradient>
<linearGradient id="paint16_linear_878_18766" x1="21.1849" y1="19.3262" x2="26.8229" y2="20.0134" gradientUnits="userSpaceOnUse">
<stop stop-color="#ECC271"/>
<stop offset="1" stop-color="#7F642E"/>
</linearGradient>
<linearGradient id="paint17_linear_878_18766" x1="21.1849" y1="19.3262" x2="26.8229" y2="20.0134" gradientUnits="userSpaceOnUse">
<stop stop-color="#ECC271"/>
<stop offset="1" stop-color="#7F642E"/>
</linearGradient>
</defs>
</svg>
