<svg width="47" height="51" viewBox="0 0 47 51" fill="none" xmlns="http://www.w3.org/2000/svg">
<path d="M0 0L23.5 7.22124L47 0V44.2301L23.5 51L0 44.2301V0Z" fill="url(#paint0_linear_1_14)"/>
<path d="M47 44.2301V0L24 7.22124V51L47 44.2301Z" fill="url(#paint1_linear_1_14)"/>
<path d="M5 8L23.5 13.5221L42 8V41.823L23.5 47L5 41.823V8Z" fill="url(#paint2_linear_1_14)"/>
<path d="M42 41.823V8L24 13.5221V47L42 41.823Z" fill="url(#paint3_linear_1_14)"/>
<path d="M13.44 16.4858C15.4445 16.6324 19.0869 16.7058 24.3671 16.7058C29.6473 16.7058 33.2896 16.6324 35.2942 16.4858V17.0358C35.2942 18.967 35.4408 20.7637 35.7342 22.426L34.7441 22.866C34.1086 20.8615 33.3508 19.5903 32.4707 19.0525C31.5907 18.5147 29.9284 18.2458 27.4839 18.2458C26.7505 18.2458 26.3472 18.5758 26.2738 19.2359C26.0783 20.6781 25.9805 23.2938 25.9805 27.0828C25.9805 33.2186 26.0538 37.0321 26.2005 38.5232L26.2738 39.2933C26.3227 39.7333 26.5549 40.0511 26.9705 40.2466C27.3861 40.4178 28.1928 40.6255 29.3906 40.87L29.2806 41.9334C27.7405 41.86 26.066 41.8234 24.2571 41.8234C22.4481 41.8234 20.7736 41.86 19.2336 41.9334L19.1236 40.87C20.3703 40.6255 21.2136 40.4055 21.6537 40.21C22.0937 40.0144 22.3381 39.7088 22.387 39.2933C22.5826 37.851 22.6804 35.2353 22.6804 31.4463C22.6804 25.3105 22.607 21.4848 22.4604 19.9692L22.387 19.2359C22.3137 18.5758 21.9348 18.2458 21.2503 18.2458C18.8058 18.2458 17.1435 18.5147 16.2635 19.0525C15.3834 19.5903 14.6256 20.8615 13.99 22.866L13 22.426C13.2933 20.7637 13.44 18.967 13.44 17.0358V16.4858Z" fill="url(#paint4_linear_1_14)"/>
<rect x="16.8113" y="12" width="1.66447" height="14.0661" transform="rotate(0.240585 16.8113 12)" fill="url(#paint5_linear_1_14)"/>
<rect x="19.3783" y="12" width="1.66447" height="14.0661" transform="rotate(0.240585 19.3783 12)" fill="url(#paint6_linear_1_14)"/>
<path d="M22.6192 29.4784L24.3449 31.2436L26.0415 29.4784V40.1846L24.3304 41.8233L22.6192 40.1846V29.4784Z" fill="url(#paint7_linear_1_14)"/>
<path d="M26.0416 40.1846V29.4784C26.0416 29.4784 25.0035 30.561 24.3353 31.2436L24.3304 41.8233L26.0416 40.1846Z" fill="url(#paint8_linear_1_14)"/>
<defs>
<linearGradient id="paint0_linear_1_14" x1="23.5" y1="0" x2="23.5" y2="51" gradientUnits="userSpaceOnUse">
<stop stop-color="#324559"/>
<stop offset="1" stop-color="#131D28"/>
</linearGradient>
<linearGradient id="paint1_linear_1_14" x1="35.5" y1="0" x2="35.5" y2="51" gradientUnits="userSpaceOnUse">
<stop stop-color="#111921"/>
<stop offset="1" stop-color="#0D1116"/>
</linearGradient>
<linearGradient id="paint2_linear_1_14" x1="9" y1="15" x2="23.5" y2="47" gradientUnits="userSpaceOnUse">
<stop stop-color="#405973"/>
<stop offset="1" stop-color="#131D28"/>
</linearGradient>
<linearGradient id="paint3_linear_1_14" x1="33" y1="8" x2="33" y2="47" gradientUnits="userSpaceOnUse">
<stop stop-color="#1D2C3D"/>
<stop offset="1" stop-color="#0D1116"/>
</linearGradient>
<linearGradient id="paint4_linear_1_14" x1="24.3671" y1="16.4858" x2="24.3671" y2="41.9334" gradientUnits="userSpaceOnUse">
<stop stop-color="#F0C673"/>
<stop offset="1" stop-color="#785E2A"/>
</linearGradient>
<linearGradient id="paint5_linear_1_14" x1="17.6435" y1="12" x2="17.6435" y2="26.0661" gradientUnits="userSpaceOnUse">
<stop stop-color="#F0C673"/>
<stop offset="1" stop-color="#785E2A"/>
</linearGradient>
<linearGradient id="paint6_linear_1_14" x1="20.2105" y1="12" x2="20.2105" y2="26.0661" gradientUnits="userSpaceOnUse">
<stop stop-color="#F0C673"/>
<stop offset="1" stop-color="#785E2A"/>
</linearGradient>
<linearGradient id="paint7_linear_1_14" x1="22.9892" y1="31.6941" x2="28.5499" y2="35.2802" gradientUnits="userSpaceOnUse">
<stop stop-color="#243951"/>
<stop offset="1" stop-color="#131D28"/>
</linearGradient>
<linearGradient id="paint8_linear_1_14" x1="25.186" y1="29.4784" x2="25.186" y2="41.8233" gradientUnits="userSpaceOnUse">
<stop/>
<stop offset="1" stop-color="#0D1116"/>
</linearGradient>
</defs>
</svg>
