<svg width="52" height="52" viewBox="0 0 52 52" fill="none" xmlns="http://www.w3.org/2000/svg">
<path fill-rule="evenodd" clip-rule="evenodd" d="M0 23.4234C0 17.9833 1.85456 12.9764 4.96593 9.00031L7.83373 7.58411L8.97996 4.98188C12.9593 1.86089 17.974 0 23.4234 0H28.5766C34.0829 0 39.1454 1.89997 43.1444 5.08008L44.2629 7.57286L46.6367 8.50636C49.9869 12.5579 52 17.7556 52 23.4234V28.5766C52 34.2294 49.9976 39.4145 46.6634 43.4612L43.8041 44.7443L42.8614 47.1414C38.9078 50.1881 33.9538 52 28.5766 52H23.4234C18.2615 52 13.4895 50.3302 9.61821 47.5014L8.34887 44.931L5.52508 43.6872C2.07801 39.6083 0 34.3351 0 28.5766V23.4234Z" fill="url(#paint0_linear_878_18686)"/>
<ellipse cx="26" cy="25.9997" rx="23.1386" ry="23.1386" fill="url(#paint1_linear_878_18686)"/>
<ellipse cx="26.0001" cy="26.0001" rx="19.9471" ry="19.9471" fill="url(#paint2_linear_878_18686)"/>
<path d="M17.7009 28.5796C17.7009 33.3993 21.5605 37.3055 26.3211 37.3055C31.0816 37.3055 34.9412 33.3993 34.9412 28.5796C34.9412 24.3507 31.9684 20.8248 28.0231 20.0248C28.9595 19.1292 29.8143 18.3293 30.4483 17.4963C34.8724 19.1857 38.0193 23.5101 38.0193 28.5796C38.0193 35.1203 32.7817 40.4221 26.321 40.4221C19.8603 40.4221 14.6228 35.1203 14.6228 28.5796C14.6228 23.5108 17.7696 19.1863 22.1931 17.497C22.8264 18.33 23.6805 19.13 24.6169 20.0248C20.6724 20.8255 17.7009 24.3514 17.7009 28.5796Z" fill="url(#paint3_linear_878_18686)"/>
<path d="M31.5546 14.545C31.5546 15.6717 31.1285 16.603 30.4484 17.4958C29.8145 18.3288 28.9597 19.1287 28.0233 20.0244C27.4743 20.5492 26.8967 21.107 26.3198 21.7233C25.7429 21.107 25.166 20.5492 24.617 20.0244C23.6806 19.1295 22.8265 18.3295 22.1932 17.4965C21.5137 16.603 21.0876 15.6717 21.0876 14.545C21.0876 13.0022 22.2591 11.751 23.7037 11.751C25.0118 11.751 25.6654 12.4498 26.3198 13.8461C26.9735 12.4498 27.6278 11.751 28.9359 11.751C30.3831 11.751 31.5546 13.0022 31.5546 14.545Z" fill="url(#paint4_linear_878_18686)"/>
<defs>
<linearGradient id="paint0_linear_878_18686" x1="15.5606" y1="-3.61164e-05" x2="39.2329" y2="2.72092" gradientUnits="userSpaceOnUse">
<stop stop-color="#16202B"/>
<stop offset="1" stop-color="#101419"/>
</linearGradient>
<linearGradient id="paint1_linear_878_18686" x1="16.7094" y1="2.86104" x2="40.8748" y2="57.4021" gradientUnits="userSpaceOnUse">
<stop stop-color="#20303D"/>
<stop offset="1" stop-color="#0C131B"/>
</linearGradient>
<linearGradient id="paint2_linear_878_18686" x1="20.9085" y1="5.3415" x2="37.1704" y2="45.1493" gradientUnits="userSpaceOnUse">
<stop stop-color="#0B0C10"/>
<stop offset="1" stop-color="#1D2835"/>
</linearGradient>
<linearGradient id="paint3_linear_878_18686" x1="26.321" y1="17.4963" x2="26.321" y2="40.4221" gradientUnits="userSpaceOnUse">
<stop stop-color="#30495C"/>
<stop offset="1" stop-color="#30495C" stop-opacity="0"/>
</linearGradient>
<linearGradient id="paint4_linear_878_18686" x1="24.2198" y1="11.751" x2="29.2574" y2="23.6848" gradientUnits="userSpaceOnUse">
<stop stop-color="#ECC271"/>
<stop offset="1" stop-color="#7F642E"/>
</linearGradient>
</defs>
</svg>
