<svg width="320" height="320" viewBox="0 0 353 336" fill="none" xmlns="http://www.w3.org/2000/svg">
<path d="M0 0L176.5 47.5752L353 0V291.398L176.5 336L0 291.398V0Z" fill="url(#paint0_linear_2033_32075)"/>
<path d="M353 291.398V0C353 0 244.588 28.9959 177 47.5752V336L353 291.398Z" fill="url(#paint1_linear_2033_32075)"/>
<path d="M27 41L177 78.3805L327 41V269.956L177 305L27 269.956V41Z" fill="url(#paint2_linear_2033_32075)"/>
<path d="M327 269.956V41L177 78.3805V305L327 269.956Z" fill="url(#paint3_linear_2033_32075)"/>
<defs>
<linearGradient id="paint0_linear_2033_32075" x1="176.5" y1="0" x2="176.5" y2="336" gradientUnits="userSpaceOnUse">
<stop stop-color="#324559"/>
<stop offset="1" stop-color="#131D28"/>
</linearGradient>
<linearGradient id="paint1_linear_2033_32075" x1="263.535" y1="0" x2="263.535" y2="336" gradientUnits="userSpaceOnUse">
<stop stop-color="#111921"/>
<stop offset="1" stop-color="#0D1116"/>
</linearGradient>
<linearGradient id="paint2_linear_2033_32075" x1="59.4324" y1="88.3846" x2="145.838" y2="316.789" gradientUnits="userSpaceOnUse">
<stop stop-color="#405973"/>
<stop offset="1" stop-color="#131D28"/>
</linearGradient>
<linearGradient id="paint3_linear_2033_32075" x1="252" y1="41" x2="252" y2="305" gradientUnits="userSpaceOnUse">
<stop stop-color="#1D2C3D"/>
<stop offset="1" stop-color="#0D1116"/>
</linearGradient>
</defs>
</svg>
