<svg width="25" height="25" viewBox="0 0 25 25" fill="none" xmlns="http://www.w3.org/2000/svg">
<path fill-rule="evenodd" clip-rule="evenodd" d="M2.08337 12.5007C2.08337 7.59018 2.08337 5.13495 3.60886 3.60947C5.13434 2.08398 7.58957 2.08398 12.5 2.08398C17.4105 2.08398 19.8658 2.08398 21.3912 3.60947C22.9167 5.13495 22.9167 7.59018 22.9167 12.5007C22.9167 17.4111 22.9167 19.8664 21.3912 21.3918C19.8658 22.9173 17.4105 22.9173 12.5 22.9173C7.58957 22.9173 5.13434 22.9173 3.60886 21.3918C2.08337 19.8664 2.08337 17.4111 2.08337 12.5007ZM12.5 6.51107C12.9315 6.51107 13.2813 6.86085 13.2813 7.29232V12.6978L15.0726 10.9066C15.3777 10.6015 15.8723 10.6015 16.1774 10.9066C16.4825 11.2117 16.4825 11.7063 16.1774 12.0114L13.0524 15.1364C12.906 15.2829 12.7072 15.3652 12.5 15.3652C12.2929 15.3652 12.0941 15.2829 11.9476 15.1364L8.82261 12.0114C8.51752 11.7063 8.51752 11.2117 8.82261 10.9066C9.12771 10.6015 9.62237 10.6015 9.92747 10.9066L11.7188 12.6978V7.29232C11.7188 6.86085 12.0686 6.51107 12.5 6.51107ZM8.33337 16.9277C7.90191 16.9277 7.55212 17.2775 7.55212 17.709C7.55212 18.1404 7.90191 18.4902 8.33337 18.4902H16.6667C17.0982 18.4902 17.448 18.1404 17.448 17.709C17.448 17.2775 17.0982 16.9277 16.6667 16.9277H8.33337Z" fill="#585858"/>
</svg>
