<svg width="49" height="49" viewBox="0 0 49 49" fill="none" xmlns="http://www.w3.org/2000/svg">
<path fill-rule="evenodd" clip-rule="evenodd" d="M0 22.0721C0 16.9458 1.74756 12.2277 4.67942 8.48106L7.38177 7.14657L8.46186 4.69446C12.2116 1.75353 16.937 0 22.072 0H26.9278C32.1165 0 36.8869 1.79036 40.6552 4.787L41.7092 7.13597L43.946 8.0156C47.1029 11.8334 48.9998 16.7312 48.9998 22.0721V26.9279C48.9998 32.2546 47.113 37.1405 43.9712 40.9539L41.2768 42.1629L40.3885 44.4217C36.663 47.2926 31.9948 49 26.9278 49H22.072C17.2079 49 12.7112 47.4266 9.06328 44.7609L7.86718 42.3388L5.20631 41.1667C1.95812 37.3232 0 32.3542 0 26.9279V22.0721Z" fill="url(#paint0_linear_687_6890)"/>
<ellipse cx="24.5" cy="24.5" rx="21.2333" ry="21.2334" fill="url(#paint1_linear_687_6890)"/>
<circle cx="24.5" cy="24.5" r="18" fill="url(#paint2_linear_687_6890)" stroke="#1D2025"/>
<g filter="url(#filter0_d_687_6890)">
<path d="M25 26.1667C28.2217 26.1667 30.8334 23.555 30.8334 20.3333C30.8334 17.1117 28.2217 14.5 25 14.5C21.7784 14.5 19.1667 17.1117 19.1667 20.3333C19.1667 23.555 21.7784 26.1667 25 26.1667Z" fill="#0D0D0D"/>
</g>
<g filter="url(#filter1_d_687_6890)">
<path fill-rule="evenodd" clip-rule="evenodd" d="M34.6354 32.2546C34.9559 32.8302 34.5717 33.5052 33.9268 33.6396C33.2938 33.7715 32.6586 33.8892 32.0218 33.9928L25 32L17.9782 33.9928C17.3413 33.8892 16.7061 33.7715 16.0732 33.6396C15.4282 33.5052 15.0441 32.8302 15.3646 32.2546C16.0711 30.9857 17.1841 29.8706 18.608 29.0208C20.4417 27.9265 22.6886 27.3333 25 27.3333C27.3114 27.3333 29.5582 27.9265 31.3919 29.0208C32.8159 29.8706 33.9289 30.9857 34.6354 32.2546Z" fill="#0D0D0D"/>
</g>
<defs>
<filter id="filter0_d_687_6890" x="18.1667" y="14.5" width="13.6667" height="13.6667" filterUnits="userSpaceOnUse" color-interpolation-filters="sRGB">
<feFlood flood-opacity="0" result="BackgroundImageFix"/>
<feColorMatrix in="SourceAlpha" type="matrix" values="0 0 0 0 0 0 0 0 0 0 0 0 0 0 0 0 0 0 127 0" result="hardAlpha"/>
<feOffset dy="1"/>
<feGaussianBlur stdDeviation="0.5"/>
<feComposite in2="hardAlpha" operator="out"/>
<feColorMatrix type="matrix" values="0 0 0 0 1 0 0 0 0 1 0 0 0 0 1 0 0 0 0.15 0"/>
<feBlend mode="normal" in2="BackgroundImageFix" result="effect1_dropShadow_687_6890"/>
<feBlend mode="normal" in="SourceGraphic" in2="effect1_dropShadow_687_6890" result="shape"/>
</filter>
<filter id="filter1_d_687_6890" x="14.2494" y="27.3333" width="21.5012" height="8.65942" filterUnits="userSpaceOnUse" color-interpolation-filters="sRGB">
<feFlood flood-opacity="0" result="BackgroundImageFix"/>
<feColorMatrix in="SourceAlpha" type="matrix" values="0 0 0 0 0 0 0 0 0 0 0 0 0 0 0 0 0 0 127 0" result="hardAlpha"/>
<feOffset dy="1"/>
<feGaussianBlur stdDeviation="0.5"/>
<feComposite in2="hardAlpha" operator="out"/>
<feColorMatrix type="matrix" values="0 0 0 0 1 0 0 0 0 1 0 0 0 0 1 0 0 0 0.15 0"/>
<feBlend mode="normal" in2="BackgroundImageFix" result="effect1_dropShadow_687_6890"/>
<feBlend mode="normal" in="SourceGraphic" in2="effect1_dropShadow_687_6890" result="shape"/>
</filter>
<linearGradient id="paint0_linear_687_6890" x1="14.6628" y1="-3.40328e-05" x2="36.9693" y2="2.56392" gradientUnits="userSpaceOnUse">
<stop stop-color="#1D2126"/>
<stop offset="1" stop-color="#3F4B58"/>
</linearGradient>
<linearGradient id="paint1_linear_687_6890" x1="19.0801" y1="2.50924" x2="41.6855" y2="50.2671" gradientUnits="userSpaceOnUse">
<stop stop-color="#414E5B"/>
<stop offset="1" stop-color="#141519"/>
</linearGradient>
<linearGradient id="paint2_linear_687_6890" x1="19.7778" y1="5.34013" x2="39.4732" y2="46.9501" gradientUnits="userSpaceOnUse">
<stop stop-color="#414E5B"/>
<stop offset="1" stop-color="#141519"/>
</linearGradient>
</defs>
</svg>
