<?xml version="1.0" standalone="no"?>
<!DOCTYPE svg PUBLIC "-//W3C//DTD SVG 20010904//EN"
 "http://www.w3.org/TR/2001/REC-SVG-20010904/DTD/svg10.dtd">
<svg version="1.0" xmlns="http://www.w3.org/2000/svg"
 width="512.000000pt" height="512.000000pt" viewBox="0 0 512.000000 512.000000"
 preserveAspectRatio="xMidYMid meet">

<g transform="translate(0.000000,512.000000) scale(0.100000,-0.100000)"
fill="#7F7F7F" stroke="none">
<path d="M1556 4469 c-210 -31 -418 -131 -580 -280 -131 -120 -250 -322 -304
-516 l-27 -98 0 -1015 0 -1015 27 -98 c107 -387 388 -668 775 -775 l98 -27
1015 0 1015 0 98 27 c387 107 668 388 775 775 l27 98 0 1015 0 1015 -27 98
c-107 386 -390 670 -773 774 l-100 28 -980 1 c-539 1 -1007 -2 -1039 -7z
m2009 -434 c208 -53 372 -202 454 -413 l26 -67 3 -969 c2 -850 1 -976 -13
-1030 -59 -232 -238 -411 -470 -471 -89 -23 -1921 -23 -2010 0 -232 60 -410
238 -470 470 -23 89 -23 1921 0 2010 59 230 235 408 465 469 84 22 1928 23
2015 1z"/>
<path d="M2385 3393 c-394 -83 -675 -431 -675 -833 0 -471 379 -850 850 -850
470 0 850 380 850 849 0 409 -289 760 -688 837 -94 18 -247 17 -337 -3z m250
-414 c226 -42 384 -264 346 -485 -41 -233 -262 -394 -488 -354 -182 31 -322
171 -354 354 -37 216 112 433 331 482 71 16 94 16 165 3z"/>
</g>
</svg>
