<svg width="140" height="140" viewBox="0 0 140 140" fill="none" xmlns="http://www.w3.org/2000/svg">
<path fill-rule="evenodd" clip-rule="evenodd" d="M0 63.0631C0 48.4166 4.99304 34.9364 13.3698 24.2316L21.0908 20.4188L24.1768 13.4128C34.8904 5.0101 48.3916 0 63.0631 0H76.9369C91.7616 0 105.392 5.1153 116.158 13.6771L119.169 20.3885L125.56 22.9017C134.58 33.8096 140 47.8034 140 63.0631V76.9369C140 92.156 134.609 106.116 125.632 117.011L117.934 120.465L115.396 126.919C104.752 135.122 91.4141 140 76.9369 140H63.0631C49.1655 140 36.3179 135.505 25.8952 127.888L22.4777 120.968L14.8752 117.619C5.59466 106.638 0 92.4407 0 76.9369V63.0631Z" fill="#007AFF" fill-opacity="0.1"/>
<path fill-rule="evenodd" clip-rule="evenodd" d="M14 64.4505C14 52.7333 17.9944 41.9491 24.6959 33.3853L30.8727 30.335L33.3414 24.7302C41.9123 18.0081 52.7133 14 64.4505 14H75.5495C87.4093 14 98.3132 18.0922 106.926 24.9417L109.336 30.3108L114.448 32.3214C121.664 41.0477 126 52.2427 126 64.4505V75.5495C126 87.7248 121.687 98.8927 114.506 107.609L108.347 110.372L106.317 115.535C97.8015 122.097 87.1313 126 75.5495 126H64.4505C53.3324 126 43.0543 122.404 34.7161 116.311L31.9822 110.774L25.9002 108.095C18.4757 99.3102 14 87.9525 14 75.5495V64.4505Z" fill="#007AFF" fill-opacity="0.2"/>
<path fill-rule="evenodd" clip-rule="evenodd" d="M24 65.8919C24 56.1625 27.3168 47.2077 32.8814 40.0967L38.0103 37.5639L40.0603 32.9099C47.1772 27.3281 56.1459 24 65.8919 24H75.1081C84.9559 24 94.0101 27.398 101.162 33.0855L103.163 37.5438L107.408 39.2133C113.4 46.4592 117 55.7551 117 65.8919V75.1081C117 85.2179 113.419 94.4912 107.456 101.729L102.342 104.023L100.656 108.311C93.5852 113.759 84.7251 117 75.1081 117H65.8919C56.6599 117 48.1255 114.014 41.2018 108.954L38.9316 104.357L33.8814 102.133C27.7165 94.8379 24 85.407 24 75.1081V65.8919Z" fill="#007AFF"/>
<g filter="url(#filter0_d_203_53862)">
<path d="M81 71L67.5 82.2583L67.5 59.7417L81 71Z" fill="white"/>
</g>
<defs>
<filter id="filter0_d_203_53862" x="66.5" y="59.7412" width="15.5" height="24.5176" filterUnits="userSpaceOnUse" color-interpolation-filters="sRGB">
<feFlood flood-opacity="0" result="BackgroundImageFix"/>
<feColorMatrix in="SourceAlpha" type="matrix" values="0 0 0 0 0 0 0 0 0 0 0 0 0 0 0 0 0 0 127 0" result="hardAlpha"/>
<feOffset dy="1"/>
<feGaussianBlur stdDeviation="0.5"/>
<feComposite in2="hardAlpha" operator="out"/>
<feColorMatrix type="matrix" values="0 0 0 0 1 0 0 0 0 1 0 0 0 0 1 0 0 0 0.15 0"/>
<feBlend mode="normal" in2="BackgroundImageFix" result="effect1_dropShadow_203_53862"/>
<feBlend mode="normal" in="SourceGraphic" in2="effect1_dropShadow_203_53862" result="shape"/>
</filter>
</defs>
</svg>
