<svg width="30" height="30" viewBox="0 0 30 30" fill="none" xmlns="http://www.w3.org/2000/svg">
<path d="M11.25 27.5H18.75C25 27.5 27.5 25 27.5 18.75V11.25C27.5 5 25 2.5 18.75 2.5H11.25C5 2.5 2.5 5 2.5 11.25V18.75C2.5 25 5 27.5 11.25 27.5Z" stroke="#797979" stroke-width="2" stroke-linecap="round" stroke-linejoin="round"/>
<path d="M15 19.375C17.4162 19.375 19.375 17.4162 19.375 15C19.375 12.5837 17.4162 10.625 15 10.625C12.5837 10.625 10.625 12.5837 10.625 15C10.625 17.4162 12.5837 19.375 15 19.375Z" stroke="#797979" stroke-width="2" stroke-linecap="round" stroke-linejoin="round"/>
<path d="M22.0451 8.75H22.0585" stroke="#797979" stroke-width="3" stroke-linecap="round" stroke-linejoin="round"/>
</svg>
