<svg width="30" height="30" viewBox="0 0 30 30" fill="none" xmlns="http://www.w3.org/2000/svg">
<path d="M15 19.375C17.7625 19.375 20 17.1375 20 14.375V7.5C20 4.7375 17.7625 2.5 15 2.5C12.2375 2.5 10 4.7375 10 7.5V14.375C10 17.1375 12.2375 19.375 15 19.375Z" stroke="#797979" stroke-width="2" stroke-linecap="round" stroke-linejoin="round"/>
<path d="M5.43762 12.0625V14.1875C5.43762 19.4625 9.72512 23.75 15.0001 23.75C20.2751 23.75 24.5626 19.4625 24.5626 14.1875V12.0625" stroke="#797979" stroke-width="2" stroke-linecap="round" stroke-linejoin="round"/>
<path d="M13.2626 8.03789C14.3876 7.62539 15.6126 7.62539 16.7376 8.03789" stroke="#797979" stroke-width="2" stroke-linecap="round" stroke-linejoin="round"/>
<path d="M14 10.6879C14.6625 10.5129 15.35 10.5129 16.0125 10.6879" stroke="#797979" stroke-width="2" stroke-linecap="round" stroke-linejoin="round"/>
<path d="M15 23.75V27.5" stroke="#797979" stroke-width="2" stroke-linecap="round" stroke-linejoin="round"/>
</svg>
