<svg width="78" height="24" viewBox="0 0 78 24" fill="none" xmlns="http://www.w3.org/2000/svg">
<rect width="3" height="24" rx="1.5" fill="#007AFF"/>
<rect x="45" width="3" height="24" rx="1.5" fill="#007AFF"/>
<rect x="5" y="5" width="3" height="19" rx="1.5" fill="#007AFF"/>
<rect x="50" y="5" width="3" height="19" rx="1.5" fill="#007AFF"/>
<rect x="10" y="16" width="3" height="8" rx="1.5" fill="#007AFF"/>
<rect x="20" y="16" width="3" height="8" rx="1.5" fill="#007AFF"/>
<rect x="35" y="16" width="3" height="8" rx="1.5" fill="#007AFF"/>
<rect x="15" y="18" width="3" height="6" rx="1.5" fill="#007AFF"/>
<rect x="30" y="18" width="3" height="6" rx="1.5" fill="#007AFF"/>
<rect x="75" y="18" width="3" height="6" rx="1.5" fill="#007AFF"/>
<rect x="55" y="21" width="3" height="3" rx="1.5" fill="#007AFF"/>
<rect x="60" y="21" width="3" height="3" rx="1.5" fill="#007AFF"/>
<rect x="65" y="21" width="3" height="3" rx="1.5" fill="#007AFF"/>
<rect x="70" y="21" width="3" height="3" rx="1.5" fill="#007AFF"/>
<rect x="25" y="14" width="3" height="10" rx="1.5" fill="#007AFF"/>
<rect x="40" y="14" width="3" height="10" rx="1.5" fill="#007AFF"/>
</svg>
