<svg width="19" height="25" viewBox="0 0 19 25" fill="none" xmlns="http://www.w3.org/2000/svg">
<path fill-rule="evenodd" clip-rule="evenodd" d="M9.23802 0C11.9959 0 14.2315 2.23858 14.2315 5V12C14.2315 14.7614 11.9959 17 9.23802 17C6.48017 17 4.2445 14.7614 4.2445 12V5C4.2445 2.23858 6.48017 0 9.23802 0ZM17.727 11.25C18.1407 11.25 18.476 11.5858 18.476 12C18.476 16.6029 14.7311 20.3603 9.98795 20.7216L9.98703 24C9.98703 24.4142 9.65168 24.75 9.238 24.75C8.8588 24.75 8.54541 24.4678 8.49581 24.1018L8.48897 24L8.48905 20.7216C3.74547 20.3609 0 16.6032 0 12C0 11.5858 0.335351 11.25 0.749027 11.25C1.1627 11.25 1.49805 11.5858 1.49805 12C1.49805 15.9936 4.95354 19.25 9.238 19.25C13.5225 19.25 16.9779 15.9936 16.9779 12C16.9779 11.5858 17.3133 11.25 17.727 11.25ZM5.74256 5C5.74256 3.067 7.30753 1.5 9.23802 1.5C11.1685 1.5 12.7335 3.067 12.7335 5V12C12.7335 13.933 11.1685 15.5 9.23802 15.5C7.30753 15.5 5.74256 13.933 5.74256 12V5Z" fill="#7F7F7F"/>
</svg>
