<svg width="147" height="147" viewBox="0 0 147 147" fill="none" xmlns="http://www.w3.org/2000/svg">
<g filter="url(#filter0_d_1821_28611)">
<g filter="url(#filter1_d_1821_28611)">
<path fill-rule="evenodd" clip-rule="evenodd" d="M1 61.5555C1 48.5271 5.04758 36.444 11.9539 26.4951L22.823 21.1276L27.2196 11.1462C37.2205 4.12279 49.4065 0 62.5555 0H84.3051C97.5834 0 109.88 4.20427 119.935 11.3542L124.307 21.0963L133.671 24.779C141.328 35.0399 145.861 47.7683 145.861 61.5555V83.3051C145.861 96.952 141.42 109.562 133.904 119.768L123.029 124.648L119.396 133.886C109.441 140.805 97.3468 144.861 84.3052 144.861H62.5555C50.2233 144.861 38.7381 141.234 29.1082 134.989L24.2581 125.168L13.4256 120.396C5.6261 110.082 1 97.2336 1 83.3052V61.5555Z" fill="url(#paint0_linear_1821_28611)"/>
</g>
<rect x="4.21619" y="3.2168" width="138.428" height="138.428" rx="69.2142" fill="url(#paint1_linear_1821_28611)" stroke="url(#paint2_linear_1821_28611)"/>
<circle cx="73.3254" cy="71.5123" r="61.8863" fill="black" stroke="url(#paint3_angular_1821_28611)" stroke-width="3"/>
<circle cx="73" cy="72" r="62" fill="url(#paint4_radial_1821_28611)"/>
<g clip-path="url(#clip0_1821_28611)" filter="url(#filter2_i_1821_28611)">
<path d="M59.5915 72.8668C60.5844 73.1858 61.4492 73.5048 62.2573 74.001C64.3803 75.3124 65.2812 77.3935 64.7611 79.9288C64.4236 81.5758 63.5061 82.8163 62.2408 83.7732C60.6607 84.9705 58.8619 85.5453 56.9773 85.8776C55.7512 86.0925 54.5179 86.1268 53.2795 86.1257C44.732 86.1213 36.1848 86.1242 27.638 86.1346C27.1571 86.1346 27.0043 86.0349 27.0054 85.4811C27.024 77.5109 27.024 69.5408 27.0054 61.5706C27.0054 61.1032 27.0848 60.9481 27.5606 60.9492C57.0891 60.9625 86.6169 60.9666 116.144 60.9614C116.608 60.9614 117.073 60.9836 117.537 60.9725C117.789 60.9669 117.914 61.0312 117.911 61.338C117.9 62.5741 117.903 63.8101 117.911 65.0462C117.911 65.3076 117.818 65.3984 117.576 65.4028C116.889 65.4139 116.204 65.4682 115.518 65.4682C102.602 65.4726 89.6873 65.4744 76.7722 65.4737C75.9166 65.4737 76.0425 65.3796 76.0425 66.2756C76.0384 72.7143 76.0401 79.1531 76.0477 85.5919C76.0477 85.995 76.0002 86.1457 75.5554 86.1401C73.87 86.0991 72.1847 86.1036 70.4983 86.1401C69.9936 86.1501 69.8305 86.0294 69.8326 85.4479C69.8553 79.0239 69.8471 72.6077 69.8471 66.187C69.8471 65.4815 69.8471 65.477 69.1711 65.477C57.374 65.477 45.5765 65.4737 33.7788 65.4671C33.3381 65.4671 33.1956 65.5678 33.1977 66.0718C33.2163 71.1091 33.2184 76.146 33.2039 81.1826C33.2039 81.5591 33.2215 81.7851 33.6859 81.7829C39.9628 81.7596 46.2398 81.7829 52.5157 81.7364C54.1154 81.7253 55.7151 81.5082 57.1744 80.7074C58.7432 79.8479 59.123 78.0248 58.0197 76.7124C57.5831 76.194 57.0134 75.8905 56.4025 75.6712C55.3436 75.2902 54.2475 75.2227 53.1443 75.2227C48.1904 75.2227 43.2365 75.2149 38.2827 75.2348C37.7811 75.2348 37.5757 75.1352 37.618 74.5437C37.6672 73.7693 37.6672 72.9922 37.618 72.2178C37.586 71.664 37.7346 71.4967 38.2692 71.499C42.9995 71.5211 47.7291 71.5241 52.4579 71.5078C53.5045 71.5078 54.5499 71.4956 55.5851 71.2553C57.3396 70.8488 58.0496 69.9195 57.9681 68.0101C57.9536 67.6889 58.0713 67.639 58.3159 67.6401C60.1736 67.6401 62.0313 67.6556 63.889 67.6346C64.2936 67.6291 64.2967 67.8384 64.2595 68.1463C64.0717 69.6836 63.3716 70.8739 62.1593 71.7172C61.4059 72.2421 60.5586 72.539 59.5915 72.8668Z" fill="#10151B"/>
<path d="M96.6437 86.1226C92.0355 86.1226 87.4284 86.1137 82.8203 86.1348C82.3321 86.1348 82.2093 85.9775 82.2258 85.4802C82.2578 84.4479 82.2609 83.4135 82.2258 82.379C82.2073 81.8728 82.3424 81.7321 82.8213 81.7332C89.2201 81.7502 95.6157 81.7539 102.008 81.7443C104.313 81.7443 106.616 81.7554 108.923 81.7443C110.067 81.7355 111.184 81.5472 112.226 80.9845C113.45 80.32 114.012 79.1293 113.737 77.8047C113.558 76.9474 113.045 76.3792 112.348 75.9838C111.12 75.2871 109.781 75.2184 108.434 75.2173C102.964 75.2173 97.4992 75.2395 92.0314 75.2074C89.8197 75.1941 87.6452 74.8496 85.6223 73.8085C83.7306 72.836 82.265 71.4427 81.7903 69.1278C81.5261 67.8408 81.589 67.7589 82.8048 67.7589C84.4389 67.7589 86.0723 67.7589 87.705 67.7589C87.9114 67.7589 88.1395 67.6758 88.1519 68.0856C88.2128 70.0183 89.0807 71.0207 90.923 71.3574C91.6196 71.4707 92.3239 71.5208 93.0284 71.5069C98.4787 71.5069 103.929 71.4881 109.379 71.5191C111.463 71.5302 113.532 71.7739 115.496 72.5979C117.46 73.4219 118.998 74.7477 119.475 77.0847C120.167 80.4784 118.836 83.2285 115.809 84.7403C113.951 85.6652 111.982 86.0694 109.959 86.0916C105.521 86.1348 101.084 86.1049 96.6519 86.1049L96.6437 86.1226Z" fill="#10151B"/>
<path d="M69.253 90.2275L73.7408 84.2607H75.2706V90.2275H76.4957V91.478H75.2706V93.3633H73.9693V91.478H69.253V90.2275ZM73.9693 90.2275V85.835L70.6686 90.2275H73.9693ZM74.2106 124.126C74.5279 124.114 74.7543 124.029 74.8898 123.873C75.0252 123.712 75.0929 123.466 75.0929 123.136V122.54C75.0929 122.193 75.0167 121.939 74.8644 121.778C74.712 121.617 74.4645 121.537 74.1217 121.537H71.754C71.4112 121.537 71.1637 121.617 71.0113 121.778C70.859 121.939 70.7828 122.193 70.7828 122.54V123.136C70.7828 123.466 70.8505 123.712 70.986 123.873C71.1256 124.029 71.352 124.114 71.6651 124.126H74.2106ZM74.2486 128.087C74.5957 128.087 74.8453 128.007 74.9977 127.846C75.15 127.685 75.2262 127.434 75.2262 127.091V126.386C75.2262 126.039 75.15 125.787 74.9977 125.631C74.8453 125.474 74.5957 125.396 74.2486 125.396H71.6271C71.2801 125.396 71.0304 125.474 70.878 125.631C70.7257 125.787 70.6495 126.039 70.6495 126.386V127.091C70.6495 127.434 70.7257 127.685 70.878 127.846C71.0304 128.007 71.2801 128.087 71.6271 128.087H74.2486ZM71.589 129.363C70.1121 129.363 69.3736 128.627 69.3736 127.154V126.697C69.3736 126.13 69.4752 125.675 69.6783 125.333C69.8815 124.99 70.1756 124.761 70.5607 124.647C70.2179 124.486 69.9555 124.241 69.7735 123.911C69.5958 123.576 69.5069 123.153 69.5069 122.641V122.476C69.5069 120.999 70.2433 120.261 71.7159 120.261H74.1598C75.6324 120.261 76.3688 120.999 76.3688 122.476V122.641C76.3688 123.153 76.2778 123.576 76.0958 123.911C75.9181 124.241 75.6578 124.486 75.3151 124.647C75.7001 124.761 75.9943 124.99 76.1974 125.333C76.4005 125.675 76.5021 126.13 76.5021 126.697V127.154C76.5021 128.627 75.7657 129.363 74.2931 129.363H71.589Z" fill="#10151B"/>
</g>
</g>
<path d="M69.9607 22H62.9887V20.222H69.5267C70.6467 20.222 71.4307 19.76 71.4307 18.878C71.4307 18.038 70.8847 17.576 69.8907 17.576H65.3967V16.078H69.7647C70.7727 16.078 71.2487 15.728 71.2487 14.846C71.2487 13.908 70.5907 13.586 69.4147 13.586H63.0307V11.822H69.7647C71.7387 11.822 73.0407 12.718 73.0407 14.454C73.0407 15.742 72.3967 16.386 71.6407 16.624C72.5647 16.918 73.2367 17.73 73.2367 18.92C73.2367 20.768 71.9487 22 69.9607 22ZM79.7908 22.126C76.8088 22.126 74.5128 19.774 74.5128 16.806C74.5128 13.824 76.8088 11.696 79.7908 11.696C82.7588 11.696 85.0688 13.824 85.0688 16.806C85.0688 19.774 82.7588 22.126 79.7908 22.126ZM83.2768 16.89C83.2768 14.93 82.0028 13.488 79.7908 13.488C77.5508 13.488 76.2908 14.93 76.2908 16.89C76.2908 18.85 77.5508 20.348 79.7768 20.348C82.0168 20.348 83.2768 18.85 83.2768 16.89Z" fill="url(#paint5_linear_1821_28611)"/>
<path d="M62.9887 22H62.4887V22.5H62.9887V22ZM62.9887 20.222V19.722H62.4887V20.222H62.9887ZM65.3967 17.576H64.8967V18.076H65.3967V17.576ZM65.3967 16.078V15.578H64.8967V16.078H65.3967ZM63.0307 13.586H62.5307V14.086H63.0307V13.586ZM63.0307 11.822V11.322H62.5307V11.822H63.0307ZM71.6407 16.624L71.4906 16.1471L69.9837 16.6215L71.4891 17.1005L71.6407 16.624ZM69.9607 21.5H62.9887V22.5H69.9607V21.5ZM63.4887 22V20.222H62.4887V22H63.4887ZM62.9887 20.722H69.5267V19.722H62.9887V20.722ZM69.5267 20.722C70.1455 20.722 70.7309 20.5959 71.1776 20.2958C71.6465 19.9807 71.9307 19.4919 71.9307 18.878H70.9307C70.9307 19.1461 70.823 19.3293 70.6199 19.4657C70.3945 19.6171 70.0279 19.722 69.5267 19.722V20.722ZM71.9307 18.878C71.9307 18.3435 71.7522 17.865 71.3563 17.5302C70.9738 17.2068 70.4569 17.076 69.8907 17.076V18.076C70.3186 18.076 70.5716 18.1762 70.7106 18.2938C70.8363 18.4 70.9307 18.5725 70.9307 18.878H71.9307ZM69.8907 17.076H65.3967V18.076H69.8907V17.076ZM65.8967 17.576V16.078H64.8967V17.576H65.8967ZM65.3967 16.578H69.7647V15.578H65.3967V16.578ZM69.7647 16.578C70.3073 16.578 70.8198 16.4877 71.1988 16.1818C71.6027 15.8558 71.7487 15.3755 71.7487 14.846H70.7487C70.7487 15.1985 70.6567 15.3342 70.5707 15.4037C70.4596 15.4933 70.2301 15.578 69.7647 15.578V16.578ZM71.7487 14.846C71.7487 14.2405 71.5237 13.7487 71.0407 13.4421C70.6054 13.1658 70.0275 13.086 69.4147 13.086V14.086C69.9779 14.086 70.317 14.1672 70.5048 14.2864C70.6448 14.3753 70.7487 14.5135 70.7487 14.846H71.7487ZM69.4147 13.086H63.0307V14.086H69.4147V13.086ZM63.5307 13.586V11.822H62.5307V13.586H63.5307ZM63.0307 12.322H69.7647V11.322H63.0307V12.322ZM69.7647 12.322C70.6849 12.322 71.3821 12.5319 71.8378 12.883C72.2751 13.22 72.5407 13.7251 72.5407 14.454H73.5407C73.5407 13.4469 73.1554 12.636 72.4482 12.091C71.7593 11.5601 70.8186 11.322 69.7647 11.322V12.322ZM72.5407 14.454C72.5407 15.0128 72.4022 15.3877 72.2197 15.6389C72.0367 15.8908 71.7831 16.055 71.4906 16.1471L71.7909 17.1009C72.2544 16.955 72.7007 16.6782 73.0288 16.2266C73.3573 15.7743 73.5407 15.1832 73.5407 14.454H72.5407ZM71.4891 17.1005C72.2049 17.3282 72.7367 17.9469 72.7367 18.92H73.7367C73.7367 17.5131 72.9246 16.5078 71.7923 16.1475L71.4891 17.1005ZM72.7367 18.92C72.7367 19.7233 72.4598 20.356 72.0008 20.7896C71.5394 21.2256 70.8512 21.5 69.9607 21.5V22.5C71.0583 22.5 72.0081 22.1584 72.6876 21.5164C73.3697 20.872 73.7367 19.9647 73.7367 18.92H72.7367ZM79.7908 21.626C77.091 21.626 75.0128 19.5039 75.0128 16.806H74.0128C74.0128 20.0441 76.5266 22.626 79.7908 22.626V21.626ZM75.0128 16.806C75.0128 14.1213 77.0633 12.196 79.7908 12.196V11.196C76.5543 11.196 74.0128 13.5267 74.0128 16.806H75.0128ZM79.7908 12.196C82.5052 12.196 84.5688 14.1221 84.5688 16.806H85.5688C85.5688 13.5259 83.0124 11.196 79.7908 11.196V12.196ZM84.5688 16.806C84.5688 19.5031 82.4775 21.626 79.7908 21.626V22.626C83.0401 22.626 85.5688 20.0449 85.5688 16.806H84.5688ZM83.7768 16.89C83.7768 15.8011 83.4213 14.8172 82.7199 14.1036C82.0165 13.3877 81.0089 12.988 79.7908 12.988V13.988C80.7847 13.988 81.5201 14.3092 82.0067 14.8044C82.4954 15.3018 82.7768 16.0189 82.7768 16.89H83.7768ZM79.7908 12.988C78.5603 12.988 77.5485 13.3868 76.8442 14.1036C76.142 14.8181 75.7908 15.8025 75.7908 16.89H76.7908C76.7908 16.0175 77.0696 15.3009 77.5574 14.8044C78.0431 14.3102 78.7813 13.988 79.7908 13.988V12.988ZM75.7908 16.89C75.7908 17.9767 76.1414 18.9724 76.8379 19.6998C77.538 20.4309 78.5467 20.848 79.7768 20.848V19.848C78.7809 19.848 78.0466 19.5161 77.5602 19.0082C77.0703 18.4966 76.7908 17.7633 76.7908 16.89H75.7908ZM79.7768 20.848C81.013 20.848 82.0252 20.4315 82.7274 19.7004C83.4262 18.9728 83.7768 17.9768 83.7768 16.89H82.7768C82.7768 17.7632 82.4974 18.4962 82.0062 19.0076C81.5184 19.5155 80.7806 19.848 79.7768 19.848V20.848Z" fill="#1C242A"/>
<path d="M112.714 100.931L111.286 99.8952L115.308 94.355C115.9 93.5393 115.813 92.8014 115.065 92.2586L114.272 91.6829L115.316 90.244L116.11 90.8197C117.764 92.0204 117.969 93.6918 116.735 95.3913L112.714 100.931ZM118.098 104.996C115.685 103.244 115.208 99.9917 116.952 97.5898C118.704 95.1766 121.812 94.8033 124.225 96.555C126.627 98.2986 127.246 101.378 125.494 103.791C123.751 106.193 120.5 106.739 118.098 104.996ZM123.995 102.806C125.146 101.22 124.962 99.3046 123.172 98.0052C121.36 96.6893 119.493 97.1161 118.341 98.7023C117.19 100.288 117.33 102.241 119.131 103.549C120.944 104.864 122.843 104.392 123.995 102.806Z" fill="url(#paint6_linear_1821_28611)"/>
<path d="M112.714 100.931L112.42 101.336L112.825 101.63L113.118 101.225L112.714 100.931ZM111.286 99.8952L110.881 99.6015L110.588 100.006L110.992 100.3L111.286 99.8952ZM114.272 91.6829L113.867 91.3891L113.574 91.7938L113.978 92.0875L114.272 91.6829ZM115.316 90.244L115.61 89.8394L115.206 89.5456L114.912 89.9503L115.316 90.244ZM113.007 100.527L111.58 99.4906L110.992 100.3L112.42 101.336L113.007 100.527ZM111.691 100.189L115.712 94.6488L114.903 94.0613L110.881 99.6015L111.691 100.189ZM115.712 94.6488C116.054 94.1784 116.246 93.6663 116.186 93.1466C116.124 92.6179 115.813 92.1838 115.359 91.8539L114.771 92.6632C115.065 92.8761 115.171 93.0824 115.192 93.2622C115.214 93.4512 115.154 93.7159 114.903 94.0613L115.712 94.6488ZM115.359 91.8539L114.566 91.2782L113.978 92.0875L114.771 92.6632L115.359 91.8539ZM114.677 91.9766L115.721 90.5377L114.912 89.9503L113.867 91.3891L114.677 91.9766ZM115.023 90.6486L115.816 91.2243L116.403 90.4151L115.61 89.8394L115.023 90.6486ZM115.816 91.2243C116.561 91.7649 116.928 92.3712 117.01 92.9845C117.092 93.6027 116.896 94.319 116.331 95.0976L117.14 95.685C117.808 94.7641 118.126 93.795 118.001 92.8525C117.875 91.905 117.313 91.0752 116.403 90.4151L115.816 91.2243ZM116.331 95.0976L112.309 100.638L113.118 101.225L117.14 95.685L116.331 95.0976ZM118.392 104.591C116.207 103.005 115.772 100.067 117.356 97.8835L116.547 97.2961C114.645 99.9165 115.163 103.483 117.804 105.4L118.392 104.591ZM117.356 97.8835C118.934 95.7109 121.724 95.3574 123.931 96.9596L124.519 96.1504C121.899 94.2491 118.474 94.6423 116.547 97.2961L117.356 97.8835ZM123.931 96.9596C126.128 98.5542 126.666 101.325 125.09 103.497L125.899 104.085C127.826 101.43 127.126 98.0429 124.519 96.1504L123.931 96.9596ZM125.09 103.497C123.505 105.68 120.566 106.169 118.392 104.591L117.804 105.4C120.434 107.309 123.996 106.706 125.899 104.085L125.09 103.497ZM124.399 103.1C125.039 102.219 125.329 101.214 125.181 100.224C125.032 99.2316 124.452 98.3162 123.466 97.6006L122.879 98.4098C123.683 98.9937 124.089 99.6857 124.192 100.372C124.295 101.062 124.102 101.808 123.59 102.512L124.399 103.1ZM123.466 97.6006C122.47 96.8777 121.417 96.6061 120.426 96.7724C119.438 96.9382 118.576 97.5285 117.937 98.4085L118.746 98.996C119.259 98.2899 119.905 97.8738 120.592 97.7586C121.275 97.6439 122.062 97.8168 122.879 98.4098L123.466 97.6006ZM117.937 98.4085C117.298 99.288 116.997 100.3 117.133 101.298C117.271 102.3 117.842 103.231 118.837 103.953L119.425 103.144C118.619 102.559 118.22 101.859 118.124 101.162C118.028 100.46 118.233 99.7027 118.746 98.996L117.937 98.4085ZM118.837 103.953C119.838 104.679 120.902 104.937 121.899 104.758C122.892 104.579 123.761 103.979 124.399 103.1L123.59 102.512C123.077 103.219 122.421 103.648 121.723 103.773C121.03 103.898 120.237 103.734 119.425 103.144L118.837 103.953Z" fill="#1C242A"/>
<path d="M69.1213 133H67.3573V126.154C67.3573 125.146 66.8533 124.6 65.9293 124.6H64.9493V122.822H65.9293C67.9733 122.822 69.1213 124.054 69.1213 126.154V133ZM78.512 133H70.882V131.222H78.512C79.464 131.222 79.982 130.69 79.982 129.892C79.982 129.024 79.45 128.576 78.512 128.576H70.882V122.822H81.172V124.6H72.716V127.078H78.512C80.556 127.078 81.662 128.044 81.662 130.018C81.662 131.726 80.626 133 78.512 133Z" fill="url(#paint7_linear_1821_28611)"/>
<path d="M69.1213 133V133.5H69.6213V133H69.1213ZM67.3573 133H66.8573V133.5H67.3573V133ZM64.9493 124.6H64.4493V125.1H64.9493V124.6ZM64.9493 122.822V122.322H64.4493V122.822H64.9493ZM69.1213 132.5H67.3573V133.5H69.1213V132.5ZM67.8573 133V126.154H66.8573V133H67.8573ZM67.8573 126.154C67.8573 125.573 67.712 125.045 67.3577 124.66C66.9973 124.269 66.4908 124.1 65.9293 124.1V125.1C66.2918 125.1 66.4992 125.204 66.6218 125.338C66.7506 125.478 66.8573 125.727 66.8573 126.154H67.8573ZM65.9293 124.1H64.9493V125.1H65.9293V124.1ZM65.4493 124.6V122.822H64.4493V124.6H65.4493ZM64.9493 123.322H65.9293V122.322H64.9493V123.322ZM65.9293 123.322C66.8496 123.322 67.5032 123.597 67.9294 124.045C68.3593 124.497 68.6213 125.192 68.6213 126.154H69.6213C69.6213 125.016 69.3093 124.045 68.6541 123.356C67.9954 122.663 67.053 122.322 65.9293 122.322V123.322ZM68.6213 126.154V133H69.6213V126.154H68.6213ZM70.882 133H70.382V133.5H70.882V133ZM70.882 131.222V130.722H70.382V131.222H70.882ZM70.882 128.576H70.382V129.076H70.882V128.576ZM70.882 122.822V122.322H70.382V122.822H70.882ZM81.172 122.822H81.672V122.322H81.172V122.822ZM81.172 124.6V125.1H81.672V124.6H81.172ZM72.716 124.6V124.1H72.216V124.6H72.716ZM72.716 127.078H72.216V127.578H72.716V127.078ZM78.512 132.5H70.882V133.5H78.512V132.5ZM71.382 133V131.222H70.382V133H71.382ZM70.882 131.722H78.512V130.722H70.882V131.722ZM78.512 131.722C79.0792 131.722 79.5815 131.562 79.9458 131.221C80.3135 130.877 80.482 130.402 80.482 129.892H79.482C79.482 130.18 79.3915 130.37 79.2622 130.491C79.1295 130.616 78.8968 130.722 78.512 130.722V131.722ZM80.482 129.892C80.482 129.353 80.313 128.871 79.9293 128.533C79.5562 128.205 79.0528 128.076 78.512 128.076V129.076C78.9092 129.076 79.1408 129.171 79.2682 129.284C79.385 129.387 79.482 129.563 79.482 129.892H80.482ZM78.512 128.076H70.882V129.076H78.512V128.076ZM71.382 128.576V122.822H70.382V128.576H71.382ZM70.882 123.322H81.172V122.322H70.882V123.322ZM80.672 122.822V124.6H81.672V122.822H80.672ZM81.172 124.1H72.716V125.1H81.172V124.1ZM72.216 124.6V127.078H73.216V124.6H72.216ZM72.716 127.578H78.512V126.578H72.716V127.578ZM78.512 127.578C79.4636 127.578 80.1093 127.803 80.5154 128.176C80.9137 128.542 81.162 129.123 81.162 130.018H82.162C82.162 128.939 81.8573 128.05 81.1916 127.439C80.5337 126.836 79.6044 126.578 78.512 126.578V127.578ZM81.162 130.018C81.162 130.772 80.9347 131.381 80.5233 131.799C80.1143 132.215 79.4669 132.5 78.512 132.5V133.5C79.6712 133.5 80.5987 133.148 81.2362 132.5C81.8713 131.854 82.162 130.972 82.162 130.018H81.162Z" fill="#1C242A"/>
<path d="M32.6065 103.879L24.273 108.983L22.7156 106.44C21.6847 104.756 22.1115 103.362 23.8546 102.295L26.9945 100.372C27.6512 99.9698 27.8516 99.3053 27.4495 98.6486C27.0474 97.992 26.3809 97.8419 25.7004 98.2587L19.9577 101.776L19.0291 100.259L24.7718 96.7424C26.491 95.6896 28.0703 96.1507 28.9258 97.5475C29.8032 98.9802 29.4364 100.633 27.7888 101.642L24.6369 103.572C23.825 104.07 23.6292 104.715 24.0825 105.455L24.7771 106.589L31.6779 102.363L32.6065 103.879ZM38.4412 100.454C35.8981 102.011 32.7118 101.205 31.1617 98.6736C29.6044 96.1305 30.451 93.1167 32.994 91.5593C35.5251 90.0093 38.6064 90.6176 40.1638 93.1606C41.7138 95.6917 40.9722 98.9039 38.4412 100.454ZM38.6795 94.1681C37.6558 92.4967 35.8163 91.9323 33.9299 93.0875C32.0197 94.2574 31.6983 96.1451 32.7219 97.8166C33.7455 99.4881 35.6023 100.108 37.5007 98.945C39.4109 97.7751 39.7031 95.8396 38.6795 94.1681Z" fill="url(#paint8_linear_1821_28611)"/>
<path d="M32.6065 103.879L32.8676 104.306L33.294 104.045L33.0329 103.618L32.6065 103.879ZM24.273 108.983L23.8466 109.244L24.1077 109.67L24.5341 109.409L24.273 108.983ZM19.9577 101.776L19.5313 102.037L19.7924 102.463L20.2188 102.202L19.9577 101.776ZM19.0291 100.259L18.768 99.8329L18.3416 100.094L18.6027 100.52L19.0291 100.259ZM24.7771 106.589L24.3507 106.85L24.6119 107.277L25.0382 107.016L24.7771 106.589ZM31.6779 102.363L32.1043 102.102L31.8432 101.676L31.4168 101.937L31.6779 102.363ZM32.3453 103.453L24.0119 108.556L24.5341 109.409L32.8676 104.306L32.3453 103.453ZM24.6994 108.722L23.142 106.179L22.2892 106.701L23.8466 109.244L24.6994 108.722ZM23.142 106.179C22.6739 105.414 22.5797 104.79 22.726 104.272C22.8749 103.745 23.3042 103.218 24.1157 102.721L23.5934 101.868C22.6619 102.439 22.0062 103.143 21.7637 104C21.5185 104.868 21.7264 105.782 22.2892 106.701L23.142 106.179ZM24.1157 102.721L27.2557 100.798L26.7334 99.9455L23.5934 101.868L24.1157 102.721ZM27.2557 100.798C27.6683 100.546 27.9789 100.184 28.1012 99.7381C28.225 99.2871 28.138 98.8154 27.8759 98.3875L27.0231 98.9097C27.1632 99.1384 27.177 99.3274 27.1369 99.4734C27.0954 99.6246 26.9774 99.7961 26.7334 99.9455L27.2557 100.798ZM27.8759 98.3875C27.6182 97.9668 27.2467 97.6656 26.7884 97.5632C26.3326 97.4613 25.864 97.5722 25.4393 97.8323L25.9615 98.6851C26.2173 98.5285 26.4222 98.506 26.5703 98.5391C26.7159 98.5716 26.8786 98.6738 27.0231 98.9097L27.8759 98.3875ZM25.4393 97.8323L19.6966 101.349L20.2188 102.202L25.9615 98.6851L25.4393 97.8323ZM20.3841 101.514L19.4555 99.9982L18.6027 100.52L19.5313 102.037L20.3841 101.514ZM19.2903 100.686L25.0329 97.1688L24.5107 96.316L18.768 99.8329L19.2903 100.686ZM25.0329 97.1688C25.8059 96.6955 26.4993 96.5897 27.0649 96.7146C27.6297 96.8393 28.1316 97.2082 28.4994 97.8087L29.3522 97.2864C28.8645 96.49 28.149 95.9299 27.2805 95.7381C26.4128 95.5465 25.4569 95.7365 24.5107 96.316L25.0329 97.1688ZM28.4994 97.8087C28.8754 98.4226 28.9701 99.0551 28.8204 99.6271C28.6705 100.2 28.2606 100.767 27.5277 101.216L28.0499 102.068C28.9646 101.508 29.5619 100.744 29.7879 99.8802C30.0141 99.0155 29.8536 98.1051 29.3522 97.2864L28.4994 97.8087ZM27.5277 101.216L24.3758 103.146L24.898 103.999L28.0499 102.068L27.5277 101.216ZM24.3758 103.146C23.9101 103.431 23.5476 103.803 23.4059 104.28C23.2608 104.769 23.3785 105.263 23.6561 105.716L24.5089 105.194C24.3332 104.907 24.3222 104.708 24.3646 104.565C24.4105 104.41 24.5518 104.211 24.898 103.999L24.3758 103.146ZM23.6561 105.716L24.3507 106.85L25.2035 106.328L24.5089 105.194L23.6561 105.716ZM25.0382 107.016L31.939 102.79L31.4168 101.937L24.516 106.163L25.0382 107.016ZM31.2515 102.624L32.1801 104.141L33.0329 103.618L32.1043 102.102L31.2515 102.624ZM38.18 100.028C35.8777 101.438 32.9971 100.713 31.5881 98.4124L30.7353 98.9347C32.4264 101.696 35.9186 102.585 38.7023 100.88L38.18 100.028ZM31.5881 98.4124C30.186 96.1229 30.9292 93.4102 33.2552 91.9857L32.7329 91.1329C29.9728 92.8232 29.0227 96.1381 30.7353 98.9347L31.5881 98.4124ZM33.2552 91.9857C35.57 90.5681 38.3357 91.133 39.7374 93.4218L40.5902 92.8995C38.8771 90.1022 35.4803 89.4504 32.7329 91.1329L33.2552 91.9857ZM39.7374 93.4218C41.1459 95.7218 40.4712 98.6244 38.18 100.028L38.7023 100.88C41.4733 99.1834 42.2817 95.6616 40.5902 92.8995L39.7374 93.4218ZM39.1059 93.907C38.5371 92.9784 37.7201 92.3251 36.7493 92.0827C35.7757 91.8396 34.7076 92.025 33.6688 92.6611L34.1911 93.5139C35.0386 92.9949 35.8335 92.8848 36.5071 93.0529C37.1836 93.2218 37.7982 93.6864 38.2531 94.4293L39.1059 93.907ZM33.6688 92.6611C32.6194 93.3038 31.9649 94.1723 31.7385 95.1514C31.5129 96.1275 31.7275 97.1503 32.2955 98.0777L33.1483 97.5555C32.6926 96.8114 32.5561 96.0547 32.7129 95.3766C32.8689 94.7015 33.3302 94.0411 34.1911 93.5139L33.6688 92.6611ZM32.2955 98.0777C32.863 99.0045 33.682 99.6705 34.6559 99.9271C35.6348 100.185 36.7128 100.014 37.7618 99.3714L37.2395 98.5186C36.3902 99.0387 35.5906 99.1392 34.9106 98.96C34.2256 98.7796 33.6043 98.3002 33.1483 97.5555L32.2955 98.0777ZM37.7618 99.3714C38.816 98.7258 39.4617 97.842 39.6787 96.8517C39.8946 95.8663 39.6734 94.8338 39.1059 93.907L38.2531 94.4293C38.7091 95.1739 38.8536 95.945 38.7018 96.6376C38.5511 97.3255 38.0956 97.9943 37.2395 98.5186L37.7618 99.3714Z" fill="#1C242A"/>
<path d="M26.3947 50.8989L18.2976 45.4282L19.9671 42.9573C21.0722 41.3217 22.5178 41.1326 24.2115 42.2769L27.2624 44.3382C27.9004 44.7693 28.5883 44.6764 29.0193 44.0384C29.4504 43.4004 29.3109 42.7317 28.6497 42.2849L23.0698 38.515L24.0652 37.0417L29.6451 40.8117C31.3155 41.9403 31.5501 43.5687 30.6331 44.926C29.6925 46.318 28.0362 46.6689 26.4354 45.5873L23.3728 43.5181C22.584 42.9852 21.9156 43.0742 21.4296 43.7934L20.6851 44.8955L27.3901 49.4257L26.3947 50.8989ZM34.1925 56.1674L27.8703 51.8959L28.8656 50.4226L35.1879 54.6942C35.9767 55.2271 36.7038 55.0763 37.1505 54.4151C37.6365 53.6958 37.4464 53.0268 36.6692 52.5017L30.347 48.2301L33.5683 43.4623L42.0946 49.223L41.0992 50.6963L34.0925 45.9623L32.7053 48.0156L37.5078 51.2604C39.2015 52.4047 39.5771 53.8243 38.472 55.46C37.5158 56.8753 35.9442 57.3509 34.1925 56.1674Z" fill="url(#paint9_linear_1821_28611)"/>
<path d="M26.3947 50.8989L26.1148 51.3132L26.5291 51.5932L26.809 51.1789L26.3947 50.8989ZM18.2976 45.4282L17.8833 45.1483L17.6034 45.5626L18.0177 45.8425L18.2976 45.4282ZM23.0698 38.515L22.6555 38.2351L22.3756 38.6494L22.7899 38.9293L23.0698 38.515ZM24.0652 37.0417L24.3452 36.6274L23.9309 36.3475L23.6509 36.7618L24.0652 37.0417ZM20.6851 44.8955L20.2708 44.6156L19.9908 45.0299L20.4051 45.3098L20.6851 44.8955ZM27.3901 49.4257L27.8044 49.7056L28.0843 49.2913L27.67 49.0114L27.3901 49.4257ZM26.6746 50.4846L18.5775 45.0139L18.0177 45.8425L26.1148 51.3132L26.6746 50.4846ZM18.7119 45.7081L20.3814 43.2372L19.5528 42.6774L17.8833 45.1483L18.7119 45.7081ZM20.3814 43.2372C20.8832 42.4945 21.4125 42.1501 21.9441 42.0689C22.4854 41.9862 23.143 42.1584 23.9316 42.6912L24.4914 41.8626C23.5862 41.251 22.6742 40.9457 21.793 41.0803C20.9021 41.2165 20.1561 41.7845 19.5528 42.6774L20.3814 43.2372ZM23.9316 42.6912L26.9825 44.7525L27.5423 43.9239L24.4914 41.8626L23.9316 42.6912ZM26.9825 44.7525C27.3835 45.0234 27.8414 45.1562 28.2977 45.0829C28.7595 45.0087 29.1527 44.7342 29.4336 44.3183L28.605 43.7585C28.4549 43.9807 28.2887 44.0715 28.1392 44.0955C27.9843 44.1204 27.7793 44.084 27.5423 43.9239L26.9825 44.7525ZM29.4336 44.3183C29.7098 43.9095 29.83 43.4466 29.7334 42.9871C29.6373 42.53 29.3423 42.1495 28.9296 41.8706L28.3697 42.6992C28.6182 42.8671 28.7236 43.0443 28.7548 43.1928C28.7855 43.3388 28.7599 43.5293 28.605 43.7585L29.4336 44.3183ZM28.9296 41.8706L23.3498 38.1007L22.7899 38.9293L28.3697 42.6992L28.9296 41.8706ZM23.4841 38.7949L24.4795 37.3216L23.6509 36.7618L22.6555 38.2351L23.4841 38.7949ZM23.7853 37.456L29.3651 41.226L29.925 40.3974L24.3452 36.6274L23.7853 37.456ZM29.3651 41.226C30.1162 41.7334 30.4997 42.3207 30.6203 42.8872C30.7408 43.453 30.613 44.0626 30.2188 44.646L31.0474 45.2059C31.5702 44.4321 31.7836 43.5489 31.5984 42.679C31.4134 41.8098 30.8444 41.0186 29.925 40.3974L29.3651 41.226ZM30.2188 44.646C29.8157 45.2426 29.2793 45.5908 28.6966 45.6915C28.1128 45.7925 27.4274 45.6541 26.7153 45.173L26.1554 46.0016C27.0441 46.602 27.9873 46.829 28.867 46.6769C29.7479 46.5246 30.5099 46.0014 31.0474 45.2059L30.2188 44.646ZM26.7153 45.173L23.6528 43.1038L23.0929 43.9324L26.1554 46.0016L26.7153 45.173ZM23.6528 43.1038C23.2003 42.7981 22.7116 42.6222 22.2186 42.691C21.7132 42.7615 21.3129 43.0731 21.0153 43.5135L21.8439 44.0734C22.0323 43.7945 22.2092 43.702 22.3567 43.6814C22.5166 43.6591 22.7566 43.7052 23.0929 43.9324L23.6528 43.1038ZM21.0153 43.5135L20.2708 44.6156L21.0994 45.1754L21.8439 44.0734L21.0153 43.5135ZM20.4051 45.3098L27.1102 49.84L27.67 49.0114L20.965 44.4812L20.4051 45.3098ZM26.9758 49.1458L25.9804 50.619L26.809 51.1789L27.8044 49.7056L26.9758 49.1458ZM27.8703 51.8959L27.456 51.6159L27.176 52.0302L27.5903 52.3102L27.8703 51.8959ZM28.8656 50.4226L29.1456 50.0083L28.7313 49.7284L28.4513 50.1427L28.8656 50.4226ZM30.347 48.2301L29.9327 47.9502L29.6527 48.3645L30.0671 48.6444L30.347 48.2301ZM33.5683 43.4623L33.8482 43.048L33.4339 42.7681L33.154 43.1824L33.5683 43.4623ZM42.0946 49.223L42.5089 49.503L42.7888 49.0887L42.3745 48.8087L42.0946 49.223ZM41.0992 50.6963L40.8193 51.1106L41.2336 51.3905L41.5135 50.9762L41.0992 50.6963ZM34.0925 45.9623L34.3725 45.548L33.9582 45.2681L33.6782 45.6824L34.0925 45.9623ZM32.7053 48.0156L32.291 47.7357L32.011 48.15L32.4253 48.4299L32.7053 48.0156ZM34.4724 55.7531L28.1502 51.4816L27.5903 52.3102L33.9126 56.5817L34.4724 55.7531ZM28.2846 52.1758L29.2799 50.7025L28.4513 50.1427L27.456 51.6159L28.2846 52.1758ZM28.5857 50.8369L34.908 55.1085L35.4678 54.2798L29.1456 50.0083L28.5857 50.8369ZM34.908 55.1085C35.378 55.426 35.8835 55.5749 36.3764 55.4962C36.8739 55.4166 37.2793 55.1176 37.5648 54.695L36.7362 54.1352C36.575 54.3738 36.3935 54.4807 36.2186 54.5087C36.039 54.5374 35.7866 54.4953 35.4678 54.2798L34.908 55.1085ZM37.5648 54.695C37.8668 54.248 37.9961 53.7547 37.8675 53.2598C37.7424 52.7785 37.3973 52.3902 36.9491 52.0874L36.3893 52.916C36.7184 53.1383 36.8569 53.347 36.8996 53.5114C36.9388 53.6621 36.9202 53.8629 36.7362 54.1352L37.5648 54.695ZM36.9491 52.0874L30.6269 47.8158L30.0671 48.6444L36.3893 52.916L36.9491 52.0874ZM30.7613 48.51L33.9826 43.7422L33.154 43.1824L29.9327 47.9502L30.7613 48.51ZM33.2883 43.8766L41.8147 49.6373L42.3745 48.8087L33.8482 43.048L33.2883 43.8766ZM41.6803 48.9431L40.6849 50.4164L41.5135 50.9762L42.5089 49.503L41.6803 48.9431ZM41.3791 50.282L34.3725 45.548L33.8126 46.3766L40.8193 51.1106L41.3791 50.282ZM33.6782 45.6824L32.291 47.7357L33.1196 48.2955L34.5068 46.2422L33.6782 45.6824ZM32.4253 48.4299L37.2279 51.6747L37.7878 50.8461L32.9852 47.6013L32.4253 48.4299ZM37.2279 51.6747C38.0164 52.2075 38.4253 52.7558 38.5531 53.2919C38.6785 53.8178 38.5585 54.4388 38.0577 55.1801L38.8863 55.7399C39.4906 54.8455 39.7354 53.9389 39.5258 53.06C39.3187 52.1913 38.6929 51.4577 37.7878 50.8461L37.2279 51.6747ZM38.0577 55.1801C37.6356 55.8049 37.1066 56.1819 36.5315 56.2981C35.9597 56.4138 35.2636 56.2877 34.4724 55.7531L33.9126 56.5817C34.8731 57.2306 35.8386 57.4585 36.7297 57.2783C37.6173 57.0988 38.3523 56.5303 38.8863 55.7399L38.0577 55.1801Z" fill="#1C242A"/>
<path d="M126.354 50.3881L119.521 53.7833L118.729 52.1911L125.562 48.7958C126.415 48.3722 126.642 47.6653 126.287 46.9506C125.901 46.1733 125.225 46.0088 124.385 46.4262L117.552 49.8215L114.992 44.6686L124.207 40.0897L124.998 41.6819L117.425 45.4447L118.528 47.6639L123.718 45.0847C125.549 44.1752 126.969 44.5481 127.848 46.3159C128.608 47.8455 128.247 49.4474 126.354 50.3881Z" fill="url(#paint10_linear_1821_28611)"/>
<path d="M119.521 53.7834L119.073 54.0058L119.295 54.4536L119.743 54.2311L119.521 53.7834ZM118.729 52.1911L118.507 51.7433L118.059 51.9658L118.282 52.4136L118.729 52.1911ZM117.552 49.8215L117.104 50.044L117.327 50.4918L117.775 50.2693L117.552 49.8215ZM114.992 44.6686L114.769 44.2208L114.321 44.4433L114.544 44.8911L114.992 44.6686ZM124.207 40.0897L124.654 39.8672L124.432 39.4194L123.984 39.6419L124.207 40.0897ZM124.998 41.6819L125.22 42.1297L125.668 41.9072L125.446 41.4594L124.998 41.6819ZM117.425 45.4447L117.203 44.997L116.755 45.2195L116.977 45.6672L117.425 45.4447ZM118.528 47.6639L118.08 47.8864L118.303 48.3341L118.75 48.1116L118.528 47.6639ZM126.131 49.9403L119.298 53.3356L119.743 54.2311L126.576 50.8359L126.131 49.9403ZM119.968 53.5609L119.177 51.9686L118.282 52.4136L119.073 54.0058L119.968 53.5609ZM118.952 52.6389L125.785 49.2436L125.34 48.3481L118.507 51.7433L118.952 52.6389ZM125.785 49.2436C126.293 48.9912 126.672 48.6247 126.846 48.1571C127.022 47.685 126.962 47.1849 126.735 46.7281L125.839 47.1731C125.967 47.431 125.971 47.6417 125.909 47.8076C125.846 47.978 125.685 48.1768 125.34 48.3481L125.785 49.2436ZM126.735 46.7281C126.495 46.2451 126.129 45.8894 125.635 45.7574C125.155 45.629 124.647 45.7378 124.162 45.9785L124.607 46.874C124.963 46.6973 125.213 46.6796 125.377 46.7235C125.528 46.7637 125.693 46.8788 125.839 47.1731L126.735 46.7281ZM124.162 45.9785L117.33 49.3737L117.775 50.2693L124.607 46.874L124.162 45.9785ZM118 49.599L115.439 44.4461L114.544 44.8911L117.104 50.044L118 49.599ZM115.214 45.1163L124.429 40.5374L123.984 39.6419L114.769 44.2208L115.214 45.1163ZM123.759 40.3121L124.55 41.9044L125.446 41.4594L124.654 39.8672L123.759 40.3121ZM124.775 41.2341L117.203 44.997L117.648 45.8925L125.22 42.1297L124.775 41.2341ZM116.977 45.6672L118.08 47.8864L118.976 47.4414L117.873 45.2222L116.977 45.6672ZM118.75 48.1116L123.941 45.5325L123.496 44.637L118.305 47.2161L118.75 48.1116ZM123.941 45.5325C124.793 45.109 125.472 45.0236 126.001 45.1766C126.521 45.3268 127.002 45.7373 127.4 46.5384L128.295 46.0934C127.815 45.1267 127.147 44.4669 126.279 44.216C125.421 43.968 124.474 44.1508 123.496 44.637L123.941 45.5325ZM127.4 46.5384C127.735 47.2137 127.803 47.8597 127.62 48.4175C127.439 48.9719 126.986 49.5154 126.131 49.9403L126.576 50.8359C127.614 50.3201 128.288 49.5923 128.571 48.7282C128.852 47.8674 128.72 46.9477 128.295 46.0934L127.4 46.5384Z" fill="#1C242A"/>
<path d="M71 134C105.524 134 133.512 106.345 133.512 72.2308C133.512 50.2479 121.89 30.9472 104.387 20L71 134Z" fill="url(#paint11_linear_1821_28611)" fill-opacity="0.1"/>
<path d="M99.9917 122.858H99.1097V119.435C99.1097 118.931 98.8577 118.658 98.3957 118.658H97.9057V117.769H98.3957C99.4177 117.769 99.9917 118.385 99.9917 119.435V122.858ZM104.239 122.858H100.753V121.969H104.022C104.582 121.969 104.974 121.738 104.974 121.297C104.974 120.877 104.701 120.646 104.204 120.646H101.957V119.897H104.141C104.645 119.897 104.883 119.722 104.883 119.281C104.883 118.812 104.554 118.651 103.966 118.651H100.774V117.769H104.141C105.128 117.769 105.779 118.217 105.779 119.085C105.779 119.729 105.457 120.051 105.079 120.17C105.541 120.317 105.877 120.723 105.877 121.318C105.877 122.242 105.233 122.858 104.239 122.858Z" fill="url(#paint12_linear_1821_28611)"/>
<path d="M99.9917 122.858V123.108H100.242V122.858H99.9917ZM99.1097 122.858H98.8597V123.108H99.1097V122.858ZM97.9057 118.658H97.6557V118.908H97.9057V118.658ZM97.9057 117.769V117.519H97.6557V117.769H97.9057ZM99.9917 122.608H99.1097V123.108H99.9917V122.608ZM99.3597 122.858V119.435H98.8597V122.858H99.3597ZM99.3597 119.435C99.3597 119.145 99.2871 118.881 99.11 118.689C98.9298 118.493 98.6765 118.408 98.3957 118.408V118.908C98.577 118.908 98.6807 118.961 98.742 119.027C98.8064 119.097 98.8597 119.222 98.8597 119.435H99.3597ZM98.3957 118.408H97.9057V118.908H98.3957V118.408ZM98.1557 118.658V117.769H97.6557V118.658H98.1557ZM97.9057 118.019H98.3957V117.519H97.9057V118.019ZM98.3957 118.019C98.8559 118.019 99.1827 118.157 99.3958 118.381C99.6107 118.607 99.7417 118.954 99.7417 119.435H100.242C100.242 118.866 100.086 118.381 99.7582 118.036C99.4288 117.69 98.9576 117.519 98.3957 117.519V118.019ZM99.7417 119.435V122.858H100.242V119.435H99.7417ZM100.753 122.858H100.503V123.108H100.753V122.858ZM100.753 121.969V121.719H100.503V121.969H100.753ZM101.957 120.646H101.707V120.896H101.957V120.646ZM101.957 119.897V119.647H101.707V119.897H101.957ZM100.774 118.651H100.524V118.901H100.774V118.651ZM100.774 117.769V117.519H100.524V117.769H100.774ZM105.079 120.17L105.004 119.932L104.251 120.169L105.003 120.409L105.079 120.17ZM104.239 122.608H100.753V123.108H104.239V122.608ZM101.003 122.858V121.969H100.503V122.858H101.003ZM100.753 122.219H104.022V121.719H100.753V122.219ZM104.022 122.219C104.331 122.219 104.624 122.156 104.848 122.006C105.082 121.849 105.224 121.604 105.224 121.297H104.724C104.724 121.431 104.67 121.523 104.569 121.591C104.456 121.667 104.273 121.719 104.022 121.719V122.219ZM105.224 121.297C105.224 121.03 105.135 120.791 104.937 120.624C104.746 120.462 104.487 120.396 104.204 120.396V120.896C104.418 120.896 104.545 120.947 104.614 121.005C104.677 121.058 104.724 121.145 104.724 121.297H105.224ZM104.204 120.396H101.957V120.896H104.204V120.396ZM102.207 120.646V119.897H101.707V120.646H102.207ZM101.957 120.147H104.141V119.647H101.957V120.147ZM104.141 120.147C104.412 120.147 104.669 120.102 104.858 119.949C105.06 119.786 105.133 119.546 105.133 119.281H104.633C104.633 119.458 104.587 119.526 104.544 119.56C104.489 119.605 104.374 119.647 104.141 119.647V120.147ZM105.133 119.281C105.133 118.979 105.021 118.733 104.779 118.579C104.561 118.441 104.273 118.401 103.966 118.401V118.901C104.248 118.901 104.417 118.942 104.511 119.002C104.581 119.046 104.633 119.115 104.633 119.281H105.133ZM103.966 118.401H100.774V118.901H103.966V118.401ZM101.024 118.651V117.769H100.524V118.651H101.024ZM100.774 118.019H104.141V117.519H100.774V118.019ZM104.141 118.019C104.601 118.019 104.95 118.124 105.178 118.3C105.396 118.468 105.529 118.721 105.529 119.085H106.029C106.029 118.582 105.836 118.176 105.483 117.904C105.138 117.638 104.668 117.519 104.141 117.519V118.019ZM105.529 119.085C105.529 119.365 105.46 119.552 105.369 119.678C105.277 119.804 105.15 119.886 105.004 119.932L105.154 120.409C105.386 120.336 105.609 120.198 105.773 119.972C105.937 119.746 106.029 119.45 106.029 119.085H105.529ZM105.003 120.409C105.361 120.522 105.627 120.832 105.627 121.318H106.127C106.127 120.615 105.721 120.112 105.155 119.932L105.003 120.409ZM105.627 121.318C105.627 121.72 105.489 122.036 105.259 122.253C105.028 122.471 104.684 122.608 104.239 122.608V123.108C104.788 123.108 105.263 122.938 105.603 122.617C105.944 122.294 106.127 121.841 106.127 121.318H105.627Z" fill="#1C242A"/>
<path d="M43.5657 122.858H42.6837V119.435C42.6837 118.931 42.4317 118.658 41.9697 118.658H41.4797V117.769H41.9697C42.9917 117.769 43.5657 118.385 43.5657 119.435V122.858ZM48.2961 122.858H46.0001C45.0061 122.858 44.3621 122.249 44.3621 121.318C44.3621 120.723 44.6981 120.317 45.1601 120.17C44.7821 120.051 44.4601 119.729 44.4601 119.085C44.4601 118.217 45.1111 117.769 46.0981 117.769H48.1981C49.1851 117.769 49.8431 118.217 49.8431 119.085C49.8431 119.729 49.5141 120.051 49.1361 120.17C49.5981 120.317 49.9341 120.723 49.9341 121.318C49.9341 122.249 49.2901 122.858 48.2961 122.858ZM48.2611 120.646H46.0351C45.5381 120.646 45.2581 120.884 45.2581 121.304C45.2581 121.745 45.6571 121.969 46.2171 121.969H48.0791C48.6391 121.969 49.0381 121.745 49.0381 121.304C49.0381 120.884 48.7581 120.646 48.2611 120.646ZM48.0301 118.651H46.2661C45.6851 118.651 45.3561 118.812 45.3561 119.281C45.3561 119.722 45.5941 119.897 46.0981 119.897H48.1981C48.7021 119.897 48.9401 119.722 48.9401 119.281C48.9401 118.812 48.6111 118.651 48.0301 118.651Z" fill="url(#paint13_linear_1821_28611)"/>
<path d="M43.5657 122.858V123.108H43.8157V122.858H43.5657ZM42.6837 122.858H42.4337V123.108H42.6837V122.858ZM41.4797 118.658H41.2297V118.908H41.4797V118.658ZM41.4797 117.769V117.519H41.2297V117.769H41.4797ZM43.5657 122.608H42.6837V123.108H43.5657V122.608ZM42.9337 122.858V119.435H42.4337V122.858H42.9337ZM42.9337 119.435C42.9337 119.145 42.8611 118.881 42.6839 118.689C42.5037 118.493 42.2505 118.408 41.9697 118.408V118.908C42.151 118.908 42.2547 118.961 42.316 119.027C42.3804 119.097 42.4337 119.222 42.4337 119.435H42.9337ZM41.9697 118.408H41.4797V118.908H41.9697V118.408ZM41.7297 118.658V117.769H41.2297V118.658H41.7297ZM41.4797 118.019H41.9697V117.519H41.4797V118.019ZM41.9697 118.019C42.4299 118.019 42.7567 118.157 42.9698 118.381C43.1847 118.607 43.3157 118.954 43.3157 119.435H43.8157C43.8157 118.866 43.6597 118.381 43.3321 118.036C43.0028 117.69 42.5316 117.519 41.9697 117.519V118.019ZM43.3157 119.435V122.858H43.8157V119.435H43.3157ZM45.1601 120.17L45.2359 120.409L45.9886 120.169L45.2351 119.932L45.1601 120.17ZM49.1361 120.17L49.061 119.932L48.3076 120.169L49.0603 120.409L49.1361 120.17ZM48.2961 122.608H46.0001V123.108H48.2961V122.608ZM46.0001 122.608C45.5541 122.608 45.2101 122.472 44.9797 122.256C44.7508 122.04 44.6121 121.724 44.6121 121.318H44.1121C44.1121 121.844 44.2954 122.298 44.6369 122.62C44.9771 122.94 45.4521 123.108 46.0001 123.108V122.608ZM44.6121 121.318C44.6121 120.832 44.878 120.522 45.2359 120.409L45.0843 119.932C44.5181 120.112 44.1121 120.615 44.1121 121.318H44.6121ZM45.2351 119.932C45.0889 119.886 44.9621 119.804 44.8706 119.678C44.7794 119.552 44.7101 119.365 44.7101 119.085H44.2101C44.2101 119.45 44.3018 119.746 44.4661 119.972C44.6301 120.198 44.8532 120.336 45.085 120.409L45.2351 119.932ZM44.7101 119.085C44.7101 118.721 44.8429 118.468 45.0616 118.3C45.2894 118.124 45.638 118.019 46.0981 118.019V117.519C45.5711 117.519 45.1008 117.638 44.7563 117.904C44.4028 118.176 44.2101 118.582 44.2101 119.085H44.7101ZM46.0981 118.019H48.1981V117.519H46.0981V118.019ZM48.1981 118.019C48.6581 118.019 49.0089 118.124 49.2387 118.3C49.4592 118.469 49.5931 118.722 49.5931 119.085H50.0931C50.0931 118.581 49.8979 118.175 49.5427 117.903C49.1968 117.638 48.725 117.519 48.1981 117.519V118.019ZM49.5931 119.085C49.5931 119.364 49.5227 119.551 49.43 119.677C49.3369 119.803 49.2079 119.886 49.061 119.932L49.2111 120.409C49.4422 120.336 49.6668 120.198 49.8326 119.973C49.999 119.747 50.0931 119.451 50.0931 119.085H49.5931ZM49.0603 120.409C49.4181 120.522 49.6841 120.832 49.6841 121.318H50.1841C50.1841 120.615 49.778 120.112 49.2119 119.932L49.0603 120.409ZM49.6841 121.318C49.6841 121.724 49.5454 122.04 49.3164 122.256C49.0861 122.472 48.7421 122.608 48.2961 122.608V123.108C48.8441 123.108 49.3191 122.94 49.6592 122.62C50.0008 122.298 50.1841 121.844 50.1841 121.318H49.6841ZM48.2611 120.396H46.0351V120.896H48.2611V120.396ZM46.0351 120.396C45.7503 120.396 45.4907 120.464 45.2985 120.627C45.1002 120.795 45.0081 121.035 45.0081 121.304H45.5081C45.5081 121.153 45.5559 121.064 45.6219 121.009C45.694 120.947 45.8228 120.896 46.0351 120.896V120.396ZM45.0081 121.304C45.0081 121.614 45.1541 121.857 45.3906 122.011C45.6154 122.159 45.909 122.219 46.2171 122.219V121.719C45.9652 121.719 45.7792 121.668 45.6645 121.593C45.5615 121.526 45.5081 121.436 45.5081 121.304H45.0081ZM46.2171 122.219H48.0791V121.719H46.2171V122.219ZM48.0791 122.219C48.3872 122.219 48.6807 122.159 48.9055 122.011C49.142 121.857 49.2881 121.614 49.2881 121.304H48.7881C48.7881 121.436 48.7346 121.526 48.6316 121.593C48.5169 121.668 48.331 121.719 48.0791 121.719V122.219ZM49.2881 121.304C49.2881 121.035 49.1959 120.795 48.9976 120.627C48.8055 120.464 48.5458 120.396 48.2611 120.396V120.896C48.4733 120.896 48.6022 120.947 48.6743 121.009C48.7402 121.064 48.7881 121.153 48.7881 121.304H49.2881ZM48.0301 118.401H46.2661V118.901H48.0301V118.401ZM46.2661 118.401C45.9628 118.401 45.6755 118.441 45.4587 118.58C45.2185 118.733 45.1061 118.979 45.1061 119.281H45.6061C45.6061 119.115 45.6582 119.046 45.7277 119.001C45.8207 118.942 45.9884 118.901 46.2661 118.901V118.401ZM45.1061 119.281C45.1061 119.546 45.1791 119.786 45.3811 119.949C45.5705 120.102 45.8268 120.147 46.0981 120.147V119.647C45.8654 119.647 45.7506 119.605 45.6951 119.56C45.6521 119.526 45.6061 119.458 45.6061 119.281H45.1061ZM46.0981 120.147H48.1981V119.647H46.0981V120.147ZM48.1981 120.147C48.4694 120.147 48.7256 120.102 48.9151 119.949C49.1171 119.786 49.1901 119.546 49.1901 119.281H48.6901C48.6901 119.458 48.6441 119.526 48.6011 119.56C48.5455 119.605 48.4308 119.647 48.1981 119.647V120.147ZM49.1901 119.281C49.1901 118.979 49.0777 118.733 48.8375 118.58C48.6207 118.441 48.3334 118.401 48.0301 118.401V118.901C48.3078 118.901 48.4755 118.942 48.5684 119.001C48.638 119.046 48.6901 119.115 48.6901 119.281H49.1901Z" fill="#1C242A"/>
<path d="M18.1659 74.5742H13.2799V73.0832C13.2799 72.0962 13.8259 71.6132 14.8479 71.6132H16.6889C17.0739 71.6132 17.3329 71.3822 17.3329 70.9972C17.3329 70.6122 17.0879 70.3742 16.6889 70.3742H13.3219V69.4852H16.6889C17.6969 69.4852 18.2499 70.0942 18.2499 70.9132C18.2499 71.7532 17.6619 72.3622 16.6959 72.3622H14.8479C14.3719 72.3622 14.1199 72.5862 14.1199 73.0202V73.6852H18.1659V74.5742ZM22.4233 74.5742H18.9373V73.6852H22.2063C22.7663 73.6852 23.1583 73.4542 23.1583 73.0132C23.1583 72.5932 22.8853 72.3622 22.3883 72.3622H20.1413V71.6132H22.3253C22.8293 71.6132 23.0673 71.4382 23.0673 70.9972C23.0673 70.5282 22.7383 70.3672 22.1503 70.3672H18.9583V69.4852H22.3253C23.3123 69.4852 23.9633 69.9332 23.9633 70.8012C23.9633 71.4452 23.6413 71.7672 23.2633 71.8862C23.7253 72.0332 24.0613 72.4392 24.0613 73.0342C24.0613 73.9582 23.4173 74.5742 22.4233 74.5742Z" fill="url(#paint14_linear_1821_28611)"/>
<path d="M18.1659 74.5742V74.8242H18.4159V74.5742H18.1659ZM13.2799 74.5742H13.0299V74.8242H13.2799V74.5742ZM13.3219 70.3742H13.0719V70.6242H13.3219V70.3742ZM13.3219 69.4852V69.2352H13.0719V69.4852H13.3219ZM14.1199 73.6852H13.8699V73.9352H14.1199V73.6852ZM18.1659 73.6852H18.4159V73.4352H18.1659V73.6852ZM18.1659 74.3242H13.2799V74.8242H18.1659V74.3242ZM13.5299 74.5742V73.0832H13.0299V74.5742H13.5299ZM13.5299 73.0832C13.5299 72.635 13.6528 72.3442 13.8503 72.1617C14.0514 71.9759 14.3721 71.8632 14.8479 71.8632V71.3632C14.3017 71.3632 13.8384 71.492 13.511 71.7945C13.18 72.1003 13.0299 72.5444 13.0299 73.0832H13.5299ZM14.8479 71.8632H16.6889V71.3632H14.8479V71.8632ZM16.6889 71.8632C16.9309 71.8632 17.1578 71.79 17.3263 71.6319C17.4969 71.472 17.5829 71.2481 17.5829 70.9972H17.0829C17.0829 71.1313 17.0395 71.2155 16.9843 71.2673C16.9271 71.3209 16.832 71.3632 16.6889 71.3632V71.8632ZM17.5829 70.9972C17.5829 70.7505 17.5032 70.5251 17.3345 70.3618C17.1667 70.1993 16.938 70.1242 16.6889 70.1242V70.6242C16.8389 70.6242 16.9321 70.6681 16.9866 70.7209C17.0402 70.7728 17.0829 70.8589 17.0829 70.9972H17.5829ZM16.6889 70.1242H13.3219V70.6242H16.6889V70.1242ZM13.5719 70.3742V69.4852H13.0719V70.3742H13.5719ZM13.3219 69.7352H16.6889V69.2352H13.3219V69.7352ZM16.6889 69.7352C17.1421 69.7352 17.4654 69.8712 17.674 70.0721C17.8822 70.2728 17.9999 70.5611 17.9999 70.9132H18.4999C18.4999 70.4463 18.3411 70.0206 18.0209 69.7121C17.7009 69.4038 17.2437 69.2352 16.6889 69.2352V69.7352ZM17.9999 70.9132C17.9999 71.2732 17.8752 71.5676 17.662 71.7724C17.4484 71.9777 17.1257 72.1122 16.6959 72.1122V72.6122C17.2322 72.6122 17.6865 72.4423 18.0084 72.133C18.3307 71.8233 18.4999 71.3933 18.4999 70.9132H17.9999ZM16.6959 72.1122H14.8479V72.6122H16.6959V72.1122ZM14.8479 72.1122C14.5749 72.1122 14.3232 72.1761 14.1382 72.3426C13.9486 72.5133 13.8699 72.7545 13.8699 73.0202H14.3699C14.3699 72.852 14.4173 72.7641 14.4727 72.7143C14.5327 72.6603 14.645 72.6122 14.8479 72.6122V72.1122ZM13.8699 73.0202V73.6852H14.3699V73.0202H13.8699ZM14.1199 73.9352H18.1659V73.4352H14.1199V73.9352ZM17.9159 73.6852V74.5742H18.4159V73.6852H17.9159ZM18.9373 74.5742H18.6873V74.8242H18.9373V74.5742ZM18.9373 73.6852V73.4352H18.6873V73.6852H18.9373ZM20.1413 72.3622H19.8913V72.6122H20.1413V72.3622ZM20.1413 71.6132V71.3632H19.8913V71.6132H20.1413ZM18.9583 70.3672H18.7083V70.6172H18.9583V70.3672ZM18.9583 69.4852V69.2352H18.7083V69.4852H18.9583ZM23.2633 71.8862L23.1882 71.6478L22.4348 71.885L23.1875 72.1245L23.2633 71.8862ZM22.4233 74.3242H18.9373V74.8242H22.4233V74.3242ZM19.1873 74.5742V73.6852H18.6873V74.5742H19.1873ZM18.9373 73.9352H22.2063V73.4352H18.9373V73.9352ZM22.2063 73.9352C22.5157 73.9352 22.8084 73.8722 23.0317 73.7221C23.2662 73.5646 23.4083 73.3202 23.4083 73.0132H22.9083C22.9083 73.1473 22.8544 73.2388 22.7529 73.3071C22.6402 73.3828 22.4569 73.4352 22.2063 73.4352V73.9352ZM23.4083 73.0132C23.4083 72.746 23.319 72.5067 23.1211 72.3393C22.9299 72.1776 22.6714 72.1122 22.3883 72.1122V72.6122C22.6022 72.6122 22.7287 72.6623 22.7983 72.7211C22.8611 72.7742 22.9083 72.8604 22.9083 73.0132H23.4083ZM22.3883 72.1122H20.1413V72.6122H22.3883V72.1122ZM20.3913 72.3622V71.6132H19.8913V72.3622H20.3913ZM20.1413 71.8632H22.3253V71.3632H20.1413V71.8632ZM22.3253 71.8632C22.5966 71.8632 22.8529 71.8181 23.0423 71.6651C23.2443 71.5021 23.3173 71.262 23.3173 70.9972H22.8173C22.8173 71.1735 22.7713 71.2413 22.7283 71.2761C22.6727 71.3209 22.558 71.3632 22.3253 71.3632V71.8632ZM23.3173 70.9972C23.3173 70.6945 23.2048 70.4486 22.9633 70.2953C22.7457 70.1571 22.4567 70.1172 22.1503 70.1172V70.6172C22.4319 70.6172 22.6014 70.6578 22.6953 70.7174C22.7653 70.7618 22.8173 70.831 22.8173 70.9972H23.3173ZM22.1503 70.1172H18.9583V70.6172H22.1503V70.1172ZM19.2083 70.3672V69.4852H18.7083V70.3672H19.2083ZM18.9583 69.7352H22.3253V69.2352H18.9583V69.7352ZM22.3253 69.7352C22.7854 69.7352 23.134 69.8402 23.3618 70.0157C23.5805 70.1842 23.7133 70.4368 23.7133 70.8012H24.2133C24.2133 70.2977 24.0206 69.8922 23.667 69.6197C23.3226 69.3543 22.8522 69.2352 22.3253 69.2352V69.7352ZM23.7133 70.8012C23.7133 71.0806 23.644 71.2681 23.5528 71.3937C23.4613 71.5196 23.3345 71.6017 23.1882 71.6478L23.3384 72.1247C23.5701 72.0517 23.7933 71.9133 23.9573 71.6875C24.1216 71.4614 24.2133 71.1658 24.2133 70.8012H23.7133ZM23.1875 72.1245C23.5454 72.2383 23.8113 72.5477 23.8113 73.0342H24.3113C24.3113 72.3307 23.9052 71.8281 23.3391 71.648L23.1875 72.1245ZM23.8113 73.0342C23.8113 73.4359 23.6728 73.7522 23.4434 73.969C23.2126 74.187 22.8685 74.3242 22.4233 74.3242V74.8242C22.9721 74.8242 23.447 74.6534 23.7867 74.3324C24.1278 74.0102 24.3113 73.5566 24.3113 73.0342H23.8113Z" fill="#1C242A"/>
<path d="M44.0972 26.6865H39.2112V25.1955C39.2112 24.2085 39.7572 23.7255 40.7792 23.7255H42.6202C43.0052 23.7255 43.2642 23.4945 43.2642 23.1095C43.2642 22.7245 43.0192 22.4865 42.6202 22.4865H39.2532V21.5975H42.6202C43.6282 21.5975 44.1812 22.2065 44.1812 23.0255C44.1812 23.8655 43.5932 24.4745 42.6272 24.4745H40.7792C40.3032 24.4745 40.0512 24.6985 40.0512 25.1325V25.7975H44.0972V26.6865ZM48.8376 26.6865H46.5416C45.5476 26.6865 44.9036 26.0775 44.9036 25.1465C44.9036 24.5515 45.2396 24.1455 45.7016 23.9985C45.3236 23.8795 45.0016 23.5575 45.0016 22.9135C45.0016 22.0455 45.6526 21.5975 46.6396 21.5975H48.7396C49.7266 21.5975 50.3846 22.0455 50.3846 22.9135C50.3846 23.5575 50.0556 23.8795 49.6776 23.9985C50.1396 24.1455 50.4756 24.5515 50.4756 25.1465C50.4756 26.0775 49.8316 26.6865 48.8376 26.6865ZM48.8026 24.4745H46.5766C46.0796 24.4745 45.7996 24.7125 45.7996 25.1325C45.7996 25.5735 46.1986 25.7975 46.7586 25.7975H48.6206C49.1806 25.7975 49.5796 25.5735 49.5796 25.1325C49.5796 24.7125 49.2996 24.4745 48.8026 24.4745ZM48.5716 22.4795H46.8076C46.2266 22.4795 45.8976 22.6405 45.8976 23.1095C45.8976 23.5505 46.1356 23.7255 46.6396 23.7255H48.7396C49.2436 23.7255 49.4816 23.5505 49.4816 23.1095C49.4816 22.6405 49.1526 22.4795 48.5716 22.4795Z" fill="url(#paint15_linear_1821_28611)"/>
<path d="M44.0972 26.6865V26.9365H44.3472V26.6865H44.0972ZM39.2112 26.6865H38.9612V26.9365H39.2112V26.6865ZM39.2532 22.4865H39.0032V22.7365H39.2532V22.4865ZM39.2532 21.5975V21.3475H39.0032V21.5975H39.2532ZM40.0512 25.7975H39.8012V26.0475H40.0512V25.7975ZM44.0972 25.7975H44.3472V25.5475H44.0972V25.7975ZM44.0972 26.4365H39.2112V26.9365H44.0972V26.4365ZM39.4612 26.6865V25.1955H38.9612V26.6865H39.4612ZM39.4612 25.1955C39.4612 24.7473 39.5841 24.4565 39.7816 24.274C39.9827 24.0882 40.3034 23.9755 40.7792 23.9755V23.4755C40.233 23.4755 39.7697 23.6043 39.4423 23.9068C39.1113 24.2126 38.9612 24.6567 38.9612 25.1955H39.4612ZM40.7792 23.9755H42.6202V23.4755H40.7792V23.9755ZM42.6202 23.9755C42.8622 23.9755 43.0891 23.9023 43.2576 23.7442C43.4282 23.5843 43.5142 23.3604 43.5142 23.1095H43.0142C43.0142 23.2436 42.9708 23.3278 42.9156 23.3796C42.8584 23.4332 42.7632 23.4755 42.6202 23.4755V23.9755ZM43.5142 23.1095C43.5142 22.8628 43.4344 22.6374 43.2658 22.4741C43.098 22.3116 42.8693 22.2365 42.6202 22.2365V22.7365C42.7702 22.7365 42.8634 22.7804 42.9179 22.8332C42.9715 22.8851 43.0142 22.9712 43.0142 23.1095H43.5142ZM42.6202 22.2365H39.2532V22.7365H42.6202V22.2365ZM39.5032 22.4865V21.5975H39.0032V22.4865H39.5032ZM39.2532 21.8475H42.6202V21.3475H39.2532V21.8475ZM42.6202 21.8475C43.0734 21.8475 43.3967 21.9835 43.6052 22.1844C43.8135 22.3851 43.9312 22.6734 43.9312 23.0255H44.4312C44.4312 22.5586 44.2724 22.1329 43.9522 21.8244C43.6322 21.5161 43.175 21.3475 42.6202 21.3475V21.8475ZM43.9312 23.0255C43.9312 23.3855 43.8065 23.6799 43.5933 23.8847C43.3796 24.09 43.057 24.2245 42.6272 24.2245V24.7245C43.1635 24.7245 43.6178 24.5546 43.9397 24.2453C44.262 23.9356 44.4312 23.5056 44.4312 23.0255H43.9312ZM42.6272 24.2245H40.7792V24.7245H42.6272V24.2245ZM40.7792 24.2245C40.5062 24.2245 40.2545 24.2884 40.0695 24.4549C39.8798 24.6256 39.8012 24.8668 39.8012 25.1325H40.3012C40.3012 24.9643 40.3486 24.8764 40.404 24.8266C40.4639 24.7726 40.5762 24.7245 40.7792 24.7245V24.2245ZM39.8012 25.1325V25.7975H40.3012V25.1325H39.8012ZM40.0512 26.0475H44.0972V25.5475H40.0512V26.0475ZM43.8472 25.7975V26.6865H44.3472V25.7975H43.8472ZM45.7016 23.9985L45.7774 24.2368L46.5301 23.9973L45.7767 23.7601L45.7016 23.9985ZM49.6776 23.9985L49.6025 23.7601L48.8491 23.9973L49.6018 24.2368L49.6776 23.9985ZM48.8376 26.4365H46.5416V26.9365H48.8376V26.4365ZM46.5416 26.4365C46.0956 26.4365 45.7516 26.3006 45.5212 26.0836C45.2923 25.8681 45.1536 25.5521 45.1536 25.1465H44.6536C44.6536 25.672 44.8369 26.126 45.1784 26.4476C45.5186 26.7679 45.9936 26.9365 46.5416 26.9365V26.4365ZM45.1536 25.1465C45.1536 24.66 45.4195 24.3506 45.7774 24.2368L45.6258 23.7603C45.0597 23.9404 44.6536 24.4431 44.6536 25.1465H45.1536ZM45.7767 23.7601C45.6304 23.714 45.5036 23.6319 45.4121 23.506C45.3209 23.3804 45.2516 23.1929 45.2516 22.9135H44.7516C44.7516 23.2781 44.8433 23.5737 45.0076 23.7998C45.1716 24.0256 45.3947 24.164 45.6265 24.237L45.7767 23.7601ZM45.2516 22.9135C45.2516 22.5491 45.3844 22.2965 45.6031 22.128C45.8309 21.9525 46.1795 21.8475 46.6396 21.8475V21.3475C46.1126 21.3475 45.6423 21.4666 45.2979 21.732C44.9443 22.0045 44.7516 22.41 44.7516 22.9135H45.2516ZM46.6396 21.8475H48.7396V21.3475H46.6396V21.8475ZM48.7396 21.8475C49.1996 21.8475 49.5504 21.9525 49.7802 22.1285C50.0007 22.2974 50.1346 22.55 50.1346 22.9135H50.6346C50.6346 22.409 50.4394 22.0036 50.0842 21.7316C49.7383 21.4666 49.2665 21.3475 48.7396 21.3475V21.8475ZM50.1346 22.9135C50.1346 23.1917 50.0642 23.3788 49.9715 23.5047C49.8784 23.6312 49.7494 23.7138 49.6025 23.7601L49.7527 24.237C49.9837 24.1642 50.2083 24.0264 50.3741 23.8011C50.5405 23.5752 50.6346 23.2793 50.6346 22.9135H50.1346ZM49.6018 24.2368C49.9597 24.3506 50.2256 24.66 50.2256 25.1465H50.7256C50.7256 24.4431 50.3195 23.9404 49.7534 23.7603L49.6018 24.2368ZM50.2256 25.1465C50.2256 25.5521 50.0869 25.8681 49.8579 26.0836C49.6276 26.3006 49.2836 26.4365 48.8376 26.4365V26.9365C49.3856 26.9365 49.8606 26.7679 50.2007 26.4476C50.5423 26.126 50.7256 25.672 50.7256 25.1465H50.2256ZM48.8026 24.2245H46.5766V24.7245H48.8026V24.2245ZM46.5766 24.2245C46.2918 24.2245 46.0322 24.2924 45.84 24.4553C45.6417 24.6235 45.5496 24.8635 45.5496 25.1325H46.0496C46.0496 24.9815 46.0975 24.8926 46.1634 24.8367C46.2355 24.7756 46.3643 24.7245 46.5766 24.7245V24.2245ZM45.5496 25.1325C45.5496 25.4418 45.6956 25.6847 45.9322 25.8396C46.1569 25.9867 46.4505 26.0475 46.7586 26.0475V25.5475C46.5067 25.5475 46.3207 25.4963 46.206 25.4212C46.103 25.3538 46.0496 25.2643 46.0496 25.1325H45.5496ZM46.7586 26.0475H48.6206V25.5475H46.7586V26.0475ZM48.6206 26.0475C48.9287 26.0475 49.2222 25.9867 49.447 25.8396C49.6835 25.6847 49.8296 25.4418 49.8296 25.1325H49.3296C49.3296 25.2643 49.2761 25.3538 49.1732 25.4212C49.0584 25.4963 48.8725 25.5475 48.6206 25.5475V26.0475ZM49.8296 25.1325C49.8296 24.8635 49.7375 24.6235 49.5391 24.4553C49.347 24.2924 49.0873 24.2245 48.8026 24.2245V24.7245C49.0148 24.7245 49.1437 24.7756 49.2158 24.8367C49.2817 24.8926 49.3296 24.9815 49.3296 25.1325H49.8296ZM48.5716 22.2295H46.8076V22.7295H48.5716V22.2295ZM46.8076 22.2295C46.5043 22.2295 46.217 22.2695 46.0002 22.4079C45.76 22.5613 45.6476 22.8069 45.6476 23.1095H46.1476C46.1476 22.9431 46.1997 22.8738 46.2692 22.8294C46.3622 22.77 46.5299 22.7295 46.8076 22.7295V22.2295ZM45.6476 23.1095C45.6476 23.3743 45.7206 23.6144 45.9226 23.7774C46.112 23.9304 46.3683 23.9755 46.6396 23.9755V23.4755C46.4069 23.4755 46.2921 23.4332 46.2366 23.3884C46.1936 23.3536 46.1476 23.2858 46.1476 23.1095H45.6476ZM46.6396 23.9755H48.7396V23.4755H46.6396V23.9755ZM48.7396 23.9755C49.0109 23.9755 49.2671 23.9304 49.4566 23.7774C49.6586 23.6144 49.7316 23.3743 49.7316 23.1095H49.2316C49.2316 23.2858 49.1856 23.3536 49.1426 23.3884C49.087 23.4332 48.9723 23.4755 48.7396 23.4755V23.9755ZM49.7316 23.1095C49.7316 22.8069 49.6192 22.5613 49.379 22.4079C49.1622 22.2695 48.8749 22.2295 48.5716 22.2295V22.7295C48.8493 22.7295 49.017 22.77 49.1099 22.8294C49.1795 22.8738 49.2316 22.9431 49.2316 23.1095H49.7316Z" fill="#1C242A"/>
<path d="M105.497 26.8184H102.011V25.9294H105.28C105.84 25.9294 106.232 25.6984 106.232 25.2574C106.232 24.8374 105.959 24.6064 105.462 24.6064H103.215V23.8574H105.399C105.903 23.8574 106.141 23.6824 106.141 23.2414C106.141 22.7724 105.812 22.6114 105.224 22.6114H102.032V21.7294H105.399C106.386 21.7294 107.037 22.1774 107.037 23.0454C107.037 23.6894 106.715 24.0114 106.337 24.1304C106.799 24.2774 107.135 24.6834 107.135 25.2784C107.135 26.2024 106.491 26.8184 105.497 26.8184Z" fill="url(#paint16_linear_1821_28611)"/>
<path d="M102.011 26.8184H101.761V27.0684H102.011V26.8184ZM102.011 25.9294V25.6794H101.761V25.9294H102.011ZM103.215 24.6064H102.965V24.8564H103.215V24.6064ZM103.215 23.8574V23.6074H102.965V23.8574H103.215ZM102.032 22.6114H101.782V22.8614H102.032V22.6114ZM102.032 21.7294V21.4794H101.782V21.7294H102.032ZM106.337 24.1304L106.262 23.8919L105.509 24.1291L106.262 24.3686L106.337 24.1304ZM105.497 26.5684H102.011V27.0684H105.497V26.5684ZM102.261 26.8184V25.9294H101.761V26.8184H102.261ZM102.011 26.1794H105.28V25.6794H102.011V26.1794ZM105.28 26.1794C105.59 26.1794 105.882 26.1163 106.106 25.9662C106.34 25.8087 106.482 25.5643 106.482 25.2574H105.982C105.982 25.3914 105.929 25.483 105.827 25.5512C105.714 25.6269 105.531 25.6794 105.28 25.6794V26.1794ZM106.482 25.2574C106.482 24.9901 106.393 24.7508 106.195 24.5835C106.004 24.4217 105.745 24.3564 105.462 24.3564V24.8564C105.676 24.8564 105.803 24.9065 105.872 24.9653C105.935 25.0184 105.982 25.1046 105.982 25.2574H106.482ZM105.462 24.3564H103.215V24.8564H105.462V24.3564ZM103.465 24.6064V23.8574H102.965V24.6064H103.465ZM103.215 24.1074H105.399V23.6074H103.215V24.1074ZM105.399 24.1074C105.671 24.1074 105.927 24.0622 106.116 23.9093C106.318 23.7463 106.391 23.5061 106.391 23.2414H105.891C105.891 23.4176 105.845 23.4855 105.802 23.5202C105.747 23.565 105.632 23.6074 105.399 23.6074V24.1074ZM106.391 23.2414C106.391 22.9386 106.279 22.6927 106.037 22.5394C105.82 22.4013 105.531 22.3614 105.224 22.3614V22.8614C105.506 22.8614 105.676 22.902 105.769 22.9615C105.839 23.006 105.891 23.0751 105.891 23.2414H106.391ZM105.224 22.3614H102.032V22.8614H105.224V22.3614ZM102.282 22.6114V21.7294H101.782V22.6114H102.282ZM102.032 21.9794H105.399V21.4794H102.032V21.9794ZM105.399 21.9794C105.859 21.9794 106.208 22.0843 106.436 22.2599C106.655 22.4284 106.787 22.6809 106.787 23.0454H107.287C107.287 22.5418 107.095 22.1363 106.741 21.8638C106.397 21.5984 105.926 21.4794 105.399 21.4794V21.9794ZM106.787 23.0454C106.787 23.3247 106.718 23.5122 106.627 23.6378C106.535 23.7637 106.409 23.8459 106.262 23.8919L106.412 24.3688C106.644 24.2959 106.867 24.1575 107.031 23.9317C107.196 23.7055 107.287 23.41 107.287 23.0454H106.787ZM106.262 24.3686C106.619 24.4825 106.885 24.7918 106.885 25.2784H107.385C107.385 24.5749 106.979 24.0723 106.413 23.8921L106.262 24.3686ZM106.885 25.2784C106.885 25.68 106.747 25.9963 106.517 26.2131C106.287 26.4311 105.943 26.5684 105.497 26.5684V27.0684C106.046 27.0684 106.521 26.8976 106.861 26.5766C107.202 26.2544 107.385 25.8007 107.385 25.2784H106.885Z" fill="#1C242A"/>
<path d="M131.175 74.5742H128.879C127.885 74.5742 127.241 73.9652 127.241 73.0342C127.241 72.4392 127.577 72.0332 128.039 71.8862C127.661 71.7672 127.339 71.4452 127.339 70.8012C127.339 69.9332 127.99 69.4852 128.977 69.4852H131.077C132.064 69.4852 132.722 69.9332 132.722 70.8012C132.722 71.4452 132.393 71.7672 132.015 71.8862C132.477 72.0332 132.813 72.4392 132.813 73.0342C132.813 73.9652 132.169 74.5742 131.175 74.5742ZM131.14 72.3622H128.914C128.417 72.3622 128.137 72.6002 128.137 73.0202C128.137 73.4612 128.536 73.6852 129.096 73.6852H130.958C131.518 73.6852 131.917 73.4612 131.917 73.0202C131.917 72.6002 131.637 72.3622 131.14 72.3622ZM130.909 70.3672H129.145C128.564 70.3672 128.235 70.5282 128.235 70.9972C128.235 71.4382 128.473 71.6132 128.977 71.6132H131.077C131.581 71.6132 131.819 71.4382 131.819 70.9972C131.819 70.5282 131.49 70.3672 130.909 70.3672Z" fill="url(#paint17_linear_1821_28611)"/>
<path d="M128.039 71.8862L128.115 72.1245L128.868 71.885L128.114 71.6478L128.039 71.8862ZM132.015 71.8862L131.94 71.6478L131.187 71.885L131.939 72.1245L132.015 71.8862ZM131.175 74.3242H128.879V74.8242H131.175V74.3242ZM128.879 74.3242C128.433 74.3242 128.089 74.1883 127.859 73.9713C127.63 73.7558 127.491 73.4398 127.491 73.0342H126.991C126.991 73.5597 127.174 74.0137 127.516 74.3353C127.856 74.6556 128.331 74.8242 128.879 74.8242V74.3242ZM127.491 73.0342C127.491 72.5477 127.757 72.2383 128.115 72.1245L127.963 71.648C127.397 71.8281 126.991 72.3307 126.991 73.0342H127.491ZM128.114 71.6478C127.968 71.6017 127.841 71.5196 127.75 71.3937C127.658 71.2681 127.589 71.0806 127.589 70.8012H127.089C127.089 71.1658 127.181 71.4614 127.345 71.6875C127.509 71.9133 127.732 72.0517 127.964 72.1247L128.114 71.6478ZM127.589 70.8012C127.589 70.4368 127.722 70.1842 127.941 70.0157C128.168 69.8402 128.517 69.7352 128.977 69.7352V69.2352C128.45 69.2352 127.98 69.3543 127.635 69.6197C127.282 69.8922 127.089 70.2977 127.089 70.8012H127.589ZM128.977 69.7352H131.077V69.2352H128.977V69.7352ZM131.077 69.7352C131.537 69.7352 131.888 69.8402 132.118 70.0162C132.338 70.1851 132.472 70.4377 132.472 70.8012H132.972C132.972 70.2967 132.777 69.8913 132.422 69.6192C132.076 69.3543 131.604 69.2352 131.077 69.2352V69.7352ZM132.472 70.8012C132.472 71.0794 132.402 71.2665 132.309 71.3924C132.216 71.5189 132.087 71.6015 131.94 71.6478L132.09 72.1247C132.321 72.0519 132.546 71.9141 132.712 71.6888C132.878 71.4629 132.972 71.167 132.972 70.8012H132.472ZM131.939 72.1245C132.297 72.2383 132.563 72.5477 132.563 73.0342H133.063C133.063 72.3307 132.657 71.8281 132.091 71.648L131.939 72.1245ZM132.563 73.0342C132.563 73.4398 132.424 73.7558 132.195 73.9713C131.965 74.1883 131.621 74.3242 131.175 74.3242V74.8242C131.723 74.8242 132.198 74.6556 132.538 74.3353C132.88 74.0137 133.063 73.5597 133.063 73.0342H132.563ZM131.14 72.1122H128.914V72.6122H131.14V72.1122ZM128.914 72.1122C128.629 72.1122 128.37 72.1801 128.178 72.343C127.979 72.5111 127.887 72.7512 127.887 73.0202H128.387C128.387 72.8692 128.435 72.7803 128.501 72.7244C128.573 72.6633 128.702 72.6122 128.914 72.6122V72.1122ZM127.887 73.0202C127.887 73.3295 128.033 73.5724 128.27 73.7273C128.494 73.8744 128.788 73.9352 129.096 73.9352V73.4352C128.844 73.4352 128.658 73.384 128.544 73.3089C128.441 73.2415 128.387 73.1519 128.387 73.0202H127.887ZM129.096 73.9352H130.958V73.4352H129.096V73.9352ZM130.958 73.9352C131.266 73.9352 131.56 73.8744 131.785 73.7273C132.021 73.5724 132.167 73.3295 132.167 73.0202H131.667C131.667 73.1519 131.614 73.2415 131.511 73.3089C131.396 73.384 131.21 73.4352 130.958 73.4352V73.9352ZM132.167 73.0202C132.167 72.7512 132.075 72.5111 131.877 72.343C131.684 72.1801 131.425 72.1122 131.14 72.1122V72.6122C131.352 72.6122 131.481 72.6633 131.553 72.7244C131.619 72.7803 131.667 72.8692 131.667 73.0202H132.167ZM130.909 70.1172H129.145V70.6172H130.909V70.1172ZM129.145 70.1172C128.842 70.1172 128.554 70.1572 128.338 70.2956C128.097 70.449 127.985 70.6946 127.985 70.9972H128.485C128.485 70.8308 128.537 70.7615 128.607 70.7171C128.7 70.6577 128.867 70.6172 129.145 70.6172V70.1172ZM127.985 70.9972C127.985 71.262 128.058 71.5021 128.26 71.6651C128.45 71.8181 128.706 71.8632 128.977 71.8632V71.3632C128.744 71.3632 128.63 71.3209 128.574 71.2761C128.531 71.2413 128.485 71.1735 128.485 70.9972H127.985ZM128.977 71.8632H131.077V71.3632H128.977V71.8632ZM131.077 71.8632C131.348 71.8632 131.605 71.8181 131.794 71.6651C131.996 71.5021 132.069 71.262 132.069 70.9972H131.569C131.569 71.1735 131.523 71.2413 131.48 71.2761C131.425 71.3209 131.31 71.3632 131.077 71.3632V71.8632ZM132.069 70.9972C132.069 70.6946 131.957 70.449 131.717 70.2956C131.5 70.1572 131.212 70.1172 130.909 70.1172V70.6172C131.187 70.6172 131.354 70.6577 131.447 70.7171C131.517 70.7615 131.569 70.8308 131.569 70.9972H132.069Z" fill="#1C242A"/>
<defs>
<filter id="filter0_d_1821_28611" x="0" y="0" width="146.861" height="146.86" filterUnits="userSpaceOnUse" color-interpolation-filters="sRGB">
<feFlood flood-opacity="0" result="BackgroundImageFix"/>
<feColorMatrix in="SourceAlpha" type="matrix" values="0 0 0 0 0 0 0 0 0 0 0 0 0 0 0 0 0 0 127 0" result="hardAlpha"/>
<feOffset dy="1"/>
<feGaussianBlur stdDeviation="0.5"/>
<feComposite in2="hardAlpha" operator="out"/>
<feColorMatrix type="matrix" values="0 0 0 0 1 0 0 0 0 1 0 0 0 0 1 0 0 0 0.15 0"/>
<feBlend mode="normal" in2="BackgroundImageFix" result="effect1_dropShadow_1821_28611"/>
<feBlend mode="normal" in="SourceGraphic" in2="effect1_dropShadow_1821_28611" result="shape"/>
</filter>
<filter id="filter1_d_1821_28611" x="0" y="0" width="146.861" height="146.86" filterUnits="userSpaceOnUse" color-interpolation-filters="sRGB">
<feFlood flood-opacity="0" result="BackgroundImageFix"/>
<feColorMatrix in="SourceAlpha" type="matrix" values="0 0 0 0 0 0 0 0 0 0 0 0 0 0 0 0 0 0 127 0" result="hardAlpha"/>
<feOffset dy="1"/>
<feGaussianBlur stdDeviation="0.5"/>
<feComposite in2="hardAlpha" operator="out"/>
<feColorMatrix type="matrix" values="0 0 0 0 1 0 0 0 0 1 0 0 0 0 1 0 0 0 0.1 0"/>
<feBlend mode="normal" in2="BackgroundImageFix" result="effect1_dropShadow_1821_28611"/>
<feBlend mode="normal" in="SourceGraphic" in2="effect1_dropShadow_1821_28611" result="shape"/>
</filter>
<filter id="filter2_i_1821_28611" x="27.0046" y="60.9482" width="92.6415" height="26.1924" filterUnits="userSpaceOnUse" color-interpolation-filters="sRGB">
<feFlood flood-opacity="0" result="BackgroundImageFix"/>
<feBlend mode="normal" in="SourceGraphic" in2="BackgroundImageFix" result="shape"/>
<feColorMatrix in="SourceAlpha" type="matrix" values="0 0 0 0 0 0 0 0 0 0 0 0 0 0 0 0 0 0 127 0" result="hardAlpha"/>
<feOffset dy="1"/>
<feGaussianBlur stdDeviation="0.5"/>
<feComposite in2="hardAlpha" operator="arithmetic" k2="-1" k3="1"/>
<feColorMatrix type="matrix" values="0 0 0 0 0 0 0 0 0 0 0 0 0 0 0 0 0 0 0.25 0"/>
<feBlend mode="normal" in2="shape" result="effect1_innerShadow_1821_28611"/>
</filter>
<linearGradient id="paint0_linear_1821_28611" x1="73.4303" y1="0" x2="73.4303" y2="144.861" gradientUnits="userSpaceOnUse">
<stop stop-color="#25323D"/>
<stop offset="1" stop-color="#0D0D0D"/>
</linearGradient>
<linearGradient id="paint1_linear_1821_28611" x1="73.4304" y1="2.7168" x2="73.4304" y2="142.145" gradientUnits="userSpaceOnUse">
<stop stop-color="#2B3C4A"/>
<stop offset="1" stop-color="#2B3C4A" stop-opacity="0"/>
</linearGradient>
<linearGradient id="paint2_linear_1821_28611" x1="73.4304" y1="2.7168" x2="76.5081" y2="182.205" gradientUnits="userSpaceOnUse">
<stop stop-color="#111B26"/>
<stop offset="1" stop-color="#080C11" stop-opacity="0"/>
</linearGradient>
<radialGradient id="paint3_angular_1821_28611" cx="0" cy="0" r="1" gradientUnits="userSpaceOnUse" gradientTransform="translate(73.3254 71.5123) rotate(-128.806) scale(66.0891)">
<stop stop-color="#007AFF"/>
<stop offset="1" stop-color="#21C004" stop-opacity="0"/>
</radialGradient>
<radialGradient id="paint4_radial_1821_28611" cx="0" cy="0" r="1" gradientUnits="userSpaceOnUse" gradientTransform="translate(160.691 229.833) rotate(-117.164) scale(243.963 329.409)">
<stop stop-color="#293743"/>
<stop offset="1" stop-color="#0C1114"/>
</radialGradient>
<linearGradient id="paint5_linear_1821_28611" x1="69.1818" y1="7.99999" x2="79.6962" y2="10.4171" gradientUnits="userSpaceOnUse">
<stop stop-color="#ECC271"/>
<stop offset="1" stop-color="#7F642E"/>
</linearGradient>
<linearGradient id="paint6_linear_1821_28611" x1="120.362" y1="89.1841" x2="127.847" y2="96.933" gradientUnits="userSpaceOnUse">
<stop stop-color="#ECC271"/>
<stop offset="1" stop-color="#7F642E"/>
</linearGradient>
<linearGradient id="paint7_linear_1821_28611" x1="69.2841" y1="119" x2="78.7259" y2="120.519" gradientUnits="userSpaceOnUse">
<stop stop-color="#ECC271"/>
<stop offset="1" stop-color="#7F642E"/>
</linearGradient>
<linearGradient id="paint8_linear_1821_28611" x1="21.5277" y1="94.2474" x2="32.9686" y2="90.1187" gradientUnits="userSpaceOnUse">
<stop stop-color="#ECC271"/>
<stop offset="1" stop-color="#7F642E"/>
</linearGradient>
<linearGradient id="paint9_linear_1821_28611" x1="31.1639" y1="37.2253" x2="39.0629" y2="45.3006" gradientUnits="userSpaceOnUse">
<stop stop-color="#ECC271"/>
<stop offset="1" stop-color="#7F642E"/>
</linearGradient>
<linearGradient id="paint10_linear_1821_28611" x1="114.983" y1="40.4051" x2="122.392" y2="38.0812" gradientUnits="userSpaceOnUse">
<stop stop-color="#ECC271"/>
<stop offset="1" stop-color="#7F642E"/>
</linearGradient>
<linearGradient id="paint11_linear_1821_28611" x1="102.256" y1="20" x2="102.256" y2="134" gradientUnits="userSpaceOnUse">
<stop stop-color="white"/>
<stop offset="1" stop-color="white" stop-opacity="0"/>
</linearGradient>
<linearGradient id="paint12_linear_1821_28611" x1="98.4931" y1="115.858" x2="106.293" y2="117.139" gradientUnits="userSpaceOnUse">
<stop stop-color="#ECC271"/>
<stop offset="1" stop-color="#7F642E"/>
</linearGradient>
<linearGradient id="paint13_linear_1821_28611" x1="42.3166" y1="115.858" x2="50.0838" y2="117.232" gradientUnits="userSpaceOnUse">
<stop stop-color="#ECC271"/>
<stop offset="1" stop-color="#7F642E"/>
</linearGradient>
<linearGradient id="paint14_linear_1821_28611" x1="15.1358" y1="67.5742" x2="22.9356" y2="68.855" gradientUnits="userSpaceOnUse">
<stop stop-color="#ECC271"/>
<stop offset="1" stop-color="#7F642E"/>
</linearGradient>
<linearGradient id="paint15_linear_1821_28611" x1="41.3166" y1="19.6865" x2="49.0838" y2="21.06" gradientUnits="userSpaceOnUse">
<stop stop-color="#ECC271"/>
<stop offset="1" stop-color="#7F642E"/>
</linearGradient>
<linearGradient id="paint16_linear_1821_28611" x1="101.098" y1="19.8184" x2="108.898" y2="21.0991" gradientUnits="userSpaceOnUse">
<stop stop-color="#ECC271"/>
<stop offset="1" stop-color="#7F642E"/>
</linearGradient>
<linearGradient id="paint17_linear_1821_28611" x1="126.542" y1="67.5742" x2="134.342" y2="68.855" gradientUnits="userSpaceOnUse">
<stop stop-color="#ECC271"/>
<stop offset="1" stop-color="#7F642E"/>
</linearGradient>
<clipPath id="clip0_1821_28611">
<rect width="92.6415" height="25.192" fill="white" transform="translate(27.0046 60.9482)"/>
</clipPath>
</defs>
</svg>
