<svg width="290" height="290" viewBox="0 0 290 290" fill="none" xmlns="http://www.w3.org/2000/svg">
<path d="M136.36 33.2527C134.789 33.2527 133.404 33.0406 132.206 32.6166C131.033 32.1675 130.11 31.5689 129.436 30.8205C128.763 30.0472 128.426 29.1742 128.426 28.2013C128.426 27.3781 128.65 26.7295 129.099 26.2556C129.574 25.7567 130.16 25.5072 130.859 25.5072C131.308 25.5072 131.707 25.607 132.056 25.8066C132.431 25.9812 132.718 26.2431 132.917 26.5923C133.142 26.9166 133.254 27.3033 133.254 27.7523C133.254 28.1514 133.167 28.4632 132.992 28.6877C132.842 28.9122 132.668 29.0993 132.468 29.249C132.268 29.3987 132.081 29.5483 131.907 29.698C131.757 29.8227 131.682 30.0223 131.682 30.2967C131.682 30.7457 131.919 31.1074 132.393 31.3818C132.892 31.6312 133.466 31.8183 134.115 31.943C134.789 32.0678 135.387 32.1301 135.911 32.1301C137.658 32.1301 138.993 31.5439 139.916 30.3715C140.864 29.1991 141.338 27.5153 141.338 25.3202C141.338 23.2497 140.864 21.6657 139.916 20.5681C138.968 19.4706 137.384 18.9218 135.163 18.9218L138.831 18.0612C140.378 18.2358 141.725 18.6723 142.873 19.3708C144.046 20.0443 144.956 20.8924 145.605 21.9152C146.254 22.9379 146.578 24.0729 146.578 25.3202C146.578 26.6672 146.167 27.9518 145.343 29.1741C144.545 30.3715 143.384 31.3568 141.862 32.1301C140.34 32.8785 138.506 33.2527 136.36 33.2527ZM134.324 18.9218V17.0818H138.831V18.9218H134.324ZM136.622 18.2108L134.452 17.7992C136.473 17.7992 137.92 17.238 138.793 16.1155C139.667 14.968 140.103 13.3965 140.103 11.4009C140.103 10.1287 139.941 9.14334 139.617 8.44488C139.317 7.74642 138.868 7.25999 138.269 6.9856C137.695 6.68626 136.997 6.53659 136.173 6.53659C135.25 6.53659 134.477 6.67378 133.853 6.94818C133.229 7.22257 132.917 7.59675 132.917 8.0707C132.917 8.3451 133.017 8.5696 133.217 8.74422C133.416 8.91883 133.616 9.13086 133.815 9.38031C134.015 9.60482 134.115 9.95405 134.115 10.428C134.115 11.0766 133.903 11.563 133.479 11.8873C133.054 12.1866 132.593 12.3363 132.094 12.3363C131.47 12.3363 130.933 12.1118 130.484 11.6628C130.06 11.2138 129.848 10.665 129.848 10.0164C129.848 9.29301 130.123 8.58208 130.671 7.88362C131.245 7.18516 132.069 6.59895 133.142 6.12499C134.215 5.65104 135.512 5.41406 137.034 5.41406C138.706 5.41406 140.128 5.70093 141.301 6.27466C142.499 6.8484 143.409 7.59675 144.033 8.51971C144.657 9.44268 144.969 10.428 144.969 11.4757C144.969 12.5982 144.62 13.6459 143.921 14.6188C143.247 15.5667 142.287 16.3649 141.039 17.0135C139.791 17.6371 138.319 18.0362 136.622 18.2108Z" fill="url(#paint0_linear_126_30894)"/>
<path d="M159.926 11.3678C159.926 14.3007 157.317 16.7512 154.005 16.7512C150.692 16.7512 148.083 14.3007 148.083 11.3678C148.083 8.4349 150.692 5.98438 154.005 5.98438C157.317 5.98438 159.926 8.4349 159.926 11.3678Z" fill="black" stroke="url(#paint1_linear_126_30894)"/>
<path d="M133.302 25.6107C133.302 28.5661 135.914 31.03 139.224 31.03C142.533 31.03 145.146 28.5661 145.146 25.6107C145.146 22.6553 142.533 20.1914 139.224 20.1914C135.914 20.1914 133.302 22.6553 133.302 25.6107Z" fill="black" stroke="url(#paint2_linear_126_30894)"/>
<mask id="path-4-inside-1_126_30894" fill="white">
<path fill-rule="evenodd" clip-rule="evenodd" d="M134.316 17.072C136.237 16.0383 137.525 14.138 137.525 11.9649C137.525 9.7029 136.13 7.73657 134.078 6.73544C135.096 6.1263 136.308 5.77286 137.61 5.77286C141.215 5.77286 144.139 8.48727 144.139 11.8357C144.139 15.184 141.215 17.8984 137.61 17.8984C136.408 17.8984 135.283 17.5973 134.316 17.072Z"/>
</mask>
<path fill-rule="evenodd" clip-rule="evenodd" d="M134.316 17.072C136.237 16.0383 137.525 14.138 137.525 11.9649C137.525 9.7029 136.13 7.73657 134.078 6.73544C135.096 6.1263 136.308 5.77286 137.61 5.77286C141.215 5.77286 144.139 8.48727 144.139 11.8357C144.139 15.184 141.215 17.8984 137.61 17.8984C136.408 17.8984 135.283 17.5973 134.316 17.072Z" fill="black"/>
<path d="M134.316 17.072L133.843 16.1914L132.214 17.0677L133.839 17.9506L134.316 17.072ZM134.078 6.73544L133.564 5.8773L131.981 6.82484L133.639 7.63416L134.078 6.73544ZM136.525 11.9649C136.525 13.7219 135.484 15.308 133.843 16.1914L134.79 17.9525C136.99 16.7686 138.525 14.5542 138.525 11.9649L136.525 11.9649ZM133.639 7.63416C135.397 8.49161 136.525 10.1369 136.525 11.9649L138.525 11.9649C138.525 9.2689 136.863 6.98153 134.516 5.83671L133.639 7.63416ZM134.591 7.59358C135.456 7.07655 136.491 6.77286 137.61 6.77286L137.61 4.77286C136.126 4.77286 134.737 5.17606 133.564 5.8773L134.591 7.59358ZM137.61 6.77286C140.734 6.77286 143.139 9.10805 143.139 11.8357L145.139 11.8357C145.139 7.86648 141.697 4.77286 137.61 4.77286L137.61 6.77286ZM143.139 11.8357C143.139 14.5633 140.734 16.8984 137.61 16.8984L137.61 18.8984C141.697 18.8984 145.139 15.8048 145.139 11.8357L143.139 11.8357ZM137.61 16.8984C136.577 16.8984 135.615 16.6397 134.794 16.1933L133.839 17.9506C134.951 18.555 136.24 18.8984 137.61 18.8984L137.61 16.8984Z" fill="url(#paint3_linear_126_30894)" mask="url(#path-4-inside-1_126_30894)"/>
<mask id="path-6-inside-2_126_30894" fill="white">
<path fill-rule="evenodd" clip-rule="evenodd" d="M158.9 30.592C156.946 29.5659 155.632 27.6487 155.632 25.453C155.632 23.2574 156.946 21.3404 158.9 20.3142C157.938 19.8088 156.821 19.5196 155.629 19.5196C152.017 19.5196 149.09 22.1761 149.09 25.4531C149.09 28.7302 152.017 31.3867 155.629 31.3867C156.821 31.3867 157.938 31.0974 158.9 30.592Z"/>
</mask>
<path fill-rule="evenodd" clip-rule="evenodd" d="M158.9 30.592C156.946 29.5659 155.632 27.6487 155.632 25.453C155.632 23.2574 156.946 21.3404 158.9 20.3142C157.938 19.8088 156.821 19.5196 155.629 19.5196C152.017 19.5196 149.09 22.1761 149.09 25.4531C149.09 28.7302 152.017 31.3867 155.629 31.3867C156.821 31.3867 157.938 31.0974 158.9 30.592Z" fill="black"/>
<path d="M158.9 30.592L159.365 29.7067L161.051 30.592L159.365 31.4773L158.9 30.592ZM158.9 20.3142L159.365 19.4289L161.05 20.3142L159.365 21.1995L158.9 20.3142ZM156.632 25.453C156.632 27.2281 157.695 28.8293 159.365 29.7067L158.435 31.4773C156.198 30.3025 154.632 28.0694 154.632 25.453L156.632 25.453ZM159.365 21.1995C157.694 22.0769 156.632 23.6781 156.632 25.453L154.632 25.453C154.632 22.8368 156.198 20.6038 158.435 19.4289L159.365 21.1995ZM158.435 21.1995C157.616 20.7693 156.658 20.5196 155.629 20.5196L155.629 18.5196C156.983 18.5196 158.26 18.8484 159.365 19.4289L158.435 21.1995ZM155.629 20.5196C152.476 20.5196 150.09 22.8176 150.09 25.4531L148.09 25.4531C148.09 21.5346 151.559 18.5196 155.629 18.5196L155.629 20.5196ZM150.09 25.4531C150.09 28.0887 152.476 30.3867 155.629 30.3867L155.629 32.3867C151.559 32.3867 148.09 29.3717 148.09 25.4531L150.09 25.4531ZM155.629 30.3867C156.658 30.3867 157.616 30.137 158.435 29.7067L159.365 31.4773C158.26 32.0579 156.983 32.3867 155.629 32.3867L155.629 30.3867Z" fill="url(#paint4_linear_126_30894)" mask="url(#path-6-inside-2_126_30894)"/>
<path d="M234.273 204.48C234.274 204.426 234.264 204.367 234.244 204.302C234.213 204.205 234.215 204.124 234.248 204.061C234.315 203.933 234.482 203.899 234.749 203.957C235.23 204.073 235.711 204.19 236.192 204.306C236.684 204.401 237.162 204.394 237.626 204.284C237.874 204.224 238.553 203.754 239.665 202.873C240.808 201.981 242.275 200.758 244.064 199.202C245.853 197.646 247.84 195.869 250.024 193.87C249.583 193.937 249.033 194.029 248.376 194.145C247.731 194.241 247.095 194.368 246.469 194.529C245.855 194.668 245.38 194.825 245.044 195.001C244.914 195.042 244.753 195.039 244.561 194.992C244.379 194.925 244.182 194.835 243.97 194.724C243.523 194.49 243.221 194.265 243.064 194.047C243.044 193.982 243.046 193.902 243.069 193.805C243.092 193.709 243.168 193.668 243.297 193.681C243.714 193.764 244.293 193.769 245.035 193.697C245.81 193.615 246.644 193.496 247.538 193.341C248.432 193.185 249.278 193.019 250.075 192.84C250.905 192.652 251.585 192.492 252.113 192.363C253.062 192.155 253.589 192.079 253.695 192.134C253.822 192.255 253.802 192.474 253.635 192.793C253.601 192.857 253.568 192.921 253.535 192.985C253.501 193.048 253.452 193.117 253.386 193.191C253.122 193.541 252.629 194.041 251.909 194.694C251.297 195.294 250.559 195.978 249.697 196.746C248.867 197.504 247.989 198.276 247.062 199.064C246.167 199.842 245.278 200.609 244.394 201.366C243.532 202.134 242.757 202.812 242.07 203.4C241.415 203.978 240.87 204.451 240.434 204.819C240.03 205.177 239.828 205.382 239.827 205.436C239.853 205.748 239.992 206.051 240.244 206.345C240.497 206.64 240.744 206.891 240.987 207.1C241.263 207.298 241.411 207.403 241.432 207.414C241.644 207.579 241.705 207.746 241.616 207.917C241.494 208.15 241.306 208.174 241.051 207.987C240.733 207.766 240.372 207.55 239.968 207.339C239.586 207.138 239.182 206.927 238.756 206.704C238.118 206.37 237.475 206.047 236.826 205.735C236.188 205.401 235.64 205.128 235.183 204.915C234.725 204.703 234.422 204.558 234.273 204.48ZM250.28 213.71C249.621 213.365 249.023 212.93 248.485 212.405C247.335 211.289 246.714 210.043 246.622 208.667C246.561 207.281 246.871 205.94 247.549 204.642C248.039 203.707 248.678 202.849 249.465 202.069C250.263 201.268 251.156 200.598 252.143 200.058C253.13 199.518 254.167 199.167 255.254 199.004C255.337 198.587 255.451 198.24 255.595 197.964C255.952 197.283 256.488 196.724 257.204 196.287C257.942 195.86 258.779 195.634 259.713 195.609C260.658 195.562 261.642 195.805 262.662 196.339C263.938 197.007 264.973 197.928 265.767 199.102C266.572 200.255 267.015 201.583 267.094 203.088C267.185 204.571 266.802 206.131 265.945 207.768C265.177 209.236 264.166 210.494 262.912 211.545C261.67 212.574 260.308 213.364 258.827 213.917C257.357 214.448 255.876 214.716 254.384 214.72C252.903 214.703 251.535 214.367 250.28 213.71ZM250.605 212.702C251.753 213.303 252.967 213.545 254.247 213.429C255.547 213.325 256.826 212.951 258.084 212.309C259.352 211.645 260.516 210.792 261.577 209.749C262.649 208.684 263.518 207.514 264.186 206.238C264.553 205.537 264.852 204.785 265.081 203.984C265.322 203.162 265.418 202.332 265.369 201.494C265.341 200.667 265.087 199.884 264.607 199.145C264.138 198.385 263.372 197.727 262.309 197.17C261.437 196.714 260.593 196.516 259.776 196.576C258.959 196.636 258.235 196.88 257.604 197.309C257.006 197.727 256.583 198.25 256.335 198.879C256.743 198.876 257.156 198.916 257.573 198.999C258.001 199.06 258.408 199.138 258.792 199.231C259.306 199.337 259.775 199.501 260.2 199.724C260.902 200.091 261.446 200.552 261.833 201.106C262.231 201.64 262.485 202.165 262.593 202.682C262.713 203.178 262.706 203.554 262.572 203.809C262.483 203.979 262.348 204.057 262.165 204.043L262.07 203.993C261.9 203.904 261.812 203.736 261.805 203.489C261.83 203.339 261.817 203.13 261.769 202.86C261.72 202.591 261.618 202.321 261.462 202.05C261.161 201.486 260.649 201.015 259.926 200.636C259.352 200.336 258.717 200.126 258.021 200.005C257.358 199.875 256.736 199.847 256.155 199.923C256.18 200.288 256.259 200.681 256.391 201.102C256.555 201.513 256.801 201.872 257.128 202.179C257.276 202.31 257.311 202.451 257.233 202.599C257.11 202.833 256.911 202.851 256.636 202.653C256.181 202.279 255.84 201.871 255.612 201.426C255.405 200.993 255.274 200.545 255.218 200.082C253.891 200.444 252.682 201.098 251.591 202.044C250.5 202.99 249.648 204.048 249.036 205.217C248.547 206.153 248.25 207.108 248.146 208.083C248.053 209.037 248.198 209.925 248.58 210.748C248.973 211.55 249.648 212.201 250.605 212.702Z" fill="url(#paint5_linear_126_30894)"/>
<path d="M129.067 283.486C129.043 283.438 129.007 283.39 128.959 283.342C128.887 283.27 128.851 283.198 128.851 283.126C128.851 282.982 128.983 282.874 129.247 282.802C129.727 282.682 130.207 282.562 130.687 282.442C131.167 282.298 131.587 282.07 131.947 281.758C132.139 281.59 132.523 280.858 133.099 279.562C133.699 278.242 134.431 276.478 135.295 274.27C136.159 272.062 137.095 269.566 138.103 266.782C137.743 267.046 137.299 267.382 136.771 267.79C136.243 268.174 135.739 268.582 135.259 269.014C134.779 269.422 134.431 269.782 134.215 270.094C134.119 270.19 133.975 270.262 133.783 270.31C133.591 270.334 133.375 270.346 133.135 270.346C132.631 270.346 132.259 270.286 132.019 270.166C131.971 270.118 131.935 270.046 131.911 269.95C131.887 269.854 131.935 269.782 132.055 269.734C132.463 269.614 132.979 269.35 133.603 268.942C134.251 268.51 134.935 268.018 135.655 267.466C136.375 266.914 137.047 266.374 137.671 265.846C138.319 265.294 138.847 264.838 139.255 264.478C139.999 263.854 140.431 263.542 140.551 263.542C140.719 263.59 140.803 263.794 140.803 264.154C140.803 264.226 140.803 264.298 140.803 264.37C140.803 264.442 140.791 264.526 140.767 264.622C140.695 265.054 140.491 265.726 140.155 266.638C139.891 267.454 139.555 268.402 139.147 269.482C138.763 270.538 138.343 271.63 137.887 272.758C137.455 273.862 137.023 274.954 136.591 276.034C136.183 277.114 135.811 278.074 135.475 278.914C135.163 279.73 134.899 280.402 134.683 280.93C134.491 281.434 134.407 281.71 134.431 281.758C134.599 282.022 134.863 282.226 135.223 282.37C135.583 282.514 135.919 282.622 136.231 282.694C136.567 282.742 136.747 282.766 136.771 282.766C137.035 282.814 137.167 282.934 137.167 283.126C137.167 283.39 137.011 283.498 136.699 283.45C136.315 283.402 135.895 283.378 135.439 283.378C135.007 283.378 134.551 283.378 134.071 283.378C133.351 283.378 132.631 283.39 131.911 283.414C131.191 283.414 130.579 283.426 130.075 283.45C129.571 283.474 129.235 283.486 129.067 283.486ZM147.782 285.358C147.422 285.358 146.93 285.298 146.306 285.178C145.682 285.082 145.022 284.902 144.326 284.638C143.63 284.398 142.97 284.062 142.346 283.63C141.722 283.198 141.206 282.646 140.798 281.974C140.414 281.302 140.222 280.486 140.222 279.526C140.222 278.302 140.498 277.294 141.05 276.502C141.626 275.686 142.322 275.074 143.138 274.666C143.954 274.258 144.77 274.054 145.586 274.054C146.474 274.054 147.266 274.294 147.962 274.774C148.658 275.23 148.982 275.938 148.934 276.898C148.934 277.066 148.874 277.234 148.754 277.402C148.634 277.57 148.514 277.654 148.394 277.654C148.178 277.654 148.07 277.402 148.07 276.898C148.07 276.274 147.878 275.818 147.494 275.53C147.134 275.218 146.678 275.062 146.126 275.062C145.382 275.062 144.71 275.29 144.11 275.746C143.51 276.178 143.042 276.754 142.706 277.474C142.37 278.194 142.202 278.95 142.202 279.742C142.202 280.51 142.394 281.254 142.778 281.974C143.162 282.694 143.762 283.282 144.578 283.738C145.418 284.194 146.51 284.422 147.854 284.422C149.822 284.422 151.418 284.062 152.642 283.342C153.89 282.598 154.802 281.662 155.378 280.534C155.978 279.382 156.278 278.194 156.278 276.97C156.278 275.818 156.026 274.726 155.522 273.694C155.042 272.638 154.346 271.786 153.434 271.138C152.522 270.49 151.418 270.166 150.122 270.166C149.45 270.166 148.718 270.274 147.926 270.49C147.134 270.706 146.306 271.054 145.442 271.534C145.346 271.558 145.07 271.462 144.614 271.246C144.158 271.006 143.786 270.754 143.498 270.49L146.99 264.19C147.11 264.43 147.302 264.598 147.566 264.694C147.83 264.766 148.154 264.802 148.538 264.802C148.706 264.802 148.874 264.802 149.042 264.802C149.21 264.802 149.39 264.79 149.582 264.766C150.278 264.694 151.022 264.61 151.814 264.514C152.606 264.418 153.398 264.322 154.19 264.226C155.318 264.082 156.35 264.01 157.286 264.01C157.478 264.01 157.646 264.01 157.79 264.01C157.934 264.01 158.078 264.022 158.222 264.046C158.966 264.142 159.542 264.406 159.95 264.838C160.358 265.27 160.562 265.75 160.562 266.278C160.562 266.566 160.49 266.866 160.346 267.178C160.202 267.466 159.962 267.742 159.626 268.006C159.53 268.03 159.446 268.078 159.374 268.15C159.302 268.198 159.242 268.222 159.194 268.222H159.05C158.858 268.222 158.762 268.126 158.762 267.934C158.762 267.742 158.846 267.634 159.014 267.61L159.086 267.502C159.206 267.478 159.278 267.43 159.302 267.358C159.35 267.214 159.374 267.106 159.374 267.034C159.374 266.674 159.134 266.398 158.654 266.206C158.198 265.99 157.742 265.87 157.286 265.846C155.702 265.702 154.214 265.63 152.822 265.63C151.454 265.63 150.134 265.606 148.862 265.558C148.742 265.75 148.502 266.134 148.142 266.71C147.806 267.286 147.458 267.886 147.098 268.51C146.738 269.11 146.45 269.602 146.234 269.986C147.074 269.722 147.866 269.542 148.61 269.446C149.354 269.326 150.05 269.266 150.698 269.266C152.402 269.266 153.818 269.602 154.946 270.274C156.074 270.922 156.914 271.786 157.466 272.866C158.042 273.922 158.33 275.062 158.33 276.286C158.33 277.366 158.102 278.446 157.646 279.526C157.214 280.606 156.554 281.59 155.666 282.478C154.802 283.342 153.71 284.038 152.39 284.566C151.07 285.094 149.534 285.358 147.782 285.358Z" fill="url(#paint6_linear_126_30894)"/>
<path d="M43.9687 211.821C42.6569 212.573 41.242 213.024 39.724 213.175C38.2388 213.334 36.7788 213.466 35.3441 213.569C34.9962 213.879 34.6572 214.156 34.3271 214.401C33.997 214.645 33.6549 214.869 33.301 215.072C31.9475 215.848 30.9046 216.224 30.1723 216.201C29.8597 216.187 29.6497 216.086 29.5423 215.898C29.4468 215.732 29.4466 215.538 29.5415 215.318C29.6365 215.097 29.7955 214.868 30.0184 214.63C30.3336 214.311 30.6889 214.038 31.0846 213.811C31.6676 213.477 32.3296 213.208 33.0706 213.005C33.8204 212.769 34.615 212.562 35.4542 212.385C35.698 212.135 35.9507 211.852 36.2122 211.536C36.4738 211.22 36.713 210.889 36.9298 210.544C37.2447 210.031 37.6293 209.327 38.0836 208.43C38.5379 207.534 38.9206 206.512 39.2317 205.366C39.5309 204.198 39.6171 202.973 39.4905 201.69C39.3275 199.958 38.8462 198.394 38.0466 196.999C37.3425 195.771 36.414 194.851 35.2612 194.239C34.0965 193.606 32.7836 193.584 31.3228 194.173C31.1323 194.226 30.9538 194.301 30.7872 194.396C30.6415 194.48 30.4853 194.57 30.3187 194.665C29.2776 195.262 28.4882 196.032 27.9506 196.977C27.4339 197.909 27.1792 198.913 27.1865 199.987C27.2027 201.029 27.4913 202.039 28.0522 203.018C28.5295 203.851 29.1673 204.384 29.9654 204.619C30.7515 204.832 31.4778 204.748 32.1441 204.366C32.7271 204.032 33.1373 203.589 33.3748 203.038C33.633 202.475 33.6606 201.92 33.4575 201.372C33.2904 201.081 33.1963 200.844 33.1753 200.663C33.175 200.469 33.2165 200.349 33.2998 200.301C33.5497 200.158 33.8477 200.388 34.1938 200.992C34.552 201.81 34.5129 202.635 34.0764 203.466C33.6607 204.285 33.026 204.939 32.1722 205.428C31.8183 205.631 31.43 205.798 31.0075 205.93C30.573 206.041 30.1399 206.081 29.7082 206.052C29.0295 206.026 28.4041 205.804 27.832 205.385C27.2688 204.933 26.8022 204.384 26.4322 203.739C26.1935 203.322 25.9965 202.882 25.8411 202.418C25.7065 201.942 25.636 201.457 25.6294 200.963C25.5619 199.397 25.9709 197.987 26.8563 196.732C27.7626 195.466 28.8509 194.469 30.1211 193.741C30.9748 193.252 31.8689 192.905 32.8033 192.702C33.7467 192.465 34.6471 192.419 35.5046 192.564C36.5348 192.721 37.4656 193.114 38.2969 193.744C39.1491 194.362 39.8497 195.15 40.3987 196.108C41.2102 197.524 41.6022 199.125 41.5747 200.911C41.564 201.857 41.3497 203.004 40.9317 204.35C40.5226 205.663 39.9542 207.012 39.2267 208.398C38.508 209.75 37.6598 210.997 36.6818 212.138C37.7651 211.905 38.8945 211.631 40.0699 211.317C41.2662 210.991 42.3745 210.535 43.3948 209.951C43.8945 209.664 44.3644 209.326 44.8045 208.935C45.2565 208.565 45.6519 208.145 45.9906 207.674C46.2105 207.382 46.2668 207.143 46.1594 206.955C46.0997 206.851 45.9984 206.771 45.8554 206.715C45.7333 206.646 45.6156 206.562 45.5024 206.461C45.413 206.401 45.3504 206.34 45.3146 206.278C45.243 206.153 45.2666 206.001 45.3854 205.822C45.5937 205.703 45.8527 205.72 46.1625 205.875C46.4931 206.017 46.7538 206.255 46.9448 206.588C47.0164 206.713 47.0776 206.844 47.1284 206.981C47.1792 207.118 47.1987 207.273 47.187 207.445C47.1822 208.306 46.8632 209.125 46.2301 209.902C45.6179 210.668 44.8641 211.308 43.9687 211.821ZM32.8938 214.434C33.1228 214.303 33.3415 214.177 33.5497 214.058C33.746 213.918 33.9006 213.801 34.0136 213.709C33.6833 213.76 33.3797 213.81 33.1029 213.858C32.8142 213.885 32.5494 213.954 32.3084 214.064C32.1923 214.103 32.0822 214.152 31.9781 214.212C31.8621 214.251 31.752 214.3 31.6479 214.36C31.1898 214.622 30.9609 214.85 30.9611 215.044C30.9492 215.023 30.9879 215.042 31.0773 215.102C31.3035 215.11 31.5848 215.046 31.921 214.908C32.2572 214.771 32.5815 214.613 32.8938 214.434ZM53.6126 203.97C52.9671 204.34 52.2783 204.61 51.5462 204.781C49.9868 205.149 48.6024 205.002 47.393 204.34C46.1924 203.645 45.2281 202.662 44.5002 201.392C43.9751 200.476 43.5957 199.476 43.3621 198.393C43.1166 197.289 43.0318 196.175 43.1078 195.053C43.1837 193.931 43.4458 192.868 43.894 191.864C43.587 191.569 43.356 191.287 43.2008 191.016C42.8189 190.35 42.6364 189.597 42.6532 188.758C42.6908 187.906 42.9502 187.08 43.4314 186.278C43.9007 185.456 44.6351 184.759 45.6345 184.186C46.8839 183.47 48.217 183.093 49.6339 183.055C51.0389 182.997 52.3968 183.339 53.7076 184.082C55.0064 184.803 56.1153 185.966 57.0342 187.569C57.8577 189.006 58.3746 190.535 58.5851 192.157C58.7836 193.759 58.7172 195.332 58.3858 196.877C58.0424 198.402 57.4712 199.794 56.672 201.055C55.8609 202.294 54.8411 203.266 53.6126 203.97ZM52.9373 203.154C54.0617 202.509 54.9194 201.617 55.5103 200.476C56.122 199.323 56.4955 198.044 56.6306 196.639C56.7538 195.213 56.6612 193.772 56.3527 192.317C56.0322 190.84 55.514 189.478 54.798 188.228C54.4041 187.541 53.9315 186.885 53.38 186.261C52.8165 185.616 52.1684 185.088 51.4355 184.678C50.7235 184.257 49.927 184.049 49.0458 184.056C48.1528 184.043 47.1857 184.334 46.1445 184.931C45.2908 185.42 44.6694 186.025 44.2804 186.746C43.8913 187.467 43.7077 188.208 43.7296 188.97C43.7603 189.7 43.9739 190.338 44.3705 190.885C44.5874 190.54 44.843 190.213 45.1373 189.906C45.4197 189.579 45.7036 189.278 45.989 189.003C46.3547 188.628 46.7457 188.321 47.1622 188.082C47.8493 187.688 48.5308 187.477 49.2065 187.45C49.8702 187.401 50.4493 187.47 50.9437 187.657C51.4262 187.823 51.739 188.031 51.8822 188.281C51.9777 188.448 51.9705 188.604 51.8605 188.75L51.7668 188.804C51.6002 188.899 51.4112 188.883 51.1997 188.755C51.0864 188.654 50.9032 188.552 50.65 188.448C50.3969 188.344 50.114 188.285 49.8014 188.271C49.1643 188.221 48.4918 188.399 47.7838 188.805C47.2216 189.127 46.7027 189.549 46.227 190.07C45.7603 190.559 45.4023 191.068 45.1529 191.599C45.4746 191.774 45.8484 191.919 46.2742 192.035C46.709 192.118 47.1436 192.104 47.578 191.993C47.7685 191.939 47.9055 191.985 47.989 192.131C48.1203 192.36 48.0282 192.537 47.7128 192.663C47.1534 192.845 46.6251 192.913 46.1279 192.866C45.6516 192.807 45.2034 192.676 44.7834 192.474C44.3743 193.788 44.2748 195.159 44.485 196.587C44.6953 198.016 45.1286 199.303 45.7849 200.448C46.31 201.364 46.9555 202.128 47.7213 202.741C48.4752 203.332 49.3018 203.688 50.2009 203.809C51.0882 203.909 52.0003 203.691 52.9373 203.154Z" fill="url(#paint7_linear_126_30894)"/>
<path d="M27.414 94.3817C26.1331 93.5783 25.0688 92.5425 24.2212 91.2742C23.3811 90.039 22.5779 88.8128 21.8115 87.5955C21.3742 87.4345 20.97 87.266 20.5989 87.0899C20.2277 86.9137 19.8693 86.7173 19.5237 86.5005C18.2021 85.6716 17.3791 84.9287 17.0545 84.2718C16.9201 83.9892 16.9103 83.7564 17.0251 83.5734C17.1271 83.4108 17.2977 83.3195 17.5369 83.2995C17.776 83.2795 18.0533 83.3118 18.3686 83.3962C18.7983 83.5241 19.2064 83.7092 19.5927 83.9515C20.1619 84.3086 20.7107 84.7661 21.239 85.3241C21.8003 85.8745 22.3565 86.4783 22.9075 87.1355C23.2431 87.2327 23.6119 87.3224 24.0137 87.4044C24.4155 87.4865 24.8199 87.5418 25.2269 87.5705C25.8272 87.607 26.6298 87.6147 27.6348 87.5934C28.6397 87.5721 29.7211 87.4288 30.879 87.1636C32.0497 86.878 33.1712 86.3773 34.2433 85.6616C35.695 84.7023 36.848 83.5416 37.7024 82.1794C38.4548 80.9798 38.8295 79.7275 38.8265 78.4224C38.8363 77.097 38.2377 75.9283 37.031 74.9164C36.8938 74.7738 36.7439 74.6514 36.5813 74.5494C36.4389 74.4601 36.2865 74.3645 36.1238 74.2624C35.1072 73.6248 34.0558 73.2911 32.9696 73.2614C31.9037 73.2444 30.8984 73.4922 29.9537 74.0045C29.0422 74.5093 28.2867 75.2395 27.6874 76.1951C27.1773 77.0084 27.0068 77.8222 27.1759 78.6365C27.3578 79.4305 27.7741 80.0316 28.4247 80.4397C28.994 80.7967 29.5776 80.9503 30.1755 80.9004C30.7937 80.8632 31.2966 80.6262 31.6839 80.1892C31.8625 79.9046 32.0269 79.7102 32.1771 79.6062C32.3477 79.5148 32.4737 79.4947 32.555 79.5457C32.799 79.6987 32.7361 80.0701 32.3662 80.6597C31.8131 81.3609 31.0671 81.7146 30.1284 81.7208C29.21 81.7396 28.334 81.4876 27.5004 80.9648C27.1547 80.748 26.8244 80.4842 26.5095 80.1733C26.2073 79.8421 25.9674 79.4792 25.79 79.0846C25.4933 78.4735 25.3952 77.817 25.4955 77.1151C25.6289 76.4055 25.8933 75.7356 26.2886 75.1053C26.5437 74.6987 26.8394 74.3175 27.1758 73.9619C27.5325 73.6191 27.9273 73.3284 28.3601 73.09C29.7097 72.2933 31.1463 71.9903 32.6698 72.181C34.2137 72.3845 35.6058 72.8751 36.846 73.653C37.6796 74.1759 38.4062 74.8016 39.0257 75.5302C39.6784 76.2512 40.1427 77.024 40.4187 77.8487C40.7656 78.8313 40.8569 79.8376 40.6924 80.8676C40.5483 81.9104 40.1829 82.8995 39.5963 83.8347C38.7291 85.2173 37.5012 86.3168 35.9124 87.1335C35.0722 87.5697 33.9599 87.9203 32.5755 88.1852C31.2243 88.4425 29.7663 88.5762 28.2018 88.5865C26.6703 88.5891 25.1708 88.4277 23.7035 88.1023C24.4195 88.948 25.1928 89.8155 26.0232 90.7047C26.874 91.6066 27.7976 92.37 28.7938 92.9949C29.2818 93.3009 29.8016 93.5562 30.3533 93.7606C30.8923 93.9853 31.4492 94.1363 32.024 94.2135C32.3852 94.2701 32.6231 94.2069 32.7379 94.0239C32.8017 93.9222 32.8248 93.7951 32.8072 93.6424C32.81 93.5025 32.8293 93.3588 32.8651 93.2113C32.8755 93.1045 32.8998 93.0205 32.938 92.9595C33.0145 92.8376 33.1596 92.7869 33.3733 92.8076C33.5766 92.9351 33.6831 93.1719 33.6927 93.5179C33.7227 93.8766 33.6356 94.2187 33.4316 94.544C33.3551 94.666 33.2684 94.7816 33.1715 94.8908C33.0747 95.0001 32.9473 95.0902 32.7895 95.1611C32.0282 95.5619 31.1554 95.6661 30.1712 95.4737C29.2073 95.2941 28.2883 94.9301 27.414 94.3817ZM19.8949 85.8409C20.1186 85.9812 20.332 86.1151 20.5353 86.2426C20.7514 86.3498 20.9268 86.4315 21.0616 86.4877C20.861 86.2202 20.6744 85.9757 20.5018 85.7541C20.3419 85.5122 20.1565 85.3109 19.9456 85.1503C19.8567 85.0662 19.7614 84.9923 19.6598 84.9285C19.5709 84.8444 19.4756 84.7705 19.3739 84.7067C18.9266 84.4262 18.6177 84.3315 18.4471 84.4229C18.4598 84.4025 18.4611 84.4458 18.4507 84.5526C18.5496 84.7563 18.7388 84.9741 19.0182 85.206C19.2977 85.438 19.5899 85.6496 19.8949 85.8409ZM38.501 100.273C38.196 100.082 37.8111 99.7699 37.3463 99.3366C36.8687 98.9237 36.4052 98.4206 35.9558 97.8271C35.4938 97.254 35.1132 96.6186 34.8141 95.9211C34.515 95.2235 34.3712 94.4817 34.3826 93.6957C34.4144 92.9223 34.6853 92.129 35.1954 91.3158C35.8458 90.2789 36.6152 89.5716 37.5037 89.194C38.4252 88.8088 39.3401 88.6601 40.2481 88.7481C41.1562 88.836 41.9559 89.0968 42.6471 89.5304C43.3994 90.0022 43.9428 90.6264 44.2774 91.4028C44.6247 92.159 44.523 92.9309 43.9722 93.7187C43.8829 93.861 43.7428 93.9714 43.5519 94.05C43.361 94.1285 43.2147 94.1359 43.113 94.0722C42.9301 93.9574 42.9725 93.6865 43.2403 93.2596C43.5718 92.7309 43.6515 92.2426 43.4792 91.7946C43.34 91.339 43.0366 90.9645 42.569 90.6712C41.9387 90.2759 41.2483 90.112 40.4977 90.1795C39.7598 90.2266 39.0573 90.4659 38.3901 90.8973C37.7229 91.3287 37.1789 91.8799 36.758 92.5509C36.3499 93.2015 36.1173 93.9338 36.06 94.7478C36.0027 95.5617 36.1986 96.3787 36.6476 97.1986C37.1169 98.0312 37.9208 98.8046 39.0594 99.5187C40.7265 100.564 42.2699 101.108 43.6894 101.148C45.1419 101.181 46.4119 100.872 47.4992 100.223C48.6196 99.5658 49.505 98.7188 50.1554 97.6819C50.7675 96.706 51.1343 95.647 51.2557 94.505C51.4102 93.3553 51.2733 92.2637 50.845 91.2302C50.4167 90.1966 49.6536 89.3355 48.5557 88.6469C47.9864 88.2898 47.3089 87.9924 46.5232 87.7545C45.7375 87.5167 44.8511 87.3715 43.8642 87.3191C43.7701 87.2884 43.5873 87.0604 43.3157 86.6351C43.057 86.1895 42.8757 85.7783 42.772 85.4017L49.0778 81.9201C49.052 82.1872 49.1253 82.4315 49.298 82.6532C49.4834 82.8544 49.7387 83.0571 50.064 83.2611C50.2063 83.3504 50.3487 83.4397 50.491 83.5289C50.6333 83.6182 50.7922 83.7037 50.9676 83.7854C51.5954 84.0942 52.2704 84.4184 52.9923 84.7579C53.7143 85.0974 54.4362 85.4369 55.1582 85.7764C56.1903 86.2538 57.1028 86.7411 57.8957 87.2385C58.0584 87.3405 58.2007 87.4298 58.3227 87.5063C58.4447 87.5828 58.5603 87.6695 58.6695 87.7663C59.2488 88.243 59.5965 88.7727 59.7125 89.3555C59.8286 89.9382 59.7464 90.4532 59.4659 90.9005C59.3128 91.1445 59.0924 91.3604 58.8046 91.5482C58.5296 91.7157 58.1797 91.822 57.7547 91.8671C57.6607 91.8364 57.564 91.8324 57.4647 91.8552C57.3782 91.8576 57.3147 91.846 57.274 91.8205L57.152 91.744C56.9894 91.642 56.959 91.5096 57.0611 91.347C57.1631 91.1843 57.2916 91.1375 57.4467 91.2064L57.5651 91.1532C57.6795 91.1966 57.766 91.1942 57.8246 91.146C57.9418 91.0495 58.0195 90.9707 58.0577 90.9097C58.249 90.6048 58.1924 90.2434 57.8877 89.8257C57.6162 89.4004 57.2937 89.0565 56.9201 88.7939C55.6548 87.8302 54.4325 86.9785 53.2532 86.2389C52.0943 85.512 50.9889 84.7903 49.9368 84.0737C49.7331 84.1726 49.3258 84.3704 48.7147 84.6671C48.124 84.9765 47.5104 85.2999 46.8739 85.6372C46.2501 85.9542 45.7447 86.218 45.3576 86.4285C46.2095 86.6512 46.9761 86.9195 47.6574 87.2335C48.3514 87.5272 48.9729 87.8462 49.5219 88.1905C50.9654 89.096 51.9865 90.133 52.585 91.3017C53.1962 92.45 53.4487 93.6282 53.3425 94.8365C53.2693 96.0371 52.9076 97.1559 52.2572 98.1928C51.6833 99.1077 50.9163 99.9015 49.9562 100.574C49.0163 101.26 47.9344 101.742 46.7102 102.023C45.5192 102.296 44.2243 102.305 42.8255 102.051C41.4267 101.797 39.9852 101.204 38.501 100.273Z" fill="url(#paint8_linear_126_30894)"/>
<path d="M255.921 94.3581C255.561 94.3581 255.069 94.2981 254.445 94.1781C253.821 94.0821 253.161 93.9021 252.465 93.6381C251.769 93.3981 251.109 93.0621 250.485 92.6301C249.861 92.1981 249.345 91.6461 248.937 90.9741C248.553 90.3021 248.361 89.4861 248.361 88.5261C248.361 87.3021 248.637 86.2941 249.189 85.5021C249.765 84.6861 250.461 84.0741 251.277 83.6661C252.093 83.2581 252.909 83.0541 253.725 83.0541C254.613 83.0541 255.405 83.2941 256.101 83.7741C256.797 84.2301 257.121 84.9381 257.073 85.8981C257.073 86.0661 257.013 86.2341 256.893 86.4021C256.773 86.5701 256.653 86.6541 256.533 86.6541C256.317 86.6541 256.209 86.4021 256.209 85.8981C256.209 85.2741 256.017 84.8181 255.633 84.5301C255.273 84.2181 254.817 84.0621 254.265 84.0621C253.521 84.0621 252.849 84.2901 252.249 84.7461C251.649 85.1781 251.181 85.7541 250.845 86.4741C250.509 87.1941 250.341 87.9501 250.341 88.7421C250.341 89.5101 250.533 90.2541 250.917 90.9741C251.301 91.6941 251.901 92.2821 252.717 92.7381C253.557 93.1941 254.649 93.4221 255.993 93.4221C257.961 93.4221 259.557 93.0621 260.781 92.3421C262.029 91.5981 262.941 90.6621 263.517 89.5341C264.117 88.3821 264.417 87.1941 264.417 85.9701C264.417 84.8181 264.165 83.7261 263.661 82.6941C263.181 81.6381 262.485 80.7861 261.573 80.1381C260.661 79.4901 259.557 79.1661 258.261 79.1661C257.589 79.1661 256.857 79.2741 256.065 79.4901C255.273 79.7061 254.445 80.0541 253.581 80.5341C253.485 80.5581 253.209 80.4621 252.753 80.2461C252.297 80.0061 251.925 79.7541 251.637 79.4901L255.129 73.1901C255.249 73.4301 255.441 73.5981 255.705 73.6941C255.969 73.7661 256.293 73.8021 256.677 73.8021C256.845 73.8021 257.013 73.8021 257.181 73.8021C257.349 73.8021 257.529 73.7901 257.721 73.7661C258.417 73.6941 259.161 73.6101 259.953 73.5141C260.745 73.4181 261.537 73.3221 262.329 73.2261C263.457 73.0821 264.489 73.0101 265.425 73.0101C265.617 73.0101 265.785 73.0101 265.929 73.0101C266.073 73.0101 266.217 73.0221 266.361 73.0461C267.105 73.1421 267.681 73.4061 268.089 73.8381C268.497 74.2701 268.701 74.7501 268.701 75.2781C268.701 75.5661 268.629 75.8661 268.485 76.1781C268.341 76.4661 268.101 76.7421 267.765 77.0061C267.669 77.0301 267.585 77.0781 267.513 77.1501C267.441 77.1981 267.381 77.2221 267.333 77.2221H267.189C266.997 77.2221 266.901 77.1261 266.901 76.9341C266.901 76.7421 266.985 76.6341 267.153 76.6101L267.225 76.5021C267.345 76.4781 267.417 76.4301 267.441 76.3581C267.489 76.2141 267.513 76.1061 267.513 76.0341C267.513 75.6741 267.273 75.3981 266.793 75.2061C266.337 74.9901 265.881 74.8701 265.425 74.8461C263.841 74.7021 262.353 74.6301 260.961 74.6301C259.593 74.6301 258.273 74.6061 257.001 74.5581C256.881 74.7501 256.641 75.1341 256.281 75.7101C255.945 76.2861 255.597 76.8861 255.237 77.5101C254.877 78.1101 254.589 78.6021 254.373 78.9861C255.213 78.7221 256.005 78.5421 256.749 78.4461C257.493 78.3261 258.189 78.2661 258.837 78.2661C260.541 78.2661 261.957 78.6021 263.085 79.2741C264.213 79.9221 265.053 80.7861 265.605 81.8661C266.181 82.9221 266.469 84.0621 266.469 85.2861C266.469 86.3661 266.241 87.4461 265.785 88.5261C265.353 89.6061 264.693 90.5901 263.805 91.4781C262.941 92.3421 261.849 93.0381 260.529 93.5661C259.209 94.0941 257.673 94.3581 255.921 94.3581Z" fill="url(#paint9_linear_126_30894)"/>
<defs>
<linearGradient id="paint0_linear_126_30894" x1="137.502" y1="5.41406" x2="137.502" y2="33.2527" gradientUnits="userSpaceOnUse">
<stop stop-color="#DCBF87"/>
<stop offset="1" stop-color="#68552C"/>
</linearGradient>
<linearGradient id="paint1_linear_126_30894" x1="154.005" y1="5.48437" x2="154.005" y2="17.2512" gradientUnits="userSpaceOnUse">
<stop stop-color="#E5C68C"/>
<stop offset="1" stop-color="#7F6E4E"/>
</linearGradient>
<linearGradient id="paint2_linear_126_30894" x1="139.224" y1="19.6914" x2="139.224" y2="31.53" gradientUnits="userSpaceOnUse">
<stop stop-color="#E5C68C"/>
<stop offset="1" stop-color="#7F6E4E"/>
</linearGradient>
<linearGradient id="paint3_linear_126_30894" x1="139.108" y1="17.8984" x2="139.108" y2="5.77286" gradientUnits="userSpaceOnUse">
<stop stop-color="#E5C68C"/>
<stop offset="1" stop-color="#7F6E4E"/>
</linearGradient>
<linearGradient id="paint4_linear_126_30894" x1="153.995" y1="31.3867" x2="153.995" y2="19.5196" gradientUnits="userSpaceOnUse">
<stop stop-color="#E5C68C"/>
<stop offset="1" stop-color="#7F6E4E"/>
</linearGradient>
<linearGradient id="paint5_linear_126_30894" x1="255.481" y1="179.38" x2="269.718" y2="190.001" gradientUnits="userSpaceOnUse">
<stop stop-color="#ECC271"/>
<stop offset="1" stop-color="#7F642E"/>
</linearGradient>
<linearGradient id="paint6_linear_126_30894" x1="135.695" y1="251.414" x2="154.085" y2="254.509" gradientUnits="userSpaceOnUse">
<stop stop-color="#ECC271"/>
<stop offset="1" stop-color="#7F642E"/>
</linearGradient>
<linearGradient id="paint7_linear_126_30894" x1="20.7436" y1="184.971" x2="46.1552" y2="178.067" gradientUnits="userSpaceOnUse">
<stop stop-color="#ECC271"/>
<stop offset="1" stop-color="#7F642E"/>
</linearGradient>
<linearGradient id="paint8_linear_126_30894" x1="41.0851" y1="61.8256" x2="58.0026" y2="78.6324" gradientUnits="userSpaceOnUse">
<stop stop-color="#ECC271"/>
<stop offset="1" stop-color="#7F642E"/>
</linearGradient>
<linearGradient id="paint9_linear_126_30894" x1="249.395" y1="60.414" x2="267.393" y2="63.2674" gradientUnits="userSpaceOnUse">
<stop stop-color="#ECC271"/>
<stop offset="1" stop-color="#7F642E"/>
</linearGradient>
</defs>
</svg>
