<svg width="292" height="291" viewBox="0 0 292 291" fill="none" xmlns="http://www.w3.org/2000/svg">
<path d="M138.36 32.2527C136.789 32.2527 135.404 32.0406 134.206 31.6166C133.033 31.1675 132.11 30.5689 131.436 29.8205C130.763 29.0472 130.426 28.1742 130.426 27.2013C130.426 26.3781 130.65 25.7295 131.099 25.2556C131.574 24.7567 132.16 24.5072 132.859 24.5072C133.308 24.5072 133.707 24.607 134.056 24.8066C134.431 24.9812 134.718 25.2431 134.917 25.5923C135.142 25.9166 135.254 26.3033 135.254 26.7523C135.254 27.1514 135.167 27.4632 134.992 27.6877C134.842 27.9122 134.668 28.0993 134.468 28.249C134.268 28.3987 134.081 28.5483 133.907 28.698C133.757 28.8227 133.682 29.0223 133.682 29.2967C133.682 29.7457 133.919 30.1074 134.393 30.3818C134.892 30.6312 135.466 30.8183 136.115 30.943C136.789 31.0678 137.387 31.1301 137.911 31.1301C139.658 31.1301 140.993 30.5439 141.916 29.3715C142.864 28.1991 143.338 26.5153 143.338 24.3202C143.338 22.2497 142.864 20.6657 141.916 19.5681C140.968 18.4706 139.384 17.9218 137.163 17.9218L140.831 17.0612C142.378 17.2358 143.725 17.6723 144.873 18.3708C146.046 19.0443 146.956 19.8924 147.605 20.9152C148.254 21.9379 148.578 23.0729 148.578 24.3202C148.578 25.6672 148.167 26.9518 147.343 28.1741C146.545 29.3715 145.384 30.3568 143.862 31.1301C142.34 31.8785 140.506 32.2527 138.36 32.2527ZM136.324 17.9218V16.0818H140.831V17.9218H136.324ZM138.622 17.2108L136.452 16.7992C138.473 16.7992 139.92 16.238 140.793 15.1155C141.667 13.968 142.103 12.3965 142.103 10.4009C142.103 9.12866 141.941 8.14334 141.617 7.44488C141.317 6.74642 140.868 6.25999 140.269 5.9856C139.695 5.68626 138.997 5.53659 138.173 5.53659C137.25 5.53659 136.477 5.67378 135.853 5.94818C135.229 6.22257 134.917 6.59675 134.917 7.0707C134.917 7.3451 135.017 7.5696 135.217 7.74422C135.416 7.91883 135.616 8.13086 135.815 8.38031C136.015 8.60482 136.115 8.95405 136.115 9.428C136.115 10.0766 135.903 10.563 135.479 10.8873C135.054 11.1866 134.593 11.3363 134.094 11.3363C133.47 11.3363 132.933 11.1118 132.484 10.6628C132.06 10.2138 131.848 9.66498 131.848 9.01641C131.848 8.29301 132.123 7.58208 132.671 6.88362C133.245 6.18516 134.069 5.59895 135.142 5.12499C136.215 4.65104 137.512 4.41406 139.034 4.41406C140.706 4.41406 142.128 4.70093 143.301 5.27466C144.499 5.8484 145.409 6.59675 146.033 7.51971C146.657 8.44268 146.969 9.428 146.969 10.4757C146.969 11.5982 146.62 12.6459 145.921 13.6188C145.247 14.5667 144.287 15.3649 143.039 16.0135C141.791 16.6371 140.319 17.0362 138.622 17.2108Z" fill="url(#paint0_linear_126_31070)"/>
<path d="M161.926 10.3678C161.926 13.3007 159.317 15.7512 156.005 15.7512C152.692 15.7512 150.083 13.3007 150.083 10.3678C150.083 7.4349 152.692 4.98438 156.005 4.98438C159.317 4.98438 161.926 7.4349 161.926 10.3678Z" fill="black" stroke="url(#paint1_linear_126_31070)"/>
<path d="M135.302 24.6107C135.302 27.5661 137.914 30.03 141.224 30.03C144.533 30.03 147.146 27.5661 147.146 24.6107C147.146 21.6553 144.533 19.1914 141.224 19.1914C137.914 19.1914 135.302 21.6553 135.302 24.6107Z" fill="black" stroke="url(#paint2_linear_126_31070)"/>
<mask id="path-4-inside-1_126_31070" fill="white">
<path fill-rule="evenodd" clip-rule="evenodd" d="M136.316 16.072C138.237 15.0383 139.525 13.138 139.525 10.9649C139.525 8.7029 138.13 6.73657 136.078 5.73544C137.096 5.1263 138.308 4.77286 139.61 4.77286C143.215 4.77286 146.139 7.48727 146.139 10.8357C146.139 14.184 143.215 16.8984 139.61 16.8984C138.408 16.8984 137.283 16.5973 136.316 16.072Z"/>
</mask>
<path fill-rule="evenodd" clip-rule="evenodd" d="M136.316 16.072C138.237 15.0383 139.525 13.138 139.525 10.9649C139.525 8.7029 138.13 6.73657 136.078 5.73544C137.096 5.1263 138.308 4.77286 139.61 4.77286C143.215 4.77286 146.139 7.48727 146.139 10.8357C146.139 14.184 143.215 16.8984 139.61 16.8984C138.408 16.8984 137.283 16.5973 136.316 16.072Z" fill="black"/>
<path d="M136.316 16.072L135.843 15.1914L134.214 16.0677L135.839 16.9506L136.316 16.072ZM136.078 5.73544L135.564 4.8773L133.981 5.82484L135.639 6.63416L136.078 5.73544ZM138.525 10.9649C138.525 12.7219 137.484 14.308 135.843 15.1914L136.79 16.9525C138.99 15.7686 140.525 13.5542 140.525 10.9649L138.525 10.9649ZM135.639 6.63416C137.397 7.49161 138.525 9.1369 138.525 10.9649L140.525 10.9649C140.525 8.2689 138.863 5.98153 136.516 4.83671L135.639 6.63416ZM136.591 6.59358C137.456 6.07655 138.491 5.77286 139.61 5.77286L139.61 3.77286C138.126 3.77286 136.737 4.17606 135.564 4.8773L136.591 6.59358ZM139.61 5.77286C142.734 5.77286 145.139 8.10805 145.139 10.8357L147.139 10.8357C147.139 6.86648 143.697 3.77286 139.61 3.77286L139.61 5.77286ZM145.139 10.8357C145.139 13.5633 142.734 15.8984 139.61 15.8984L139.61 17.8984C143.697 17.8984 147.139 14.8048 147.139 10.8357L145.139 10.8357ZM139.61 15.8984C138.577 15.8984 137.615 15.6397 136.794 15.1933L135.839 16.9506C136.951 17.555 138.24 17.8984 139.61 17.8984L139.61 15.8984Z" fill="url(#paint3_linear_126_31070)" mask="url(#path-4-inside-1_126_31070)"/>
<mask id="path-6-inside-2_126_31070" fill="white">
<path fill-rule="evenodd" clip-rule="evenodd" d="M160.9 29.592C158.946 28.5659 157.632 26.6487 157.632 24.453C157.632 22.2574 158.946 20.3404 160.9 19.3142C159.938 18.8088 158.821 18.5196 157.629 18.5196C154.017 18.5196 151.09 21.1761 151.09 24.4531C151.09 27.7302 154.017 30.3867 157.629 30.3867C158.821 30.3867 159.938 30.0974 160.9 29.592Z"/>
</mask>
<path fill-rule="evenodd" clip-rule="evenodd" d="M160.9 29.592C158.946 28.5659 157.632 26.6487 157.632 24.453C157.632 22.2574 158.946 20.3404 160.9 19.3142C159.938 18.8088 158.821 18.5196 157.629 18.5196C154.017 18.5196 151.09 21.1761 151.09 24.4531C151.09 27.7302 154.017 30.3867 157.629 30.3867C158.821 30.3867 159.938 30.0974 160.9 29.592Z" fill="black"/>
<path d="M160.9 29.592L161.365 28.7067L163.051 29.592L161.365 30.4773L160.9 29.592ZM160.9 19.3142L161.365 18.4289L163.05 19.3142L161.365 20.1995L160.9 19.3142ZM158.632 24.453C158.632 26.2281 159.695 27.8293 161.365 28.7067L160.435 30.4773C158.198 29.3025 156.632 27.0694 156.632 24.453L158.632 24.453ZM161.365 20.1995C159.694 21.0769 158.632 22.6781 158.632 24.453L156.632 24.453C156.632 21.8368 158.198 19.6038 160.435 18.4289L161.365 20.1995ZM160.435 20.1995C159.616 19.7693 158.658 19.5196 157.629 19.5196L157.629 17.5196C158.983 17.5196 160.26 17.8484 161.365 18.4289L160.435 20.1995ZM157.629 19.5196C154.476 19.5196 152.09 21.8176 152.09 24.4531L150.09 24.4531C150.09 20.5346 153.559 17.5196 157.629 17.5196L157.629 19.5196ZM152.09 24.4531C152.09 27.0887 154.476 29.3867 157.629 29.3867L157.629 31.3867C153.559 31.3867 150.09 28.3717 150.09 24.4531L152.09 24.4531ZM157.629 29.3867C158.658 29.3867 159.616 29.137 160.435 28.7067L161.365 30.4773C160.26 31.0579 158.983 31.3867 157.629 31.3867L157.629 29.3867Z" fill="url(#paint4_linear_126_31070)" mask="url(#path-6-inside-2_126_31070)"/>
<path d="M245.9 210.777C245.052 210.198 244.105 209.635 243.06 209.088C242.014 208.541 240.985 208.092 239.971 207.742L240.183 207.209C241.012 207.35 241.805 207.517 242.562 207.71C243.408 206.482 244.215 205.133 244.985 203.662L246.153 201.429C247.09 199.639 247.765 198.198 248.179 197.106C247.467 196.439 246.91 195.821 246.509 195.25L246.867 194.76C247.766 195.501 248.756 196.155 249.837 196.72C250.918 197.286 251.845 197.715 252.618 198.006L252.446 198.593C251.858 198.466 251.237 198.379 250.585 198.331C249.804 199.435 248.983 200.811 248.12 202.459L246.952 204.691C246.006 206.499 245.354 207.896 244.996 208.882C245.479 209.338 245.895 209.816 246.244 210.314L245.9 210.777ZM251.955 206.26C253.514 204.187 255.167 202.839 256.914 202.219C258.679 201.607 260.137 201.603 261.289 202.206C262.441 202.809 263.234 203.924 263.669 205.551C264.122 207.187 264.02 209.109 263.361 211.315C261.802 213.389 260.149 214.736 258.402 215.356C256.682 215.969 255.246 215.973 254.095 215.371C252.943 214.768 252.132 213.644 251.661 211.998C251.208 210.361 251.306 208.449 251.955 206.26ZM257.471 204.067C256.336 204.941 255.44 206.007 254.781 207.265C254.123 208.523 253.758 209.867 253.687 211.297C253.616 212.727 253.944 213.825 254.673 214.59C255.716 214.752 256.805 214.396 257.94 213.523C259.074 212.649 259.971 211.583 260.629 210.325C261.287 209.067 261.652 207.723 261.723 206.293C261.795 204.863 261.466 203.766 260.738 203.001C259.694 202.838 258.605 203.194 257.471 204.067Z" fill="url(#paint5_linear_126_31070)"/>
<path d="M140.997 282.594C139.977 282.474 138.877 282.414 137.697 282.414C136.517 282.414 135.397 282.494 134.337 282.654L134.277 282.084C135.077 281.824 135.857 281.604 136.617 281.424C136.797 279.944 136.887 278.374 136.887 276.714V274.194C136.887 272.174 136.817 270.584 136.677 269.424C135.737 269.164 134.957 268.874 134.337 268.554L134.427 267.954C135.567 268.194 136.747 268.314 137.967 268.314C139.187 268.314 140.207 268.264 141.027 268.164L141.147 268.764C140.567 268.924 139.977 269.134 139.377 269.394C139.197 270.734 139.107 272.334 139.107 274.194V276.714C139.107 278.754 139.177 280.294 139.317 281.334C139.957 281.514 140.547 281.744 141.087 282.024L140.997 282.594ZM146.157 280.944C146.157 281.724 146.177 282.334 146.217 282.774C146.697 283.114 147.327 283.404 148.107 283.644C148.907 283.884 149.657 284.004 150.357 284.004C151.057 284.004 151.607 283.764 152.007 283.284C152.307 282.524 152.457 281.674 152.457 280.734C152.457 279.334 152.087 278.224 151.347 277.404C150.627 276.584 149.587 276.174 148.227 276.174C147.447 276.174 146.747 276.344 146.127 276.684L145.767 276.414L146.067 271.164C146.107 270.624 146.127 270.074 146.127 269.514C146.127 268.954 146.087 268.434 146.007 267.954L146.637 267.834C146.737 268.194 146.827 268.464 146.907 268.644C149.467 268.564 151.757 268.304 153.777 267.864L154.107 268.134C153.867 268.834 153.747 269.524 153.747 270.204C153.747 270.884 153.797 271.524 153.897 272.124L153.237 272.274C153.057 271.534 152.877 270.934 152.697 270.474C151.297 270.614 149.767 270.684 148.107 270.684L147.417 270.384L147.297 270.534L146.967 275.184C147.867 274.684 148.517 274.384 148.917 274.284C150.877 274.344 152.397 274.904 153.477 275.964C154.557 277.024 155.097 278.514 155.097 280.434C154.697 281.534 153.957 282.604 152.877 283.644C151.817 284.704 150.737 285.444 149.637 285.864C148.817 285.864 147.887 285.754 146.847 285.534C145.807 285.314 144.927 285.034 144.207 284.694V284.304C144.967 283.444 145.397 282.324 145.497 280.944H146.157Z" fill="url(#paint6_linear_126_31070)"/>
<path d="M40.1902 208.604C40.4232 208.447 40.8954 208.165 41.6068 207.758C42.3183 207.35 43.5232 206.798 45.2216 206.101C45.1763 205.62 45.0874 205.002 44.955 204.248L45.606 204.117C45.803 204.903 46.0606 205.574 46.3788 206.129C46.6971 206.684 47.0611 207.179 47.471 207.612L47.278 208C44.161 208.956 41.4139 210.116 39.0367 211.478C38.9404 211.833 38.8504 212.3 38.7668 212.878L38.1231 212.901C38.0393 211.427 38.4086 209.176 39.2307 206.146C39.5122 205.108 39.6696 204.015 39.7028 202.867C39.7361 201.718 39.5588 200.806 39.1709 200.129C38.783 199.452 38.2914 199.077 37.6959 199.003C37.0905 198.912 36.4668 199.051 35.8248 199.419C35.1827 199.787 34.6884 200.231 34.3418 200.753C34.3397 201.031 34.4381 201.343 34.637 201.69C34.8359 202.037 35.0668 202.239 35.3299 202.296L35.4082 202.493C35.1162 203.029 34.8987 203.615 34.7556 204.25C34.5374 204.352 34.3278 204.368 34.1268 204.299C33.9158 204.213 33.7557 204.074 33.6463 203.883C33.1888 203.085 33.1911 202.023 33.6533 200.698C34.1229 199.345 34.7553 198.257 35.5506 197.432C36.9561 196.626 38.1738 196.378 39.2037 196.687C40.2509 196.986 41.1773 197.838 41.9829 199.243C41.5875 202.374 40.7682 205.691 39.5249 209.193L39.6366 209.267C39.8273 208.996 40.0118 208.775 40.1902 208.604ZM46.5252 200.271C45.6166 197.841 45.3708 195.723 45.7877 193.916C46.222 192.1 47.003 190.868 48.1309 190.222C49.2588 189.575 50.6256 189.507 52.2312 190.016C53.8543 190.515 55.4185 191.635 56.9241 193.377C57.8327 195.807 58.0785 197.925 57.6616 199.732C57.2521 201.511 56.4834 202.724 55.3555 203.37C54.2276 204.017 52.8435 204.095 51.2031 203.606C49.5801 203.107 48.0208 201.995 46.5252 200.271ZM47.6452 194.442C47.771 195.868 48.187 197.197 48.8931 198.429C49.5992 199.661 50.5358 200.692 51.7028 201.522C52.8698 202.351 53.9716 202.665 55.0083 202.463C55.7068 201.67 55.9931 200.561 55.8673 199.135C55.7414 197.709 55.3254 196.38 54.6193 195.148C53.9132 193.916 52.9767 192.885 51.8097 192.055C50.6427 191.226 49.5408 190.912 48.5042 191.114C47.8056 191.907 47.5193 193.016 47.6452 194.442Z" fill="url(#paint7_linear_126_31070)"/>
<path d="M32.7344 92.3013C32.9822 92.4332 33.4534 92.7169 34.1481 93.1527C34.8428 93.5884 35.8972 94.3914 37.3115 95.5618C37.7147 95.2953 38.2178 94.9262 38.8206 94.4544L39.2427 94.967C38.6419 95.5109 38.1714 96.054 37.8314 96.5961C37.4913 97.1383 37.2265 97.6923 37.0369 98.258L36.6044 98.27C34.293 95.9704 31.9768 94.0926 29.6556 92.6367C29.2972 92.7188 28.8433 92.859 28.2939 93.0574L27.9704 92.5004C29.2309 91.7329 31.3913 90.9986 34.4516 90.2975C35.4992 90.0575 36.5376 89.6818 37.5666 89.1704C38.5956 88.659 39.3174 88.0729 39.7318 87.4122C40.1463 86.7514 40.2458 86.141 40.0305 85.581C39.8258 85.004 39.41 84.5189 38.7831 84.1257C38.1562 83.7325 37.5312 83.5057 36.908 83.4454C36.6618 83.5743 36.4325 83.8082 36.22 84.147C36.0074 84.4859 35.938 84.7847 36.0118 85.0435L35.8748 85.2054C35.2643 85.2002 34.6451 85.284 34.0173 85.4568C33.8246 85.3124 33.7115 85.1352 33.6779 84.9252C33.6549 84.6984 33.7019 84.4917 33.8188 84.3054C34.3077 83.526 35.2455 83.0282 36.6323 82.8121C38.0467 82.5896 39.3049 82.6351 40.4068 82.9485C41.7791 83.8093 42.5716 84.7667 42.784 85.8207C43.0134 86.8853 42.6976 88.1038 41.8369 89.4762C38.8883 90.6014 35.5765 91.4399 31.9017 91.9915L31.8888 92.1251C32.2173 92.1659 32.4992 92.2246 32.7344 92.3013ZM41.9282 99.3428C41.5137 100.004 41.2065 100.531 41.0066 100.925C41.2326 101.468 41.6122 102.048 42.1455 102.666C42.6957 103.295 43.2672 103.795 43.8603 104.167C44.4533 104.539 45.0467 104.628 45.6406 104.434C46.2986 103.949 46.8773 103.309 47.3768 102.512C48.1207 101.326 48.3971 100.19 48.2059 99.1017C48.0316 98.0244 47.3685 97.1245 46.2163 96.4018C45.5556 95.9874 44.8722 95.7594 44.1663 95.718L44.0048 95.298L47.0486 91.0099C47.3694 90.5737 47.6786 90.1184 47.9762 89.644C48.2737 89.1696 48.5161 88.7078 48.7034 88.2587L49.3009 88.4918C49.1943 88.8499 49.1271 89.1264 49.0992 89.3214C51.3104 90.6139 53.3886 91.6105 55.3336 92.3111L55.4697 92.7151C54.8944 93.1806 54.4261 93.7014 54.0648 94.2774C53.7035 94.8535 53.4058 95.4222 53.1717 95.9837L52.5328 95.76C52.7736 95.0375 52.9399 94.4336 53.0318 93.9482C51.7714 93.3229 50.4381 92.5693 49.0318 91.6872L48.6067 91.0664L48.4253 91.1298L45.675 94.8936C46.7031 94.9483 47.4131 95.0395 47.8051 95.1674C49.4337 96.2596 50.4238 97.5417 50.7755 99.0136C51.1271 100.485 50.7929 102.035 49.7727 103.661C48.8493 104.38 47.6539 104.894 46.1864 105.201C44.7251 105.536 43.417 105.589 42.262 105.36C41.5673 104.924 40.8379 104.337 40.0738 103.598C39.3097 102.859 38.7129 102.154 38.2837 101.483L38.4909 101.153C39.5917 100.828 40.5511 100.108 41.3691 98.9921L41.9282 99.3428Z" fill="url(#paint8_linear_126_31070)"/>
<path d="M254.662 94.9441C254.662 95.7241 254.682 96.3341 254.722 96.7741C255.202 97.1141 255.832 97.4041 256.612 97.6441C257.412 97.8841 258.162 98.0041 258.862 98.0041C259.562 98.0041 260.112 97.7641 260.512 97.2841C260.812 96.5241 260.962 95.6741 260.962 94.7341C260.962 93.3341 260.592 92.2241 259.852 91.4041C259.132 90.5841 258.092 90.1741 256.732 90.1741C255.952 90.1741 255.252 90.3441 254.632 90.6841L254.272 90.4141L254.572 85.1641C254.612 84.6241 254.632 84.0741 254.632 83.5141C254.632 82.9541 254.592 82.4341 254.512 81.9541L255.142 81.8341C255.242 82.1941 255.332 82.4641 255.412 82.6441C257.972 82.5641 260.262 82.3041 262.282 81.8641L262.612 82.1341C262.372 82.8341 262.252 83.5241 262.252 84.2041C262.252 84.8841 262.302 85.5241 262.402 86.1241L261.742 86.2741C261.562 85.5341 261.382 84.9341 261.202 84.4741C259.802 84.6141 258.272 84.6841 256.612 84.6841L255.922 84.3841L255.802 84.5341L255.472 89.1841C256.372 88.6841 257.022 88.3841 257.422 88.2841C259.382 88.3441 260.902 88.9041 261.982 89.9641C263.062 91.0241 263.602 92.5141 263.602 94.4341C263.202 95.5341 262.462 96.6041 261.382 97.6441C260.322 98.7041 259.242 99.4441 258.142 99.8641C257.322 99.8641 256.392 99.7541 255.352 99.5341C254.312 99.3141 253.432 99.0341 252.712 98.6941V98.3041C253.472 97.4441 253.902 96.3241 254.002 94.9441H254.662Z" fill="url(#paint9_linear_126_31070)"/>
<defs>
<linearGradient id="paint0_linear_126_31070" x1="139.502" y1="4.41406" x2="139.502" y2="32.2527" gradientUnits="userSpaceOnUse">
<stop stop-color="#DCBF87"/>
<stop offset="1" stop-color="#68552C"/>
</linearGradient>
<linearGradient id="paint1_linear_126_31070" x1="156.005" y1="4.48437" x2="156.005" y2="16.2512" gradientUnits="userSpaceOnUse">
<stop stop-color="#E5C68C"/>
<stop offset="1" stop-color="#7F6E4E"/>
</linearGradient>
<linearGradient id="paint2_linear_126_31070" x1="141.224" y1="18.6914" x2="141.224" y2="30.53" gradientUnits="userSpaceOnUse">
<stop stop-color="#E5C68C"/>
<stop offset="1" stop-color="#7F6E4E"/>
</linearGradient>
<linearGradient id="paint3_linear_126_31070" x1="141.108" y1="16.8984" x2="141.108" y2="4.77286" gradientUnits="userSpaceOnUse">
<stop stop-color="#E5C68C"/>
<stop offset="1" stop-color="#7F6E4E"/>
</linearGradient>
<linearGradient id="paint4_linear_126_31070" x1="155.995" y1="30.3867" x2="155.995" y2="18.5196" gradientUnits="userSpaceOnUse">
<stop stop-color="#E5C68C"/>
<stop offset="1" stop-color="#7F6E4E"/>
</linearGradient>
<linearGradient id="paint5_linear_126_31070" x1="256.481" y1="183.38" x2="270.718" y2="194.001" gradientUnits="userSpaceOnUse">
<stop stop-color="#ECC271"/>
<stop offset="1" stop-color="#7F642E"/>
</linearGradient>
<linearGradient id="paint6_linear_126_31070" x1="136.695" y1="253.414" x2="155.085" y2="256.509" gradientUnits="userSpaceOnUse">
<stop stop-color="#ECC271"/>
<stop offset="1" stop-color="#7F642E"/>
</linearGradient>
<linearGradient id="paint7_linear_126_31070" x1="24.7436" y1="186.971" x2="50.1552" y2="180.067" gradientUnits="userSpaceOnUse">
<stop stop-color="#ECC271"/>
<stop offset="1" stop-color="#7F642E"/>
</linearGradient>
<linearGradient id="paint8_linear_126_31070" x1="45.0851" y1="68.8256" x2="62.0026" y2="85.6324" gradientUnits="userSpaceOnUse">
<stop stop-color="#ECC271"/>
<stop offset="1" stop-color="#7F642E"/>
</linearGradient>
<linearGradient id="paint9_linear_126_31070" x1="250.395" y1="67.414" x2="268.393" y2="70.2674" gradientUnits="userSpaceOnUse">
<stop stop-color="#ECC271"/>
<stop offset="1" stop-color="#7F642E"/>
</linearGradient>
</defs>
</svg>
