<svg width="292" height="291" viewBox="0 0 292 291" fill="none" xmlns="http://www.w3.org/2000/svg">
<path d="M137.36 34.2527C135.789 34.2527 134.404 34.0406 133.206 33.6166C132.033 33.1675 131.11 32.5689 130.436 31.8205C129.763 31.0472 129.426 30.1742 129.426 29.2013C129.426 28.3781 129.65 27.7295 130.099 27.2556C130.574 26.7567 131.16 26.5072 131.859 26.5072C132.308 26.5072 132.707 26.607 133.056 26.8066C133.431 26.9812 133.718 27.2431 133.917 27.5923C134.142 27.9166 134.254 28.3033 134.254 28.7523C134.254 29.1514 134.167 29.4632 133.992 29.6877C133.842 29.9122 133.668 30.0993 133.468 30.249C133.268 30.3987 133.081 30.5483 132.907 30.698C132.757 30.8227 132.682 31.0223 132.682 31.2967C132.682 31.7457 132.919 32.1074 133.393 32.3818C133.892 32.6312 134.466 32.8183 135.115 32.943C135.789 33.0678 136.387 33.1301 136.911 33.1301C138.658 33.1301 139.993 32.5439 140.916 31.3715C141.864 30.1991 142.338 28.5153 142.338 26.3202C142.338 24.2497 141.864 22.6657 140.916 21.5681C139.968 20.4706 138.384 19.9218 136.163 19.9218L139.831 19.0612C141.378 19.2358 142.725 19.6723 143.873 20.3708C145.046 21.0443 145.956 21.8924 146.605 22.9152C147.254 23.9379 147.578 25.0729 147.578 26.3202C147.578 27.6672 147.167 28.9518 146.343 30.1741C145.545 31.3715 144.384 32.3568 142.862 33.1301C141.34 33.8785 139.506 34.2527 137.36 34.2527ZM135.324 19.9218V18.0818H139.831V19.9218H135.324ZM137.622 19.2108L135.452 18.7992C137.473 18.7992 138.92 18.238 139.793 17.1155C140.667 15.968 141.103 14.3965 141.103 12.4009C141.103 11.1287 140.941 10.1433 140.617 9.44488C140.317 8.74642 139.868 8.25999 139.269 7.9856C138.695 7.68626 137.997 7.53659 137.173 7.53659C136.25 7.53659 135.477 7.67378 134.853 7.94818C134.229 8.22257 133.917 8.59675 133.917 9.0707C133.917 9.3451 134.017 9.5696 134.217 9.74422C134.416 9.91883 134.616 10.1309 134.815 10.3803C135.015 10.6048 135.115 10.954 135.115 11.428C135.115 12.0766 134.903 12.563 134.479 12.8873C134.054 13.1866 133.593 13.3363 133.094 13.3363C132.47 13.3363 131.933 13.1118 131.484 12.6628C131.06 12.2138 130.848 11.665 130.848 11.0164C130.848 10.293 131.123 9.58208 131.671 8.88362C132.245 8.18516 133.069 7.59895 134.142 7.12499C135.215 6.65104 136.512 6.41406 138.034 6.41406C139.706 6.41406 141.128 6.70093 142.301 7.27466C143.499 7.8484 144.409 8.59675 145.033 9.51971C145.657 10.4427 145.969 11.428 145.969 12.4757C145.969 13.5982 145.62 14.6459 144.921 15.6188C144.247 16.5667 143.287 17.3649 142.039 18.0135C140.791 18.6371 139.319 19.0362 137.622 19.2108Z" fill="url(#paint0_linear_126_31013)"/>
<path d="M160.926 12.3678C160.926 15.3007 158.317 17.7512 155.005 17.7512C151.692 17.7512 149.083 15.3007 149.083 12.3678C149.083 9.4349 151.692 6.98438 155.005 6.98438C158.317 6.98438 160.926 9.4349 160.926 12.3678Z" fill="black" stroke="url(#paint1_linear_126_31013)"/>
<path d="M134.302 26.6107C134.302 29.5661 136.914 32.03 140.224 32.03C143.533 32.03 146.146 29.5661 146.146 26.6107C146.146 23.6553 143.533 21.1914 140.224 21.1914C136.914 21.1914 134.302 23.6553 134.302 26.6107Z" fill="black" stroke="url(#paint2_linear_126_31013)"/>
<mask id="path-4-inside-1_126_31013" fill="white">
<path fill-rule="evenodd" clip-rule="evenodd" d="M135.316 18.072C137.237 17.0383 138.525 15.138 138.525 12.9649C138.525 10.7029 137.13 8.73657 135.078 7.73544C136.096 7.1263 137.308 6.77286 138.61 6.77286C142.215 6.77286 145.139 9.48727 145.139 12.8357C145.139 16.184 142.215 18.8984 138.61 18.8984C137.408 18.8984 136.283 18.5973 135.316 18.072Z"/>
</mask>
<path fill-rule="evenodd" clip-rule="evenodd" d="M135.316 18.072C137.237 17.0383 138.525 15.138 138.525 12.9649C138.525 10.7029 137.13 8.73657 135.078 7.73544C136.096 7.1263 137.308 6.77286 138.61 6.77286C142.215 6.77286 145.139 9.48727 145.139 12.8357C145.139 16.184 142.215 18.8984 138.61 18.8984C137.408 18.8984 136.283 18.5973 135.316 18.072Z" fill="black"/>
<path d="M135.316 18.072L134.843 17.1914L133.214 18.0677L134.839 18.9506L135.316 18.072ZM135.078 7.73544L134.564 6.8773L132.981 7.82484L134.639 8.63416L135.078 7.73544ZM137.525 12.9649C137.525 14.7219 136.484 16.308 134.843 17.1914L135.79 18.9525C137.99 17.7686 139.525 15.5542 139.525 12.9649L137.525 12.9649ZM134.639 8.63416C136.397 9.49161 137.525 11.1369 137.525 12.9649L139.525 12.9649C139.525 10.2689 137.863 7.98153 135.516 6.83671L134.639 8.63416ZM135.591 8.59358C136.456 8.07655 137.491 7.77286 138.61 7.77286L138.61 5.77286C137.126 5.77286 135.737 6.17606 134.564 6.8773L135.591 8.59358ZM138.61 7.77286C141.734 7.77286 144.139 10.108 144.139 12.8357L146.139 12.8357C146.139 8.86648 142.697 5.77286 138.61 5.77286L138.61 7.77286ZM144.139 12.8357C144.139 15.5633 141.734 17.8984 138.61 17.8984L138.61 19.8984C142.697 19.8984 146.139 16.8048 146.139 12.8357L144.139 12.8357ZM138.61 17.8984C137.577 17.8984 136.615 17.6397 135.794 17.1933L134.839 18.9506C135.951 19.555 137.24 19.8984 138.61 19.8984L138.61 17.8984Z" fill="url(#paint3_linear_126_31013)" mask="url(#path-4-inside-1_126_31013)"/>
<mask id="path-6-inside-2_126_31013" fill="white">
<path fill-rule="evenodd" clip-rule="evenodd" d="M159.9 31.592C157.946 30.5659 156.632 28.6487 156.632 26.453C156.632 24.2574 157.946 22.3404 159.9 21.3142C158.938 20.8088 157.821 20.5196 156.629 20.5196C153.017 20.5196 150.09 23.1761 150.09 26.4531C150.09 29.7302 153.017 32.3867 156.629 32.3867C157.821 32.3867 158.938 32.0974 159.9 31.592Z"/>
</mask>
<path fill-rule="evenodd" clip-rule="evenodd" d="M159.9 31.592C157.946 30.5659 156.632 28.6487 156.632 26.453C156.632 24.2574 157.946 22.3404 159.9 21.3142C158.938 20.8088 157.821 20.5196 156.629 20.5196C153.017 20.5196 150.09 23.1761 150.09 26.4531C150.09 29.7302 153.017 32.3867 156.629 32.3867C157.821 32.3867 158.938 32.0974 159.9 31.592Z" fill="black"/>
<path d="M159.9 31.592L160.365 30.7067L162.051 31.592L160.365 32.4773L159.9 31.592ZM159.9 21.3142L160.365 20.4289L162.05 21.3142L160.365 22.1995L159.9 21.3142ZM157.632 26.453C157.632 28.2281 158.695 29.8293 160.365 30.7067L159.435 32.4773C157.198 31.3025 155.632 29.0694 155.632 26.453L157.632 26.453ZM160.365 22.1995C158.694 23.0769 157.632 24.6781 157.632 26.453L155.632 26.453C155.632 23.8368 157.198 21.6038 159.435 20.4289L160.365 22.1995ZM159.435 22.1995C158.616 21.7693 157.658 21.5196 156.629 21.5196L156.629 19.5196C157.983 19.5196 159.26 19.8484 160.365 20.4289L159.435 22.1995ZM156.629 21.5196C153.476 21.5196 151.09 23.8176 151.09 26.4531L149.09 26.4531C149.09 22.5346 152.559 19.5196 156.629 19.5196L156.629 21.5196ZM151.09 26.4531C151.09 29.0887 153.476 31.3867 156.629 31.3867L156.629 33.3867C152.559 33.3867 149.09 30.3717 149.09 26.4531L151.09 26.4531ZM156.629 31.3867C157.658 31.3867 158.616 31.137 159.435 30.7067L160.365 32.4773C159.26 33.0579 157.983 33.3867 156.629 33.3867L156.629 31.3867Z" fill="url(#paint4_linear_126_31013)" mask="url(#path-6-inside-2_126_31013)"/>
<path d="M247.92 189.809L244.783 188.168L245.187 187.397L249.2 189.497L238.795 209.379L237.918 208.92L247.92 189.809ZM251.99 216.725C250.094 215.732 248.598 214.363 247.504 212.616C246.418 210.852 245.827 208.94 245.731 206.88C245.662 204.813 246.114 202.848 247.088 200.988C248.034 199.18 249.38 197.729 251.127 196.634C252.892 195.549 254.803 194.958 256.863 194.862C258.949 194.757 260.914 195.187 262.757 196.152C264.617 197.125 266.09 198.495 267.176 200.259C268.271 202.006 268.866 203.909 268.962 205.968C269.076 208.037 268.646 210.001 267.672 211.862C266.708 213.705 265.352 215.174 263.605 216.269C261.868 217.346 259.965 217.941 257.896 218.055C255.837 218.151 253.868 217.708 251.99 216.725ZM252.393 215.954C254.094 216.844 255.885 217.24 257.766 217.14C259.673 217.032 261.432 216.474 263.043 215.467C264.654 214.459 265.91 213.095 266.809 211.376C267.699 209.675 268.099 207.876 268.009 205.977C267.929 204.062 267.384 202.298 266.376 200.687C265.395 199.068 264.054 197.813 262.353 196.923C260.652 196.032 258.848 195.641 256.94 195.749C255.06 195.848 253.309 196.411 251.689 197.436C250.078 198.444 248.828 199.799 247.937 201.5C247.038 203.219 246.633 205.027 246.723 206.926C246.813 208.824 247.349 210.583 248.33 212.202C249.338 213.813 250.692 215.064 252.393 215.954Z" fill="url(#paint5_linear_126_31013)"/>
<path d="M134.556 262.844H131.016V261.974H135.546V284.414H134.556V262.844ZM147.373 284.714C146.113 284.714 144.903 284.444 143.743 283.904C142.603 283.344 141.623 282.584 140.803 281.624C139.983 280.644 139.433 279.554 139.153 278.354H140.083C140.563 279.974 141.483 281.304 142.843 282.344C144.203 283.364 145.713 283.874 147.373 283.874C148.753 283.874 150.023 283.534 151.183 282.854C152.343 282.154 153.263 281.224 153.943 280.064C154.623 278.884 154.963 277.604 154.963 276.224C154.963 274.844 154.643 273.564 154.003 272.384C153.383 271.204 152.533 270.274 151.453 269.594C150.393 268.894 149.233 268.544 147.973 268.544C146.753 268.544 145.613 268.844 144.553 269.444C143.493 270.044 142.553 270.874 141.733 271.934H140.683L141.733 261.914H153.433V262.784H142.543L141.733 270.494C142.513 269.594 143.443 268.904 144.523 268.424C145.603 267.944 146.753 267.704 147.973 267.704C149.433 267.704 150.763 268.094 151.963 268.874C153.183 269.634 154.143 270.664 154.843 271.964C155.563 273.264 155.923 274.684 155.923 276.224C155.923 277.764 155.533 279.184 154.753 280.484C153.993 281.784 152.953 282.814 151.633 283.574C150.333 284.334 148.913 284.714 147.373 284.714Z" fill="url(#paint6_linear_126_31013)"/>
<path d="M35.7324 207.883C36.7124 206.054 37.2548 204.406 37.3596 202.94C37.4718 201.446 37.1251 199.997 36.3195 198.591C35.6433 197.411 34.7614 196.476 33.674 195.785C32.5866 195.094 31.3966 194.727 30.1041 194.684C28.8289 194.632 27.5841 194.953 26.3694 195.649C25.1374 196.355 24.1885 197.314 23.5228 198.526C22.8744 199.727 22.5585 201.026 22.5752 202.423C22.5919 203.819 22.9682 205.16 23.7041 206.444L22.8452 206.936C22.0198 205.496 21.5986 203.997 21.5817 202.439C21.5648 200.881 21.9351 199.436 22.6924 198.103C23.4498 196.769 24.5313 195.7 25.9368 194.895C27.3076 194.109 28.7199 193.737 30.1736 193.78C31.6274 193.823 32.9675 194.231 34.1939 195.003C35.4377 195.765 36.4376 196.806 37.1934 198.125C38.8144 200.953 38.6512 204.228 36.7037 207.949L32.2197 216.535L43.8282 209.882L44.2609 210.637L29.9454 218.842L35.7324 207.883ZM56.9149 203.834C55.0583 204.898 53.0992 205.422 51.0377 205.404C48.9663 205.37 47.0369 204.839 45.2494 203.812C43.4694 202.757 42.0573 201.319 41.0131 199.497C39.9987 197.727 39.5001 195.812 39.5173 193.75C39.5518 191.679 40.0827 189.749 41.1099 187.962C42.1445 186.147 43.5641 184.723 45.3687 183.688C47.1907 182.644 49.1374 182.139 51.2088 182.174C53.2703 182.191 55.1947 182.713 56.9821 183.74C58.7869 184.758 60.2114 186.177 61.2556 187.999C62.2899 189.804 62.7985 191.737 62.7813 193.798C62.7541 195.842 62.232 197.767 61.2147 199.572C60.1875 201.359 58.7543 202.78 56.9149 203.834ZM56.4823 203.079C58.1481 202.124 59.4451 200.828 60.3733 199.189C61.3088 197.524 61.7853 195.741 61.8027 193.84C61.8201 191.94 61.3465 190.149 60.3818 188.465C59.4271 186.8 58.1255 185.494 56.4771 184.548C54.8188 183.586 53.0395 183.095 51.1392 183.078C49.2464 183.033 47.4671 183.488 45.8013 184.443C44.1355 185.398 42.8348 186.708 41.8993 188.374C40.9711 190.012 40.5033 191.79 40.4958 193.708C40.4784 195.608 40.9471 197.391 41.9018 199.057C42.8665 200.74 44.173 202.054 45.8214 203C47.4698 203.945 49.2404 204.441 51.1333 204.485C53.0335 204.503 54.8165 204.034 56.4823 203.079Z" fill="url(#paint7_linear_126_31013)"/>
<path d="M34.6538 91.3163C36.7293 91.3197 38.4385 91.0224 39.7814 90.4246C41.1519 89.8205 42.2675 88.8322 43.1283 87.4598C43.851 86.3077 44.261 85.0894 44.3585 83.8048C44.4559 82.5203 44.2194 81.2977 43.6488 80.1371C43.0952 78.9872 42.2254 78.0403 41.0394 77.2964C39.8365 76.5419 38.5439 76.1561 37.1617 76.139C35.7964 76.1326 34.5016 76.4655 33.2773 77.1377C32.053 77.8099 31.0476 78.7729 30.2612 80.0267L29.4225 79.5006C30.3046 78.0944 31.4289 77.0171 32.7953 76.2688C34.1618 75.5205 35.6114 75.1667 37.1441 75.2073C38.6768 75.2479 40.1293 75.6986 41.5017 76.5594C42.8402 77.3989 43.8328 78.4701 44.4794 79.7728C45.126 81.0755 45.3973 82.4497 45.2932 83.8954C45.2061 85.3517 44.7587 86.7236 43.951 88.0113C42.2188 90.773 39.2528 92.1706 35.0531 92.2042L25.3666 92.2904L36.7015 99.4L36.2392 100.137L22.2613 91.3696L34.6538 91.3163ZM45.476 106.285C44.4086 105.615 43.527 104.744 42.8313 103.67C42.1631 102.59 41.7367 101.425 41.5521 100.176C41.3782 98.9101 41.4914 97.6945 41.8919 96.5291L42.6797 97.0233C42.2256 98.6507 42.2982 100.266 42.8977 101.87C43.5079 103.457 44.5161 104.691 45.9223 105.573C47.0914 106.306 48.348 106.693 49.692 106.733C51.0466 106.757 52.3201 106.458 53.5126 105.836C54.7156 105.198 55.6838 104.294 56.4171 103.125C57.1504 101.956 57.5594 100.702 57.6442 99.3623C57.746 98.0332 57.5201 96.7937 56.9665 95.6438C56.4405 94.4875 55.6437 93.5746 54.5763 92.9051C53.5428 92.2569 52.4176 91.9053 51.2009 91.8503C49.9841 91.7954 48.7467 91.999 47.4888 92.4613L46.5993 91.9034L52.813 83.9729L62.7246 90.1897L62.2624 90.9268L53.0369 85.1403L48.254 91.2414C49.393 90.8934 50.5475 90.8031 51.7174 90.9703C52.8874 91.1375 53.9891 91.5453 55.0227 92.1935C56.2595 92.9693 57.179 94.0064 57.7811 95.3048C58.4108 96.5969 58.6768 97.9796 58.579 99.4528C58.4982 100.937 58.0486 102.331 57.2303 103.636C56.4121 104.94 55.3271 105.936 53.9756 106.623C52.641 107.32 51.2127 107.64 49.6906 107.583C48.1855 107.536 46.7806 107.103 45.476 106.285Z" fill="url(#paint8_linear_126_31013)"/>
<path d="M257.255 98.7141C255.995 98.7141 254.785 98.4441 253.625 97.9041C252.485 97.3441 251.505 96.5841 250.685 95.6241C249.865 94.6441 249.315 93.5541 249.035 92.3541H249.965C250.445 93.9741 251.365 95.3041 252.725 96.3441C254.085 97.3641 255.595 97.8741 257.255 97.8741C258.635 97.8741 259.905 97.5341 261.065 96.8541C262.225 96.1541 263.145 95.2241 263.825 94.0641C264.505 92.8841 264.845 91.6041 264.845 90.2241C264.845 88.8441 264.525 87.5641 263.885 86.3841C263.265 85.2041 262.415 84.2741 261.335 83.5941C260.275 82.8941 259.115 82.5441 257.855 82.5441C256.635 82.5441 255.495 82.8441 254.435 83.4441C253.375 84.0441 252.435 84.8741 251.615 85.9341H250.565L251.615 75.9141H263.315V76.7841H252.425L251.615 84.4941C252.395 83.5941 253.325 82.9041 254.405 82.4241C255.485 81.9441 256.635 81.7041 257.855 81.7041C259.315 81.7041 260.645 82.0941 261.845 82.8741C263.065 83.6341 264.025 84.6641 264.725 85.9641C265.445 87.2641 265.805 88.6841 265.805 90.2241C265.805 91.7641 265.415 93.1841 264.635 94.4841C263.875 95.7841 262.835 96.8141 261.515 97.5741C260.215 98.3341 258.795 98.7141 257.255 98.7141Z" fill="url(#paint9_linear_126_31013)"/>
<defs>
<linearGradient id="paint0_linear_126_31013" x1="138.502" y1="6.41406" x2="138.502" y2="34.2527" gradientUnits="userSpaceOnUse">
<stop stop-color="#DCBF87"/>
<stop offset="1" stop-color="#68552C"/>
</linearGradient>
<linearGradient id="paint1_linear_126_31013" x1="155.005" y1="6.48437" x2="155.005" y2="18.2512" gradientUnits="userSpaceOnUse">
<stop stop-color="#E5C68C"/>
<stop offset="1" stop-color="#7F6E4E"/>
</linearGradient>
<linearGradient id="paint2_linear_126_31013" x1="140.224" y1="20.6914" x2="140.224" y2="32.53" gradientUnits="userSpaceOnUse">
<stop stop-color="#E5C68C"/>
<stop offset="1" stop-color="#7F6E4E"/>
</linearGradient>
<linearGradient id="paint3_linear_126_31013" x1="140.108" y1="18.8984" x2="140.108" y2="6.77286" gradientUnits="userSpaceOnUse">
<stop stop-color="#E5C68C"/>
<stop offset="1" stop-color="#7F6E4E"/>
</linearGradient>
<linearGradient id="paint4_linear_126_31013" x1="154.995" y1="32.3867" x2="154.995" y2="20.5196" gradientUnits="userSpaceOnUse">
<stop stop-color="#E5C68C"/>
<stop offset="1" stop-color="#7F6E4E"/>
</linearGradient>
<linearGradient id="paint5_linear_126_31013" x1="255.481" y1="185.38" x2="269.718" y2="196.001" gradientUnits="userSpaceOnUse">
<stop stop-color="#ECC271"/>
<stop offset="1" stop-color="#7F642E"/>
</linearGradient>
<linearGradient id="paint6_linear_126_31013" x1="135.695" y1="255.414" x2="154.085" y2="258.509" gradientUnits="userSpaceOnUse">
<stop stop-color="#ECC271"/>
<stop offset="1" stop-color="#7F642E"/>
</linearGradient>
<linearGradient id="paint7_linear_126_31013" x1="23.7436" y1="188.971" x2="49.1552" y2="182.067" gradientUnits="userSpaceOnUse">
<stop stop-color="#ECC271"/>
<stop offset="1" stop-color="#7F642E"/>
</linearGradient>
<linearGradient id="paint8_linear_126_31013" x1="44.0851" y1="70.8256" x2="61.0026" y2="87.6324" gradientUnits="userSpaceOnUse">
<stop stop-color="#ECC271"/>
<stop offset="1" stop-color="#7F642E"/>
</linearGradient>
<linearGradient id="paint9_linear_126_31013" x1="249.395" y1="69.414" x2="267.393" y2="72.2674" gradientUnits="userSpaceOnUse">
<stop stop-color="#ECC271"/>
<stop offset="1" stop-color="#7F642E"/>
</linearGradient>
</defs>
</svg>
