<svg width="290" height="290" viewBox="0 0 290 290" fill="none" xmlns="http://www.w3.org/2000/svg">
<path d="M136.935 31.8386C135.363 31.8386 133.978 31.6266 132.78 31.2025C131.607 30.7535 130.684 30.1548 130.011 29.4065C129.337 28.6332 129 27.7601 129 26.7872C129 25.9641 129.225 25.3155 129.674 24.8415C130.148 24.3426 130.734 24.0932 131.433 24.0932C131.882 24.0932 132.281 24.193 132.63 24.3925C133.005 24.5671 133.292 24.8291 133.491 25.1783C133.716 25.5026 133.828 25.8892 133.828 26.3382C133.828 26.7373 133.741 27.0492 133.566 27.2737C133.416 27.4982 133.242 27.6853 133.042 27.8349C132.843 27.9846 132.655 28.1343 132.481 28.2839C132.331 28.4087 132.256 28.6082 132.256 28.8826C132.256 29.3316 132.493 29.6933 132.967 29.9677C133.466 30.2172 134.04 30.4043 134.689 30.529C135.363 30.6537 135.962 30.7161 136.486 30.7161C138.232 30.7161 139.567 30.1299 140.49 28.9574C141.439 27.785 141.913 26.1012 141.913 23.9061C141.913 21.8357 141.439 20.2516 140.49 19.1541C139.542 18.0565 137.958 17.5077 135.737 17.5077L139.405 16.6471C140.952 16.8217 142.299 17.2583 143.447 17.9567C144.62 18.6302 145.531 19.4784 146.179 20.5011C146.828 21.5238 147.152 22.6588 147.152 23.9061C147.152 25.2531 146.741 26.5378 145.917 27.7601C145.119 28.9574 143.959 29.9428 142.437 30.7161C140.915 31.4644 139.081 31.8386 136.935 31.8386ZM134.898 17.5077V15.6677H139.405V17.5077H134.898ZM137.197 16.7968L135.026 16.3852C137.047 16.3852 138.494 15.8239 139.368 14.7014C140.241 13.5539 140.677 11.9824 140.677 9.98679C140.677 8.7146 140.515 7.72927 140.191 7.03081C139.891 6.33236 139.442 5.84593 138.844 5.57153C138.27 5.27219 137.571 5.12253 136.748 5.12253C135.824 5.12253 135.051 5.25972 134.427 5.53412C133.803 5.80851 133.491 6.18269 133.491 6.65664C133.491 6.93104 133.591 7.15554 133.791 7.33016C133.99 7.50477 134.19 7.7168 134.39 7.96625C134.589 8.19076 134.689 8.53999 134.689 9.01394C134.689 9.66251 134.477 10.1489 134.053 10.4732C133.629 10.7726 133.167 10.9222 132.668 10.9222C132.044 10.9222 131.508 10.6977 131.059 10.2487C130.634 9.79971 130.422 9.25092 130.422 8.60235C130.422 7.87895 130.697 7.16801 131.246 6.46955C131.82 5.77109 132.643 5.18489 133.716 4.71093C134.789 4.23698 136.086 4 137.608 4C139.28 4 140.702 4.28687 141.875 4.8606C143.073 5.43434 143.984 6.18269 144.607 7.10565C145.231 8.02861 145.543 9.01394 145.543 10.0616C145.543 11.1842 145.194 12.2318 144.495 13.2047C143.821 14.1526 142.861 14.9508 141.613 15.5994C140.366 16.223 138.893 16.6222 137.197 16.7968Z" fill="url(#paint0_linear_126_31108)"/>
<path d="M160.5 9.95373C160.5 12.8866 157.891 15.3371 154.579 15.3371C151.266 15.3371 148.657 12.8866 148.657 9.95373C148.657 7.02084 151.266 4.57031 154.579 4.57031C157.891 4.57031 160.5 7.02084 160.5 9.95373Z" fill="black" stroke="url(#paint1_linear_126_31108)"/>
<path d="M133.877 24.1966C133.877 27.1521 136.489 29.6159 139.798 29.6159C143.108 29.6159 145.72 27.1521 145.72 24.1966C145.72 21.2412 143.108 18.7773 139.798 18.7773C136.489 18.7773 133.877 21.2412 133.877 24.1966Z" fill="black" stroke="url(#paint2_linear_126_31108)"/>
<mask id="path-4-inside-1_126_31108" fill="white">
<path fill-rule="evenodd" clip-rule="evenodd" d="M134.891 15.6579C136.811 14.6243 138.099 12.724 138.099 10.5508C138.099 8.28884 136.704 6.3225 134.652 5.32138C135.67 4.71224 136.883 4.3588 138.184 4.3588C141.79 4.3588 144.713 7.0732 144.713 10.4216C144.713 13.77 141.79 16.4844 138.184 16.4844C136.983 16.4844 135.857 16.1833 134.891 15.6579Z"/>
</mask>
<path fill-rule="evenodd" clip-rule="evenodd" d="M134.891 15.6579C136.811 14.6243 138.099 12.724 138.099 10.5508C138.099 8.28884 136.704 6.3225 134.652 5.32138C135.67 4.71224 136.883 4.3588 138.184 4.3588C141.79 4.3588 144.713 7.0732 144.713 10.4216C144.713 13.77 141.79 16.4844 138.184 16.4844C136.983 16.4844 135.857 16.1833 134.891 15.6579Z" fill="black"/>
<path d="M134.891 15.6579L134.417 14.7773L132.789 15.6536L134.413 16.5365L134.891 15.6579ZM134.652 5.32138L134.139 4.46324L132.555 5.41078L134.214 6.2201L134.652 5.32138ZM137.099 10.5508C137.099 12.3078 136.058 13.894 134.417 14.7773L135.365 16.5385C137.564 15.3545 139.099 13.1401 139.099 10.5508L137.099 10.5508ZM134.214 6.2201C135.971 7.07754 137.099 8.72284 137.099 10.5508L139.099 10.5508C139.099 7.85484 137.437 5.56747 135.091 4.42265L134.214 6.2201ZM135.166 6.17952C136.03 5.66249 137.065 5.3588 138.184 5.3588L138.184 3.3588C136.7 3.3588 135.311 3.762 134.139 4.46324L135.166 6.17952ZM138.184 5.3588C141.308 5.3588 143.713 7.69399 143.713 10.4216L145.713 10.4216C145.713 6.45242 142.271 3.3588 138.184 3.3588L138.184 5.3588ZM143.713 10.4216C143.713 13.1492 141.308 15.4844 138.184 15.4844L138.184 17.4844C142.271 17.4844 145.713 14.3908 145.713 10.4216L143.713 10.4216ZM138.184 15.4844C137.151 15.4844 136.19 15.2256 135.368 14.7792L134.413 16.5365C135.525 17.1409 136.815 17.4844 138.184 17.4844L138.184 15.4844Z" fill="url(#paint3_linear_126_31108)" mask="url(#path-4-inside-1_126_31108)"/>
<mask id="path-6-inside-2_126_31108" fill="white">
<path fill-rule="evenodd" clip-rule="evenodd" d="M159.474 29.1779C157.521 28.1518 156.206 26.2347 156.206 24.039C156.206 21.8434 157.521 19.9263 159.474 18.9001C158.512 18.3948 157.395 18.1055 156.203 18.1055C152.592 18.1055 149.664 20.7621 149.664 24.0391C149.664 27.3161 152.592 29.9727 156.203 29.9727C157.395 29.9727 158.512 29.6834 159.474 29.1779Z"/>
</mask>
<path fill-rule="evenodd" clip-rule="evenodd" d="M159.474 29.1779C157.521 28.1518 156.206 26.2347 156.206 24.039C156.206 21.8434 157.521 19.9263 159.474 18.9001C158.512 18.3948 157.395 18.1055 156.203 18.1055C152.592 18.1055 149.664 20.7621 149.664 24.0391C149.664 27.3161 152.592 29.9727 156.203 29.9727C157.395 29.9727 158.512 29.6834 159.474 29.1779Z" fill="black"/>
<path d="M159.474 29.1779L159.939 28.2926L161.625 29.1779L159.939 30.0632L159.474 29.1779ZM159.474 18.9001L159.939 18.0148L161.625 18.9001L159.939 19.7854L159.474 18.9001ZM157.206 24.039C157.206 25.814 158.269 27.4152 159.939 28.2926L159.009 30.0633C156.773 28.8884 155.206 26.6553 155.206 24.039L157.206 24.039ZM159.939 19.7854C158.269 20.6629 157.206 22.264 157.206 24.039L155.206 24.039C155.206 21.4227 156.772 19.1897 159.009 18.0148L159.939 19.7854ZM159.009 19.7854C158.19 19.3552 157.232 19.1055 156.203 19.1055L156.203 17.1055C157.557 17.1055 158.834 17.4343 159.939 18.0148L159.009 19.7854ZM156.203 19.1055C153.05 19.1055 150.664 21.4036 150.664 24.0391L148.664 24.0391C148.664 20.1206 152.133 17.1055 156.203 17.1055L156.203 19.1055ZM150.664 24.0391C150.664 26.6746 153.05 28.9727 156.203 28.9727L156.203 30.9727C152.133 30.9727 148.664 27.9576 148.664 24.0391L150.664 24.0391ZM156.203 28.9727C157.232 28.9727 158.19 28.7229 159.009 28.2926L159.939 30.0632C158.834 30.6438 157.557 30.9727 156.203 30.9727L156.203 28.9727Z" fill="url(#paint4_linear_126_31108)" mask="url(#path-6-inside-2_126_31108)"/>
<path d="M242.868 205.024L248.799 193.69L245.926 192.451L246.79 190.409L253.118 192.84L245.909 206.616L242.868 205.024ZM253.819 210.755C252.743 210.193 251.979 209.597 251.526 208.968C251.072 208.34 250.876 207.65 250.936 206.899C251.012 206.156 251.287 205.332 251.761 204.426L254.546 199.104C255.012 198.214 255.525 197.533 256.084 197.063C256.651 196.577 257.322 196.341 258.097 196.356C258.88 196.355 259.817 196.639 260.907 197.21L266.229 199.995C267.304 200.557 268.056 201.157 268.486 201.793C268.94 202.421 269.129 203.107 269.053 203.85C269.001 204.586 268.741 205.399 268.275 206.289L265.49 211.611C264.783 212.962 263.945 213.834 262.977 214.227C262.016 214.605 260.737 214.376 259.14 213.54L253.819 210.755ZM255.644 208.893L259.652 210.991C260.22 211.288 260.734 211.372 261.194 211.241C261.67 211.118 262.04 210.803 262.305 210.296L265.379 204.422C265.612 203.976 265.648 203.516 265.486 203.04C265.332 202.548 264.979 202.158 264.426 201.869L260.418 199.771C259.865 199.482 259.343 199.395 258.853 199.51C258.362 199.625 257.988 199.928 257.731 200.419L254.657 206.293C254.384 206.816 254.332 207.307 254.502 207.767C254.695 208.221 255.076 208.596 255.644 208.893Z" fill="url(#paint5_linear_126_31108)"/>
<path d="M134.636 281V268.208L131.516 268.442L131.334 266.232L138.068 265.452V281H134.636ZM146.242 281C145.081 281 144.154 280.948 143.46 280.844C142.767 280.74 142.247 280.627 141.9 280.506C141.571 280.367 141.337 280.272 141.198 280.22L142.212 278.218C142.594 278.253 143.504 278.313 144.942 278.4C146.381 278.469 148.539 278.504 151.416 278.504C152.179 278.504 152.708 278.339 153.002 278.01C153.297 277.663 153.444 277.213 153.444 276.658V275.67C153.444 275.167 153.297 274.734 153.002 274.37C152.725 274.006 152.188 273.824 151.39 273.824H144.058L141.978 274.084V265.712H153.73C154.597 265.712 155.212 265.747 155.576 265.816C155.94 265.885 156.122 265.955 156.122 266.024L155.602 268.208H145.41V271.77C145.636 271.735 146.086 271.692 146.762 271.64C147.456 271.588 148.392 271.562 149.57 271.562H151.624C153.566 271.562 154.926 271.917 155.706 272.628C156.486 273.321 156.876 274.361 156.876 275.748V276.346C156.876 276.883 156.833 277.429 156.746 277.984C156.66 278.521 156.469 279.024 156.174 279.492C155.88 279.943 155.412 280.307 154.77 280.584C154.129 280.861 153.254 281 152.144 281H146.242Z" fill="url(#paint6_linear_126_31108)"/>
<path d="M28.2378 214.1L26.9837 211.912C27.1446 211.6 27.3859 211.132 27.7075 210.509C28.0443 209.876 28.4121 209.176 28.811 208.408C29.2249 207.631 29.6421 206.843 30.0624 206.042C30.4742 205.227 30.8505 204.472 31.1915 203.777C31.5388 203.058 31.8047 202.477 31.989 202.031C32.2548 201.379 32.3787 200.829 32.361 200.38C32.3496 199.907 32.2448 199.497 32.0466 199.151L31.788 198.7C31.5725 198.324 31.2454 198.102 30.8068 198.034C30.3681 197.966 29.8029 198.13 29.1111 198.526L28.4344 198.914C27.5621 199.414 26.7071 199.944 25.8694 200.504C25.0316 201.064 24.2884 201.58 23.6397 202.052C22.9975 202.5 22.5239 202.841 22.2189 203.076L20.8168 201.152C21.1948 200.836 21.7264 200.421 22.4115 199.909C23.0967 199.396 23.9033 198.834 24.8313 198.222C25.7592 197.61 26.7496 197.003 27.8023 196.399L28.4339 196.037C29.3813 195.494 30.2054 195.172 30.9062 195.07C31.5983 194.953 32.1939 194.981 32.6929 195.155C33.2069 195.32 33.6372 195.583 33.9838 195.943C34.3218 196.289 34.6029 196.657 34.827 197.048L35.0985 197.522C35.5553 198.319 35.736 199.244 35.6406 200.298C35.5516 201.328 35.1135 202.498 34.3261 203.808C33.4594 205.224 32.7278 206.423 32.1314 207.404C31.5413 208.361 31.1187 209.053 30.8634 209.479L30.9668 209.659L39.9899 204.488L41.2311 206.654L28.2378 214.1ZM47.6091 202.998C46.5564 203.601 45.6431 203.925 44.8692 203.969C44.0952 204.013 43.4081 203.808 42.8077 203.353C42.2223 202.889 41.6753 202.213 41.1668 201.326L38.1803 196.115C37.6804 195.243 37.3827 194.445 37.2871 193.72C37.183 192.981 37.3455 192.288 37.7747 191.643C38.1952 190.982 38.9393 190.346 40.0071 189.734L45.2179 186.748C46.2706 186.144 47.1807 185.832 47.9482 185.812C48.7221 185.768 49.4018 185.978 49.9871 186.442C50.5789 186.882 51.1248 187.538 51.6247 188.41L54.6112 193.621C55.3697 194.944 55.6539 196.12 55.4639 197.148C55.2652 198.161 54.3839 199.115 52.8199 200.012L47.6091 202.998ZM47.0221 200.458L50.9472 198.208C51.5036 197.889 51.8503 197.501 51.9873 197.042C52.1393 196.576 52.0732 196.094 51.7887 195.598L48.4919 189.846C48.242 189.41 47.8729 189.132 47.3847 189.012C46.8879 188.877 46.3688 188.965 45.8274 189.275L41.9024 191.525C41.361 191.835 41.0068 192.228 40.8397 192.703C40.6726 193.179 40.727 193.657 41.0028 194.138L44.2996 199.89C44.5926 200.402 44.9789 200.71 45.4585 200.814C45.9445 200.895 46.4657 200.777 47.0221 200.458Z" fill="url(#paint7_linear_126_31108)"/>
<path d="M24.6956 84.9214L26.0357 82.7849C26.3866 82.7799 26.913 82.7725 27.6149 82.7626C28.3315 82.7619 29.1225 82.7568 29.9879 82.7471C30.8679 82.7467 31.76 82.7435 32.6639 82.7376C33.5771 82.717 34.4205 82.6936 35.1941 82.6673C35.9915 82.6355 36.6301 82.5961 37.1097 82.5491C37.8098 82.4767 38.3539 82.3269 38.7419 82.0997C39.1539 81.867 39.4658 81.5818 39.6776 81.2441L39.9539 80.8036C40.1842 80.4365 40.2261 80.0433 40.0798 79.6242C39.9335 79.2051 39.5226 78.7836 38.8471 78.36L38.1864 77.9455C37.3347 77.4113 36.4646 76.9065 35.5761 76.4311C34.6876 75.9556 33.8826 75.5427 33.1611 75.1925C32.4635 74.8368 31.9393 74.5796 31.5886 74.4211L32.6256 72.2786C33.0828 72.463 33.6988 72.7368 34.4735 73.1C35.2483 73.4632 36.124 73.9102 37.1006 74.4409C38.0772 74.9716 39.0795 75.5593 40.1073 76.204L40.7241 76.5909C41.6491 77.1711 42.3216 77.7464 42.7414 78.3166C43.1705 78.8722 43.4259 79.4109 43.5078 79.9328C43.6043 80.464 43.575 80.9674 43.4199 81.443C43.274 81.9039 43.0814 82.3253 42.8419 82.7071L42.5518 83.1696C42.0636 83.9479 41.3323 84.5429 40.3579 84.9547C39.4073 85.3611 38.1687 85.5254 36.642 85.4476C34.9849 85.3494 33.5832 85.2682 32.4368 85.2039C31.3143 85.1341 30.505 85.0869 30.009 85.0622L29.8984 85.2384L38.7088 90.7645L37.3825 92.879L24.6956 84.9214ZM42.9714 96.3845C41.9876 95.7674 41.2296 95.2306 40.6975 94.7741C40.1654 94.3176 39.7848 93.9459 39.5556 93.6589C39.3503 93.3664 39.2027 93.1613 39.1128 93.0436L41.0356 91.8864C41.3402 92.1184 42.0789 92.6533 43.2516 93.4912C44.4336 94.3143 46.2433 95.4904 48.6808 97.0193C49.3269 97.4245 49.8623 97.5659 50.2869 97.4435C50.7207 97.3064 51.085 97.0029 51.3797 96.533L51.9047 95.696C52.1718 95.2702 52.2772 94.8248 52.221 94.3599C52.1795 93.9041 51.821 93.4644 51.1455 93.0408L44.9342 89.1449L43.034 88.2599L47.4825 81.1676L57.4382 87.4121C58.1724 87.8726 58.6753 88.2289 58.9468 88.4811C59.2183 88.7332 59.3357 88.8887 59.2988 88.9474L57.6978 90.5213L49.0637 85.1057L47.171 88.1232C47.3803 88.2136 47.7851 88.4163 48.3854 88.7315C49.0004 89.0558 49.8071 89.5312 50.8056 90.1575L52.5457 91.2489C54.1903 92.2804 55.1542 93.3044 55.4373 94.3209C55.7297 95.3227 55.5075 96.411 54.7707 97.5857L54.4529 98.0923C54.1674 98.5475 53.8406 98.987 53.4724 99.4109C53.1135 99.82 52.6849 100.145 52.1866 100.384C51.6975 100.61 51.1076 100.669 50.4169 100.563C49.7263 100.458 48.911 100.11 47.9713 99.5206L42.9714 96.3845Z" fill="url(#paint8_linear_126_31108)"/>
<path d="M255.07 90C253.909 90 252.982 89.948 252.288 89.844C251.595 89.74 251.075 89.6273 250.728 89.506C250.399 89.3673 250.165 89.272 250.026 89.22L251.04 87.218C251.422 87.2527 252.332 87.3133 253.77 87.4C255.209 87.4693 257.367 87.504 260.244 87.504C261.007 87.504 261.536 87.3393 261.83 87.01C262.125 86.6633 262.272 86.2127 262.272 85.658V84.67C262.272 84.1673 262.125 83.734 261.83 83.37C261.553 83.006 261.016 82.824 260.218 82.824H252.886L250.806 83.084V74.712H262.558C263.425 74.712 264.04 74.7467 264.404 74.816C264.768 74.8853 264.95 74.9547 264.95 75.024L264.43 77.208H254.238V80.77C254.464 80.7353 254.914 80.692 255.59 80.64C256.284 80.588 257.22 80.562 258.398 80.562H260.452C262.394 80.562 263.754 80.9173 264.534 81.628C265.314 82.3213 265.704 83.3613 265.704 84.748V85.346C265.704 85.8833 265.661 86.4293 265.574 86.984C265.488 87.5213 265.297 88.024 265.002 88.492C264.708 88.9427 264.24 89.3067 263.598 89.584C262.957 89.8613 262.082 90 260.972 90H255.07Z" fill="url(#paint9_linear_126_31108)"/>
<defs>
<linearGradient id="paint0_linear_126_31108" x1="138.076" y1="4" x2="138.076" y2="31.8386" gradientUnits="userSpaceOnUse">
<stop stop-color="#DCBF87"/>
<stop offset="1" stop-color="#68552C"/>
</linearGradient>
<linearGradient id="paint1_linear_126_31108" x1="154.579" y1="4.07031" x2="154.579" y2="15.8371" gradientUnits="userSpaceOnUse">
<stop stop-color="#E5C68C"/>
<stop offset="1" stop-color="#7F6E4E"/>
</linearGradient>
<linearGradient id="paint2_linear_126_31108" x1="139.798" y1="18.2773" x2="139.798" y2="30.1159" gradientUnits="userSpaceOnUse">
<stop stop-color="#E5C68C"/>
<stop offset="1" stop-color="#7F6E4E"/>
</linearGradient>
<linearGradient id="paint3_linear_126_31108" x1="139.682" y1="16.4844" x2="139.682" y2="4.3588" gradientUnits="userSpaceOnUse">
<stop stop-color="#E5C68C"/>
<stop offset="1" stop-color="#7F6E4E"/>
</linearGradient>
<linearGradient id="paint4_linear_126_31108" x1="154.569" y1="29.9727" x2="154.569" y2="18.1055" gradientUnits="userSpaceOnUse">
<stop stop-color="#E5C68C"/>
<stop offset="1" stop-color="#7F6E4E"/>
</linearGradient>
<linearGradient id="paint5_linear_126_31108" x1="256.054" y1="185.966" x2="270.292" y2="196.587" gradientUnits="userSpaceOnUse">
<stop stop-color="#ECC271"/>
<stop offset="1" stop-color="#7F642E"/>
</linearGradient>
<linearGradient id="paint6_linear_126_31108" x1="136.269" y1="258" x2="154.659" y2="261.095" gradientUnits="userSpaceOnUse">
<stop stop-color="#ECC271"/>
<stop offset="1" stop-color="#7F642E"/>
</linearGradient>
<linearGradient id="paint7_linear_126_31108" x1="21.3178" y1="191.557" x2="46.7294" y2="184.653" gradientUnits="userSpaceOnUse">
<stop stop-color="#ECC271"/>
<stop offset="1" stop-color="#7F642E"/>
</linearGradient>
<linearGradient id="paint8_linear_126_31108" x1="41.6593" y1="68.4116" x2="58.5768" y2="85.2183" gradientUnits="userSpaceOnUse">
<stop stop-color="#ECC271"/>
<stop offset="1" stop-color="#7F642E"/>
</linearGradient>
<linearGradient id="paint9_linear_126_31108" x1="249.97" y1="67" x2="267.967" y2="69.8534" gradientUnits="userSpaceOnUse">
<stop stop-color="#ECC271"/>
<stop offset="1" stop-color="#7F642E"/>
</linearGradient>
</defs>
</svg>
