<svg width="292" height="291" viewBox="0 0 292 291" fill="none" xmlns="http://www.w3.org/2000/svg">
<path d="M137.36 32.2566C135.789 32.2566 134.404 32.0445 133.206 31.6205C132.033 31.1715 131.11 30.5728 130.436 29.8244C129.763 29.0511 129.426 28.1781 129.426 27.2052C129.426 26.382 129.65 25.7334 130.099 25.2595C130.574 24.7606 131.16 24.5111 131.859 24.5111C132.308 24.5111 132.707 24.6109 133.056 24.8105C133.431 24.9851 133.718 25.247 133.917 25.5962C134.142 25.9205 134.254 26.3072 134.254 26.7562C134.254 27.1553 134.167 27.4671 133.992 27.6916C133.842 27.9161 133.668 28.1032 133.468 28.2529C133.268 28.4026 133.081 28.5522 132.907 28.7019C132.757 28.8266 132.682 29.0262 132.682 29.3006C132.682 29.7496 132.919 30.1113 133.393 30.3857C133.892 30.6351 134.466 30.8222 135.115 30.9469C135.789 31.0717 136.387 31.134 136.911 31.134C138.658 31.134 139.993 30.5478 140.916 29.3754C141.864 28.203 142.338 26.5192 142.338 24.3241C142.338 22.2536 141.864 20.6696 140.916 19.572C139.968 18.4745 138.384 17.9257 136.163 17.9257L139.831 17.0651C141.378 17.2397 142.725 17.6762 143.873 18.3747C145.046 19.0482 145.956 19.8963 146.605 20.9191C147.254 21.9418 147.578 23.0768 147.578 24.3241C147.578 25.6711 147.167 26.9558 146.343 28.1781C145.545 29.3754 144.384 30.3607 142.862 31.134C141.34 31.8824 139.506 32.2566 137.36 32.2566ZM135.324 17.9257V16.0857H139.831V17.9257H135.324ZM137.622 17.2147L135.452 16.8031C137.473 16.8031 138.92 16.2419 139.793 15.1194C140.667 13.9719 141.103 12.4004 141.103 10.4048C141.103 9.13257 140.941 8.14724 140.617 7.44878C140.317 6.75032 139.868 6.2639 139.269 5.9895C138.695 5.69016 137.997 5.54049 137.173 5.54049C136.25 5.54049 135.477 5.67769 134.853 5.95209C134.229 6.22648 133.917 6.60066 133.917 7.07461C133.917 7.349 134.017 7.57351 134.217 7.74812C134.416 7.92274 134.616 8.13477 134.815 8.38422C135.015 8.60872 135.115 8.95795 135.115 9.43191C135.115 10.0805 134.903 10.5669 134.479 10.8912C134.054 11.1905 133.593 11.3402 133.094 11.3402C132.47 11.3402 131.933 11.1157 131.484 10.6667C131.06 10.2177 130.848 9.66889 130.848 9.02032C130.848 8.29691 131.123 7.58598 131.671 6.88752C132.245 6.18906 133.069 5.60286 134.142 5.1289C135.215 4.65495 136.512 4.41797 138.034 4.41797C139.706 4.41797 141.128 4.70484 142.301 5.27857C143.499 5.85231 144.409 6.60065 145.033 7.52362C145.657 8.44658 145.969 9.43191 145.969 10.4796C145.969 11.6021 145.62 12.6498 144.921 13.6227C144.247 14.5706 143.287 15.3688 142.039 16.0174C140.791 16.641 139.319 17.0401 137.622 17.2147Z" fill="url(#paint0_linear_126_30954)"/>
<path d="M160.926 10.3756C160.926 13.3085 158.317 15.759 155.005 15.759C151.692 15.759 149.083 13.3085 149.083 10.3756C149.083 7.44271 151.692 4.99219 155.005 4.99219C158.317 4.99219 160.926 7.44271 160.926 10.3756Z" fill="black" stroke="url(#paint1_linear_126_30954)"/>
<path d="M134.302 24.6146C134.302 27.57 136.914 30.0339 140.224 30.0339C143.533 30.0339 146.146 27.57 146.146 24.6146C146.146 21.6592 143.533 19.1953 140.224 19.1953C136.914 19.1953 134.302 21.6592 134.302 24.6146Z" fill="black" stroke="url(#paint2_linear_126_30954)"/>
<mask id="path-4-inside-1_126_30954" fill="white">
<path fill-rule="evenodd" clip-rule="evenodd" d="M135.316 16.0759C137.237 15.0422 138.525 13.1419 138.525 10.9688C138.525 8.70681 137.13 6.74047 135.078 5.73934C136.096 5.13021 137.308 4.77677 138.61 4.77677C142.215 4.77677 145.139 7.49117 145.139 10.8396C145.139 14.1879 142.215 16.9023 138.61 16.9023C137.408 16.9023 136.283 16.6012 135.316 16.0759Z"/>
</mask>
<path fill-rule="evenodd" clip-rule="evenodd" d="M135.316 16.0759C137.237 15.0422 138.525 13.1419 138.525 10.9688C138.525 8.70681 137.13 6.74047 135.078 5.73934C136.096 5.13021 137.308 4.77677 138.61 4.77677C142.215 4.77677 145.139 7.49117 145.139 10.8396C145.139 14.1879 142.215 16.9023 138.61 16.9023C137.408 16.9023 136.283 16.6012 135.316 16.0759Z" fill="black"/>
<path d="M135.316 16.0759L134.843 15.1953L133.214 16.0716L134.839 16.9545L135.316 16.0759ZM135.078 5.73934L134.564 4.8812L132.981 5.82875L134.639 6.63807L135.078 5.73934ZM137.525 10.9688C137.525 12.7258 136.484 14.3119 134.843 15.1953L135.79 16.9564C137.99 15.7725 139.525 13.5581 139.525 10.9688L137.525 10.9688ZM134.639 6.63807C136.397 7.49551 137.525 9.14081 137.525 10.9688L139.525 10.9688C139.525 8.27281 137.863 5.98543 135.516 4.84062L134.639 6.63807ZM135.591 6.59748C136.456 6.08045 137.491 5.77677 138.61 5.77677L138.61 3.77677C137.126 3.77677 135.737 4.17997 134.564 4.8812L135.591 6.59748ZM138.61 5.77677C141.734 5.77677 144.139 8.11196 144.139 10.8396L146.139 10.8396C146.139 6.87039 142.697 3.77677 138.61 3.77677L138.61 5.77677ZM144.139 10.8396C144.139 13.5672 141.734 15.9023 138.61 15.9023L138.61 17.9023C142.697 17.9023 146.139 14.8087 146.139 10.8396L144.139 10.8396ZM138.61 15.9023C137.577 15.9023 136.615 15.6436 135.794 15.1972L134.839 16.9545C135.951 17.5589 137.24 17.9023 138.61 17.9023L138.61 15.9023Z" fill="url(#paint3_linear_126_30954)" mask="url(#path-4-inside-1_126_30954)"/>
<mask id="path-6-inside-2_126_30954" fill="white">
<path fill-rule="evenodd" clip-rule="evenodd" d="M159.9 29.5959C157.946 28.5698 156.632 26.6526 156.632 24.457C156.632 22.2613 157.946 20.3443 159.9 19.3181C158.938 18.8127 157.821 18.5235 156.629 18.5235C153.017 18.5235 150.09 21.18 150.09 24.4571C150.09 27.7341 153.017 30.3906 156.629 30.3906C157.821 30.3906 158.938 30.1013 159.9 29.5959Z"/>
</mask>
<path fill-rule="evenodd" clip-rule="evenodd" d="M159.9 29.5959C157.946 28.5698 156.632 26.6526 156.632 24.457C156.632 22.2613 157.946 20.3443 159.9 19.3181C158.938 18.8127 157.821 18.5235 156.629 18.5235C153.017 18.5235 150.09 21.18 150.09 24.4571C150.09 27.7341 153.017 30.3906 156.629 30.3906C157.821 30.3906 158.938 30.1013 159.9 29.5959Z" fill="black"/>
<path d="M159.9 29.5959L160.365 28.7106L162.051 29.5959L160.365 30.4812L159.9 29.5959ZM159.9 19.3181L160.365 18.4328L162.05 19.3181L160.365 20.2034L159.9 19.3181ZM157.632 24.457C157.632 26.232 158.695 27.8332 160.365 28.7106L159.435 30.4812C157.198 29.3064 155.632 27.0733 155.632 24.457L157.632 24.457ZM160.365 20.2034C158.694 21.0808 157.632 22.682 157.632 24.457L155.632 24.457C155.632 21.8407 157.198 19.6077 159.435 18.4328L160.365 20.2034ZM159.435 20.2034C158.616 19.7732 157.658 19.5235 156.629 19.5235L156.629 17.5235C157.983 17.5235 159.26 17.8523 160.365 18.4328L159.435 20.2034ZM156.629 19.5235C153.476 19.5235 151.09 21.8215 151.09 24.4571L149.09 24.4571C149.09 20.5385 152.559 17.5235 156.629 17.5235L156.629 19.5235ZM151.09 24.4571C151.09 27.0926 153.476 29.3906 156.629 29.3906L156.629 31.3906C152.559 31.3906 149.09 28.3756 149.09 24.4571L151.09 24.4571ZM156.629 29.3906C157.658 29.3906 158.616 29.1409 159.435 28.7106L160.365 30.4812C159.26 31.0618 157.983 31.3906 156.629 31.3906L156.629 29.3906Z" fill="url(#paint4_linear_126_30954)" mask="url(#path-6-inside-2_126_30954)"/>
<path d="M241.253 206.574C241.38 206.44 241.524 206.267 241.683 206.054C241.85 205.845 242.038 205.576 242.249 205.247C242.459 204.918 242.695 204.521 242.958 204.056C243.224 203.584 243.524 203.029 243.857 202.392L247.689 195.07C248.023 194.432 248.243 193.902 248.349 193.48C248.455 193.058 248.498 192.713 248.476 192.444C248.462 192.178 248.411 191.965 248.323 191.805C248.243 191.648 248.177 191.509 248.127 191.387L248.15 191.342L252.28 191.855L252.257 191.9C252.129 192.034 251.982 192.206 251.816 192.415C251.657 192.627 251.47 192.902 251.255 193.239C251.045 193.568 250.807 193.969 250.54 194.441C250.278 194.905 249.98 195.456 249.647 196.094L245.814 203.416C245.481 204.054 245.196 204.616 244.96 205.104C244.728 205.584 244.536 206.005 244.386 206.365C244.235 206.726 244.118 207.032 244.034 207.284C243.957 207.54 243.9 207.759 243.863 207.94L243.839 207.985L241.229 206.619L241.253 206.574ZM252.782 202.506C252.46 203.121 252.229 203.755 252.088 204.407C251.947 205.059 251.884 205.709 251.899 206.357C251.924 207.001 252.028 207.633 252.21 208.253C252.399 208.878 252.661 209.464 252.995 210.011C253.337 210.563 253.746 211.068 254.222 211.527C254.702 211.979 255.249 212.366 255.864 212.688C256.479 213.01 257.109 213.239 257.754 213.376C258.41 213.509 259.058 213.557 259.699 213.52C260.347 213.486 260.977 213.367 261.591 213.163C262.204 212.958 262.783 212.683 263.327 212.338C263.874 211.984 264.376 211.564 264.832 211.076C265.288 210.589 265.676 210.038 265.998 209.423C266.481 208.5 266.762 207.544 266.841 206.554C266.923 205.556 266.824 204.596 266.542 203.675C266.271 202.75 265.827 201.901 265.209 201.129C264.595 200.349 263.827 199.718 262.905 199.235C261.982 198.752 261.026 198.481 260.035 198.421C259.048 198.354 258.094 198.47 257.172 198.771C256.262 199.069 255.42 199.536 254.648 200.173C253.886 200.806 253.264 201.584 252.782 202.506ZM251.051 201.543C251.451 200.778 251.935 200.09 252.503 199.48C253.078 198.874 253.707 198.357 254.388 197.931C255.081 197.5 255.816 197.164 256.593 196.921C257.37 196.678 258.16 196.537 258.963 196.499C259.778 196.457 260.592 196.525 261.407 196.703C262.225 196.874 263.017 197.159 263.782 197.559C264.547 197.959 265.232 198.447 265.839 199.022C266.449 199.59 266.969 200.221 267.399 200.914C267.833 201.6 268.172 202.331 268.415 203.108C268.658 203.884 268.797 204.678 268.831 205.489C268.876 206.296 268.81 207.107 268.632 207.921C268.462 208.74 268.177 209.531 267.777 210.296C267.372 211.068 266.883 211.758 266.307 212.364C265.743 212.967 265.115 213.484 264.422 213.914C263.736 214.348 263.005 214.686 262.228 214.929C261.451 215.172 260.656 215.315 259.841 215.356C259.03 215.391 258.218 215.319 257.403 215.141C256.585 214.971 255.793 214.685 255.028 214.285C254.263 213.885 253.578 213.397 252.971 212.822C252.361 212.254 251.839 211.627 251.405 210.942C250.982 210.252 250.649 209.519 250.406 208.743C250.163 207.966 250.021 207.17 249.979 206.355C249.945 205.545 250.011 204.734 250.178 203.923C250.355 203.109 250.646 202.315 251.051 201.543Z" fill="url(#paint5_linear_126_30954)"/>
<path d="M137.397 283.367C137.448 283.189 137.495 282.969 137.537 282.707C137.588 282.445 137.63 282.119 137.664 281.729C137.698 281.34 137.723 280.879 137.74 280.346C137.757 279.804 137.766 279.174 137.766 278.454V270.189C137.766 269.47 137.715 268.899 137.613 268.476C137.512 268.052 137.389 267.727 137.245 267.498C137.11 267.27 136.966 267.104 136.813 267.003C136.67 266.901 136.547 266.808 136.445 266.724V266.673L140.343 265.213V265.264C140.292 265.441 140.241 265.661 140.19 265.924C140.148 266.186 140.11 266.516 140.076 266.914C140.042 267.303 140.017 267.769 140 268.311C139.983 268.844 139.975 269.47 139.975 270.189V278.454C139.975 279.174 139.983 279.804 140 280.346C140.017 280.879 140.042 281.34 140.076 281.729C140.11 282.119 140.148 282.445 140.19 282.707C140.241 282.969 140.292 283.189 140.343 283.367V283.418H137.397V283.367ZM143.098 285.627C144.316 285.322 145.434 284.941 146.449 284.484C147.473 284.027 148.358 283.49 149.103 282.872C149.847 282.246 150.427 281.535 150.842 280.739C151.257 279.944 151.464 279.059 151.464 278.086C151.464 277.121 151.269 276.3 150.88 275.623C150.491 274.946 149.957 274.392 149.28 273.96C148.612 273.528 147.82 273.211 146.906 273.008C146.001 272.805 145.032 272.695 143.999 272.678L145.637 265.213H148.062C148.781 265.213 149.407 265.213 149.94 265.213C150.482 265.204 150.948 265.2 151.337 265.2C151.726 265.192 152.052 265.183 152.314 265.175C152.577 265.166 152.797 265.154 152.975 265.137H153.025V267.892H152.975C152.797 267.841 152.577 267.794 152.314 267.752C152.052 267.71 151.726 267.672 151.337 267.638C150.948 267.604 150.482 267.578 149.94 267.562C149.407 267.545 148.781 267.536 148.062 267.536H146.183L145.51 270.393C146.195 270.41 146.872 270.477 147.541 270.596C148.21 270.706 148.849 270.879 149.458 271.116C150.067 271.345 150.63 271.637 151.146 271.992C151.671 272.339 152.124 272.754 152.505 273.236C152.886 273.71 153.182 274.256 153.394 274.874C153.614 275.483 153.724 276.165 153.724 276.918C153.724 277.891 153.576 278.771 153.279 279.559C152.983 280.346 152.581 281.057 152.073 281.691C151.565 282.326 150.973 282.889 150.296 283.38C149.619 283.871 148.895 284.302 148.125 284.675C147.363 285.047 146.576 285.369 145.764 285.64C144.951 285.91 144.156 286.139 143.377 286.325L143.098 285.627Z" fill="url(#paint6_linear_126_30954)"/>
<path d="M30.9426 215.229C30.9728 215.026 31.038 214.74 31.1383 214.37C31.2344 213.993 31.3441 213.555 31.4673 213.055C31.5863 212.548 31.7063 211.991 31.8273 211.385C31.9483 210.779 32.0504 210.141 32.1335 209.469C32.2166 208.797 32.2682 208.104 32.2883 207.39C32.3115 206.664 32.2817 205.94 32.1989 205.217C32.1161 204.494 31.9693 203.778 31.7584 203.07C31.5549 202.357 31.2658 201.674 30.8913 201.021C30.4915 200.323 30.0619 199.769 29.6026 199.359C29.1465 198.938 28.6805 198.644 28.2048 198.478C27.7248 198.304 27.2439 198.248 26.7622 198.31C26.2877 198.367 25.8266 198.524 25.3786 198.781C24.8206 199.1 24.3686 199.486 24.0228 199.938C23.6801 200.378 23.4114 200.82 23.2167 201.263C23.0293 201.703 22.9007 202.108 22.8309 202.48C22.7684 202.847 22.7383 203.118 22.7406 203.292L22.5485 203.315L22.016 200.649C22.3042 200.25 22.5814 199.891 22.8476 199.573C23.117 199.243 23.4011 198.939 23.6999 198.66C24.0061 198.377 24.3322 198.112 24.6783 197.865C25.0276 197.606 25.4261 197.349 25.8741 197.092C26.1751 196.919 26.5135 196.769 26.8891 196.642C27.2648 196.514 27.6599 196.429 28.0745 196.387C28.4891 196.344 28.9106 196.356 29.339 196.423C29.7706 196.478 30.1969 196.609 30.6182 196.817C31.0425 197.012 31.447 197.293 31.8317 197.657C32.2238 198.018 32.5818 198.481 32.9059 199.047C33.251 199.649 33.5064 200.307 33.6721 201.022C33.8336 201.729 33.9322 202.463 33.9678 203.223C33.9992 203.975 33.9803 204.742 33.911 205.523C33.8416 206.304 33.7465 207.066 33.6257 207.809C33.5049 208.551 33.3709 209.262 33.2238 209.941C33.0724 210.613 32.9404 211.225 32.8278 211.778L37.0683 209.347C37.34 209.192 37.6023 209.036 37.8551 208.882C38.111 208.716 38.3428 208.558 38.5505 208.41C38.7539 208.254 38.9238 208.108 39.0601 207.972C39.2037 207.831 39.3007 207.702 39.3509 207.585L39.395 207.56L40.7396 209.906L31.0689 215.449L30.9426 215.229ZM39.5021 200.241C39.8472 200.843 40.2568 201.379 40.7308 201.849C41.2049 202.318 41.7187 202.721 42.2724 203.058C42.8292 203.382 43.4179 203.635 44.0386 203.816C44.6665 203.993 45.3013 204.087 45.9427 204.1C46.5915 204.109 47.2375 204.036 47.8808 203.882C48.5199 203.721 49.1405 203.467 49.7427 203.122C50.3448 202.777 50.877 202.37 51.3394 201.9C51.8048 201.418 52.1942 200.898 52.5073 200.338C52.8278 199.774 53.0669 199.178 53.2247 198.551C53.3824 197.924 53.4619 197.288 53.4631 196.644C53.4602 195.992 53.3759 195.343 53.2103 194.696C53.0446 194.05 52.7892 193.426 52.4441 192.824C51.9265 191.92 51.2715 191.169 50.4792 190.57C49.6827 189.963 48.8203 189.53 47.8919 189.272C46.9667 189.003 46.0124 188.92 45.0289 189.026C44.0412 189.123 43.0957 189.431 42.1925 189.949C41.2894 190.466 40.5459 191.127 39.9622 191.929C39.3743 192.725 38.9592 193.592 38.7169 194.531C38.4777 195.458 38.4185 196.419 38.5395 197.413C38.6636 198.395 38.9844 199.338 39.5021 200.241ZM37.7586 201.182C37.3293 200.433 37.0102 199.655 36.8013 198.848C36.5998 198.037 36.5027 197.229 36.51 196.425C36.5205 195.609 36.6324 194.809 36.8455 194.023C37.0587 193.237 37.3653 192.496 37.7654 191.798C38.1687 191.089 38.6644 190.439 39.2525 189.849C39.8365 189.251 40.5029 188.737 41.2519 188.308C42.0009 187.878 42.781 187.563 43.5922 187.361C44.3992 187.152 45.2106 187.053 46.0263 187.064C46.8378 187.067 47.6363 187.175 48.4218 187.388C49.2073 187.601 49.9509 187.912 50.6527 188.319C51.3576 188.715 52.0054 189.207 52.5961 189.795C53.1942 190.379 53.7079 191.046 54.1371 191.795C54.5706 192.551 54.8881 193.335 55.0897 194.146C55.2944 194.946 55.3915 195.753 55.381 196.569C55.3778 197.38 55.2697 198.179 55.0565 198.964C54.8434 199.75 54.5352 200.497 54.1319 201.206C53.7245 201.908 53.2267 202.554 52.6385 203.145C52.0545 203.743 51.3881 204.257 50.6391 204.686C49.8901 205.115 49.11 205.431 48.2988 205.632C47.4918 205.841 46.6825 205.944 45.871 205.941C45.0627 205.926 44.2658 205.812 43.4803 205.599C42.6948 205.386 41.9475 205.078 41.2383 204.675C40.5366 204.267 39.8887 203.775 39.2949 203.199C38.7042 202.61 38.192 201.938 37.7586 201.182Z" fill="url(#paint7_linear_126_30954)"/>
<path d="M28.6362 89.6012C28.8292 89.5324 29.1124 89.4553 29.4857 89.3697C29.8635 89.277 30.302 89.1674 30.801 89.0408C31.3045 88.907 31.852 88.7509 32.4435 88.5724C33.035 88.394 33.6467 88.1832 34.2787 87.9402C34.9107 87.6972 35.5463 87.4165 36.1856 87.0982C36.8365 86.7771 37.4615 86.4099 38.0605 85.9963C38.6596 85.5828 39.2219 85.1163 39.7476 84.5968C40.2804 84.0818 40.747 83.5053 41.1472 82.8671C41.5744 82.186 41.8607 81.5464 42.0061 80.9482C42.1632 80.3474 42.2031 79.7979 42.1259 79.2999C42.0531 78.7947 41.8762 78.3441 41.5951 77.948C41.3212 77.5564 40.9656 77.2234 40.5282 76.9491C39.9833 76.6073 39.4301 76.3902 38.8687 76.2978C38.3189 76.2027 37.8026 76.1736 37.3199 76.2106C36.8444 76.252 36.4262 76.3293 36.0654 76.4427C35.7117 76.5606 35.4585 76.6615 35.3059 76.7456L35.1958 76.5866L37.2965 74.8621C37.7844 74.9284 38.2315 75.004 38.6378 75.089C39.0557 75.1713 39.4579 75.2787 39.8444 75.4112C40.238 75.5482 40.6253 75.7112 41.0063 75.9002C41.3989 76.0866 41.8139 76.3169 42.2513 76.5912C42.5453 76.7756 42.8369 77.0035 43.1263 77.2749C43.4156 77.5463 43.6766 77.8549 43.9093 78.2006C44.142 78.5464 44.3298 78.9239 44.4727 79.3333C44.6273 79.7399 44.7122 80.1779 44.7276 80.6471C44.7547 81.1136 44.6978 81.6025 44.5571 82.1136C44.4235 82.6293 44.1835 83.1631 43.8373 83.7152C43.4685 84.3031 43.0078 84.8384 42.4553 85.3211C41.9073 85.7966 41.3064 86.229 40.6527 86.6182C40.0035 87.0002 39.318 87.3445 38.5962 87.6511C37.8744 87.9576 37.1576 88.2323 36.4458 88.4752C35.7339 88.7181 35.0437 88.9346 34.375 89.1246C33.7109 89.3074 33.1086 89.4792 32.5683 89.6398L36.7089 92.2369C36.9742 92.4033 37.2345 92.5616 37.49 92.7118C37.7571 92.8594 38.0049 92.9899 38.2335 93.1033C38.4666 93.2095 38.6755 93.2906 38.8602 93.3465C39.0521 93.4069 39.2113 93.4318 39.3378 93.4213L39.3808 93.4483L37.944 95.739L28.5013 89.8163L28.6362 89.6012ZM37.7059 98.1973C38.9003 98.5867 40.0491 98.8577 41.1523 99.0102C42.2627 99.1672 43.2975 99.1818 44.2568 99.0542C45.2205 98.9194 46.0894 98.6252 46.8635 98.1715C47.6375 97.7179 48.2831 97.0789 48.8003 96.2543C49.313 95.437 49.5843 94.638 49.6143 93.8576C49.6442 93.0771 49.4871 92.3242 49.1428 91.5987C48.8058 90.8778 48.304 90.1885 47.6376 89.5307C46.9784 88.8774 46.2159 88.2693 45.3502 87.7063L50.704 82.2527L52.7582 83.5411C53.3676 83.9233 53.8982 84.2561 54.3499 84.5395C54.8133 84.8201 55.2099 85.0639 55.5397 85.2707C55.874 85.4704 56.1545 85.6364 56.3813 85.7686C56.6081 85.9009 56.8012 86.0071 56.9608 86.0872L57.0038 86.1141L55.54 88.4479L55.497 88.421C55.3734 88.2835 55.2117 88.1271 55.0119 87.9519C54.8121 87.7766 54.5563 87.5712 54.2445 87.3357C53.9327 87.1001 53.5518 86.8313 53.1019 86.5291C52.6592 86.2314 52.1332 85.8915 51.5237 85.5092L49.932 84.5109L47.8442 86.5732C48.416 86.9518 48.9536 87.3689 49.4571 87.8246C49.965 88.273 50.4141 88.7596 50.8045 89.2841C51.1993 89.8015 51.5209 90.3479 51.7694 90.9234C52.0295 91.4962 52.1928 92.0881 52.2591 92.6991C52.3299 93.303 52.2908 93.9229 52.1417 94.5587C52.0043 95.1919 51.7355 95.8275 51.3353 96.4656C50.8181 97.2902 50.2249 97.9571 49.5557 98.4665C48.8866 98.9759 48.1682 99.3646 47.4008 99.6325C46.6333 99.9004 45.8323 100.062 44.9979 100.118C44.1635 100.175 43.3211 100.156 42.4708 100.062C41.6276 99.9727 40.7899 99.8269 39.9577 99.6246C39.1255 99.4223 38.3301 99.1932 37.5715 98.9372L37.7059 98.1973Z" fill="url(#paint8_linear_126_30954)"/>
<path d="M252.764 94.627C253.982 94.3223 255.1 93.9414 256.115 93.4844C257.139 93.0273 258.024 92.4899 258.769 91.8721C259.513 91.2458 260.093 90.5348 260.508 89.7393C260.923 88.9437 261.13 88.0592 261.13 87.0859C261.13 86.1211 260.935 85.3001 260.546 84.623C260.157 83.946 259.623 83.3916 258.946 82.96C258.278 82.5283 257.486 82.2109 256.572 82.0078C255.667 81.8047 254.698 81.6947 253.665 81.6777L255.303 74.2129H257.728C258.447 74.2129 259.073 74.2129 259.606 74.2129C260.148 74.2044 260.614 74.2002 261.003 74.2002C261.392 74.1917 261.718 74.1833 261.98 74.1748C262.243 74.1663 262.463 74.1536 262.641 74.1367H262.691V76.8916H262.641C262.463 76.8408 262.243 76.7943 261.98 76.752C261.718 76.7096 261.392 76.6715 261.003 76.6377C260.614 76.6038 260.148 76.5785 259.606 76.5615C259.073 76.5446 258.447 76.5361 257.728 76.5361H255.849L255.176 79.3926C255.861 79.4095 256.538 79.4772 257.207 79.5957C257.876 79.7057 258.515 79.8792 259.124 80.1162C259.733 80.3447 260.296 80.6367 260.812 80.9922C261.337 81.3392 261.79 81.7539 262.171 82.2363C262.552 82.7103 262.848 83.2562 263.06 83.874C263.28 84.4834 263.39 85.1647 263.39 85.918C263.39 86.8913 263.242 87.7715 262.945 88.5586C262.649 89.3457 262.247 90.0566 261.739 90.6914C261.231 91.3262 260.639 91.889 259.962 92.3799C259.285 92.8708 258.561 93.3024 257.791 93.6748C257.029 94.0472 256.242 94.3688 255.43 94.6396C254.617 94.9105 253.822 95.139 253.043 95.3252L252.764 94.627Z" fill="url(#paint9_linear_126_30954)"/>
<defs>
<linearGradient id="paint0_linear_126_30954" x1="138.502" y1="4.41797" x2="138.502" y2="32.2566" gradientUnits="userSpaceOnUse">
<stop stop-color="#DCBF87"/>
<stop offset="1" stop-color="#68552C"/>
</linearGradient>
<linearGradient id="paint1_linear_126_30954" x1="155.005" y1="4.49219" x2="155.005" y2="16.259" gradientUnits="userSpaceOnUse">
<stop stop-color="#E5C68C"/>
<stop offset="1" stop-color="#7F6E4E"/>
</linearGradient>
<linearGradient id="paint2_linear_126_30954" x1="140.224" y1="18.6953" x2="140.224" y2="30.5339" gradientUnits="userSpaceOnUse">
<stop stop-color="#E5C68C"/>
<stop offset="1" stop-color="#7F6E4E"/>
</linearGradient>
<linearGradient id="paint3_linear_126_30954" x1="140.108" y1="16.9023" x2="140.108" y2="4.77677" gradientUnits="userSpaceOnUse">
<stop stop-color="#E5C68C"/>
<stop offset="1" stop-color="#7F6E4E"/>
</linearGradient>
<linearGradient id="paint4_linear_126_30954" x1="154.995" y1="30.3906" x2="154.995" y2="18.5235" gradientUnits="userSpaceOnUse">
<stop stop-color="#E5C68C"/>
<stop offset="1" stop-color="#7F6E4E"/>
</linearGradient>
<linearGradient id="paint5_linear_126_30954" x1="256.48" y1="186.384" x2="270.718" y2="197.004" gradientUnits="userSpaceOnUse">
<stop stop-color="#ECC271"/>
<stop offset="1" stop-color="#7F642E"/>
</linearGradient>
<linearGradient id="paint6_linear_126_30954" x1="136.695" y1="258.418" x2="155.085" y2="261.513" gradientUnits="userSpaceOnUse">
<stop stop-color="#ECC271"/>
<stop offset="1" stop-color="#7F642E"/>
</linearGradient>
<linearGradient id="paint7_linear_126_30954" x1="21.7436" y1="191.979" x2="47.1552" y2="185.075" gradientUnits="userSpaceOnUse">
<stop stop-color="#ECC271"/>
<stop offset="1" stop-color="#7F642E"/>
</linearGradient>
<linearGradient id="paint8_linear_126_30954" x1="42.0851" y1="68.8256" x2="59.0026" y2="85.6324" gradientUnits="userSpaceOnUse">
<stop stop-color="#ECC271"/>
<stop offset="1" stop-color="#7F642E"/>
</linearGradient>
<linearGradient id="paint9_linear_126_30954" x1="250.395" y1="67.4179" x2="268.393" y2="70.2713" gradientUnits="userSpaceOnUse">
<stop stop-color="#ECC271"/>
<stop offset="1" stop-color="#7F642E"/>
</linearGradient>
</defs>
</svg>
