<svg width="292" height="291" viewBox="0 0 292 291" fill="none" xmlns="http://www.w3.org/2000/svg">
<path d="M137.36 34.2527C135.789 34.2527 134.404 34.0406 133.206 33.6166C132.033 33.1675 131.11 32.5689 130.436 31.8205C129.763 31.0472 129.426 30.1742 129.426 29.2013C129.426 28.3781 129.65 27.7295 130.099 27.2556C130.574 26.7567 131.16 26.5072 131.859 26.5072C132.308 26.5072 132.707 26.607 133.056 26.8066C133.431 26.9812 133.718 27.2431 133.917 27.5923C134.142 27.9166 134.254 28.3033 134.254 28.7523C134.254 29.1514 134.167 29.4632 133.992 29.6877C133.842 29.9122 133.668 30.0993 133.468 30.249C133.268 30.3987 133.081 30.5483 132.907 30.698C132.757 30.8227 132.682 31.0223 132.682 31.2967C132.682 31.7457 132.919 32.1074 133.393 32.3818C133.892 32.6312 134.466 32.8183 135.115 32.943C135.789 33.0678 136.387 33.1301 136.911 33.1301C138.658 33.1301 139.993 32.5439 140.916 31.3715C141.864 30.1991 142.338 28.5153 142.338 26.3202C142.338 24.2497 141.864 22.6657 140.916 21.5681C139.968 20.4706 138.384 19.9218 136.163 19.9218L139.831 19.0612C141.378 19.2358 142.725 19.6723 143.873 20.3708C145.046 21.0443 145.956 21.8924 146.605 22.9152C147.254 23.9379 147.578 25.0729 147.578 26.3202C147.578 27.6672 147.167 28.9518 146.343 30.1741C145.545 31.3715 144.384 32.3568 142.862 33.1301C141.34 33.8785 139.506 34.2527 137.36 34.2527ZM135.324 19.9218V18.0818H139.831V19.9218H135.324ZM137.622 19.2108L135.452 18.7992C137.473 18.7992 138.92 18.238 139.793 17.1155C140.667 15.968 141.103 14.3965 141.103 12.4009C141.103 11.1287 140.941 10.1433 140.617 9.44488C140.317 8.74642 139.868 8.25999 139.269 7.9856C138.695 7.68626 137.997 7.53659 137.173 7.53659C136.25 7.53659 135.477 7.67378 134.853 7.94818C134.229 8.22257 133.917 8.59675 133.917 9.0707C133.917 9.3451 134.017 9.5696 134.217 9.74422C134.416 9.91883 134.616 10.1309 134.815 10.3803C135.015 10.6048 135.115 10.954 135.115 11.428C135.115 12.0766 134.903 12.563 134.479 12.8873C134.054 13.1866 133.593 13.3363 133.094 13.3363C132.47 13.3363 131.933 13.1118 131.484 12.6628C131.06 12.2138 130.848 11.665 130.848 11.0164C130.848 10.293 131.123 9.58208 131.671 8.88362C132.245 8.18516 133.069 7.59895 134.142 7.12499C135.215 6.65104 136.512 6.41406 138.034 6.41406C139.706 6.41406 141.128 6.70093 142.301 7.27466C143.499 7.8484 144.409 8.59675 145.033 9.51971C145.657 10.4427 145.969 11.428 145.969 12.4757C145.969 13.5982 145.62 14.6459 144.921 15.6188C144.247 16.5667 143.287 17.3649 142.039 18.0135C140.791 18.6371 139.319 19.0362 137.622 19.2108Z" fill="url(#paint0_linear_126_31032)"/>
<path d="M160.926 12.3678C160.926 15.3007 158.317 17.7512 155.005 17.7512C151.692 17.7512 149.083 15.3007 149.083 12.3678C149.083 9.4349 151.692 6.98438 155.005 6.98438C158.317 6.98438 160.926 9.4349 160.926 12.3678Z" fill="black" stroke="url(#paint1_linear_126_31032)"/>
<path d="M134.302 26.6107C134.302 29.5661 136.914 32.03 140.224 32.03C143.533 32.03 146.146 29.5661 146.146 26.6107C146.146 23.6553 143.533 21.1914 140.224 21.1914C136.914 21.1914 134.302 23.6553 134.302 26.6107Z" fill="black" stroke="url(#paint2_linear_126_31032)"/>
<mask id="path-4-inside-1_126_31032" fill="white">
<path fill-rule="evenodd" clip-rule="evenodd" d="M135.316 18.072C137.237 17.0383 138.525 15.138 138.525 12.9649C138.525 10.7029 137.13 8.73657 135.078 7.73544C136.096 7.1263 137.308 6.77286 138.61 6.77286C142.215 6.77286 145.139 9.48727 145.139 12.8357C145.139 16.184 142.215 18.8984 138.61 18.8984C137.408 18.8984 136.283 18.5973 135.316 18.072Z"/>
</mask>
<path fill-rule="evenodd" clip-rule="evenodd" d="M135.316 18.072C137.237 17.0383 138.525 15.138 138.525 12.9649C138.525 10.7029 137.13 8.73657 135.078 7.73544C136.096 7.1263 137.308 6.77286 138.61 6.77286C142.215 6.77286 145.139 9.48727 145.139 12.8357C145.139 16.184 142.215 18.8984 138.61 18.8984C137.408 18.8984 136.283 18.5973 135.316 18.072Z" fill="black"/>
<path d="M135.316 18.072L134.843 17.1914L133.214 18.0677L134.839 18.9506L135.316 18.072ZM135.078 7.73544L134.564 6.8773L132.981 7.82484L134.639 8.63416L135.078 7.73544ZM137.525 12.9649C137.525 14.7219 136.484 16.308 134.843 17.1914L135.79 18.9525C137.99 17.7686 139.525 15.5542 139.525 12.9649L137.525 12.9649ZM134.639 8.63416C136.397 9.49161 137.525 11.1369 137.525 12.9649L139.525 12.9649C139.525 10.2689 137.863 7.98153 135.516 6.83671L134.639 8.63416ZM135.591 8.59358C136.456 8.07655 137.491 7.77286 138.61 7.77286L138.61 5.77286C137.126 5.77286 135.737 6.17606 134.564 6.8773L135.591 8.59358ZM138.61 7.77286C141.734 7.77286 144.139 10.108 144.139 12.8357L146.139 12.8357C146.139 8.86648 142.697 5.77286 138.61 5.77286L138.61 7.77286ZM144.139 12.8357C144.139 15.5633 141.734 17.8984 138.61 17.8984L138.61 19.8984C142.697 19.8984 146.139 16.8048 146.139 12.8357L144.139 12.8357ZM138.61 17.8984C137.577 17.8984 136.615 17.6397 135.794 17.1933L134.839 18.9506C135.951 19.555 137.24 19.8984 138.61 19.8984L138.61 17.8984Z" fill="url(#paint3_linear_126_31032)" mask="url(#path-4-inside-1_126_31032)"/>
<mask id="path-6-inside-2_126_31032" fill="white">
<path fill-rule="evenodd" clip-rule="evenodd" d="M159.9 31.592C157.946 30.5659 156.632 28.6487 156.632 26.453C156.632 24.2574 157.946 22.3404 159.9 21.3142C158.938 20.8088 157.821 20.5196 156.629 20.5196C153.017 20.5196 150.09 23.1761 150.09 26.4531C150.09 29.7302 153.017 32.3867 156.629 32.3867C157.821 32.3867 158.938 32.0974 159.9 31.592Z"/>
</mask>
<path fill-rule="evenodd" clip-rule="evenodd" d="M159.9 31.592C157.946 30.5659 156.632 28.6487 156.632 26.453C156.632 24.2574 157.946 22.3404 159.9 21.3142C158.938 20.8088 157.821 20.5196 156.629 20.5196C153.017 20.5196 150.09 23.1761 150.09 26.4531C150.09 29.7302 153.017 32.3867 156.629 32.3867C157.821 32.3867 158.938 32.0974 159.9 31.592Z" fill="black"/>
<path d="M159.9 31.592L160.365 30.7067L162.051 31.592L160.365 32.4773L159.9 31.592ZM159.9 21.3142L160.365 20.4289L162.05 21.3142L160.365 22.1995L159.9 21.3142ZM157.632 26.453C157.632 28.2281 158.695 29.8293 160.365 30.7067L159.435 32.4773C157.198 31.3025 155.632 29.0694 155.632 26.453L157.632 26.453ZM160.365 22.1995C158.694 23.0769 157.632 24.6781 157.632 26.453L155.632 26.453C155.632 23.8368 157.198 21.6038 159.435 20.4289L160.365 22.1995ZM159.435 22.1995C158.616 21.7693 157.658 21.5196 156.629 21.5196L156.629 19.5196C157.983 19.5196 159.26 19.8484 160.365 20.4289L159.435 22.1995ZM156.629 21.5196C153.476 21.5196 151.09 23.8176 151.09 26.4531L149.09 26.4531C149.09 22.5346 152.559 19.5196 156.629 19.5196L156.629 21.5196ZM151.09 26.4531C151.09 29.0887 153.476 31.3867 156.629 31.3867L156.629 33.3867C152.559 33.3867 149.09 30.3717 149.09 26.4531L151.09 26.4531ZM156.629 31.3867C157.658 31.3867 158.616 31.137 159.435 30.7067L160.365 32.4773C159.26 33.0579 157.983 33.3867 156.629 33.3867L156.629 31.3867Z" fill="url(#paint4_linear_126_31032)" mask="url(#path-6-inside-2_126_31032)"/>
<path d="M238.912 209.474C238.646 209.335 238.539 209.065 238.591 208.663C238.615 208.314 238.724 208.021 238.916 207.783C240.858 205.323 244.218 201.879 248.997 197.45C247.348 197.58 246.329 197.543 245.939 197.339C245.656 197.191 245.597 196.957 245.764 196.638C245.866 196.443 246.025 196.357 246.239 196.379C246.891 196.427 247.414 196.463 247.807 196.488C248.209 196.496 248.482 196.492 248.626 196.476C249.592 196.441 250.33 196.195 250.84 195.739C251.003 195.599 251.185 195.446 251.385 195.28C251.585 195.113 251.774 195.077 251.951 195.169C252.234 195.318 252.293 195.551 252.126 195.87C252.079 195.959 251.856 196.192 251.455 196.569C248.79 198.944 246.473 201.129 244.504 203.123C242.562 205.109 240.968 206.882 239.722 208.442C239.649 208.539 239.616 208.646 239.622 208.762L239.634 208.87C239.676 209.005 239.669 209.126 239.614 209.232C239.447 209.551 239.213 209.632 238.912 209.474ZM250.962 217.033C248.889 215.948 247.579 214.462 247.033 212.573C246.504 210.693 246.787 208.708 247.881 206.617C249.346 203.817 251.436 201.852 254.149 200.722C256.989 199.522 259.83 199.485 262.672 200.611C262.77 200.64 262.854 200.672 262.925 200.71C263.014 200.756 263.076 200.788 263.111 200.807C265.255 201.929 266.579 203.389 267.083 205.188C267.586 206.986 267.277 208.958 266.155 211.102C265.255 212.82 264.097 214.257 262.68 215.412C260.973 216.776 259.097 217.622 257.051 217.951C254.852 218.313 252.823 218.007 250.962 217.033ZM251.488 216.158C253.154 217.029 254.979 217.296 256.962 216.957C258.838 216.607 260.53 215.833 262.037 214.635C263.335 213.621 264.41 212.299 265.264 210.669L265.5 210.217C264.539 210.933 263.4 211.297 262.085 211.308C260.832 211.33 259.665 211.058 258.584 210.492C257.645 210 256.986 209.362 256.607 208.577C256.185 207.701 256.22 206.794 256.711 205.855C257.212 204.898 257.648 204.517 258.02 204.711C258.339 204.878 258.42 205.112 258.262 205.414C258.207 205.52 258.092 205.674 257.918 205.877C257.772 206.071 257.67 206.221 257.615 206.328C256.929 207.639 257.427 208.735 259.111 209.616C260.262 210.219 261.484 210.429 262.776 210.247C264.211 210.05 265.211 209.411 265.777 208.33C266.407 207.125 266.359 205.859 265.632 204.53C264.991 203.382 264.024 202.47 262.731 201.793C261.419 201.107 259.949 200.789 258.32 200.839C256.673 200.88 255.186 201.242 253.859 201.924C251.709 203.011 250.004 204.76 248.743 207.17C247.788 208.995 247.546 210.708 248.017 212.309C248.506 213.92 249.663 215.202 251.488 216.158Z" fill="url(#paint5_linear_126_31032)"/>
<path d="M134.536 284.444C134.236 284.444 134.016 284.254 133.876 283.874C133.736 283.554 133.696 283.244 133.756 282.944C134.336 279.864 135.716 275.254 137.896 269.114C136.496 269.994 135.576 270.434 135.136 270.434C134.816 270.434 134.656 270.254 134.656 269.894C134.656 269.674 134.756 269.524 134.956 269.444C135.556 269.184 136.036 268.974 136.396 268.814C136.756 268.634 136.996 268.504 137.116 268.424C137.956 267.944 138.496 267.384 138.736 266.744C138.816 266.544 138.906 266.324 139.006 266.084C139.106 265.844 139.256 265.724 139.456 265.724C139.776 265.724 139.936 265.904 139.936 266.264C139.936 266.364 139.846 266.674 139.666 267.194C138.406 270.534 137.366 273.544 136.546 276.224C135.746 278.884 135.156 281.194 134.776 283.154C134.756 283.274 134.776 283.384 134.836 283.484L134.896 283.574C134.996 283.674 135.046 283.784 135.046 283.904C135.046 284.264 134.876 284.444 134.536 284.444ZM145.988 286.274C144.128 286.274 142.608 285.904 141.428 285.164C140.108 284.344 139.448 283.194 139.448 281.714C139.448 280.534 139.868 279.574 140.708 278.834C141.448 278.154 142.338 277.814 143.378 277.814C144.218 277.814 144.938 278.054 145.538 278.534C146.198 279.074 146.528 279.734 146.528 280.514C146.528 281.134 146.338 281.444 145.958 281.444C145.698 281.444 145.548 281.324 145.508 281.084V280.484C145.508 280.064 145.288 279.694 144.848 279.374C144.408 279.054 143.898 278.894 143.318 278.894C142.578 278.894 141.938 279.134 141.398 279.614C140.798 280.114 140.498 280.814 140.498 281.714C140.498 282.854 141.038 283.744 142.118 284.384C143.118 284.984 144.408 285.284 145.988 285.284C148.228 285.284 150.208 284.664 151.928 283.424C153.828 282.004 154.778 280.164 154.778 277.904C154.778 276.244 154.178 274.934 152.978 273.974C151.878 273.074 150.488 272.624 148.808 272.624C147.468 272.624 146.268 272.874 145.208 273.374C145.008 273.494 144.818 273.554 144.638 273.554C144.318 273.554 144.158 273.354 144.158 272.954C144.158 272.874 144.158 272.804 144.158 272.744C144.178 272.684 144.198 272.624 144.218 272.564L145.718 267.044C145.778 266.804 145.938 266.684 146.198 266.684H154.988C155.328 266.684 155.498 266.844 155.498 267.164C155.498 267.504 155.328 267.674 154.988 267.674H146.618C146.458 268.134 146.278 268.734 146.078 269.474C145.878 270.194 145.658 271.054 145.418 272.054C146.278 271.794 147.328 271.664 148.568 271.664C149.008 271.664 149.428 271.684 149.828 271.724C150.228 271.764 150.608 271.824 150.968 271.904C152.488 272.264 153.658 272.934 154.478 273.914C155.378 274.954 155.828 276.274 155.828 277.874C155.828 280.474 154.748 282.574 152.588 284.174C150.708 285.574 148.508 286.274 145.988 286.274Z" fill="url(#paint6_linear_126_31032)"/>
<path d="M44.001 212.48C43.6019 212.709 43.0949 212.93 42.48 213.145C41.865 213.359 41.1496 213.538 40.3336 213.683L36.4348 214.362C35.5437 215.864 34.7945 216.789 34.1872 217.137C33.5451 217.505 32.9673 217.663 32.4538 217.612C31.9402 217.56 31.574 217.344 31.3552 216.962C31.1464 216.597 31.1409 216.186 31.3388 215.726C31.5267 215.25 31.9069 214.848 32.4796 214.519C33.1736 214.122 34.2647 213.773 35.7527 213.473C39.6141 206.857 40.6149 201.927 38.7552 198.682C37.9994 197.363 36.9268 196.618 35.5374 196.446C34.2571 196.304 32.9056 196.64 31.4827 197.456C29.7649 198.44 28.7134 199.723 28.3285 201.304C27.9755 202.659 28.167 203.978 28.9029 205.262C29.4399 206.199 30.1577 206.848 31.0562 207.209C32.0192 207.602 32.9395 207.559 33.817 207.079C34.1294 206.9 34.449 206.613 34.7759 206.218C35.1029 205.824 35.3011 205.606 35.3705 205.566C35.596 205.437 35.7983 205.529 35.9774 205.841C36.0669 205.997 36.0807 206.162 36.0189 206.336C35.8928 206.639 35.5893 206.974 35.1086 207.342C34.9202 207.496 34.7579 207.635 34.6216 207.759C34.4754 207.866 34.3366 207.946 34.2052 207.998C32.3756 208.908 30.6996 208.658 29.1771 207.249C28.6381 206.751 28.2245 206.25 27.9361 205.747C27.3393 204.706 27.0996 203.483 27.2169 202.079C27.3975 199.74 28.7024 197.874 31.1317 196.481C32.7281 195.566 34.2992 195.231 35.845 195.474C37.5073 195.72 38.7861 196.624 39.6811 198.186C40.8646 200.251 41.0478 202.843 40.2307 205.962C39.9814 206.935 39.5908 208.023 39.059 209.227C38.5272 210.431 37.8678 211.754 37.0808 213.196L40.3806 212.619C41.0726 212.499 41.6777 212.348 42.1959 212.166C42.7141 211.985 43.1468 211.794 43.4938 211.595C44.0144 211.297 44.4282 210.933 44.7352 210.503C45.0918 209.999 45.1408 209.522 44.8822 209.071C44.7231 208.793 44.496 208.658 44.2008 208.666C43.9056 208.674 43.7083 208.591 43.6088 208.417C43.4298 208.105 43.4791 207.869 43.7567 207.71C44.0691 207.531 44.4375 207.551 44.862 207.768C45.3038 207.976 45.6142 208.236 45.7932 208.549C46.2109 209.277 46.1784 210.045 45.6957 210.852C45.3294 211.5 44.7645 212.043 44.001 212.48ZM33.799 216.218C34.1634 216.009 34.5906 215.488 35.0807 214.654C34.1706 214.876 33.4639 215.131 32.9607 215.419C32.3361 215.777 32.1033 216.095 32.2624 216.373C32.4713 216.737 32.9835 216.686 33.799 216.218ZM55.5801 205.464C53.5499 206.627 51.5918 206.931 49.7057 206.375C47.837 205.81 46.3159 204.503 45.1424 202.455C43.5711 199.714 43.0391 196.895 43.5464 194C44.0634 190.96 45.5611 188.546 48.0395 186.756C48.1163 186.689 48.1895 186.636 48.2589 186.596C48.3456 186.546 48.4064 186.512 48.4411 186.492C50.5407 185.288 52.4839 184.958 54.2707 185.502C56.0575 186.045 57.5525 187.367 58.7559 189.466C59.7206 191.15 60.3083 192.899 60.519 194.715C60.75 196.887 60.4537 198.924 59.6301 200.826C58.7521 202.873 57.4021 204.419 55.5801 205.464ZM55.1249 204.549C56.756 203.614 57.9623 202.219 58.7439 200.365C59.4585 198.596 59.7166 196.753 59.5182 194.839C59.3623 193.199 58.8268 191.581 57.9119 189.985L57.6583 189.542C57.7442 190.738 57.438 191.893 56.7399 193.008C56.0839 194.075 55.2267 194.912 54.1682 195.519C53.2485 196.046 52.3558 196.258 51.4899 196.155C50.5247 196.04 49.7786 195.522 49.2515 194.602C48.7145 193.665 48.6282 193.093 48.9926 192.884C49.3049 192.705 49.5456 192.763 49.7147 193.058C49.7743 193.162 49.8428 193.342 49.92 193.597C50.0046 193.825 50.0768 193.991 50.1365 194.095C50.8724 195.379 52.0646 195.549 53.713 194.604C54.8409 193.958 55.6757 193.041 56.2175 191.855C56.8236 190.539 56.8233 189.352 56.2166 188.294C55.5404 187.114 54.4468 186.473 52.9359 186.371C51.6235 186.293 50.334 186.617 49.0673 187.343C47.7832 188.079 46.7241 189.147 45.8899 190.547C45.0384 191.957 44.5429 193.405 44.4034 194.892C44.1633 197.288 44.7196 199.666 46.0721 202.026C47.0965 203.814 48.4102 204.939 50.0133 205.404C51.6338 205.858 53.3377 205.573 55.1249 204.549Z" fill="url(#paint7_linear_126_31032)"/>
<path d="M33.5103 100.161C33.1207 99.9162 32.6866 99.5731 32.2082 99.1314C31.7298 98.6897 31.2346 98.143 30.7226 97.4913L28.2885 94.371C26.5439 94.2919 25.3751 94.0664 24.7821 93.6944C24.1552 93.3012 23.7435 92.866 23.5471 92.3886C23.3507 91.9113 23.3694 91.4863 23.6032 91.1136C23.8264 90.7578 24.1871 90.559 24.6854 90.5174C25.1943 90.4589 25.7283 90.605 26.2874 90.9557C26.9651 91.3808 27.7864 92.1792 28.7512 93.351C36.4061 93.6431 41.2272 92.205 43.2144 89.0366C44.0221 87.7489 44.1747 86.4518 43.6722 85.145C43.195 83.9486 42.2618 82.9147 40.8724 82.0432C39.1951 80.9911 37.5685 80.6674 35.9927 81.0719C34.6311 81.3983 33.5571 82.1884 32.7707 83.4422C32.1969 84.3571 31.9622 85.2959 32.0666 86.2585C32.1731 87.2933 32.6446 88.0848 33.4811 88.6331C33.7861 88.8244 34.1897 88.9713 34.692 89.0738C35.1942 89.1764 35.4793 89.2489 35.547 89.2915C35.7673 89.4296 35.7818 89.6512 35.5905 89.9561C35.4949 90.1086 35.3559 90.1985 35.1735 90.2258C34.847 90.2571 34.4083 90.1472 33.8575 89.8961C33.6329 89.8025 33.4338 89.7248 33.26 89.663C33.0969 89.5843 32.9614 89.4993 32.8534 89.408C31.189 88.2224 30.6202 86.6262 31.147 84.6194C31.3326 83.9095 31.5795 83.3088 31.8877 82.8175C32.5253 81.8009 33.4912 81.0138 34.7853 80.4562C36.9343 79.5141 39.1949 79.787 41.5669 81.2748C43.1256 82.2525 44.1614 83.4806 44.6742 84.959C45.2398 86.5414 45.0444 88.0951 44.088 89.62C42.8234 91.6362 40.6227 93.0181 37.486 93.7656C36.5105 94.0036 35.3665 94.1714 34.054 94.2689C32.7416 94.3665 31.2639 94.4076 29.6209 94.3922L31.6837 97.0317C32.1153 97.5858 32.5332 98.0486 32.9375 98.4202C33.3419 98.7919 33.7135 99.084 34.0523 99.2965C34.5606 99.6153 35.0765 99.8091 35.6001 99.8778C36.2126 99.9551 36.657 99.7734 36.9333 99.3329C37.1034 99.0618 37.1155 98.7979 36.9696 98.5412C36.8237 98.2844 36.8039 98.0713 36.9102 97.9019C37.1015 97.5969 37.3327 97.5295 37.6038 97.6995C37.9087 97.8908 38.0651 98.2249 38.0728 98.7019C38.0975 99.1896 38.0141 99.5859 37.8229 99.8909C37.3765 100.602 36.6838 100.935 35.7447 100.889C35.0006 100.871 34.2558 100.628 33.5103 100.161ZM25.4098 92.9195C25.7656 93.1427 26.4268 93.2741 27.3934 93.3138C26.7692 92.6153 26.2114 92.112 25.72 91.8038C25.1101 91.4212 24.7201 91.3655 24.55 91.6366C24.3269 91.9924 24.6134 92.42 25.4098 92.9195ZM42.4567 106.232C40.881 105.244 39.7899 104.123 39.1835 102.869C38.501 101.473 38.5529 100.148 39.3393 98.8943C39.9663 97.8947 40.8322 97.3046 41.937 97.124C42.9252 96.9412 43.8599 97.1261 44.7409 97.6787C45.4525 98.125 45.9349 98.7109 46.1882 99.4363C46.4604 100.244 46.3892 100.979 45.9748 101.64C45.6453 102.165 45.3196 102.327 44.9977 102.125C44.7775 101.987 44.7142 101.805 44.8078 101.581L45.1266 101.072C45.3498 100.717 45.36 100.286 45.1573 99.7813C44.9546 99.2764 44.6076 98.8699 44.1162 98.5617C43.4893 98.1685 42.8196 98.0317 42.1071 98.1514C41.3331 98.2562 40.707 98.6898 40.2288 99.4522C39.6231 100.418 39.6076 101.459 40.1825 102.575C40.7108 103.615 41.6442 104.554 42.9827 105.394C44.8803 106.584 46.8871 107.111 49.0031 106.974C51.3672 106.781 53.1497 105.727 54.3506 103.812C55.2326 102.406 55.4204 100.978 54.9139 99.5266C54.4603 98.1797 53.5219 97.0599 52.0987 96.1672C50.9635 95.4552 49.8141 95.0294 48.6504 94.8897C48.4172 94.8851 48.2244 94.835 48.0719 94.7393C47.8008 94.5693 47.7715 94.3148 47.9841 93.976C48.0266 93.9082 48.0638 93.8489 48.0957 93.7981C48.1445 93.7579 48.1933 93.7177 48.2421 93.6775L52.4459 89.7982C52.6243 89.6268 52.8236 89.6102 53.0439 89.7483L60.4903 94.4189C60.7783 94.5996 60.8373 94.8255 60.6673 95.0966C60.4866 95.3846 60.2523 95.4383 59.9642 95.2576L52.8736 90.8102C52.4936 91.1148 52.0223 91.5275 51.4597 92.0481C50.9077 92.5518 50.2644 93.1634 49.5297 93.8831C50.3964 94.1198 51.355 94.5676 52.4054 95.2264C52.7782 95.4602 53.1234 95.7003 53.441 95.9468C53.7586 96.1932 54.0486 96.4459 54.3111 96.705C55.4075 97.8176 56.0426 99.0069 56.2165 100.273C56.4264 101.632 56.1062 102.989 55.256 104.345C53.8745 106.547 51.8437 107.753 49.1637 107.96C46.8272 108.147 44.5915 107.571 42.4567 106.232Z" fill="url(#paint8_linear_126_31032)"/>
<path d="M255.577 100.274C253.717 100.274 252.197 99.9041 251.017 99.1641C249.697 98.3441 249.037 97.1941 249.037 95.7141C249.037 94.5341 249.457 93.5741 250.297 92.8341C251.037 92.1541 251.927 91.8141 252.967 91.8141C253.807 91.8141 254.527 92.0541 255.127 92.5341C255.787 93.0741 256.117 93.7341 256.117 94.5141C256.117 95.1341 255.927 95.4441 255.547 95.4441C255.287 95.4441 255.137 95.3241 255.097 95.0841V94.4841C255.097 94.0641 254.877 93.6941 254.437 93.3741C253.997 93.0541 253.487 92.8941 252.907 92.8941C252.167 92.8941 251.527 93.1341 250.987 93.6141C250.387 94.1141 250.087 94.8141 250.087 95.7141C250.087 96.8541 250.627 97.7441 251.707 98.3841C252.707 98.9841 253.997 99.2841 255.577 99.2841C257.817 99.2841 259.797 98.6641 261.517 97.4241C263.417 96.0041 264.367 94.1641 264.367 91.9041C264.367 90.2441 263.767 88.9341 262.567 87.9741C261.467 87.0741 260.077 86.6241 258.397 86.6241C257.057 86.6241 255.857 86.8741 254.797 87.3741C254.597 87.4941 254.407 87.5541 254.227 87.5541C253.907 87.5541 253.747 87.3541 253.747 86.9541C253.747 86.8741 253.747 86.8041 253.747 86.7441C253.767 86.6841 253.787 86.6241 253.807 86.5641L255.307 81.0441C255.367 80.8041 255.527 80.6841 255.787 80.6841H264.577C264.917 80.6841 265.087 80.8441 265.087 81.1641C265.087 81.5041 264.917 81.6741 264.577 81.6741H256.207C256.047 82.1341 255.867 82.7341 255.667 83.4741C255.467 84.1941 255.247 85.0541 255.007 86.0541C255.867 85.7941 256.917 85.6641 258.157 85.6641C258.597 85.6641 259.017 85.6841 259.417 85.7241C259.817 85.7641 260.197 85.8241 260.557 85.9041C262.077 86.2641 263.247 86.9341 264.067 87.9141C264.967 88.9541 265.417 90.2741 265.417 91.8741C265.417 94.4741 264.337 96.5741 262.177 98.1741C260.297 99.5741 258.097 100.274 255.577 100.274Z" fill="url(#paint9_linear_126_31032)"/>
<defs>
<linearGradient id="paint0_linear_126_31032" x1="138.502" y1="6.41406" x2="138.502" y2="34.2527" gradientUnits="userSpaceOnUse">
<stop stop-color="#DCBF87"/>
<stop offset="1" stop-color="#68552C"/>
</linearGradient>
<linearGradient id="paint1_linear_126_31032" x1="155.005" y1="6.48437" x2="155.005" y2="18.2512" gradientUnits="userSpaceOnUse">
<stop stop-color="#E5C68C"/>
<stop offset="1" stop-color="#7F6E4E"/>
</linearGradient>
<linearGradient id="paint2_linear_126_31032" x1="140.224" y1="20.6914" x2="140.224" y2="32.53" gradientUnits="userSpaceOnUse">
<stop stop-color="#E5C68C"/>
<stop offset="1" stop-color="#7F6E4E"/>
</linearGradient>
<linearGradient id="paint3_linear_126_31032" x1="140.108" y1="18.8984" x2="140.108" y2="6.77286" gradientUnits="userSpaceOnUse">
<stop stop-color="#E5C68C"/>
<stop offset="1" stop-color="#7F6E4E"/>
</linearGradient>
<linearGradient id="paint4_linear_126_31032" x1="154.995" y1="32.3867" x2="154.995" y2="20.5196" gradientUnits="userSpaceOnUse">
<stop stop-color="#E5C68C"/>
<stop offset="1" stop-color="#7F6E4E"/>
</linearGradient>
<linearGradient id="paint5_linear_126_31032" x1="255.481" y1="185.38" x2="269.718" y2="196.001" gradientUnits="userSpaceOnUse">
<stop stop-color="#ECC271"/>
<stop offset="1" stop-color="#7F642E"/>
</linearGradient>
<linearGradient id="paint6_linear_126_31032" x1="135.695" y1="255.414" x2="154.085" y2="258.509" gradientUnits="userSpaceOnUse">
<stop stop-color="#ECC271"/>
<stop offset="1" stop-color="#7F642E"/>
</linearGradient>
<linearGradient id="paint7_linear_126_31032" x1="23.7436" y1="188.971" x2="49.1552" y2="182.067" gradientUnits="userSpaceOnUse">
<stop stop-color="#ECC271"/>
<stop offset="1" stop-color="#7F642E"/>
</linearGradient>
<linearGradient id="paint8_linear_126_31032" x1="44.0851" y1="70.8256" x2="61.0026" y2="87.6324" gradientUnits="userSpaceOnUse">
<stop stop-color="#ECC271"/>
<stop offset="1" stop-color="#7F642E"/>
</linearGradient>
<linearGradient id="paint9_linear_126_31032" x1="249.395" y1="69.414" x2="267.393" y2="72.2674" gradientUnits="userSpaceOnUse">
<stop stop-color="#ECC271"/>
<stop offset="1" stop-color="#7F642E"/>
</linearGradient>
</defs>
</svg>
