<svg width="290" height="290" viewBox="0 0 290 290" fill="none" xmlns="http://www.w3.org/2000/svg">
<path d="M136.36 32.2527C134.789 32.2527 133.404 32.0406 132.206 31.6166C131.033 31.1675 130.11 30.5689 129.436 29.8205C128.763 29.0472 128.426 28.1742 128.426 27.2013C128.426 26.3781 128.65 25.7295 129.099 25.2556C129.574 24.7567 130.16 24.5072 130.859 24.5072C131.308 24.5072 131.707 24.607 132.056 24.8066C132.431 24.9812 132.718 25.2431 132.917 25.5923C133.142 25.9166 133.254 26.3033 133.254 26.7523C133.254 27.1514 133.167 27.4632 132.992 27.6877C132.842 27.9122 132.668 28.0993 132.468 28.249C132.268 28.3987 132.081 28.5483 131.907 28.698C131.757 28.8227 131.682 29.0223 131.682 29.2967C131.682 29.7457 131.919 30.1074 132.393 30.3818C132.892 30.6312 133.466 30.8183 134.115 30.943C134.789 31.0678 135.387 31.1301 135.911 31.1301C137.658 31.1301 138.993 30.5439 139.916 29.3715C140.864 28.1991 141.338 26.5153 141.338 24.3202C141.338 22.2497 140.864 20.6657 139.916 19.5681C138.968 18.4706 137.384 17.9218 135.163 17.9218L138.831 17.0612C140.378 17.2358 141.725 17.6723 142.873 18.3708C144.046 19.0443 144.956 19.8924 145.605 20.9152C146.254 21.9379 146.578 23.0729 146.578 24.3202C146.578 25.6672 146.167 26.9518 145.343 28.1741C144.545 29.3715 143.384 30.3568 141.862 31.1301C140.34 31.8785 138.506 32.2527 136.36 32.2527ZM134.324 17.9218V16.0818H138.831V17.9218H134.324ZM136.622 17.2108L134.452 16.7992C136.473 16.7992 137.92 16.238 138.793 15.1155C139.667 13.968 140.103 12.3965 140.103 10.4009C140.103 9.12866 139.941 8.14334 139.617 7.44488C139.317 6.74642 138.868 6.25999 138.269 5.9856C137.695 5.68626 136.997 5.53659 136.173 5.53659C135.25 5.53659 134.477 5.67378 133.853 5.94818C133.229 6.22257 132.917 6.59675 132.917 7.0707C132.917 7.3451 133.017 7.5696 133.217 7.74422C133.416 7.91883 133.616 8.13086 133.815 8.38031C134.015 8.60482 134.115 8.95405 134.115 9.428C134.115 10.0766 133.903 10.563 133.479 10.8873C133.054 11.1866 132.593 11.3363 132.094 11.3363C131.47 11.3363 130.933 11.1118 130.484 10.6628C130.06 10.2138 129.848 9.66498 129.848 9.01641C129.848 8.29301 130.123 7.58208 130.671 6.88362C131.245 6.18516 132.069 5.59895 133.142 5.12499C134.215 4.65104 135.512 4.41406 137.034 4.41406C138.706 4.41406 140.128 4.70093 141.301 5.27466C142.499 5.8484 143.409 6.59675 144.033 7.51971C144.657 8.44268 144.969 9.428 144.969 10.4757C144.969 11.5982 144.62 12.6459 143.921 13.6188C143.247 14.5667 142.287 15.3649 141.039 16.0135C139.791 16.6371 138.319 17.0362 136.622 17.2108Z" fill="url(#paint0_linear_126_30994)"/>
<path d="M159.926 10.3678C159.926 13.3007 157.317 15.7512 154.005 15.7512C150.692 15.7512 148.083 13.3007 148.083 10.3678C148.083 7.4349 150.692 4.98438 154.005 4.98438C157.317 4.98438 159.926 7.4349 159.926 10.3678Z" fill="black" stroke="url(#paint1_linear_126_30994)"/>
<path d="M133.302 24.6107C133.302 27.5661 135.914 30.03 139.224 30.03C142.533 30.03 145.146 27.5661 145.146 24.6107C145.146 21.6553 142.533 19.1914 139.224 19.1914C135.914 19.1914 133.302 21.6553 133.302 24.6107Z" fill="black" stroke="url(#paint2_linear_126_30994)"/>
<mask id="path-4-inside-1_126_30994" fill="white">
<path fill-rule="evenodd" clip-rule="evenodd" d="M134.316 16.072C136.237 15.0383 137.525 13.138 137.525 10.9649C137.525 8.7029 136.13 6.73657 134.078 5.73544C135.096 5.1263 136.308 4.77286 137.61 4.77286C141.215 4.77286 144.139 7.48727 144.139 10.8357C144.139 14.184 141.215 16.8984 137.61 16.8984C136.408 16.8984 135.283 16.5973 134.316 16.072Z"/>
</mask>
<path fill-rule="evenodd" clip-rule="evenodd" d="M134.316 16.072C136.237 15.0383 137.525 13.138 137.525 10.9649C137.525 8.7029 136.13 6.73657 134.078 5.73544C135.096 5.1263 136.308 4.77286 137.61 4.77286C141.215 4.77286 144.139 7.48727 144.139 10.8357C144.139 14.184 141.215 16.8984 137.61 16.8984C136.408 16.8984 135.283 16.5973 134.316 16.072Z" fill="black"/>
<path d="M134.316 16.072L133.843 15.1914L132.214 16.0677L133.839 16.9506L134.316 16.072ZM134.078 5.73544L133.564 4.8773L131.981 5.82484L133.639 6.63416L134.078 5.73544ZM136.525 10.9649C136.525 12.7219 135.484 14.308 133.843 15.1914L134.79 16.9525C136.99 15.7686 138.525 13.5542 138.525 10.9649L136.525 10.9649ZM133.639 6.63416C135.397 7.49161 136.525 9.1369 136.525 10.9649L138.525 10.9649C138.525 8.2689 136.863 5.98153 134.516 4.83671L133.639 6.63416ZM134.591 6.59358C135.456 6.07655 136.491 5.77286 137.61 5.77286L137.61 3.77286C136.126 3.77286 134.737 4.17606 133.564 4.8773L134.591 6.59358ZM137.61 5.77286C140.734 5.77286 143.139 8.10805 143.139 10.8357L145.139 10.8357C145.139 6.86648 141.697 3.77286 137.61 3.77286L137.61 5.77286ZM143.139 10.8357C143.139 13.5633 140.734 15.8984 137.61 15.8984L137.61 17.8984C141.697 17.8984 145.139 14.8048 145.139 10.8357L143.139 10.8357ZM137.61 15.8984C136.577 15.8984 135.615 15.6397 134.794 15.1933L133.839 16.9506C134.951 17.555 136.24 17.8984 137.61 17.8984L137.61 15.8984Z" fill="url(#paint3_linear_126_30994)" mask="url(#path-4-inside-1_126_30994)"/>
<mask id="path-6-inside-2_126_30994" fill="white">
<path fill-rule="evenodd" clip-rule="evenodd" d="M158.9 29.592C156.946 28.5659 155.632 26.6487 155.632 24.453C155.632 22.2574 156.946 20.3404 158.9 19.3142C157.938 18.8088 156.821 18.5196 155.629 18.5196C152.017 18.5196 149.09 21.1761 149.09 24.4531C149.09 27.7302 152.017 30.3867 155.629 30.3867C156.821 30.3867 157.938 30.0974 158.9 29.592Z"/>
</mask>
<path fill-rule="evenodd" clip-rule="evenodd" d="M158.9 29.592C156.946 28.5659 155.632 26.6487 155.632 24.453C155.632 22.2574 156.946 20.3404 158.9 19.3142C157.938 18.8088 156.821 18.5196 155.629 18.5196C152.017 18.5196 149.09 21.1761 149.09 24.4531C149.09 27.7302 152.017 30.3867 155.629 30.3867C156.821 30.3867 157.938 30.0974 158.9 29.592Z" fill="black"/>
<path d="M158.9 29.592L159.365 28.7067L161.051 29.592L159.365 30.4773L158.9 29.592ZM158.9 19.3142L159.365 18.4289L161.05 19.3142L159.365 20.1995L158.9 19.3142ZM156.632 24.453C156.632 26.2281 157.695 27.8293 159.365 28.7067L158.435 30.4773C156.198 29.3025 154.632 27.0694 154.632 24.453L156.632 24.453ZM159.365 20.1995C157.694 21.0769 156.632 22.6781 156.632 24.453L154.632 24.453C154.632 21.8368 156.198 19.6038 158.435 18.4289L159.365 20.1995ZM158.435 20.1995C157.616 19.7693 156.658 19.5196 155.629 19.5196L155.629 17.5196C156.983 17.5196 158.26 17.8484 159.365 18.4289L158.435 20.1995ZM155.629 19.5196C152.476 19.5196 150.09 21.8176 150.09 24.4531L148.09 24.4531C148.09 20.5346 151.559 17.5196 155.629 17.5196L155.629 19.5196ZM150.09 24.4531C150.09 27.0887 152.476 29.3867 155.629 29.3867L155.629 31.3867C151.559 31.3867 148.09 28.3717 148.09 24.4531L150.09 24.4531ZM155.629 29.3867C156.658 29.3867 157.616 29.137 158.435 28.7067L159.365 30.4773C158.26 31.0579 156.983 31.3867 155.629 31.3867L155.629 29.3867Z" fill="url(#paint4_linear_126_30994)" mask="url(#path-6-inside-2_126_30994)"/>
<path d="M242.916 207.85C242.429 207.595 242.258 207.329 242.403 207.051C242.517 206.834 242.709 206.796 242.979 206.937L243.5 207.282C243.95 207.517 244.382 207.423 244.795 206.999C245.153 206.642 245.621 205.913 246.198 204.81L250.155 197.167C250.622 196.274 250.606 195.64 250.105 195.263C249.945 195.151 249.718 195.018 249.425 194.865C249.141 194.716 249.051 194.54 249.157 194.337C249.2 194.255 249.262 194.201 249.342 194.176C249.426 194.143 249.717 194.143 250.216 194.175C251.577 194.276 252.631 194.216 253.377 193.995C253.731 193.884 253.979 193.866 254.122 193.941C254.272 194.019 254.292 194.163 254.182 194.373C254.135 194.463 254.02 194.609 253.839 194.81C253.661 195.004 253.52 195.173 253.415 195.319C253.321 195.461 253.21 195.646 253.081 195.875C252.85 196.261 252.453 196.993 251.887 198.073L247.93 205.717C247.357 206.812 247.029 207.557 246.946 207.953C246.871 208.353 246.871 208.654 246.946 208.856C247.026 209.051 247.19 209.213 247.437 209.342L248.006 209.568C248.276 209.71 248.354 209.889 248.241 210.107C248.095 210.384 247.783 210.397 247.303 210.146C247.056 210.016 246.805 209.857 246.551 209.666C246.159 209.375 245.723 209.104 245.243 208.853C244.763 208.602 244.314 208.4 243.897 208.249C243.483 208.109 243.156 207.976 242.916 207.85ZM256.018 214.85C254.18 213.888 253.029 212.402 252.562 210.391C252.101 208.334 252.462 206.174 253.648 203.909C254.845 201.622 256.49 200.047 258.584 199.185C259.561 198.779 260.555 198.587 261.565 198.61C262.579 198.625 263.544 198.872 264.459 199.351C266.281 200.304 267.373 201.831 267.736 203.931C268.098 206.012 267.671 208.215 266.455 210.54C265.27 212.805 263.693 214.339 261.725 215.143C259.795 215.929 257.915 215.843 256.085 214.885L256.018 214.85ZM256.617 214.089C257.231 214.411 257.876 214.547 258.551 214.499C259.233 214.455 259.913 214.233 260.591 213.833C262.018 213.004 263.285 211.532 264.392 209.417C265.483 207.333 265.939 205.393 265.76 203.599C265.587 201.885 264.886 200.706 263.656 200.063C262.381 199.395 261.027 199.456 259.593 200.243C258.112 201.063 256.829 202.512 255.742 204.59C254.659 206.659 254.223 208.623 254.435 210.482C254.637 212.231 255.364 213.433 256.617 214.089Z" fill="url(#paint5_linear_126_30994)"/>
<path d="M134.43 283.604C133.88 283.604 133.604 283.448 133.604 283.135C133.604 282.889 133.757 282.767 134.062 282.767L134.684 282.83C135.191 282.83 135.53 282.547 135.699 281.979C135.852 281.497 135.928 280.634 135.928 279.39L135.89 270.782C135.89 269.775 135.581 269.221 134.963 269.119C134.768 269.094 134.506 269.081 134.176 269.081C133.854 269.081 133.693 268.967 133.693 268.738C133.693 268.645 133.723 268.569 133.782 268.51C133.841 268.442 134.1 268.307 134.557 268.104C135.809 267.562 136.715 267.02 137.273 266.479C137.536 266.216 137.747 266.085 137.908 266.085C138.077 266.085 138.162 266.203 138.162 266.44C138.162 266.542 138.128 266.724 138.061 266.986C137.993 267.24 137.946 267.456 137.921 267.634C137.904 267.803 137.891 268.019 137.883 268.281C137.857 268.73 137.845 269.563 137.845 270.782L137.883 279.39C137.883 280.625 137.938 281.438 138.048 281.827C138.166 282.216 138.306 282.483 138.467 282.627C138.628 282.762 138.848 282.83 139.127 282.83L139.736 282.767C140.041 282.767 140.193 282.889 140.193 283.135C140.193 283.448 139.923 283.604 139.381 283.604C139.102 283.604 138.805 283.579 138.492 283.528C138.01 283.452 137.498 283.414 136.956 283.414C136.414 283.414 135.924 283.444 135.483 283.503C135.052 283.571 134.701 283.604 134.43 283.604ZM145.754 271.239C146.448 271.078 147.222 270.998 148.077 270.998C148.932 270.998 149.761 271.138 150.565 271.417C151.369 271.688 152.063 272.081 152.647 272.598C153.883 273.689 154.501 275.145 154.501 276.965C154.501 278.903 153.718 280.536 152.152 281.865C151.213 282.652 150.125 283.202 148.89 283.516C148.289 283.66 147.607 283.731 146.846 283.731C145.39 283.731 144.116 283.346 143.024 282.576C142.22 282.001 141.818 281.476 141.818 281.002C141.818 280.799 141.878 280.6 141.996 280.405C142.216 280.05 142.411 279.872 142.58 279.872C142.699 279.872 142.851 280.067 143.037 280.456C143.232 280.837 143.46 281.163 143.723 281.434C143.993 281.704 144.298 281.933 144.637 282.119C145.348 282.517 146.126 282.716 146.973 282.716C147.819 282.716 148.572 282.602 149.232 282.373C149.901 282.145 150.477 281.814 150.959 281.383C151.992 280.46 152.508 279.237 152.508 277.714C152.508 276.284 152.076 275.128 151.213 274.248C150.282 273.3 149.059 272.826 147.544 272.826C146.19 272.826 145.305 273.046 144.891 273.486C144.814 273.562 144.726 273.601 144.624 273.601C144.472 273.601 144.396 273.499 144.396 273.296C144.396 273.228 144.4 273.152 144.408 273.067C144.425 272.983 144.442 272.881 144.459 272.763L145.31 267.202C145.369 266.847 145.424 266.627 145.475 266.542C145.559 266.381 145.724 266.301 145.97 266.301L149.601 266.402C150.836 266.402 151.602 266.335 151.898 266.199C151.949 266.174 152 266.161 152.051 266.161C152.203 266.161 152.279 266.271 152.279 266.491C152.279 266.83 152.22 267.194 152.102 267.583C151.983 267.972 151.865 268.197 151.746 268.256C151.636 268.307 151.437 268.332 151.149 268.332L146.236 268.167L145.754 271.239Z" fill="url(#paint6_linear_126_30994)"/>
<path d="M38.203 208.307C38.3572 208.219 38.508 208.303 38.6553 208.56C38.7058 208.648 38.7501 208.828 38.7883 209.098L38.8803 209.616C38.9842 210.444 39.0063 210.9 38.9466 210.983C38.8942 211.062 38.7872 211.148 38.6257 211.24C38.4641 211.333 38.0697 211.53 37.4423 211.831C36.8265 212.135 36.1698 212.487 35.4722 212.887C34.7819 213.282 34.2024 213.624 33.7335 213.912C33.2688 214.208 32.8388 214.479 32.4433 214.725C32.0521 214.978 31.7101 215.199 31.4175 215.386C31.129 215.581 30.8857 215.735 30.6874 215.848C30.4892 215.962 30.3395 215.931 30.2385 215.754C30.1417 215.586 30.1538 215.198 30.2748 214.592L31.8627 207.712C32.4155 204.966 32.2732 202.863 31.4357 201.401C30.7834 200.263 29.9474 199.528 28.9276 199.195C27.9152 198.859 26.9207 198.97 25.944 199.53C24.7545 200.212 24.003 201.164 23.6897 202.388C23.5936 202.765 23.5515 203.091 23.5634 203.367C23.5826 203.639 23.5913 203.824 23.5893 203.923C23.5947 204.018 23.5953 204.095 23.5912 204.156C23.5839 204.229 23.5436 204.286 23.4701 204.328C23.3967 204.37 23.3085 204.386 23.2056 204.377C23.0985 204.36 22.9904 204.325 22.8811 204.27C22.6248 204.164 22.4567 204.041 22.3768 203.901C22.2968 203.762 22.2536 203.601 22.247 203.419C22.2478 203.234 22.2717 203.02 22.3186 202.778C22.425 202.249 22.6443 201.704 22.9763 201.143C23.631 200.056 24.4357 199.238 25.3903 198.691C26.3522 198.14 27.2273 197.795 28.0155 197.655C28.811 197.511 29.5427 197.511 30.2105 197.655C31.5609 197.935 32.5833 198.68 33.2777 199.892C33.9427 201.052 34.1492 202.485 33.8974 204.19C33.811 204.805 33.6728 205.509 33.4828 206.301L31.7904 212.743L36.6919 209.934C37.3307 209.568 37.69 209.318 37.7696 209.185C37.8492 209.051 37.8989 208.925 37.9187 208.807C37.9687 208.554 38.0635 208.387 38.203 208.307ZM48.0433 206.047C46.2443 207.078 44.3717 207.249 42.4256 206.56C40.4438 205.842 38.8174 204.375 37.5464 202.157C36.2628 199.918 35.8211 197.683 36.2213 195.454C36.4048 194.412 36.7778 193.472 37.3405 192.632C37.8989 191.786 38.626 191.105 39.5219 190.592C41.3062 189.569 43.181 189.47 45.1462 190.295C47.0956 191.109 48.7227 192.655 50.0273 194.931C51.2983 197.148 51.743 199.303 51.3615 201.395C50.9851 203.444 49.9011 204.983 48.1094 206.009L48.0433 206.047ZM47.7241 205.133C48.3262 204.788 48.7886 204.318 49.1111 203.723C49.441 203.125 49.6197 202.432 49.647 201.646C49.7163 199.996 49.1575 198.136 47.9707 196.066C46.8007 194.024 45.4116 192.596 43.8033 191.782C42.2655 191.005 40.8944 190.961 39.6902 191.652C38.4418 192.367 37.7636 193.541 37.6555 195.174C37.5506 196.863 38.081 198.724 39.2468 200.758C40.4083 202.785 41.8295 204.209 43.5102 205.031C45.0932 205.802 46.4978 205.836 47.7241 205.133Z" fill="url(#paint7_linear_126_30994)"/>
<path d="M33.1639 90.8758C33.3145 90.9702 33.3111 91.1429 33.1537 91.3939C33.0997 91.4799 32.9622 91.6035 32.7413 91.7646L32.3276 92.0896C31.6459 92.5712 31.2544 92.8052 31.1531 92.7915C31.0589 92.7824 30.9329 92.7284 30.7752 92.6295C30.6174 92.5305 30.2581 92.2752 29.6971 91.8634C29.1389 91.4633 28.5192 91.0496 27.838 90.6224C27.1641 90.1996 26.5896 89.8493 26.1145 89.5713C25.635 89.3005 25.1935 89.0486 24.7902 88.8156C24.3824 88.5897 24.027 88.3918 23.724 88.2218C23.4166 88.0589 23.166 87.9167 22.9725 87.7953C22.7789 87.6739 22.736 87.5271 22.844 87.3551C22.9474 87.1902 23.2949 87.0185 23.8864 86.84L30.7039 85.0019C33.3868 84.197 35.1757 83.0811 36.0706 81.6543C36.7676 80.543 37.0228 79.4592 36.8361 78.403C36.6566 77.3513 36.09 76.5263 35.1364 75.9282C33.9749 75.1997 32.7807 74.9851 31.5538 75.2846C31.176 75.3773 30.8681 75.4939 30.6301 75.6344C30.3993 75.7793 30.2399 75.8742 30.152 75.9189C30.0711 75.9681 30.0029 76.0052 29.9472 76.0302C29.8799 76.0579 29.8104 76.0493 29.7387 76.0043C29.667 75.9594 29.611 75.8893 29.5708 75.7941C29.5351 75.6918 29.5155 75.5796 29.5121 75.4576C29.4857 75.1813 29.5152 74.975 29.6006 74.8387C29.686 74.7025 29.8073 74.5888 29.9645 74.4975C30.1288 74.4108 30.3285 74.3312 30.5637 74.2589C31.0807 74.1037 31.6648 74.0405 32.3161 74.0693C33.5837 74.135 34.6835 74.4602 35.6156 75.0448C36.5548 75.634 37.2715 76.2434 37.7658 76.8731C38.2671 77.5072 38.6115 78.1528 38.7988 78.8098C39.1879 80.1328 39.0114 81.3858 38.2693 82.5689C37.5588 83.7017 36.392 84.5584 34.7691 85.1389C34.1856 85.3524 33.4999 85.5617 32.7119 85.7668L26.2312 87.3067L31.0171 90.3085C31.6409 90.6998 32.0303 90.8991 32.1855 90.9065C32.3407 90.914 32.4753 90.8985 32.5893 90.8601C32.8362 90.7851 33.0277 90.7904 33.1639 90.8758ZM43.438 86.0356C44.1114 86.2681 44.8102 86.6115 45.5343 87.0657C46.2585 87.5199 46.8869 88.079 47.4197 88.7428C47.9569 89.3995 48.3357 90.1016 48.5561 90.8493C49.0228 92.4308 48.7727 93.9923 47.8058 95.5338C46.7759 97.1757 45.2448 98.1435 43.2123 98.4372C41.9982 98.6049 40.7845 98.493 39.5713 98.1017C38.9858 97.9043 38.3704 97.6032 37.7251 97.1985C36.4919 96.425 35.6175 95.4219 35.1018 94.1893C34.7265 93.2745 34.6647 92.6164 34.9166 92.2149C35.0245 92.0428 35.1804 91.9058 35.3842 91.8039C35.7595 91.6196 36.0188 91.5725 36.1622 91.6625C36.2626 91.7254 36.2882 91.9713 36.2391 92.4C36.2016 92.8261 36.2221 93.2236 36.3004 93.5924C36.386 93.9658 36.5226 94.3212 36.7105 94.6589C37.1014 95.3736 37.6554 95.9558 38.3723 96.4056C39.0893 96.8553 39.7882 97.1587 40.4688 97.3159C41.1567 97.4776 41.8196 97.5038 42.4577 97.3945C43.8226 97.1616 44.9098 96.3999 45.7193 95.1093C46.4793 93.8976 46.7275 92.6895 46.4639 91.4852C46.1788 90.1875 45.3946 89.1361 44.1112 88.3311C42.9641 87.6116 42.0979 87.328 41.5127 87.4805C41.4077 87.5046 41.3122 87.4896 41.2261 87.4356C41.0971 87.3547 41.0865 87.2282 41.1944 87.0561C41.2304 86.9987 41.2745 86.9365 41.3266 86.8693C41.3859 86.8066 41.4542 86.7295 41.5315 86.6381L45.2067 82.3795C45.4458 82.1098 45.6093 81.9526 45.6973 81.9079C45.8545 81.8167 46.037 81.8362 46.2449 81.9667L49.2669 83.982C50.3137 84.6386 50.9985 84.9882 51.3214 85.0309C51.3779 85.0364 51.4277 85.0526 51.4707 85.0796C51.5998 85.1605 51.6058 85.2942 51.4889 85.4806C51.309 85.7674 51.0654 86.0442 50.7582 86.3111C50.451 86.5779 50.2314 86.705 50.0995 86.6922C49.9793 86.6768 49.7974 86.5926 49.5536 86.4397L45.4792 83.6893L43.438 86.0356Z" fill="url(#paint8_linear_126_30994)"/>
<path d="M254.76 82.2393C255.454 82.0785 256.228 81.998 257.083 81.998C257.938 81.998 258.767 82.1377 259.571 82.417C260.375 82.6878 261.069 83.0814 261.653 83.5977C262.889 84.6895 263.507 86.1452 263.507 87.9648C263.507 89.903 262.724 91.5365 261.158 92.8652C260.219 93.6523 259.131 94.2025 257.896 94.5156C257.295 94.6595 256.613 94.7314 255.852 94.7314C254.396 94.7314 253.122 94.3464 252.03 93.5762C251.226 93.0007 250.824 92.4759 250.824 92.002C250.824 91.7988 250.883 91.5999 251.002 91.4053C251.222 91.0498 251.417 90.8721 251.586 90.8721C251.704 90.8721 251.857 91.0667 252.043 91.4561C252.238 91.8369 252.466 92.1628 252.729 92.4336C252.999 92.7044 253.304 92.9329 253.643 93.1191C254.354 93.5169 255.132 93.7158 255.979 93.7158C256.825 93.7158 257.578 93.6016 258.238 93.373C258.907 93.1445 259.482 92.8145 259.965 92.3828C260.997 91.4603 261.514 90.2373 261.514 88.7139C261.514 87.2835 261.082 86.1283 260.219 85.248C259.288 84.3001 258.065 83.8262 256.55 83.8262C255.196 83.8262 254.311 84.0462 253.896 84.4863C253.82 84.5625 253.731 84.6006 253.63 84.6006C253.478 84.6006 253.401 84.499 253.401 84.2959C253.401 84.2282 253.406 84.152 253.414 84.0674C253.431 83.9827 253.448 83.8812 253.465 83.7627L254.315 78.2021C254.375 77.8467 254.43 77.6266 254.48 77.542C254.565 77.3812 254.73 77.3008 254.976 77.3008L258.606 77.4023C259.842 77.4023 260.608 77.3346 260.904 77.1992C260.955 77.1738 261.006 77.1611 261.057 77.1611C261.209 77.1611 261.285 77.2712 261.285 77.4912C261.285 77.8298 261.226 78.1937 261.107 78.583C260.989 78.9723 260.87 79.1966 260.752 79.2559C260.642 79.3066 260.443 79.332 260.155 79.332L255.242 79.167L254.76 82.2393Z" fill="url(#paint9_linear_126_30994)"/>
<defs>
<linearGradient id="paint0_linear_126_30994" x1="137.502" y1="4.41406" x2="137.502" y2="32.2527" gradientUnits="userSpaceOnUse">
<stop stop-color="#DCBF87"/>
<stop offset="1" stop-color="#68552C"/>
</linearGradient>
<linearGradient id="paint1_linear_126_30994" x1="154.005" y1="4.48437" x2="154.005" y2="16.2512" gradientUnits="userSpaceOnUse">
<stop stop-color="#E5C68C"/>
<stop offset="1" stop-color="#7F6E4E"/>
</linearGradient>
<linearGradient id="paint2_linear_126_30994" x1="139.224" y1="18.6914" x2="139.224" y2="30.53" gradientUnits="userSpaceOnUse">
<stop stop-color="#E5C68C"/>
<stop offset="1" stop-color="#7F6E4E"/>
</linearGradient>
<linearGradient id="paint3_linear_126_30994" x1="139.108" y1="16.8984" x2="139.108" y2="4.77286" gradientUnits="userSpaceOnUse">
<stop stop-color="#E5C68C"/>
<stop offset="1" stop-color="#7F6E4E"/>
</linearGradient>
<linearGradient id="paint4_linear_126_30994" x1="153.995" y1="30.3867" x2="153.995" y2="18.5196" gradientUnits="userSpaceOnUse">
<stop stop-color="#E5C68C"/>
<stop offset="1" stop-color="#7F6E4E"/>
</linearGradient>
<linearGradient id="paint5_linear_126_30994" x1="255.481" y1="189.38" x2="269.718" y2="200.001" gradientUnits="userSpaceOnUse">
<stop stop-color="#ECC271"/>
<stop offset="1" stop-color="#7F642E"/>
</linearGradient>
<linearGradient id="paint6_linear_126_30994" x1="135.695" y1="261.414" x2="154.085" y2="264.509" gradientUnits="userSpaceOnUse">
<stop stop-color="#ECC271"/>
<stop offset="1" stop-color="#7F642E"/>
</linearGradient>
<linearGradient id="paint7_linear_126_30994" x1="20.7436" y1="195.971" x2="46.1552" y2="189.067" gradientUnits="userSpaceOnUse">
<stop stop-color="#ECC271"/>
<stop offset="1" stop-color="#7F642E"/>
</linearGradient>
<linearGradient id="paint8_linear_126_30994" x1="36.0851" y1="69.8256" x2="53.0026" y2="86.6324" gradientUnits="userSpaceOnUse">
<stop stop-color="#ECC271"/>
<stop offset="1" stop-color="#7F642E"/>
</linearGradient>
<linearGradient id="paint9_linear_126_30994" x1="249.395" y1="72.414" x2="267.393" y2="75.2674" gradientUnits="userSpaceOnUse">
<stop stop-color="#ECC271"/>
<stop offset="1" stop-color="#7F642E"/>
</linearGradient>
</defs>
</svg>
