<svg width="275" height="283" viewBox="0 0 275 283" fill="none" xmlns="http://www.w3.org/2000/svg">
<path d="M131.36 28.2527C129.789 28.2527 128.404 28.0406 127.206 27.6166C126.033 27.1675 125.11 26.5689 124.436 25.8205C123.763 25.0472 123.426 24.1742 123.426 23.2013C123.426 22.3781 123.65 21.7295 124.099 21.2556C124.574 20.7567 125.16 20.5072 125.859 20.5072C126.308 20.5072 126.707 20.607 127.056 20.8066C127.431 20.9812 127.718 21.2431 127.917 21.5923C128.142 21.9166 128.254 22.3033 128.254 22.7523C128.254 23.1514 128.167 23.4632 127.992 23.6877C127.842 23.9122 127.668 24.0993 127.468 24.249C127.268 24.3987 127.081 24.5483 126.907 24.698C126.757 24.8227 126.682 25.0223 126.682 25.2967C126.682 25.7457 126.919 26.1074 127.393 26.3818C127.892 26.6312 128.466 26.8183 129.115 26.943C129.789 27.0678 130.387 27.1301 130.911 27.1301C132.658 27.1301 133.993 26.5439 134.916 25.3715C135.864 24.1991 136.338 22.5153 136.338 20.3202C136.338 18.2497 135.864 16.6657 134.916 15.5681C133.968 14.4706 132.384 13.9218 130.163 13.9218L133.831 13.0612C135.378 13.2358 136.725 13.6723 137.873 14.3708C139.046 15.0443 139.956 15.8924 140.605 16.9152C141.254 17.9379 141.578 19.0729 141.578 20.3202C141.578 21.6672 141.167 22.9518 140.343 24.1741C139.545 25.3715 138.384 26.3568 136.862 27.1301C135.34 27.8785 133.506 28.2527 131.36 28.2527ZM129.324 13.9218V12.0818H133.831V13.9218H129.324ZM131.622 13.2108L129.452 12.7992C131.473 12.7992 132.92 12.238 133.793 11.1155C134.667 9.96799 135.103 8.39645 135.103 6.40086C135.103 5.12866 134.941 4.14334 134.617 3.44488C134.317 2.74642 133.868 2.25999 133.269 1.9856C132.695 1.68626 131.997 1.53659 131.173 1.53659C130.25 1.53659 129.477 1.67378 128.853 1.94818C128.229 2.22257 127.917 2.59675 127.917 3.0707C127.917 3.3451 128.017 3.5696 128.217 3.74422C128.416 3.91883 128.616 4.13086 128.815 4.38031C129.015 4.60482 129.115 4.95405 129.115 5.428C129.115 6.07657 128.903 6.563 128.479 6.88728C128.054 7.18662 127.593 7.33629 127.094 7.33629C126.47 7.33629 125.933 7.11179 125.484 6.66278C125.06 6.21377 124.848 5.66498 124.848 5.01641C124.848 4.29301 125.123 3.58208 125.671 2.88362C126.245 2.18516 127.069 1.59895 128.142 1.12499C129.215 0.65104 130.512 0.414062 132.034 0.414062C133.706 0.414062 135.128 0.70093 136.301 1.27466C137.499 1.8484 138.409 2.59675 139.033 3.51971C139.657 4.44268 139.969 5.428 139.969 6.47569C139.969 7.59822 139.62 8.6459 138.921 9.61876C138.247 10.5667 137.287 11.3649 136.039 12.0135C134.791 12.6371 133.319 13.0362 131.622 13.2108Z" fill="url(#paint0_linear_126_30977)"/>
<path d="M154.926 6.36779C154.926 9.30067 152.317 11.7512 149.005 11.7512C145.692 11.7512 143.083 9.30067 143.083 6.36779C143.083 3.4349 145.692 0.984375 149.005 0.984375C152.317 0.984375 154.926 3.4349 154.926 6.36779Z" fill="black" stroke="url(#paint1_linear_126_30977)"/>
<path d="M128.302 20.6107C128.302 23.5661 130.914 26.03 134.224 26.03C137.533 26.03 140.146 23.5661 140.146 20.6107C140.146 17.6553 137.533 15.1914 134.224 15.1914C130.914 15.1914 128.302 17.6553 128.302 20.6107Z" fill="black" stroke="url(#paint2_linear_126_30977)"/>
<mask id="path-4-inside-1_126_30977" fill="white">
<path fill-rule="evenodd" clip-rule="evenodd" d="M129.316 12.072C131.237 11.0383 132.525 9.13802 132.525 6.96486C132.525 4.7029 131.13 2.73657 129.078 1.73544C130.096 1.1263 131.308 0.772864 132.61 0.772864C136.215 0.772864 139.139 3.48727 139.139 6.83565C139.139 10.184 136.215 12.8984 132.61 12.8984C131.408 12.8984 130.283 12.5973 129.316 12.072Z"/>
</mask>
<path fill-rule="evenodd" clip-rule="evenodd" d="M129.316 12.072C131.237 11.0383 132.525 9.13802 132.525 6.96486C132.525 4.7029 131.13 2.73657 129.078 1.73544C130.096 1.1263 131.308 0.772864 132.61 0.772864C136.215 0.772864 139.139 3.48727 139.139 6.83565C139.139 10.184 136.215 12.8984 132.61 12.8984C131.408 12.8984 130.283 12.5973 129.316 12.072Z" fill="black"/>
<path d="M129.316 12.072L128.843 11.1914L127.214 12.0677L128.839 12.9506L129.316 12.072ZM129.078 1.73544L128.564 0.877298L126.981 1.82484L128.639 2.63416L129.078 1.73544ZM131.525 6.96486C131.525 8.72188 130.484 10.308 128.843 11.1914L129.79 12.9525C131.99 11.7686 133.525 9.55415 133.525 6.96486L131.525 6.96486ZM128.639 2.63416C130.397 3.49161 131.525 5.1369 131.525 6.96486L133.525 6.96486C133.525 4.2689 131.863 1.98153 129.516 0.836715L128.639 2.63416ZM129.591 2.59358C130.456 2.07655 131.491 1.77286 132.61 1.77286L132.61 -0.227136C131.126 -0.227136 129.737 0.176062 128.564 0.877298L129.591 2.59358ZM132.61 1.77286C135.734 1.77286 138.139 4.10805 138.139 6.83565L140.139 6.83565C140.139 2.86648 136.697 -0.227136 132.61 -0.227136L132.61 1.77286ZM138.139 6.83565C138.139 9.56325 135.734 11.8984 132.61 11.8984L132.61 13.8984C136.697 13.8984 140.139 10.8048 140.139 6.83565L138.139 6.83565ZM132.61 11.8984C131.577 11.8984 130.615 11.6397 129.794 11.1933L128.839 12.9506C129.951 13.555 131.24 13.8984 132.61 13.8984L132.61 11.8984Z" fill="url(#paint3_linear_126_30977)" mask="url(#path-4-inside-1_126_30977)"/>
<mask id="path-6-inside-2_126_30977" fill="white">
<path fill-rule="evenodd" clip-rule="evenodd" d="M153.9 25.592C151.946 24.5659 150.632 22.6487 150.632 20.453C150.632 18.2574 151.946 16.3404 153.9 15.3142C152.938 14.8088 151.821 14.5196 150.629 14.5196C147.017 14.5196 144.09 17.1761 144.09 20.4531C144.09 23.7302 147.017 26.3867 150.629 26.3867C151.821 26.3867 152.938 26.0974 153.9 25.592Z"/>
</mask>
<path fill-rule="evenodd" clip-rule="evenodd" d="M153.9 25.592C151.946 24.5659 150.632 22.6487 150.632 20.453C150.632 18.2574 151.946 16.3404 153.9 15.3142C152.938 14.8088 151.821 14.5196 150.629 14.5196C147.017 14.5196 144.09 17.1761 144.09 20.4531C144.09 23.7302 147.017 26.3867 150.629 26.3867C151.821 26.3867 152.938 26.0974 153.9 25.592Z" fill="black"/>
<path d="M153.9 25.592L154.365 24.7067L156.051 25.592L154.365 26.4773L153.9 25.592ZM153.9 15.3142L154.365 14.4289L156.05 15.3142L154.365 16.1995L153.9 15.3142ZM151.632 20.453C151.632 22.2281 152.695 23.8293 154.365 24.7067L153.435 26.4773C151.198 25.3025 149.632 23.0694 149.632 20.453L151.632 20.453ZM154.365 16.1995C152.694 17.0769 151.632 18.6781 151.632 20.453L149.632 20.453C149.632 17.8368 151.198 15.6038 153.435 14.4289L154.365 16.1995ZM153.435 16.1995C152.616 15.7693 151.658 15.5196 150.629 15.5196L150.629 13.5196C151.983 13.5196 153.26 13.8484 154.365 14.4289L153.435 16.1995ZM150.629 15.5196C147.476 15.5196 145.09 17.8176 145.09 20.4531L143.09 20.4531C143.09 16.5346 146.559 13.5196 150.629 13.5196L150.629 15.5196ZM145.09 20.4531C145.09 23.0887 147.476 25.3867 150.629 25.3867L150.629 27.3867C146.559 27.3867 143.09 24.3717 143.09 20.4531L145.09 20.4531ZM150.629 25.3867C151.658 25.3867 152.616 25.137 153.435 24.7067L154.365 26.4773C153.26 27.0579 151.983 27.3867 150.629 27.3867L150.629 25.3867Z" fill="url(#paint4_linear_126_30977)" mask="url(#path-6-inside-2_126_30977)"/>
<path d="M237.144 186.69L237.567 185.88L245.734 190.154L237.681 205.541L236.871 205.118L244.5 190.54L243.69 190.116L236.061 204.694L235.251 204.27L242.88 189.692L242.07 189.269L234.441 203.846L233.631 203.422L241.26 188.845L240.451 188.421L232.822 202.998L232.012 202.575L239.641 187.997L237.144 186.69ZM237.991 185.07L238.415 184.261L246.581 188.534L246.157 189.344L237.991 185.07ZM238.839 183.451L239.263 182.641L247.429 186.915L247.005 187.724L238.839 183.451ZM242.713 203.045C242.741 201.092 243.273 199.126 244.31 197.146C245.346 195.167 246.658 193.608 248.246 192.472C249.834 191.335 251.531 190.704 253.335 190.579C255.139 190.453 256.896 190.837 258.606 191.732C260.316 192.627 261.633 193.851 262.558 195.406C263.484 196.96 263.932 198.713 263.903 200.666C263.875 202.619 263.342 204.585 262.306 206.565C261.27 208.544 259.958 210.103 258.37 211.239C256.782 212.376 255.085 213.007 253.281 213.132C251.477 213.258 249.72 212.874 248.01 211.979C246.3 211.084 244.983 209.86 244.058 208.305C243.132 206.751 242.684 204.998 242.713 203.045ZM258.347 199.564C258.615 200.879 258.315 202.365 257.447 204.022C256.58 205.679 255.528 206.776 254.292 207.314C253.067 207.848 251.82 207.783 250.553 207.12C249.286 206.456 248.519 205.467 248.251 204.153C247.996 202.834 248.301 201.346 249.169 199.689C250.036 198.032 251.082 196.937 252.307 196.403C253.544 195.865 254.796 195.928 256.063 196.591C257.33 197.255 258.092 198.245 258.347 199.564ZM260.095 199.017C260.509 200.819 260.166 202.77 259.067 204.869C257.968 206.969 256.561 208.363 254.844 209.05C253.136 209.742 251.423 209.638 249.705 208.739C247.988 207.841 246.923 206.49 246.51 204.688C246.104 202.89 246.45 200.941 247.549 198.842C248.648 196.742 250.052 195.346 251.76 194.655C253.477 193.967 255.193 194.073 256.911 194.972C258.628 195.87 259.689 197.219 260.095 199.017ZM262.068 200.751C262.03 202.375 261.57 204.03 260.687 205.717C259.804 207.404 258.704 208.73 257.388 209.693C256.083 210.654 254.689 211.19 253.207 211.303C251.725 211.415 250.275 211.101 248.858 210.359C247.44 209.617 246.356 208.605 245.603 207.323C244.851 206.041 244.494 204.588 244.531 202.965C244.58 201.338 245.046 199.681 245.929 197.994C246.812 196.307 247.906 194.983 249.211 194.023C250.527 193.059 251.927 192.521 253.409 192.408C254.891 192.296 256.341 192.61 257.758 193.352C259.175 194.094 260.26 195.106 261.013 196.388C261.765 197.67 262.117 199.124 262.068 200.751ZM252.587 197.265C251.601 197.724 250.732 198.673 249.979 200.113C249.225 201.553 248.941 202.808 249.125 203.879C249.317 204.954 249.935 205.764 250.977 206.31C252.019 206.855 253.033 206.899 254.018 206.44C255.011 205.985 255.884 205.038 256.637 203.598C257.391 202.158 257.672 200.901 257.479 199.826C257.295 198.755 256.681 197.947 255.639 197.401C254.597 196.856 253.579 196.81 252.587 197.265ZM252.034 195.529C250.569 196.138 249.344 197.383 248.359 199.265C247.374 201.148 247.047 202.868 247.378 204.426C247.72 205.981 248.637 207.149 250.129 207.929C251.621 208.71 253.1 208.796 254.565 208.188C256.041 207.575 257.272 206.328 258.257 204.446C259.242 202.563 259.564 200.845 259.221 199.29C258.891 197.732 257.979 196.562 256.487 195.782C254.994 195.001 253.51 194.916 252.034 195.529ZM251.487 193.781C249.538 194.548 247.956 196.093 246.739 198.418C245.523 200.742 245.155 202.924 245.636 204.962C246.124 207.004 247.339 208.533 249.282 209.549C251.224 210.566 253.169 210.691 255.118 209.924C257.074 209.161 258.66 207.618 259.877 205.293C261.093 202.969 261.457 200.785 260.969 198.743C260.488 196.705 259.277 195.178 257.334 194.162C255.392 193.145 253.443 193.018 251.487 193.781ZM247.728 194.092C246.707 195.038 245.838 196.198 245.119 197.57C244.401 198.942 243.942 200.321 243.742 201.707C243.547 203.085 243.599 204.364 243.899 205.543C244.206 206.726 244.745 207.805 245.514 208.781C246.291 209.761 247.264 210.557 248.434 211.169C249.604 211.781 250.809 212.125 252.049 212.201C253.297 212.281 254.491 212.108 255.63 211.683C256.778 211.261 257.862 210.577 258.882 209.63C259.907 208.676 260.778 207.513 261.497 206.141C262.215 204.769 262.672 203.393 262.868 202.015C263.067 200.63 263.014 199.345 262.706 198.162C262.406 196.983 261.868 195.904 261.091 194.924C260.321 193.948 259.352 193.154 258.182 192.542C257.012 191.93 255.803 191.584 254.556 191.504C253.315 191.428 252.122 191.601 250.974 192.023C249.835 192.448 248.752 193.138 247.728 194.092Z" fill="url(#paint5_linear_126_30977)"/>
<path d="M125.101 264.961V264.047H134.317V281.414H133.403V264.961H132.489V281.414H131.575V264.961H130.661V281.414H129.747V264.961H128.833V281.414H127.919V264.961H125.101ZM125.101 263.133V262.219H134.317V263.133H125.101ZM125.101 261.305V260.391H134.317V261.305H125.101ZM150.796 264.047V264.961H141.465V273.822H140.551V264.961H139.637V273.822H138.723V264.961H137.809V273.822H136.895V264.047H150.796ZM150.796 262.219V263.133H136.895V262.219H150.796ZM150.796 260.391V261.305H136.895V260.391H150.796ZM143.852 275.917C145.527 275.917 146.365 275.545 146.365 274.8C146.365 274.368 146.171 274.055 145.781 273.86C145.392 273.666 144.897 273.568 144.296 273.568C143.365 273.568 142.624 273.678 142.074 273.898V272.984C142.811 272.807 143.555 272.718 144.309 272.718C144.85 272.718 145.333 272.781 145.756 272.908C146.188 273.035 146.547 273.259 146.835 273.581C147.131 273.903 147.279 274.309 147.279 274.8C147.279 275.477 146.958 275.985 146.314 276.323C145.68 276.662 144.859 276.831 143.852 276.831C142.286 276.831 141.092 276.577 140.271 276.069L141.008 275.511C141.558 275.782 142.506 275.917 143.852 275.917ZM143.852 277.745C145.104 277.745 146.141 277.487 146.962 276.971C147.783 276.454 148.193 275.731 148.193 274.8C148.193 273.852 147.838 273.124 147.127 272.616C146.416 272.1 145.553 271.842 144.537 271.842C143.758 271.842 142.938 271.939 142.074 272.134V271.169C143.115 271.042 143.94 270.979 144.55 270.979C145.819 270.979 146.894 271.321 147.774 272.007C148.663 272.684 149.107 273.615 149.107 274.8C149.107 275.993 148.608 276.937 147.609 277.631C146.611 278.316 145.358 278.659 143.852 278.659C141.702 278.659 140.035 278.177 138.85 277.212L139.573 276.653C140.58 277.381 142.007 277.745 143.852 277.745ZM143.852 279.573C145.604 279.573 147.068 279.142 148.244 278.278C149.429 277.407 150.021 276.247 150.021 274.8C150.021 273.818 149.768 272.963 149.26 272.235C148.76 271.507 148.117 270.97 147.33 270.623C146.543 270.276 145.675 270.103 144.728 270.103C143.788 270.103 142.904 270.174 142.074 270.318V269.392C143.056 269.282 143.949 269.227 144.753 269.227C145.879 269.227 146.911 269.464 147.851 269.938C148.799 270.411 149.548 271.076 150.098 271.931C150.656 272.785 150.936 273.742 150.936 274.8C150.936 275.925 150.614 276.928 149.971 277.809C149.336 278.68 148.481 279.345 147.406 279.802C146.34 280.259 145.155 280.487 143.852 280.487C142.548 280.487 141.338 280.301 140.221 279.929C139.104 279.556 138.168 279.032 137.415 278.354L138.126 277.783C138.803 278.359 139.637 278.803 140.627 279.116C141.626 279.421 142.701 279.573 143.852 279.573ZM143.852 281.401C144.943 281.401 145.976 281.245 146.949 280.932C147.931 280.61 148.782 280.166 149.501 279.599C150.22 279.032 150.792 278.333 151.215 277.504C151.638 276.674 151.85 275.773 151.85 274.8C151.85 273.835 151.655 272.938 151.266 272.108C150.876 271.279 150.36 270.593 149.717 270.052C149.074 269.502 148.341 269.074 147.521 268.77C146.708 268.465 145.87 268.312 145.007 268.312C144.567 268.312 144.199 268.325 143.902 268.351C143.606 268.368 143.272 268.406 142.899 268.465C142.527 268.516 142.252 268.549 142.074 268.566V267.627C142.904 267.508 143.898 267.449 145.058 267.449C146.065 267.449 147.034 267.627 147.965 267.982C148.896 268.329 149.717 268.816 150.428 269.442C151.139 270.06 151.706 270.835 152.129 271.766C152.552 272.697 152.764 273.708 152.764 274.8C152.764 275.9 152.527 276.924 152.053 277.872C151.587 278.812 150.952 279.607 150.148 280.259C149.344 280.902 148.396 281.406 147.305 281.77C146.221 282.133 145.07 282.315 143.852 282.315C142.269 282.315 140.792 282.066 139.421 281.566C138.058 281.076 136.916 280.386 135.993 279.497L136.729 278.951C137.567 279.73 138.604 280.335 139.84 280.767C141.084 281.19 142.421 281.401 143.852 281.401Z" fill="url(#paint6_linear_126_30977)"/>
<path d="M23.8756 211.674L23.4211 210.881L34.1712 204.72L34.6258 205.513L23.8756 211.674ZM24.7846 213.26L24.3301 212.467L35.0803 206.306L35.5348 207.099L24.7846 213.26ZM25.6937 214.846L25.2392 214.053L35.9893 207.892L36.4438 208.685L25.6937 214.846ZM24.3912 209.74L23.4659 210.27C23.5801 209.278 23.6954 208.304 23.8118 207.35C23.9281 206.396 24.0252 205.603 24.1032 204.973C24.1842 204.332 24.2606 203.708 24.3322 203.101C24.4039 202.494 24.4615 202.007 24.5052 201.641C24.5561 201.27 24.6003 200.913 24.6376 200.57C24.675 200.227 24.6998 199.964 24.7122 199.781C24.7203 199.591 24.7217 199.415 24.7162 199.252C24.7181 199.085 24.709 198.958 24.689 198.872C24.6647 198.779 24.6315 198.696 24.5895 198.622C24.3959 198.284 24.1322 198.148 23.7984 198.212C23.4647 198.277 22.9454 198.511 22.2404 198.915C21.0949 199.571 20.0357 200.379 19.0627 201.336L18.4619 200.671C18.5992 200.485 19.0029 200.117 19.673 199.567C20.3462 199.006 21.028 198.527 21.7182 198.131C22.1368 197.892 22.515 197.709 22.8528 197.584C23.1865 197.451 23.5118 197.372 23.8288 197.346C24.149 197.309 24.4382 197.363 24.6967 197.507C24.9509 197.644 25.1685 197.871 25.3495 198.187C25.5304 198.502 25.6003 198.999 25.5592 199.676C25.5181 200.353 25.3407 201.967 25.0269 204.517C24.7692 206.587 24.5573 208.327 24.3912 209.74ZM26.1865 208.711L25.2613 209.241C25.8876 203.985 26.2271 201.054 26.2798 200.448C26.3916 199.213 26.3769 198.388 26.2357 197.971C26.1988 197.856 26.1467 197.739 26.0794 197.622C25.2082 196.102 23.6198 196.003 21.3141 197.324C20.6091 197.728 19.929 198.201 19.2735 198.742C18.6181 199.284 18.1573 199.714 17.8911 200.032L17.3013 199.361C18.3339 198.252 19.5258 197.31 20.8769 196.536C21.3468 196.266 21.799 196.051 22.2334 195.89C22.6709 195.717 23.1154 195.599 23.5667 195.536C24.018 195.472 24.4395 195.484 24.8312 195.572C25.2186 195.652 25.5868 195.826 25.9357 196.095C26.2919 196.359 26.6005 196.718 26.8614 197.174C27.1307 197.644 27.2382 198.367 27.1838 199.345C27.1295 200.322 26.8437 203.032 26.3267 207.474C26.2623 208.009 26.2156 208.421 26.1865 208.711ZM28.026 207.656L27.1007 208.187C27.6435 203.33 27.943 200.329 27.9993 199.185C28.0514 198.033 27.9154 197.174 27.5913 196.609C27.1957 195.919 26.719 195.402 26.1611 195.058C25.6106 194.71 25.013 194.536 24.3685 194.535C23.7312 194.529 23.0868 194.63 22.4352 194.838C21.7909 195.041 21.1163 195.345 20.4113 195.749C19.0529 196.528 17.8159 197.51 16.7005 198.695L16.0744 197.986C17.2769 196.731 18.5537 195.716 19.9048 194.942C20.5657 194.563 21.2062 194.259 21.8263 194.031C22.4464 193.802 23.0714 193.659 23.7012 193.6C24.3341 193.53 24.922 193.569 25.465 193.716C26.0152 193.859 26.5447 194.136 27.0533 194.547C27.5577 194.95 28.0014 195.486 28.3844 196.155C28.6579 196.632 28.824 197.185 28.8825 197.815C28.9442 198.433 28.913 199.451 28.7888 200.869C28.672 202.282 28.4177 204.544 28.026 207.656ZM29.9315 206.564L29.0062 207.094C29.3814 204.158 29.6196 201.978 29.7206 200.554C29.8248 199.119 29.8318 198.076 29.7418 197.425C29.6475 196.767 29.4383 196.155 29.1143 195.59C28.7018 194.87 28.2192 194.283 27.6665 193.83C27.1168 193.364 26.5301 193.047 25.9064 192.878C25.2857 192.697 24.6222 192.628 23.9157 192.672C23.2093 192.716 22.4898 192.865 21.7574 193.119C21.0324 193.369 20.288 193.713 19.5243 194.15C18.1145 194.958 16.7721 196.02 15.4973 197.336L14.8839 196.649C16.1765 195.313 17.5645 194.22 19.0478 193.37C20.1492 192.739 21.2136 192.29 22.241 192.023C23.2715 191.744 24.254 191.654 25.1884 191.753C26.1302 191.847 27.004 192.18 27.81 192.752C28.6232 193.32 29.3223 194.115 29.9073 195.135C30.2777 195.782 30.5205 196.452 30.6358 197.147C30.7585 197.837 30.7683 198.91 30.6652 200.364C30.5694 201.814 30.3248 203.88 29.9315 206.564ZM37.5984 202.785C35.9677 201.71 34.5969 200.203 33.4858 198.264C32.3748 196.326 31.7676 194.381 31.6643 192.431C31.561 190.481 31.9419 188.711 32.807 187.123C33.6721 185.534 34.9417 184.261 36.6159 183.301C38.2901 182.341 40.0311 181.89 41.8389 181.946C43.6467 182.003 45.3659 182.569 46.9965 183.644C48.6271 184.718 49.998 186.225 51.109 188.164C52.2201 190.102 52.8273 192.047 52.9306 193.997C53.0338 195.948 52.6529 197.717 51.7879 199.305C50.9228 200.894 49.6532 202.168 47.979 203.127C46.3048 204.087 44.5638 204.538 42.756 204.482C40.9482 204.425 39.229 203.86 37.5984 202.785ZM43.0777 187.733C44.3297 188.216 45.4207 189.268 46.3508 190.891C47.2809 192.514 47.6397 193.991 47.4272 195.322C47.2179 196.642 46.4928 197.658 45.2518 198.369C44.0109 199.08 42.7644 199.195 41.5124 198.712C40.2636 198.218 39.1742 197.16 38.2441 195.537C37.314 193.914 36.9536 192.443 37.1629 191.123C37.3754 189.792 38.1021 188.771 39.343 188.059C40.584 187.348 41.8289 187.239 43.0777 187.733ZM43.5573 185.966C45.2986 186.587 46.7585 187.926 47.9369 189.982C49.1153 192.038 49.5324 193.974 49.1883 195.791C48.8516 197.603 47.8424 198.991 46.1609 199.955C44.4793 200.919 42.7679 201.09 41.0266 200.469C39.2926 199.843 37.8364 198.502 36.658 196.446C35.4796 194.39 35.0588 192.456 35.3955 190.644C35.7396 188.827 36.7524 187.437 38.434 186.473C40.1155 185.509 41.8233 185.34 43.5573 185.966ZM46.0805 185.237C47.4286 186.142 48.576 187.421 49.523 189.073C50.4699 190.725 50.9953 192.365 51.0992 193.993C51.2063 195.61 50.9084 197.073 50.2057 198.383C49.503 199.693 48.4577 200.746 47.0699 201.541C45.6821 202.336 44.2454 202.706 42.7599 202.65C41.2744 202.595 39.8577 202.114 38.5096 201.209C37.1647 200.292 36.0188 199.007 35.0719 197.355C34.125 195.703 33.598 194.069 33.491 192.452C33.387 190.824 33.6864 189.355 34.3891 188.045C35.0919 186.735 36.1371 185.682 37.525 184.887C38.9128 184.092 40.3494 183.722 41.8349 183.778C43.3205 183.834 44.7356 184.32 46.0805 185.237ZM38.0403 191.352C37.8968 192.429 38.2291 193.673 39.0371 195.083C39.8452 196.492 40.7502 197.408 41.7522 197.829C42.7616 198.245 43.7766 198.161 44.7973 197.576C45.818 196.991 46.4001 196.16 46.5435 195.082C46.6944 194.001 46.3658 192.755 45.5577 191.345C44.7497 189.936 43.841 189.022 42.8316 188.606C41.8296 188.185 40.8182 188.267 39.7976 188.852C38.7769 189.437 38.1911 190.271 38.0403 191.352ZM36.2792 190.883C36.0041 192.446 36.3947 194.149 37.451 195.992C38.5074 197.835 39.7813 199.036 41.2727 199.596C42.7672 200.144 44.2451 199.999 45.7063 199.162C47.1676 198.324 48.0358 197.124 48.3109 195.562C48.5892 193.988 48.2002 192.28 47.1438 190.436C46.0875 188.593 44.812 187.398 43.3175 186.85C41.8261 186.29 40.3498 186.429 38.8885 187.266C37.4273 188.104 36.5575 189.309 36.2792 190.883ZM34.5118 190.404C34.1093 192.459 34.5603 194.624 35.865 196.901C37.1696 199.177 38.8102 200.661 40.7868 201.352C42.7707 202.039 44.7136 201.838 46.6154 200.748C48.5172 199.658 49.6694 198.085 50.072 196.031C50.4819 193.971 50.0346 191.804 48.7299 189.527C47.4253 187.251 45.781 185.769 43.7971 185.082C41.8205 184.391 39.8813 184.59 37.9795 185.68C36.0776 186.77 34.9218 188.345 34.5118 190.404ZM32.7509 193.74C32.9994 195.109 33.5087 196.466 34.2789 197.81C35.049 199.154 35.9643 200.282 37.0247 201.196C38.0809 202.103 39.1866 202.747 40.3419 203.129C41.5044 203.507 42.704 203.634 43.9404 203.51C45.1843 203.383 46.3789 202.991 47.5244 202.334C48.6699 201.678 49.6084 200.847 50.3399 199.842C51.0787 198.834 51.5754 197.735 51.83 196.545C52.0919 195.351 52.0987 194.069 51.8502 192.699C51.5976 191.322 51.0862 189.962 50.316 188.618C49.5458 187.275 48.6327 186.149 47.5765 185.243C46.5161 184.329 45.4046 183.683 44.242 183.305C43.0868 182.924 41.8872 182.797 40.6434 182.924C39.4069 183.048 38.2159 183.438 37.0704 184.094C35.9249 184.751 34.9828 185.583 34.244 186.592C33.5125 187.596 33.0158 188.696 32.7539 189.89C32.4992 191.079 32.4983 192.363 32.7509 193.74Z" fill="url(#paint7_linear_126_30977)"/>
<path d="M17.8833 84.5059L18.369 83.7316L28.8657 90.3154L28.38 91.0898L17.8833 84.5059ZM16.9119 86.0546L17.3976 85.2803L27.8943 91.8641L27.4086 92.6385L16.9119 86.0546ZM15.9405 87.6033L16.4262 86.829L26.9229 93.4128L26.4372 94.1872L15.9405 87.6033ZM19.8326 84.0502L18.9292 83.4835C19.8583 83.1172 20.7713 82.7607 21.668 82.4141C22.5648 82.0674 23.3095 81.7802 23.9019 81.5523C24.5061 81.3218 25.0927 81.0954 25.6619 80.8729C26.231 80.6504 26.6875 80.4722 27.0313 80.3381C27.3823 80.2086 27.718 80.0795 28.0385 79.9508C28.359 79.8222 28.6027 79.7203 28.7697 79.6452C28.9412 79.5629 29.0974 79.4811 29.2384 79.3997C29.3866 79.3228 29.4939 79.2552 29.5604 79.197C29.6313 79.1316 29.6893 79.0631 29.7343 78.9914C29.9411 78.6616 29.9376 78.3646 29.7236 78.1005C29.5096 77.8364 29.0585 77.4885 28.3701 77.0568C27.2516 76.3552 26.041 75.8006 24.7381 75.3931L25.0422 74.5498C25.2709 74.5833 25.7856 74.7663 26.5862 75.0986C27.3985 75.4283 28.1416 75.8045 28.8156 76.2272C29.2242 76.4835 29.5634 76.7312 29.8331 76.9703C30.1072 77.2022 30.3302 77.452 30.502 77.7196C30.6855 77.9845 30.7743 78.265 30.7685 78.5611C30.7671 78.8499 30.6697 79.1485 30.4764 79.4568C30.283 79.7651 29.8779 80.0606 29.2611 80.3431C28.6443 80.6256 27.1371 81.2287 24.7394 82.1525C22.7923 82.8994 21.1567 83.532 19.8326 84.0502ZM21.5856 85.1497L20.6822 84.5831C25.6141 82.6612 28.3598 81.581 28.9191 81.3424C30.061 80.8597 30.7825 80.4581 31.0835 80.1374C31.168 80.0505 31.2462 79.9497 31.3182 79.835C32.2491 78.3508 31.5889 76.9027 29.3375 75.4906C28.6492 75.0589 27.9119 74.6813 27.1257 74.358C26.3394 74.0347 25.7431 73.8305 25.3369 73.7455L25.6517 72.909C27.1161 73.298 28.508 73.9063 29.8272 74.7337C30.2861 75.0216 30.6889 75.3191 31.0356 75.6265C31.3939 75.9312 31.7074 76.2677 31.976 76.636C32.2445 77.0042 32.4323 77.3818 32.5393 77.7686C32.6509 78.1483 32.6704 78.5551 32.5979 78.9892C32.5326 79.4278 32.3606 79.8694 32.0818 80.3139C31.7939 80.7728 31.2061 81.2083 30.3181 81.6205C29.4302 82.0326 26.9049 83.0563 22.7423 84.6914C22.2405 84.8861 21.8549 85.0389 21.5856 85.1497ZM23.3817 86.2763L22.4783 85.7096C27.0189 83.902 29.8072 82.7536 30.8433 82.2646C31.8839 81.7683 32.5773 81.2442 32.9236 80.6921C33.3463 80.0181 33.5779 79.3542 33.6184 78.7002C33.6661 78.0508 33.5388 77.4414 33.2365 76.8721C32.9413 76.3074 32.5488 75.7864 32.0588 75.3092C31.576 74.8366 30.9905 74.3844 30.3022 73.9526C28.9757 73.1207 27.527 72.4917 25.9559 72.0657L26.287 71.1795C27.9603 71.6495 29.4566 72.2983 30.7758 73.1258C31.4211 73.5305 31.9906 73.9527 32.4842 74.3921C32.9778 74.8316 33.3987 75.3154 33.7468 75.8435C34.1066 76.3689 34.3493 76.9058 34.475 77.4541C34.6077 78.007 34.6126 78.6045 34.4896 79.2466C34.371 79.8816 34.1072 80.5253 33.6979 81.1778C33.4056 81.6438 32.9954 82.0509 32.4673 82.399C31.9509 82.7445 31.0383 83.1961 29.7293 83.7538C28.4276 84.316 26.3117 85.1568 23.3817 86.2763ZM25.2423 87.4433L24.3388 86.8766C27.1064 85.8251 29.142 85.0089 30.4455 84.4278C31.7608 83.8441 32.6842 83.3593 33.216 82.9735C33.7522 82.5805 34.1934 82.108 34.5397 81.5559C34.9804 80.8533 35.2709 80.1513 35.4111 79.4499C35.5629 78.7459 35.5667 78.0789 35.4223 77.4489C35.2897 76.8162 35.0377 76.1986 34.6663 75.596C34.295 74.9934 33.8249 74.4288 33.2561 73.9022C32.6944 73.3801 32.0407 72.8851 31.2951 72.4174C29.9184 71.554 28.3495 70.8697 26.5884 70.3644L26.906 69.4997C28.6932 70.0112 30.3109 70.7212 31.7592 71.6296C32.8347 72.3042 33.732 73.0318 34.4512 73.8126C35.182 74.5907 35.7239 75.4151 36.0769 76.2859C36.437 77.1612 36.5544 78.089 36.429 79.0694C36.3108 80.0543 35.9392 81.045 35.3141 82.0416C34.9183 82.6726 34.4411 83.2024 33.8824 83.6313C33.3308 84.0646 32.3894 84.5781 31.058 85.1716C29.7337 85.7697 27.7952 86.5269 25.2423 87.4433ZM50.1629 88.5678L49.6772 89.3422L41.7724 84.3841L37.0639 91.8909L36.2895 91.4052L40.998 83.8984L40.2237 83.4127L35.5152 90.9195L34.7408 90.4338L39.4493 82.927L38.675 82.4413L33.9665 89.9481L33.1921 89.4625L38.3863 81.1812L50.1629 88.5678ZM51.1342 87.0191L50.6485 87.7935L38.872 80.4069L39.3577 79.6325L51.1342 87.0191ZM52.1056 85.4704L51.6199 86.2448L39.8434 78.8582L40.3291 78.0839L52.1056 85.4704ZM37.9727 94.9337C39.3923 95.8241 40.3 95.9538 40.6958 95.3229C40.9251 94.9572 40.9266 94.5885 40.7003 94.2167C40.4739 93.845 40.1062 93.4994 39.5971 93.1801C38.8084 92.6854 38.1226 92.3851 37.5396 92.2792L38.0253 91.5049C38.7435 91.7456 39.4217 92.066 40.0598 92.4663C40.5187 92.7541 40.8936 93.0642 41.1847 93.3966C41.4829 93.7335 41.6684 94.1147 41.7413 94.54C41.8214 94.9699 41.731 95.3927 41.4701 95.8086C41.1104 96.3822 40.5681 96.6415 39.8433 96.5865C39.1257 96.536 38.3402 96.2432 37.487 95.708C36.1606 94.876 35.2846 94.0268 34.8589 93.1604L35.7795 93.0785C36.1016 93.6002 36.8327 94.2186 37.9727 94.9337ZM37.0013 96.4823C38.0625 97.1479 39.0779 97.4801 40.0477 97.479C41.0176 97.4779 41.7498 97.083 42.2445 96.2943C42.7482 95.4912 42.8338 94.6858 42.5013 93.8778C42.1734 93.0627 41.5792 92.3853 40.7189 91.8456C40.0592 91.4319 39.312 91.0781 38.4773 90.7843L38.9899 89.967C39.9393 90.4126 40.6721 90.7973 41.1883 91.121C42.2638 91.7956 42.9922 92.6571 43.3736 93.7056C43.7667 94.7514 43.6484 95.7762 43.0188 96.78C42.3847 97.7909 41.4603 98.325 40.2455 98.3823C39.0351 98.4324 37.7919 98.0572 36.5156 97.2567C34.6945 96.1144 33.5384 94.8198 33.0472 93.3728L33.9571 93.2841C34.4235 94.4359 35.4383 95.502 37.0013 96.4823ZM36.0299 98.031C37.5141 98.962 38.9838 99.3743 40.4392 99.2681C41.9062 99.1592 43.0242 98.4917 43.7932 97.2657C44.3148 96.434 44.554 95.5749 44.5105 94.6884C44.4743 93.8065 44.2149 93.0094 43.7325 92.2972C43.2501 91.585 42.6074 90.9771 41.8043 90.4734C41.0085 89.9742 40.221 89.5652 39.4419 89.2464L39.9343 88.4613C40.8245 88.8897 41.6102 89.3176 42.2913 89.7448C43.2449 90.3429 43.9937 91.0923 44.5377 91.993C45.0889 92.8982 45.3704 93.8591 45.3822 94.8755C45.4012 95.8965 45.1297 96.8551 44.5675 97.7513C43.9694 98.7049 43.164 99.3837 42.1514 99.7876C41.1505 100.189 40.0733 100.297 38.9199 100.113C37.7736 99.934 36.6484 99.498 35.5442 98.8054C34.4401 98.1128 33.5137 97.312 32.7652 96.4029C32.0166 95.4938 31.5032 94.5523 31.2248 93.5785L32.1307 93.4723C32.3985 94.3196 32.8686 95.139 33.5411 95.9305C34.2252 96.7192 35.0548 97.4194 36.0299 98.031ZM35.0586 99.5797C35.9835 100.16 36.9414 100.576 37.9323 100.828C38.9349 101.077 39.8916 101.153 40.8023 101.054C41.7131 100.956 42.5681 100.668 43.3673 100.191C44.1665 99.7127 44.8247 99.0616 45.3419 98.237C45.8545 97.4197 46.1663 96.5562 46.2772 95.6467C46.3882 94.7372 46.3151 93.8821 46.058 93.0815C45.8054 92.2736 45.4123 91.5225 44.8787 90.8282C44.3523 90.1384 43.7234 89.5641 42.9921 89.1054C42.6193 88.8715 42.3006 88.6867 42.0362 88.5508C41.7762 88.4077 41.4728 88.2623 41.1258 88.1146C40.7834 87.9598 40.5324 87.8423 40.3728 87.7622L40.872 86.9664C41.6376 87.3067 42.5115 87.7849 43.4938 88.401C44.347 88.9362 45.0735 89.6017 45.6734 90.3975C46.2777 91.1862 46.7145 92.0347 46.984 92.943C47.258 93.8441 47.3269 94.8015 47.1907 95.815C47.0545 96.8286 46.6963 97.7978 46.1162 98.7227C45.5316 99.6548 44.7867 100.396 43.8815 100.948C42.988 101.496 42.0275 101.833 41.0001 101.958C39.9771 102.075 38.9065 101.998 37.7882 101.726C36.6771 101.459 35.6053 101.002 34.5729 100.354C33.2321 99.5131 32.1136 98.5169 31.2174 97.3653C30.3239 96.2254 29.7225 95.0339 29.4132 93.7909L30.327 93.7197C30.6231 94.8245 31.1799 95.8881 31.9973 96.9103C32.8264 97.9299 33.8468 98.8197 35.0586 99.5797Z" fill="url(#paint8_linear_126_30977)"/>
<path d="M258.748 76.0469V76.9609H249.417V85.8223H248.503V76.9609H247.589V85.8223H246.675V76.9609H245.761V85.8223H244.847V76.0469H258.748ZM258.748 74.2188V75.1328H244.847V74.2188H258.748ZM258.748 72.3906V73.3047H244.847V72.3906H258.748ZM251.804 87.917C253.479 87.917 254.317 87.5446 254.317 86.7998C254.317 86.3682 254.123 86.055 253.733 85.8604C253.344 85.6657 252.849 85.5684 252.248 85.5684C251.317 85.5684 250.576 85.6784 250.026 85.8984V84.9844C250.763 84.8066 251.507 84.7178 252.261 84.7178C252.802 84.7178 253.285 84.7812 253.708 84.9082C254.14 85.0352 254.499 85.2594 254.787 85.5811C255.083 85.9027 255.231 86.3089 255.231 86.7998C255.231 87.4769 254.91 87.9847 254.267 88.3232C253.632 88.6618 252.811 88.8311 251.804 88.8311C250.238 88.8311 249.045 88.5771 248.224 88.0693L248.96 87.5107C249.51 87.7816 250.458 87.917 251.804 87.917ZM251.804 89.7451C253.056 89.7451 254.093 89.487 254.914 88.9707C255.735 88.4544 256.146 87.7308 256.146 86.7998C256.146 85.8519 255.79 85.124 255.079 84.6162C254.368 84.0999 253.505 83.8418 252.489 83.8418C251.711 83.8418 250.89 83.9391 250.026 84.1338V83.1689C251.067 83.042 251.893 82.9785 252.502 82.9785C253.771 82.9785 254.846 83.3213 255.727 84.0068C256.615 84.6839 257.06 85.6149 257.06 86.7998C257.06 87.9932 256.56 88.9368 255.562 89.6309C254.563 90.3164 253.31 90.6592 251.804 90.6592C249.654 90.6592 247.987 90.1768 246.802 89.2119L247.525 88.6533C248.533 89.3812 249.959 89.7451 251.804 89.7451ZM251.804 91.5732C253.556 91.5732 255.02 91.1416 256.196 90.2783C257.381 89.4066 257.974 88.2471 257.974 86.7998C257.974 85.818 257.72 84.9632 257.212 84.2354C256.713 83.5075 256.069 82.9701 255.282 82.623C254.495 82.276 253.628 82.1025 252.68 82.1025C251.74 82.1025 250.856 82.1745 250.026 82.3184V81.3916C251.008 81.2816 251.901 81.2266 252.705 81.2266C253.831 81.2266 254.863 81.4635 255.803 81.9375C256.751 82.4115 257.5 83.0758 258.05 83.9307C258.608 84.7855 258.888 85.7419 258.888 86.7998C258.888 87.9255 258.566 88.9284 257.923 89.8086C257.288 90.6803 256.433 91.3447 255.358 91.8018C254.292 92.2588 253.107 92.4873 251.804 92.4873C250.5 92.4873 249.29 92.3011 248.173 91.9287C247.056 91.5563 246.12 91.0316 245.367 90.3545L246.078 89.7832C246.755 90.3587 247.589 90.8031 248.579 91.1162C249.578 91.4209 250.653 91.5732 251.804 91.5732ZM251.804 93.4014C252.896 93.4014 253.928 93.2448 254.901 92.9316C255.883 92.61 256.734 92.1657 257.453 91.5986C258.173 91.0316 258.744 90.3333 259.167 89.5039C259.59 88.6745 259.802 87.7731 259.802 86.7998C259.802 85.835 259.607 84.9378 259.218 84.1084C258.828 83.279 258.312 82.5934 257.669 82.0518C257.026 81.5016 256.294 81.0742 255.473 80.7695C254.66 80.4648 253.822 80.3125 252.959 80.3125C252.519 80.3125 252.151 80.3252 251.854 80.3506C251.558 80.3675 251.224 80.4056 250.852 80.4648C250.479 80.5156 250.204 80.5495 250.026 80.5664V79.627C250.856 79.5085 251.85 79.4492 253.01 79.4492C254.017 79.4492 254.986 79.627 255.917 79.9824C256.848 80.3294 257.669 80.8161 258.38 81.4424C259.091 82.0602 259.658 82.8346 260.081 83.7656C260.504 84.6966 260.716 85.708 260.716 86.7998C260.716 87.9001 260.479 88.9242 260.005 89.8721C259.539 90.8115 258.905 91.6071 258.101 92.2588C257.297 92.902 256.349 93.4056 255.257 93.7695C254.174 94.1335 253.022 94.3154 251.804 94.3154C250.221 94.3154 248.744 94.0658 247.373 93.5664C246.01 93.0755 244.868 92.3857 243.945 91.4971L244.682 90.9512C245.52 91.7298 246.556 92.335 247.792 92.7666C249.036 93.1898 250.373 93.4014 251.804 93.4014Z" fill="url(#paint9_linear_126_30977)"/>
<defs>
<linearGradient id="paint0_linear_126_30977" x1="132.502" y1="0.414062" x2="132.502" y2="28.2527" gradientUnits="userSpaceOnUse">
<stop stop-color="#DCBF87"/>
<stop offset="1" stop-color="#68552C"/>
</linearGradient>
<linearGradient id="paint1_linear_126_30977" x1="149.005" y1="0.484375" x2="149.005" y2="12.2512" gradientUnits="userSpaceOnUse">
<stop stop-color="#E5C68C"/>
<stop offset="1" stop-color="#7F6E4E"/>
</linearGradient>
<linearGradient id="paint2_linear_126_30977" x1="134.224" y1="14.6914" x2="134.224" y2="26.53" gradientUnits="userSpaceOnUse">
<stop stop-color="#E5C68C"/>
<stop offset="1" stop-color="#7F6E4E"/>
</linearGradient>
<linearGradient id="paint3_linear_126_30977" x1="134.108" y1="12.8984" x2="134.108" y2="0.772864" gradientUnits="userSpaceOnUse">
<stop stop-color="#E5C68C"/>
<stop offset="1" stop-color="#7F6E4E"/>
</linearGradient>
<linearGradient id="paint4_linear_126_30977" x1="148.995" y1="26.3867" x2="148.995" y2="14.5196" gradientUnits="userSpaceOnUse">
<stop stop-color="#E5C68C"/>
<stop offset="1" stop-color="#7F6E4E"/>
</linearGradient>
<linearGradient id="paint5_linear_126_30977" x1="250.481" y1="178.38" x2="264.718" y2="189.001" gradientUnits="userSpaceOnUse">
<stop stop-color="#ECC271"/>
<stop offset="1" stop-color="#7F642E"/>
</linearGradient>
<linearGradient id="paint6_linear_126_30977" x1="130.695" y1="251.414" x2="149.085" y2="254.509" gradientUnits="userSpaceOnUse">
<stop stop-color="#ECC271"/>
<stop offset="1" stop-color="#7F642E"/>
</linearGradient>
<linearGradient id="paint7_linear_126_30977" x1="15.7436" y1="185.971" x2="41.1552" y2="179.067" gradientUnits="userSpaceOnUse">
<stop stop-color="#ECC271"/>
<stop offset="1" stop-color="#7F642E"/>
</linearGradient>
<linearGradient id="paint8_linear_126_30977" x1="36.0851" y1="64.8256" x2="53.0026" y2="81.6324" gradientUnits="userSpaceOnUse">
<stop stop-color="#ECC271"/>
<stop offset="1" stop-color="#7F642E"/>
</linearGradient>
<linearGradient id="paint9_linear_126_30977" x1="244.395" y1="63.414" x2="262.393" y2="66.2674" gradientUnits="userSpaceOnUse">
<stop stop-color="#ECC271"/>
<stop offset="1" stop-color="#7F642E"/>
</linearGradient>
</defs>
</svg>
