<svg width="291" height="291" viewBox="0 0 291 291" fill="none" xmlns="http://www.w3.org/2000/svg">
<path d="M135.36 32.2527C133.789 32.2527 132.404 32.0406 131.206 31.6166C130.033 31.1675 129.11 30.5689 128.436 29.8205C127.763 29.0472 127.426 28.1742 127.426 27.2013C127.426 26.3781 127.65 25.7295 128.099 25.2556C128.574 24.7567 129.16 24.5072 129.859 24.5072C130.308 24.5072 130.707 24.607 131.056 24.8066C131.431 24.9812 131.718 25.2431 131.917 25.5923C132.142 25.9166 132.254 26.3033 132.254 26.7523C132.254 27.1514 132.167 27.4632 131.992 27.6877C131.842 27.9122 131.668 28.0993 131.468 28.249C131.268 28.3987 131.081 28.5483 130.907 28.698C130.757 28.8227 130.682 29.0223 130.682 29.2967C130.682 29.7457 130.919 30.1074 131.393 30.3818C131.892 30.6312 132.466 30.8183 133.115 30.943C133.789 31.0678 134.387 31.1301 134.911 31.1301C136.658 31.1301 137.993 30.5439 138.916 29.3715C139.864 28.1991 140.338 26.5153 140.338 24.3202C140.338 22.2497 139.864 20.6657 138.916 19.5681C137.968 18.4706 136.384 17.9218 134.163 17.9218L137.831 17.0612C139.378 17.2358 140.725 17.6723 141.873 18.3708C143.046 19.0443 143.956 19.8924 144.605 20.9152C145.254 21.9379 145.578 23.0729 145.578 24.3202C145.578 25.6672 145.167 26.9518 144.343 28.1741C143.545 29.3715 142.384 30.3568 140.862 31.1301C139.34 31.8785 137.506 32.2527 135.36 32.2527ZM133.324 17.9218V16.0818H137.831V17.9218H133.324ZM135.622 17.2108L133.452 16.7992C135.473 16.7992 136.92 16.238 137.793 15.1155C138.667 13.968 139.103 12.3965 139.103 10.4009C139.103 9.12866 138.941 8.14334 138.617 7.44488C138.317 6.74642 137.868 6.25999 137.269 5.9856C136.695 5.68626 135.997 5.53659 135.173 5.53659C134.25 5.53659 133.477 5.67378 132.853 5.94818C132.229 6.22257 131.917 6.59675 131.917 7.0707C131.917 7.3451 132.017 7.5696 132.217 7.74422C132.416 7.91883 132.616 8.13086 132.815 8.38031C133.015 8.60482 133.115 8.95405 133.115 9.428C133.115 10.0766 132.903 10.563 132.479 10.8873C132.054 11.1866 131.593 11.3363 131.094 11.3363C130.47 11.3363 129.933 11.1118 129.484 10.6628C129.06 10.2138 128.848 9.66498 128.848 9.01641C128.848 8.29301 129.123 7.58208 129.671 6.88362C130.245 6.18516 131.069 5.59895 132.142 5.12499C133.215 4.65104 134.512 4.41406 136.034 4.41406C137.706 4.41406 139.128 4.70093 140.301 5.27466C141.499 5.8484 142.409 6.59675 143.033 7.51971C143.657 8.44268 143.969 9.428 143.969 10.4757C143.969 11.5982 143.62 12.6459 142.921 13.6188C142.247 14.5667 141.287 15.3649 140.039 16.0135C138.791 16.6371 137.319 17.0362 135.622 17.2108Z" fill="url(#paint0_linear_126_30975)"/>
<path d="M158.926 10.3678C158.926 13.3007 156.317 15.7512 153.005 15.7512C149.692 15.7512 147.083 13.3007 147.083 10.3678C147.083 7.4349 149.692 4.98438 153.005 4.98438C156.317 4.98438 158.926 7.4349 158.926 10.3678Z" fill="black" stroke="url(#paint1_linear_126_30975)"/>
<path d="M132.302 24.6107C132.302 27.5661 134.914 30.03 138.224 30.03C141.533 30.03 144.146 27.5661 144.146 24.6107C144.146 21.6553 141.533 19.1914 138.224 19.1914C134.914 19.1914 132.302 21.6553 132.302 24.6107Z" fill="black" stroke="url(#paint2_linear_126_30975)"/>
<mask id="path-4-inside-1_126_30975" fill="white">
<path fill-rule="evenodd" clip-rule="evenodd" d="M133.316 16.072C135.237 15.0383 136.525 13.138 136.525 10.9649C136.525 8.7029 135.13 6.73657 133.078 5.73544C134.096 5.1263 135.308 4.77286 136.61 4.77286C140.215 4.77286 143.139 7.48727 143.139 10.8357C143.139 14.184 140.215 16.8984 136.61 16.8984C135.408 16.8984 134.283 16.5973 133.316 16.072Z"/>
</mask>
<path fill-rule="evenodd" clip-rule="evenodd" d="M133.316 16.072C135.237 15.0383 136.525 13.138 136.525 10.9649C136.525 8.7029 135.13 6.73657 133.078 5.73544C134.096 5.1263 135.308 4.77286 136.61 4.77286C140.215 4.77286 143.139 7.48727 143.139 10.8357C143.139 14.184 140.215 16.8984 136.61 16.8984C135.408 16.8984 134.283 16.5973 133.316 16.072Z" fill="black"/>
<path d="M133.316 16.072L132.843 15.1914L131.214 16.0677L132.839 16.9506L133.316 16.072ZM133.078 5.73544L132.564 4.8773L130.981 5.82484L132.639 6.63416L133.078 5.73544ZM135.525 10.9649C135.525 12.7219 134.484 14.308 132.843 15.1914L133.79 16.9525C135.99 15.7686 137.525 13.5542 137.525 10.9649L135.525 10.9649ZM132.639 6.63416C134.397 7.49161 135.525 9.1369 135.525 10.9649L137.525 10.9649C137.525 8.2689 135.863 5.98153 133.516 4.83671L132.639 6.63416ZM133.591 6.59358C134.456 6.07655 135.491 5.77286 136.61 5.77286L136.61 3.77286C135.126 3.77286 133.737 4.17606 132.564 4.8773L133.591 6.59358ZM136.61 5.77286C139.734 5.77286 142.139 8.10805 142.139 10.8357L144.139 10.8357C144.139 6.86648 140.697 3.77286 136.61 3.77286L136.61 5.77286ZM142.139 10.8357C142.139 13.5633 139.734 15.8984 136.61 15.8984L136.61 17.8984C140.697 17.8984 144.139 14.8048 144.139 10.8357L142.139 10.8357ZM136.61 15.8984C135.577 15.8984 134.615 15.6397 133.794 15.1933L132.839 16.9506C133.951 17.555 135.24 17.8984 136.61 17.8984L136.61 15.8984Z" fill="url(#paint3_linear_126_30975)" mask="url(#path-4-inside-1_126_30975)"/>
<mask id="path-6-inside-2_126_30975" fill="white">
<path fill-rule="evenodd" clip-rule="evenodd" d="M157.9 29.592C155.946 28.5659 154.632 26.6487 154.632 24.453C154.632 22.2574 155.946 20.3404 157.9 19.3142C156.938 18.8088 155.821 18.5196 154.629 18.5196C151.017 18.5196 148.09 21.1761 148.09 24.4531C148.09 27.7302 151.017 30.3867 154.629 30.3867C155.821 30.3867 156.938 30.0974 157.9 29.592Z"/>
</mask>
<path fill-rule="evenodd" clip-rule="evenodd" d="M157.9 29.592C155.946 28.5659 154.632 26.6487 154.632 24.453C154.632 22.2574 155.946 20.3404 157.9 19.3142C156.938 18.8088 155.821 18.5196 154.629 18.5196C151.017 18.5196 148.09 21.1761 148.09 24.4531C148.09 27.7302 151.017 30.3867 154.629 30.3867C155.821 30.3867 156.938 30.0974 157.9 29.592Z" fill="black"/>
<path d="M157.9 29.592L158.365 28.7067L160.051 29.592L158.365 30.4773L157.9 29.592ZM157.9 19.3142L158.365 18.4289L160.05 19.3142L158.365 20.1995L157.9 19.3142ZM155.632 24.453C155.632 26.2281 156.695 27.8293 158.365 28.7067L157.435 30.4773C155.198 29.3025 153.632 27.0694 153.632 24.453L155.632 24.453ZM158.365 20.1995C156.694 21.0769 155.632 22.6781 155.632 24.453L153.632 24.453C153.632 21.8368 155.198 19.6038 157.435 18.4289L158.365 20.1995ZM157.435 20.1995C156.616 19.7693 155.658 19.5196 154.629 19.5196L154.629 17.5196C155.983 17.5196 157.26 17.8484 158.365 18.4289L157.435 20.1995ZM154.629 19.5196C151.476 19.5196 149.09 21.8176 149.09 24.4531L147.09 24.4531C147.09 20.5346 150.559 17.5196 154.629 17.5196L154.629 19.5196ZM149.09 24.4531C149.09 27.0887 151.476 29.3867 154.629 29.3867L154.629 31.3867C150.559 31.3867 147.09 28.3717 147.09 24.4531L149.09 24.4531ZM154.629 29.3867C155.658 29.3867 156.616 29.137 157.435 28.7067L158.365 30.4773C157.26 31.0579 155.983 31.3867 154.629 31.3867L154.629 29.3867Z" fill="url(#paint4_linear_126_30975)" mask="url(#path-6-inside-2_126_30975)"/>
<path d="M241.144 190.69L241.567 189.88L249.734 194.154L241.681 209.541L240.871 209.118L248.5 194.54L247.69 194.116L240.061 208.694L239.251 208.27L246.88 193.692L246.07 193.269L238.441 207.846L237.631 207.422L245.26 192.845L244.451 192.421L236.822 206.998L236.012 206.575L243.641 191.997L241.144 190.69ZM241.991 189.07L242.415 188.261L250.581 192.534L250.157 193.344L241.991 189.07ZM242.839 187.451L243.263 186.641L251.429 190.915L251.005 191.724L242.839 187.451ZM246.713 207.045C246.741 205.092 247.273 203.126 248.31 201.146C249.346 199.167 250.658 197.608 252.246 196.472C253.834 195.335 255.531 194.704 257.335 194.579C259.139 194.453 260.896 194.837 262.606 195.732C264.316 196.627 265.633 197.851 266.558 199.406C267.484 200.96 267.932 202.713 267.903 204.666C267.875 206.619 267.342 208.585 266.306 210.565C265.27 212.544 263.958 214.103 262.37 215.239C260.782 216.376 259.085 217.007 257.281 217.132C255.477 217.258 253.72 216.874 252.01 215.979C250.3 215.084 248.983 213.86 248.058 212.305C247.132 210.751 246.684 208.998 246.713 207.045ZM262.347 203.564C262.615 204.879 262.315 206.365 261.447 208.022C260.58 209.679 259.528 210.776 258.292 211.314C257.067 211.848 255.82 211.783 254.553 211.12C253.286 210.456 252.519 209.467 252.251 208.153C251.996 206.834 252.301 205.346 253.169 203.689C254.036 202.032 255.082 200.937 256.307 200.403C257.544 199.865 258.796 199.928 260.063 200.591C261.33 201.255 262.092 202.245 262.347 203.564ZM264.095 203.017C264.509 204.819 264.166 206.77 263.067 208.869C261.968 210.969 260.561 212.363 258.844 213.05C257.136 213.742 255.423 213.638 253.705 212.739C251.988 211.841 250.923 210.49 250.51 208.688C250.104 206.89 250.45 204.941 251.549 202.842C252.648 200.742 254.052 199.346 255.76 198.655C257.477 197.967 259.193 198.073 260.911 198.972C262.628 199.87 263.689 201.219 264.095 203.017ZM266.068 204.751C266.03 206.375 265.57 208.03 264.687 209.717C263.804 211.404 262.704 212.73 261.388 213.693C260.083 214.654 258.689 215.19 257.207 215.303C255.725 215.415 254.275 215.101 252.858 214.359C251.44 213.617 250.356 212.605 249.603 211.323C248.851 210.041 248.494 208.588 248.531 206.965C248.58 205.338 249.046 203.681 249.929 201.994C250.812 200.307 251.906 198.983 253.211 198.023C254.527 197.059 255.927 196.521 257.409 196.408C258.891 196.296 260.341 196.61 261.758 197.352C263.175 198.094 264.26 199.106 265.013 200.388C265.765 201.67 266.117 203.124 266.068 204.751ZM256.587 201.265C255.601 201.724 254.732 202.673 253.979 204.113C253.225 205.553 252.941 206.808 253.125 207.879C253.317 208.954 253.935 209.764 254.977 210.31C256.019 210.855 257.033 210.899 258.018 210.44C259.011 209.985 259.884 209.038 260.637 207.598C261.391 206.158 261.672 204.901 261.479 203.826C261.295 202.755 260.681 201.947 259.639 201.401C258.597 200.856 257.579 200.81 256.587 201.265ZM256.034 199.529C254.569 200.138 253.344 201.383 252.359 203.265C251.374 205.148 251.047 206.868 251.378 208.426C251.72 209.981 252.637 211.149 254.129 211.929C255.621 212.71 257.1 212.796 258.565 212.188C260.041 211.575 261.272 210.328 262.257 208.446C263.242 206.563 263.564 204.845 263.221 203.29C262.891 201.732 261.979 200.562 260.487 199.782C258.994 199.001 257.51 198.916 256.034 199.529ZM255.487 197.781C253.538 198.548 251.956 200.093 250.739 202.418C249.523 204.742 249.155 206.924 249.636 208.962C250.124 211.004 251.339 212.533 253.282 213.549C255.224 214.566 257.169 214.691 259.118 213.924C261.074 213.161 262.66 211.618 263.877 209.293C265.093 206.969 265.457 204.785 264.969 202.743C264.488 200.705 263.277 199.178 261.334 198.162C259.392 197.145 257.443 197.018 255.487 197.781ZM251.728 198.092C250.707 199.038 249.838 200.198 249.119 201.57C248.401 202.942 247.942 204.321 247.742 205.707C247.547 207.085 247.599 208.364 247.899 209.543C248.206 210.726 248.745 211.805 249.514 212.781C250.291 213.761 251.264 214.557 252.434 215.169C253.604 215.781 254.809 216.125 256.049 216.201C257.297 216.281 258.491 216.108 259.63 215.683C260.778 215.261 261.862 214.577 262.882 213.63C263.907 212.676 264.778 211.513 265.497 210.141C266.215 208.769 266.672 207.393 266.868 206.015C267.067 204.63 267.014 203.345 266.706 202.162C266.406 200.983 265.868 199.904 265.091 198.924C264.321 197.948 263.352 197.154 262.182 196.542C261.012 195.93 259.803 195.584 258.556 195.504C257.315 195.428 256.122 195.601 254.974 196.023C253.835 196.448 252.752 197.138 251.728 198.092Z" fill="url(#paint5_linear_126_30975)"/>
<path d="M129.101 268.961V268.047H138.317V285.414H137.403V268.961H136.489V285.414H135.575V268.961H134.661V285.414H133.747V268.961H132.833V285.414H131.919V268.961H129.101ZM129.101 267.133V266.219H138.317V267.133H129.101ZM129.101 265.305V264.391H138.317V265.305H129.101ZM154.796 268.047V268.961H145.465V277.822H144.551V268.961H143.637V277.822H142.723V268.961H141.809V277.822H140.895V268.047H154.796ZM154.796 266.219V267.133H140.895V266.219H154.796ZM154.796 264.391V265.305H140.895V264.391H154.796ZM147.852 279.917C149.527 279.917 150.365 279.545 150.365 278.8C150.365 278.368 150.171 278.055 149.781 277.86C149.392 277.666 148.897 277.568 148.296 277.568C147.365 277.568 146.624 277.678 146.074 277.898V276.984C146.811 276.807 147.555 276.718 148.309 276.718C148.85 276.718 149.333 276.781 149.756 276.908C150.188 277.035 150.547 277.259 150.835 277.581C151.131 277.903 151.279 278.309 151.279 278.8C151.279 279.477 150.958 279.985 150.314 280.323C149.68 280.662 148.859 280.831 147.852 280.831C146.286 280.831 145.092 280.577 144.271 280.069L145.008 279.511C145.558 279.782 146.506 279.917 147.852 279.917ZM147.852 281.745C149.104 281.745 150.141 281.487 150.962 280.971C151.783 280.454 152.193 279.731 152.193 278.8C152.193 277.852 151.838 277.124 151.127 276.616C150.416 276.1 149.553 275.842 148.537 275.842C147.758 275.842 146.938 275.939 146.074 276.134V275.169C147.115 275.042 147.94 274.979 148.55 274.979C149.819 274.979 150.894 275.321 151.774 276.007C152.663 276.684 153.107 277.615 153.107 278.8C153.107 279.993 152.608 280.937 151.609 281.631C150.611 282.316 149.358 282.659 147.852 282.659C145.702 282.659 144.035 282.177 142.85 281.212L143.573 280.653C144.58 281.381 146.007 281.745 147.852 281.745ZM147.852 283.573C149.604 283.573 151.068 283.142 152.244 282.278C153.429 281.407 154.021 280.247 154.021 278.8C154.021 277.818 153.768 276.963 153.26 276.235C152.76 275.507 152.117 274.97 151.33 274.623C150.543 274.276 149.675 274.103 148.728 274.103C147.788 274.103 146.904 274.174 146.074 274.318V273.392C147.056 273.282 147.949 273.227 148.753 273.227C149.879 273.227 150.911 273.464 151.851 273.938C152.799 274.411 153.548 275.076 154.098 275.931C154.656 276.785 154.936 277.742 154.936 278.8C154.936 279.925 154.614 280.928 153.971 281.809C153.336 282.68 152.481 283.345 151.406 283.802C150.34 284.259 149.155 284.487 147.852 284.487C146.548 284.487 145.338 284.301 144.221 283.929C143.104 283.556 142.168 283.032 141.415 282.354L142.126 281.783C142.803 282.359 143.637 282.803 144.627 283.116C145.626 283.421 146.701 283.573 147.852 283.573ZM147.852 285.401C148.943 285.401 149.976 285.245 150.949 284.932C151.931 284.61 152.782 284.166 153.501 283.599C154.22 283.032 154.792 282.333 155.215 281.504C155.638 280.674 155.85 279.773 155.85 278.8C155.85 277.835 155.655 276.938 155.266 276.108C154.876 275.279 154.36 274.593 153.717 274.052C153.074 273.502 152.341 273.074 151.521 272.77C150.708 272.465 149.87 272.312 149.007 272.312C148.567 272.312 148.199 272.325 147.902 272.351C147.606 272.368 147.272 272.406 146.899 272.465C146.527 272.516 146.252 272.549 146.074 272.566V271.627C146.904 271.508 147.898 271.449 149.058 271.449C150.065 271.449 151.034 271.627 151.965 271.982C152.896 272.329 153.717 272.816 154.428 273.442C155.139 274.06 155.706 274.835 156.129 275.766C156.552 276.697 156.764 277.708 156.764 278.8C156.764 279.9 156.527 280.924 156.053 281.872C155.587 282.812 154.952 283.607 154.148 284.259C153.344 284.902 152.396 285.406 151.305 285.77C150.221 286.133 149.07 286.315 147.852 286.315C146.269 286.315 144.792 286.066 143.421 285.566C142.058 285.076 140.916 284.386 139.993 283.497L140.729 282.951C141.567 283.73 142.604 284.335 143.84 284.767C145.084 285.19 146.421 285.401 147.852 285.401Z" fill="url(#paint6_linear_126_30975)"/>
<path d="M27.8756 215.674L27.4211 214.881L38.1712 208.72L38.6258 209.513L27.8756 215.674ZM28.7846 217.26L28.3301 216.467L39.0803 210.306L39.5348 211.099L28.7846 217.26ZM29.6937 218.846L29.2392 218.053L39.9893 211.892L40.4438 212.685L29.6937 218.846ZM28.3912 213.74L27.4659 214.27C27.5801 213.278 27.6954 212.304 27.8118 211.35C27.9281 210.396 28.0252 209.603 28.1032 208.973C28.1842 208.332 28.2606 207.708 28.3322 207.101C28.4039 206.494 28.4615 206.007 28.5052 205.641C28.5561 205.27 28.6003 204.913 28.6376 204.57C28.675 204.227 28.6998 203.964 28.7122 203.781C28.7203 203.591 28.7217 203.415 28.7162 203.252C28.7181 203.085 28.709 202.958 28.689 202.872C28.6647 202.779 28.6315 202.696 28.5895 202.622C28.3959 202.284 28.1322 202.148 27.7984 202.212C27.4647 202.277 26.9454 202.511 26.2404 202.915C25.0949 203.571 24.0357 204.379 23.0627 205.336L22.4619 204.671C22.5992 204.485 23.0029 204.117 23.673 203.567C24.3462 203.006 25.028 202.527 25.7182 202.131C26.1368 201.892 26.515 201.709 26.8528 201.584C27.1865 201.451 27.5118 201.372 27.8288 201.346C28.149 201.309 28.4382 201.363 28.6967 201.507C28.9509 201.644 29.1685 201.871 29.3495 202.187C29.5304 202.502 29.6003 202.999 29.5592 203.676C29.5181 204.353 29.3407 205.967 29.0269 208.517C28.7692 210.587 28.5573 212.327 28.3912 213.74ZM30.1865 212.711L29.2613 213.241C29.8876 207.985 30.2271 205.054 30.2798 204.448C30.3916 203.213 30.3769 202.388 30.2357 201.971C30.1988 201.856 30.1467 201.739 30.0794 201.622C29.2082 200.102 27.6198 200.003 25.3141 201.324C24.6091 201.728 23.929 202.201 23.2735 202.742C22.6181 203.284 22.1573 203.714 21.8911 204.032L21.3013 203.361C22.3339 202.252 23.5258 201.31 24.8769 200.536C25.3468 200.266 25.799 200.051 26.2334 199.89C26.6709 199.717 27.1154 199.599 27.5667 199.536C28.018 199.472 28.4395 199.484 28.8312 199.572C29.2186 199.652 29.5868 199.826 29.9357 200.095C30.2919 200.359 30.6005 200.718 30.8614 201.174C31.1307 201.644 31.2382 202.367 31.1838 203.345C31.1295 204.322 30.8437 207.032 30.3267 211.474C30.2623 212.009 30.2156 212.421 30.1865 212.711ZM32.026 211.656L31.1007 212.187C31.6435 207.33 31.943 204.329 31.9993 203.185C32.0514 202.033 31.9154 201.174 31.5913 200.609C31.1957 199.919 30.719 199.402 30.1611 199.058C29.6106 198.71 29.013 198.536 28.3685 198.535C27.7312 198.529 27.0868 198.63 26.4352 198.838C25.7909 199.041 25.1163 199.345 24.4113 199.749C23.0529 200.528 21.8159 201.51 20.7005 202.695L20.0744 201.986C21.2769 200.731 22.5537 199.716 23.9048 198.942C24.5657 198.563 25.2062 198.259 25.8263 198.031C26.4464 197.802 27.0714 197.659 27.7012 197.6C28.3341 197.53 28.922 197.569 29.465 197.716C30.0152 197.859 30.5447 198.136 31.0533 198.547C31.5577 198.95 32.0014 199.486 32.3844 200.155C32.6579 200.632 32.824 201.185 32.8825 201.815C32.9442 202.433 32.913 203.451 32.7888 204.869C32.672 206.282 32.4177 208.544 32.026 211.656ZM33.9315 210.564L33.0062 211.094C33.3814 208.158 33.6196 205.978 33.7206 204.554C33.8248 203.119 33.8318 202.076 33.7418 201.425C33.6475 200.767 33.4383 200.155 33.1143 199.59C32.7018 198.87 32.2192 198.283 31.6665 197.83C31.1168 197.364 30.5301 197.047 29.9064 196.878C29.2857 196.697 28.6222 196.628 27.9157 196.672C27.2093 196.716 26.4898 196.865 25.7574 197.119C25.0324 197.369 24.288 197.713 23.5243 198.15C22.1145 198.958 20.7721 200.02 19.4973 201.336L18.8839 200.649C20.1765 199.313 21.5645 198.22 23.0478 197.37C24.1492 196.739 25.2136 196.29 26.241 196.023C27.2715 195.744 28.254 195.654 29.1884 195.753C30.1302 195.847 31.004 196.18 31.81 196.752C32.6232 197.32 33.3223 198.115 33.9073 199.135C34.2777 199.782 34.5205 200.452 34.6358 201.147C34.7585 201.837 34.7683 202.91 34.6652 204.364C34.5694 205.814 34.3248 207.88 33.9315 210.564ZM41.5984 206.785C39.9677 205.71 38.5969 204.203 37.4858 202.264C36.3748 200.326 35.7676 198.381 35.6643 196.431C35.561 194.481 35.9419 192.711 36.807 191.123C37.6721 189.534 38.9417 188.261 40.6159 187.301C42.2901 186.341 44.0311 185.89 45.8389 185.946C47.6467 186.003 49.3659 186.569 50.9965 187.644C52.6271 188.718 53.998 190.225 55.109 192.164C56.2201 194.102 56.8273 196.047 56.9306 197.997C57.0338 199.948 56.6529 201.717 55.7879 203.305C54.9228 204.894 53.6532 206.168 51.979 207.127C50.3048 208.087 48.5638 208.538 46.756 208.482C44.9482 208.425 43.229 207.86 41.5984 206.785ZM47.0777 191.733C48.3297 192.216 49.4207 193.268 50.3508 194.891C51.2809 196.514 51.6397 197.991 51.4272 199.322C51.2179 200.642 50.4928 201.658 49.2518 202.369C48.0109 203.08 46.7644 203.195 45.5124 202.712C44.2636 202.218 43.1742 201.16 42.2441 199.537C41.314 197.914 40.9536 196.443 41.1629 195.123C41.3754 193.792 42.1021 192.771 43.343 192.059C44.584 191.348 45.8289 191.239 47.0777 191.733ZM47.5573 189.966C49.2986 190.587 50.7585 191.926 51.9369 193.982C53.1153 196.038 53.5324 197.974 53.1883 199.791C52.8516 201.603 51.8424 202.991 50.1609 203.955C48.4793 204.919 46.7679 205.09 45.0266 204.469C43.2926 203.843 41.8364 202.502 40.658 200.446C39.4796 198.39 39.0588 196.456 39.3955 194.644C39.7396 192.827 40.7524 191.437 42.434 190.473C44.1155 189.509 45.8233 189.34 47.5573 189.966ZM50.0805 189.237C51.4286 190.142 52.576 191.421 53.523 193.073C54.4699 194.725 54.9953 196.365 55.0992 197.993C55.2063 199.61 54.9084 201.073 54.2057 202.383C53.503 203.693 52.4577 204.746 51.0699 205.541C49.6821 206.336 48.2454 206.706 46.7599 206.65C45.2744 206.595 43.8577 206.114 42.5096 205.209C41.1647 204.292 40.0188 203.007 39.0719 201.355C38.125 199.703 37.598 198.069 37.491 196.452C37.387 194.824 37.6864 193.355 38.3891 192.045C39.0919 190.735 40.1371 189.682 41.525 188.887C42.9128 188.092 44.3494 187.722 45.8349 187.778C47.3205 187.834 48.7356 188.32 50.0805 189.237ZM42.0403 195.352C41.8968 196.429 42.2291 197.673 43.0371 199.083C43.8452 200.492 44.7502 201.408 45.7522 201.829C46.7616 202.245 47.7766 202.161 48.7973 201.576C49.818 200.991 50.4001 200.16 50.5435 199.082C50.6944 198.001 50.3658 196.755 49.5577 195.345C48.7497 193.936 47.841 193.022 46.8316 192.606C45.8296 192.185 44.8182 192.267 43.7976 192.852C42.7769 193.437 42.1911 194.271 42.0403 195.352ZM40.2792 194.883C40.0041 196.446 40.3947 198.149 41.451 199.992C42.5074 201.835 43.7813 203.036 45.2727 203.596C46.7672 204.144 48.2451 203.999 49.7063 203.162C51.1676 202.324 52.0358 201.124 52.3109 199.562C52.5892 197.988 52.2002 196.28 51.1438 194.436C50.0875 192.593 48.812 191.398 47.3175 190.85C45.8261 190.29 44.3498 190.429 42.8885 191.266C41.4273 192.104 40.5575 193.309 40.2792 194.883ZM38.5118 194.404C38.1093 196.459 38.5603 198.624 39.865 200.901C41.1696 203.177 42.8102 204.661 44.7868 205.352C46.7707 206.039 48.7136 205.838 50.6154 204.748C52.5172 203.658 53.6694 202.085 54.072 200.031C54.4819 197.971 54.0346 195.804 52.7299 193.527C51.4253 191.251 49.781 189.769 47.7971 189.082C45.8205 188.391 43.8813 188.59 41.9795 189.68C40.0776 190.77 38.9218 192.345 38.5118 194.404ZM36.7509 197.74C36.9994 199.109 37.5087 200.466 38.2789 201.81C39.049 203.154 39.9643 204.282 41.0247 205.196C42.0809 206.103 43.1866 206.747 44.3419 207.129C45.5044 207.507 46.704 207.634 47.9404 207.51C49.1843 207.383 50.3789 206.991 51.5244 206.334C52.6699 205.678 53.6084 204.847 54.3399 203.842C55.0787 202.834 55.5754 201.735 55.83 200.545C56.0919 199.351 56.0987 198.069 55.8502 196.699C55.5976 195.322 55.0862 193.962 54.316 192.618C53.5458 191.275 52.6327 190.149 51.5765 189.243C50.5161 188.329 49.4046 187.683 48.242 187.305C47.0868 186.924 45.8872 186.797 44.6434 186.924C43.4069 187.048 42.2159 187.438 41.0704 188.094C39.9249 188.751 38.9828 189.583 38.244 190.592C37.5125 191.596 37.0158 192.696 36.7539 193.89C36.4992 195.079 36.4983 196.363 36.7509 197.74Z" fill="url(#paint7_linear_126_30975)"/>
<path d="M21.8833 88.5059L22.369 87.7316L32.8657 94.3154L32.38 95.0898L21.8833 88.5059ZM20.9119 90.0546L21.3976 89.2803L31.8943 95.8641L31.4086 96.6385L20.9119 90.0546ZM19.9405 91.6033L20.4262 90.829L30.9229 97.4128L30.4372 98.1872L19.9405 91.6033ZM23.8326 88.0502L22.9292 87.4835C23.8583 87.1172 24.7713 86.7607 25.668 86.4141C26.5648 86.0674 27.3095 85.7802 27.9019 85.5523C28.5061 85.3218 29.0927 85.0954 29.6619 84.8729C30.231 84.6504 30.6875 84.4722 31.0313 84.3381C31.3823 84.2086 31.718 84.0795 32.0385 83.9508C32.359 83.8222 32.6027 83.7203 32.7697 83.6452C32.9412 83.5629 33.0974 83.4811 33.2384 83.3997C33.3866 83.3228 33.4939 83.2552 33.5604 83.197C33.6313 83.1316 33.6893 83.0631 33.7343 82.9914C33.9411 82.6616 33.9376 82.3646 33.7236 82.1005C33.5096 81.8364 33.0585 81.4885 32.3701 81.0568C31.2516 80.3552 30.041 79.8006 28.7381 79.3931L29.0422 78.5498C29.2709 78.5833 29.7856 78.7663 30.5862 79.0986C31.3985 79.4283 32.1416 79.8045 32.8156 80.2272C33.2242 80.4835 33.5634 80.7312 33.8331 80.9703C34.1072 81.2022 34.3302 81.452 34.502 81.7196C34.6855 81.9845 34.7743 82.265 34.7685 82.5611C34.7671 82.8499 34.6697 83.1485 34.4764 83.4568C34.283 83.7651 33.8779 84.0606 33.2611 84.3431C32.6443 84.6256 31.1371 85.2287 28.7394 86.1525C26.7923 86.8994 25.1567 87.532 23.8326 88.0502ZM25.5856 89.1497L24.6822 88.5831C29.6141 86.6612 32.3598 85.581 32.9191 85.3424C34.061 84.8597 34.7825 84.4581 35.0835 84.1374C35.168 84.0505 35.2462 83.9497 35.3182 83.835C36.2491 82.3508 35.5889 80.9027 33.3375 79.4906C32.6492 79.0589 31.9119 78.6813 31.1257 78.358C30.3394 78.0347 29.7431 77.8305 29.3369 77.7455L29.6517 76.909C31.1161 77.298 32.508 77.9063 33.8272 78.7337C34.2861 79.0216 34.6889 79.3191 35.0356 79.6265C35.3939 79.9312 35.7074 80.2677 35.976 80.636C36.2445 81.0042 36.4323 81.3818 36.5393 81.7686C36.6509 82.1483 36.6704 82.5551 36.5979 82.9892C36.5326 83.4278 36.3606 83.8694 36.0818 84.3139C35.7939 84.7728 35.2061 85.2083 34.3181 85.6205C33.4302 86.0326 30.9049 87.0563 26.7423 88.6914C26.2405 88.8861 25.8549 89.0389 25.5856 89.1497ZM27.3817 90.2763L26.4783 89.7096C31.0189 87.902 33.8072 86.7536 34.8433 86.2646C35.8839 85.7683 36.5773 85.2442 36.9236 84.6921C37.3463 84.0181 37.5779 83.3542 37.6184 82.7002C37.6661 82.0508 37.5388 81.4414 37.2365 80.8721C36.9413 80.3074 36.5488 79.7864 36.0588 79.3092C35.576 78.8366 34.9905 78.3844 34.3022 77.9526C32.9757 77.1207 31.527 76.4917 29.9559 76.0657L30.287 75.1795C31.9603 75.6495 33.4566 76.2983 34.7758 77.1258C35.4211 77.5305 35.9906 77.9527 36.4842 78.3921C36.9778 78.8316 37.3987 79.3154 37.7468 79.8435C38.1066 80.3689 38.3493 80.9058 38.475 81.4541C38.6077 82.007 38.6126 82.6045 38.4896 83.2466C38.371 83.8816 38.1072 84.5253 37.6979 85.1778C37.4056 85.6438 36.9954 86.0509 36.4673 86.399C35.9509 86.7445 35.0383 87.1961 33.7293 87.7538C32.4276 88.316 30.3117 89.1568 27.3817 90.2763ZM29.2423 91.4433L28.3388 90.8766C31.1064 89.8251 33.142 89.0089 34.4455 88.4278C35.7608 87.8441 36.6842 87.3593 37.216 86.9735C37.7522 86.5805 38.1934 86.108 38.5397 85.5559C38.9804 84.8533 39.2709 84.1513 39.4111 83.4499C39.5629 82.7459 39.5667 82.0789 39.4223 81.4489C39.2897 80.8162 39.0377 80.1986 38.6663 79.596C38.295 78.9934 37.8249 78.4288 37.2561 77.9022C36.6944 77.3801 36.0407 76.8851 35.2951 76.4174C33.9184 75.554 32.3495 74.8697 30.5884 74.3644L30.906 73.4997C32.6932 74.0112 34.3109 74.7212 35.7592 75.6296C36.8347 76.3042 37.732 77.0318 38.4512 77.8126C39.182 78.5907 39.7239 79.4151 40.0769 80.2859C40.437 81.1612 40.5544 82.089 40.429 83.0694C40.3108 84.0543 39.9392 85.045 39.3141 86.0416C38.9183 86.6726 38.4411 87.2024 37.8824 87.6313C37.3308 88.0646 36.3894 88.5781 35.058 89.1716C33.7337 89.7697 31.7952 90.5269 29.2423 91.4433ZM54.1629 92.5678L53.6772 93.3422L45.7724 88.3841L41.0639 95.8909L40.2895 95.4052L44.998 87.8984L44.2237 87.4127L39.5152 94.9195L38.7408 94.4338L43.4493 86.927L42.675 86.4413L37.9665 93.9481L37.1921 93.4625L42.3863 85.1812L54.1629 92.5678ZM55.1342 91.0191L54.6485 91.7935L42.872 84.4069L43.3577 83.6325L55.1342 91.0191ZM56.1056 89.4704L55.6199 90.2448L43.8434 82.8582L44.3291 82.0839L56.1056 89.4704ZM41.9727 98.9337C43.3923 99.8241 44.3 99.9538 44.6958 99.3229C44.9251 98.9572 44.9266 98.5885 44.7003 98.2167C44.4739 97.845 44.1062 97.4994 43.5971 97.1801C42.8084 96.6854 42.1226 96.3851 41.5396 96.2792L42.0253 95.5049C42.7435 95.7456 43.4217 96.066 44.0598 96.4663C44.5187 96.7541 44.8936 97.0642 45.1847 97.3966C45.4829 97.7335 45.6684 98.1147 45.7413 98.54C45.8214 98.9699 45.731 99.3927 45.4701 99.8086C45.1104 100.382 44.5681 100.641 43.8433 100.586C43.1257 100.536 42.3402 100.243 41.487 99.708C40.1606 98.876 39.2846 98.0268 38.8589 97.1604L39.7795 97.0785C40.1016 97.6002 40.8327 98.2186 41.9727 98.9337ZM41.0013 100.482C42.0625 101.148 43.0779 101.48 44.0477 101.479C45.0176 101.478 45.7498 101.083 46.2445 100.294C46.7482 99.4912 46.8338 98.6858 46.5013 97.8778C46.1734 97.0627 45.5792 96.3853 44.7189 95.8456C44.0592 95.4319 43.312 95.0781 42.4773 94.7843L42.9899 93.967C43.9393 94.4126 44.6721 94.7973 45.1883 95.121C46.2638 95.7956 46.9922 96.6571 47.3736 97.7056C47.7667 98.7514 47.6484 99.7762 47.0188 100.78C46.3847 101.791 45.4603 102.325 44.2455 102.382C43.0351 102.432 41.7919 102.057 40.5156 101.257C38.6945 100.114 37.5384 98.8198 37.0472 97.3728L37.9571 97.2841C38.4235 98.4359 39.4383 99.502 41.0013 100.482ZM40.0299 102.031C41.5141 102.962 42.9838 103.374 44.4392 103.268C45.9062 103.159 47.0242 102.492 47.7932 101.266C48.3148 100.434 48.554 99.5749 48.5105 98.6884C48.4743 97.8065 48.2149 97.0094 47.7325 96.2972C47.2501 95.585 46.6074 94.9771 45.8043 94.4734C45.0085 93.9742 44.221 93.5652 43.4419 93.2464L43.9343 92.4613C44.8245 92.8897 45.6102 93.3176 46.2913 93.7448C47.2449 94.3429 47.9937 95.0923 48.5377 95.993C49.0889 96.8982 49.3704 97.8591 49.3822 98.8755C49.4012 99.8965 49.1297 100.855 48.5675 101.751C47.9694 102.705 47.164 103.384 46.1514 103.788C45.1505 104.189 44.0733 104.297 42.9199 104.113C41.7736 103.934 40.6484 103.498 39.5442 102.805C38.4401 102.113 37.5137 101.312 36.7652 100.403C36.0166 99.4938 35.5032 98.5523 35.2248 97.5785L36.1307 97.4723C36.3985 98.3196 36.8686 99.139 37.5411 99.9305C38.2252 100.719 39.0548 101.419 40.0299 102.031ZM39.0586 103.58C39.9835 104.16 40.9414 104.576 41.9323 104.828C42.9349 105.077 43.8916 105.153 44.8023 105.054C45.7131 104.956 46.5681 104.668 47.3673 104.191C48.1665 103.713 48.8247 103.062 49.3419 102.237C49.8545 101.42 50.1663 100.556 50.2772 99.6467C50.3882 98.7372 50.3151 97.8821 50.058 97.0815C49.8054 96.2736 49.4123 95.5225 48.8787 94.8282C48.3523 94.1384 47.7234 93.5641 46.9921 93.1054C46.6193 92.8715 46.3006 92.6867 46.0362 92.5508C45.7762 92.4077 45.4728 92.2623 45.1258 92.1146C44.7834 91.9598 44.5324 91.8423 44.3728 91.7622L44.872 90.9664C45.6376 91.3067 46.5115 91.7849 47.4938 92.401C48.347 92.9362 49.0735 93.6017 49.6734 94.3975C50.2777 95.1862 50.7145 96.0347 50.984 96.943C51.258 97.8441 51.3269 98.8015 51.1907 99.815C51.0545 100.829 50.6963 101.798 50.1162 102.723C49.5316 103.655 48.7867 104.396 47.8815 104.948C46.988 105.496 46.0275 105.833 45.0001 105.958C43.9771 106.075 42.9065 105.998 41.7882 105.726C40.6771 105.459 39.6053 105.002 38.5729 104.354C37.2321 103.513 36.1136 102.517 35.2174 101.365C34.3239 100.225 33.7225 99.0339 33.4132 97.7909L34.327 97.7197C34.6231 98.8245 35.1799 99.8881 35.9973 100.91C36.8264 101.93 37.8468 102.82 39.0586 103.58Z" fill="url(#paint8_linear_126_30975)"/>
<path d="M262.748 80.0469V80.9609H253.417V89.8223H252.503V80.9609H251.589V89.8223H250.675V80.9609H249.761V89.8223H248.847V80.0469H262.748ZM262.748 78.2188V79.1328H248.847V78.2188H262.748ZM262.748 76.3906V77.3047H248.847V76.3906H262.748ZM255.804 91.917C257.479 91.917 258.317 91.5446 258.317 90.7998C258.317 90.3682 258.123 90.055 257.733 89.8604C257.344 89.6657 256.849 89.5684 256.248 89.5684C255.317 89.5684 254.576 89.6784 254.026 89.8984V88.9844C254.763 88.8066 255.507 88.7178 256.261 88.7178C256.802 88.7178 257.285 88.7812 257.708 88.9082C258.14 89.0352 258.499 89.2594 258.787 89.5811C259.083 89.9027 259.231 90.3089 259.231 90.7998C259.231 91.4769 258.91 91.9847 258.267 92.3232C257.632 92.6618 256.811 92.8311 255.804 92.8311C254.238 92.8311 253.045 92.5771 252.224 92.0693L252.96 91.5107C253.51 91.7816 254.458 91.917 255.804 91.917ZM255.804 93.7451C257.056 93.7451 258.093 93.487 258.914 92.9707C259.735 92.4544 260.146 91.7308 260.146 90.7998C260.146 89.8519 259.79 89.124 259.079 88.6162C258.368 88.0999 257.505 87.8418 256.489 87.8418C255.711 87.8418 254.89 87.9391 254.026 88.1338V87.1689C255.067 87.042 255.893 86.9785 256.502 86.9785C257.771 86.9785 258.846 87.3213 259.727 88.0068C260.615 88.6839 261.06 89.6149 261.06 90.7998C261.06 91.9932 260.56 92.9368 259.562 93.6309C258.563 94.3164 257.31 94.6592 255.804 94.6592C253.654 94.6592 251.987 94.1768 250.802 93.2119L251.525 92.6533C252.533 93.3812 253.959 93.7451 255.804 93.7451ZM255.804 95.5732C257.556 95.5732 259.02 95.1416 260.196 94.2783C261.381 93.4066 261.974 92.2471 261.974 90.7998C261.974 89.818 261.72 88.9632 261.212 88.2354C260.713 87.5075 260.069 86.9701 259.282 86.623C258.495 86.276 257.628 86.1025 256.68 86.1025C255.74 86.1025 254.856 86.1745 254.026 86.3184V85.3916C255.008 85.2816 255.901 85.2266 256.705 85.2266C257.831 85.2266 258.863 85.4635 259.803 85.9375C260.751 86.4115 261.5 87.0758 262.05 87.9307C262.608 88.7855 262.888 89.7419 262.888 90.7998C262.888 91.9255 262.566 92.9284 261.923 93.8086C261.288 94.6803 260.433 95.3447 259.358 95.8018C258.292 96.2588 257.107 96.4873 255.804 96.4873C254.5 96.4873 253.29 96.3011 252.173 95.9287C251.056 95.5563 250.12 95.0316 249.367 94.3545L250.078 93.7832C250.755 94.3587 251.589 94.8031 252.579 95.1162C253.578 95.4209 254.653 95.5732 255.804 95.5732ZM255.804 97.4014C256.896 97.4014 257.928 97.2448 258.901 96.9316C259.883 96.61 260.734 96.1657 261.453 95.5986C262.173 95.0316 262.744 94.3333 263.167 93.5039C263.59 92.6745 263.802 91.7731 263.802 90.7998C263.802 89.835 263.607 88.9378 263.218 88.1084C262.828 87.279 262.312 86.5934 261.669 86.0518C261.026 85.5016 260.294 85.0742 259.473 84.7695C258.66 84.4648 257.822 84.3125 256.959 84.3125C256.519 84.3125 256.151 84.3252 255.854 84.3506C255.558 84.3675 255.224 84.4056 254.852 84.4648C254.479 84.5156 254.204 84.5495 254.026 84.5664V83.627C254.856 83.5085 255.85 83.4492 257.01 83.4492C258.017 83.4492 258.986 83.627 259.917 83.9824C260.848 84.3294 261.669 84.8161 262.38 85.4424C263.091 86.0602 263.658 86.8346 264.081 87.7656C264.504 88.6966 264.716 89.708 264.716 90.7998C264.716 91.9001 264.479 92.9242 264.005 93.8721C263.539 94.8115 262.905 95.6071 262.101 96.2588C261.297 96.902 260.349 97.4056 259.257 97.7695C258.174 98.1335 257.022 98.3154 255.804 98.3154C254.221 98.3154 252.744 98.0658 251.373 97.5664C250.01 97.0755 248.868 96.3857 247.945 95.4971L248.682 94.9512C249.52 95.7298 250.556 96.335 251.792 96.7666C253.036 97.1898 254.373 97.4014 255.804 97.4014Z" fill="url(#paint9_linear_126_30975)"/>
<defs>
<linearGradient id="paint0_linear_126_30975" x1="136.502" y1="4.41406" x2="136.502" y2="32.2527" gradientUnits="userSpaceOnUse">
<stop stop-color="#DCBF87"/>
<stop offset="1" stop-color="#68552C"/>
</linearGradient>
<linearGradient id="paint1_linear_126_30975" x1="153.005" y1="4.48437" x2="153.005" y2="16.2512" gradientUnits="userSpaceOnUse">
<stop stop-color="#E5C68C"/>
<stop offset="1" stop-color="#7F6E4E"/>
</linearGradient>
<linearGradient id="paint2_linear_126_30975" x1="138.224" y1="18.6914" x2="138.224" y2="30.53" gradientUnits="userSpaceOnUse">
<stop stop-color="#E5C68C"/>
<stop offset="1" stop-color="#7F6E4E"/>
</linearGradient>
<linearGradient id="paint3_linear_126_30975" x1="138.108" y1="16.8984" x2="138.108" y2="4.77286" gradientUnits="userSpaceOnUse">
<stop stop-color="#E5C68C"/>
<stop offset="1" stop-color="#7F6E4E"/>
</linearGradient>
<linearGradient id="paint4_linear_126_30975" x1="152.995" y1="30.3867" x2="152.995" y2="18.5196" gradientUnits="userSpaceOnUse">
<stop stop-color="#E5C68C"/>
<stop offset="1" stop-color="#7F6E4E"/>
</linearGradient>
<linearGradient id="paint5_linear_126_30975" x1="254.481" y1="182.38" x2="268.718" y2="193.001" gradientUnits="userSpaceOnUse">
<stop stop-color="#ECC271"/>
<stop offset="1" stop-color="#7F642E"/>
</linearGradient>
<linearGradient id="paint6_linear_126_30975" x1="134.695" y1="255.414" x2="153.085" y2="258.509" gradientUnits="userSpaceOnUse">
<stop stop-color="#ECC271"/>
<stop offset="1" stop-color="#7F642E"/>
</linearGradient>
<linearGradient id="paint7_linear_126_30975" x1="19.7436" y1="189.971" x2="45.1552" y2="183.067" gradientUnits="userSpaceOnUse">
<stop stop-color="#ECC271"/>
<stop offset="1" stop-color="#7F642E"/>
</linearGradient>
<linearGradient id="paint8_linear_126_30975" x1="40.0851" y1="68.8256" x2="57.0026" y2="85.6324" gradientUnits="userSpaceOnUse">
<stop stop-color="#ECC271"/>
<stop offset="1" stop-color="#7F642E"/>
</linearGradient>
<linearGradient id="paint9_linear_126_30975" x1="248.395" y1="67.414" x2="266.393" y2="70.2674" gradientUnits="userSpaceOnUse">
<stop stop-color="#ECC271"/>
<stop offset="1" stop-color="#7F642E"/>
</linearGradient>
</defs>
</svg>
