<svg width="292" height="291" viewBox="0 0 292 291" fill="none" xmlns="http://www.w3.org/2000/svg">
<path d="M137.36 33.2527C135.789 33.2527 134.404 33.0406 133.206 32.6166C132.033 32.1675 131.11 31.5689 130.436 30.8205C129.763 30.0472 129.426 29.1742 129.426 28.2013C129.426 27.3781 129.65 26.7295 130.099 26.2556C130.574 25.7567 131.16 25.5072 131.859 25.5072C132.308 25.5072 132.707 25.607 133.056 25.8066C133.431 25.9812 133.718 26.2431 133.917 26.5923C134.142 26.9166 134.254 27.3033 134.254 27.7523C134.254 28.1514 134.167 28.4632 133.992 28.6877C133.842 28.9122 133.668 29.0993 133.468 29.249C133.268 29.3987 133.081 29.5483 132.907 29.698C132.757 29.8227 132.682 30.0223 132.682 30.2967C132.682 30.7457 132.919 31.1074 133.393 31.3818C133.892 31.6312 134.466 31.8183 135.115 31.943C135.789 32.0678 136.387 32.1301 136.911 32.1301C138.658 32.1301 139.993 31.5439 140.916 30.3715C141.864 29.1991 142.338 27.5153 142.338 25.3202C142.338 23.2497 141.864 21.6657 140.916 20.5681C139.968 19.4706 138.384 18.9218 136.163 18.9218L139.831 18.0612C141.378 18.2358 142.725 18.6723 143.873 19.3708C145.046 20.0443 145.956 20.8924 146.605 21.9152C147.254 22.9379 147.578 24.0729 147.578 25.3202C147.578 26.6672 147.167 27.9518 146.343 29.1741C145.545 30.3715 144.384 31.3568 142.862 32.1301C141.34 32.8785 139.506 33.2527 137.36 33.2527ZM135.324 18.9218V17.0818H139.831V18.9218H135.324ZM137.622 18.2108L135.452 17.7992C137.473 17.7992 138.92 17.238 139.793 16.1155C140.667 14.968 141.103 13.3965 141.103 11.4009C141.103 10.1287 140.941 9.14334 140.617 8.44488C140.317 7.74642 139.868 7.25999 139.269 6.9856C138.695 6.68626 137.997 6.53659 137.173 6.53659C136.25 6.53659 135.477 6.67378 134.853 6.94818C134.229 7.22257 133.917 7.59675 133.917 8.0707C133.917 8.3451 134.017 8.5696 134.217 8.74422C134.416 8.91883 134.616 9.13086 134.815 9.38031C135.015 9.60482 135.115 9.95405 135.115 10.428C135.115 11.0766 134.903 11.563 134.479 11.8873C134.054 12.1866 133.593 12.3363 133.094 12.3363C132.47 12.3363 131.933 12.1118 131.484 11.6628C131.06 11.2138 130.848 10.665 130.848 10.0164C130.848 9.29301 131.123 8.58208 131.671 7.88362C132.245 7.18516 133.069 6.59895 134.142 6.12499C135.215 5.65104 136.512 5.41406 138.034 5.41406C139.706 5.41406 141.128 5.70093 142.301 6.27466C143.499 6.8484 144.409 7.59675 145.033 8.51971C145.657 9.44268 145.969 10.428 145.969 11.4757C145.969 12.5982 145.62 13.6459 144.921 14.6188C144.247 15.5667 143.287 16.3649 142.039 17.0135C140.791 17.6371 139.319 18.0362 137.622 18.2108Z" fill="url(#paint0_linear_126_30934)"/>
<path d="M160.926 11.3678C160.926 14.3007 158.317 16.7512 155.005 16.7512C151.692 16.7512 149.083 14.3007 149.083 11.3678C149.083 8.4349 151.692 5.98438 155.005 5.98438C158.317 5.98438 160.926 8.4349 160.926 11.3678Z" fill="black" stroke="url(#paint1_linear_126_30934)"/>
<path d="M134.302 25.6107C134.302 28.5661 136.914 31.03 140.224 31.03C143.533 31.03 146.146 28.5661 146.146 25.6107C146.146 22.6553 143.533 20.1914 140.224 20.1914C136.914 20.1914 134.302 22.6553 134.302 25.6107Z" fill="black" stroke="url(#paint2_linear_126_30934)"/>
<mask id="path-4-inside-1_126_30934" fill="white">
<path fill-rule="evenodd" clip-rule="evenodd" d="M135.316 17.072C137.237 16.0383 138.525 14.138 138.525 11.9649C138.525 9.7029 137.13 7.73657 135.078 6.73544C136.096 6.1263 137.308 5.77286 138.61 5.77286C142.215 5.77286 145.139 8.48727 145.139 11.8357C145.139 15.184 142.215 17.8984 138.61 17.8984C137.408 17.8984 136.283 17.5973 135.316 17.072Z"/>
</mask>
<path fill-rule="evenodd" clip-rule="evenodd" d="M135.316 17.072C137.237 16.0383 138.525 14.138 138.525 11.9649C138.525 9.7029 137.13 7.73657 135.078 6.73544C136.096 6.1263 137.308 5.77286 138.61 5.77286C142.215 5.77286 145.139 8.48727 145.139 11.8357C145.139 15.184 142.215 17.8984 138.61 17.8984C137.408 17.8984 136.283 17.5973 135.316 17.072Z" fill="black"/>
<path d="M135.316 17.072L134.843 16.1914L133.214 17.0677L134.839 17.9506L135.316 17.072ZM135.078 6.73544L134.564 5.8773L132.981 6.82484L134.639 7.63416L135.078 6.73544ZM137.525 11.9649C137.525 13.7219 136.484 15.308 134.843 16.1914L135.79 17.9525C137.99 16.7686 139.525 14.5542 139.525 11.9649L137.525 11.9649ZM134.639 7.63416C136.397 8.49161 137.525 10.1369 137.525 11.9649L139.525 11.9649C139.525 9.2689 137.863 6.98153 135.516 5.83671L134.639 7.63416ZM135.591 7.59358C136.456 7.07655 137.491 6.77286 138.61 6.77286L138.61 4.77286C137.126 4.77286 135.737 5.17606 134.564 5.8773L135.591 7.59358ZM138.61 6.77286C141.734 6.77286 144.139 9.10805 144.139 11.8357L146.139 11.8357C146.139 7.86648 142.697 4.77286 138.61 4.77286L138.61 6.77286ZM144.139 11.8357C144.139 14.5633 141.734 16.8984 138.61 16.8984L138.61 18.8984C142.697 18.8984 146.139 15.8048 146.139 11.8357L144.139 11.8357ZM138.61 16.8984C137.577 16.8984 136.615 16.6397 135.794 16.1933L134.839 17.9506C135.951 18.555 137.24 18.8984 138.61 18.8984L138.61 16.8984Z" fill="url(#paint3_linear_126_30934)" mask="url(#path-4-inside-1_126_30934)"/>
<mask id="path-6-inside-2_126_30934" fill="white">
<path fill-rule="evenodd" clip-rule="evenodd" d="M159.9 30.592C157.946 29.5659 156.632 27.6487 156.632 25.453C156.632 23.2574 157.946 21.3404 159.9 20.3142C158.938 19.8088 157.821 19.5196 156.629 19.5196C153.017 19.5196 150.09 22.1761 150.09 25.4531C150.09 28.7302 153.017 31.3867 156.629 31.3867C157.821 31.3867 158.938 31.0974 159.9 30.592Z"/>
</mask>
<path fill-rule="evenodd" clip-rule="evenodd" d="M159.9 30.592C157.946 29.5659 156.632 27.6487 156.632 25.453C156.632 23.2574 157.946 21.3404 159.9 20.3142C158.938 19.8088 157.821 19.5196 156.629 19.5196C153.017 19.5196 150.09 22.1761 150.09 25.4531C150.09 28.7302 153.017 31.3867 156.629 31.3867C157.821 31.3867 158.938 31.0974 159.9 30.592Z" fill="black"/>
<path d="M159.9 30.592L160.365 29.7067L162.051 30.592L160.365 31.4773L159.9 30.592ZM159.9 20.3142L160.365 19.4289L162.05 20.3142L160.365 21.1995L159.9 20.3142ZM157.632 25.453C157.632 27.2281 158.695 28.8293 160.365 29.7067L159.435 31.4773C157.198 30.3025 155.632 28.0694 155.632 25.453L157.632 25.453ZM160.365 21.1995C158.694 22.0769 157.632 23.6781 157.632 25.453L155.632 25.453C155.632 22.8368 157.198 20.6038 159.435 19.4289L160.365 21.1995ZM159.435 21.1995C158.616 20.7693 157.658 20.5196 156.629 20.5196L156.629 18.5196C157.983 18.5196 159.26 18.8484 160.365 19.4289L159.435 21.1995ZM156.629 20.5196C153.476 20.5196 151.09 22.8176 151.09 25.4531L149.09 25.4531C149.09 21.5346 152.559 18.5196 156.629 18.5196L156.629 20.5196ZM151.09 25.4531C151.09 28.0887 153.476 30.3867 156.629 30.3867L156.629 32.3867C152.559 32.3867 149.09 29.3717 149.09 25.4531L151.09 25.4531ZM156.629 30.3867C157.658 30.3867 158.616 30.137 159.435 29.7067L160.365 31.4773C159.26 32.0579 157.983 32.3867 156.629 32.3867L156.629 30.3867Z" fill="url(#paint4_linear_126_30934)" mask="url(#path-6-inside-2_126_30934)"/>
<path d="M251.653 192.983L254.072 194.249C254.594 194.522 254.888 194.783 254.953 195.032C255.034 195.29 254.933 195.687 254.652 196.225L248.009 208.917L249.875 209.894C250.105 210.015 250.243 210.126 250.288 210.227C250.332 210.329 250.31 210.464 250.222 210.633L249.065 212.845L243.766 210.072C243.521 209.943 243.361 209.762 243.288 209.528C243.223 209.279 243.263 209.016 243.407 208.739L251.653 192.983ZM242.246 209.276L238.906 207.528L240.063 205.317C240.151 205.148 240.25 205.053 240.359 205.031C240.468 205.01 240.638 205.06 240.868 205.18L243.632 206.627L242.246 209.276ZM249.576 195.27L247.042 193.944C246.658 193.743 246.578 193.428 246.804 192.998L247.852 190.993L250.962 192.621L249.576 195.27ZM266.216 200.604L267.99 201.532C268.604 201.854 269.087 202.165 269.438 202.466C269.804 202.775 270.061 203.144 270.208 203.573C270.371 204.011 270.436 204.446 270.405 204.88C270.397 205.306 270.254 205.896 269.977 206.651C269.56 207.783 268.741 209.516 267.52 211.85L267.483 211.92C265.643 215.436 264.325 217.525 263.53 218.185C262.71 218.89 261.922 219.163 261.166 219.001C260.764 218.909 260.302 218.726 259.78 218.452L257.5 217.259L258.645 215.07L259.428 215.48C259.827 215.689 260.109 215.768 260.273 215.717C260.452 215.674 260.602 215.537 260.722 215.307L266.449 204.364C266.569 204.134 266.596 203.933 266.53 203.761C266.478 203.597 266.253 203.411 265.854 203.202L265.071 202.792L266.216 200.604ZM264.149 202.31L263.366 201.9C262.967 201.691 262.677 201.608 262.498 201.651C262.335 201.703 262.192 201.844 262.072 202.074L256.345 213.016C256.225 213.246 256.19 213.443 256.241 213.607C256.308 213.779 256.541 213.969 256.94 214.178L257.723 214.588L256.578 216.777L254.298 215.583C253.146 214.98 252.494 214.189 252.341 213.209C252.209 212.416 252.631 210.974 253.607 208.883C253.979 208.061 254.535 206.943 255.274 205.53L255.311 205.461C257.199 201.852 258.553 199.733 259.371 199.105C259.724 198.84 260.119 198.646 260.556 198.522C261.008 198.406 261.457 198.407 261.905 198.524C262.368 198.649 262.906 198.872 263.521 199.193L265.294 200.122L264.149 202.31Z" fill="url(#paint5_linear_126_30934)"/>
<path d="M135.989 266.616H138.719C139.308 266.616 139.689 266.711 139.863 266.902C140.053 267.093 140.149 267.491 140.149 268.098V282.424H142.255C142.515 282.424 142.688 282.459 142.775 282.528C142.861 282.597 142.905 282.727 142.905 282.918V285.414H136.925C136.647 285.414 136.422 285.327 136.249 285.154C136.075 284.963 135.989 284.712 135.989 284.4V266.616ZM135.209 285.414H131.439V282.918C131.439 282.727 131.482 282.597 131.569 282.528C131.655 282.459 131.829 282.424 132.089 282.424H135.209V285.414ZM135.209 269.606H132.349C131.915 269.606 131.699 269.363 131.699 268.878V266.616H135.209V269.606ZM155.545 285.44C155.528 285.44 155.502 285.44 155.467 285.44L153.517 285.414L153.569 277.302C153.569 277.025 153.526 276.834 153.439 276.73C153.37 276.609 153.179 276.548 152.867 276.548H151.775V274.078L155.467 274.104C156.975 274.121 157.729 274.901 157.729 276.444L157.703 282.918C157.703 283.767 157.512 284.4 157.131 284.816C156.75 285.232 156.221 285.44 155.545 285.44ZM148.941 279.278V282.164C148.924 282.441 148.958 282.641 149.045 282.762C149.149 282.883 149.383 282.944 149.747 282.944H152.477V285.414H147.095C146.124 285.414 145.492 285.189 145.197 284.738C144.92 284.287 144.781 283.585 144.781 282.632V280.396C144.781 279.859 144.833 279.538 144.937 279.434C145.058 279.33 145.44 279.278 146.081 279.278H148.941ZM150.007 274.078H150.709V276.548L146.887 276.522C146.28 276.522 145.838 276.401 145.561 276.158C145.284 275.898 145.145 275.404 145.145 274.676L145.171 268.54C145.171 267.847 145.249 267.413 145.405 267.24C145.561 267.049 145.682 266.919 145.769 266.85C145.856 266.763 146.029 266.703 146.289 266.668C146.549 266.633 146.74 266.616 146.861 266.616H149.357L149.305 273.298C149.305 273.575 149.34 273.775 149.409 273.896C149.496 274.017 149.695 274.078 150.007 274.078ZM157.781 266.616V268.878C157.781 269.363 157.564 269.606 157.131 269.606L150.397 269.632V266.616H157.781Z" fill="url(#paint6_linear_126_30934)"/>
<path d="M30.0543 196.509L31.7461 195.539C33.0244 194.806 34.0815 195.169 34.9176 196.628L38.2014 202.358C38.9772 203.711 38.7033 204.767 37.3799 205.526L34.267 207.31L33.0388 205.167L33.9185 204.663C34.1892 204.508 34.3288 204.368 34.3372 204.243C34.3521 204.095 34.2905 203.9 34.1526 203.659L30.0543 196.509ZM33.3647 207.827L32.733 208.189C32.4624 208.344 32.3196 208.496 32.3047 208.644C32.2963 208.769 32.361 208.952 32.4989 209.192L35.7699 214.899L33.8525 215.998C33.1156 216.421 32.5804 216.568 32.247 216.439C31.9136 216.31 31.4711 215.765 30.9195 214.802L28.1915 210.043C27.8123 209.381 27.6794 208.888 27.793 208.563C27.9065 208.238 28.3242 207.869 29.046 207.455L32.1364 205.684L33.3647 207.827ZM40.9602 208.478C41.3361 208.263 41.6448 208.366 41.8861 208.787L43.0109 210.749L36.6947 214.369L35.1854 211.788L40.9602 208.478ZM30.3802 199.169L28.2372 200.397C27.9214 200.578 27.756 200.743 27.7412 200.891C27.7177 201.024 27.7792 201.219 27.9258 201.475L29.3608 203.978L26.8795 205.401C26.3231 205.72 25.9664 205.864 25.8094 205.834C25.6674 205.796 25.4629 205.543 25.1957 205.077L24.0838 203.137C23.6098 202.31 23.381 201.632 23.3975 201.103C23.4291 200.566 23.8659 200.055 24.7081 199.573L29.152 197.026L30.3802 199.169ZM42.8346 189.184L44.5716 188.188C45.1731 187.844 45.6952 187.604 46.1379 187.47C46.5957 187.328 47.045 187.31 47.4859 187.417C47.9418 187.515 48.3441 187.694 48.6927 187.954C49.0477 188.19 49.4686 188.628 49.9553 189.268C50.6854 190.228 51.7055 191.851 53.0156 194.137L53.0544 194.205C55.0281 197.649 56.0791 199.883 56.2073 200.909C56.3613 201.979 56.1667 202.79 55.6234 203.341C55.3293 203.629 54.9265 203.92 54.4152 204.213L52.182 205.493L50.9538 203.35L51.7208 202.911C52.1118 202.686 52.3297 202.492 52.3747 202.326C52.4346 202.152 52.4 201.952 52.2707 201.726L46.1296 191.011C46.0003 190.786 45.8453 190.655 45.6647 190.618C45.4991 190.574 45.2208 190.663 44.8298 190.887L44.0628 191.327L42.8346 189.184ZM43.1605 191.844L42.3936 192.284C42.0026 192.508 41.7771 192.707 41.7171 192.881C41.6722 193.047 41.7143 193.242 41.8436 193.468L47.9847 204.183C48.114 204.408 48.2615 204.544 48.4271 204.588C48.6077 204.625 48.8935 204.531 49.2845 204.307L50.0515 203.867L51.2797 206.01L49.0465 207.29C47.9186 207.937 46.9008 208.06 45.993 207.662C45.253 207.347 44.2647 206.215 43.0282 204.266C42.5348 203.51 41.8917 202.44 41.0988 201.057L41.06 200.989C39.0345 197.455 37.977 195.174 37.8875 194.147C37.8547 193.706 37.9036 193.269 38.0342 192.834C38.1798 192.391 38.4223 192.012 38.7616 191.698C39.1159 191.375 39.5938 191.041 40.1954 190.696L41.9323 189.701L43.1605 191.844Z" fill="url(#paint7_linear_126_30934)"/>
<path d="M42.3397 78.4868L43.9916 79.523C45.2398 80.3058 45.4171 81.4094 44.5238 82.8338L41.0147 88.4284C40.1858 89.7499 39.1252 90.0054 37.833 89.1949L34.7935 87.2884L36.1059 85.196L36.9649 85.7348C37.2292 85.9006 37.4184 85.9578 37.5324 85.9066C37.6703 85.8498 37.8129 85.704 37.9603 85.469L42.3397 78.4868ZM33.9124 86.7358L33.2957 86.349C33.0314 86.1832 32.8303 86.1287 32.6924 86.1854C32.5784 86.2367 32.4477 86.3798 32.3004 86.6147L28.8051 92.1873L26.9329 91.013C26.2134 90.5617 25.8319 90.1587 25.7883 89.804C25.7448 89.4493 26.0178 88.8021 26.6072 87.8624L29.5222 83.2149C29.9275 82.5688 30.3001 82.2194 30.6401 82.1667C30.9801 82.1139 31.5025 82.3086 32.2073 82.7507L35.2249 84.6434L33.9124 86.7358ZM36.9135 93.7436C37.2806 93.9739 37.3352 94.2946 37.0773 94.7057L35.8754 96.622L29.7082 92.7537L31.2749 90.2069L36.9135 93.7436ZM40.1462 80.0267L38.0538 78.7142C37.7454 78.5208 37.5223 78.4525 37.3844 78.5092C37.2557 78.5513 37.1131 78.6971 36.9565 78.9467L35.423 81.3916L33.0002 79.8719C32.4569 79.5312 32.1614 79.2845 32.1139 79.1319C32.0811 78.9885 32.2074 78.6893 32.4929 78.2341L33.681 76.3398C34.1876 75.5322 34.6781 75.0112 35.1525 74.7768C35.6416 74.5516 36.2973 74.6969 37.1196 75.2126L41.4587 77.9342L40.1462 80.0267ZM47.4596 103.919C47.4449 103.909 47.4229 103.896 47.3935 103.877L45.7554 102.819L50.1098 95.9745C50.2572 95.7396 50.3218 95.5551 50.3036 95.4209C50.3093 95.2813 50.18 95.1286 49.9157 94.9628L48.9906 94.3825L50.3031 92.2901L53.417 94.2739C54.6852 95.0898 54.9095 96.1513 54.0898 97.4581L50.6278 102.929C50.1765 103.648 49.6788 104.083 49.1347 104.233C48.5906 104.382 48.0323 104.278 47.4596 103.919ZM45.1392 95.1894L43.6057 97.6343C43.4437 97.86 43.3671 98.0473 43.3761 98.1961C43.3997 98.3542 43.5657 98.5299 43.8741 98.7233L46.1868 100.174L44.8743 102.266L40.315 99.4066C39.4927 98.8908 39.0765 98.3638 39.0663 97.8254C39.0708 97.2963 39.3264 96.6279 39.8329 95.8203L41.021 93.9261C41.3065 93.4709 41.521 93.2268 41.6644 93.194C41.8224 93.1704 42.1731 93.3289 42.7164 93.6697L45.1392 95.1894ZM48.8053 91.3506L49.4 91.7237L48.0876 93.8161L44.8636 91.7632C44.3497 91.4409 44.0397 91.1032 43.9337 90.7503C43.8369 90.3827 43.9819 89.8905 44.3688 89.2738L47.6512 84.0895C48.0196 83.5021 48.3159 83.1765 48.5402 83.1125C48.7736 83.0339 48.9455 82.9883 49.0558 82.9756C49.1752 82.9482 49.3543 82.9889 49.593 83.0977C49.8317 83.2065 50.0024 83.2931 50.1052 83.3576L52.2197 84.6838L48.6251 90.3169C48.4777 90.5518 48.4012 90.7391 48.3955 90.8787C48.4044 91.0276 48.541 91.1849 48.8053 91.3506ZM59.3561 89.16L58.1541 91.0762C57.8962 91.4874 57.5837 91.5778 57.2167 91.3476L51.4981 87.7915L53.1007 85.2365L59.3561 89.16Z" fill="url(#paint8_linear_126_30934)"/>
<path d="M262.634 94.4401C262.616 94.4401 262.59 94.4401 262.556 94.4401L260.606 94.4141L260.658 86.3021C260.658 86.0247 260.614 85.8341 260.528 85.7301C260.458 85.6087 260.268 85.5481 259.956 85.5481H258.864V83.0781L262.556 83.1041C264.064 83.1214 264.818 83.9014 264.818 85.4441L264.792 91.9181C264.792 92.7674 264.601 93.4001 264.22 93.8161C263.838 94.2321 263.31 94.4401 262.634 94.4401ZM256.03 88.2781V91.1641C256.012 91.4414 256.047 91.6407 256.134 91.7621C256.238 91.8834 256.472 91.9441 256.836 91.9441H259.566V94.4141H254.184C253.213 94.4141 252.58 94.1887 252.286 93.7381C252.008 93.2874 251.87 92.5854 251.87 91.6321V89.3961C251.87 88.8587 251.922 88.5381 252.026 88.4341C252.147 88.3301 252.528 88.2781 253.17 88.2781H256.03ZM257.096 83.0781H257.798V85.5481L253.976 85.5221C253.369 85.5221 252.927 85.4007 252.65 85.1581C252.372 84.8981 252.234 84.4041 252.234 83.6761L252.26 77.5401C252.26 76.8467 252.338 76.4134 252.494 76.2401C252.65 76.0494 252.771 75.9194 252.858 75.8501C252.944 75.7634 253.118 75.7027 253.378 75.6681C253.638 75.6334 253.828 75.6161 253.95 75.6161H256.446L256.394 82.2981C256.394 82.5754 256.428 82.7747 256.498 82.8961C256.584 83.0174 256.784 83.0781 257.096 83.0781ZM264.87 75.6161V77.8781C264.87 78.3634 264.653 78.6061 264.22 78.6061L257.486 78.6321V75.6161H264.87Z" fill="url(#paint9_linear_126_30934)"/>
<defs>
<linearGradient id="paint0_linear_126_30934" x1="138.502" y1="5.41406" x2="138.502" y2="33.2527" gradientUnits="userSpaceOnUse">
<stop stop-color="#DCBF87"/>
<stop offset="1" stop-color="#68552C"/>
</linearGradient>
<linearGradient id="paint1_linear_126_30934" x1="155.005" y1="5.48437" x2="155.005" y2="17.2512" gradientUnits="userSpaceOnUse">
<stop stop-color="#E5C68C"/>
<stop offset="1" stop-color="#7F6E4E"/>
</linearGradient>
<linearGradient id="paint2_linear_126_30934" x1="140.224" y1="19.6914" x2="140.224" y2="31.53" gradientUnits="userSpaceOnUse">
<stop stop-color="#E5C68C"/>
<stop offset="1" stop-color="#7F6E4E"/>
</linearGradient>
<linearGradient id="paint3_linear_126_30934" x1="140.108" y1="17.8984" x2="140.108" y2="5.77286" gradientUnits="userSpaceOnUse">
<stop stop-color="#E5C68C"/>
<stop offset="1" stop-color="#7F6E4E"/>
</linearGradient>
<linearGradient id="paint4_linear_126_30934" x1="154.995" y1="31.3867" x2="154.995" y2="19.5196" gradientUnits="userSpaceOnUse">
<stop stop-color="#E5C68C"/>
<stop offset="1" stop-color="#7F6E4E"/>
</linearGradient>
<linearGradient id="paint5_linear_126_30934" x1="256.48" y1="187.38" x2="270.718" y2="198.001" gradientUnits="userSpaceOnUse">
<stop stop-color="#ECC271"/>
<stop offset="1" stop-color="#7F642E"/>
</linearGradient>
<linearGradient id="paint6_linear_126_30934" x1="136.695" y1="259.414" x2="155.085" y2="262.509" gradientUnits="userSpaceOnUse">
<stop stop-color="#ECC271"/>
<stop offset="1" stop-color="#7F642E"/>
</linearGradient>
<linearGradient id="paint7_linear_126_30934" x1="21.7436" y1="192.971" x2="47.1552" y2="186.067" gradientUnits="userSpaceOnUse">
<stop stop-color="#ECC271"/>
<stop offset="1" stop-color="#7F642E"/>
</linearGradient>
<linearGradient id="paint8_linear_126_30934" x1="42.0851" y1="69.8256" x2="59.0026" y2="86.6324" gradientUnits="userSpaceOnUse">
<stop stop-color="#ECC271"/>
<stop offset="1" stop-color="#7F642E"/>
</linearGradient>
<linearGradient id="paint9_linear_126_30934" x1="250.395" y1="68.414" x2="268.393" y2="71.2674" gradientUnits="userSpaceOnUse">
<stop stop-color="#ECC271"/>
<stop offset="1" stop-color="#7F642E"/>
</linearGradient>
</defs>
</svg>
