<svg width="294" height="291" viewBox="0 0 294 291" fill="none" xmlns="http://www.w3.org/2000/svg">
<path d="M140.935 31.8386C139.363 31.8386 137.978 31.6266 136.78 31.2025C135.607 30.7535 134.684 30.1548 134.011 29.4065C133.337 28.6332 133 27.7601 133 26.7872C133 25.9641 133.225 25.3155 133.674 24.8415C134.148 24.3426 134.734 24.0932 135.433 24.0932C135.882 24.0932 136.281 24.193 136.63 24.3925C137.005 24.5671 137.292 24.8291 137.491 25.1783C137.716 25.5026 137.828 25.8892 137.828 26.3382C137.828 26.7373 137.741 27.0492 137.566 27.2737C137.416 27.4982 137.242 27.6853 137.042 27.8349C136.843 27.9846 136.655 28.1343 136.481 28.2839C136.331 28.4087 136.256 28.6082 136.256 28.8826C136.256 29.3316 136.493 29.6933 136.967 29.9677C137.466 30.2172 138.04 30.4043 138.689 30.529C139.363 30.6537 139.962 30.7161 140.486 30.7161C142.232 30.7161 143.567 30.1299 144.49 28.9574C145.439 27.785 145.913 26.1012 145.913 23.9061C145.913 21.8357 145.439 20.2516 144.49 19.1541C143.542 18.0565 141.958 17.5077 139.737 17.5077L143.405 16.6471C144.952 16.8217 146.299 17.2583 147.447 17.9567C148.62 18.6302 149.531 19.4784 150.179 20.5011C150.828 21.5238 151.152 22.6588 151.152 23.9061C151.152 25.2531 150.741 26.5378 149.917 27.7601C149.119 28.9574 147.959 29.9428 146.437 30.7161C144.915 31.4644 143.081 31.8386 140.935 31.8386ZM138.898 17.5077V15.6677H143.405V17.5077H138.898ZM141.197 16.7968L139.026 16.3852C141.047 16.3852 142.494 15.8239 143.368 14.7014C144.241 13.5539 144.677 11.9824 144.677 9.98679C144.677 8.7146 144.515 7.72927 144.191 7.03081C143.891 6.33236 143.442 5.84593 142.844 5.57153C142.27 5.27219 141.571 5.12253 140.748 5.12253C139.824 5.12253 139.051 5.25972 138.427 5.53412C137.803 5.80851 137.491 6.18269 137.491 6.65664C137.491 6.93104 137.591 7.15554 137.791 7.33016C137.99 7.50477 138.19 7.7168 138.39 7.96625C138.589 8.19076 138.689 8.53999 138.689 9.01394C138.689 9.66251 138.477 10.1489 138.053 10.4732C137.629 10.7726 137.167 10.9222 136.668 10.9222C136.044 10.9222 135.508 10.6977 135.059 10.2487C134.634 9.79971 134.422 9.25092 134.422 8.60235C134.422 7.87895 134.697 7.16801 135.246 6.46955C135.82 5.77109 136.643 5.18489 137.716 4.71093C138.789 4.23698 140.086 4 141.608 4C143.28 4 144.702 4.28687 145.875 4.8606C147.073 5.43434 147.984 6.18269 148.607 7.10565C149.231 8.02861 149.543 9.01394 149.543 10.0616C149.543 11.1842 149.194 12.2318 148.495 13.2047C147.821 14.1526 146.861 14.9508 145.613 15.5994C144.366 16.223 142.893 16.6222 141.197 16.7968Z" fill="url(#paint0_linear_126_31089)"/>
<path d="M164.5 9.95373C164.5 12.8866 161.891 15.3371 158.579 15.3371C155.266 15.3371 152.657 12.8866 152.657 9.95373C152.657 7.02084 155.266 4.57031 158.579 4.57031C161.891 4.57031 164.5 7.02084 164.5 9.95373Z" fill="black" stroke="url(#paint1_linear_126_31089)"/>
<path d="M137.877 24.1966C137.877 27.1521 140.489 29.6159 143.798 29.6159C147.108 29.6159 149.72 27.1521 149.72 24.1966C149.72 21.2412 147.108 18.7773 143.798 18.7773C140.489 18.7773 137.877 21.2412 137.877 24.1966Z" fill="black" stroke="url(#paint2_linear_126_31089)"/>
<mask id="path-4-inside-1_126_31089" fill="white">
<path fill-rule="evenodd" clip-rule="evenodd" d="M138.891 15.6579C140.811 14.6243 142.099 12.724 142.099 10.5508C142.099 8.28884 140.704 6.3225 138.652 5.32138C139.67 4.71224 140.883 4.3588 142.184 4.3588C145.79 4.3588 148.713 7.0732 148.713 10.4216C148.713 13.77 145.79 16.4844 142.184 16.4844C140.983 16.4844 139.857 16.1833 138.891 15.6579Z"/>
</mask>
<path fill-rule="evenodd" clip-rule="evenodd" d="M138.891 15.6579C140.811 14.6243 142.099 12.724 142.099 10.5508C142.099 8.28884 140.704 6.3225 138.652 5.32138C139.67 4.71224 140.883 4.3588 142.184 4.3588C145.79 4.3588 148.713 7.0732 148.713 10.4216C148.713 13.77 145.79 16.4844 142.184 16.4844C140.983 16.4844 139.857 16.1833 138.891 15.6579Z" fill="black"/>
<path d="M138.891 15.6579L138.417 14.7773L136.789 15.6536L138.413 16.5365L138.891 15.6579ZM138.652 5.32138L138.139 4.46324L136.555 5.41078L138.214 6.2201L138.652 5.32138ZM141.099 10.5508C141.099 12.3078 140.058 13.894 138.417 14.7773L139.365 16.5385C141.564 15.3545 143.099 13.1401 143.099 10.5508L141.099 10.5508ZM138.214 6.2201C139.971 7.07754 141.099 8.72284 141.099 10.5508L143.099 10.5508C143.099 7.85484 141.437 5.56747 139.091 4.42265L138.214 6.2201ZM139.166 6.17952C140.03 5.66249 141.065 5.3588 142.184 5.3588L142.184 3.3588C140.7 3.3588 139.311 3.762 138.139 4.46324L139.166 6.17952ZM142.184 5.3588C145.308 5.3588 147.713 7.69399 147.713 10.4216L149.713 10.4216C149.713 6.45242 146.271 3.3588 142.184 3.3588L142.184 5.3588ZM147.713 10.4216C147.713 13.1492 145.308 15.4844 142.184 15.4844L142.184 17.4844C146.271 17.4844 149.713 14.3908 149.713 10.4216L147.713 10.4216ZM142.184 15.4844C141.151 15.4844 140.19 15.2256 139.368 14.7792L138.413 16.5365C139.525 17.1409 140.815 17.4844 142.184 17.4844L142.184 15.4844Z" fill="url(#paint3_linear_126_31089)" mask="url(#path-4-inside-1_126_31089)"/>
<mask id="path-6-inside-2_126_31089" fill="white">
<path fill-rule="evenodd" clip-rule="evenodd" d="M163.474 29.1779C161.521 28.1518 160.206 26.2347 160.206 24.039C160.206 21.8434 161.521 19.9263 163.474 18.9001C162.512 18.3948 161.395 18.1055 160.203 18.1055C156.592 18.1055 153.664 20.7621 153.664 24.0391C153.664 27.3161 156.592 29.9727 160.203 29.9727C161.395 29.9727 162.512 29.6834 163.474 29.1779Z"/>
</mask>
<path fill-rule="evenodd" clip-rule="evenodd" d="M163.474 29.1779C161.521 28.1518 160.206 26.2347 160.206 24.039C160.206 21.8434 161.521 19.9263 163.474 18.9001C162.512 18.3948 161.395 18.1055 160.203 18.1055C156.592 18.1055 153.664 20.7621 153.664 24.0391C153.664 27.3161 156.592 29.9727 160.203 29.9727C161.395 29.9727 162.512 29.6834 163.474 29.1779Z" fill="black"/>
<path d="M163.474 29.1779L163.939 28.2926L165.625 29.1779L163.939 30.0632L163.474 29.1779ZM163.474 18.9001L163.939 18.0148L165.625 18.9001L163.939 19.7854L163.474 18.9001ZM161.206 24.039C161.206 25.814 162.269 27.4152 163.939 28.2926L163.009 30.0633C160.773 28.8884 159.206 26.6553 159.206 24.039L161.206 24.039ZM163.939 19.7854C162.269 20.6629 161.206 22.264 161.206 24.039L159.206 24.039C159.206 21.4227 160.772 19.1897 163.009 18.0148L163.939 19.7854ZM163.009 19.7854C162.19 19.3552 161.232 19.1055 160.203 19.1055L160.203 17.1055C161.557 17.1055 162.834 17.4343 163.939 18.0148L163.009 19.7854ZM160.203 19.1055C157.05 19.1055 154.664 21.4036 154.664 24.0391L152.664 24.0391C152.664 20.1206 156.133 17.1055 160.203 17.1055L160.203 19.1055ZM154.664 24.0391C154.664 26.6746 157.05 28.9727 160.203 28.9727L160.203 30.9727C156.133 30.9727 152.664 27.9576 152.664 24.0391L154.664 24.0391ZM160.203 28.9727C161.232 28.9727 162.19 28.7229 163.009 28.2926L163.939 30.0632C162.834 30.6438 161.557 30.9727 160.203 30.9727L160.203 28.9727Z" fill="url(#paint4_linear_126_31089)" mask="url(#path-6-inside-2_126_31089)"/>
<path d="M247.343 211.262C247.303 211.339 247.332 211.432 247.431 211.542C247.529 211.653 247.64 211.74 247.763 211.804L247.534 212.242L243.272 210.012L243.501 209.574C243.624 209.638 243.759 209.68 243.906 209.698C244.053 209.716 244.147 209.687 244.187 209.61L251.42 195.788L249.024 194.535C248.948 194.494 248.858 194.516 248.756 194.599C248.653 194.683 248.574 194.778 248.518 194.886L248.08 194.657L250.033 190.925L250.471 191.154C250.415 191.261 250.381 191.381 250.371 191.513C250.361 191.644 250.394 191.73 250.471 191.77L256.53 194.941L256.301 195.379C256.193 195.322 256.066 195.285 255.919 195.267C255.787 195.257 255.701 195.29 255.661 195.367L247.343 211.262ZM259.267 219.058C258.131 218.463 257.2 217.663 256.474 216.657C255.757 215.636 255.351 214.485 255.259 213.204C255.182 211.931 255.497 210.619 256.204 209.267L258.941 204.038C259.527 202.917 260.32 201.962 261.319 201.175C262.319 200.387 263.471 199.923 264.776 199.785C266.089 199.631 267.452 199.923 268.865 200.663C270.401 201.467 271.483 202.444 272.113 203.595C272.743 204.747 273.004 205.949 272.896 207.203C272.795 208.442 272.443 209.637 271.841 210.789L269.056 216.11C267.987 218.153 266.576 219.41 264.823 219.882C263.085 220.361 261.233 220.086 259.267 219.058ZM260.882 216.029C261.895 216.559 262.855 216.631 263.762 216.245C264.692 215.851 265.575 214.856 266.411 213.259L268.484 209.297C269.119 208.083 269.337 206.994 269.138 206.029C268.938 205.064 268.286 204.292 267.18 203.714C266.182 203.191 265.226 203.111 264.312 203.474C263.422 203.83 262.639 204.653 261.964 205.943L259.782 210.112C259.066 211.479 258.812 212.676 259.018 213.704C259.231 214.715 259.853 215.491 260.882 216.029Z" fill="url(#paint5_linear_126_31089)"/>
<path d="M142.744 285.22C142.744 285.307 142.813 285.376 142.952 285.428C143.091 285.48 143.229 285.506 143.368 285.506V286H138.558V285.506C138.697 285.506 138.835 285.48 138.974 285.428C139.113 285.376 139.182 285.307 139.182 285.22V269.62H136.478C136.391 269.62 136.322 269.681 136.27 269.802C136.218 269.923 136.192 270.045 136.192 270.166H135.698V265.954H136.192C136.192 266.075 136.218 266.197 136.27 266.318C136.322 266.439 136.391 266.5 136.478 266.5H143.316V266.994C143.195 266.994 143.065 267.02 142.926 267.072C142.805 267.124 142.744 267.193 142.744 267.28V285.22ZM157.21 272.87C158.597 272.87 159.819 273.156 160.876 273.728C161.933 274.283 162.748 275.071 163.32 276.094C163.909 277.099 164.204 278.278 164.204 279.63C164.204 281.034 163.901 282.273 163.294 283.348C162.705 284.405 161.864 285.229 160.772 285.818C159.68 286.407 158.415 286.702 156.976 286.702C155.763 286.702 154.679 286.459 153.726 285.974C152.773 285.489 151.793 284.735 150.788 283.712C150.753 283.677 150.701 283.66 150.632 283.66C150.493 283.66 150.32 283.738 150.112 283.894L149.8 283.53L153.284 280.514L153.622 280.878C153.518 280.965 153.423 281.077 153.336 281.216C153.249 281.355 153.232 281.459 153.284 281.528C153.735 282.083 154.263 282.533 154.87 282.88C155.494 283.209 156.179 283.374 156.924 283.374C158.172 283.374 159.108 283.027 159.732 282.334C160.356 281.641 160.668 280.722 160.668 279.578C160.668 278.538 160.321 277.689 159.628 277.03C158.952 276.371 158.085 276.042 157.028 276.042C156.335 276.042 155.719 276.181 155.182 276.458C154.662 276.718 154.255 277.056 153.96 277.472L150.398 276.822L150.502 276.328C150.537 276.345 150.615 276.354 150.736 276.354C150.996 276.354 151.135 276.293 151.152 276.172L153.102 267.254V267.202C153.102 267.133 153.059 267.081 152.972 267.046C152.903 267.011 152.816 266.994 152.712 266.994V266.5H162.046C162.133 266.5 162.202 266.439 162.254 266.318C162.306 266.197 162.332 266.075 162.332 265.954H162.826V270.166H162.332C162.332 270.045 162.306 269.923 162.254 269.802C162.202 269.681 162.133 269.62 162.046 269.62H155.962L155.182 273.156C155.806 272.965 156.482 272.87 157.21 272.87Z" fill="url(#paint6_linear_126_31089)"/>
<path d="M37.6651 207.765L39.7596 211.42L39.331 211.665C39.2706 211.56 39.1877 211.468 39.0823 211.388C38.9769 211.309 38.8865 211.291 38.8113 211.334L27.3295 217.914L26.9287 217.215L29.4394 206.067C29.681 204.989 29.8335 204.053 29.897 203.257C29.9605 202.462 29.8112 201.748 29.4492 201.116C28.9579 200.259 28.2896 199.703 27.4444 199.449C26.5991 199.194 25.763 199.303 24.9358 199.777C24.1989 200.2 23.6913 200.83 23.4129 201.669C23.1495 202.499 23.2269 203.314 23.645 204.113C23.7031 204.18 23.8128 204.197 23.974 204.165C24.1352 204.132 24.276 204.081 24.3963 204.012L24.6419 204.441L20.4011 206.872L20.1554 206.443C20.2607 206.383 20.3681 206.291 20.4776 206.169C20.587 206.046 20.6202 205.947 20.5771 205.872C20.0899 204.812 19.8617 203.735 19.8925 202.638C19.9148 201.526 20.2241 200.48 20.8205 199.499C21.432 198.509 22.3317 197.674 23.5197 196.993C24.7679 196.278 25.9801 195.952 27.1562 196.018C28.3237 196.068 29.3722 196.416 30.3018 197.062C31.2378 197.684 31.9817 198.476 32.5333 199.439C32.9298 200.131 33.1747 200.819 33.268 201.505C33.3764 202.182 33.3795 202.919 33.2773 203.717C33.1751 204.515 32.969 205.602 32.6591 206.978L31.5754 211.885L37.2599 208.627C37.3351 208.584 37.3651 208.497 37.3499 208.366C37.3346 208.234 37.2969 208.116 37.2365 208.011L37.6651 207.765ZM48.118 206.689C47.0052 207.327 45.8296 207.681 44.5914 207.751C43.3445 207.807 42.1563 207.529 41.0268 206.917C39.9123 206.298 38.9758 205.326 38.2173 204.003L35.2825 198.882C34.6534 197.784 34.2756 196.602 34.1493 195.336C34.0229 194.07 34.2525 192.849 34.8379 191.675C35.4147 190.485 36.3949 189.494 37.7784 188.701C39.2823 187.839 40.6889 187.452 41.9983 187.541C43.3078 187.63 44.4618 188.057 45.4603 188.823C46.4503 189.574 47.2684 190.514 47.9149 191.642L50.9014 196.853C52.0477 198.853 52.3479 200.719 51.8019 202.45C51.2709 204.173 50.043 205.586 48.118 206.689ZM46.434 203.699C47.4266 203.13 48.0039 202.359 48.166 201.387C48.3346 200.392 47.9707 199.112 47.0743 197.548L44.8506 193.668C44.1697 192.48 43.3689 191.71 42.4483 191.359C41.5277 191.007 40.526 191.142 39.4432 191.762C38.4657 192.323 37.884 193.086 37.6982 194.051C37.5189 194.993 37.7912 196.096 38.5152 197.359L40.8553 201.442C41.6224 202.78 42.4942 203.639 43.4707 204.018C44.4387 204.383 45.4264 204.276 46.434 203.699Z" fill="url(#paint7_linear_126_31089)"/>
<path d="M32.6806 89.747L30.4425 93.3152L30.024 93.0527C30.0885 92.95 30.1309 92.8333 30.1513 92.7029C30.1718 92.5725 30.1453 92.4843 30.0718 92.4382L18.8607 85.4063L19.289 84.7235L30.3068 81.6902C31.3711 81.3961 32.2691 81.0898 33.0009 80.7713C33.7326 80.4527 34.2919 79.9851 34.6788 79.3684C35.2037 78.5314 35.3796 77.6801 35.2065 76.8144C35.0333 75.9488 34.5429 75.2627 33.7353 74.7561C33.0158 74.3048 32.2205 74.1538 31.3494 74.303C30.4929 74.4615 29.8105 74.9133 29.3022 75.6585C29.2709 75.7411 29.3074 75.8459 29.412 75.9728C29.5165 76.0998 29.6275 76.2001 29.745 76.2738L29.4825 76.6923L25.3416 74.095L25.6041 73.6765C25.7069 73.741 25.8382 73.7926 25.998 73.8315C26.1577 73.8703 26.2607 73.853 26.3067 73.7796C27.0119 72.851 27.8554 72.1423 28.8374 71.6533C29.8285 71.1496 30.8973 70.9299 32.0436 70.9942C33.2047 71.0677 34.3653 71.4683 35.5253 72.1959C36.7441 72.9603 37.6016 73.8767 38.0978 74.945C38.6032 75.9986 38.7898 77.0875 38.6575 78.2117C38.5492 79.3305 38.2003 80.3598 37.6108 81.2995C37.1871 81.975 36.6948 82.5153 36.1337 82.9204C35.5874 83.3348 34.9383 83.6847 34.1863 83.9701C33.4344 84.2555 32.3783 84.5855 31.0181 84.96L26.1792 86.3137L31.7297 89.7951C31.8031 89.8412 31.8941 89.8266 32.0026 89.7515C32.1111 89.6763 32.1976 89.5873 32.2621 89.4845L32.6806 89.747ZM46.0878 86.9848C47.2625 87.7216 48.1457 88.6132 48.7375 89.6596C49.3385 90.6913 49.6096 91.7923 49.5507 92.9626C49.5158 94.1274 49.1391 95.2825 48.4207 96.4278C47.6747 97.6172 46.7592 98.506 45.6743 99.094C44.6132 99.6766 43.4635 99.9274 42.2253 99.8464C40.9871 99.7654 39.7586 99.3427 38.5398 98.5782C37.5119 97.9335 36.7231 97.1523 36.1734 96.2346C35.6237 95.3169 35.1947 94.1578 34.8864 92.7572C34.8755 92.7094 34.8406 92.6671 34.7819 92.6303C34.6644 92.5566 34.4761 92.5306 34.217 92.5522L34.1461 92.0781L38.7002 91.3743L38.7931 91.8623C38.6589 91.8804 38.5183 91.9252 38.3712 91.9966C38.2241 92.0681 38.1542 92.147 38.1614 92.2333C38.2484 92.9427 38.4568 93.6054 38.7866 94.2214C39.1402 94.832 39.6327 95.3353 40.2641 95.7313C41.3214 96.3944 42.2985 96.5981 43.1955 96.3423C44.0925 96.0865 44.845 95.4741 45.4529 94.5049C46.0055 93.6239 46.1631 92.7202 45.9257 91.7938C45.703 90.8766 45.1438 90.1371 44.2481 89.5753C43.6608 89.2069 43.0658 88.9974 42.4632 88.9468C41.8846 88.8908 41.3599 88.9606 40.8892 89.1565L38.2171 86.7132L38.5677 86.3499C38.5878 86.383 38.6493 86.4318 38.7521 86.4963C38.9723 86.6344 39.122 86.6567 39.2012 86.5631L45.5918 80.0444L45.6194 80.0004C45.6562 79.9416 45.6472 79.8746 45.5922 79.7991C45.5518 79.7329 45.4876 79.6722 45.3995 79.6169L45.662 79.1984L53.5693 84.1581C53.6427 84.2042 53.7337 84.1896 53.8422 84.1145C53.9507 84.0393 54.0372 83.9503 54.1017 83.8475L54.5202 84.11L52.2821 87.6782L51.8636 87.4157C51.9281 87.3129 51.9706 87.1963 51.991 87.0659C52.0114 86.9355 51.9849 86.8473 51.9115 86.8012L46.7574 83.5685L44.2178 86.1495C44.8477 86.3196 45.471 86.598 46.0878 86.9848Z" fill="url(#paint8_linear_126_31089)"/>
<path d="M262.255 82.87C263.642 82.87 264.864 83.156 265.921 83.728C266.978 84.2827 267.793 85.0713 268.365 86.094C268.954 87.0993 269.249 88.278 269.249 89.63C269.249 91.034 268.946 92.2733 268.339 93.348C267.75 94.4053 266.909 95.2287 265.817 95.818C264.725 96.4073 263.46 96.702 262.021 96.702C260.808 96.702 259.724 96.4593 258.771 95.974C257.818 95.4887 256.838 94.7347 255.833 93.712C255.798 93.6773 255.746 93.66 255.677 93.66C255.538 93.66 255.365 93.738 255.157 93.894L254.845 93.53L258.329 90.514L258.667 90.878C258.563 90.9647 258.468 91.0773 258.381 91.216C258.294 91.3547 258.277 91.4587 258.329 91.528C258.78 92.0827 259.308 92.5333 259.915 92.88C260.539 93.2093 261.224 93.374 261.969 93.374C263.217 93.374 264.153 93.0273 264.777 92.334C265.401 91.6407 265.713 90.722 265.713 89.578C265.713 88.538 265.366 87.6887 264.673 87.03C263.997 86.3713 263.13 86.042 262.073 86.042C261.38 86.042 260.764 86.1807 260.227 86.458C259.707 86.718 259.3 87.056 259.005 87.472L255.443 86.822L255.547 86.328C255.582 86.3453 255.66 86.354 255.781 86.354C256.041 86.354 256.18 86.2933 256.197 86.172L258.147 77.254V77.202C258.147 77.1327 258.104 77.0807 258.017 77.046C257.948 77.0113 257.861 76.994 257.757 76.994V76.5H267.091C267.178 76.5 267.247 76.4393 267.299 76.318C267.351 76.1967 267.377 76.0753 267.377 75.954H267.871V80.166H267.377C267.377 80.0447 267.351 79.9233 267.299 79.802C267.247 79.6807 267.178 79.62 267.091 79.62H261.007L260.227 83.156C260.851 82.9653 261.527 82.87 262.255 82.87Z" fill="url(#paint9_linear_126_31089)"/>
<defs>
<linearGradient id="paint0_linear_126_31089" x1="142.076" y1="4" x2="142.076" y2="31.8386" gradientUnits="userSpaceOnUse">
<stop stop-color="#DCBF87"/>
<stop offset="1" stop-color="#68552C"/>
</linearGradient>
<linearGradient id="paint1_linear_126_31089" x1="158.579" y1="4.07031" x2="158.579" y2="15.8371" gradientUnits="userSpaceOnUse">
<stop stop-color="#E5C68C"/>
<stop offset="1" stop-color="#7F6E4E"/>
</linearGradient>
<linearGradient id="paint2_linear_126_31089" x1="143.798" y1="18.2773" x2="143.798" y2="30.1159" gradientUnits="userSpaceOnUse">
<stop stop-color="#E5C68C"/>
<stop offset="1" stop-color="#7F6E4E"/>
</linearGradient>
<linearGradient id="paint3_linear_126_31089" x1="143.682" y1="16.4844" x2="143.682" y2="4.3588" gradientUnits="userSpaceOnUse">
<stop stop-color="#E5C68C"/>
<stop offset="1" stop-color="#7F6E4E"/>
</linearGradient>
<linearGradient id="paint4_linear_126_31089" x1="158.569" y1="29.9727" x2="158.569" y2="18.1055" gradientUnits="userSpaceOnUse">
<stop stop-color="#E5C68C"/>
<stop offset="1" stop-color="#7F6E4E"/>
</linearGradient>
<linearGradient id="paint5_linear_126_31089" x1="259.054" y1="184.411" x2="273.584" y2="194.734" gradientUnits="userSpaceOnUse">
<stop stop-color="#ECC271"/>
<stop offset="1" stop-color="#7F642E"/>
</linearGradient>
<linearGradient id="paint6_linear_126_31089" x1="140.269" y1="256" x2="158.659" y2="259.095" gradientUnits="userSpaceOnUse">
<stop stop-color="#ECC271"/>
<stop offset="1" stop-color="#7F642E"/>
</linearGradient>
<linearGradient id="paint7_linear_126_31089" x1="15.3178" y1="190.221" x2="40.6723" y2="182.201" gradientUnits="userSpaceOnUse">
<stop stop-color="#ECC271"/>
<stop offset="1" stop-color="#7F642E"/>
</linearGradient>
<linearGradient id="paint8_linear_126_31089" x1="38.6593" y1="62.4116" x2="55.5768" y2="79.2183" gradientUnits="userSpaceOnUse">
<stop stop-color="#ECC271"/>
<stop offset="1" stop-color="#7F642E"/>
</linearGradient>
<linearGradient id="paint9_linear_126_31089" x1="253.97" y1="66" x2="271.967" y2="68.8534" gradientUnits="userSpaceOnUse">
<stop stop-color="#ECC271"/>
<stop offset="1" stop-color="#7F642E"/>
</linearGradient>
</defs>
</svg>
