<svg width="292" height="291" viewBox="0 0 292 291" fill="none" xmlns="http://www.w3.org/2000/svg">
<path d="M136.361 31.2566C134.789 31.2566 133.405 31.0445 132.207 30.6205C131.034 30.1715 130.111 29.5728 129.437 28.8244C128.764 28.0511 128.427 27.1781 128.427 26.2052C128.427 25.382 128.651 24.7334 129.1 24.2595C129.575 23.7606 130.161 23.5111 130.86 23.5111C131.309 23.5111 131.708 23.6109 132.057 23.8105C132.432 23.9851 132.718 24.247 132.918 24.5962C133.143 24.9205 133.255 25.3072 133.255 25.7562C133.255 26.1553 133.168 26.4671 132.993 26.6916C132.843 26.9161 132.669 27.1032 132.469 27.2529C132.269 27.4026 132.082 27.5522 131.908 27.7019C131.758 27.8266 131.683 28.0262 131.683 28.3006C131.683 28.7496 131.92 29.1113 132.394 29.3857C132.893 29.6351 133.467 29.8222 134.116 29.9469C134.789 30.0717 135.388 30.134 135.912 30.134C137.659 30.134 138.994 29.5478 139.917 28.3754C140.865 27.203 141.339 25.5192 141.339 23.3241C141.339 21.2536 140.865 19.6696 139.917 18.572C138.969 17.4745 137.384 16.9257 135.164 16.9257L138.832 16.0651C140.379 16.2397 141.726 16.6762 142.874 17.3747C144.047 18.0482 144.957 18.8963 145.606 19.9191C146.255 20.9418 146.579 22.0768 146.579 23.3241C146.579 24.6711 146.168 25.9558 145.344 27.1781C144.546 28.3754 143.385 29.3607 141.863 30.134C140.341 30.8824 138.507 31.2566 136.361 31.2566ZM134.325 16.9257V15.0857H138.832V16.9257H134.325ZM136.623 16.2147L134.453 15.8031C136.474 15.8031 137.921 15.2419 138.794 14.1194C139.668 12.9719 140.104 11.4004 140.104 9.40476C140.104 8.13257 139.942 7.14724 139.618 6.44878C139.318 5.75032 138.869 5.2639 138.27 4.9895C137.696 4.69016 136.998 4.54049 136.174 4.54049C135.251 4.54049 134.478 4.67769 133.854 4.95209C133.23 5.22648 132.918 5.60066 132.918 6.07461C132.918 6.349 133.018 6.57351 133.218 6.74812C133.417 6.92274 133.617 7.13477 133.816 7.38422C134.016 7.60872 134.116 7.95795 134.116 8.43191C134.116 9.08048 133.904 9.56691 133.48 9.89119C133.055 10.1905 132.594 10.3402 132.095 10.3402C131.471 10.3402 130.934 10.1157 130.485 9.66669C130.061 9.21768 129.849 8.66889 129.849 8.02032C129.849 7.29691 130.123 6.58598 130.672 5.88752C131.246 5.18906 132.07 4.60286 133.143 4.1289C134.216 3.65495 135.513 3.41797 137.035 3.41797C138.707 3.41797 140.129 3.70484 141.302 4.27857C142.5 4.85231 143.41 5.60065 144.034 6.52362C144.658 7.44658 144.97 8.43191 144.97 9.4796C144.97 10.6021 144.621 11.6498 143.922 12.6227C143.248 13.5706 142.288 14.3688 141.04 15.0174C139.792 15.641 138.32 16.0401 136.623 16.2147Z" fill="url(#paint0_linear_126_31051)"/>
<path d="M159.927 9.3756C159.927 12.3085 157.318 14.759 154.006 14.759C150.693 14.759 148.084 12.3085 148.084 9.3756C148.084 6.44271 150.693 3.99219 154.006 3.99219C157.318 3.99219 159.927 6.44271 159.927 9.3756Z" fill="black" stroke="url(#paint1_linear_126_31051)"/>
<path d="M133.303 23.6146C133.303 26.57 135.915 29.0339 139.225 29.0339C142.534 29.0339 145.146 26.57 145.146 23.6146C145.146 20.6592 142.534 18.1953 139.225 18.1953C135.915 18.1953 133.303 20.6592 133.303 23.6146Z" fill="black" stroke="url(#paint2_linear_126_31051)"/>
<mask id="path-4-inside-1_126_31051" fill="white">
<path fill-rule="evenodd" clip-rule="evenodd" d="M134.317 15.0759C136.238 14.0422 137.525 12.1419 137.525 9.96876C137.525 7.70681 136.131 5.74047 134.079 4.73934C135.097 4.13021 136.309 3.77677 137.61 3.77677C141.216 3.77677 144.14 6.49117 144.14 9.83956C144.14 13.1879 141.216 15.9023 137.61 15.9023C136.409 15.9023 135.284 15.6012 134.317 15.0759Z"/>
</mask>
<path fill-rule="evenodd" clip-rule="evenodd" d="M134.317 15.0759C136.238 14.0422 137.525 12.1419 137.525 9.96876C137.525 7.70681 136.131 5.74047 134.079 4.73934C135.097 4.13021 136.309 3.77677 137.61 3.77677C141.216 3.77677 144.14 6.49117 144.14 9.83956C144.14 13.1879 141.216 15.9023 137.61 15.9023C136.409 15.9023 135.284 15.6012 134.317 15.0759Z" fill="black"/>
<path d="M134.317 15.0759L133.844 14.1953L132.215 15.0716L133.84 15.9545L134.317 15.0759ZM134.079 4.73934L133.565 3.8812L131.982 4.82875L133.64 5.63807L134.079 4.73934ZM136.525 9.96876C136.525 11.7258 135.485 13.3119 133.844 14.1953L134.791 15.9564C136.991 14.7725 138.525 12.5581 138.525 9.96876L136.525 9.96876ZM133.64 5.63807C135.398 6.49551 136.525 8.14081 136.525 9.96876L138.525 9.96876C138.525 7.27281 136.864 4.98543 134.517 3.84062L133.64 5.63807ZM134.592 5.59748C135.456 5.08045 136.492 4.77677 137.61 4.77677L137.61 2.77677C136.127 2.77677 134.738 3.17997 133.565 3.8812L134.592 5.59748ZM137.61 4.77677C140.735 4.77677 143.14 7.11196 143.14 9.83956L145.14 9.83956C145.14 5.87039 141.698 2.77677 137.61 2.77677L137.61 4.77677ZM143.14 9.83956C143.14 12.5672 140.735 14.9023 137.61 14.9023L137.61 16.9023C141.698 16.9023 145.14 13.8087 145.14 9.83956L143.14 9.83956ZM137.61 14.9023C136.578 14.9023 135.616 14.6436 134.795 14.1972L133.84 15.9545C134.952 16.5589 136.241 16.9023 137.61 16.9023L137.61 14.9023Z" fill="url(#paint3_linear_126_31051)" mask="url(#path-4-inside-1_126_31051)"/>
<mask id="path-6-inside-2_126_31051" fill="white">
<path fill-rule="evenodd" clip-rule="evenodd" d="M158.901 28.5959C156.947 27.5698 155.633 25.6526 155.633 23.457C155.633 21.2613 156.947 19.3443 158.901 18.3181C157.939 17.8127 156.822 17.5235 155.63 17.5235C152.018 17.5235 149.091 20.18 149.091 23.4571C149.091 26.7341 152.018 29.3906 155.63 29.3906C156.822 29.3906 157.939 29.1013 158.901 28.5959Z"/>
</mask>
<path fill-rule="evenodd" clip-rule="evenodd" d="M158.901 28.5959C156.947 27.5698 155.633 25.6526 155.633 23.457C155.633 21.2613 156.947 19.3443 158.901 18.3181C157.939 17.8127 156.822 17.5235 155.63 17.5235C152.018 17.5235 149.091 20.18 149.091 23.4571C149.091 26.7341 152.018 29.3906 155.63 29.3906C156.822 29.3906 157.939 29.1013 158.901 28.5959Z" fill="black"/>
<path d="M158.901 28.5959L159.366 27.7106L161.052 28.5959L159.366 29.4812L158.901 28.5959ZM158.901 18.3181L159.366 17.4328L161.051 18.3181L159.366 19.2034L158.901 18.3181ZM156.633 23.457C156.633 25.232 157.696 26.8332 159.366 27.7106L158.436 29.4812C156.199 28.3064 154.633 26.0733 154.633 23.457L156.633 23.457ZM159.366 19.2034C157.695 20.0808 156.633 21.682 156.633 23.457L154.633 23.457C154.633 20.8407 156.199 18.6077 158.436 17.4328L159.366 19.2034ZM158.436 19.2034C157.617 18.7732 156.659 18.5235 155.63 18.5235L155.63 16.5235C156.984 16.5235 158.261 16.8523 159.366 17.4328L158.436 19.2034ZM155.63 18.5235C152.477 18.5235 150.091 20.8215 150.091 23.4571L148.091 23.4571C148.091 19.5385 151.56 16.5235 155.63 16.5235L155.63 18.5235ZM150.091 23.4571C150.091 26.0926 152.477 28.3906 155.63 28.3906L155.63 30.3906C151.56 30.3906 148.091 27.3756 148.091 23.4571L150.091 23.4571ZM155.63 28.3906C156.659 28.3906 157.617 28.1409 158.436 27.7106L159.366 29.4812C158.261 30.0618 156.984 30.3906 155.63 30.3906L155.63 28.3906Z" fill="url(#paint4_linear_126_31051)" mask="url(#path-6-inside-2_126_31051)"/>
<path d="M235.018 208.394C234.663 208.209 234.459 207.887 234.405 207.43C234.351 206.973 234.507 206.524 234.873 206.083C235.431 205.405 236.123 204.751 236.948 204.122C237.774 203.494 238.639 202.919 239.543 202.399C240.457 201.861 241.302 201.412 242.078 201.05L242.395 200.573L242.894 200.462L243.273 200.254L243.412 199.988L243.613 199.992L244.957 199.171C244.606 199.281 244.184 199.376 243.69 199.457C243.197 199.537 242.713 199.577 242.239 199.577C241.774 199.56 241.4 199.477 241.116 199.328L241.054 199.059C242.774 198.965 244.494 198.568 246.216 197.866C247.947 197.147 249.572 196.09 251.092 194.696C251.418 194.934 251.744 195.24 252.068 195.613C252.41 195.995 252.648 196.402 252.783 196.834C252.928 197.248 252.84 197.653 252.519 198.05C252.245 198.358 251.896 198.593 251.473 198.755C251.022 198.926 250.63 199.093 250.296 199.257L249.947 199.277L249.803 199.1C249.424 199.263 249.089 199.494 248.797 199.793L248.397 199.651L248.135 200.022C248.099 200.048 248.053 200.092 247.998 200.154C247.944 200.215 247.875 200.281 247.793 200.351L247.624 200.093L247.18 200.165C247.336 199.953 247.522 199.791 247.739 199.679C247.983 199.558 248.226 199.438 248.47 199.317L248.538 199.251L248.459 199.209L247.865 199.373L247.81 199.479C247.737 199.531 247.66 199.57 247.579 199.596C247.508 199.603 247.445 199.615 247.391 199.632L246.947 199.705L247.098 199.479L247.411 199.27L247.387 199.122L247.076 199.264L247.019 199.438L246.51 199.375L246.267 199.451L246.185 199.543L246.223 199.664L246.48 199.562L246.544 199.697L246.788 199.554L246.882 199.569L246.785 199.755L247.088 200.016C246.916 200.129 246.759 200.193 246.615 200.208C246.526 200.207 246.441 200.219 246.36 200.244C246.279 200.269 246.202 200.286 246.131 200.293L246.075 200.4L245.861 200.356L245.282 200.492L245.064 200.649L245.521 200.618L245.584 200.82L245.485 201.073L245.299 200.976L244.989 201.051L244.921 201.116L244.555 201.298L244.485 201.497L244.416 201.563C244.207 201.747 243.908 201.952 243.519 202.177C243.157 202.394 242.861 202.443 242.631 202.322L242.335 202.37L242.354 202.787L242.23 202.959L242.067 203.076L241.921 202.966L241.938 202.806L241.406 203.239L241.084 203.273L240.813 203.402C240.476 203.7 240.133 203.904 239.782 204.014C239.377 204.14 239.037 204.358 238.763 204.666L238.567 204.394L238.203 204.508L238.188 204.601L238.415 204.619L238.237 204.831L237.949 205.187C237.894 205.249 237.839 205.311 237.784 205.372C237.739 205.416 237.688 205.469 237.634 205.531L237.541 205.448L237.298 205.524L237.063 205.909L236.332 206.271C236.25 206.341 236.182 206.407 236.127 206.469C236.072 206.53 236.017 206.592 235.962 206.654C235.834 206.812 235.719 206.967 235.618 207.117C235.526 207.294 235.46 207.463 235.421 207.623L235.486 207.759L235.807 207.791L236.073 207.93L236.168 207.879L236.571 207.819L236.594 208.034L235.902 208.451C235.813 208.449 235.647 208.441 235.406 208.428C235.183 208.424 235.053 208.413 235.018 208.394ZM243.801 201.445C243.828 201.436 243.878 201.406 243.951 201.353L244.086 201.289L244.108 201.571L244.297 201.467L244.654 201.044C244.709 200.983 244.755 200.917 244.792 200.846C244.856 200.766 244.907 200.691 244.944 200.62C244.963 200.54 244.991 200.465 245.028 200.394C245.065 200.323 245.103 200.252 245.14 200.181L244.45 200.464L244.608 200.614L244.621 200.655L244.35 200.784L244.272 200.675L243.812 200.841L244.078 200.98L243.709 201.362L243.801 201.445ZM245.402 201.233C245.512 201.109 245.639 201.018 245.783 200.958L245.658 201.197L245.402 201.233ZM242.822 202.151L243.2 202.01L243.475 201.68L242.904 202.059L242.822 202.151ZM242.65 202.738C242.76 202.615 242.887 202.524 243.031 202.464L242.932 202.717L242.65 202.738ZM240.619 202.996L241.065 202.857L241.137 202.59L240.649 202.809L240.619 202.996ZM246.072 214.586C245.895 214.493 245.652 214.309 245.344 214.035C245.027 213.779 244.71 213.478 244.395 213.132C244.088 212.813 243.83 212.487 243.621 212.152C243.43 211.826 243.346 211.556 243.368 211.342C243.188 210.909 243.095 210.375 243.089 209.74C243.092 209.087 243.318 208.483 243.766 207.927C243.858 207.84 243.917 207.769 243.945 207.716L244.136 207.545L244.375 206.959C244.538 206.819 244.689 206.683 244.825 206.552C244.989 206.411 245.144 206.267 245.289 206.117C245.617 205.837 245.956 205.642 246.307 205.532C246.772 205.031 247.42 204.591 248.25 204.213C249.107 203.826 250.008 203.485 250.953 203.189C251.924 202.885 252.802 202.611 253.584 202.366C253.533 202.249 253.513 202.114 253.525 201.962C253.546 201.793 253.616 201.637 253.735 201.496C254.284 200.836 255.012 200.393 255.92 200.168C256.854 199.935 257.836 199.85 258.863 199.914C259.891 199.978 260.858 200.134 261.766 200.384C262.701 200.625 263.443 200.889 263.993 201.176C265.003 201.705 265.849 202.374 266.532 203.182C267.232 204.001 267.627 204.929 267.715 205.969C267.812 206.99 267.456 208.102 266.647 209.303L265.869 210.014L266.21 208.973L266.077 208.904L265.507 209.282C265.701 209.903 265.622 210.55 265.269 211.224L264.537 211.653L264.628 211.802C264.4 212.022 264.164 212.237 263.918 212.447C263.673 212.657 263.414 212.849 263.143 213.023L262.874 213.018C262.591 213.344 262.247 213.592 261.841 213.764L261.29 213.78C261.254 213.806 261.217 213.855 261.18 213.926C261.143 213.997 261.107 214.045 261.07 214.071C260.969 214.222 260.762 214.294 260.449 214.288C260.163 214.274 259.939 214.292 259.777 214.343L259.189 214.238L258.919 214.3C258.708 214.573 258.469 214.685 258.202 214.636C257.88 214.603 257.526 214.654 257.139 214.79C256.779 214.918 256.414 215.054 256.044 215.199C255.702 215.336 255.378 215.438 255.072 215.504C254.794 215.561 254.571 215.512 254.404 215.357C253.738 215.595 253.07 215.686 252.4 215.629C251.748 215.581 251.083 215.492 250.405 215.363C249.719 215.252 248.99 215.199 248.221 215.202L247.183 214.727C246.958 214.812 246.748 214.826 246.552 214.769C246.374 214.721 246.214 214.66 246.072 214.586ZM246.32 212.041C246.374 212.068 246.583 212.121 246.948 212.2C247.331 212.287 247.777 212.385 248.285 212.493C248.81 212.61 249.322 212.731 249.821 212.857C250.347 212.974 250.788 213.08 251.144 213.176C251.527 213.264 251.735 213.34 251.77 213.403C252.32 213.171 252.9 213.012 253.51 212.925C254.129 212.82 254.712 212.742 255.259 212.689C256.46 212.55 257.564 212.36 258.57 212.12C259.604 211.87 260.568 211.472 261.464 210.925C262.387 210.37 263.283 209.563 264.152 208.506C265.223 207.193 265.626 205.993 265.359 204.905C265.12 203.809 264.407 202.951 263.22 202.329C262.812 202.116 262.217 201.895 261.434 201.666C260.678 201.428 259.863 201.261 258.988 201.164C258.122 201.05 257.308 201.053 256.545 201.173C255.783 201.293 255.204 201.6 254.811 202.093C254.784 202.102 254.756 202.133 254.728 202.186L254.673 202.292C256.25 202.124 257.763 202.103 259.209 202.228C260.683 202.345 262.005 202.71 263.175 203.322C263.618 203.553 263.988 203.815 264.287 204.107C264.595 204.381 264.755 204.702 264.766 205.069C264.795 205.445 264.59 205.879 264.151 206.372L263.323 206.921L263.258 206.785C263.791 206.026 263.986 205.417 263.842 204.958C263.726 204.49 263.384 204.108 262.817 203.811C261.612 203.181 260.302 202.879 258.888 202.907C257.474 202.934 255.959 203.112 254.343 203.44L254.492 204.06L254.424 204.126C254.298 204.195 254.19 204.207 254.101 204.16C253.995 204.105 253.912 204.027 253.851 203.927C253.816 203.864 253.737 203.778 253.614 203.668L252.833 203.801L252.602 203.985C252.064 204.02 251.53 204.157 250.997 204.398C250.465 204.639 249.942 204.884 249.427 205.134L249.089 205.262C249.035 205.279 248.977 205.304 248.913 205.339C248.868 205.383 248.818 205.413 248.764 205.43C248.682 205.5 248.592 205.566 248.492 205.626C248.393 205.687 248.302 205.753 248.22 205.823C248.121 205.883 248.016 205.953 247.908 206.032C247.808 206.092 247.717 206.158 247.636 206.228L247.314 206.195C247.14 206.398 246.954 206.582 246.754 206.748C246.581 206.906 246.399 207.059 246.209 207.208C246.018 207.356 245.823 207.514 245.623 207.68C245.441 207.856 245.272 208.049 245.116 208.261C244.612 208.878 244.365 209.415 244.375 209.871C244.402 210.337 244.596 210.743 244.956 211.089C245.334 211.445 245.789 211.762 246.32 212.041Z" fill="url(#paint5_linear_126_31051)"/>
<path d="M130.161 284.488C129.761 284.488 129.431 284.298 129.171 283.918C128.911 283.538 128.841 283.068 128.961 282.508C129.141 281.648 129.451 280.748 129.891 279.808C130.331 278.868 130.831 277.958 131.391 277.078C131.951 276.178 132.491 275.388 133.011 274.708L133.071 274.138L133.461 273.808L133.701 273.448V273.148L133.881 273.058L134.691 271.708C134.431 271.968 134.101 272.248 133.701 272.548C133.301 272.848 132.891 273.108 132.471 273.328C132.051 273.528 131.681 273.628 131.361 273.628L131.181 273.418C132.661 272.538 134.001 271.388 135.201 269.968C136.401 268.528 137.351 266.838 138.051 264.898C138.451 264.958 138.881 265.078 139.341 265.258C139.821 265.438 140.221 265.688 140.541 266.008C140.861 266.308 140.971 266.708 140.871 267.208C140.771 267.608 140.571 267.978 140.271 268.318C139.951 268.678 139.681 269.008 139.461 269.308L139.161 269.488L138.951 269.398C138.691 269.718 138.501 270.078 138.381 270.478L137.961 270.538L137.901 270.988C137.881 271.028 137.861 271.088 137.841 271.168C137.821 271.248 137.791 271.338 137.751 271.438L137.481 271.288L137.121 271.558C137.161 271.298 137.251 271.068 137.391 270.868C137.551 270.648 137.711 270.428 137.871 270.208L137.901 270.118H137.811L137.361 270.538V270.658C137.321 270.738 137.271 270.808 137.211 270.868C137.151 270.908 137.101 270.948 137.061 270.988L136.701 271.258L136.731 270.988L136.911 270.658L136.821 270.538L136.611 270.808L136.641 270.988L136.161 271.168L135.981 271.348L135.951 271.468L136.041 271.558L136.221 271.348L136.341 271.438L136.491 271.198L136.581 271.168V271.378L136.971 271.468C136.871 271.648 136.761 271.778 136.641 271.858C136.561 271.898 136.491 271.948 136.431 272.008C136.371 272.068 136.311 272.118 136.251 272.158V272.278L136.041 272.338L135.591 272.728L135.471 272.968L135.861 272.728L136.011 272.878L136.041 273.148H135.831L135.591 273.358L135.561 273.448L135.321 273.778L135.351 273.988L135.321 274.078C135.221 274.338 135.051 274.658 134.811 275.038C134.591 275.398 134.351 275.578 134.091 275.578L133.851 275.758L134.061 276.118L134.031 276.328L133.941 276.508L133.761 276.478L133.701 276.328L133.431 276.958L133.161 277.138L132.981 277.378C132.821 277.798 132.611 278.138 132.351 278.398C132.051 278.698 131.851 279.048 131.751 279.448L131.451 279.298L131.181 279.568L131.211 279.658L131.421 279.568L131.361 279.838L131.271 280.288C131.251 280.368 131.231 280.448 131.211 280.528C131.191 280.588 131.171 280.658 131.151 280.738L131.031 280.708L130.851 280.888L130.821 281.338L130.341 281.998C130.301 282.098 130.271 282.188 130.251 282.268C130.231 282.348 130.211 282.428 130.191 282.508C130.151 282.708 130.121 282.898 130.101 283.078C130.101 283.278 130.121 283.458 130.161 283.618L130.281 283.708L130.581 283.588H130.881L130.941 283.498L131.271 283.258L131.391 283.438L130.971 284.128C130.891 284.168 130.741 284.238 130.521 284.338C130.321 284.438 130.201 284.488 130.161 284.488ZM134.721 274.258C134.741 274.238 134.771 274.188 134.811 274.108L134.901 273.988L135.051 274.228L135.171 274.048L135.291 273.508C135.311 273.428 135.321 273.348 135.321 273.268C135.341 273.168 135.351 273.078 135.351 272.998C135.331 272.918 135.321 272.838 135.321 272.758C135.321 272.678 135.321 272.598 135.321 272.518L134.841 273.088L135.051 273.148L135.081 273.178L134.901 273.418L134.781 273.358L134.451 273.718H134.751L134.601 274.228L134.721 274.258ZM136.041 273.328C136.081 273.168 136.151 273.028 136.251 272.908V273.178L136.041 273.328ZM134.181 275.338L134.451 275.038L134.541 274.618L134.211 275.218L134.181 275.338ZM134.301 275.938C134.341 275.778 134.411 275.638 134.511 275.518L134.541 275.788L134.301 275.938ZM132.621 277.108L132.951 276.778L132.891 276.508L132.561 276.928L132.621 277.108ZM143.218 276.448C143.038 276.428 142.808 276.318 142.528 276.118C142.248 275.898 141.968 275.638 141.688 275.338C141.408 275.018 141.178 274.698 140.998 274.378C140.818 274.058 140.738 273.788 140.758 273.568C140.878 273.268 141.158 272.878 141.598 272.398C142.038 271.918 142.538 271.408 143.098 270.868C143.678 270.308 144.238 269.778 144.778 269.278C145.338 268.758 145.788 268.318 146.128 267.958C145.948 267.898 145.748 267.868 145.528 267.868C145.248 267.868 144.978 267.958 144.718 268.138C144.458 268.298 144.218 268.518 143.998 268.798C143.738 268.718 143.638 268.468 143.698 268.048C143.798 267.648 143.998 267.328 144.298 267.088C144.598 266.828 144.888 266.648 145.168 266.548C145.408 266.308 145.728 266.128 146.128 266.008C146.548 265.868 146.968 265.768 147.388 265.708C147.828 265.628 148.198 265.578 148.498 265.558C148.538 265.518 148.588 265.468 148.648 265.408C148.708 265.348 148.768 265.298 148.828 265.258C148.868 265.218 148.918 265.168 148.978 265.108C149.038 265.048 149.088 264.988 149.128 264.928C149.308 264.848 149.458 264.808 149.578 264.808C149.798 264.808 150.048 264.958 150.328 265.258C150.608 265.538 150.868 265.718 151.108 265.798C152.248 266.138 153.428 266.338 154.648 266.398C155.888 266.438 157.128 266.458 158.368 266.458C158.648 266.458 158.998 266.438 159.418 266.398C159.858 266.358 160.238 266.258 160.558 266.098C160.898 265.918 161.068 265.638 161.068 265.258L161.368 264.988C161.548 265.168 161.608 265.418 161.548 265.738C161.388 266.018 161.158 266.318 160.858 266.638C160.558 266.938 160.248 267.198 159.928 267.418C159.608 267.618 159.308 267.718 159.028 267.718L158.638 268.048L158.398 267.958C158.238 268.138 158.068 268.248 157.888 268.288C157.708 268.328 157.538 268.348 157.378 268.348H154.018C152.538 268.348 151.058 268.258 149.578 268.078L149.668 267.778C149.548 267.738 149.448 267.728 149.368 267.748C149.328 267.768 149.278 267.778 149.218 267.778C149.158 267.778 149.108 267.778 149.068 267.778C148.908 267.778 148.748 267.728 148.588 267.628C148.448 267.548 148.288 267.508 148.108 267.508C148.048 267.508 147.948 267.538 147.808 267.598C147.668 267.638 147.558 267.678 147.478 267.718L147.328 267.988L147.418 268.258L147.658 268.078L147.868 268.048L148.108 268.258C148.068 268.378 147.928 268.468 147.688 268.528C147.448 268.588 147.208 268.658 146.968 268.738C146.728 268.798 146.578 268.898 146.518 269.038L146.698 269.218L146.938 269.158L147.028 269.218L147.208 269.158L147.268 269.338L146.968 269.578C146.848 269.538 146.738 269.498 146.638 269.458C146.558 269.418 146.478 269.378 146.398 269.338L146.248 269.608L146.218 269.758L146.368 269.608L146.428 269.938C146.328 270.018 146.228 270.098 146.128 270.178C146.028 270.258 145.928 270.338 145.828 270.418C145.748 270.498 145.658 270.588 145.558 270.688C145.458 270.768 145.358 270.848 145.258 270.928L145.468 271.108C145.668 271.108 145.838 271.008 145.978 270.808C146.058 270.708 146.128 270.618 146.188 270.538C146.248 270.458 146.318 270.378 146.398 270.298L146.758 270.208L146.908 270.328L146.758 270.568L146.578 270.418C146.358 270.798 146.128 271.118 145.888 271.378C145.648 271.618 145.428 271.878 145.228 272.158C145.048 272.418 144.898 272.768 144.778 273.208L144.418 273.628L144.508 273.748L144.928 273.568L145.378 272.818C145.838 272.538 146.308 272.288 146.788 272.068C147.288 271.848 147.768 271.738 148.228 271.738H148.678C148.758 271.758 148.828 271.768 148.888 271.768C148.968 271.768 149.048 271.768 149.128 271.768L149.308 272.128C149.228 272.348 148.998 272.548 148.618 272.728C148.258 272.888 147.988 272.988 147.808 273.028C146.148 273.628 144.578 274.608 143.098 275.968L143.458 276.268L143.218 276.448ZM147.148 268.258V268.078H147.088L146.908 268.168L147.148 268.258ZM147.508 269.158L147.478 269.128L147.688 268.888L147.808 268.978L147.508 269.158ZM144.628 271.108C144.828 271.108 144.968 271.028 145.048 270.868C145.148 270.708 145.218 270.518 145.258 270.298L145.558 270.028C145.878 270.028 146.098 269.788 146.218 269.308C146.258 269.148 146.258 269.028 146.218 268.948C145.998 269.048 145.818 269.198 145.678 269.398C145.558 269.578 145.428 269.788 145.288 270.028L145.228 269.788L144.658 270.238L144.508 270.058L144.478 270.148L144.298 270.328L144.118 270.688C144.218 270.968 144.388 271.108 144.628 271.108ZM143.668 271.948L143.938 271.408L143.788 271.198L143.578 271.288L143.428 271.198L143.158 271.588L143.128 271.678L143.578 271.738L143.668 271.948ZM142.498 284.878C141.898 284.878 141.278 284.748 140.638 284.488C140.018 284.248 139.458 283.888 138.958 283.408C138.478 282.948 138.128 282.398 137.908 281.758C137.668 281.098 137.628 280.378 137.788 279.598C137.928 278.978 138.188 278.478 138.568 278.098C138.928 277.718 139.348 277.418 139.828 277.198C140.328 276.958 140.808 276.758 141.268 276.598V276.718C141.168 276.858 141.068 276.998 140.968 277.138C140.868 277.258 140.768 277.378 140.668 277.498L140.038 278.308L140.008 278.608C139.768 279.148 139.588 279.708 139.468 280.288C139.228 281.368 139.308 282.148 139.708 282.628C140.128 283.108 140.718 283.348 141.478 283.348L141.688 283.468L141.928 283.288C142.028 283.308 142.118 283.318 142.198 283.318C142.278 283.338 142.358 283.348 142.438 283.348C142.938 283.348 143.558 283.228 144.298 282.988C145.778 282.488 147.368 281.648 149.068 280.468C149.468 280.188 149.858 279.888 150.238 279.568C150.638 279.248 151.008 278.918 151.348 278.578C152.048 277.898 152.638 277.188 153.118 276.448C153.618 275.688 153.948 274.928 154.108 274.168C154.208 273.688 154.188 273.298 154.048 272.998C153.928 272.678 153.668 272.568 153.268 272.668L153.088 272.488L152.998 272.638C152.678 272.558 152.568 272.258 152.668 271.738L152.488 271.678L152.068 271.858L152.218 272.488L151.318 272.638L151.138 272.488L151.738 271.828L151.498 271.588C151.658 271.468 151.828 271.408 152.008 271.408C152.268 271.408 152.518 271.438 152.758 271.498L153.478 271.678C153.498 271.678 153.518 271.668 153.538 271.648H153.598C153.858 271.648 154.188 271.778 154.588 272.038C154.988 272.298 155.388 272.628 155.788 273.028C156.188 273.408 156.508 273.808 156.748 274.228C157.008 274.628 157.108 274.978 157.048 275.278C157.008 275.518 156.938 275.748 156.838 275.968C156.738 276.168 156.618 276.368 156.478 276.568C156.338 276.768 156.198 276.968 156.058 277.168C155.938 277.348 155.828 277.548 155.728 277.768L155.608 277.618L155.488 277.768L155.548 277.408C155.368 277.548 155.158 277.798 154.918 278.158L154.738 277.798L154.618 278.128L154.378 277.948L154.588 277.618L154.438 277.588L154.138 277.798L154.258 278.038L153.868 278.218L153.718 278.128L154.588 277.078L154.498 276.988L154.288 277.168L154.138 276.988L153.538 277.498L153.718 277.678L153.328 278.068H153.268L153.508 277.678L153.538 277.588L153.028 277.888L152.548 278.518L152.098 278.608L150.628 280.018L150.808 280.558L150.628 280.648L150.448 280.048L150.028 280.498L150.238 280.588L150.028 281.008C150.328 280.928 150.648 280.778 150.988 280.558L151.078 280.648L151.258 280.378L151.828 279.958V279.688C151.808 279.588 151.808 279.498 151.828 279.418C151.888 279.118 152.098 278.928 152.458 278.848C152.818 278.768 153.218 278.728 153.658 278.728C154.098 278.728 154.438 278.708 154.678 278.668C154.278 279.208 153.808 279.748 153.268 280.288C152.748 280.828 152.198 281.288 151.618 281.668C151.058 282.028 150.488 282.208 149.908 282.208C149.808 282.128 149.708 282.058 149.608 281.998C149.508 281.938 149.398 281.918 149.278 281.938H149.158C149.278 282.078 149.398 282.198 149.518 282.298C149.658 282.378 149.808 282.468 149.968 282.568L149.668 282.898L149.548 282.838L149.518 282.928L149.368 283.198L149.398 283.108L149.338 282.898L148.798 283.468V283.378L148.888 283.168H148.768L148.468 283.288C148.168 283.648 147.858 283.828 147.538 283.828L147.298 283.708L146.938 284.248C146.178 284.488 145.428 284.648 144.688 284.728C143.948 284.828 143.218 284.878 142.498 284.878ZM144.388 272.218H144.478L144.748 271.858C144.788 271.798 144.828 271.738 144.868 271.678C144.928 271.618 144.978 271.548 145.018 271.468C144.938 271.488 144.868 271.528 144.808 271.588C144.748 271.628 144.688 271.668 144.628 271.708C144.568 271.768 144.508 271.828 144.448 271.888C144.388 271.948 144.328 271.998 144.268 272.038L144.388 272.218ZM149.578 272.458L149.518 272.218L149.548 272.008L149.938 271.558L150.388 271.678L150.868 271.498L151.078 271.648L150.958 271.768L151.108 271.948V272.128L151.018 272.218L150.418 271.948C150.298 271.968 150.158 272.038 149.998 272.158C149.918 272.198 149.848 272.248 149.788 272.308C149.728 272.368 149.658 272.418 149.578 272.458ZM152.308 272.188C152.188 272.188 152.148 272.108 152.188 271.948L152.218 271.918H152.368V272.188H152.308ZM150.058 272.578L150.208 272.188L150.448 272.278C150.368 272.478 150.238 272.578 150.058 272.578ZM144.088 272.668L144.298 272.548L144.088 272.368V272.668ZM142.888 273.298L143.428 272.758L143.338 272.548L142.828 273.118L142.888 273.298ZM142.468 273.478L142.678 273.088L142.258 273.358L142.468 273.478ZM155.758 274.108L155.908 273.988L155.698 273.898L155.638 274.078L155.758 274.108ZM154.948 276.178L155.128 276.058V275.968L154.858 276.088L154.948 276.178ZM154.318 276.958H154.708C154.808 276.798 154.898 276.678 154.978 276.598L155.278 276.328L154.918 276.418L154.738 276.628L154.708 276.508L154.318 276.958ZM153.898 277.498L153.838 277.318L154.048 277.258L153.958 277.438L153.898 277.498ZM153.838 278.518L153.808 278.428L153.958 278.398L153.988 278.428L153.958 278.518H153.838ZM152.548 279.238L152.818 279.208L152.608 279.058L152.548 279.238ZM152.668 279.688L152.398 279.388L152.218 279.418L152.008 279.598L152.188 279.658L152.338 279.508L152.668 279.688ZM148.648 281.548L148.828 281.458L149.398 280.828C149.058 280.948 148.778 281.158 148.558 281.458L148.648 281.548ZM149.998 282.718L150.568 282.358V282.478L149.998 282.718Z" fill="url(#paint6_linear_126_31051)"/>
<path d="M31.1876 218.445C30.9273 218.595 30.6569 218.565 30.3763 218.357C30.1057 218.166 29.8609 217.88 29.6422 217.498C29.416 217.144 29.253 216.799 29.1534 216.465C28.9915 215.981 28.9761 215.552 29.1071 215.177C29.2381 214.802 29.4509 214.45 29.7457 214.12C30.0132 213.782 30.2931 213.426 30.5853 213.051C30.8949 212.666 31.1387 212.226 31.3167 211.732L31.3687 211.703L32.1594 210.247C32.4366 209.765 32.73 209.332 33.0396 208.947L33.4415 208.924L33.5304 208.596L33.3774 208.269L33.5783 208.258L33.4739 208.076L33.2879 208.113L33.1574 207.946L33.4472 207.607L33.7227 207.725L33.8862 207.528L34.0313 207.479C34.2241 206.931 34.4616 206.461 34.7439 206.068C35.0262 205.676 35.2862 205.285 35.5238 204.895C35.7615 204.505 35.906 204.054 35.9574 203.54L35.8866 203.477L35.5153 204.036L35.1839 203.88L35.3172 203.388L36.2098 203.015L36.3625 203.101C36.4317 202.9 36.5009 202.698 36.5701 202.497C36.6293 202.279 36.6935 202.069 36.7627 201.868C36.9185 201.456 37.1004 201.11 37.3084 200.829C37.3897 200.368 37.5715 199.941 37.8537 199.549L37.961 199.072L37.5554 199.028L37.7294 198.306L38.0645 198.529L38.1467 198.793C38.2504 198.411 38.2859 198.01 38.2531 197.591L38.2195 197.472L38.4309 196.936L38.7956 196.969L38.8444 197.356C38.8396 197.428 38.8347 197.5 38.8298 197.572C38.825 197.644 38.8201 197.716 38.8152 197.787L38.786 198.219L38.8495 198.39L38.8971 197.81L39.2837 197.519L39.1085 197.274C39.0239 197.045 39.0274 196.871 39.119 196.749C39.2007 196.61 39.301 196.483 39.4199 196.369L39.4272 196.261L39.1482 196.317L39.0587 196.161C39.1455 196.111 39.226 196.031 39.3003 195.919C39.3919 195.797 39.4153 195.657 39.3705 195.498C39.3679 195.454 39.3418 195.388 39.2921 195.301C39.2423 195.214 39.2112 195.14 39.1987 195.078C39.1839 195.133 39.158 195.228 39.121 195.365C39.074 195.484 39.0245 195.558 38.9724 195.588C38.9204 195.618 38.8521 195.599 38.7677 195.533C38.6466 195.925 38.4672 196.235 38.2293 196.464L38.1249 196.281L38.2024 195.753C38.3858 195.671 38.4675 195.532 38.4474 195.336C38.4447 195.13 38.406 194.922 38.3313 194.711C38.2989 194.614 38.2615 194.509 38.2192 194.395C38.1943 194.271 38.1556 194.143 38.1034 194.012C37.9989 193.749 37.8758 193.554 37.7342 193.428L37.7828 193.573L37.6904 194.075L37.4375 194.117L37.2321 193.577L36.7223 193.593C36.745 193.833 36.6882 194.016 36.5519 194.14C36.4056 194.247 36.2718 194.335 36.1503 194.405C36.0636 194.454 35.9755 194.482 35.8863 194.487L35.8339 194.275L35.8447 193.992L35.6133 193.468L35.5019 193.635L35.1927 193.398L35.5905 193.066L36.7735 192.837L36.9369 192.64C37.4082 192.577 37.8771 192.631 38.3437 192.802C38.8177 192.945 39.2732 193.157 39.7101 193.436L39.733 193.838L39.8108 193.552C39.8804 193.673 39.95 193.795 40.0196 193.916C40.0793 194.02 40.1526 194.128 40.2396 194.239C40.3788 194.482 40.492 194.74 40.5792 195.013L40.5093 195.675L40.1595 195.668C40.1447 195.723 40.1349 195.786 40.13 195.858C40.1425 195.92 40.1413 195.979 40.1265 196.033L40.0414 196.428L39.9075 196.435L39.8116 197.113C39.8789 197.351 39.8754 197.526 39.8011 197.637C39.7268 197.749 39.6253 197.853 39.4964 197.95C39.3576 198.03 39.2449 198.175 39.1583 198.386L39.3186 198.605L39.4269 198.855C39.4842 199.075 39.4522 199.301 39.331 199.532C39.1998 199.745 39.0933 199.922 39.0117 200.061C38.6701 200.671 38.3658 201.307 38.0987 201.967C37.8217 202.61 37.546 203.275 37.2715 203.963C37.1306 204.32 36.9674 204.759 36.782 205.281C36.604 205.774 36.4174 206.273 36.2221 206.777C36.0441 207.271 35.876 207.702 35.7177 208.069L35.5018 208.054C35.3236 208.387 35.1567 208.759 35.0009 209.171C34.9317 209.372 34.8439 209.561 34.7374 209.737C34.631 209.914 34.5332 210.085 34.4441 210.251C34.8162 210.176 35.2813 210.163 35.8395 210.212C36.3977 210.261 36.9373 210.298 37.4583 210.322C37.9966 210.336 38.3959 210.268 38.6562 210.119C39.1421 209.841 39.5768 209.373 39.9605 208.715C40.3615 208.047 40.6384 207.323 40.7912 206.544C40.9514 205.738 40.9132 204.987 40.6767 204.293C40.602 204.082 40.4865 203.941 40.3301 203.869C40.1811 203.77 40.0297 203.707 39.8759 203.68L39.7826 203.457L39.8825 203.089C39.9744 203.128 40.1842 203.273 40.512 203.523C40.8571 203.763 41.2321 204.056 41.6368 204.4C42.0317 204.727 42.3806 205.034 42.6836 205.321C43.004 205.599 43.1854 205.794 43.2277 205.909C43.3199 206.271 43.3353 206.619 43.2737 206.954L43.1102 207.152L43.0473 207.464L42.649 207.312L42.5341 207.655L42.6423 207.904L43.1076 208.052L43.1378 208.346L42.8029 208.365L42.6915 208.533L42.6436 208.871L42.383 208.779L42.2423 209.378L42.5109 209.846L42.3474 210.044L42.4518 210.226C42.281 210.531 42.0916 210.824 41.8836 211.105C41.6929 211.376 41.4762 211.58 41.2332 211.72C40.8168 211.958 40.2972 212.037 39.6744 211.956C39.0789 211.882 38.4276 211.772 37.7204 211.624C37.0207 211.448 36.3296 211.349 35.6474 211.325C34.9553 211.284 34.3229 211.427 33.7502 211.755C33.6635 211.805 33.578 211.877 33.4938 211.971C33.4269 212.056 33.36 212.14 33.2932 212.225L33.1894 212.526L33.3087 212.735C33.0537 213.134 32.8708 213.619 32.7599 214.19C32.6564 214.734 32.5578 215.286 32.4643 215.846C32.3981 216.415 32.266 216.928 32.0681 217.387C31.8976 217.854 31.6041 218.207 31.1876 218.445ZM31.181 204.618C30.9381 204.757 30.6639 204.741 30.3586 204.571C30.0433 204.383 29.7465 204.126 29.4683 203.802C29.1974 203.45 29.0171 203.115 28.9274 202.798C28.646 201.945 28.6982 201.05 29.084 200.114C29.4772 199.151 29.9834 198.285 30.6025 197.515C31.197 196.783 31.8522 196.096 32.5683 195.455C33.2745 194.797 33.8716 194.27 34.3598 193.875L34.6617 194.221L34.7023 193.99L34.6277 193.86L34.6163 193.659L34.9286 193.48L35.0667 193.781L35.6069 194.301L35.2206 194.834L34.8337 194.883L34.8638 195.177L34.7001 195.132L34.5928 195.609L34.496 195.56C34.3648 195.774 34.2286 195.979 34.0874 196.175C34.0305 196.277 33.9699 196.392 33.9055 196.521C33.8412 196.65 33.7905 196.783 33.7535 196.92L33.1799 196.522L33.0019 196.935L33.0095 197.069L33.2069 197.233L33.0958 197.642L32.9654 197.475L32.9136 197.747L32.6832 197.948L32.7987 198.089L32.7841 198.305L32.4416 198.19L32.4042 198.004L32.2515 197.919L31.9991 198.444L32.2334 198.309L32.427 198.406L32.4013 198.663C32.2451 198.752 32.0802 198.766 31.9064 198.704C31.7752 198.918 31.6144 199.24 31.4239 199.672C31.2235 200.087 31.0257 200.546 30.8303 201.05C30.6424 201.526 30.4942 201.992 30.3856 202.446C30.2944 202.89 30.2924 203.249 30.3796 203.521C30.4892 203.873 30.6567 203.985 30.8823 203.856C30.9691 203.806 31.0459 203.739 31.1128 203.654C31.1796 203.57 31.2465 203.485 31.3134 203.401L31.533 203.483C31.5159 203.654 31.479 203.871 31.4222 204.134C31.3829 204.387 31.3025 204.548 31.181 204.618ZM38.8176 193.81L38.9998 193.705L38.9845 193.437L38.8023 193.542L38.7169 193.694L38.8176 193.81ZM39.5409 194.951L39.6746 194.702L39.5403 194.467L39.3692 194.531L39.1724 194.851L39.5409 194.951ZM38.9216 196.585L38.6499 196.534L38.6756 196.277L38.9216 196.585ZM37.2738 199.985L37.2291 199.907L37.2323 199.49L37.3364 199.43L37.4332 199.479L37.4595 199.706L37.2738 199.985ZM38.2232 200.374C38.2528 200.265 38.2874 200.165 38.327 200.073C38.3839 199.971 38.4322 199.874 38.4717 199.782C38.5113 199.691 38.5509 199.599 38.5905 199.507C38.6201 199.398 38.6497 199.288 38.6793 199.179L38.4597 199.098L38.1588 199.478L38.2185 199.582L37.9588 200.215L38.2232 200.374ZM36.8332 201.69L36.4349 201.538L36.5053 201.359L36.8812 201.351L36.8332 201.69ZM37.3995 202.195L37.6442 201.536C37.6738 201.427 37.7084 201.326 37.748 201.235C37.7876 201.143 37.8222 201.042 37.8518 200.933C37.5619 201.191 37.328 201.567 37.15 202.061L37.3995 202.195ZM36.909 202.787L37.009 202.419L36.7637 202.594L36.7824 202.687L36.909 202.787ZM52.5933 206.246C52.4197 206.346 52.1346 206.451 51.7378 206.564C51.351 206.693 50.9269 206.798 50.4656 206.878C50.0316 206.965 49.6174 207.007 49.223 207.002C48.8459 206.988 48.5729 206.914 48.404 206.78C47.9425 206.699 47.4424 206.49 46.9037 206.153C46.355 205.799 45.9673 205.284 45.7407 204.607C45.7157 204.483 45.6883 204.395 45.6585 204.342L45.6172 204.089L45.2519 203.573C45.2219 203.359 45.1881 203.16 45.1507 202.974C45.1206 202.76 45.0819 202.552 45.0345 202.349C44.9744 201.922 44.9925 201.531 45.0888 201.177C44.9168 200.514 44.8947 199.732 45.0226 198.829C45.1578 197.898 45.355 196.955 45.6143 196C45.8809 195.017 46.1217 194.13 46.3365 193.338C46.2099 193.319 46.0858 193.263 45.9641 193.172C45.8325 193.063 45.7393 192.92 45.6845 192.744C45.423 191.926 45.4417 191.074 45.7408 190.188C46.0472 189.274 46.5038 188.402 47.1105 187.57C47.7172 186.738 48.3699 186.007 49.0686 185.376C49.7748 184.717 50.3968 184.234 50.9347 183.926C51.9238 183.359 52.9429 183.005 53.9921 182.865C55.0586 182.715 56.0536 182.882 56.977 183.367C57.8905 183.835 58.6359 184.733 59.2131 186.062L59.393 187.1L58.6998 186.253L58.5697 186.327L58.5817 187.012C59.2096 187.182 59.7124 187.597 60.0904 188.256L60.058 189.105L60.2328 189.108C60.2953 189.418 60.349 189.733 60.3941 190.053C60.4391 190.373 60.4619 190.694 60.4623 191.017L60.3137 191.24C60.4358 191.655 60.4599 192.079 60.3861 192.513L60.1039 192.986C60.1064 193.031 60.1276 193.088 60.1674 193.157C60.2071 193.226 60.2283 193.283 60.2308 193.328C60.303 193.494 60.2524 193.708 60.0791 193.968C59.9132 194.202 59.808 194.4 59.7636 194.564L59.3585 195.004L59.2658 195.264C59.3829 195.589 59.3485 195.851 59.1627 196.05C58.9621 196.303 58.8149 196.629 58.7211 197.029C58.6348 197.401 58.5534 197.782 58.477 198.171C58.408 198.534 58.3191 198.861 58.2104 199.154C58.109 199.42 57.9479 199.581 57.7272 199.638C57.5694 200.328 57.2861 200.94 56.8775 201.474C56.4862 201.998 56.054 202.511 55.5808 203.012C55.1176 203.532 54.6805 204.116 54.2695 204.767L53.3103 205.386C53.261 205.621 53.1595 205.806 53.0059 205.941C52.8696 206.065 52.7321 206.167 52.5933 206.246ZM50.5819 204.667C50.6339 204.637 50.7912 204.49 51.0539 204.224C51.3338 203.948 51.6559 203.625 52.0201 203.255C52.4016 202.875 52.7795 202.509 53.1536 202.156C53.5351 201.776 53.8622 201.462 54.1347 201.213C54.4147 200.938 54.5907 200.802 54.6626 200.807C54.7636 200.219 54.9414 199.645 55.1962 199.084C55.4411 198.505 55.6884 197.972 55.9384 197.483C56.4678 196.395 56.9019 195.363 57.2405 194.385C57.5865 193.38 57.77 192.353 57.7909 191.303C57.8193 190.227 57.6218 189.037 57.1984 187.735C56.668 186.126 55.8729 185.141 54.8132 184.78C53.7609 184.392 52.6534 184.531 51.4908 185.198C51.0917 185.426 50.5849 185.809 49.9704 186.346C49.3633 186.855 48.7835 187.452 48.2312 188.138C47.669 188.806 47.2333 189.493 46.9241 190.201C46.6149 190.908 46.5624 191.561 46.7666 192.158C46.7592 192.186 46.7704 192.225 46.8002 192.277L46.8599 192.381C47.5676 190.962 48.3634 189.676 49.2476 188.523C50.1391 187.344 51.1575 186.426 52.3027 185.77C52.7365 185.521 53.1568 185.349 53.5635 185.255C53.9603 185.142 54.3163 185.18 54.6316 185.368C54.9642 185.547 55.2203 185.953 55.3997 186.588L55.4159 187.582L55.267 187.563C54.9136 186.705 54.5049 186.213 54.0409 186.087C53.5842 185.934 53.0783 186.017 52.523 186.335C51.3431 187.011 50.3842 187.953 49.6465 189.159C48.9088 190.366 48.2433 191.738 47.6499 193.277L48.253 193.485L48.2717 193.578C48.262 193.722 48.2137 193.819 48.127 193.868C48.0229 193.928 47.9125 193.957 47.7959 193.954C47.724 193.949 47.6086 193.969 47.4499 194.014L47.142 194.744L47.1722 195.038C46.9123 195.51 46.7406 196.034 46.657 196.613C46.5734 197.191 46.4984 197.764 46.4322 198.332L46.3582 198.686C46.3434 198.74 46.3336 198.803 46.3287 198.875C46.3412 198.937 46.34 198.996 46.3252 199.05C46.3402 199.157 46.3466 199.269 46.3442 199.385C46.3419 199.502 46.3483 199.613 46.3633 199.72C46.3609 199.837 46.3636 199.962 46.3712 200.096C46.3689 200.212 46.3752 200.324 46.3902 200.431L46.1896 200.684C46.2669 200.939 46.3218 201.196 46.3543 201.454C46.3943 201.685 46.4256 201.92 46.4483 202.161C46.4709 202.402 46.4985 202.651 46.5311 202.909C46.581 203.157 46.6533 203.403 46.7479 203.649C46.9969 204.405 47.3163 204.902 47.7061 205.14C48.1132 205.368 48.5598 205.423 49.0459 205.306C49.5493 205.178 50.0613 204.966 50.5819 204.667Z" fill="url(#paint7_linear_126_31051)"/>
<path d="M18.1127 90.3761C17.8585 90.2167 17.7572 89.9642 17.8086 89.6188C17.8494 89.2902 17.9867 88.9396 18.2205 88.5669C18.4268 88.2004 18.6541 87.8944 18.9025 87.6489C19.2529 87.2785 19.6243 87.0628 20.0166 87.002C20.4088 86.9411 20.8201 86.963 21.2503 87.0676C21.6742 87.1446 22.1203 87.2237 22.5887 87.305C23.074 87.397 23.5764 87.4052 24.096 87.3297L24.1468 87.3616L25.8036 87.3738C26.359 87.3916 26.8793 87.4465 27.3647 87.5385L27.574 87.8822L27.9048 87.8064L28.1215 87.5174L28.2262 87.6893L28.3378 87.5114L28.2172 87.3649L28.3034 87.1711L28.7389 87.2672L28.7638 87.5661L29.015 87.6174L29.1261 87.7225C29.7008 87.6344 30.2276 87.6225 30.7066 87.6869C31.1856 87.7513 31.653 87.7965 32.1088 87.8227C32.5645 87.8489 33.0311 87.7638 33.5084 87.5674L33.5308 87.4752L32.8631 87.4105L32.8446 87.0448L33.3409 86.9311L34.0904 87.5429L34.0869 87.7178C34.2968 87.6842 34.5068 87.6506 34.7167 87.617C34.9373 87.5665 35.1525 87.5244 35.3624 87.4908C35.7992 87.4343 36.1904 87.4317 36.5359 87.4832C36.9813 87.3376 37.4435 87.297 37.9225 87.3614L38.3934 87.2318L38.2414 86.8531L38.9603 86.6666L38.9215 87.0672L38.7272 87.2641C39.1132 87.1757 39.4834 87.0183 39.8378 86.792L39.927 86.7063L40.4995 86.6405L40.6421 86.9778L40.3237 87.203C40.2579 87.2326 40.1922 87.2622 40.1264 87.2918C40.0606 87.3213 39.9949 87.3509 39.9291 87.3805L39.5345 87.5579L39.4134 87.6945L39.948 87.4632L40.3866 87.6674L40.5205 87.3973C40.682 87.2153 40.8379 87.136 40.9884 87.1596C41.1495 87.1662 41.3084 87.1951 41.4652 87.2462L41.5639 87.2018L41.383 86.9821L41.4786 86.8297C41.5633 86.8828 41.6725 86.9158 41.806 86.9288C41.9565 86.9523 42.0912 86.907 42.2101 86.7927C42.2483 86.7694 42.294 86.7154 42.3471 86.6307C42.4002 86.546 42.4512 86.4835 42.5 86.4433C42.4449 86.456 42.3484 86.4781 42.2105 86.5096C42.0833 86.5243 41.9943 86.5157 41.9435 86.4838C41.8926 86.4519 41.8768 86.383 41.8961 86.277C41.4932 86.3548 41.1349 86.3426 40.8213 86.2403L40.9329 86.0624L41.4356 85.8819C41.5944 86.0052 41.7555 86.0118 41.919 85.9018C42.0993 85.8024 42.2649 85.6702 42.4157 85.5051C42.4858 85.431 42.5611 85.3484 42.6418 85.2574C42.7395 85.177 42.834 85.0828 42.9253 84.9749C43.108 84.7589 43.2217 84.5587 43.2665 84.3744L43.1614 84.4855L42.6746 84.6406L42.5191 84.4368L42.8983 84.0017L42.6446 83.5593C42.443 83.6925 42.2553 83.7283 42.0815 83.6665C41.9184 83.5878 41.7776 83.5113 41.659 83.4369C41.5743 83.3837 41.5086 83.319 41.4621 83.2426L41.6245 83.0966L41.8791 82.973L42.2328 82.522L42.0325 82.5026L42.0967 82.1179L42.5766 82.3126L43.3351 83.2488L43.5863 83.3001C43.8634 83.6863 44.0365 84.1255 44.1057 84.6174C44.2024 85.103 44.2302 85.6045 44.1891 86.1217L43.8453 86.331L44.1348 86.2647C44.0604 86.3833 43.9861 86.5019 43.9117 86.6205C43.8479 86.7221 43.7873 86.8376 43.7299 86.9668C43.5811 87.204 43.4069 87.4253 43.2073 87.6306L42.5899 87.8808L42.4314 87.5689C42.3763 87.5816 42.3159 87.6027 42.2501 87.6322C42.2013 87.6725 42.1493 87.6989 42.0941 87.7115L41.706 87.8222L41.6362 87.7076L40.9935 87.9419C40.8151 88.1133 40.6592 88.1926 40.5257 88.1796C40.3921 88.1667 40.2523 88.1262 40.1061 88.0581C39.9705 87.9731 39.7893 87.9421 39.5625 87.965L39.4444 88.2097L39.2755 88.4225C39.1078 88.577 38.8936 88.6551 38.6328 88.6568C38.3827 88.6415 38.177 88.6306 38.0159 88.624C37.3163 88.6101 36.6125 88.6408 35.9043 88.716C35.2067 88.7742 34.49 88.8441 33.7542 88.9256C33.3726 88.9695 32.9082 89.0324 32.3611 89.1142C31.8416 89.1897 31.3136 89.2599 30.7771 89.3247C30.2576 89.4002 29.7985 89.4546 29.3999 89.4879L29.3112 89.2906C28.9338 89.29 28.5268 89.3179 28.0899 89.3745C27.88 89.4081 27.6722 89.4194 27.4666 89.4085C27.261 89.3975 27.0638 89.3919 26.8752 89.3916C27.1164 89.6846 27.3468 90.0888 27.5665 90.6043C27.7861 91.1198 28.0079 91.6131 28.2319 92.0841C28.4728 92.5657 28.7203 92.8862 28.9745 93.0456C29.4489 93.3432 30.0666 93.5063 30.8276 93.5351C31.6056 93.5745 32.3743 93.4782 33.1336 93.2462C33.9205 93.0079 34.5645 92.621 35.0657 92.0855C35.2165 91.9203 35.2867 91.7519 35.2764 91.5802C35.2936 91.4021 35.278 91.2389 35.2295 91.0904L35.3824 90.903L35.7546 90.8177C35.7629 90.9174 35.7339 91.1707 35.6675 91.5776C35.6181 91.9952 35.5368 92.4636 35.4236 92.9828C35.321 93.4851 35.2143 93.9375 35.1034 94.3401C35.0095 94.7534 34.9222 95.0055 34.8415 95.0966C34.5655 95.3484 34.2652 95.526 33.9407 95.6294L33.6895 95.5781L33.3841 95.6698L33.3307 95.2468L32.9745 95.3066L32.8056 95.5194L32.8939 95.9997L32.6487 96.1647L32.4743 95.8782L32.274 95.8588L31.9526 95.976L31.9117 95.7024L31.3168 95.8605L31.0299 96.3179L30.7787 96.2667L30.6671 96.4446C30.3174 96.4376 29.9697 96.4085 29.6242 96.357C29.2957 96.3162 29.0128 96.2214 28.7756 96.0726C28.369 95.8176 28.0549 95.3963 27.8332 94.8087C27.6179 94.2487 27.409 93.6219 27.2066 92.9283C27.0317 92.2284 26.7943 91.5719 26.4942 90.9587C26.2048 90.3286 25.7805 89.8382 25.2214 89.4875C25.1367 89.4344 25.0329 89.3929 24.91 89.363C24.804 89.3438 24.698 89.3245 24.5921 89.3053L24.2772 89.3556L24.1496 89.559C23.6769 89.5222 23.1627 89.5892 22.607 89.76C22.0789 89.9245 21.5454 90.0975 21.0066 90.279C20.4742 90.488 19.9588 90.6133 19.4606 90.6549C18.9686 90.7241 18.5193 90.6311 18.1127 90.3761ZM30.3089 83.8607C30.0717 83.712 29.9565 83.4627 29.9635 83.1129C29.981 82.7461 30.0675 82.3636 30.2229 81.9653C30.4058 81.5607 30.6162 81.2441 30.854 81.0155C31.4741 80.3657 32.2877 79.9907 33.2949 79.8905C34.3296 79.7841 35.3323 79.8228 36.303 80.0066C37.2291 80.1862 38.1435 80.441 39.0461 80.771C39.9593 81.0841 40.7051 81.3631 41.2835 81.6078L41.1206 82.0368L41.3433 81.964L41.423 81.837L41.5949 81.7323L41.8999 81.9236L41.6991 82.1872L41.4945 82.9087L40.8427 82.8187L40.6174 82.5003L40.3723 82.6653L40.3344 82.4998L39.8636 82.6295L39.8606 82.5213C39.6104 82.5061 39.3656 82.4824 39.1261 82.4502C39.0095 82.4479 38.8791 82.4488 38.7349 82.4528C38.5908 82.4568 38.4498 82.4746 38.3119 82.5061L38.3925 81.813L37.9441 81.8505L37.8295 81.9203L37.7782 82.1714L37.3647 82.2661L37.4508 82.0723L37.1868 82.1545L36.9007 82.046L36.8305 82.2144L36.6332 82.3031L36.5734 81.9469L36.7198 81.8263L36.7233 81.6514L36.1413 81.6759L36.37 81.8193L36.3761 82.0356L36.1374 82.1338C35.9849 82.0381 35.895 81.8991 35.8678 81.7168C35.6176 81.7015 35.2572 81.7116 34.7865 81.7468C34.3264 81.7652 33.8282 81.8068 33.2917 81.8716C32.7828 81.9302 32.3025 82.0185 31.8508 82.1365C31.4159 82.2651 31.0987 82.4321 30.8991 82.6374C30.6401 82.8998 30.6207 83.1002 30.8409 83.2383C30.9256 83.2914 31.021 83.3276 31.127 83.3469C31.2329 83.3661 31.3389 83.3854 31.4449 83.4046L31.4763 83.6368C31.3172 83.7023 31.1083 83.7719 30.8495 83.8457C30.6077 83.9301 30.4275 83.9351 30.3089 83.8607ZM43.4396 85.5099L43.6175 85.6215L43.8467 85.4819L43.6688 85.3704L43.4939 85.3669L43.4396 85.5099ZM42.7731 86.6854L43.0561 86.6859L43.1996 86.4572L43.0631 86.3361L42.6879 86.3133L42.7731 86.6854ZM41.0397 86.9085L40.9574 86.6444L41.1961 86.5462L41.0397 86.9085ZM37.2648 87.055L37.3126 86.9788L37.6818 86.7854L37.7834 86.8492L37.7865 86.9573L37.5986 87.0874L37.2648 87.055ZM37.3681 88.076C37.4784 88.0507 37.5833 88.0339 37.683 88.0256C37.7996 88.0279 37.9077 88.0249 38.0074 88.0166C38.107 88.0083 38.2067 88 38.3063 87.9916C38.4166 87.9664 38.5269 87.9411 38.6372 87.9158L38.6057 87.6837L38.1289 87.597L38.0651 87.6987L37.3845 87.7676L37.3681 88.076ZM35.5533 87.4689L35.4999 87.0459L35.6907 87.0239L35.8746 87.3517L35.5533 87.4689ZM35.374 88.2064L36.0706 88.1121C36.1809 88.0868 36.2858 88.07 36.3855 88.0617C36.4851 88.0534 36.5901 88.0366 36.7004 88.0113C36.336 87.8772 35.894 87.8479 35.3745 87.9233L35.374 88.2064ZM34.6206 88.0525L34.9928 87.9672L34.7227 87.8333L34.6495 87.8936L34.6206 88.0525ZM42.7298 95.9719C42.588 95.8593 42.4516 95.6439 42.3206 95.3257C42.2003 94.9905 42.1013 94.6215 42.0235 94.2186C41.9563 93.7987 41.9315 93.4054 41.9491 93.0387C41.9666 92.6719 42.0423 92.4007 42.1762 92.225C42.4372 92.0346 42.8816 91.853 43.5094 91.6801C44.1372 91.5073 44.8318 91.3409 45.5931 91.181C46.382 91.0148 47.1381 90.8634 47.8612 90.7267C48.6119 90.5838 49.2269 90.4502 49.7062 90.3258C49.5856 90.1794 49.4322 90.0477 49.2458 89.9308C49.0086 89.782 48.732 89.7148 48.4161 89.7291C48.1108 89.7265 47.7906 89.7854 47.4555 89.9057C47.2777 89.6997 47.3259 89.4348 47.5999 89.1109C47.8971 88.8252 48.2366 88.6604 48.6182 88.6164C49.0105 88.5556 49.3519 88.5572 49.6422 88.6213C49.973 88.5455 50.3398 88.563 50.7424 88.6739C51.1726 88.7785 51.5815 88.9169 51.9692 89.0893C52.3845 89.2553 52.7245 89.4095 52.9892 89.552C53.0444 89.5394 53.1133 89.5236 53.196 89.5046C53.2787 89.4857 53.3561 89.4752 53.4282 89.4732C53.4834 89.4606 53.5523 89.4448 53.635 89.4258C53.7177 89.4069 53.7919 89.3826 53.8577 89.3531C54.0527 89.3809 54.201 89.4267 54.3027 89.4905C54.4891 89.6074 54.6211 89.8673 54.6989 90.2702C54.7874 90.6562 54.912 90.9469 55.0728 91.1422C55.8579 92.0359 56.7512 92.8324 57.7529 93.5314C58.7821 94.2242 59.8219 94.9 60.8724 95.5589C61.1096 95.7077 61.4167 95.8767 61.7938 96.066C62.1878 96.2659 62.5628 96.3831 62.9189 96.4176C63.3026 96.4458 63.5954 96.2989 63.7973 95.977L64.1949 95.9077C64.2518 96.1558 64.1698 96.3995 63.9489 96.6387C63.6646 96.7909 63.3103 96.9228 62.8861 97.0345C62.4726 97.1292 62.0718 97.1848 61.6838 97.2011C61.3065 97.2005 60.9992 97.1258 60.762 96.977L60.2563 97.0494L60.1008 96.8456C59.8696 96.9131 59.6671 96.9159 59.4934 96.8542C59.3196 96.7924 59.165 96.719 59.0294 96.634L56.183 94.8486C54.9292 94.0622 53.7233 93.1996 52.5651 92.2607L52.8008 92.0544C52.7204 91.9567 52.641 91.8951 52.5626 91.8695C52.5181 91.8652 52.4704 91.8471 52.4196 91.8152C52.3688 91.7834 52.3264 91.7568 52.2925 91.7355C52.157 91.6505 52.048 91.5232 51.9656 91.3534C51.8895 91.2113 51.7752 91.0924 51.6227 90.9967C51.5719 90.9648 51.4712 90.9371 51.3207 90.9135C51.1809 90.873 51.0664 90.8485 50.9774 90.8399L50.7069 90.9889L50.6397 91.2654L50.9386 91.2405L51.1325 91.3266L51.2242 91.6321C51.1265 91.7125 50.9601 91.7143 50.7249 91.6376C50.4897 91.5609 50.2492 91.4927 50.0034 91.433C49.7682 91.3563 49.588 91.3613 49.4628 91.448L49.5196 91.6961L49.7548 91.7728L49.7992 91.8715L49.9835 91.9163L49.9387 92.1007L49.5571 92.1446C49.4767 92.0469 49.4047 91.9546 49.3413 91.8676C49.2947 91.7912 49.2482 91.7148 49.2017 91.6384L48.9312 91.7874L48.8261 91.8985L49.0328 91.8512L48.9083 92.1626C48.7811 92.1772 48.6539 92.1919 48.5266 92.2065C48.3994 92.2212 48.2722 92.2358 48.145 92.2504C48.0347 92.2757 47.9106 92.3041 47.7728 92.3357C47.6455 92.3503 47.5183 92.365 47.3911 92.3796L47.4734 92.6437C47.6428 92.7499 47.8399 92.7556 48.0648 92.6605C48.1857 92.6183 48.2928 92.5793 48.3862 92.5434C48.4795 92.5075 48.5813 92.4769 48.6916 92.4516L49.0444 92.5667L49.1077 92.748L48.8531 92.8717L48.7803 92.6489C48.392 92.854 48.0272 93.0028 47.6857 93.0956C47.3549 93.1714 47.0303 93.2747 46.7121 93.4056C46.4215 93.5303 46.1084 93.7471 45.773 94.056L45.2448 94.2206L45.2573 94.37L45.7088 94.4407L46.4885 94.0445C47.027 94.0517 47.558 94.0896 48.0815 94.1583C48.622 94.2376 49.087 94.3995 49.4767 94.6439L49.858 94.883C49.9151 94.9425 49.9691 94.9881 50.0199 95.02C50.0877 95.0625 50.1555 95.105 50.2232 95.1475L50.1844 95.5482C49.9998 95.692 49.6986 95.7392 49.2811 95.6898C48.8911 95.6341 48.6092 95.5753 48.4355 95.5136C46.7104 95.1398 44.8596 95.1358 42.8832 95.5015L43.0288 95.9469L42.7298 95.9719ZM50.4109 91.122L50.5066 90.9695L50.4557 90.9376L50.2554 90.9182L50.4109 91.122ZM50.2377 92.0757L50.2282 92.0343L50.5336 91.9426L50.5875 92.0826L50.2377 92.0757ZM46.7618 92.1973C46.9312 92.3036 47.0923 92.3102 47.2451 92.2172C47.4148 92.1348 47.5751 92.011 47.7259 91.8459L48.1235 91.7766C48.3946 91.9466 48.7085 91.8602 49.0652 91.5173C49.1841 91.403 49.2478 91.3014 49.2564 91.2123C49.0169 91.1802 48.7848 91.2116 48.5599 91.3066C48.3626 91.3954 48.1409 91.5042 47.8947 91.6331L47.9714 91.3979L47.2494 91.4762L47.218 91.2441L47.1448 91.3044L46.8967 91.3612L46.5529 91.5705C46.4888 91.8609 46.5584 92.0698 46.7618 92.1973ZM45.5022 92.3988L46.0178 92.0848L46.0023 91.8272L45.7766 91.7919L45.6974 91.6359L45.2614 91.8229L45.1882 91.8832L45.5375 92.1731L45.5022 92.3988ZM37.6406 102.731C37.1323 102.412 36.6761 101.972 36.2721 101.412C35.8744 100.879 35.5913 100.277 35.4227 99.6045C35.2605 98.9597 35.2563 98.3078 35.41 97.6487C35.5574 96.9621 35.906 96.3309 36.456 95.7551C36.9041 95.3043 37.39 95.0189 37.9139 94.8989C38.4207 94.7683 38.936 94.7373 39.4595 94.806C40.0106 94.8683 40.5235 94.9539 40.9982 95.0628L40.9344 95.1645C40.7753 95.2299 40.6162 95.2954 40.4571 95.3609C40.3086 95.4094 40.1602 95.4579 40.0117 95.5064L39.0476 95.8579L38.8628 96.0961C38.3725 96.426 37.9225 96.8048 37.5126 97.2324C36.7354 98.0198 36.3888 98.723 36.4726 99.3422C36.5733 99.972 36.9456 100.489 37.5894 100.893L37.7036 101.106L38.0025 101.081C38.0766 101.151 38.1476 101.207 38.2153 101.25C38.2725 101.309 38.3349 101.36 38.4027 101.403C38.8263 101.668 39.4153 101.896 40.1697 102.086C41.6891 102.449 43.4824 102.582 45.5496 102.486C46.0372 102.461 46.527 102.414 47.019 102.345C47.5279 102.287 48.0167 102.204 48.4854 102.096C49.4397 101.892 50.3168 101.604 51.1166 101.232C51.944 100.854 52.6274 100.386 53.1668 99.8269C53.5065 99.4734 53.6968 99.1323 53.7376 98.8038C53.806 98.469 53.6442 98.2376 53.2522 98.1098L53.1954 97.8617L53.0394 97.9409C52.8108 97.7031 52.8771 97.3905 53.2381 97.0031L53.1175 96.8567L52.666 96.786L52.4583 97.3994L51.6162 97.0482L51.5434 96.8255L52.4024 96.5852L52.3266 96.2544C52.5259 96.2377 52.7018 96.2772 52.8543 96.3729C53.0746 96.511 53.2704 96.6693 53.4418 96.8476L53.9561 97.3827C53.9731 97.3933 53.9953 97.3955 54.0229 97.3892L54.0737 97.4211C54.294 97.5592 54.5045 97.8447 54.7052 98.2775C54.9059 98.7103 55.0694 99.2024 55.1957 99.7538C55.3327 100.288 55.3912 100.797 55.3714 101.28C55.3791 101.757 55.2778 102.107 55.0676 102.329C54.9062 102.511 54.7247 102.669 54.523 102.802C54.3321 102.919 54.1241 103.024 53.8993 103.119C53.6744 103.214 53.4495 103.309 53.2246 103.404C53.0273 103.493 52.8279 103.604 52.6263 103.737L52.6043 103.547L52.423 103.61L52.6651 103.337C52.4382 103.36 52.1275 103.46 51.7329 103.637L51.7717 103.237L51.4946 103.453L51.387 103.173L51.7402 103.005L51.6291 102.899L51.2634 102.918L51.2375 103.185L50.8115 103.13L50.7322 102.974L52.0272 102.547L51.9987 102.423L51.7252 102.464L51.6938 102.232L50.9145 102.345L50.9713 102.593L50.4337 102.716L50.3829 102.684L50.7934 102.482L50.8667 102.421L50.2752 102.404L49.5338 102.683L49.1048 102.52L47.1103 102.934L46.9758 103.487L46.7755 103.467L46.9418 102.863L46.3469 103.021L46.477 103.209L46.0759 103.453C46.3726 103.545 46.7234 103.588 47.1283 103.582L47.1567 103.706L47.4527 103.573L48.1587 103.52L48.3022 103.292C48.3384 103.196 48.3862 103.12 48.4457 103.063C48.6559 102.841 48.9347 102.791 49.2822 102.915C49.6297 103.038 49.9898 103.217 50.3626 103.451C50.7353 103.685 51.034 103.848 51.2585 103.942C50.6328 104.187 49.9477 104.395 49.2033 104.565C48.4758 104.746 47.7655 104.844 47.0722 104.857C46.4065 104.865 45.828 104.714 45.3366 104.406C45.2944 104.285 45.2469 104.173 45.1941 104.069C45.1413 103.965 45.0587 103.89 44.9464 103.843L44.8448 103.779C44.872 103.961 44.9099 104.127 44.9584 104.275C45.0345 104.417 45.1138 104.573 45.1962 104.743L44.7667 104.863L44.6969 104.749L44.6237 104.809L44.3531 104.958L44.4264 104.898L44.4871 104.688L43.7268 104.884L43.7746 104.808L43.9625 104.678L43.8608 104.614L43.5429 104.556C43.0975 104.702 42.7392 104.689 42.4681 104.519L42.3286 104.29L41.7366 104.556C40.9653 104.356 40.2449 104.093 39.5755 103.767C38.8955 103.459 38.2505 103.113 37.6406 102.731ZM45.9686 93.0101L46.0449 93.058L46.4649 92.8965C46.5307 92.8669 46.5964 92.8373 46.6622 92.8077C46.7449 92.7888 46.8245 92.756 46.9009 92.7095C46.8225 92.684 46.7419 92.6807 46.6592 92.6996C46.5871 92.7016 46.515 92.7036 46.4429 92.7056C46.3602 92.7246 46.2775 92.7435 46.1948 92.7625C46.1121 92.7814 46.0347 92.7919 45.9626 92.7939L45.9686 93.0101ZM50.2378 95.9712L50.3145 95.736L50.4515 95.574L51.021 95.4L51.3385 95.7408L51.8407 95.8434L51.9389 96.082L51.7735 96.1199L51.8049 96.3521L51.7093 96.5046L51.5852 96.533L51.2204 95.9855C51.1081 95.9387 50.9523 95.9236 50.753 95.9402C50.664 95.9316 50.5781 95.9368 50.4954 95.9557C50.4127 95.9747 50.3268 95.9798 50.2378 95.9712ZM52.694 97.1931C52.5923 97.1293 52.601 97.0403 52.7199 96.926L52.7612 96.9165L52.8883 96.9962L52.7448 97.2249L52.694 97.1931ZM50.5807 96.3279L50.915 96.0772L51.0705 96.281C50.8964 96.4079 50.7332 96.4235 50.5807 96.3279ZM45.4754 93.2319L45.717 93.2419L45.6348 92.9778L45.4754 93.2319ZM44.124 93.128L44.8684 92.9575L44.9038 92.7318L44.1689 92.9437L44.124 93.128ZM43.6726 93.0573L44.0577 92.8385L43.5585 92.8441L43.6726 93.0573ZM54.5964 100.653L54.7873 100.631L54.6572 100.443L54.5107 100.564L54.5964 100.653ZM52.8104 101.976L53.0266 101.97L53.0744 101.894L52.7819 101.852L52.8104 101.976ZM51.8622 102.302L52.1926 102.509C52.3623 102.427 52.5023 102.373 52.6126 102.348L53.0102 102.278L52.6574 102.163L52.3933 102.246L52.4317 102.128L51.8622 102.302ZM51.2195 102.536L51.2643 102.352L51.4741 102.413L51.3022 102.517L51.2195 102.536ZM50.6266 103.368L50.6491 103.276L50.7921 103.331L50.8015 103.372L50.7283 103.432L50.6266 103.368ZM49.1512 103.293L49.3959 103.411L49.2977 103.172L49.1512 103.293ZM49.0138 103.738L48.9445 103.34L48.776 103.27L48.5025 103.311L48.6231 103.458L48.8299 103.41L49.0138 103.738ZM44.6199 103.178L44.8202 103.197L45.6379 102.966C45.2861 102.887 44.9373 102.916 44.5915 103.054L44.6199 103.178ZM45.1419 104.886L45.8161 104.884L45.7523 104.986L45.1419 104.886Z" fill="url(#paint8_linear_126_31051)"/>
<path d="M251.225 90.448C251.045 90.428 250.815 90.318 250.535 90.118C250.255 89.898 249.975 89.638 249.695 89.338C249.415 89.018 249.185 88.698 249.005 88.378C248.825 88.058 248.745 87.788 248.765 87.568C248.885 87.268 249.165 86.878 249.605 86.398C250.045 85.918 250.545 85.408 251.105 84.868C251.685 84.308 252.245 83.778 252.785 83.278C253.345 82.758 253.795 82.318 254.135 81.958C253.955 81.898 253.755 81.868 253.535 81.868C253.255 81.868 252.985 81.958 252.725 82.138C252.465 82.298 252.225 82.518 252.005 82.798C251.745 82.718 251.645 82.468 251.705 82.048C251.805 81.648 252.005 81.328 252.305 81.088C252.605 80.828 252.895 80.648 253.175 80.548C253.415 80.308 253.735 80.128 254.135 80.008C254.555 79.868 254.975 79.768 255.395 79.708C255.835 79.628 256.205 79.578 256.505 79.558C256.545 79.518 256.595 79.468 256.655 79.408C256.715 79.348 256.775 79.298 256.835 79.258C256.875 79.218 256.925 79.168 256.985 79.108C257.045 79.048 257.095 78.988 257.135 78.928C257.315 78.848 257.465 78.808 257.585 78.808C257.805 78.808 258.055 78.958 258.335 79.258C258.615 79.538 258.875 79.718 259.115 79.798C260.255 80.138 261.435 80.338 262.655 80.398C263.895 80.438 265.135 80.458 266.375 80.458C266.655 80.458 267.005 80.438 267.425 80.398C267.865 80.358 268.245 80.258 268.565 80.098C268.905 79.918 269.075 79.638 269.075 79.258L269.375 78.988C269.555 79.168 269.615 79.418 269.555 79.738C269.395 80.018 269.165 80.318 268.865 80.638C268.565 80.938 268.255 81.198 267.935 81.418C267.615 81.618 267.315 81.718 267.035 81.718L266.645 82.048L266.405 81.958C266.245 82.138 266.075 82.248 265.895 82.288C265.715 82.328 265.545 82.348 265.385 82.348H262.025C260.545 82.348 259.065 82.258 257.585 82.078L257.675 81.778C257.555 81.738 257.455 81.728 257.375 81.748C257.335 81.768 257.285 81.778 257.225 81.778C257.165 81.778 257.115 81.778 257.075 81.778C256.915 81.778 256.755 81.728 256.595 81.628C256.455 81.548 256.295 81.508 256.115 81.508C256.055 81.508 255.955 81.538 255.815 81.598C255.675 81.638 255.565 81.678 255.485 81.718L255.335 81.988L255.425 82.258L255.665 82.078L255.875 82.048L256.115 82.258C256.075 82.378 255.935 82.468 255.695 82.528C255.455 82.588 255.215 82.658 254.975 82.738C254.735 82.798 254.585 82.898 254.525 83.038L254.705 83.218L254.945 83.158L255.035 83.218L255.215 83.158L255.275 83.338L254.975 83.578C254.855 83.538 254.745 83.498 254.645 83.458C254.565 83.418 254.485 83.378 254.405 83.338L254.255 83.608L254.225 83.758L254.375 83.608L254.435 83.938C254.335 84.018 254.235 84.098 254.135 84.178C254.035 84.258 253.935 84.338 253.835 84.418C253.755 84.498 253.665 84.588 253.565 84.688C253.465 84.768 253.365 84.848 253.265 84.928L253.475 85.108C253.675 85.108 253.845 85.008 253.985 84.808C254.065 84.708 254.135 84.618 254.195 84.538C254.255 84.458 254.325 84.378 254.405 84.298L254.765 84.208L254.915 84.328L254.765 84.568L254.585 84.418C254.365 84.798 254.135 85.118 253.895 85.378C253.655 85.618 253.435 85.878 253.235 86.158C253.055 86.418 252.905 86.768 252.785 87.208L252.425 87.628L252.515 87.748L252.935 87.568L253.385 86.818C253.845 86.538 254.315 86.288 254.795 86.068C255.295 85.848 255.775 85.738 256.235 85.738H256.685C256.765 85.758 256.835 85.768 256.895 85.768C256.975 85.768 257.055 85.768 257.135 85.768L257.315 86.128C257.235 86.348 257.005 86.548 256.625 86.728C256.265 86.888 255.995 86.988 255.815 87.028C254.155 87.628 252.585 88.608 251.105 89.968L251.465 90.268L251.225 90.448ZM255.155 82.258V82.078H255.095L254.915 82.168L255.155 82.258ZM255.515 83.158L255.485 83.128L255.695 82.888L255.815 82.978L255.515 83.158ZM252.635 85.108C252.835 85.108 252.975 85.028 253.055 84.868C253.155 84.708 253.225 84.518 253.265 84.298L253.565 84.028C253.885 84.028 254.105 83.788 254.225 83.308C254.265 83.148 254.265 83.028 254.225 82.948C254.005 83.048 253.825 83.198 253.685 83.398C253.565 83.578 253.435 83.788 253.295 84.028L253.235 83.788L252.665 84.238L252.515 84.058L252.485 84.148L252.305 84.328L252.125 84.688C252.225 84.968 252.395 85.108 252.635 85.108ZM251.675 85.948L251.945 85.408L251.795 85.198L251.585 85.288L251.435 85.198L251.165 85.588L251.135 85.678L251.585 85.738L251.675 85.948ZM250.505 98.878C249.905 98.878 249.285 98.748 248.645 98.488C248.025 98.248 247.465 97.888 246.965 97.408C246.485 96.948 246.135 96.398 245.915 95.758C245.675 95.098 245.635 94.378 245.795 93.598C245.935 92.978 246.195 92.478 246.575 92.098C246.935 91.718 247.355 91.418 247.835 91.198C248.335 90.958 248.815 90.758 249.275 90.598V90.718C249.175 90.858 249.075 90.998 248.975 91.138C248.875 91.258 248.775 91.378 248.675 91.498L248.045 92.308L248.015 92.608C247.775 93.148 247.595 93.708 247.475 94.288C247.235 95.368 247.315 96.148 247.715 96.628C248.135 97.108 248.725 97.348 249.485 97.348L249.695 97.468L249.935 97.288C250.035 97.308 250.125 97.318 250.205 97.318C250.285 97.338 250.365 97.348 250.445 97.348C250.945 97.348 251.565 97.228 252.305 96.988C253.785 96.488 255.375 95.648 257.075 94.468C257.475 94.188 257.865 93.888 258.245 93.568C258.645 93.248 259.015 92.918 259.355 92.578C260.055 91.898 260.645 91.188 261.125 90.448C261.625 89.688 261.955 88.928 262.115 88.168C262.215 87.688 262.195 87.298 262.055 86.998C261.935 86.678 261.675 86.568 261.275 86.668L261.095 86.488L261.005 86.638C260.685 86.558 260.575 86.258 260.675 85.738L260.495 85.678L260.075 85.858L260.225 86.488L259.325 86.638L259.145 86.488L259.745 85.828L259.505 85.588C259.665 85.468 259.835 85.408 260.015 85.408C260.275 85.408 260.525 85.438 260.765 85.498L261.485 85.678C261.505 85.678 261.525 85.668 261.545 85.648H261.605C261.865 85.648 262.195 85.778 262.595 86.038C262.995 86.298 263.395 86.628 263.795 87.028C264.195 87.408 264.515 87.808 264.755 88.228C265.015 88.628 265.115 88.978 265.055 89.278C265.015 89.518 264.945 89.748 264.845 89.968C264.745 90.168 264.625 90.368 264.485 90.568C264.345 90.768 264.205 90.968 264.065 91.168C263.945 91.348 263.835 91.548 263.735 91.768L263.615 91.618L263.495 91.768L263.555 91.408C263.375 91.548 263.165 91.798 262.925 92.158L262.745 91.798L262.625 92.128L262.385 91.948L262.595 91.618L262.445 91.588L262.145 91.798L262.265 92.038L261.875 92.218L261.725 92.128L262.595 91.078L262.505 90.988L262.295 91.168L262.145 90.988L261.545 91.498L261.725 91.678L261.335 92.068H261.275L261.515 91.678L261.545 91.588L261.035 91.888L260.555 92.518L260.105 92.608L258.635 94.018L258.815 94.558L258.635 94.648L258.455 94.048L258.035 94.498L258.245 94.588L258.035 95.008C258.335 94.928 258.655 94.778 258.995 94.558L259.085 94.648L259.265 94.378L259.835 93.958V93.688C259.815 93.588 259.815 93.498 259.835 93.418C259.895 93.118 260.105 92.928 260.465 92.848C260.825 92.768 261.225 92.728 261.665 92.728C262.105 92.728 262.445 92.708 262.685 92.668C262.285 93.208 261.815 93.748 261.275 94.288C260.755 94.828 260.205 95.288 259.625 95.668C259.065 96.028 258.495 96.208 257.915 96.208C257.815 96.128 257.715 96.058 257.615 95.998C257.515 95.938 257.405 95.918 257.285 95.938H257.165C257.285 96.078 257.405 96.198 257.525 96.298C257.665 96.378 257.815 96.468 257.975 96.568L257.675 96.898L257.555 96.838L257.525 96.928L257.375 97.198L257.405 97.108L257.345 96.898L256.805 97.468V97.378L256.895 97.168H256.775L256.475 97.288C256.175 97.648 255.865 97.828 255.545 97.828L255.305 97.708L254.945 98.248C254.185 98.488 253.435 98.648 252.695 98.728C251.955 98.828 251.225 98.878 250.505 98.878ZM252.395 86.218H252.485L252.755 85.858C252.795 85.798 252.835 85.738 252.875 85.678C252.935 85.618 252.985 85.548 253.025 85.468C252.945 85.488 252.875 85.528 252.815 85.588C252.755 85.628 252.695 85.668 252.635 85.708C252.575 85.768 252.515 85.828 252.455 85.888C252.395 85.948 252.335 85.998 252.275 86.038L252.395 86.218ZM257.585 86.458L257.525 86.218L257.555 86.008L257.945 85.558L258.395 85.678L258.875 85.498L259.085 85.648L258.965 85.768L259.115 85.948V86.128L259.025 86.218L258.425 85.948C258.305 85.968 258.165 86.038 258.005 86.158C257.925 86.198 257.855 86.248 257.795 86.308C257.735 86.368 257.665 86.418 257.585 86.458ZM260.315 86.188C260.195 86.188 260.155 86.108 260.195 85.948L260.225 85.918H260.375V86.188H260.315ZM258.065 86.578L258.215 86.188L258.455 86.278C258.375 86.478 258.245 86.578 258.065 86.578ZM252.095 86.668L252.305 86.548L252.095 86.368V86.668ZM250.895 87.298L251.435 86.758L251.345 86.548L250.835 87.118L250.895 87.298ZM250.475 87.478L250.685 87.088L250.265 87.358L250.475 87.478ZM263.765 88.108L263.915 87.988L263.705 87.898L263.645 88.078L263.765 88.108ZM262.955 90.178L263.135 90.058V89.968L262.865 90.088L262.955 90.178ZM262.325 90.958H262.715C262.815 90.798 262.905 90.678 262.985 90.598L263.285 90.328L262.925 90.418L262.745 90.628L262.715 90.508L262.325 90.958ZM261.905 91.498L261.845 91.318L262.055 91.258L261.965 91.438L261.905 91.498ZM261.845 92.518L261.815 92.428L261.965 92.398L261.995 92.428L261.965 92.518H261.845ZM260.555 93.238L260.825 93.208L260.615 93.058L260.555 93.238ZM260.675 93.688L260.405 93.388L260.225 93.418L260.015 93.598L260.195 93.658L260.345 93.508L260.675 93.688ZM256.655 95.548L256.835 95.458L257.405 94.828C257.065 94.948 256.785 95.158 256.565 95.458L256.655 95.548ZM258.005 96.718L258.575 96.358V96.478L258.005 96.718Z" fill="url(#paint9_linear_126_31051)"/>
<defs>
<linearGradient id="paint0_linear_126_31051" x1="137.503" y1="3.41797" x2="137.503" y2="31.2566" gradientUnits="userSpaceOnUse">
<stop stop-color="#DCBF87"/>
<stop offset="1" stop-color="#68552C"/>
</linearGradient>
<linearGradient id="paint1_linear_126_31051" x1="154.006" y1="3.49219" x2="154.006" y2="15.259" gradientUnits="userSpaceOnUse">
<stop stop-color="#E5C68C"/>
<stop offset="1" stop-color="#7F6E4E"/>
</linearGradient>
<linearGradient id="paint2_linear_126_31051" x1="139.225" y1="17.6953" x2="139.225" y2="29.5339" gradientUnits="userSpaceOnUse">
<stop stop-color="#E5C68C"/>
<stop offset="1" stop-color="#7F6E4E"/>
</linearGradient>
<linearGradient id="paint3_linear_126_31051" x1="139.109" y1="15.9023" x2="139.109" y2="3.77677" gradientUnits="userSpaceOnUse">
<stop stop-color="#E5C68C"/>
<stop offset="1" stop-color="#7F6E4E"/>
</linearGradient>
<linearGradient id="paint4_linear_126_31051" x1="153.996" y1="29.3906" x2="153.996" y2="17.5235" gradientUnits="userSpaceOnUse">
<stop stop-color="#E5C68C"/>
<stop offset="1" stop-color="#7F6E4E"/>
</linearGradient>
<linearGradient id="paint5_linear_126_31051" x1="254.482" y1="182.384" x2="268.719" y2="193.004" gradientUnits="userSpaceOnUse">
<stop stop-color="#ECC271"/>
<stop offset="1" stop-color="#7F642E"/>
</linearGradient>
<linearGradient id="paint6_linear_126_31051" x1="134.696" y1="252.418" x2="153.086" y2="255.513" gradientUnits="userSpaceOnUse">
<stop stop-color="#ECC271"/>
<stop offset="1" stop-color="#7F642E"/>
</linearGradient>
<linearGradient id="paint7_linear_126_31051" x1="22.7446" y1="185.975" x2="48.1562" y2="179.071" gradientUnits="userSpaceOnUse">
<stop stop-color="#ECC271"/>
<stop offset="1" stop-color="#7F642E"/>
</linearGradient>
<linearGradient id="paint8_linear_126_31051" x1="43.0861" y1="67.8296" x2="60.0036" y2="84.6363" gradientUnits="userSpaceOnUse">
<stop stop-color="#ECC271"/>
<stop offset="1" stop-color="#7F642E"/>
</linearGradient>
<linearGradient id="paint9_linear_126_31051" x1="248.396" y1="66.4179" x2="266.394" y2="69.2713" gradientUnits="userSpaceOnUse">
<stop stop-color="#ECC271"/>
<stop offset="1" stop-color="#7F642E"/>
</linearGradient>
</defs>
</svg>
