<svg width="296" height="291" viewBox="0 0 296 291" fill="none" xmlns="http://www.w3.org/2000/svg">
<path d="M142.36 34.2527C140.789 34.2527 139.404 34.0406 138.206 33.6166C137.033 33.1675 136.11 32.5689 135.436 31.8205C134.763 31.0472 134.426 30.1742 134.426 29.2013C134.426 28.3781 134.65 27.7295 135.099 27.2556C135.574 26.7567 136.16 26.5072 136.859 26.5072C137.308 26.5072 137.707 26.607 138.056 26.8066C138.431 26.9812 138.718 27.2431 138.917 27.5923C139.142 27.9166 139.254 28.3033 139.254 28.7523C139.254 29.1514 139.167 29.4632 138.992 29.6877C138.842 29.9122 138.668 30.0993 138.468 30.249C138.268 30.3987 138.081 30.5483 137.907 30.698C137.757 30.8227 137.682 31.0223 137.682 31.2967C137.682 31.7457 137.919 32.1074 138.393 32.3818C138.892 32.6312 139.466 32.8183 140.115 32.943C140.789 33.0678 141.387 33.1301 141.911 33.1301C143.658 33.1301 144.993 32.5439 145.916 31.3715C146.864 30.1991 147.338 28.5153 147.338 26.3202C147.338 24.2497 146.864 22.6657 145.916 21.5681C144.968 20.4706 143.384 19.9218 141.163 19.9218L144.831 19.0612C146.378 19.2358 147.725 19.6723 148.873 20.3708C150.046 21.0443 150.956 21.8924 151.605 22.9152C152.254 23.9379 152.578 25.0729 152.578 26.3202C152.578 27.6672 152.167 28.9518 151.343 30.1741C150.545 31.3715 149.384 32.3568 147.862 33.1301C146.34 33.8785 144.506 34.2527 142.36 34.2527ZM140.324 19.9218V18.0818H144.831V19.9218H140.324ZM142.622 19.2108L140.452 18.7992C142.473 18.7992 143.92 18.238 144.793 17.1155C145.667 15.968 146.103 14.3965 146.103 12.4009C146.103 11.1287 145.941 10.1433 145.617 9.44488C145.317 8.74642 144.868 8.25999 144.269 7.9856C143.695 7.68626 142.997 7.53659 142.173 7.53659C141.25 7.53659 140.477 7.67378 139.853 7.94818C139.229 8.22257 138.917 8.59675 138.917 9.0707C138.917 9.3451 139.017 9.5696 139.217 9.74422C139.416 9.91883 139.616 10.1309 139.815 10.3803C140.015 10.6048 140.115 10.954 140.115 11.428C140.115 12.0766 139.903 12.563 139.479 12.8873C139.054 13.1866 138.593 13.3363 138.094 13.3363C137.47 13.3363 136.933 13.1118 136.484 12.6628C136.06 12.2138 135.848 11.665 135.848 11.0164C135.848 10.293 136.123 9.58208 136.671 8.88362C137.245 8.18516 138.069 7.59895 139.142 7.12499C140.215 6.65104 141.512 6.41406 143.034 6.41406C144.706 6.41406 146.128 6.70093 147.301 7.27466C148.499 7.8484 149.409 8.59675 150.033 9.51971C150.657 10.4427 150.969 11.428 150.969 12.4757C150.969 13.5982 150.62 14.6459 149.921 15.6188C149.247 16.5667 148.287 17.3649 147.039 18.0135C145.791 18.6371 144.319 19.0362 142.622 19.2108Z" fill="url(#paint0_linear_126_30914)"/>
<path d="M165.926 12.3678C165.926 15.3007 163.317 17.7512 160.005 17.7512C156.692 17.7512 154.083 15.3007 154.083 12.3678C154.083 9.4349 156.692 6.98438 160.005 6.98438C163.317 6.98438 165.926 9.4349 165.926 12.3678Z" fill="black" stroke="url(#paint1_linear_126_30914)"/>
<path d="M139.302 26.6107C139.302 29.5661 141.914 32.03 145.224 32.03C148.533 32.03 151.146 29.5661 151.146 26.6107C151.146 23.6553 148.533 21.1914 145.224 21.1914C141.914 21.1914 139.302 23.6553 139.302 26.6107Z" fill="black" stroke="url(#paint2_linear_126_30914)"/>
<mask id="path-4-inside-1_126_30914" fill="white">
<path fill-rule="evenodd" clip-rule="evenodd" d="M140.316 18.072C142.237 17.0383 143.525 15.138 143.525 12.9649C143.525 10.7029 142.13 8.73657 140.078 7.73544C141.096 7.1263 142.308 6.77286 143.61 6.77286C147.215 6.77286 150.139 9.48727 150.139 12.8357C150.139 16.184 147.215 18.8984 143.61 18.8984C142.408 18.8984 141.283 18.5973 140.316 18.072Z"/>
</mask>
<path fill-rule="evenodd" clip-rule="evenodd" d="M140.316 18.072C142.237 17.0383 143.525 15.138 143.525 12.9649C143.525 10.7029 142.13 8.73657 140.078 7.73544C141.096 7.1263 142.308 6.77286 143.61 6.77286C147.215 6.77286 150.139 9.48727 150.139 12.8357C150.139 16.184 147.215 18.8984 143.61 18.8984C142.408 18.8984 141.283 18.5973 140.316 18.072Z" fill="black"/>
<path d="M140.316 18.072L139.843 17.1914L138.214 18.0677L139.839 18.9506L140.316 18.072ZM140.078 7.73544L139.564 6.8773L137.981 7.82484L139.639 8.63416L140.078 7.73544ZM142.525 12.9649C142.525 14.7219 141.484 16.308 139.843 17.1914L140.79 18.9525C142.99 17.7686 144.525 15.5542 144.525 12.9649L142.525 12.9649ZM139.639 8.63416C141.397 9.49161 142.525 11.1369 142.525 12.9649L144.525 12.9649C144.525 10.2689 142.863 7.98153 140.516 6.83671L139.639 8.63416ZM140.591 8.59358C141.456 8.07655 142.491 7.77286 143.61 7.77286L143.61 5.77286C142.126 5.77286 140.737 6.17606 139.564 6.8773L140.591 8.59358ZM143.61 7.77286C146.734 7.77286 149.139 10.108 149.139 12.8357L151.139 12.8357C151.139 8.86648 147.697 5.77286 143.61 5.77286L143.61 7.77286ZM149.139 12.8357C149.139 15.5633 146.734 17.8984 143.61 17.8984L143.61 19.8984C147.697 19.8984 151.139 16.8048 151.139 12.8357L149.139 12.8357ZM143.61 17.8984C142.577 17.8984 141.615 17.6397 140.794 17.1933L139.839 18.9506C140.951 19.555 142.24 19.8984 143.61 19.8984L143.61 17.8984Z" fill="url(#paint3_linear_126_30914)" mask="url(#path-4-inside-1_126_30914)"/>
<mask id="path-6-inside-2_126_30914" fill="white">
<path fill-rule="evenodd" clip-rule="evenodd" d="M164.9 31.592C162.946 30.5659 161.632 28.6487 161.632 26.453C161.632 24.2574 162.946 22.3404 164.9 21.3142C163.938 20.8088 162.821 20.5196 161.629 20.5196C158.017 20.5196 155.09 23.1761 155.09 26.4531C155.09 29.7302 158.017 32.3867 161.629 32.3867C162.821 32.3867 163.938 32.0974 164.9 31.592Z"/>
</mask>
<path fill-rule="evenodd" clip-rule="evenodd" d="M164.9 31.592C162.946 30.5659 161.632 28.6487 161.632 26.453C161.632 24.2574 162.946 22.3404 164.9 21.3142C163.938 20.8088 162.821 20.5196 161.629 20.5196C158.017 20.5196 155.09 23.1761 155.09 26.4531C155.09 29.7302 158.017 32.3867 161.629 32.3867C162.821 32.3867 163.938 32.0974 164.9 31.592Z" fill="black"/>
<path d="M164.9 31.592L165.365 30.7067L167.051 31.592L165.365 32.4773L164.9 31.592ZM164.9 21.3142L165.365 20.4289L167.05 21.3142L165.365 22.1995L164.9 21.3142ZM162.632 26.453C162.632 28.2281 163.695 29.8293 165.365 30.7067L164.435 32.4773C162.198 31.3025 160.632 29.0694 160.632 26.453L162.632 26.453ZM165.365 22.1995C163.694 23.0769 162.632 24.6781 162.632 26.453L160.632 26.453C160.632 23.8368 162.198 21.6038 164.435 20.4289L165.365 22.1995ZM164.435 22.1995C163.616 21.7693 162.658 21.5196 161.629 21.5196L161.629 19.5196C162.983 19.5196 164.26 19.8484 165.365 20.4289L164.435 22.1995ZM161.629 21.5196C158.476 21.5196 156.09 23.8176 156.09 26.4531L154.09 26.4531C154.09 22.5346 157.559 19.5196 161.629 19.5196L161.629 21.5196ZM156.09 26.4531C156.09 29.0887 158.476 31.3867 161.629 31.3867L161.629 33.3867C157.559 33.3867 154.09 30.3717 154.09 26.4531L156.09 26.4531ZM161.629 31.3867C162.658 31.3867 163.616 31.137 164.435 30.7067L165.365 32.4773C164.26 33.0579 162.983 33.3867 161.629 33.3867L161.629 31.3867Z" fill="url(#paint4_linear_126_30914)" mask="url(#path-6-inside-2_126_30914)"/>
<path d="M253.076 191.862L244.355 208.527L247.781 210.32L247.129 211.566L237.395 206.472L238.047 205.226L241.473 207.019L249.543 191.6L245.805 189.644L246.457 188.398L253.076 191.862ZM257.102 217.341C255.897 216.71 254.939 215.938 254.228 215.023C253.522 214.098 253.056 213.067 252.83 211.931C252.605 210.794 252.617 209.571 252.867 208.26C253.132 206.944 253.637 205.574 254.382 204.152C255.153 202.678 256.028 201.449 257.005 200.466C257.988 199.472 259.037 198.745 260.151 198.283C261.271 197.811 262.431 197.605 263.63 197.664C264.84 197.728 266.052 198.078 267.267 198.714C268.45 199.333 269.395 200.105 270.102 201.03C270.813 201.945 271.277 202.968 271.492 204.099C271.717 205.235 271.697 206.462 271.431 207.778C271.182 209.089 270.687 210.45 269.948 211.862C269.22 213.253 268.383 214.449 267.437 215.448C266.496 216.437 265.476 217.186 264.376 217.695C263.276 218.204 262.114 218.442 260.888 218.409C259.662 218.376 258.4 218.02 257.102 217.341ZM257.815 216.167C258.272 216.406 258.72 216.587 259.158 216.71C259.612 216.829 260.064 216.861 260.516 216.806C260.978 216.757 261.448 216.606 261.924 216.353C262.401 216.099 262.887 215.713 263.384 215.192C263.892 214.678 264.415 214.019 264.954 213.217C265.509 212.409 266.088 211.429 266.691 210.277C267.577 208.584 268.19 207.159 268.531 206.002C268.878 204.834 269.014 203.854 268.94 203.061C268.876 202.274 268.623 201.632 268.181 201.136C267.75 200.646 267.197 200.225 266.522 199.871C265.837 199.513 265.152 199.293 264.466 199.212C263.797 199.126 263.107 199.281 262.398 199.677C261.688 200.073 260.942 200.754 260.158 201.719C259.375 202.685 258.533 204.03 257.631 205.753C257.044 206.875 256.577 207.88 256.23 208.77C255.884 209.66 255.641 210.452 255.502 211.147C255.369 211.831 255.324 212.436 255.367 212.961C255.425 213.481 255.556 213.939 255.758 214.336C255.976 214.728 256.258 215.074 256.604 215.374C256.955 215.663 257.359 215.927 257.815 216.167Z" fill="url(#paint5_linear_126_30914)"/>
<path d="M142.734 259.199V278.008H146.602V279.414H135.615V278.008H139.482V260.605H135.264V259.199H142.734ZM152.086 271.029C151.617 271.029 151.172 270.947 150.75 270.783L151.453 259.199H164.074L163.898 262.117H152.807L152.35 269.166L152.42 269.201C153.158 268.85 153.92 268.592 154.705 268.428C155.49 268.264 156.258 268.182 157.008 268.182C158.238 268.182 159.381 268.387 160.436 268.797C161.49 269.207 162.398 269.781 163.16 270.52C163.922 271.246 164.52 272.113 164.953 273.121C165.387 274.129 165.604 275.23 165.604 276.426C165.604 277.551 165.404 278.617 165.006 279.625C164.607 280.645 164.016 281.541 163.23 282.314C162.445 283.088 161.467 283.703 160.295 284.16C159.123 284.617 157.764 284.846 156.217 284.846C154.975 284.846 153.908 284.699 153.018 284.406C152.127 284.125 151.395 283.762 150.82 283.316C150.246 282.883 149.824 282.402 149.555 281.875C149.285 281.359 149.15 280.861 149.15 280.381C149.15 280.076 149.197 279.789 149.291 279.52C149.396 279.25 149.543 279.016 149.73 278.816C149.93 278.605 150.158 278.441 150.416 278.324C150.686 278.207 150.99 278.148 151.33 278.148C151.6 278.148 151.857 278.189 152.104 278.271C152.35 278.354 152.566 278.482 152.754 278.658C152.953 278.822 153.111 279.033 153.229 279.291C153.346 279.549 153.404 279.854 153.404 280.205C153.404 280.615 153.311 281.008 153.123 281.383C152.947 281.758 152.672 282.08 152.297 282.35C152.59 282.584 152.906 282.771 153.246 282.912C153.586 283.064 153.92 283.182 154.248 283.264C154.588 283.346 154.916 283.398 155.232 283.422C155.549 283.457 155.83 283.475 156.076 283.475C156.521 283.475 156.979 283.434 157.447 283.352C157.916 283.281 158.367 283.146 158.801 282.947C159.234 282.76 159.645 282.502 160.031 282.174C160.418 281.846 160.752 281.43 161.033 280.926C161.326 280.434 161.555 279.842 161.719 279.15C161.883 278.459 161.965 277.656 161.965 276.742C161.965 275.418 161.795 274.316 161.455 273.438C161.115 272.547 160.67 271.838 160.119 271.311C159.568 270.783 158.936 270.408 158.221 270.186C157.518 269.963 156.797 269.852 156.059 269.852C155.25 269.852 154.506 269.957 153.826 270.168C153.158 270.379 152.578 270.666 152.086 271.029Z" fill="url(#paint6_linear_126_30914)"/>
<path d="M31.3835 216.48C32.1113 214.969 32.7549 213.594 33.3143 212.354C33.884 211.11 34.36 209.972 34.7424 208.943C35.1292 207.897 35.4186 206.941 35.6108 206.074C35.8074 205.192 35.9073 204.365 35.9107 203.593C35.9083 202.811 35.8026 202.061 35.5939 201.343C35.3894 200.609 35.0745 199.871 34.6491 199.129C34.1422 198.245 33.6355 197.596 33.1291 197.184C32.6271 196.756 32.1318 196.493 31.6433 196.395C31.1592 196.28 30.6875 196.294 30.2284 196.436C29.7736 196.561 29.3428 196.741 28.9361 196.974C28.2549 197.364 27.6748 197.825 27.1959 198.356C26.727 198.881 26.3826 199.471 26.1625 200.123C26.6263 200.249 27.0365 200.446 27.3929 200.715C27.7494 200.983 28.0209 201.28 28.2073 201.606C28.4696 202.063 28.5414 202.542 28.4229 203.042C28.3145 203.536 27.9756 203.947 27.4062 204.273C27.1521 204.419 26.8927 204.52 26.6283 204.577C26.358 204.624 26.0978 204.618 25.8477 204.559C25.5976 204.499 25.3576 204.387 25.1278 204.222C24.9081 204.05 24.7137 203.817 24.5447 203.522C24.2417 202.994 24.097 202.388 24.1107 201.705C24.1243 201.021 24.2971 200.321 24.6291 199.604C24.9712 198.881 25.4717 198.176 26.1308 197.488C26.784 196.789 27.6037 196.157 28.5899 195.592C29.5456 195.044 30.4747 194.674 31.3771 194.481C32.2736 194.277 33.1145 194.248 33.8996 194.392C34.6788 194.527 35.3864 194.83 36.0222 195.303C36.6681 195.77 37.2155 196.395 37.6641 197.178C38.0487 197.849 38.3142 198.548 38.4605 199.275C38.6009 199.991 38.6535 200.731 38.6181 201.494C38.5929 202.251 38.482 203.024 38.2853 203.812C38.0988 204.594 37.8629 205.385 37.5776 206.183C37.2923 206.981 36.9757 207.784 36.6279 208.591C36.2743 209.388 35.9126 210.183 35.543 210.976L34.7364 212.715L34.8106 212.773L39.8128 209.906C40.5042 209.51 41.0358 209.165 41.4075 208.871C41.7734 208.567 42.0092 208.236 42.1148 207.878C42.2205 207.52 42.2119 207.093 42.0892 206.596C41.9606 206.089 41.7447 205.429 41.4413 204.617L42.6003 203.953L45.5142 209.779L31.9867 217.532L31.3835 216.48ZM57.2276 203.633C56.0482 204.309 54.8815 204.701 53.7275 204.808C52.5677 204.906 51.4483 204.744 50.3692 204.322C49.2902 203.901 48.2653 203.232 47.2946 202.316C46.3283 201.384 45.4459 200.221 44.6476 198.829C43.8201 197.385 43.2551 195.987 42.9525 194.634C42.644 193.271 42.5951 191.995 42.8058 190.807C43.0107 189.609 43.4606 188.521 44.1556 187.542C44.8607 186.557 45.8081 185.723 46.9977 185.042C48.1567 184.377 49.3162 183.997 50.476 183.899C51.6299 183.792 52.7414 183.951 53.8103 184.379C54.8893 184.8 55.912 185.477 56.8784 186.409C57.8491 187.325 58.7306 188.474 59.5231 189.857C60.304 191.22 60.861 192.568 61.1941 193.904C61.5214 195.229 61.6037 196.492 61.441 197.693C61.2783 198.894 60.8531 200.002 60.1654 201.017C59.4777 202.033 58.4985 202.905 57.2276 203.633ZM56.622 202.4C57.0694 202.143 57.4629 201.864 57.8027 201.561C58.1468 201.242 58.4174 200.878 58.6145 200.468C58.8218 200.052 58.947 199.575 58.9899 199.037C59.0328 198.499 58.9688 197.881 58.7978 197.182C58.637 196.477 58.3634 195.681 57.9771 194.795C57.5951 193.893 57.0807 192.878 56.4339 191.749C55.4841 190.092 54.6132 188.808 53.8213 187.898C53.0236 186.977 52.2706 186.335 51.5622 185.971C50.8641 185.601 50.1873 185.469 49.5319 185.575C48.8866 185.674 48.2336 185.914 47.5727 186.292C46.9017 186.677 46.3477 187.136 45.9109 187.67C45.4784 188.188 45.238 188.853 45.1896 189.664C45.1412 190.475 45.3133 191.471 45.7058 192.65C46.0983 193.83 46.7782 195.264 47.7456 196.952C48.3749 198.05 48.9713 198.984 49.5348 199.755C50.0983 200.527 50.6355 201.157 51.1463 201.648C51.6513 202.129 52.1365 202.492 52.602 202.739C53.0718 202.969 53.5284 203.106 53.9717 203.149C54.4195 203.176 54.8627 203.124 55.3015 202.995C55.7345 202.854 56.1747 202.656 56.622 202.4Z" fill="url(#paint7_linear_126_30914)"/>
<path d="M20.4982 87.894C22.174 87.8247 23.6902 87.7451 25.0468 87.6553C26.4134 87.5718 27.6409 87.4564 28.7292 87.3091C29.8338 87.1581 30.8136 86.9634 31.6686 86.725C32.5397 86.4829 33.3166 86.1817 33.9991 85.8213C34.6879 85.451 35.2998 85.0048 35.8347 84.4827C36.3859 83.9569 36.8887 83.3316 37.3433 82.6069C37.885 81.7432 38.2185 80.991 38.3437 80.3502C38.4851 79.7057 38.4842 79.1449 38.3408 78.6677C38.2137 78.1867 37.9795 77.7771 37.6385 77.4386C37.3136 77.0965 36.9526 76.8009 36.5555 76.5519C35.8903 76.1347 35.2107 75.8398 34.5166 75.6673C33.8324 75.501 33.1505 75.4744 32.4708 75.5876C32.5782 76.0561 32.5973 76.5107 32.5283 76.9516C32.4593 77.3925 32.3251 77.7717 32.1259 78.0894C31.8457 78.5362 31.457 78.825 30.9599 78.9558C30.4728 79.0929 29.9512 78.9871 29.3953 78.6384C29.1471 78.4828 28.9356 78.3017 28.7608 78.0952C28.5922 77.8788 28.4752 77.6463 28.4097 77.3978C28.3443 77.1492 28.3304 76.8846 28.3681 76.604C28.4158 76.3295 28.5299 76.0483 28.7105 75.7604C29.0343 75.2442 29.5007 74.8313 30.1099 74.5217C30.7191 74.2122 31.4181 74.035 32.207 73.9903C33.0057 73.9519 33.8639 74.0613 34.7815 74.3187C35.7053 74.5661 36.6487 74.9918 37.6116 75.5958C38.5448 76.1811 39.309 76.8264 39.9041 77.5317C40.5054 78.2271 40.9272 78.955 41.1695 79.7156C41.418 80.4663 41.4832 81.2335 41.3652 82.0171C41.2571 82.807 40.9633 83.5841 40.4838 84.3485C40.0729 85.0037 39.5813 85.5669 39.0091 86.038C38.4432 86.4992 37.8153 86.8938 37.1253 87.2219C36.4453 87.5562 35.7114 87.8221 34.9235 88.0196C34.1456 88.2233 33.3373 88.3872 32.4986 88.5113C31.6599 88.6355 30.8027 88.7341 29.9268 88.8072C29.0572 88.8704 28.1857 88.9255 27.3124 88.9726L25.3986 89.0795L25.3817 89.1726L30.266 92.2362C30.9411 92.6596 31.4959 92.9661 31.9303 93.1556C32.371 93.3352 32.774 93.3874 33.1393 93.3122C33.5047 93.237 33.8776 93.0283 34.2583 92.686C34.6452 92.3339 35.1255 91.8328 35.6992 91.1828L36.8309 91.8927L33.0623 97.2063L19.8537 88.9215L20.4982 87.894ZM43.6081 93.9233C43.211 93.6743 42.8774 93.3681 42.6072 93.005L49.358 83.5652L60.05 90.2715L58.3506 92.6501L48.9542 86.7564L44.8216 92.485L44.8624 92.5521C45.6747 92.6466 46.457 92.8329 47.2093 93.1111C47.9616 93.3893 48.6554 93.7277 49.2908 94.1262C50.3332 94.78 51.1922 95.5609 51.8677 96.4687C52.5432 97.3766 53.0075 98.3457 53.2605 99.3758C53.5197 100.396 53.5652 101.448 53.3971 102.532C53.2289 103.617 52.8272 104.665 52.1921 105.678C51.5943 106.631 50.8589 107.428 49.9858 108.07C49.1066 108.722 48.1289 109.167 47.0528 109.405C45.9766 109.643 44.8208 109.645 43.5852 109.409C42.3496 109.173 41.0766 108.645 39.7661 107.823C38.7138 107.163 37.8883 106.472 37.2894 105.751C36.6844 105.039 36.257 104.342 36.0071 103.66C35.7511 102.987 35.649 102.356 35.7008 101.766C35.7465 101.186 35.897 100.693 36.1523 100.286C36.3142 100.028 36.5064 99.8092 36.7291 99.6307C36.9616 99.4584 37.2103 99.3377 37.475 99.2686C37.7558 99.1957 38.0366 99.1782 38.3173 99.2159C38.6079 99.2598 38.8971 99.3721 39.185 99.5527C39.4133 99.6959 39.6099 99.8676 39.7748 100.068C39.9397 100.268 40.0549 100.493 40.1203 100.741C40.2019 100.986 40.2239 101.249 40.1861 101.529C40.1484 101.81 40.0362 102.099 39.8494 102.397C39.6314 102.745 39.3434 103.027 38.9853 103.245C38.6371 103.47 38.2326 103.596 37.7717 103.625C37.8954 103.98 38.0638 104.307 38.2769 104.606C38.4839 104.916 38.7046 105.193 38.9389 105.437C39.1833 105.687 39.4332 105.906 39.6888 106.094C39.9382 106.291 40.1671 106.456 40.3756 106.587C40.7528 106.823 41.1618 107.031 41.6025 107.211C42.0369 107.4 42.4907 107.526 42.9639 107.588C43.4309 107.659 43.9153 107.659 44.4173 107.586C44.9192 107.514 45.4232 107.339 45.9292 107.061C46.4389 106.8 46.947 106.42 47.4534 105.922C47.9597 105.423 48.4558 104.787 48.9414 104.012C49.6451 102.89 50.0865 101.867 50.2656 100.942C50.4509 100.007 50.4504 99.1695 50.264 98.4301C50.0776 97.6907 49.7408 97.0367 49.2535 96.4683C48.7762 95.9061 48.2248 95.4288 47.5994 95.0365C46.9144 94.6069 46.2279 94.3008 45.54 94.1183C44.8621 93.9421 44.2181 93.8771 43.6081 93.9233Z" fill="url(#paint8_linear_126_30914)"/>
<path d="M258.906 87.0293C258.438 87.0293 257.992 86.9473 257.57 86.7832L258.273 75.1992H270.895L270.719 78.1172H259.627L259.17 85.166L259.24 85.2012C259.979 84.8496 260.74 84.5918 261.525 84.4277C262.311 84.2637 263.078 84.1816 263.828 84.1816C265.059 84.1816 266.201 84.3867 267.256 84.7969C268.311 85.207 269.219 85.7812 269.98 86.5195C270.742 87.2461 271.34 88.1133 271.773 89.1211C272.207 90.1289 272.424 91.2305 272.424 92.4258C272.424 93.5508 272.225 94.6172 271.826 95.625C271.428 96.6445 270.836 97.541 270.051 98.3145C269.266 99.0879 268.287 99.7031 267.115 100.16C265.943 100.617 264.584 100.846 263.037 100.846C261.795 100.846 260.729 100.699 259.838 100.406C258.947 100.125 258.215 99.7617 257.641 99.3164C257.066 98.8828 256.645 98.4023 256.375 97.875C256.105 97.3594 255.971 96.8613 255.971 96.3809C255.971 96.0762 256.018 95.7891 256.111 95.5195C256.217 95.25 256.363 95.0156 256.551 94.8164C256.75 94.6055 256.979 94.4414 257.236 94.3242C257.506 94.207 257.811 94.1484 258.15 94.1484C258.42 94.1484 258.678 94.1895 258.924 94.2715C259.17 94.3535 259.387 94.4824 259.574 94.6582C259.773 94.8223 259.932 95.0332 260.049 95.291C260.166 95.5488 260.225 95.8535 260.225 96.2051C260.225 96.6152 260.131 97.0078 259.943 97.3828C259.768 97.7578 259.492 98.0801 259.117 98.3496C259.41 98.584 259.727 98.7715 260.066 98.9121C260.406 99.0645 260.74 99.1816 261.068 99.2637C261.408 99.3457 261.736 99.3984 262.053 99.4219C262.369 99.457 262.65 99.4746 262.896 99.4746C263.342 99.4746 263.799 99.4336 264.268 99.3516C264.736 99.2812 265.188 99.1465 265.621 98.9473C266.055 98.7598 266.465 98.502 266.852 98.1738C267.238 97.8457 267.572 97.4297 267.854 96.9258C268.146 96.4336 268.375 95.8418 268.539 95.1504C268.703 94.459 268.785 93.6562 268.785 92.7422C268.785 91.418 268.615 90.3164 268.275 89.4375C267.936 88.5469 267.49 87.8379 266.939 87.3105C266.389 86.7832 265.756 86.4082 265.041 86.1855C264.338 85.9629 263.617 85.8516 262.879 85.8516C262.07 85.8516 261.326 85.957 260.646 86.168C259.979 86.3789 259.398 86.666 258.906 87.0293Z" fill="url(#paint9_linear_126_30914)"/>
<defs>
<linearGradient id="paint0_linear_126_30914" x1="143.502" y1="6.41406" x2="143.502" y2="34.2527" gradientUnits="userSpaceOnUse">
<stop stop-color="#DCBF87"/>
<stop offset="1" stop-color="#68552C"/>
</linearGradient>
<linearGradient id="paint1_linear_126_30914" x1="160.005" y1="6.48437" x2="160.005" y2="18.2512" gradientUnits="userSpaceOnUse">
<stop stop-color="#E5C68C"/>
<stop offset="1" stop-color="#7F6E4E"/>
</linearGradient>
<linearGradient id="paint2_linear_126_30914" x1="145.224" y1="20.6914" x2="145.224" y2="32.53" gradientUnits="userSpaceOnUse">
<stop stop-color="#E5C68C"/>
<stop offset="1" stop-color="#7F6E4E"/>
</linearGradient>
<linearGradient id="paint3_linear_126_30914" x1="145.108" y1="18.8984" x2="145.108" y2="6.77286" gradientUnits="userSpaceOnUse">
<stop stop-color="#E5C68C"/>
<stop offset="1" stop-color="#7F6E4E"/>
</linearGradient>
<linearGradient id="paint4_linear_126_30914" x1="159.995" y1="32.3867" x2="159.995" y2="20.5196" gradientUnits="userSpaceOnUse">
<stop stop-color="#E5C68C"/>
<stop offset="1" stop-color="#7F6E4E"/>
</linearGradient>
<linearGradient id="paint5_linear_126_30914" x1="265.481" y1="170.38" x2="280.505" y2="180.13" gradientUnits="userSpaceOnUse">
<stop stop-color="#ECC271"/>
<stop offset="1" stop-color="#7F642E"/>
</linearGradient>
<linearGradient id="paint6_linear_126_30914" x1="142.695" y1="234.414" x2="161.473" y2="235.994" gradientUnits="userSpaceOnUse">
<stop stop-color="#ECC271"/>
<stop offset="1" stop-color="#7F642E"/>
</linearGradient>
<linearGradient id="paint7_linear_126_30914" x1="15.7436" y1="174.975" x2="40.8065" y2="165.145" gradientUnits="userSpaceOnUse">
<stop stop-color="#ECC271"/>
<stop offset="1" stop-color="#7F642E"/>
</linearGradient>
<linearGradient id="paint8_linear_126_30914" x1="50.2081" y1="54.8413" x2="69.2402" y2="69.9448" gradientUnits="userSpaceOnUse">
<stop stop-color="#ECC271"/>
<stop offset="1" stop-color="#7F642E"/>
</linearGradient>
<linearGradient id="paint9_linear_126_30914" x1="256.395" y1="50.414" x2="274.717" y2="51.9456" gradientUnits="userSpaceOnUse">
<stop stop-color="#ECC271"/>
<stop offset="1" stop-color="#7F642E"/>
</linearGradient>
</defs>
</svg>
