<svg width="288" height="275" viewBox="0 0 288 275" fill="none" xmlns="http://www.w3.org/2000/svg">
<path fill-rule="evenodd" clip-rule="evenodd" d="M282.912 120.262L286.562 119.757L286.151 116.786L286.121 116.79L286.035 116.171L282.405 116.673C282.59 117.865 282.759 119.061 282.912 120.262ZM277.917 97.2796L281.387 96.1837L280.484 93.323L280.451 93.3332L280.263 92.7369L276.795 93.8323C277.184 94.9748 277.558 96.124 277.917 97.2796ZM254.403 52.8889L257.204 50.6757L255.344 48.3219L255.307 48.3507L254.918 47.8586L252.109 50.0785C252.886 51.0052 253.65 51.9421 254.403 52.8889ZM239.517 36.9129L241.913 34.3126L239.707 32.2794L239.684 32.3051L239.218 31.8761L236.807 34.4921C237.721 35.2875 238.624 36.0945 239.517 36.9129ZM222.859 23.8146L224.809 20.9118L222.319 19.2389L222.298 19.2703L221.774 18.9186L219.817 21.8323C220.84 22.4803 221.854 23.1412 222.859 23.8146ZM204.32 13.3391L205.783 10.2079L203.065 8.93766L203.048 8.97563L202.479 8.71005L201.015 11.843C202.124 12.3279 203.226 12.8267 204.32 13.3391ZM181.909 5.09296L182.812 1.74834L179.916 0.966048L179.91 0.986376L179.297 0.820669L178.39 4.17903C179.569 4.46896 180.742 4.77367 181.909 5.09296ZM110.388 4.23859L109.451 0.738281L106.553 1.51409L106.714 2.11374L106.101 2.27787L106.872 5.15854C108.038 4.83726 109.21 4.53054 110.388 4.23859ZM89.5575 11.1751L88.0335 7.77415L85.2958 9.00091L85.5465 9.56027L84.9666 9.8201L86.2277 12.6345C87.3299 12.1342 88.44 11.6477 89.5575 11.1751ZM70.7045 20.8944L68.6156 17.6724L66.0984 19.3044L66.4392 19.8301L65.9039 20.1772L67.6315 22.8421C68.6466 22.18 69.671 21.5307 70.7045 20.8944ZM53.5487 33.3434L50.9162 30.3951L48.6784 32.3932L49.0911 32.8554L48.6215 33.2747L50.8116 35.7276C51.7133 34.9213 52.6258 34.1265 53.5487 33.3434ZM36.8853 50.1084L33.7048 47.5838L31.8396 49.9336L32.3284 50.3215L31.9368 50.8148L34.5909 52.9215C35.3434 51.9738 36.1083 51.036 36.8853 50.1084ZM12.7242 92.3901L8.74178 91.0781L7.80314 93.9275L8.40133 94.1246L8.20556 94.7188L11.5632 95.825C11.9353 94.6733 12.3224 93.5283 12.7242 92.3901ZM7.18872 113.255L3.00002 112.566L2.51325 115.527L3.14003 115.63L3.03783 116.251L6.58942 116.835C6.77356 115.637 6.9734 114.443 7.18872 113.255ZM5.00977 137.644C5.00977 137.628 5.00977 137.612 5.00977 137.596C5.00977 136.398 5.0253 135.204 5.05619 134.013L0.777306 133.958L0.738281 136.957L1.37056 136.966L1.36235 137.597L5.00977 137.644ZM6.1014 154.881L1.8867 155.463L2.29764 158.435L2.93232 158.347L3.01677 158.958L6.60572 158.462C6.4221 157.273 6.25392 156.079 6.1014 154.881ZM11.0565 177.764L7.07298 179.022L7.97659 181.883L8.58874 181.69L8.77702 182.286L12.1745 181.213C11.7869 180.07 11.4142 178.92 11.0565 177.764ZM34.4354 222.074L31.2665 224.578L33.1265 226.932L33.6324 226.532L34.0225 227.025L36.7243 224.89C35.9492 223.962 35.1861 223.023 34.4354 222.074ZM49.2266 238.025L46.5531 240.925L48.7591 242.958L49.1895 242.492L49.6522 242.918L51.9266 240.45C51.0159 239.653 50.1158 238.845 49.2266 238.025ZM65.7866 251.125L63.6462 254.311L66.1365 255.984L66.4939 255.452L67.0157 255.803L68.8205 253.116C67.7999 252.465 66.7885 251.801 65.7866 251.125ZM84.2683 261.649L82.6826 265.042L85.4005 266.312L85.6732 265.729L86.2446 265.996L87.5708 263.158C86.4622 262.669 85.3613 262.166 84.2683 261.649ZM106.602 269.958L105.653 273.474L108.549 274.256L108.713 273.649L109.325 273.815L110.117 270.885C108.939 270.591 107.768 270.282 106.602 269.958ZM178.062 271.093L178.976 274.508L181.874 273.732L181.866 273.7L182.486 273.534L181.589 270.185C180.42 270.503 179.244 270.805 178.062 271.093ZM198.96 264.227L200.397 267.433L203.135 266.206L203.125 266.185L203.709 265.923L202.3 262.779C201.194 263.276 200.081 263.758 198.96 264.227ZM217.865 254.573L219.8 257.558L222.317 255.926L222.308 255.912L222.839 255.568L220.941 252.64C219.925 253.297 218.899 253.941 217.865 254.573ZM235.122 242.143L237.515 244.823L239.752 242.825L239.746 242.818L240.214 242.4L237.865 239.769C236.961 240.572 236.047 241.364 235.122 242.143ZM251.874 225.393L254.715 227.648L256.58 225.298L256.568 225.288L256.965 224.789L254.182 222.58C253.425 223.528 252.656 224.465 251.874 225.393ZM276.221 183.01L279.7 184.156L280.639 181.307L280.619 181.3L280.815 180.705L277.388 179.577C277.014 180.728 276.625 181.872 276.221 183.01ZM281.803 162.088L285.449 162.688L285.935 159.728L285.913 159.724L286.015 159.104L282.406 158.51C282.221 159.708 282.02 160.901 281.803 162.088ZM284.01 137.647C284.009 138.861 283.993 140.071 283.961 141.277L287.676 141.326L287.715 138.326L287.688 138.326L287.696 137.694L284.01 137.647Z" fill="white"/>
</svg>
