<svg width="287" height="274" viewBox="0 0 287 274" fill="none" xmlns="http://www.w3.org/2000/svg">
<path d="M279.615 181.151L269.896 177.949" stroke="#0C0F13"/>
<path d="M279.438 181.75L270.297 178.739" stroke="#9747FF"/>
<path d="M17.26 94.7252L7.54145 91.5237" stroke="#0C0F13"/>
<path d="M17.0849 95.3244L7.94389 92.3131" stroke="#9747FF"/>
<path d="M285.04 159.601L274.931 157.939" stroke="#0C0F13"/>
<path d="M284.961 160.227L275.453 158.663" stroke="#9747FF"/>
<path d="M12.1349 114.726L2.02563 113.064" stroke="#0C0F13"/>
<path d="M12.0587 115.352L2.55024 113.788" stroke="#9747FF"/>
<path d="M286.943 138.209L276.694 138.076" stroke="#0C0F13"/>
<path d="M286.961 138.843L277.322 138.717" stroke="#9747FF"/>
<path d="M10.2726 134.608L0.0238327 134.474" stroke="#0C0F13"/>
<path d="M10.2877 135.237L0.647916 135.112" stroke="#9747FF"/>
<path d="M285.504 116.676L275.354 118.08" stroke="#0C0F13"/>
<path d="M285.62 117.29L276.073 118.61" stroke="#9747FF"/>
<path d="M11.505 154.563L1.35528 155.966" stroke="#0C0F13"/>
<path d="M11.6211 155.169L2.07443 156.489" stroke="#9747FF"/>
<path d="M279.984 93.1823L270.225 96.2646" stroke="#0C0F13"/>
<path d="M280.204 93.7702L271.026 96.6693" stroke="#9747FF"/>
<path d="M16.5521 176.389L6.79377 179.472" stroke="#0C0F13"/>
<path d="M16.7727 176.973L7.59422 179.872" stroke="#9747FF"/>
<path d="M180.297 272.937L177.688 263.192" stroke="#0C0F13"/>
<path d="M179.685 273.133L177.232 263.967" stroke="#9747FF"/>
<path d="M109.871 9.88577L107.263 0.141166" stroke="#0C0F13"/>
<path d="M109.264 10.0705L106.81 0.904986" stroke="#9747FF"/>
<path d="M201.599 265.555L197.467 256.334" stroke="#0C0F13"/>
<path d="M201.025 265.838L197.139 257.165" stroke="#9747FF"/>
<path d="M90.056 16.6297L85.9239 7.40837" stroke="#0C0F13"/>
<path d="M89.4811 16.901L85.5947 8.22759" stroke="#9747FF"/>
<path d="M220.849 255.403L215.34 246.906" stroke="#0C0F13"/>
<path d="M220.327 255.761L215.145 247.769" stroke="#9747FF"/>
<path d="M72.135 26.0046L66.626 17.5073" stroke="#0C0F13"/>
<path d="M71.613 26.3744L66.4315 18.3821" stroke="#9747FF"/>
<path d="M238.358 242.429L231.597 234.856" stroke="#0C0F13"/>
<path d="M237.896 242.855L231.536 235.732" stroke="#9747FF"/>
<path d="M55.8212 37.9995L49.0595 30.4267" stroke="#0C0F13"/>
<path d="M55.3624 38.4291L49.0026 31.3063" stroke="#9747FF"/>
<path d="M255.296 224.981L247.321 218.651" stroke="#0C0F13"/>
<path d="M254.911 225.49L247.411 219.536" stroke="#9747FF"/>
<path d="M40.0109 54.1057L32.0361 47.7757" stroke="#0C0F13"/>
<path d="M39.6341 54.6109L32.1333 48.6569" stroke="#9747FF"/>
<path d="M255.112 48.0525L247.123 54.3653" stroke="#0C0F13"/>
<path d="M255.537 48.5157L248.023 54.4533" stroke="#9747FF"/>
<path d="M39.4485 218.459L31.4596 224.772" stroke="#0C0F13"/>
<path d="M39.8698 218.926L32.3556 224.863" stroke="#9747FF"/>
<path d="M239.585 31.9076L232.703 39.3748" stroke="#0C0F13"/>
<path d="M240.075 32.311L233.601 39.3344" stroke="#9747FF"/>
<path d="M53.8023 233.49L46.9202 240.957" stroke="#0C0F13"/>
<path d="M54.2865 233.893L47.8133 240.916" stroke="#9747FF"/>
<path d="M222.285 18.7662L216.637 27.1745" stroke="#0C0F13"/>
<path d="M222.825 19.0981L217.512 27.0067" stroke="#9747FF"/>
<path d="M69.8009 245.754L64.1525 254.163" stroke="#0C0F13"/>
<path d="M70.3455 246.075L65.0327 253.983" stroke="#9747FF"/>
<path d="M203.102 8.35034L198.823 17.5066" stroke="#0C0F13"/>
<path d="M203.688 8.57992L199.663 17.192" stroke="#9747FF"/>
<path d="M87.5848 255.526L83.3056 264.682" stroke="#0C0F13"/>
<path d="M88.1747 255.756L84.1497 264.368" stroke="#9747FF"/>
<path d="M180.015 0.228972L177.385 9.96794" stroke="#0C0F13"/>
<path d="M180.634 0.372418L178.16 9.5326" stroke="#9747FF"/>
<path d="M109.002 263.139L106.372 272.878" stroke="#0C0F13"/>
<path d="M109.621 263.279L107.147 272.439" stroke="#9747FF"/>
</svg>
