<svg width="288" height="274" viewBox="0 0 288 274" fill="none" xmlns="http://www.w3.org/2000/svg">
<path fill-rule="evenodd" clip-rule="evenodd" d="M107.709 0.078125L110.317 9.82273L109.83 9.94881L107.222 0.204199L107.709 0.078125ZM7.82172 91.286L17.5403 94.4875L17.3803 94.9572L7.66173 91.7557L7.82172 91.286ZM279.895 180.913L270.176 177.712L270.016 178.181L279.735 181.383L279.895 180.913ZM279.719 181.514L270.578 178.503L270.418 178.973L279.559 181.984L279.719 181.514ZM17.3652 95.0887L8.22417 92.0773L8.06417 92.547L17.2052 95.5584L17.3652 95.0887ZM275.172 157.695L285.282 159.357L285.199 159.847L275.089 158.184L275.172 157.695ZM285.203 159.981L275.694 158.418L275.611 158.907L285.12 160.47L285.203 159.981ZM2.26816 112.82L12.3774 114.482L12.2944 114.972L2.18513 113.309L2.26816 112.82ZM12.3003 115.108L2.79181 113.545L2.70877 114.034L12.2172 115.597L12.3003 115.108ZM276.9 137.821L287.149 137.954L287.142 138.451L276.894 138.317L276.9 137.821ZM287.168 138.586L277.528 138.46L277.522 138.957L287.161 139.082L287.168 138.586ZM0.23005 134.218L10.4788 134.351L10.4724 134.847L0.223633 134.714L0.23005 134.218ZM10.4939 134.982L0.854136 134.857L0.847711 135.353L10.4874 135.479L10.4939 134.982ZM275.519 117.833L285.669 116.429L285.739 116.921L275.59 118.325L275.519 117.833ZM285.785 117.043L276.238 118.363L276.309 118.855L285.855 117.535L285.785 117.043ZM1.51996 155.721L11.6697 154.318L11.7405 154.81L1.59069 156.213L1.51996 155.721ZM11.7857 154.924L2.23912 156.244L2.30984 156.736L11.8565 155.416L11.7857 154.924ZM270.348 96.033L280.106 92.9506L280.261 93.4239L270.503 96.5063L270.348 96.033ZM280.327 93.5367L271.148 96.4357L271.303 96.909L280.482 94.0099L280.327 93.5367ZM6.91626 179.236L16.6746 176.154L16.8297 176.627L7.07136 179.709L6.91626 179.236ZM16.8952 176.74L7.71672 179.639L7.87181 180.112L17.0503 177.213L16.8952 176.74ZM178.134 263.129L180.743 272.874L180.256 273L177.647 263.255L178.134 263.129ZM180.131 273.072L177.678 263.906L177.191 264.032L179.644 273.198L180.131 273.072ZM109.71 10.0075L107.256 0.841955L106.769 0.968023L109.223 10.1336L109.71 10.0075ZM197.898 256.228L202.03 265.45L201.569 265.65L197.437 256.428L197.898 256.228ZM201.456 265.735L197.57 257.061L197.108 257.261L200.995 265.935L201.456 265.735ZM86.3553 7.3005L90.4873 16.5218L90.0257 16.722L85.8936 7.50063L86.3553 7.3005ZM89.9124 16.7931L86.026 8.11971L85.5644 8.31984L89.4508 16.9932L89.9124 16.7931ZM215.745 246.776L221.254 255.273L220.828 255.541L215.319 247.043L215.745 246.776ZM220.732 255.635L215.55 247.643L215.124 247.91L220.306 255.903L220.732 255.635ZM67.0298 17.3815L72.5387 25.8787L72.1128 26.146L66.6038 17.6488L67.0298 17.3815ZM72.0168 26.2466L66.8353 18.2543L66.4093 18.5216L71.5908 26.5139L72.0168 26.2466ZM231.989 234.678L238.751 242.251L238.371 242.58L231.609 235.007L231.989 234.678ZM238.289 242.677L231.929 235.554L231.549 235.883L237.909 243.006L238.289 242.677ZM49.453 30.2468L56.2147 37.8196L55.8346 38.1481L49.0729 30.5754L49.453 30.2468ZM55.7559 38.2512L49.3961 31.1284L49.016 31.4569L55.3758 38.5797L55.7559 38.2512ZM247.679 218.474L255.654 224.804L255.336 225.192L247.361 218.862L247.679 218.474ZM255.269 225.313L247.768 219.359L247.45 219.747L254.951 225.701L255.269 225.313ZM32.3939 47.5973L40.3686 53.9273L40.0507 54.3153L32.0759 47.9852L32.3939 47.5973ZM39.9919 54.4345L32.4911 48.4805L32.1731 48.8684L39.6739 54.8224L39.9919 54.4345ZM247.165 54.1709L255.154 47.8581L255.471 48.245L247.482 54.5578L247.165 54.1709ZM255.579 48.3214L248.065 54.259L248.382 54.6459L255.896 48.7083L255.579 48.3214ZM31.502 224.577L39.4908 218.264L39.8075 218.651L31.8187 224.964L31.502 224.577ZM39.9121 218.733L32.3979 224.671L32.7147 225.058L40.2288 219.12L39.9121 218.733ZM232.72 39.2096L239.602 31.7424L239.976 32.0749L233.094 39.5421L232.72 39.2096ZM240.091 32.1457L233.618 39.1691L233.992 39.5017L240.465 32.4783L240.091 32.1457ZM46.9371 240.792L53.8192 233.324L54.1926 233.657L47.3105 241.124L46.9371 240.792ZM54.3034 233.728L47.8302 240.751L48.2036 241.084L54.6768 234.06L54.3034 233.728ZM216.624 27.043L222.273 18.6347L222.692 18.907L217.043 27.3154L216.624 27.043ZM222.817 18.9549L217.504 26.8635L217.924 27.1359L223.237 19.2273L222.817 18.9549ZM64.1447 254.027L69.7931 245.619L70.2124 245.891L64.564 254.3L64.1447 254.027ZM70.3367 245.937L65.0239 253.846L65.4432 254.118L70.756 246.21L70.3367 245.937ZM198.795 17.4164L203.074 8.26007L203.53 8.46613L199.251 17.6224L198.795 17.4164ZM203.66 8.48769L199.635 17.0998L200.091 17.3059L204.116 8.69376L203.66 8.48769ZM83.2776 264.592L87.5567 255.436L88.0123 255.642L83.7331 264.798L83.2776 264.592ZM88.1466 255.663L84.1217 264.276L84.5772 264.482L88.6022 255.87L88.1466 255.663ZM177.341 9.90121L179.972 0.162244L180.455 0.288933L177.825 10.0279L177.341 9.90121ZM180.591 0.30764L178.116 9.46782L178.6 9.59452L181.074 0.434336L180.591 0.30764ZM106.328 272.815L108.958 263.076L109.442 263.203L106.811 272.942L106.328 272.815ZM109.578 263.214L107.104 272.374L107.587 272.501L110.062 263.341L109.578 263.214Z" fill="black"/>
</svg>
