<svg width="287" height="275" viewBox="0 0 287 275" fill="none" xmlns="http://www.w3.org/2000/svg">
<path d="M279.615 182.147L269.897 178.946" stroke="black" stroke-width="3"/>
<path d="M279.439 182.746L270.298 179.735" stroke="black" stroke-width="3"/>
<path d="M17.261 95.7213L7.54243 92.5198" stroke="black" stroke-width="3"/>
<path d="M17.0859 96.3205L7.94487 93.3091" stroke="black" stroke-width="3"/>
<path d="M285.041 160.601L274.932 158.939" stroke="black" stroke-width="3"/>
<path d="M284.962 161.227L275.454 159.663" stroke="black" stroke-width="3"/>
<path d="M12.1368 115.726L2.02758 114.064" stroke="black" stroke-width="3"/>
<path d="M12.0597 116.352L2.55122 114.788" stroke="black" stroke-width="3"/>
<path d="M286.946 139.202L276.698 139.068" stroke="black" stroke-width="3"/>
<path d="M286.965 139.835L277.326 139.709" stroke="black" stroke-width="3"/>
<path d="M10.2765 135.6L0.0277399 135.467" stroke="black" stroke-width="3"/>
<path d="M10.2916 136.23L0.651824 136.104" stroke="black" stroke-width="3"/>
<path d="M285.505 117.676L275.355 119.08" stroke="black" stroke-width="3"/>
<path d="M285.621 118.29L276.074 119.61" stroke="black" stroke-width="3"/>
<path d="M11.506 155.563L1.35626 156.966" stroke="black" stroke-width="3"/>
<path d="M11.622 156.169L2.07541 157.489" stroke="black" stroke-width="3"/>
<path d="M279.985 94.1862L270.226 97.2685" stroke="black" stroke-width="3"/>
<path d="M280.205 94.7742L271.027 97.6732" stroke="black" stroke-width="3"/>
<path d="M16.5531 177.393L6.79475 180.476" stroke="black" stroke-width="3"/>
<path d="M16.7737 177.977L7.5952 180.876" stroke="black" stroke-width="3"/>
<path d="M180.301 273.937L177.692 264.192" stroke="black" stroke-width="3"/>
<path d="M179.689 274.133L177.236 264.967" stroke="black" stroke-width="3"/>
<path d="M109.875 10.8858L107.266 1.14117" stroke="black" stroke-width="3"/>
<path d="M109.267 11.0705L106.814 1.90499" stroke="black" stroke-width="3"/>
<path d="M201.601 266.552L197.469 257.33" stroke="black" stroke-width="3"/>
<path d="M201.027 266.835L197.141 258.161" stroke="black" stroke-width="3"/>
<path d="M90.0579 17.6219L85.9258 8.40056" stroke="black" stroke-width="3"/>
<path d="M89.483 17.8932L85.5966 9.21977" stroke="black" stroke-width="3"/>
<path d="M220.841 256.407L215.332 247.91" stroke="black" stroke-width="3"/>
<path d="M220.319 256.769L215.138 248.777" stroke="black" stroke-width="3"/>
<path d="M72.1262 27.0124L66.6172 18.5151" stroke="black" stroke-width="3"/>
<path d="M71.6042 27.3822L66.4227 19.3899" stroke="black" stroke-width="3"/>
<path d="M238.362 243.414L231.6 235.841" stroke="black" stroke-width="3"/>
<path d="M237.9 243.839L231.541 236.716" stroke="black" stroke-width="3"/>
<path d="M55.826 38.9839L49.0643 31.4111" stroke="black" stroke-width="3"/>
<path d="M55.3673 39.4135L49.0075 32.2907" stroke="black" stroke-width="3"/>
<path d="M255.296 225.996L247.321 219.666" stroke="black" stroke-width="3"/>
<path d="M254.911 226.505L247.411 220.551" stroke="black" stroke-width="3"/>
<path d="M40.0109 55.1213L32.0361 48.7913" stroke="black" stroke-width="3"/>
<path d="M39.6341 55.6265L32.1333 49.6726" stroke="black" stroke-width="3"/>
<path d="M255.114 49.0525L247.125 55.3653" stroke="black" stroke-width="3"/>
<path d="M255.539 49.5157L248.025 55.4533" stroke="black" stroke-width="3"/>
<path d="M39.4504 219.459L31.4616 225.772" stroke="black" stroke-width="3"/>
<path d="M39.8718 219.926L32.3576 225.863" stroke="black" stroke-width="3"/>
<path d="M239.59 32.9037L232.708 40.3709" stroke="black" stroke-width="3"/>
<path d="M240.079 33.3071L233.606 40.3305" stroke="black" stroke-width="3"/>
<path d="M53.8071 234.486L46.9251 241.953" stroke="black" stroke-width="3"/>
<path d="M54.2913 234.889L47.8182 241.912" stroke="black" stroke-width="3"/>
<path d="M222.282 19.7701L216.634 28.1784" stroke="black" stroke-width="3"/>
<path d="M222.827 20.0903L217.514 27.9989" stroke="black" stroke-width="3"/>
<path d="M69.8028 246.754L64.1545 255.163" stroke="black" stroke-width="3"/>
<path d="M70.3465 247.075L65.0337 254.983" stroke="black" stroke-width="3"/>
<path d="M203.103 9.35816L198.824 18.5144" stroke="black" stroke-width="3"/>
<path d="M203.689 9.58774L199.664 18.1999" stroke="black" stroke-width="3"/>
<path d="M87.5857 256.534L83.3066 265.69" stroke="black" stroke-width="3"/>
<path d="M88.1757 256.764L84.1507 265.376" stroke="black" stroke-width="3"/>
<path d="M180.014 1.22507L177.384 10.964" stroke="black" stroke-width="3"/>
<path d="M180.633 1.36851L178.159 10.5287" stroke="black" stroke-width="3"/>
<path d="M109 264.139L106.37 273.878" stroke="black" stroke-width="3"/>
<path d="M109.62 264.275L107.146 273.435" stroke="black" stroke-width="3"/>
</svg>
