<svg width="287" height="274" viewBox="0 0 287 274" fill="none" xmlns="http://www.w3.org/2000/svg">
<path d="M279.614 181.151L269.895 177.949" stroke="#F20000" stroke-width="0.3"/>
<path d="M279.437 181.75L270.296 178.739" stroke="#007AFF" stroke-width="0.3"/>
<path d="M17.2591 94.7252L7.54047 91.5237" stroke="#F20000" stroke-width="0.3"/>
<path d="M17.0839 95.3244L7.94292 92.3131" stroke="#007AFF" stroke-width="0.3"/>
<path d="M285.039 159.601L274.93 157.939" stroke="#F20000" stroke-width="0.3"/>
<path d="M284.96 160.227L275.452 158.663" stroke="#007AFF" stroke-width="0.3"/>
<path d="M12.1339 114.726L2.02465 113.064" stroke="#F20000" stroke-width="0.3"/>
<path d="M12.0577 115.352L2.54926 113.788" stroke="#007AFF" stroke-width="0.3"/>
<path d="M286.944 138.202L276.696 138.068" stroke="#F20000" stroke-width="0.3"/>
<path d="M286.963 138.835L277.324 138.709" stroke="#007AFF" stroke-width="0.3"/>
<path d="M10.2746 134.6L0.0257858 134.467" stroke="#F20000" stroke-width="0.3"/>
<path d="M10.2896 135.23L0.649869 135.104" stroke="#007AFF" stroke-width="0.3"/>
<path d="M285.503 116.676L275.353 118.08" stroke="#F20000" stroke-width="0.3"/>
<path d="M285.619 117.29L276.072 118.61" stroke="#007AFF" stroke-width="0.3"/>
<path d="M11.5041 154.563L1.3543 155.966" stroke="#F20000" stroke-width="0.3"/>
<path d="M11.6201 155.169L2.07345 156.489" stroke="#007AFF" stroke-width="0.3"/>
<path d="M279.983 93.1823L270.224 96.2646" stroke="#F20000" stroke-width="0.3"/>
<path d="M280.203 93.7702L271.025 96.6693" stroke="#007AFF" stroke-width="0.3"/>
<path d="M16.5511 176.389L6.7928 179.472" stroke="#F20000" stroke-width="0.3"/>
<path d="M16.7717 176.973L7.59325 179.872" stroke="#007AFF" stroke-width="0.3"/>
<path d="M180.301 272.933L177.692 263.188" stroke="#F20000" stroke-width="0.3"/>
<path d="M179.689 273.129L177.236 263.964" stroke="#007AFF" stroke-width="0.3"/>
<path d="M109.875 9.88187L107.266 0.13726" stroke="#F20000" stroke-width="0.3"/>
<path d="M109.267 10.0666L106.814 0.90108" stroke="#007AFF" stroke-width="0.3"/>
<path d="M201.606 265.548L197.474 256.326" stroke="#F20000" stroke-width="0.3"/>
<path d="M201.032 265.831L197.145 257.157" stroke="#007AFF" stroke-width="0.3"/>
<path d="M90.0628 16.6219L85.9307 7.40056" stroke="#F20000" stroke-width="0.3"/>
<path d="M89.4879 16.8932L85.6015 8.21977" stroke="#007AFF" stroke-width="0.3"/>
<path d="M220.851 255.391L215.342 246.894" stroke="#F20000" stroke-width="0.3"/>
<path d="M220.329 255.749L215.147 247.757" stroke="#007AFF" stroke-width="0.3"/>
<path d="M72.1369 25.9929L66.6279 17.4956" stroke="#F20000" stroke-width="0.3"/>
<path d="M71.6149 26.3627L66.4334 18.3703" stroke="#007AFF" stroke-width="0.3"/>
<path d="M238.361 242.414L231.599 234.841" stroke="#F20000" stroke-width="0.3"/>
<path d="M237.899 242.839L231.54 235.716" stroke="#007AFF" stroke-width="0.3"/>
<path d="M55.8251 37.9839L49.0634 30.4111" stroke="#F20000" stroke-width="0.3"/>
<path d="M55.3643 38.4135L49.0045 31.2907" stroke="#007AFF" stroke-width="0.3"/>
<path d="M255.293 224.985L247.318 218.655" stroke="#F20000" stroke-width="0.3"/>
<path d="M254.909 225.494L247.408 219.54" stroke="#007AFF" stroke-width="0.3"/>
<path d="M40.008 54.1096L32.0332 47.7796" stroke="#F20000" stroke-width="0.3"/>
<path d="M39.6312 54.6148L32.1304 48.6608" stroke="#007AFF" stroke-width="0.3"/>
<path d="M255.111 48.0564L247.122 54.3692" stroke="#F20000" stroke-width="0.3"/>
<path d="M255.536 48.5196L248.022 54.4572" stroke="#007AFF" stroke-width="0.3"/>
<path d="M39.4475 218.463L31.4586 224.775" stroke="#F20000" stroke-width="0.3"/>
<path d="M39.8688 218.93L32.3546 224.867" stroke="#007AFF" stroke-width="0.3"/>
<path d="M239.586 31.9154L232.704 39.3827" stroke="#F20000" stroke-width="0.3"/>
<path d="M240.076 32.3227L233.602 39.3461" stroke="#007AFF" stroke-width="0.3"/>
<path d="M53.8032 233.497L46.9212 240.965" stroke="#F20000" stroke-width="0.3"/>
<path d="M54.2874 233.901L47.8143 240.924" stroke="#007AFF" stroke-width="0.3"/>
<path d="M222.281 18.7818L216.633 27.1901" stroke="#F20000" stroke-width="0.3"/>
<path d="M222.826 19.102L217.513 27.0106" stroke="#007AFF" stroke-width="0.3"/>
<path d="M69.8019 245.766L64.1535 254.174" stroke="#F20000" stroke-width="0.3"/>
<path d="M70.3455 246.086L65.0327 253.995" stroke="#007AFF" stroke-width="0.3"/>
<path d="M203.101 8.35425L198.822 17.5105" stroke="#F20000" stroke-width="0.3"/>
<path d="M203.687 8.58383L199.662 17.1959" stroke="#007AFF" stroke-width="0.3"/>
<path d="M87.5838 255.53L83.3047 264.686" stroke="#F20000" stroke-width="0.3"/>
<path d="M88.1737 255.76L84.1488 264.372" stroke="#007AFF" stroke-width="0.3"/>
<path d="M180.007 0.236785L177.377 9.97575" stroke="#F20000" stroke-width="0.3"/>
<path d="M180.626 0.380231L178.152 9.54041" stroke="#007AFF" stroke-width="0.3"/>
<path d="M108.994 263.151L106.363 272.89" stroke="#F20000" stroke-width="0.3"/>
<path d="M109.614 263.286L107.139 272.447" stroke="#007AFF" stroke-width="0.3"/>
</svg>
