<svg width="288" height="274" viewBox="0 0 288 274" fill="none" xmlns="http://www.w3.org/2000/svg">
<path fill-rule="evenodd" clip-rule="evenodd" d="M281.474 118.588L286.09 117.95L286.021 117.454L281.406 118.093C281.429 118.258 281.452 118.423 281.474 118.588ZM281.389 117.969L285.974 117.335L285.905 116.84L281.319 117.474C281.343 117.639 281.366 117.804 281.389 117.969ZM276.373 95.792L280.709 94.4224L280.559 93.9456L276.221 95.3156C276.272 95.4743 276.323 95.6331 276.373 95.792ZM276.183 95.1963L280.489 93.8363L280.338 93.3596L276.029 94.7206C276.081 94.879 276.132 95.0376 276.183 95.1963ZM252.841 51.7227L256.127 49.1256L255.817 48.7333L252.528 51.3324C252.633 51.4623 252.737 51.5924 252.841 51.7227ZM252.448 51.2333L255.702 48.6623L255.392 48.27L252.134 50.8444C252.239 50.9739 252.344 51.1035 252.448 51.2333ZM237.983 35.8362L240.693 32.8961L240.325 32.5572L237.613 35.4996C237.737 35.6116 237.86 35.7238 237.983 35.8362ZM237.515 35.4103L240.204 32.4927L239.836 32.1539L237.144 35.0753C237.268 35.1868 237.391 35.2984 237.515 35.4103ZM221.345 22.808L223.47 19.6454L223.055 19.3666L220.929 22.5313C221.068 22.6233 221.207 22.7155 221.345 22.808ZM220.82 22.4593L222.925 19.3251L222.51 19.0463L220.402 22.1845C220.542 22.2759 220.681 22.3675 220.82 22.4593ZM202.81 12.4039L204.349 9.10926L203.896 8.89756L202.356 12.1942C202.507 12.2638 202.658 12.3337 202.81 12.4039ZM202.24 12.1411L203.763 8.88163L203.31 8.66994L201.785 11.9334C201.937 12.0024 202.089 12.0716 202.24 12.1411ZM180.383 4.26298L181.304 0.853036L180.821 0.722654L179.9 4.13446C180.061 4.17702 180.222 4.21986 180.383 4.26298ZM179.769 4.09994L180.685 0.707633L180.202 0.577258L179.285 3.97365C179.446 4.01547 179.608 4.05756 179.769 4.09994ZM108.891 4.0362L107.942 0.492188L107.459 0.62149L108.408 4.16337C108.569 4.1207 108.73 4.07831 108.891 4.0362ZM108.277 4.19794L107.49 1.25599L107.007 1.38528L107.794 4.32732C107.955 4.28391 108.116 4.24078 108.277 4.19794ZM88.1725 11.2445L86.5914 7.71595L86.1351 7.92041L87.7152 11.4466C87.8675 11.3789 88.0199 11.3116 88.1725 11.2445ZM87.5914 11.5016L86.2622 8.53516L85.8059 8.73962L87.135 11.7058C87.287 11.6375 87.4391 11.5694 87.5914 11.5016ZM69.4976 21.2261L67.2653 17.7831L66.8458 18.0551L69.0764 21.4956C69.2166 21.4055 69.357 21.3157 69.4976 21.2261ZM68.9603 21.5703L67.0708 18.6559L66.6513 18.9279L68.5403 21.8416C68.6801 21.7509 68.8201 21.6605 68.9603 21.5703ZM52.5859 33.9101L49.6824 30.6583L49.3094 30.9913L52.2104 34.2403C52.3354 34.13 52.4605 34.0199 52.5859 33.9101ZM52.1133 34.3261L49.6255 31.5398L49.2525 31.8729L51.7394 34.658C51.8638 34.5472 51.9885 34.4365 52.1133 34.3261ZM36.2572 50.8757L32.6262 47.9935L32.3154 48.3852L35.943 51.2647C36.0475 51.1348 36.1522 51.0051 36.2572 50.8757ZM35.8616 51.3659L32.7234 48.8748L32.4126 49.2664L35.5492 51.7562C35.6531 51.6259 35.7573 51.4958 35.8616 51.3659ZM12.8643 93.2822L8.04926 91.696L7.89282 92.1709L12.7052 93.7562C12.7579 93.5981 12.811 93.4401 12.8643 93.2822ZM12.6654 93.8755L8.45171 92.4874L8.29526 92.9623L12.5085 94.3503C12.5605 94.1919 12.6128 94.0336 12.6654 93.8755ZM7.62908 114.075L2.49578 113.231L2.41465 113.724L7.54654 114.568C7.57376 114.403 7.60127 114.239 7.62908 114.075ZM7.52541 114.696L3.02039 113.955L2.93925 114.448L7.44515 115.189C7.47161 115.025 7.49836 114.86 7.52541 114.696ZM5.72763 134.707L0.459629 134.638L0.453125 135.138L5.7202 135.207C5.72238 135.04 5.72485 134.873 5.72763 134.707ZM5.71855 135.338L1.08371 135.278L1.0772 135.777L5.71339 135.838C5.71481 135.671 5.71653 135.504 5.71855 135.338ZM282.697 138.814C282.699 138.648 282.701 138.481 282.702 138.314L287.378 138.375L287.372 138.875L282.697 138.814ZM282.687 139.445C282.69 139.279 282.693 139.112 282.695 138.945L287.397 139.007L287.391 139.507L282.687 139.445ZM280.866 159.511C280.893 159.346 280.92 159.182 280.946 159.017L285.51 159.768L285.429 160.261L280.866 159.511ZM280.761 160.131C280.789 159.966 280.817 159.802 280.845 159.638L285.431 160.392L285.35 160.885L280.761 160.131ZM275.681 180.387C275.734 180.229 275.786 180.07 275.839 179.912L280.122 181.323L279.966 181.798L275.681 180.387ZM275.481 180.98C275.535 180.822 275.588 180.664 275.641 180.506L279.946 181.925L279.79 182.399L275.481 180.98ZM252.306 222.995C252.41 222.865 252.515 222.735 252.619 222.605L255.886 225.199L255.575 225.59L252.306 222.995ZM251.904 223.49C252.009 223.361 252.114 223.232 252.219 223.102L255.502 225.708L255.191 226.099L251.904 223.49ZM235.958 240.029C236.084 239.919 236.209 239.809 236.333 239.698L238.98 242.663L238.607 242.996L235.958 240.029ZM235.486 240.443C235.611 240.333 235.737 240.223 235.862 240.114L238.518 243.088L238.146 243.421L235.486 240.443ZM219.007 252.769C219.147 252.679 219.288 252.589 219.428 252.499L221.489 255.679L221.07 255.951L219.007 252.769ZM218.473 253.108C218.614 253.019 218.754 252.93 218.895 252.84L220.967 256.037L220.548 256.309L218.473 253.108ZM200.331 262.768C200.484 262.701 200.636 262.634 200.788 262.566L202.266 265.865L201.81 266.069L200.331 262.768ZM199.745 263.025C199.898 262.958 200.051 262.892 200.203 262.825L201.693 266.148L201.236 266.352L199.745 263.025ZM179.579 270.001C179.741 269.959 179.902 269.916 180.063 269.874L180.977 273.288L180.494 273.417L179.579 270.001ZM178.958 270.162C179.119 270.12 179.281 270.079 179.442 270.037L180.365 273.486L179.882 273.615L178.958 270.162ZM108.137 269.816C108.298 269.859 108.46 269.902 108.621 269.944L107.817 272.919L107.334 272.789L108.137 269.816ZM107.525 269.651C107.686 269.695 107.847 269.738 108.008 269.781L107.041 273.361L106.558 273.23L107.525 269.651ZM85.7473 261.712C85.8985 261.782 86.0499 261.852 86.2014 261.921L84.8107 264.897L84.3577 264.685L85.7473 261.712ZM85.1755 261.446C85.3264 261.517 85.4775 261.587 85.6287 261.657L83.9666 265.214L83.5136 265.002L85.1755 261.446ZM67.2201 251.342C67.3588 251.435 67.4978 251.527 67.6369 251.618L65.6767 254.536L65.2616 254.258L67.2201 251.342ZM66.6974 250.993C66.8357 251.086 66.9743 251.178 67.113 251.271L64.7974 254.718L64.3824 254.439L66.6974 250.993ZM50.6222 238.387C50.7454 238.499 50.8689 238.611 50.9925 238.723L48.4316 241.501L48.064 241.163L50.6222 238.387ZM50.1578 237.962C50.2805 238.075 50.4035 238.188 50.5266 238.3L47.5385 241.542L47.1709 241.203L50.1578 237.962ZM35.7875 222.593C35.8917 222.723 35.9962 222.853 36.1009 222.982L32.9461 225.475L32.6361 225.083L35.7875 222.593ZM35.3949 222.101C35.4986 222.232 35.6025 222.362 35.7066 222.492L32.0501 225.381L31.7401 224.989L35.3949 222.101ZM12.1868 178.709C12.2377 178.868 12.2888 179.026 12.3401 179.185L8.09912 180.525L7.94852 180.048L12.1868 178.709ZM11.9976 178.113C12.0477 178.272 12.0981 178.431 12.1487 178.59L7.29867 180.122L7.14807 179.645L11.9976 178.113ZM7.02005 156.027C7.04304 156.192 7.06633 156.357 7.08991 156.522L2.54414 157.151L2.47566 156.655L7.02005 156.027ZM6.93639 155.416C6.95864 155.581 6.98118 155.746 7.00401 155.911L1.825 156.628L1.75651 156.132L6.93639 155.416Z" fill="url(#paint0_linear_126_30872)"/>
<defs>
<linearGradient id="paint0_linear_126_30872" x1="146.067" y1="0.492183" x2="146.067" y2="273.615" gradientUnits="userSpaceOnUse">
<stop stop-color="#ECC271"/>
<stop offset="1" stop-color="#7F642E"/>
</linearGradient>
</defs>
</svg>
