<svg width="288" height="274" viewBox="0 0 288 274" fill="none" xmlns="http://www.w3.org/2000/svg">
<path fill-rule="evenodd" clip-rule="evenodd" d="M281.464 118.584L286.08 117.946L286.011 117.451L281.396 118.089C281.419 118.254 281.441 118.419 281.464 118.584ZM281.379 117.966L285.964 117.332L285.895 116.836L281.309 117.47C281.332 117.635 281.356 117.8 281.379 117.966ZM276.363 95.7881L280.699 94.4184L280.548 93.9417L276.211 95.3117C276.262 95.4703 276.312 95.6292 276.363 95.7881ZM276.173 95.1924L280.478 93.8324L280.328 93.3556L276.019 94.7167C276.071 94.8751 276.122 95.0337 276.173 95.1924ZM252.83 51.7187L256.117 49.1217L255.807 48.7294L252.518 51.3284C252.622 51.4584 252.726 51.5885 252.83 51.7187ZM252.438 51.2294L255.692 48.6584L255.382 48.2661L252.124 50.8405C252.229 50.97 252.334 51.0996 252.438 51.2294ZM237.973 35.8323L240.683 32.8922L240.315 32.5533L237.603 35.4957C237.727 35.6077 237.85 35.7199 237.973 35.8323ZM237.505 35.4064L240.194 32.4888L239.826 32.15L237.133 35.0714C237.257 35.1829 237.381 35.2945 237.505 35.4064ZM221.335 22.8041L223.46 19.6415L223.045 19.3626L220.919 22.5274C221.058 22.6194 221.196 22.7116 221.335 22.8041ZM220.81 22.4554L222.915 19.3212L222.5 19.0424L220.392 22.1806C220.531 22.2719 220.671 22.3635 220.81 22.4554ZM202.799 12.4L204.339 9.10536L203.886 8.89366L202.345 12.1903C202.497 12.2599 202.648 12.3298 202.799 12.4ZM202.23 12.1372L203.753 8.87773L203.3 8.66603L201.775 11.9295C201.927 11.9985 202.078 12.0677 202.23 12.1372ZM180.373 4.25907L181.294 0.84913L180.811 0.718748L179.889 4.13055C180.051 4.17311 180.212 4.21595 180.373 4.25907ZM179.758 4.09604L180.675 0.703727L180.192 0.573352L179.275 3.96974C179.436 4.01156 179.597 4.05366 179.758 4.09604ZM108.881 4.0323L107.932 0.488281L107.449 0.617583L108.397 4.15946C108.558 4.11679 108.72 4.0744 108.881 4.0323ZM108.267 4.19403L107.48 1.25208L106.997 1.38138L107.784 4.32341C107.945 4.28 108.106 4.23688 108.267 4.19403ZM88.1623 11.2406L86.5811 7.71205L86.1249 7.91651L87.7049 11.4427C87.8572 11.375 88.0097 11.3077 88.1623 11.2406ZM87.5811 11.4977L86.2519 8.53126L85.7956 8.73571L87.1247 11.7019C87.2767 11.6336 87.4289 11.5655 87.5811 11.4977ZM69.4873 21.2222L67.2551 17.7792L66.8355 18.0512L69.0661 21.4917C69.2063 21.4016 69.3467 21.3118 69.4873 21.2222ZM68.95 21.5664L67.0606 18.652L66.6411 18.924L68.5301 21.8377C68.6699 21.747 68.8099 21.6566 68.95 21.5664ZM52.5756 33.9061L49.6721 30.6544L49.2992 30.9874L52.2002 34.2364C52.3251 34.1261 52.4503 34.016 52.5756 33.9061ZM52.1031 34.3222L49.6153 31.5359L49.2423 31.8689L51.7291 34.6541C51.8536 34.5433 51.9782 34.4326 52.1031 34.3222ZM36.247 50.8718L32.616 47.9896L32.3051 48.3813L35.9328 51.2607C36.0373 51.1309 36.142 51.0012 36.247 50.8718ZM35.8514 51.362L32.7132 48.8709L32.4023 49.2625L35.539 51.7523C35.6429 51.622 35.747 51.4919 35.8514 51.362ZM12.8541 93.2783L8.03901 91.6921L7.88257 92.167L12.6949 93.7523C12.7477 93.5942 12.8007 93.4362 12.8541 93.2783ZM12.6552 93.8716L8.44146 92.4835L8.28501 92.9584L12.4982 94.3463C12.5503 94.188 12.6026 94.0297 12.6552 93.8716ZM7.61882 114.071L2.48553 113.227L2.4044 113.72L7.53629 114.564C7.56351 114.399 7.59102 114.235 7.61882 114.071ZM7.51515 114.692L3.01014 113.951L2.929 114.445L7.4349 115.186C7.46136 115.021 7.48811 114.856 7.51515 114.692ZM5.71737 134.703L0.449375 134.634L0.442871 135.134L5.70995 135.203C5.71212 135.036 5.7146 134.869 5.71737 134.703ZM5.7083 135.334L1.07346 135.274L1.06695 135.774L5.70314 135.834C5.70456 135.667 5.70628 135.501 5.7083 135.334ZM282.687 138.81C282.689 138.644 282.691 138.477 282.692 138.31L287.368 138.371L287.362 138.871L282.687 138.81ZM282.677 139.441C282.68 139.275 282.683 139.108 282.685 138.941L287.387 139.003L287.381 139.503L282.677 139.441ZM280.855 159.507C280.883 159.343 280.91 159.178 280.936 159.014L285.5 159.764L285.419 160.257L280.855 159.507ZM280.751 160.127C280.779 159.962 280.807 159.798 280.834 159.634L285.421 160.388L285.34 160.881L280.751 160.127ZM275.671 180.383C275.723 180.225 275.776 180.067 275.828 179.908L280.112 181.319L279.956 181.794L275.671 180.383ZM275.471 180.976C275.524 180.818 275.578 180.66 275.631 180.502L279.936 181.921L279.78 182.396L275.471 180.976ZM252.295 222.991C252.4 222.861 252.505 222.732 252.609 222.601L255.876 225.195L255.565 225.586L252.295 222.991ZM251.893 223.486C251.999 223.357 252.104 223.228 252.209 223.098L255.491 225.704L255.18 226.095L251.893 223.486ZM235.948 240.025C236.073 239.915 236.198 239.805 236.323 239.695L238.97 242.659L238.597 242.992L235.948 240.025ZM235.475 240.439C235.601 240.329 235.727 240.22 235.852 240.11L238.508 243.085L238.135 243.418L235.475 240.439ZM218.997 252.765C219.137 252.675 219.277 252.586 219.418 252.495L221.479 255.675L221.059 255.947L218.997 252.765ZM218.462 253.104C218.603 253.015 218.744 252.926 218.885 252.837L220.957 256.033L220.537 256.305L218.462 253.104ZM200.321 262.765C200.473 262.697 200.626 262.63 200.778 262.562L202.256 265.861L201.8 266.066L200.321 262.765ZM199.735 263.021C199.888 262.954 200.041 262.888 200.193 262.821L201.682 266.144L201.226 266.349L199.735 263.021ZM179.569 269.997C179.73 269.955 179.892 269.912 180.053 269.87L180.967 273.284L180.484 273.413L179.569 269.997ZM178.948 270.158C179.109 270.117 179.27 270.075 179.432 270.033L180.355 273.482L179.872 273.611L178.948 270.158ZM108.127 269.812C108.288 269.855 108.449 269.898 108.61 269.94L107.807 272.916L107.324 272.785L108.127 269.812ZM107.515 269.647C107.675 269.691 107.836 269.734 107.997 269.777L107.031 273.357L106.548 273.226L107.515 269.647ZM85.737 261.708C85.8883 261.778 86.0396 261.848 86.1912 261.918L84.8005 264.893L84.3475 264.682L85.737 261.708ZM85.1653 261.442C85.3162 261.513 85.4672 261.583 85.6184 261.653L83.9564 265.21L83.5034 264.998L85.1653 261.442ZM67.2098 251.338C67.3486 251.431 67.4875 251.523 67.6267 251.614L65.6664 254.532L65.2514 254.254L67.2098 251.338ZM66.6871 250.989C66.8255 251.082 66.964 251.175 67.1027 251.267L64.7872 254.714L64.3721 254.435L66.6871 250.989ZM50.6119 238.383C50.7352 238.495 50.8586 238.607 50.9823 238.719L48.4214 241.498L48.0537 241.159L50.6119 238.383ZM50.1476 237.958C50.2703 238.071 50.3932 238.184 50.5164 238.296L47.5283 241.538L47.1606 241.199L50.1476 237.958ZM35.7772 222.589C35.8815 222.719 35.986 222.849 36.0907 222.978L32.9358 225.471L32.6258 225.079L35.7772 222.589ZM35.3847 222.097C35.4884 222.228 35.5923 222.358 35.6964 222.488L32.0398 225.378L31.7298 224.985L35.3847 222.097ZM12.1766 178.705C12.2274 178.864 12.2785 179.023 12.3299 179.181L8.08886 180.521L7.93827 180.044L12.1766 178.705ZM11.9874 178.109C12.0375 178.268 12.0878 178.427 12.1385 178.586L7.28841 180.118L7.13781 179.641L11.9874 178.109ZM7.00979 156.023C7.03278 156.188 7.05607 156.353 7.07965 156.518L2.53389 157.147L2.46541 156.651L7.00979 156.023ZM6.92614 155.412C6.94838 155.577 6.97092 155.742 6.99376 155.908L1.81474 156.624L1.74625 156.128L6.92614 155.412Z" fill="white"/>
</svg>
