<svg width="287" height="275" viewBox="0 0 287 275" fill="none" xmlns="http://www.w3.org/2000/svg">
<path fill-rule="evenodd" clip-rule="evenodd" d="M108.24 0.878906L110.849 10.6235L110.234 10.7826L110.241 10.8083L108.293 11.3125L105.84 2.14699L106.454 1.98793L106.292 1.3832L108.24 0.878906ZM7.86019 91.5781L17.5788 94.7796L17.377 95.372L17.4036 95.3808L16.7636 97.2596L7.62265 94.2482L7.8244 93.6559L7.22021 93.4569L7.86019 91.5781ZM279.933 181.205L270.215 178.004L269.575 179.883L270.178 180.081L269.976 180.674L279.117 183.685L279.757 181.807L279.731 181.798L279.933 181.205ZM275.096 157.958L285.205 159.62L285.1 160.24L285.126 160.244L284.794 162.201L275.285 160.637L275.39 160.018L274.764 159.914L275.096 157.958ZM2.19044 113.083L12.2997 114.745L12.1943 115.366L12.2235 115.371L11.8914 117.328L2.3829 115.764L2.48832 115.143L1.85831 115.039L2.19044 113.083ZM276.708 138.073L286.957 138.206L286.949 138.838L286.976 138.838L286.95 140.823L277.311 140.698L277.319 140.067L276.683 140.059L276.708 138.073ZM0.0383668 134.47L10.2871 134.603L10.279 135.234L10.3022 135.234L10.2765 137.22L0.636763 137.094L0.644932 136.463L0.0126953 136.455L0.0383668 134.47ZM275.212 118.091L285.361 116.688L285.45 117.306L285.477 117.302L285.76 119.27L276.214 120.59L276.125 119.972L275.495 120.059L275.212 118.091ZM1.21259 155.98L11.3624 154.576L11.4501 155.187L11.4784 155.183L11.7613 157.151L2.21464 158.471L2.12691 157.861L1.4955 157.948L1.21259 155.98ZM269.914 96.3177L279.672 93.2353L279.867 93.8295L279.893 93.8214L280.513 95.7145L271.335 98.6136L271.14 98.0195L270.534 98.2109L269.914 96.3177ZM6.48234 179.521L16.2407 176.438L16.4354 177.033L16.4613 177.024L17.0816 178.918L7.90315 181.817L7.70848 181.223L7.10272 181.414L6.48234 179.521ZM178.666 263.93L181.275 273.674L180.653 273.835L180.663 273.873L178.715 274.377L176.261 265.211L176.883 265.051L176.718 264.434L178.666 263.93ZM198.397 256.922L202.529 266.143L201.942 266.398L201.955 266.426L200.108 267.227L196.222 258.553L196.809 258.299L196.55 257.722L198.397 256.922ZM86.8537 7.99409L90.9858 17.2154L90.4026 17.4682L90.4109 17.4867L88.5644 18.2872L84.678 9.61382L85.2611 9.36105L85.0072 8.79462L86.8537 7.99409ZM216.194 247.357L221.702 255.854L221.166 256.191L221.181 256.213L219.477 257.282L214.295 249.289L214.831 248.953L214.49 248.426L216.194 247.357ZM67.4797 17.9587L72.9886 26.456L72.4472 26.7957L72.4667 26.8258L70.7627 27.895L65.5812 19.9026L66.1226 19.563L65.7757 19.0279L67.4797 17.9587ZM232.359 235.181L239.121 242.754L238.646 243.165L238.659 243.18L237.139 244.494L230.779 237.371L231.254 236.961L230.839 236.496L232.359 235.181ZM49.8233 30.7498L56.585 38.3225L56.1075 38.7353L56.1242 38.7541L54.604 40.0683L48.2442 32.9455L48.7216 32.5328L48.303 32.064L49.8233 30.7498ZM247.955 218.876L255.93 225.206L255.526 225.7L255.545 225.715L254.274 227.267L246.773 221.313L247.177 220.82L246.683 220.428L247.955 218.876ZM32.6699 48.0014L40.6447 54.3314L40.2454 54.8187L40.2679 54.8366L38.9963 56.3883L31.4955 50.4344L31.8947 49.9472L31.3983 49.5531L32.6699 48.0014ZM246.488 54.5892L254.477 48.2764L254.874 48.7617L254.902 48.7396L256.169 50.2872L248.655 56.2248L248.258 55.7396L247.755 56.1368L246.488 54.5892ZM30.825 224.995L38.8138 218.683L39.2125 219.17L39.2352 219.152L40.502 220.699L32.9878 226.637L32.5892 226.15L32.0918 226.543L30.825 224.995ZM231.957 39.7134L238.839 32.2462L239.313 32.6681L239.328 32.6515L240.822 33.9815L234.349 41.0049L233.875 40.5831L233.451 41.0434L231.957 39.7134ZM46.1741 241.295L53.0561 233.828L53.5263 234.247L53.5403 234.232L55.034 235.562L48.5608 242.585L48.0908 242.166L47.6678 242.625L46.1741 241.295ZM215.795 27.6411L221.443 19.2328L221.972 19.5764L221.988 19.553L223.665 20.6425L218.353 28.5511L217.824 28.2076L217.472 28.7306L215.795 27.6411ZM63.3156 254.626L68.9639 246.217L69.4913 246.56L69.5076 246.535L71.1849 247.625L65.872 255.533L65.3448 255.191L64.9928 255.715L63.3156 254.626ZM197.911 18.0942L202.19 8.93787L202.762 9.19675L202.776 9.16743L204.598 9.99172L200.573 18.6038L200.001 18.345L199.733 18.9184L197.911 18.0942ZM82.3933 265.272L86.6724 256.116L87.2472 256.376L87.2623 256.343L89.0846 257.167L85.0596 265.78L84.485 265.52L84.2155 266.096L82.3933 265.272ZM176.41 10.7176L179.04 0.978654L179.655 1.13968L179.659 1.12404L181.594 1.63082L179.12 10.791L178.505 10.63L178.345 11.2244L176.41 10.7176ZM105.396 273.632L108.027 263.893L108.64 264.053L108.647 264.03L110.581 264.537L108.107 273.697L107.494 273.537L107.331 274.138L105.396 273.632Z" fill="#007AFF"/>
</svg>
