<svg width="287" height="274" viewBox="0 0 287 274" fill="none" xmlns="http://www.w3.org/2000/svg">
<path fill-rule="evenodd" clip-rule="evenodd" d="M107.748 0.0117188L110.357 9.75632L109.742 9.91542L109.749 9.94107L108.775 10.1932L106.322 1.02766L106.936 0.868597L106.774 0.263867L107.748 0.0117188ZM7.70012 91.0469L17.4187 94.2484L17.2169 94.8408L17.2436 94.8496L16.9236 95.789L7.78258 92.7776L7.98434 92.1853L7.38014 91.9863L7.70012 91.0469ZM279.773 180.674L270.055 177.473L269.735 178.412L270.338 178.611L270.136 179.203L279.277 182.215L279.597 181.275L279.571 181.267L279.773 180.674ZM275.013 157.446L285.122 159.109L285.017 159.728L285.043 159.732L284.877 160.711L275.368 159.147L275.473 158.528L274.847 158.424L275.013 157.446ZM2.10734 112.571L12.2166 114.234L12.1112 114.855L12.1404 114.859L11.9743 115.838L2.46587 114.274L2.57129 113.653L1.94127 113.549L2.10734 112.571ZM276.699 137.578L286.948 137.712L286.939 138.343L286.967 138.343L286.954 139.336L277.314 139.21L277.322 138.579L276.686 138.571L276.699 137.578ZM0.0289504 133.975L10.2777 134.108L10.2696 134.739L10.2928 134.74L10.2799 135.732L0.640191 135.607L0.648359 134.976L0.0161133 134.968L0.0289504 133.975ZM275.282 117.582L285.432 116.179L285.521 116.797L285.548 116.793L285.689 117.777L276.143 119.097L276.054 118.479L275.424 118.566L275.282 117.582ZM1.28325 155.471L11.433 154.068L11.5208 154.678L11.549 154.674L11.6905 155.658L2.14385 156.978L2.05612 156.368L1.42471 156.455L1.28325 155.471ZM270.069 95.7901L279.827 92.7077L280.022 93.3019L280.048 93.2938L280.358 94.2404L271.18 97.1394L270.985 96.5454L270.379 96.7367L270.069 95.7901ZM6.63736 178.993L16.3957 175.911L16.5904 176.505L16.6163 176.497L16.9265 177.443L7.748 180.343L7.55333 179.748L6.94755 179.94L6.63736 178.993ZM178.174 263.062L180.783 272.807L180.161 272.968L180.171 273.006L179.197 273.258L176.743 264.092L177.365 263.931L177.2 263.315L178.174 263.062ZM197.927 256.131L202.059 265.352L201.472 265.606L201.485 265.635L200.562 266.035L196.675 257.362L197.262 257.108L197.004 256.531L197.927 256.131ZM86.384 7.20299L90.5161 16.4243L89.9329 16.6772L89.9412 16.6956L89.0179 17.0959L85.1315 8.42246L85.7146 8.1697L85.4607 7.60326L86.384 7.20299ZM215.764 246.633L221.273 255.13L220.737 255.467L220.751 255.489L219.899 256.023L214.718 248.031L215.254 247.695L214.912 247.168L215.764 246.633ZM67.0504 17.2348L72.5594 25.732L72.0179 26.0718L72.0374 26.1019L71.1855 26.6365L66.004 18.6441L66.5453 18.3044L66.1985 17.7694L67.0504 17.2348ZM231.975 234.525L238.737 242.097L238.261 242.509L238.274 242.523L237.514 243.18L231.154 236.057L231.63 235.646L231.215 235.182L231.975 234.525ZM49.438 30.0929L56.1997 37.6657L55.7233 38.0775L55.7409 38.0973L54.9808 38.7544L48.621 31.6316L49.0973 31.2198L48.6779 30.75L49.438 30.0929ZM247.638 218.259L255.613 224.589L255.208 225.083L255.228 225.099L254.592 225.874L247.091 219.92L247.496 219.427L247.002 219.035L247.638 218.259ZM32.3527 47.3844L40.3275 53.7144L39.9281 54.2017L39.9507 54.2196L39.3149 54.9955L31.8141 49.0415L32.2133 48.5544L31.7169 48.1603L32.3527 47.3844ZM246.804 53.9743L254.793 47.6614L255.19 48.1468L255.218 48.1247L255.852 48.8985L248.337 54.8361L247.94 54.3508L247.438 54.748L246.804 53.9743ZM31.1411 224.381L39.1299 218.068L39.5286 218.555L39.5513 218.537L40.1847 219.311L32.6705 225.248L32.2719 224.761L31.7745 225.154L31.1411 224.381ZM232.328 39.0402L239.21 31.5729L239.683 31.9939L239.699 31.9763L240.446 32.6413L233.973 39.6647L233.5 39.2438L233.075 39.7052L232.328 39.0402ZM46.545 240.622L53.427 233.155L53.8972 233.574L53.9112 233.558L54.6581 234.223L48.1849 241.247L47.7149 240.828L47.2918 241.287L46.545 240.622ZM216.217 26.9019L221.865 18.4936L222.395 18.8379L222.405 18.8235L223.243 19.3683L217.931 27.2769L217.401 26.9326L217.055 27.4466L216.217 26.9019ZM63.7323 253.888L69.3807 245.48L69.9106 245.824L69.9254 245.802L70.764 246.347L65.4512 254.255L64.9214 253.911L64.571 254.433L63.7323 253.888ZM198.366 17.2984L202.645 8.14209L203.217 8.40063L203.231 8.36971L204.142 8.78185L200.117 17.394L199.546 17.1355L199.277 17.7105L198.366 17.2984ZM82.8483 264.474L87.1274 255.318L87.7022 255.578L87.7173 255.546L88.6284 255.958L84.6035 264.57L84.0288 264.31L83.7594 264.886L82.8483 264.474ZM176.899 9.83711L179.53 0.0981416L180.144 0.259165L180.149 0.243535L181.116 0.496927L178.642 9.65711L178.027 9.49611L177.867 10.0905L176.899 9.83711ZM105.886 272.751L108.517 263.012L109.13 263.173L109.136 263.15L110.103 263.403L107.629 272.563L107.016 272.403L106.854 273.005L105.886 272.751Z" fill="white"/>
</svg>
