<svg width="287" height="276" viewBox="0 0 287 276" fill="none" xmlns="http://www.w3.org/2000/svg">
<path fill-rule="evenodd" clip-rule="evenodd" d="M108.7 4.53754L107.503 0.03125L107.02 0.159614L108.216 4.66461C108.377 4.62197 108.539 4.57961 108.7 4.53754ZM179.05 4.73517C178.889 4.6922 178.728 4.64951 178.567 4.60711L179.767 0.129208L180.25 0.258638L179.05 4.73517ZM179.664 4.90048C179.503 4.85676 179.342 4.81333 179.181 4.77018L180.385 0.275455L180.868 0.404891L179.664 4.90048ZM201.319 12.8061C201.167 12.736 201.016 12.6661 200.865 12.5964L202.869 8.27346L203.323 8.4838L201.319 12.8061ZM201.887 13.0715C201.736 13.0006 201.585 12.93 201.434 12.8597L203.455 8.5009L203.909 8.71125L201.887 13.0715ZM219.742 23.151C219.603 23.0585 219.464 22.9662 219.325 22.8742L222.075 18.7491L222.491 19.0264L219.742 23.151ZM220.266 23.5028C220.128 23.4096 219.99 23.3167 219.851 23.224L222.619 19.0719L223.035 19.3492L220.266 23.5028ZM236.275 36.1096C236.152 35.9971 236.029 35.8849 235.905 35.7728L239.4 31.9517L239.769 32.2892L236.275 36.1096ZM236.744 36.5403C236.621 36.4273 236.498 36.3144 236.376 36.2018L239.889 32.3602L240.258 32.6976L236.744 36.5403ZM251.057 51.9265C250.953 51.7962 250.849 51.6661 250.745 51.5361L254.949 48.1883L255.26 48.5795L251.057 51.9265ZM251.449 52.42C251.346 52.2892 251.242 52.1586 251.138 52.0282L255.374 48.6552L255.685 49.0464L251.449 52.42ZM274.554 95.8648C274.503 95.7059 274.452 95.5472 274.401 95.3886L279.908 93.635L280.06 94.1115L274.554 95.8648ZM274.742 96.4627C274.693 96.3036 274.642 96.1447 274.592 95.9858L280.128 94.2237L280.279 94.7001L274.742 96.4627ZM279.7 118.607C279.677 118.441 279.654 118.276 279.63 118.111L285.47 117.297L285.539 117.793L279.7 118.607ZM279.784 119.23C279.762 119.065 279.74 118.9 279.717 118.734L285.587 117.917L285.656 118.412L279.784 119.23ZM280.989 139.403C280.991 139.237 280.993 139.07 280.994 138.903L286.946 138.981L286.939 139.481L280.989 139.403ZM280.979 140.039C280.982 139.873 280.985 139.706 280.987 139.539L286.965 139.618L286.958 140.118L280.979 140.039ZM279.171 160.079C279.198 159.915 279.225 159.75 279.251 159.586L285.08 160.552L284.998 161.045L279.171 160.079ZM279.067 160.706C279.094 160.541 279.122 160.377 279.149 160.212L285.002 161.182L284.92 161.676L279.067 160.706ZM274.03 180.939C274.082 180.78 274.134 180.622 274.186 180.464L279.692 182.292L279.535 182.766L274.03 180.939ZM273.83 181.536C273.883 181.379 273.936 181.221 273.988 181.062L279.516 182.898L279.359 183.372L273.83 181.536ZM250.877 223.49C250.981 223.36 251.085 223.23 251.189 223.099L255.456 226.513L255.144 226.903L250.877 223.49ZM250.475 223.989C250.58 223.86 250.685 223.73 250.789 223.6L255.071 227.026L254.759 227.416L250.475 223.989ZM234.686 240.513C234.81 240.402 234.935 240.291 235.059 240.18L238.544 244.114L238.17 244.445L234.686 240.513ZM234.213 240.93C234.338 240.82 234.463 240.71 234.588 240.599L238.081 244.543L237.707 244.874L234.213 240.93ZM217.906 253.244C218.046 253.154 218.186 253.063 218.326 252.972L221.06 257.222L220.639 257.493L217.906 253.244ZM217.371 253.587C217.512 253.497 217.652 253.408 217.792 253.317L220.538 257.585L220.117 257.855L217.371 253.587ZM199.406 263.255C199.558 263.187 199.71 263.119 199.862 263.05L201.831 267.478L201.374 267.681L199.406 263.255ZM198.82 263.514C198.972 263.447 199.125 263.38 199.277 263.312L201.256 267.763L200.799 267.966L198.82 263.514ZM178.839 270.512C179 270.469 179.161 270.426 179.322 270.383L180.538 274.962L180.055 275.09L178.839 270.512ZM178.216 270.676C178.377 270.634 178.538 270.591 178.699 270.549L179.926 275.166L179.442 275.294L178.216 270.676ZM107.973 270.462C108.134 270.505 108.295 270.547 108.456 270.59L107.381 274.601L106.899 274.471L107.973 270.462ZM107.361 270.297C107.522 270.341 107.682 270.384 107.844 270.427L106.605 275.047L106.122 274.918L107.361 270.297ZM85.7213 262.403C85.8725 262.473 86.0238 262.543 86.1753 262.612L84.3693 266.507L83.9157 266.297L85.7213 262.403ZM85.149 262.136C85.2998 262.207 85.4508 262.277 85.602 262.348L83.5262 266.824L83.0726 266.614L85.149 262.136ZM67.3092 252.073C67.4479 252.166 67.5867 252.258 67.7257 252.35L65.2405 256.078L64.8245 255.801L67.3092 252.073ZM66.7865 251.723C66.9247 251.816 67.0631 251.909 67.2017 252.002L64.3611 256.263L63.9451 255.986L66.7865 251.723ZM50.7893 239.139C50.9124 239.252 51.0356 239.364 51.1591 239.476L47.9954 242.935L47.6264 242.598L50.7893 239.139ZM50.3244 238.713C50.447 238.826 50.5697 238.938 50.6927 239.051L47.1014 242.978L46.7324 242.641L50.3244 238.713ZM36.0099 223.348C36.1139 223.478 36.2181 223.608 36.3226 223.738L32.5031 226.78L32.1916 226.388L36.0099 223.348ZM35.6154 222.852C35.7188 222.982 35.8225 223.113 35.9264 223.243L31.6071 226.683L31.2956 226.292L35.6154 222.852ZM12.4779 179.423C12.5286 179.582 12.5795 179.74 12.6307 179.899L7.66804 181.479L7.51637 181.002L12.4779 179.423ZM12.288 178.823C12.338 178.982 12.3882 179.141 12.4387 179.3L6.86856 181.073L6.71689 180.596L12.288 178.823ZM7.31542 156.689C7.33836 156.855 7.3616 157.02 7.38513 157.185L2.10888 157.92L2.03987 157.425L7.31542 156.689ZM7.2313 156.074C7.25349 156.239 7.27598 156.404 7.29876 156.569L1.38874 157.393L1.31972 156.897L7.2313 156.074ZM6.01023 135.93C6.00825 136.097 6.00657 136.263 6.00519 136.43L0.641648 136.36L0.64821 135.86L6.01023 135.93ZM6.01922 135.294C6.01649 135.46 6.01405 135.627 6.01191 135.794L0.0195312 135.715L0.0260863 135.215L6.01922 135.294ZM7.80738 115.247C7.7805 115.411 7.75391 115.576 7.72762 115.741L2.50638 114.875L2.58813 114.382L7.80738 115.247ZM7.91121 114.621C7.88357 114.785 7.85622 114.95 7.82917 115.114L1.98177 114.145L2.06352 113.652L7.91121 114.621ZM12.9259 94.3888C12.8736 94.547 12.8215 94.7054 12.7698 94.8638L7.86213 93.2344L8.01968 92.7599L12.9259 94.3888ZM13.1257 93.7892C13.0727 93.9472 13.0199 94.1053 12.9674 94.2635L7.45967 92.4349L7.61721 91.9604L13.1257 93.7892ZM36.0399 51.8055C35.9359 51.9356 35.832 52.066 35.7284 52.1966L31.9805 49.1982L32.2928 48.8078L36.0399 51.8055ZM36.4372 51.3108C36.3326 51.4405 36.2281 51.5704 36.1239 51.7005L31.8835 48.3082L32.1958 47.9178L36.4372 51.3108ZM52.2223 34.7607C52.0977 34.8714 51.9733 34.9823 51.8491 35.0934L48.8131 31.6666L49.1874 31.335L52.2223 34.7607ZM52.6956 34.3422C52.5705 34.4523 52.4456 34.5627 52.3209 34.6732L48.87 30.7782L49.2442 30.4466L52.6956 34.3422ZM68.998 22.0091C68.858 22.0996 68.7181 22.1902 68.5785 22.2812L66.22 18.6148L66.6405 18.3443L68.998 22.0091ZM69.5367 21.663C69.3962 21.7527 69.256 21.8428 69.1159 21.933L66.4155 17.7352L66.836 17.4647L69.5367 21.663ZM87.5307 11.9648C87.3785 12.0327 87.2264 12.1009 87.0744 12.1693L85.3688 8.333L85.8257 8.12988L87.5307 11.9648ZM88.1116 11.7072C87.9591 11.7744 87.8067 11.8419 87.6545 11.9096L85.698 7.50935L86.1549 7.30621L88.1116 11.7072ZM107.603 4.82857L106.567 0.929423L107.05 0.801066L108.086 4.69925C107.925 4.74207 107.764 4.78518 107.603 4.82857Z" fill="#007AFF"/>
</svg>
