<svg width="288" height="274" viewBox="0 0 288 274" fill="none" xmlns="http://www.w3.org/2000/svg">
<path fill-rule="evenodd" clip-rule="evenodd" d="M108.271 0.00390625L110.88 9.74851L110.265 9.90761L110.272 9.93326L109.298 10.1854L106.845 1.01985L107.459 0.860785L107.297 0.256054L108.271 0.00390625ZM8.21721 91.0467L17.9358 94.2482L17.734 94.8406L17.7607 94.8494L17.4407 95.7888L8.29967 92.7774L8.50143 92.1851L7.89723 91.9861L8.21721 91.0467ZM280.29 180.674L270.572 177.472L270.252 178.412L270.855 178.611L270.653 179.203L279.794 182.215L280.114 181.275L280.088 181.267L280.29 180.674ZM275.53 157.446L285.639 159.108L285.534 159.728L285.56 159.732L285.394 160.711L275.885 159.147L275.99 158.527L275.364 158.424L275.53 157.446ZM2.62443 112.571L12.7337 114.233L12.6282 114.854L12.6575 114.859L12.4914 115.837L2.98296 114.274L3.08838 113.653L2.45836 113.549L2.62443 112.571ZM277.219 137.568L287.468 137.702L287.46 138.333L287.487 138.333L287.474 139.326L277.834 139.201L277.842 138.569L277.206 138.561L277.219 137.568ZM0.54897 133.965L10.7978 134.098L10.7896 134.729L10.8128 134.73L10.7999 135.723L1.16021 135.597L1.16838 134.966L0.536133 134.958L0.54897 133.965ZM275.799 117.582L285.949 116.179L286.038 116.797L286.065 116.793L286.207 117.777L276.66 119.097L276.571 118.479L275.941 118.566L275.799 117.582ZM1.80034 155.471L11.9501 154.067L12.0379 154.678L12.0661 154.674L12.2076 155.658L2.66094 156.978L2.57321 156.368L1.9418 156.455L1.80034 155.471ZM270.586 95.7899L280.344 92.7076L280.539 93.3018L280.565 93.2936L280.875 94.2402L271.697 97.1392L271.502 96.5452L270.896 96.7365L270.586 95.7899ZM7.15445 178.993L16.9128 175.911L17.1075 176.505L17.1334 176.497L17.4436 177.443L8.26509 180.342L8.07042 179.748L7.46464 179.94L7.15445 178.993ZM178.697 263.055L181.306 272.799L180.684 272.96L180.694 272.998L179.72 273.25L177.266 264.084L177.888 263.923L177.723 263.307L178.697 263.055ZM198.453 256.121L202.585 265.342L201.998 265.597L202.011 265.625L201.088 266.025L197.202 257.352L197.788 257.098L197.53 256.521L198.453 256.121ZM86.9101 7.19314L91.0422 16.4145L90.459 16.6673L90.4673 16.6858L89.544 17.086L85.6576 8.41263L86.2407 8.15987L85.9869 7.59341L86.9101 7.19314ZM216.282 246.631L221.791 255.128L221.255 255.465L221.269 255.487L220.417 256.021L215.235 248.029L215.771 247.693L215.43 247.166L216.282 246.631ZM67.5668 17.2327L73.0758 25.73L72.5359 26.0688L72.5548 26.0979L71.7028 26.6325L66.5213 18.6401L67.0611 18.3014L66.7148 17.7673L67.5668 17.2327ZM232.497 234.509L239.259 242.082L238.784 242.492L238.797 242.507L238.037 243.164L231.677 236.042L232.152 235.631L231.737 235.166L232.497 234.509ZM49.9612 30.0772L56.7229 37.65L56.2454 38.0628L56.2622 38.0816L55.502 38.7387L49.1422 31.6159L49.6197 31.2032L49.2011 30.7343L49.9612 30.0772ZM248.155 218.263L256.13 224.593L255.726 225.087L255.745 225.102L255.11 225.878L247.609 219.924L248.013 219.431L247.519 219.039L248.155 218.263ZM32.87 47.3882L40.8448 53.7183L40.4455 54.2056L40.468 54.2235L39.8322 54.9993L32.3314 49.0454L32.7307 48.5582L32.2342 48.1641L32.87 47.3882ZM247.331 53.9731L255.319 47.6602L255.715 48.143L255.742 48.1216L256.375 48.8954L248.861 54.833L248.466 54.3503L247.964 54.7469L247.331 53.9731ZM31.6675 224.379L39.6563 218.066L40.0539 218.552L40.0747 218.536L40.7081 219.309L33.1939 225.247L32.7965 224.761L32.3009 225.153L31.6675 224.379ZM232.848 39.0448L239.73 31.5776L240.204 31.9995L240.219 31.9829L240.966 32.6479L234.493 39.6713L234.019 39.2495L233.595 39.7098L232.848 39.0448ZM47.0645 240.627L53.9466 233.16L54.4167 233.578L54.4308 233.563L55.1776 234.228L48.7044 241.251L48.2344 240.833L47.8114 241.292L47.0645 240.627ZM216.735 26.9124L222.384 18.5041L222.913 18.8477L222.928 18.8243L223.767 19.369L218.454 27.2776L217.925 26.9341L217.574 27.4571L216.735 26.9124ZM64.2558 253.897L69.9042 245.488L70.4316 245.831L70.4479 245.807L71.2865 246.351L65.9737 254.26L65.4464 253.918L65.0944 254.442L64.2558 253.897ZM198.891 17.2991L203.17 8.14285L203.743 8.40173L203.756 8.37243L204.668 8.78457L200.643 17.3967L200.07 17.1379L199.802 17.7113L198.891 17.2991ZM83.3736 264.477L87.6528 255.321L88.2276 255.581L88.2427 255.548L89.1538 255.96L85.1289 264.572L84.5542 264.312L84.2848 264.889L83.3736 264.477ZM177.414 9.84323L180.044 0.104264L180.659 0.265288L180.663 0.249657L181.63 0.503049L179.156 9.66323L178.542 9.50223L178.381 10.0966L177.414 9.84323ZM106.4 272.757L109.03 263.018L109.644 263.179L109.65 263.156L110.618 263.409L108.144 272.569L107.53 272.409L107.367 273.011L106.4 272.757Z" fill="url(#paint0_linear_130_27709)"/>
<defs>
<linearGradient id="paint0_linear_130_27709" x1="144.011" y1="-1.5" x2="144.011" y2="274.5" gradientUnits="userSpaceOnUse">
<stop stop-color="#007AFF"/>
<stop offset="1" stop-color="#F20000"/>
</linearGradient>
</defs>
</svg>
