<svg width="287" height="274" viewBox="0 0 287 274" fill="none" xmlns="http://www.w3.org/2000/svg">
<path d="M279.614 181.151L269.895 177.949" stroke="#0C0F13"/>
<path d="M279.437 181.75L270.296 178.739" stroke="url(#paint0_linear_126_30629)"/>
<path d="M17.2591 94.7252L7.54047 91.5237" stroke="#0C0F13"/>
<path d="M17.0839 95.3244L7.94292 92.3131" stroke="url(#paint1_linear_126_30629)"/>
<path d="M285.039 159.601L274.93 157.939" stroke="#0C0F13"/>
<path d="M284.96 160.227L275.452 158.663" stroke="url(#paint2_linear_126_30629)"/>
<path d="M12.1339 114.726L2.02465 113.064" stroke="#0C0F13"/>
<path d="M12.0577 115.352L2.54926 113.788" stroke="url(#paint3_linear_126_30629)"/>
<path d="M286.944 138.202L276.696 138.068" stroke="#0C0F13"/>
<path d="M286.963 138.835L277.324 138.709" stroke="url(#paint4_linear_126_30629)"/>
<path d="M10.2746 134.6L0.0257858 134.467" stroke="#0C0F13"/>
<path d="M10.2896 135.23L0.649869 135.104" stroke="url(#paint5_linear_126_30629)"/>
<path d="M285.503 116.676L275.353 118.08" stroke="#0C0F13"/>
<path d="M285.619 117.29L276.072 118.61" stroke="url(#paint6_linear_126_30629)"/>
<path d="M11.5041 154.563L1.3543 155.966" stroke="#0C0F13"/>
<path d="M11.6201 155.169L2.07345 156.489" stroke="url(#paint7_linear_126_30629)"/>
<path d="M279.983 93.1823L270.224 96.2646" stroke="#0C0F13"/>
<path d="M280.203 93.7702L271.025 96.6693" stroke="url(#paint8_linear_126_30629)"/>
<path d="M16.5511 176.389L6.7928 179.472" stroke="#0C0F13"/>
<path d="M16.7717 176.973L7.59325 179.872" stroke="url(#paint9_linear_126_30629)"/>
<path d="M180.302 272.933L177.693 263.188" stroke="#0C0F13"/>
<path d="M179.69 273.129L177.237 263.964" stroke="url(#paint10_linear_126_30629)"/>
<path d="M109.876 9.88187L107.267 0.137261" stroke="#0C0F13"/>
<path d="M109.268 10.0666L106.815 0.901081" stroke="url(#paint11_linear_126_30629)"/>
<path d="M201.607 265.548L197.475 256.326" stroke="#0C0F13"/>
<path d="M201.033 265.831L197.146 257.157" stroke="url(#paint12_linear_126_30629)"/>
<path d="M90.0638 16.6219L85.9317 7.40056" stroke="#0C0F13"/>
<path d="M89.4889 16.8932L85.6025 8.21977" stroke="url(#paint13_linear_126_30629)"/>
<path d="M220.847 255.399L215.338 246.902" stroke="#0C0F13"/>
<path d="M220.325 255.757L215.143 247.765" stroke="url(#paint14_linear_126_30629)"/>
<path d="M72.132 26.0007L66.623 17.5034" stroke="#0C0F13"/>
<path d="M71.611 26.3705L66.4295 18.3782" stroke="url(#paint15_linear_126_30629)"/>
<path d="M238.362 242.414L231.6 234.841" stroke="#0C0F13"/>
<path d="M237.9 242.839L231.541 235.716" stroke="url(#paint16_linear_126_30629)"/>
<path d="M55.826 37.9839L49.0643 30.4111" stroke="#0C0F13"/>
<path d="M55.3653 38.4135L49.0055 31.2907" stroke="url(#paint17_linear_126_30629)"/>
<path d="M255.294 224.985L247.319 218.655" stroke="#0C0F13"/>
<path d="M254.909 225.494L247.409 219.54" stroke="url(#paint18_linear_126_30629)"/>
<path d="M40.0089 54.1096L32.0342 47.7796" stroke="#0C0F13"/>
<path d="M39.6322 54.6148L32.1314 48.6608" stroke="url(#paint19_linear_126_30629)"/>
<path d="M255.119 48.0485L247.131 54.3614" stroke="#0C0F13"/>
<path d="M255.542 48.5118L248.027 54.4494" stroke="url(#paint20_linear_126_30629)"/>
<path d="M39.4563 218.455L31.4674 224.768" stroke="#0C0F13"/>
<path d="M39.8747 218.926L32.3605 224.863" stroke="url(#paint21_linear_126_30629)"/>
<path d="M239.586 31.9154L232.704 39.3827" stroke="#0C0F13"/>
<path d="M240.076 32.3227L233.602 39.3461" stroke="url(#paint22_linear_126_30629)"/>
<path d="M53.8032 233.497L46.9212 240.965" stroke="#0C0F13"/>
<path d="M54.2874 233.901L47.8143 240.924" stroke="url(#paint23_linear_126_30629)"/>
<path d="M222.285 18.7818L216.637 27.1901" stroke="#0C0F13"/>
<path d="M222.83 19.102L217.517 27.0106" stroke="url(#paint24_linear_126_30629)"/>
<path d="M69.8058 245.766L64.1574 254.174" stroke="#0C0F13"/>
<path d="M70.3494 246.086L65.0366 253.995" stroke="url(#paint25_linear_126_30629)"/>
<path d="M203.109 8.35425L198.83 17.5105" stroke="#0C0F13"/>
<path d="M203.695 8.58383L199.67 17.1959" stroke="url(#paint26_linear_126_30629)"/>
<path d="M87.5916 255.53L83.3125 264.686" stroke="#0C0F13"/>
<path d="M88.1815 255.76L84.1566 264.372" stroke="url(#paint27_linear_126_30629)"/>
<path d="M180.01 0.236785L177.38 9.97575" stroke="#0C0F13"/>
<path d="M180.629 0.380231L178.155 9.54041" stroke="url(#paint28_linear_126_30629)"/>
<path d="M108.997 263.151L106.366 272.89" stroke="#0C0F13"/>
<path d="M109.617 263.286L107.142 272.447" stroke="url(#paint29_linear_126_30629)"/>
<defs>
<linearGradient id="paint0_linear_126_30629" x1="279.489" y1="181.576" x2="270.269" y2="178.831" gradientUnits="userSpaceOnUse">
<stop stop-color="#ECC271"/>
<stop offset="1" stop-color="#F20000"/>
</linearGradient>
<linearGradient id="paint1_linear_126_30629" x1="17.1357" y1="95.1505" x2="7.91552" y2="92.4051" gradientUnits="userSpaceOnUse">
<stop stop-color="#ECC271"/>
<stop offset="1" stop-color="#F20000"/>
</linearGradient>
<linearGradient id="paint2_linear_126_30629" x1="284.983" y1="160.047" x2="275.433" y2="158.805" gradientUnits="userSpaceOnUse">
<stop stop-color="#ECC271"/>
<stop offset="1" stop-color="#F20000"/>
</linearGradient>
<linearGradient id="paint3_linear_126_30629" x1="12.0811" y1="115.172" x2="2.53083" y2="113.93" gradientUnits="userSpaceOnUse">
<stop stop-color="#ECC271"/>
<stop offset="1" stop-color="#F20000"/>
</linearGradient>
<linearGradient id="paint4_linear_126_30629" x1="286.959" y1="138.654" x2="277.329" y2="138.902" gradientUnits="userSpaceOnUse">
<stop stop-color="#ECC271"/>
<stop offset="1" stop-color="#F20000"/>
</linearGradient>
<linearGradient id="paint5_linear_126_30629" x1="10.2849" y1="135.048" x2="0.654826" y2="135.296" gradientUnits="userSpaceOnUse">
<stop stop-color="#ECC271"/>
<stop offset="1" stop-color="#F20000"/>
</linearGradient>
<linearGradient id="paint6_linear_126_30629" x1="285.586" y1="117.112" x2="276.116" y2="118.848" gradientUnits="userSpaceOnUse">
<stop stop-color="#ECC271"/>
<stop offset="1" stop-color="#F20000"/>
</linearGradient>
<linearGradient id="paint7_linear_126_30629" x1="11.5874" y1="154.991" x2="2.11701" y2="156.727" gradientUnits="userSpaceOnUse">
<stop stop-color="#ECC271"/>
<stop offset="1" stop-color="#F20000"/>
</linearGradient>
<linearGradient id="paint8_linear_126_30629" x1="280.14" y1="93.6" x2="271.126" y2="96.9412" gradientUnits="userSpaceOnUse">
<stop stop-color="#ECC271"/>
<stop offset="1" stop-color="#F20000"/>
</linearGradient>
<linearGradient id="paint9_linear_126_30629" x1="16.7086" y1="176.803" x2="7.69403" y2="180.144" gradientUnits="userSpaceOnUse">
<stop stop-color="#ECC271"/>
<stop offset="1" stop-color="#F20000"/>
</linearGradient>
<linearGradient id="paint10_linear_126_30629" x1="179.867" y1="273.076" x2="177.144" y2="263.991" gradientUnits="userSpaceOnUse">
<stop stop-color="#ECC271"/>
<stop offset="1" stop-color="#F20000"/>
</linearGradient>
<linearGradient id="paint11_linear_126_30629" x1="109.445" y1="10.0138" x2="106.722" y2="0.928894" gradientUnits="userSpaceOnUse">
<stop stop-color="#ECC271"/>
<stop offset="1" stop-color="#F20000"/>
</linearGradient>
<linearGradient id="paint12_linear_126_30629" x1="201.199" y1="265.751" x2="197.093" y2="257.183" gradientUnits="userSpaceOnUse">
<stop stop-color="#ECC271"/>
<stop offset="1" stop-color="#F20000"/>
</linearGradient>
<linearGradient id="paint13_linear_126_30629" x1="89.6546" y1="16.8138" x2="85.5491" y2="8.24534" gradientUnits="userSpaceOnUse">
<stop stop-color="#ECC271"/>
<stop offset="1" stop-color="#F20000"/>
</linearGradient>
<linearGradient id="paint14_linear_126_30629" x1="220.476" y1="255.654" x2="215.115" y2="247.784" gradientUnits="userSpaceOnUse">
<stop stop-color="#ECC271"/>
<stop offset="1" stop-color="#F20000"/>
</linearGradient>
<linearGradient id="paint15_linear_126_30629" x1="71.7625" y1="26.2673" x2="66.4012" y2="18.3975" gradientUnits="userSpaceOnUse">
<stop stop-color="#ECC271"/>
<stop offset="1" stop-color="#F20000"/>
</linearGradient>
<linearGradient id="paint16_linear_126_30629" x1="238.034" y1="242.715" x2="231.524" y2="235.732" gradientUnits="userSpaceOnUse">
<stop stop-color="#ECC271"/>
<stop offset="1" stop-color="#F20000"/>
</linearGradient>
<linearGradient id="paint17_linear_126_30629" x1="55.4991" y1="38.2888" x2="48.9885" y2="31.3066" gradientUnits="userSpaceOnUse">
<stop stop-color="#ECC271"/>
<stop offset="1" stop-color="#F20000"/>
</linearGradient>
<linearGradient id="paint18_linear_126_30629" x1="255.02" y1="225.348" x2="247.391" y2="219.563" gradientUnits="userSpaceOnUse">
<stop stop-color="#ECC271"/>
<stop offset="1" stop-color="#F20000"/>
</linearGradient>
<linearGradient id="paint19_linear_126_30629" x1="39.7423" y1="54.4695" x2="32.1139" y2="48.6839" gradientUnits="userSpaceOnUse">
<stop stop-color="#ECC271"/>
<stop offset="1" stop-color="#F20000"/>
</linearGradient>
<linearGradient id="paint20_linear_126_30629" x1="255.421" y1="48.3751" x2="248.257" y2="54.7093" gradientUnits="userSpaceOnUse">
<stop stop-color="#ECC271"/>
<stop offset="1" stop-color="#F20000"/>
</linearGradient>
<linearGradient id="paint21_linear_126_30629" x1="39.7538" y1="218.789" x2="32.5903" y2="225.123" gradientUnits="userSpaceOnUse">
<stop stop-color="#ECC271"/>
<stop offset="1" stop-color="#F20000"/>
</linearGradient>
<linearGradient id="paint22_linear_126_30629" x1="239.934" y1="32.2063" x2="233.869" y2="39.5662" gradientUnits="userSpaceOnUse">
<stop stop-color="#ECC271"/>
<stop offset="1" stop-color="#F20000"/>
</linearGradient>
<linearGradient id="paint23_linear_126_30629" x1="54.1462" y1="233.784" x2="48.0814" y2="241.144" gradientUnits="userSpaceOnUse">
<stop stop-color="#ECC271"/>
<stop offset="1" stop-color="#F20000"/>
</linearGradient>
<linearGradient id="paint24_linear_126_30629" x1="222.672" y1="19.008" x2="217.801" y2="27.1797" gradientUnits="userSpaceOnUse">
<stop stop-color="#ECC271"/>
<stop offset="1" stop-color="#F20000"/>
</linearGradient>
<linearGradient id="paint25_linear_126_30629" x1="70.1918" y1="245.992" x2="65.3203" y2="254.164" gradientUnits="userSpaceOnUse">
<stop stop-color="#ECC271"/>
<stop offset="1" stop-color="#F20000"/>
</linearGradient>
<linearGradient id="paint26_linear_126_30629" x1="203.525" y1="8.51457" x2="199.949" y2="17.3094" gradientUnits="userSpaceOnUse">
<stop stop-color="#ECC271"/>
<stop offset="1" stop-color="#F20000"/>
</linearGradient>
<linearGradient id="paint27_linear_126_30629" x1="88.0112" y1="255.69" x2="84.4356" y2="264.485" gradientUnits="userSpaceOnUse">
<stop stop-color="#ECC271"/>
<stop offset="1" stop-color="#F20000"/>
</linearGradient>
<linearGradient id="paint28_linear_126_30629" x1="180.449" y1="0.340506" x2="178.405" y2="9.59569" gradientUnits="userSpaceOnUse">
<stop stop-color="#ECC271"/>
<stop offset="1" stop-color="#F20000"/>
</linearGradient>
<linearGradient id="paint29_linear_126_30629" x1="109.437" y1="263.247" x2="107.393" y2="272.502" gradientUnits="userSpaceOnUse">
<stop stop-color="#ECC271"/>
<stop offset="1" stop-color="#F20000"/>
</linearGradient>
</defs>
</svg>
