<svg width="148" height="102" viewBox="0 0 148 102" fill="none" xmlns="http://www.w3.org/2000/svg">
<g filter="url(#filter0_d_126_31170)">
<path d="M136.324 56.1886L143.153 54.3555L136.333 56.2222L16.9712 88.1944L10.3468 90.4545L4.19922 92.0996L10.3378 90.4209L16.9676 88.1807L136.324 56.1886Z" fill="url(#paint0_radial_126_31170)"/>
<path d="M136.324 56.1886L143.153 54.3555L136.333 56.2222L16.9712 88.1944L10.3468 90.4545L4.19922 92.0996L10.3378 90.4209L16.9676 88.1807L136.324 56.1886Z" stroke="url(#paint1_linear_126_31170)"/>
</g>
<path d="M9.13075 101.016L8.49941 100.501L5.98405 97.8695L100.878 1.72989L104.024 1.72988L104.024 4.87548L104.024 4.87659L9.13075 101.016Z" fill="url(#paint2_radial_126_31170)"/>
<defs>
<filter id="filter0_d_126_31170" x="0.0673828" y="53.8711" width="147.218" height="46.7109" filterUnits="userSpaceOnUse" color-interpolation-filters="sRGB">
<feFlood flood-opacity="0" result="BackgroundImageFix"/>
<feColorMatrix in="SourceAlpha" type="matrix" values="0 0 0 0 0 0 0 0 0 0 0 0 0 0 0 0 0 0 127 0" result="hardAlpha"/>
<feOffset dy="4"/>
<feGaussianBlur stdDeviation="2"/>
<feComposite in2="hardAlpha" operator="out"/>
<feColorMatrix type="matrix" values="0 0 0 0 0 0 0 0 0 0 0 0 0 0 0 0 0 0 0.55 0"/>
<feBlend mode="normal" in2="BackgroundImageFix" result="effect1_dropShadow_126_31170"/>
<feBlend mode="normal" in="SourceGraphic" in2="effect1_dropShadow_126_31170" result="shape"/>
</filter>
<radialGradient id="paint0_radial_126_31170" cx="0" cy="0" r="1" gradientUnits="userSpaceOnUse" gradientTransform="translate(18.3357 87.8215) rotate(165) scale(122.155 0.0173674)">
<stop stop-color="#281F0E"/>
<stop offset="1" stop-color="#ECC271"/>
</radialGradient>
<linearGradient id="paint1_linear_126_31170" x1="137.695" y1="55.8394" x2="4" y2="92" gradientUnits="userSpaceOnUse">
<stop stop-color="#F20000"/>
<stop offset="1" stop-color="#007AFF"/>
</linearGradient>
<radialGradient id="paint2_radial_126_31170" cx="0" cy="0" r="1" gradientUnits="userSpaceOnUse" gradientTransform="translate(21.1929 84.5612) rotate(-45) scale(114.917 2.22505)">
<stop stop-color="#007AFF"/>
<stop offset="1" stop-color="#B60000"/>
</radialGradient>
</defs>
</svg>
