<svg width="148" height="100" viewBox="0 0 148 100" fill="none" xmlns="http://www.w3.org/2000/svg">
<g filter="url(#filter0_d_126_31182)">
<path d="M136.253 55.0324L143.082 53.1992L136.262 55.0659L16.9 87.0382L10.2755 89.2982L4.12793 90.9434L10.2666 89.2647L16.8963 87.0244L136.253 55.0324Z" fill="url(#paint0_radial_126_31182)"/>
<path d="M136.253 55.0324L143.082 53.1992L136.262 55.0659L16.9 87.0382L10.2755 89.2982L4.12793 90.9434L10.2666 89.2647L16.8963 87.0244L136.253 55.0324Z" stroke="url(#paint1_linear_126_31182)"/>
</g>
<path d="M9.05946 99.86L8.42812 99.3446L5.91276 96.7133L100.806 0.573639L103.953 3.71923L103.953 3.72034L9.05946 99.86Z" fill="url(#paint2_radial_126_31182)"/>
<defs>
<filter id="filter0_d_126_31182" x="-0.00390625" y="52.7148" width="147.218" height="46.7109" filterUnits="userSpaceOnUse" color-interpolation-filters="sRGB">
<feFlood flood-opacity="0" result="BackgroundImageFix"/>
<feColorMatrix in="SourceAlpha" type="matrix" values="0 0 0 0 0 0 0 0 0 0 0 0 0 0 0 0 0 0 127 0" result="hardAlpha"/>
<feOffset dy="4"/>
<feGaussianBlur stdDeviation="2"/>
<feComposite in2="hardAlpha" operator="out"/>
<feColorMatrix type="matrix" values="0 0 0 0 0 0 0 0 0 0 0 0 0 0 0 0 0 0 0.55 0"/>
<feBlend mode="normal" in2="BackgroundImageFix" result="effect1_dropShadow_126_31182"/>
<feBlend mode="normal" in="SourceGraphic" in2="effect1_dropShadow_126_31182" result="shape"/>
</filter>
<radialGradient id="paint0_radial_126_31182" cx="0" cy="0" r="1" gradientUnits="userSpaceOnUse" gradientTransform="translate(18.2644 86.6653) rotate(165) scale(122.155 0.0173674)">
<stop stop-color="#281F0E"/>
<stop offset="1" stop-color="#ECC271"/>
</radialGradient>
<linearGradient id="paint1_linear_126_31182" x1="137.623" y1="54.6831" x2="3.92871" y2="90.8438" gradientUnits="userSpaceOnUse">
<stop stop-color="white"/>
<stop offset="1" stop-color="#007AFF"/>
</linearGradient>
<radialGradient id="paint2_radial_126_31182" cx="0" cy="0" r="1" gradientUnits="userSpaceOnUse" gradientTransform="translate(21.1216 83.405) rotate(-45) scale(114.917 2.22505)">
<stop stop-color="#7F642E"/>
<stop offset="1" stop-color="white"/>
</radialGradient>
</defs>
</svg>
