<svg width="148" height="108" viewBox="0 0 148 108" fill="none" xmlns="http://www.w3.org/2000/svg">
<g filter="url(#filter0_d_126_31179)">
<path d="M136.324 61.1886L143.153 59.3555L136.333 61.2222L16.9712 93.1944L10.3468 95.4545L4.19922 97.0996L10.3378 95.4209L16.9676 93.1807L136.324 61.1886Z" fill="url(#paint0_radial_126_31179)"/>
<path d="M136.324 61.1886L143.153 59.3555L136.333 61.2222L16.9712 93.1944L10.3468 95.4545L4.19922 97.0996L10.3378 95.4209L16.9676 93.1807L136.324 61.1886Z" stroke="url(#paint1_linear_126_31179)"/>
</g>
<path d="M9.1311 106.015L8.49976 105.5L5.9844 102.868L100.878 6.72877L96.7503 6.24972L106.75 3.74958L104.75 14.2497L104.025 9.87547L9.1311 106.015Z" fill="url(#paint2_radial_126_31179)"/>
<defs>
<filter id="filter0_d_126_31179" x="0.0673828" y="58.8711" width="147.218" height="46.7109" filterUnits="userSpaceOnUse" color-interpolation-filters="sRGB">
<feFlood flood-opacity="0" result="BackgroundImageFix"/>
<feColorMatrix in="SourceAlpha" type="matrix" values="0 0 0 0 0 0 0 0 0 0 0 0 0 0 0 0 0 0 127 0" result="hardAlpha"/>
<feOffset dy="4"/>
<feGaussianBlur stdDeviation="2"/>
<feComposite in2="hardAlpha" operator="out"/>
<feColorMatrix type="matrix" values="0 0 0 0 0 0 0 0 0 0 0 0 0 0 0 0 0 0 0.55 0"/>
<feBlend mode="normal" in2="BackgroundImageFix" result="effect1_dropShadow_126_31179"/>
<feBlend mode="normal" in="SourceGraphic" in2="effect1_dropShadow_126_31179" result="shape"/>
</filter>
<radialGradient id="paint0_radial_126_31179" cx="0" cy="0" r="1" gradientUnits="userSpaceOnUse" gradientTransform="translate(18.3357 92.8215) rotate(165) scale(122.155 0.0173674)">
<stop stop-color="#281F0E"/>
<stop offset="1" stop-color="#ECC271"/>
</radialGradient>
<linearGradient id="paint1_linear_126_31179" x1="137.695" y1="60.8394" x2="4" y2="97" gradientUnits="userSpaceOnUse">
<stop stop-color="#ECC271"/>
<stop offset="1" stop-color="#007AFF"/>
</linearGradient>
<radialGradient id="paint2_radial_126_31179" cx="0" cy="0" r="1" gradientUnits="userSpaceOnUse" gradientTransform="translate(21.1934 89.5612) rotate(-45) scale(114.917 2.22505)">
<stop stop-color="#281F0E"/>
<stop offset="1" stop-color="#ECC271"/>
</radialGradient>
</defs>
</svg>
