<svg width="148" height="105" viewBox="0 0 148 105" fill="none" xmlns="http://www.w3.org/2000/svg">
<g filter="url(#filter0_d_126_31185)">
<path d="M136.253 59.4581L143.082 57.625L136.262 59.4917L16.9 91.464L10.2755 93.724L4.12793 95.3692L10.2666 93.6905L16.8963 91.4502L136.253 59.4581Z" fill="url(#paint0_radial_126_31185)"/>
<path d="M136.253 59.4581L143.082 57.625L136.262 59.4917L16.9 91.464L10.2755 93.724L4.12793 95.3692L10.2666 93.6905L16.8963 91.4502L136.253 59.4581Z" stroke="url(#paint1_linear_126_31185)"/>
</g>
<path d="M9.05946 104.286L8.42812 103.77L5.91276 101.139L100.806 4.99942L108.953 3.145L103.953 8.14612L9.05946 104.286Z" fill="url(#paint2_radial_126_31185)"/>
<defs>
<filter id="filter0_d_126_31185" x="-0.00390625" y="57.1406" width="147.218" height="46.7109" filterUnits="userSpaceOnUse" color-interpolation-filters="sRGB">
<feFlood flood-opacity="0" result="BackgroundImageFix"/>
<feColorMatrix in="SourceAlpha" type="matrix" values="0 0 0 0 0 0 0 0 0 0 0 0 0 0 0 0 0 0 127 0" result="hardAlpha"/>
<feOffset dy="4"/>
<feGaussianBlur stdDeviation="2"/>
<feComposite in2="hardAlpha" operator="out"/>
<feColorMatrix type="matrix" values="0 0 0 0 0 0 0 0 0 0 0 0 0 0 0 0 0 0 0.55 0"/>
<feBlend mode="normal" in2="BackgroundImageFix" result="effect1_dropShadow_126_31185"/>
<feBlend mode="normal" in="SourceGraphic" in2="effect1_dropShadow_126_31185" result="shape"/>
</filter>
<radialGradient id="paint0_radial_126_31185" cx="0" cy="0" r="1" gradientUnits="userSpaceOnUse" gradientTransform="translate(18.2644 91.0911) rotate(165) scale(122.155 0.0173674)">
<stop stop-color="#281F0E"/>
<stop offset="1" stop-color="#ECC271"/>
</radialGradient>
<linearGradient id="paint1_linear_126_31185" x1="137.623" y1="59.1089" x2="3.92871" y2="95.2695" gradientUnits="userSpaceOnUse">
<stop stop-color="white"/>
<stop offset="1" stop-color="#F20000"/>
</linearGradient>
<radialGradient id="paint2_radial_126_31185" cx="0" cy="0" r="1" gradientUnits="userSpaceOnUse" gradientTransform="translate(21.1216 87.8308) rotate(-45) scale(114.917 2.22505)">
<stop stop-color="#979DA2"/>
<stop offset="1" stop-color="white"/>
</radialGradient>
</defs>
</svg>
