<svg width="291" height="290" viewBox="0 0 291 290" fill="none" xmlns="http://www.w3.org/2000/svg">
<g clip-path="url(#clip0_126_29586)" filter="url(#filter0_i_126_29586)">
<path d="M112.366 147.277C114.906 148.087 117.119 148.897 119.186 150.158C124.617 153.489 126.922 158.777 125.591 165.217C124.728 169.402 122.381 172.553 119.144 174.984C115.102 178.026 110.5 179.486 105.679 180.33C102.542 180.876 99.3869 180.963 96.2186 180.961C74.352 180.949 52.4863 180.957 30.6214 180.983C29.3911 180.983 29.0003 180.73 29.0029 179.323C29.0505 159.075 29.0505 138.827 29.0029 118.579C29.0029 117.391 29.2062 116.997 30.4234 117C105.965 117.034 181.504 117.044 257.042 117.031C258.23 117.031 259.418 117.087 260.606 117.059C261.25 117.045 261.57 117.208 261.562 117.988C261.533 121.128 261.541 124.268 261.562 127.408C261.562 128.072 261.324 128.303 260.704 128.314C258.948 128.342 257.195 128.48 255.439 128.48C222.399 128.492 189.359 128.496 156.319 128.494C154.13 128.494 154.452 128.255 154.452 130.532C154.442 146.889 154.446 163.247 154.465 179.604C154.465 180.629 154.344 181.011 153.206 180.997C148.894 180.893 144.583 180.904 140.269 180.997C138.978 181.023 138.56 180.716 138.566 179.239C138.624 162.919 138.603 146.618 138.603 130.307C138.603 128.514 138.603 128.503 136.873 128.503C106.693 128.503 76.5126 128.494 46.3309 128.478C45.2036 128.478 44.8392 128.734 44.8445 130.014C44.892 142.811 44.8973 155.607 44.8603 168.403C44.8603 169.359 44.9052 169.933 46.0933 169.928C62.1514 169.869 78.2094 169.928 94.2648 169.81C98.3572 169.781 102.45 169.23 106.183 167.195C110.196 165.012 111.168 160.38 108.345 157.046C107.228 155.729 105.771 154.958 104.208 154.401C101.499 153.433 98.6951 153.262 95.8727 153.262C83.1995 153.262 70.5263 153.242 57.853 153.292C56.5699 153.292 56.0444 153.039 56.1527 151.537C56.2785 149.569 56.2785 147.595 56.1527 145.628C56.0709 144.221 56.451 143.796 57.8187 143.802C69.9199 143.858 82.0193 143.865 94.1169 143.824C96.7942 143.824 99.4687 143.793 102.117 143.182C106.605 142.15 108.422 139.789 108.213 134.938C108.176 134.122 108.477 133.995 109.103 133.998C113.856 133.998 118.608 134.038 123.36 133.984C124.395 133.97 124.403 134.502 124.308 135.284C123.828 139.19 122.037 142.214 118.935 144.356C117.008 145.69 114.84 146.444 112.366 147.277Z" fill="#0E0E0E"/>
<path d="M207.157 180.959C195.367 180.959 183.58 180.937 171.791 180.99C170.542 180.99 170.228 180.59 170.27 179.327C170.352 176.704 170.36 174.076 170.27 171.448C170.222 170.162 170.568 169.804 171.793 169.807C188.164 169.85 204.527 169.86 220.882 169.835C226.778 169.835 232.672 169.863 238.573 169.835C241.499 169.813 244.358 169.334 247.023 167.905C250.154 166.216 251.593 163.191 250.888 159.826C250.431 157.648 249.119 156.204 247.337 155.2C244.195 153.43 240.767 153.255 237.322 153.252C223.327 153.252 209.346 153.309 195.357 153.227C189.698 153.193 184.135 152.318 178.96 149.673C174.12 147.202 170.37 143.662 169.156 137.781C168.48 134.511 168.641 134.303 171.751 134.303C175.932 134.303 180.111 134.303 184.288 134.303C184.816 134.303 185.4 134.092 185.431 135.133C185.587 140.043 187.808 142.59 192.521 143.445C194.303 143.733 196.105 143.86 197.907 143.825C211.852 143.825 225.796 143.778 239.74 143.856C245.071 143.884 250.365 144.504 255.39 146.597C260.415 148.691 264.349 152.059 265.569 157.997C267.341 166.619 263.935 173.606 256.19 177.447C251.437 179.797 246.399 180.824 241.224 180.88C229.87 180.99 218.516 180.914 207.178 180.914L207.157 180.959Z" fill="#0E0E0E"/>
<path d="M142.829 163.864L147.317 157.897H148.846V163.864H150.072V165.115H148.846V167H147.545V165.115H142.829V163.864ZM147.545 163.864V159.472L144.244 163.864H147.545ZM147.786 197.763C148.104 197.75 148.33 197.666 148.466 197.509C148.601 197.348 148.669 197.103 148.669 196.773V196.176C148.669 195.829 148.593 195.575 148.44 195.415C148.288 195.254 148.04 195.173 147.698 195.173H145.33C144.987 195.173 144.74 195.254 144.587 195.415C144.435 195.575 144.359 195.829 144.359 196.176V196.773C144.359 197.103 144.426 197.348 144.562 197.509C144.701 197.666 144.928 197.75 145.241 197.763H147.786ZM147.824 201.724C148.171 201.724 148.421 201.644 148.573 201.483C148.726 201.322 148.802 201.07 148.802 200.728V200.023C148.802 199.676 148.726 199.424 148.573 199.268C148.421 199.111 148.171 199.033 147.824 199.033H145.203C144.856 199.033 144.606 199.111 144.454 199.268C144.302 199.424 144.225 199.676 144.225 200.023V200.728C144.225 201.07 144.302 201.322 144.454 201.483C144.606 201.644 144.856 201.724 145.203 201.724H147.824ZM145.165 203C143.688 203 142.949 202.264 142.949 200.791V200.334C142.949 199.767 143.051 199.312 143.254 198.969C143.457 198.626 143.751 198.398 144.136 198.284C143.794 198.123 143.531 197.877 143.349 197.547C143.172 197.213 143.083 196.79 143.083 196.278V196.113C143.083 194.636 143.819 193.897 145.292 193.897H147.736C149.208 193.897 149.945 194.636 149.945 196.113V196.278C149.945 196.79 149.854 197.213 149.672 197.547C149.494 197.877 149.234 198.123 148.891 198.284C149.276 198.398 149.57 198.626 149.773 198.969C149.976 199.312 150.078 199.767 150.078 200.334V200.791C150.078 202.264 149.342 203 147.869 203H145.165Z" fill="#0E0E0E"/>
</g>
<g filter="url(#filter1_d_126_29586)">
<path d="M238.09 201.761L238.09 196.125L239.839 196.125C240.997 196.125 241.564 196.755 241.564 197.934L241.564 200.057C241.564 200.501 241.835 200.8 242.287 200.8C242.738 200.8 243.017 200.517 243.017 200.057L243.017 196.173L244.061 196.173L244.061 200.057C244.061 201.22 243.346 201.858 242.385 201.858C241.4 201.858 240.685 201.179 240.685 200.065L240.685 197.934C240.685 197.385 240.422 197.094 239.913 197.094L239.133 197.094L239.133 201.761L238.09 201.761Z" fill="#546271"/>
<path d="M238.09 193.496L238.09 192.479L242.106 192.479C242.697 192.479 243.017 192.188 243.017 191.655L243.017 191.09L244.061 191.09L244.061 191.655C244.061 192.834 243.338 193.496 242.106 193.496L238.09 193.496Z" fill="#546271"/>
<path d="M202.855 244.136H201.812V242.569H199.34C198.091 242.569 197.377 241.988 197.377 240.688V238.266H198.42V240.68C198.42 241.358 198.716 241.584 199.34 241.584H201.812V238.266H202.855V241.584H203.717V242.569H202.855V244.136Z" fill="#546271"/>
<path d="M194.813 244.136H189.08V242.416C189.08 241.277 189.721 240.72 190.92 240.72H193.08C193.532 240.72 193.835 240.454 193.835 240.01C193.835 239.566 193.548 239.291 193.08 239.291H189.129V238.266H193.08C194.263 238.266 194.911 238.968 194.911 239.913C194.911 240.882 194.221 241.584 193.088 241.584H190.92C190.361 241.584 190.066 241.843 190.066 242.343V243.11H194.813V244.136Z" fill="#546271"/>
<path d="M202.298 154.804H199.604C198.438 154.804 197.683 154.101 197.683 153.027C197.683 152.341 198.077 151.873 198.619 151.703C198.175 151.566 197.798 151.194 197.798 150.452C197.798 149.45 198.561 148.934 199.719 148.934H202.183C203.341 148.934 204.113 149.45 204.113 150.452C204.113 151.194 203.727 151.566 203.284 151.703C203.826 151.873 204.22 152.341 204.22 153.027C204.22 154.101 203.465 154.804 202.298 154.804ZM202.257 152.252H199.646C199.062 152.252 198.734 152.527 198.734 153.011C198.734 153.52 199.202 153.778 199.859 153.778H202.044C202.701 153.778 203.169 153.52 203.169 153.011C203.169 152.527 202.84 152.252 202.257 152.252ZM201.986 149.951H199.917C199.235 149.951 198.849 150.137 198.849 150.678C198.849 151.186 199.128 151.388 199.719 151.388H202.183C202.775 151.388 203.054 151.186 203.054 150.678C203.054 150.137 202.668 149.951 201.986 149.951Z" fill="#546271"/>
<path d="M194.558 154.804H193.515V153.237H191.043C189.795 153.237 189.08 152.656 189.08 151.356V148.934H190.123V151.348C190.123 152.026 190.419 152.252 191.043 152.252H193.515V148.934H194.558V152.252H195.421V153.237H194.558V154.804Z" fill="#546271"/>
<path d="M153.191 190.87L153.191 192.695C153.191 194.35 152.189 195.359 150.144 195.359C148.107 195.359 147.22 194.35 147.22 192.695L147.22 189.328L148.263 189.328L148.263 192.695C148.263 193.623 148.698 194.181 149.708 194.31L149.708 190.87C149.708 189.748 150.226 189.086 151.376 189.086C152.534 189.086 153.191 189.764 153.191 190.87ZM150.595 190.967L150.595 194.318C151.671 194.213 152.148 193.648 152.148 192.695L152.148 190.967C152.148 190.386 151.852 190.071 151.334 190.071C150.842 190.071 150.595 190.378 150.595 190.967Z" fill="#546271"/>
<path d="M153.191 199.608L153.191 203.629L152.148 203.629L152.148 199.858C152.148 199.212 151.877 198.76 151.359 198.76C150.866 198.76 150.595 199.075 150.595 199.648L150.595 202.24L149.716 202.24L149.716 199.721C149.716 199.14 149.511 198.865 148.994 198.865C148.443 198.865 148.255 199.245 148.255 199.923L148.255 203.605L147.22 203.605L147.22 199.721C147.22 198.583 147.745 197.832 148.764 197.832C149.519 197.832 149.897 198.203 150.037 198.639C150.209 198.106 150.686 197.719 151.384 197.719C152.468 197.719 153.191 198.461 153.191 199.608Z" fill="#546271"/>
</g>
<g filter="url(#filter2_d_126_29586)">
<line y1="-0.5" x2="6.02454" y2="-0.5" transform="matrix(-0.127726 0.991809 -0.992343 -0.123512 200.197 156.309)" stroke="black"/>
<line y1="-0.5" x2="6.02455" y2="-0.5" transform="matrix(-0.127727 0.991809 -0.992343 -0.123512 190.708 230)" stroke="black"/>
<line y1="-0.5" x2="6.02955" y2="-0.5" transform="matrix(-0.2565 0.966544 -0.968647 -0.248442 205.378 157.289)" stroke="black"/>
<line y1="-0.5" x2="6.02955" y2="-0.5" transform="matrix(-0.2565 0.966544 -0.968647 -0.248442 186.305 229.164)" stroke="black"/>
<line y1="-0.5" x2="6.03861" y2="-0.5" transform="matrix(-0.393732 0.919225 -0.923958 -0.382494 210.918 159.129)" stroke="black"/>
<line y1="-0.5" x2="6.03861" y2="-0.5" transform="matrix(-0.393732 0.919225 -0.923958 -0.382494 181.596 227.594)" stroke="black"/>
<line y1="-0.5" x2="6.10056" y2="-0.5" transform="matrix(-0.928784 0.375468 -0.385171 -0.920851 232.841 180.863)" stroke="black"/>
<line y1="-0.5" x2="6.10056" y2="-0.5" transform="matrix(-0.928784 0.375468 -0.385171 -0.920851 162.96 209.113)" stroke="black"/>
<line y1="-0.5" x2="6.09802" y2="-0.5" transform="matrix(-0.970672 0.254735 -0.261098 -0.961574 234.525 185.785)" stroke="black"/>
<line y1="-0.5" x2="6.09802" y2="-0.5" transform="matrix(-0.970672 0.254735 -0.261098 -0.961574 161.529 204.938)" stroke="black"/>
<line y1="-0.5" x2="6.09342" y2="-0.5" transform="matrix(-0.998486 0.115883 -0.118598 -0.987625 235.623 191.422)" stroke="black"/>
<line y1="-0.5" x2="6.09342" y2="-0.5" transform="matrix(-0.998486 0.115883 -0.118598 -0.987625 160.593 200.121)" stroke="black"/>
<line y1="-0.5" x2="6.05019" y2="-0.5" transform="matrix(0.396624 0.915948 -0.924164 0.386769 180.09 159.18)" stroke="black"/>
<line y1="-0.5" x2="6.05019" y2="-0.5" transform="matrix(0.396624 0.915948 -0.924164 0.386769 208.663 227.527)" stroke="black"/>
<line y1="-0.5" x2="6.05264" y2="-0.5" transform="matrix(0.273099 0.958182 -0.967554 0.266527 185.066 157.461)" stroke="black"/>
<line y1="-0.5" x2="6.05264" y2="-0.5" transform="matrix(0.273099 0.958182 -0.967554 0.266527 204.433 229)" stroke="black"/>
<line y1="-0.5" x2="6.05708" y2="-0.5" transform="matrix(0.130963 0.985986 -0.997082 0.127998 190.8 156.32)" stroke="black"/>
<line y1="-0.5" x2="6.05708" y2="-0.5" transform="matrix(0.130963 0.985986 -0.997082 0.127998 199.558 229.969)" stroke="black"/>
<line y1="-0.5" x2="6.09892" y2="-0.5" transform="matrix(0.79304 0.606128 -0.621456 0.785842 162.823 171.488)" stroke="black"/>
<line y1="-0.5" x2="6.09892" y2="-0.5" transform="matrix(0.79304 0.606128 -0.621456 0.785842 222.477 217.082)" stroke="black"/>
<line y1="-0.5" x2="6.09655" y2="-0.5" transform="matrix(0.707219 0.701847 -0.719031 0.70025 166.327 167.613)" stroke="black"/>
<line y1="-0.5" x2="6.09655" y2="-0.5" transform="matrix(0.707219 0.701847 -0.719031 0.70025 219.499 220.371)" stroke="black"/>
<line y1="-0.5" x2="6.09224" y2="-0.5" transform="matrix(0.598399 0.794535 -0.812831 0.59166 170.767 163.867)" stroke="black"/>
<line y1="-0.5" x2="6.09224" y2="-0.5" transform="matrix(0.598399 0.794535 -0.812831 0.59166 215.728 223.566)" stroke="black"/>
<line y1="-0.5" x2="6.12481" y2="-0.5" transform="matrix(0.993553 0.113741 -0.117622 0.993015 154.512 191.477)" stroke="black"/>
<line y1="-0.5" x2="6.12481" y2="-0.5" transform="matrix(0.993553 0.113741 -0.117622 0.993015 229.944 201.531)" stroke="black"/>
<line y1="-0.5" x2="6.11989" y2="-0.5" transform="matrix(0.971129 0.238899 -0.246646 0.969018 155.459 186.383)" stroke="black"/>
<line y1="-0.5" x2="6.11989" y2="-0.5" transform="matrix(0.971129 0.238899 -0.246646 0.969018 229.14 205.863)" stroke="black"/>
<line y1="-0.5" x2="6.11095" y2="-0.5" transform="matrix(0.927807 0.373383 -0.384352 0.923053 157.28 180.922)" stroke="black"/>
<line y1="-0.5" x2="6.11095" y2="-0.5" transform="matrix(0.927807 0.373383 -0.384352 0.923053 227.59 210.508)" stroke="black"/>
<line y1="-0.5" x2="6.053" y2="-0.5" transform="matrix(0.641002 -0.770043 0.777667 0.625651 171.235 228.215)" stroke="black"/>
<line y1="-0.5" x2="6.053" y2="-0.5" transform="matrix(0.641002 -0.770043 0.777667 0.625651 217.06 169.699)" stroke="black"/>
<line y1="-0.5" x2="6.05517" y2="-0.5" transform="matrix(0.736363 -0.682138 0.689382 0.71924 167.381 224.668)" stroke="black"/>
<line y1="-0.5" x2="6.05517" y2="-0.5" transform="matrix(0.736363 -0.682138 0.689382 0.71924 220.342 172.711)" stroke="black"/>
<line y1="-0.5" x2="6.0591" y2="-0.5" transform="matrix(0.827398 -0.571352 0.578166 0.809202 163.685 221.227)" stroke="black"/>
<line y1="-0.5" x2="6.0591" y2="-0.5" transform="matrix(0.827398 -0.571352 0.578166 0.809202 223.481 176.496)" stroke="black"/>
<path d="M231.019 176.059L219.378 182.757" stroke="black"/>
<line y1="-0.5" x2="14.0359" y2="-0.5" transform="matrix(-0.865186 0.51352 -0.520128 -0.846948 171.771 209.527)" stroke="black"/>
<line y1="-0.5" x2="12.2508" y2="-0.5" transform="matrix(-0.506708 0.863288 -0.868933 -0.492927 216.041 161.152)" stroke="black"/>
<path d="M181.805 220.017L174.934 231.722" stroke="black"/>
<line y1="-0.5" x2="12.2748" y2="-0.5" transform="matrix(0.000242272 0.994754 -1.00515 0.000236637 195.325 155.734)" stroke="black"/>
<path d="M195.616 223.534L195.618 237.048" stroke="black"/>
<line y1="-0.5" x2="12.3567" y2="-0.5" transform="matrix(-1.00515 0.00023661 -0.000242245 -0.994754 236.969 196.113)" stroke="black"/>
<path d="M167.996 196.399L154.249 196.401" stroke="black"/>
<line y1="-0.5" x2="11.8258" y2="-0.5" transform="matrix(-0.511076 -0.852913 0.870282 -0.504005 216.229 230.43)" stroke="black"/>
<line y1="-0.5" x2="14.0857" y2="-0.5" transform="matrix(-0.500401 -0.859177 0.876414 -0.493332 182.987 171.949)" stroke="black"/>
<line y1="-0.5" x2="13.2245" y2="-0.5" transform="matrix(-0.881148 -0.469994 0.483849 -0.87672 231.756 216.195)" stroke="black"/>
<line y1="-0.5" x2="13.2395" y2="-0.5" transform="matrix(-0.863813 -0.500352 0.514983 -0.859273 171.376 181.535)" stroke="black"/>
</g>
<path d="M216.461 176.105L206.038 186.59L195.611 196.603L195.428 196.779L195.609 196.956L196.018 197.358L196.198 197.536L196.377 197.356L206.563 187.105L217.232 176.854L217.292 176.796L217.305 176.713L217.462 175.681L217.589 174.853L217.024 175.48L216.461 176.105Z" fill="url(#paint0_radial_126_29586)" stroke="url(#paint1_linear_126_29586)" stroke-width="0.5"/>
<path d="M216.643 176.275L216.968 176.357L217.052 176.677L196.193 197.184L195.784 196.781L216.643 176.275Z" fill="url(#paint2_radial_126_29586)"/>
<path d="M189.631 214H188.488V212.254H185.779C184.411 212.254 183.628 211.606 183.628 210.157V207.457H184.771V210.148C184.771 210.904 185.095 211.156 185.779 211.156H188.488V207.457H189.631V211.156H190.576V212.254H189.631V214ZM196.27 214H191.365V212.857H196.27C196.882 212.857 197.215 212.515 197.215 212.002C197.215 211.444 196.873 211.156 196.27 211.156H191.365V207.457H197.98V208.6H192.544V210.193H196.27C197.584 210.193 198.295 210.814 198.295 212.083C198.295 213.181 197.629 214 196.27 214ZM207.677 214H206.921L206.087 210.934L204.851 213.772C204.767 213.958 204.647 214.06 204.461 214.06C204.281 214.06 204.149 213.958 204.071 213.772L202.841 210.934L202.007 214H201.257L202.379 209.896C202.433 209.686 202.553 209.584 202.757 209.584C202.919 209.584 203.069 209.674 203.141 209.842L204.485 212.926L205.829 209.842C205.901 209.674 206.033 209.584 206.195 209.584C206.381 209.584 206.501 209.686 206.561 209.896L207.677 214Z" fill="#F20000"/>
<path d="M111 78.5308V69.5H116.422C117.314 69.5 118.019 69.6836 118.465 70.0874C118.911 70.4545 119.171 71.0418 119.171 71.7761C119.171 72.1432 119.097 72.4735 118.948 72.7305C118.799 72.9875 118.614 73.2445 118.317 73.428C118.799 73.7217 119.171 74.0521 119.431 74.4559C119.691 74.8597 119.802 75.337 119.802 75.8509C119.802 76.6952 119.542 77.356 118.985 77.8333C118.428 78.3105 117.685 78.5675 116.72 78.5675H111V78.5308ZM112.151 73.0609H116.534C117.017 73.0609 117.388 72.9508 117.648 72.7305C117.908 72.5103 118.019 72.2166 118.019 71.8128C118.019 71.3722 117.908 71.0786 117.648 70.8583C117.388 70.638 117.017 70.5279 116.534 70.5279H112.151V73.0609ZM112.151 77.5029H116.942C117.462 77.5029 117.871 77.356 118.168 77.0624C118.465 76.7687 118.614 76.3281 118.614 75.8142C118.614 75.3003 118.465 74.8964 118.168 74.566C117.871 74.2356 117.462 74.0888 116.942 74.0888H112.151V77.5029Z" fill="url(#paint3_linear_126_29586)"/>
<path d="M120.581 78.5429L124.184 71.5312H124.889L128.529 78.5429H127.341L126.412 76.7808H122.661L121.732 78.5429H120.581ZM123.144 75.8631H125.929L124.555 73.1832L123.144 75.8631Z" fill="url(#paint4_linear_126_29586)"/>
<path d="M129.566 78.5297V71.5547H130.681V74.6751L134.432 71.5547H135.88L132.909 74.051L136.326 78.5664H135.1L132.166 74.7118L130.718 75.9232V78.5664H129.566V78.5297Z" fill="url(#paint5_linear_126_29586)"/>
<path d="M137.628 78.5297V71.5547H138.742V74.6751L142.493 71.5547H143.942L140.971 74.051L144.387 78.5664H143.162L140.228 74.7118L138.779 75.9232V78.5664H137.628V78.5297Z" fill="url(#paint6_linear_126_29586)"/>
<path d="M149.102 78.7538C147.839 78.7538 146.8 78.3867 145.982 77.6892C145.165 76.9917 144.757 76.1106 144.757 75.046C144.757 73.9814 145.165 73.1004 145.982 72.4029C146.8 71.7054 147.839 71.375 149.102 71.375C150.365 71.375 151.405 71.7054 152.222 72.4029C153.039 73.1004 153.448 73.9814 153.448 75.046C153.448 76.1106 153.039 76.9917 152.222 77.6892C151.405 78.4234 150.365 78.7538 149.102 78.7538ZM149.102 77.7259C150.031 77.7259 150.811 77.4689 151.405 76.955C151.999 76.441 152.296 75.817 152.296 75.0093C152.296 74.2384 151.999 73.5776 151.405 73.1004C150.811 72.5864 150.031 72.3295 149.102 72.3295C148.174 72.3295 147.394 72.5864 146.8 73.1004C146.205 73.6143 145.908 74.2384 145.908 75.046C145.908 75.8537 146.205 76.4777 146.8 76.9917C147.394 77.5056 148.137 77.7259 149.102 77.7259Z" fill="url(#paint7_linear_126_29586)"/>
<path d="M155.234 71.5547H156.349V76.0334C156.349 76.6941 156.497 77.1714 156.831 77.3916C157.166 77.6119 157.797 77.7587 158.726 77.7587C159.691 77.7587 160.323 77.6486 160.657 77.3916C160.991 77.1714 161.14 76.6941 161.14 76.0334V71.5547H162.254V76.327C162.254 77.1714 161.994 77.7955 161.437 78.1993C160.88 78.5664 159.988 78.7866 158.763 78.7866C157.537 78.7866 156.646 78.6031 156.089 78.236C155.532 77.8689 155.272 77.2448 155.272 76.3638V71.5547H155.234Z" fill="url(#paint8_linear_126_29586)"/>
<path d="M165.817 74.6735C165.817 74.6735 165.817 77.2065 165.817 78.5648H164.703V71.5898H169.568C170.274 71.5898 170.868 71.7734 171.277 72.1038C171.685 72.4342 171.908 72.9114 171.908 73.5355C171.908 74.0494 171.76 74.4533 171.425 74.8204C171.091 75.1875 170.683 75.4077 170.163 75.4811L172.131 78.5648H170.943L168.937 75.5179L168.194 74.49H169.606C169.977 74.49 170.274 74.4165 170.497 74.233C170.72 74.0494 170.794 73.8292 170.794 73.5355C170.794 73.2418 170.683 72.9848 170.497 72.838C170.311 72.6912 170.014 72.581 169.606 72.581H165.854V74.6001C165.854 74.6001 165.854 74.9672 165.854 74.6001" fill="url(#paint9_linear_126_29586)"/>
<path d="M172.203 78.5429L175.806 71.5312H176.511L180.151 78.5429H178.963L178.034 76.7808H174.283L173.354 78.5429H172.203ZM174.766 75.8631H177.551L176.177 73.1832L174.766 75.8631Z" fill="url(#paint10_linear_126_29586)"/>
<g filter="url(#filter3_i_126_29586)">
<path d="M150.279 44.1144C149.999 44.3781 147.076 48.0693 145.649 49.882C144.921 48.0968 143.509 44.4829 143.369 44.2192C143.194 43.8897 142.854 43.9496 142.766 44.2792C142.679 44.6088 142.417 45.1031 142.068 45.5975C141.718 46.0919 139.622 47.4926 137.787 48.7285C135.953 49.9644 134.817 50.2939 134.555 50.5411C134.293 50.7883 134.642 51.2003 135.166 51.6122C135.691 52.0242 136.389 53.4249 136.914 54.2488C137.438 55.0728 137.7 54.6608 138.049 54.1664C138.399 53.6721 139.01 53.5897 139.796 53.2601C140.583 52.9305 140.233 52.601 139.796 52.601C139.36 52.601 138.673 52.2714 138.149 51.777C137.625 51.2827 137.625 51.1179 137.974 50.6235C138.324 50.1291 140.912 48.3122 141.698 47.8178C142.484 47.3235 142.659 47.9826 142.834 48.3122C142.974 48.5758 143.817 50.4274 144.254 51.3886C143.847 51.7731 142.941 52.7822 142.242 53.5073C141.369 54.4136 139.272 56.2263 138.573 56.7206C137.874 57.215 136.914 57.8741 137.176 58.1213C137.438 58.3685 138.573 58.5333 139.01 59.11C139.447 59.6868 139.971 61.7466 140.233 61.7466C140.495 61.7466 140.757 60.6755 141.893 58.6981C142.801 57.1161 144.543 54.7981 145.3 53.8369C145.678 54.6883 146.531 56.7074 146.881 57.3665C147.709 59.0697 147.999 60.4217 147.387 61.1633C146.776 61.9048 145.267 62.2047 144.339 61.5819C143.555 61.0556 143.465 59.522 143.116 59.1924C142.766 58.8629 142.371 59.3078 141.935 60.2141C141.498 61.1204 140.932 62.3234 140.845 62.5706C140.757 62.8178 140.757 62.9001 141.107 63.0649C141.456 63.2297 141.805 63.5593 143.378 64.2184C145.911 65.4543 147.693 64.6119 148.794 63.3945C149.971 62.0923 150.716 61.7466 151.153 61.6642C151.589 61.5819 152.114 61.5819 152.026 61.2523C151.939 60.9227 150.716 59.8516 150.366 59.522C150.087 59.2584 149.609 58.3136 149.405 57.8741L146.659 52.2167L150.017 48.2341C150.687 48.7834 152.219 50.0625 152.012 51.907C151.669 54.9635 149.45 54.5257 148.532 54.4136C148.715 54.9161 148.943 55.6297 149.668 56.803C154.054 56.9895 154.734 52.601 153.861 50.6235C153.067 48.4419 150.529 45.8184 150.541 45.6799C150.614 44.8722 150.662 43.7533 150.279 44.1144Z" fill="url(#paint11_linear_126_29586)"/>
</g>
<defs>
<filter id="filter0_i_126_29586" x="29" y="117" width="237" height="65" filterUnits="userSpaceOnUse" color-interpolation-filters="sRGB">
<feFlood flood-opacity="0" result="BackgroundImageFix"/>
<feBlend mode="normal" in="SourceGraphic" in2="BackgroundImageFix" result="shape"/>
<feColorMatrix in="SourceAlpha" type="matrix" values="0 0 0 0 0 0 0 0 0 0 0 0 0 0 0 0 0 0 127 0" result="hardAlpha"/>
<feOffset dy="1"/>
<feGaussianBlur stdDeviation="0.5"/>
<feComposite in2="hardAlpha" operator="arithmetic" k2="-1" k3="1"/>
<feColorMatrix type="matrix" values="0 0 0 0 0 0 0 0 0 0 0 0 0 0 0 0 0 0 0.25 0"/>
<feBlend mode="normal" in2="shape" result="effect1_innerShadow_126_29586"/>
</filter>
<filter id="filter1_d_126_29586" x="146.22" y="148.934" width="98.8408" height="97.2031" filterUnits="userSpaceOnUse" color-interpolation-filters="sRGB">
<feFlood flood-opacity="0" result="BackgroundImageFix"/>
<feColorMatrix in="SourceAlpha" type="matrix" values="0 0 0 0 0 0 0 0 0 0 0 0 0 0 0 0 0 0 127 0" result="hardAlpha"/>
<feOffset dy="1"/>
<feGaussianBlur stdDeviation="0.5"/>
<feComposite in2="hardAlpha" operator="out"/>
<feColorMatrix type="matrix" values="0 0 0 0 0 0 0 0 0 0 0 0 0 0 0 0 0 0 0.55 0"/>
<feBlend mode="normal" in2="BackgroundImageFix" result="effect1_dropShadow_126_29586"/>
<feBlend mode="normal" in="SourceGraphic" in2="effect1_dropShadow_126_29586" result="shape"/>
</filter>
<filter id="filter2_d_126_29586" x="153.249" y="155.734" width="84.7197" height="83.3125" filterUnits="userSpaceOnUse" color-interpolation-filters="sRGB">
<feFlood flood-opacity="0" result="BackgroundImageFix"/>
<feColorMatrix in="SourceAlpha" type="matrix" values="0 0 0 0 0 0 0 0 0 0 0 0 0 0 0 0 0 0 127 0" result="hardAlpha"/>
<feOffset dy="1"/>
<feGaussianBlur stdDeviation="0.5"/>
<feComposite in2="hardAlpha" operator="out"/>
<feColorMatrix type="matrix" values="0 0 0 0 1 0 0 0 0 1 0 0 0 0 1 0 0 0 0.15 0"/>
<feBlend mode="normal" in2="BackgroundImageFix" result="effect1_dropShadow_126_29586"/>
<feBlend mode="normal" in="SourceGraphic" in2="effect1_dropShadow_126_29586" result="shape"/>
</filter>
<filter id="filter3_i_126_29586" x="134.466" y="44" width="19.7256" height="21.8242" filterUnits="userSpaceOnUse" color-interpolation-filters="sRGB">
<feFlood flood-opacity="0" result="BackgroundImageFix"/>
<feBlend mode="normal" in="SourceGraphic" in2="BackgroundImageFix" result="shape"/>
<feColorMatrix in="SourceAlpha" type="matrix" values="0 0 0 0 0 0 0 0 0 0 0 0 0 0 0 0 0 0 127 0" result="hardAlpha"/>
<feOffset dy="1"/>
<feGaussianBlur stdDeviation="0.5"/>
<feComposite in2="hardAlpha" operator="arithmetic" k2="-1" k3="1"/>
<feColorMatrix type="matrix" values="0 0 0 0 0 0 0 0 0 0 0 0 0 0 0 0 0 0 0.25 0"/>
<feBlend mode="normal" in2="shape" result="effect1_innerShadow_126_29586"/>
</filter>
<radialGradient id="paint0_radial_126_29586" cx="0" cy="0" r="1" gradientUnits="userSpaceOnUse" gradientTransform="translate(206.421 186.729) rotate(135.488) scale(14.6254 0.286987)">
<stop stop-color="#281F0E"/>
<stop offset="1" stop-color="#ECC271"/>
</radialGradient>
<linearGradient id="paint1_linear_126_29586" x1="216.971" y1="176.357" x2="196.231" y2="197.454" gradientUnits="userSpaceOnUse">
<stop stop-color="#007AFF"/>
<stop offset="1" stop-color="#003874"/>
</linearGradient>
<radialGradient id="paint2_radial_126_29586" cx="0" cy="0" r="1" gradientUnits="userSpaceOnUse" gradientTransform="translate(206.418 186.729) rotate(135.488) scale(14.6254 0.286988)">
<stop stop-color="#281F0E"/>
<stop offset="1" stop-color="#ECC271"/>
</radialGradient>
<linearGradient id="paint3_linear_126_29586" x1="113.634" y1="69.5" x2="118.463" y2="80.0804" gradientUnits="userSpaceOnUse">
<stop stop-color="#ECC271"/>
<stop offset="1" stop-color="#7F642E"/>
</linearGradient>
<linearGradient id="paint4_linear_126_29586" x1="122.959" y1="71.5312" x2="126.311" y2="80.1071" gradientUnits="userSpaceOnUse">
<stop stop-color="#ECC271"/>
<stop offset="1" stop-color="#7F642E"/>
</linearGradient>
<linearGradient id="paint5_linear_126_29586" x1="131.589" y1="71.5547" x2="135.34" y2="79.7167" gradientUnits="userSpaceOnUse">
<stop stop-color="#ECC271"/>
<stop offset="1" stop-color="#7F642E"/>
</linearGradient>
<linearGradient id="paint6_linear_126_29586" x1="139.651" y1="71.5547" x2="143.402" y2="79.7167" gradientUnits="userSpaceOnUse">
<stop stop-color="#ECC271"/>
<stop offset="1" stop-color="#7F642E"/>
</linearGradient>
<linearGradient id="paint7_linear_126_29586" x1="147.357" y1="71.375" x2="150.786" y2="80.4889" gradientUnits="userSpaceOnUse">
<stop stop-color="#ECC271"/>
<stop offset="1" stop-color="#7F642E"/>
</linearGradient>
<linearGradient id="paint8_linear_126_29586" x1="157.335" y1="71.5547" x2="161.187" y2="79.993" gradientUnits="userSpaceOnUse">
<stop stop-color="#ECC271"/>
<stop offset="1" stop-color="#7F642E"/>
</linearGradient>
<linearGradient id="paint9_linear_126_29586" x1="166.926" y1="71.5898" x2="170.414" y2="79.973" gradientUnits="userSpaceOnUse">
<stop stop-color="#ECC271"/>
<stop offset="1" stop-color="#7F642E"/>
</linearGradient>
<linearGradient id="paint10_linear_126_29586" x1="174.581" y1="71.5312" x2="177.934" y2="80.1071" gradientUnits="userSpaceOnUse">
<stop stop-color="#ECC271"/>
<stop offset="1" stop-color="#7F642E"/>
</linearGradient>
<linearGradient id="paint11_linear_126_29586" x1="140.369" y1="44" x2="151.638" y2="68.0911" gradientUnits="userSpaceOnUse">
<stop stop-color="#ECC271"/>
<stop offset="1" stop-color="#7F642E"/>
</linearGradient>
<clipPath id="clip0_126_29586">
<rect width="237" height="64" fill="white" transform="translate(29 117)"/>
</clipPath>
</defs>
</svg>
